<?xml version="1.0" encoding="utf-8"?>
<!-- Generator: Adobe Illustrator 22.0.0, SVG Export Plug-In . SVG Version: 6.00 Build 0)  -->
<svg xmlns="http://www.w3.org/2000/svg" xmlns:xlink="http://www.w3.org/1999/xlink" version="1.1" id="图层_1" x="0px" y="0px" width="338.79px" height="531.55px" viewBox="0 0 338.79 531.55" enable-background="new 0 0 338.79 531.55" xml:space="preserve">
<g>
	
		<path fill-rule="evenodd" clip-rule="evenodd" fill="#0097DF" stroke="#DCDDDD" stroke-width="0.2997" stroke-miterlimit="22.9256" d="   M169.46,531.4c57.36-0.83,113.3-4.88,168.02-11.85l0.14-317.44c-54.52-20.78-82.64-77.22-72.17-185.81l0.02,0   c-10.64-2-19.73-4.62-30.91-9.66c17.78,153.97-148.03,153.97-130.25,0c-11.18,5.04-20.27,7.66-30.91,9.66l0.02,0   C83.87,124.88,55.76,181.33,1.24,202.11l0.14,317.44C55.66,526.47,114.76,531.4,169.46,531.4z"/>
	<polygon fill-rule="evenodd" clip-rule="evenodd" fill="#FFFFFF" points="337.52,423.25 337.52,389.84 305.92,230.65 298.52,226.8     "/>
	<polygon fill-rule="evenodd" clip-rule="evenodd" fill="#FFFFFF" points="1.34,423.25 1.34,389.84 32.94,230.65 40.34,226.8  "/>
	<path fill-rule="evenodd" clip-rule="evenodd" fill="#DCDDDD" d="M169.41,31.2c26.45-0.42,42.91-6.7,53.27-14.49   c0.02-0.06,0.03-0.12,0.05-0.18c1.15,124.05-107.79,124.05-106.64,0c0.02,0.06,0.03,0.12,0.05,0.18   C126.5,24.5,142.96,30.78,169.41,31.2z"/>
	<path fill-rule="evenodd" clip-rule="evenodd" fill="none" stroke="#DCDDDD" stroke-width="0.162" stroke-miterlimit="22.9256" d="   M169.4,31.2c26.44-0.42,42.91-6.7,53.27-14.49c0.02-0.06,0.03-0.12,0.05-0.17c1.15,124.05-107.79,124.05-106.64,0   c0.02,0.06,0.03,0.12,0.05,0.18C126.49,24.5,142.96,30.78,169.4,31.2z"/>
	
		<path fill-rule="evenodd" clip-rule="evenodd" fill="#0097E0" stroke="#DCDDDD" stroke-width="0.2997" stroke-miterlimit="22.9256" d="   M1.19,202.11c54.52-20.78,82.64-77.22,72.17-185.81l-12.7,2.07c6.3,97.65-12.01,147.5-60.51,170.25L1.19,202.11z"/>
	
		<path fill-rule="evenodd" clip-rule="evenodd" fill="#0097E0" stroke="#DCDDDD" stroke-width="0.2997" stroke-miterlimit="22.9256" d="   M116.89,0.33c-12.97,144.96,117.99,144.96,105.02,0l12.62,6.31c17.78,153.97-148.04,153.97-130.25,0L116.89,0.33z"/>
	
		<path fill-rule="evenodd" clip-rule="evenodd" fill="#0097E0" stroke="#DCDDDD" stroke-width="0.2997" stroke-miterlimit="22.9256" d="   M116.89,0.33c14.82,14.29,32.91,18.74,52.51,18.69c19.59,0.05,37.7-4.4,52.51-18.69c0.5,5.62,0.77,11.01,0.82,16.19   c-0.02,0.06-0.03,0.13-0.05,0.19c-10.36,7.79-26.83,14.07-53.27,14.49c-26.45-0.42-42.91-6.7-53.28-14.49   c-0.02-0.06-0.03-0.13-0.05-0.19C116.12,11.34,116.39,5.95,116.89,0.33z"/>
	
		<path fill-rule="evenodd" clip-rule="evenodd" fill="#0097E0" stroke="#DCDDDD" stroke-width="0.2997" stroke-miterlimit="22.9256" d="   M337.59,202.11c-54.52-20.78-82.64-77.22-72.17-185.81l12.7,2.07c-6.3,97.65,12.01,147.5,60.5,170.25L337.59,202.11z"/>
	
	<path fill-rule="evenodd" clip-rule="evenodd" fill="#99CCFF" d="M275.72,305.63c4.06-45.07,3.45-107.52,0.18-166.6   c-8.1-20.98-12.47-47.01-12.63-78.72l-29.3-6.7c-8.27,50.12-41.79,72.74-72.85,67.86c-0.09-0.01-0.18-0.03-0.28-0.04   c-25.45-4.13-49.2-26.73-55.97-67.81l-29.31,6.71c-0.16,31.67-4.51,57.66-12.6,78.63c-3.27,59.1-3.89,121.59,0.18,166.68   c11.5,127.6,38.02,192.14,61.69,224.77c15.07,0.65,30,1,44.62,1c15.03-0.22,29.95-0.66,44.79-1.31   C237.86,497.36,264.25,432.83,275.72,305.63z"/>
	<path fill-rule="evenodd" clip-rule="evenodd" fill="#FFFFFF" d="M263.27,55.96L234.6,49.4c-0.19,1.42-0.4,2.82-0.63,4.21l29.3,6.7   C263.26,58.87,263.26,57.42,263.27,55.96z"/>
	<path fill-rule="evenodd" clip-rule="evenodd" fill="#FFFFFF" d="M104.24,49.41l-28.68,6.56c0.01,1.46,0.01,2.91,0,4.35l29.3-6.71   C104.64,52.23,104.43,50.83,104.24,49.41z"/>
</g>
<g id="图层_x0020_1">
	<path fill="#F08300" d="M157.58,54.95c0.416,1.136,1.472,1.984,2.752,2.032c0.144,0,0.304,0,0.448-0.016h0.016   c0.016,0,0.064,0,0.128-0.016c0.032,0,0.048-0.016,0.08-0.016c0.064-0.016,0.144-0.032,0.224-0.048c0.016,0,0.016,0,0.032,0   c0.192-0.048,0.4-0.112,0.576-0.208c0.192-0.096,0.4-0.224,0.608-0.384c0.672-0.56,1.104-1.408,1.104-2.352   c0-0.224-0.032-0.448-0.08-0.672l0,0C163.42,53.07,163.37,52.9,163.29,52.72C162.82,51.63,161.74,50.87,160.47,50.87C158.78,50.87,157.4,52.24,157.4,53.94C157.4,54.29,157.46,54.63,157.58,54.95L157.58,54.95L157.58,54.95z M161.88,53.97L161.88,53.97C161.85,54.75,161.19,55.35,160.41,55.31C159.62,55.28,159.03,54.63,159.06,53.84c0.032-0.784,0.688-1.376,1.472-1.344   C161.3,52.53,161.91,53.2,161.88,53.97L161.88,53.97z"/>
	<polygon fill="#F08300" points="175.91,51.55 ,175.27,53.14 ,173.83,53.14 ,172.41,56.69 ,170.46,56.69 ,171.86,53.14 ,170.28,53.14    ,170.92,51.55"/>
	<path fill="#F08300" d="M177.88,46.82c-1.008-0.096-3.024-0.144-5.056,0.112c-2.416,0.304-5.152,0.912-7.616,1.664   C163.16,49.2,161.29,49.92,159.94,50.69C160.14,50.66,160.33,50.64,160.52,50.64c0.48,0,0.944,0.112,1.36,0.288   C165.98,48.61,173.18,46.56,177.88,46.82L177.88,46.82L177.88,46.82z"/>
	<path fill="#F08300" d="M163.35,52.29c4-2.368,8.88-4.672,13.488-5.248c-4.608,0.288-10.224,2-14.288,4.304   C162.87,51.6,163.14,51.92,163.35,52.29C163.35,52.29,163.35,52.29,163.35,52.29z"/>
	<polygon fill="#F08300" points="181.4,51.55 ,180.78,53.14 ,179.32,53.14 ,177.91,56.69 ,177.45,56.69 ,175.94,56.69 ,174.25,56.69    ,174.84,55.19 ,176.55,55.19 ,177.37,53.14 ,175.78,53.14 ,176.42,51.55"/>
	<polygon fill="#F08300" points="170.49,51.55 ,169.85,53.14 ,167.56,55.25 ,169.82,55.25 ,169.24,56.69 ,163.75,56.69 ,167.42,53.14    ,164.84,53.14 ,165.48,51.55"/>
	<path fill="#F08300" d="M175.77,47.41c-3.376,0.752-6.464,2.192-9.424,3.952h1.888C170.66,49.79,173,48.36,175.77,47.41z    M164.97,52.23C164.34,52.61,164.28,52.66,163.67,53.07c0.064,0.256,0.112,0.544,0.112,0.816c0,0.496-0.112,0.976-0.32,1.392   c0.176-0.16,0.32-0.304,0.432-0.4c0.272-0.24,0.768-0.64,1.6-1.296l0.32-0.256H164.49l0,0L164.97,52.23L164.97,52.23L164.97,52.23z"/>
</g>
</svg>