<?xml version="1.0" encoding="utf-8"?>
<!-- Generator: Adobe Illustrator 22.0.0, SVG Export Plug-In . SVG Version: 6.00 Build 0)  -->
<svg xmlns="http://www.w3.org/2000/svg" xmlns:xlink="http://www.w3.org/1999/xlink" version="1.1" id="图层_1" x="0px" y="0px" width="338.77px" height="531.4px" viewBox="0 0 338.77 531.4" enable-background="new 0 0 338.77 531.4" xml:space="preserve">
<path fill-rule="evenodd" clip-rule="evenodd" fill="#AE3941" stroke="#DCDDDD" stroke-width="0.2999" stroke-miterlimit="22.9256" d="  M169.4,531.47c57.4-0.83,113.39-4.88,168.16-11.86l0.14-317.69c-54.56-20.79-82.7-77.29-72.23-185.96l0.02,0  c-10.65-2-19.75-4.62-30.94-9.67c17.8,154.09-148.15,154.09-130.35,0c-11.19,5.04-20.28,7.67-30.94,9.67l0.02,0  C83.75,124.64,55.61,181.13,1.05,201.92l0.14,317.69C55.52,526.54,114.66,531.47,169.4,531.47z"/>
<path fill-rule="evenodd" clip-rule="evenodd" fill="#DCDDDD" d="M169.35,30.88c26.47-0.42,42.94-6.71,53.31-14.51  c0.02-0.06,0.03-0.12,0.05-0.18c1.15,124.14-107.87,124.14-106.73,0c0.02,0.06,0.03,0.12,0.05,0.18  C126.41,24.17,142.89,30.46,169.35,30.88z"/>
<path fill-rule="evenodd" clip-rule="evenodd" fill="none" stroke="#DCDDDD" stroke-width="0.1621" stroke-miterlimit="22.9256" d="  M169.35,30.88c26.46-0.42,42.94-6.71,53.31-14.5c0.02-0.06,0.03-0.12,0.05-0.18c1.15,124.14-107.87,124.14-106.73,0  c0.02,0.06,0.03,0.12,0.05,0.18C126.4,24.17,142.88,30.46,169.35,30.88z"/>
<path fill-rule="evenodd" clip-rule="evenodd" fill="#000724" stroke="#DCDDDD" stroke-width="0.2999" stroke-miterlimit="22.9256" d="  M1.01,201.92c54.56-20.79,82.7-77.29,72.23-185.96l-12.71,2.07c6.3,97.73-12.02,147.62-60.55,170.38L1.01,201.92z"/>
<path fill-rule="evenodd" clip-rule="evenodd" fill="#000723" stroke="#DCDDDD" stroke-width="0.2999" stroke-miterlimit="22.9256" d="  M116.8-0.02c-12.98,145.07,118.08,145.07,105.1,0l12.63,6.31c17.8,154.09-148.15,154.09-130.35,0L116.8-0.02z"/>
<path fill-rule="evenodd" clip-rule="evenodd" fill="#000723" stroke="#DCDDDD" stroke-width="0.2999" stroke-miterlimit="22.9256" d="  M116.8-0.02c14.83,14.31,32.94,18.76,52.55,18.71c19.61,0.05,37.72-4.4,52.55-18.71c0.5,5.63,0.77,11.02,0.82,16.2  c-0.02,0.06-0.03,0.13-0.05,0.19c-10.37,7.8-26.85,14.08-53.31,14.5c-26.47-0.42-42.94-6.71-53.32-14.5  c-0.02-0.06-0.03-0.13-0.05-0.19C116.02,11,116.29,5.61,116.8-0.02z"/>

<path fill-rule="evenodd" clip-rule="evenodd" fill="#FFFFFF" d="M27.36,187.44c1.86,8.67,3.67,17.81,5.43,27.37h273.18  c1.76-9.56,3.57-18.7,5.43-27.37c7.9,5.97,16.69,10.74,26.29,14.4l-0.02,37.83v33.58h-0.02l-0.11,246.36  c-19.61,2.5-39.85,4.74-60.28,6.59c0.21-8.15,0.46-16.36,0.75-24.63c2.95-84.36,9.62-162.76,18.65-228.32H42.09  c9.04,65.55,15.7,143.95,18.65,228.32c0.29,8.27,0.54,16.48,0.75,24.63c-20.43-1.84-40.67-4.08-60.28-6.59L1.09,273.25H1.08v-29.16  l-0.02-42.24C10.67,198.18,19.45,193.4,27.36,187.44z"/>
<path fill-rule="evenodd" clip-rule="evenodd" fill="#000724" stroke="#DCDDDD" stroke-width="0.2999" stroke-miterlimit="22.9256" d="  M337.67,201.92c-54.56-20.79-82.7-77.29-72.23-185.96l12.71,2.07c-6.3,97.73,12.02,147.62,60.55,170.38L337.67,201.92z"/>
<path fill-rule="evenodd" clip-rule="evenodd" fill="#FFFFFE" d="M270.34,279.37h-0.74h-0.74l-0.37-0.64l-0.37-0.64l0.37-0.64  l0.37-0.64h0.74h0.74l0.37,0.64l0.37,0.64l-0.37,0.64L270.34,279.37L270.34,279.37z M270.59,291.9c-0.33,0-0.66,0-0.99,0  c-0.33,0-0.66,0-0.99,0c-0.17-0.29-0.33-0.57-0.49-0.86c-0.17-0.29-0.33-0.57-0.5-0.86c0.17-0.29,0.33-0.57,0.5-0.86  c0.17-0.29,0.33-0.57,0.49-0.86c0.33,0,0.66,0,0.99,0c0.33,0,0.66,0,0.99,0c0.16,0.29,0.33,0.57,0.5,0.86  c0.16,0.29,0.33,0.57,0.49,0.86c-0.17,0.29-0.33,0.57-0.49,0.86C270.92,291.33,270.75,291.62,270.59,291.9L270.59,291.9z   M270.84,304.81c-0.41,0-0.83,0-1.24,0c-0.41,0-0.83,0-1.24,0c-0.21-0.36-0.41-0.72-0.62-1.08c-0.21-0.36-0.41-0.72-0.62-1.08  c0.21-0.36,0.41-0.72,0.62-1.08c0.21-0.36,0.41-0.72,0.62-1.08c0.41,0,0.83,0,1.24,0c0.41,0,0.83,0,1.24,0  c0.21,0.36,0.41,0.72,0.62,1.08c0.21,0.36,0.41,0.72,0.62,1.08c-0.21,0.36-0.41,0.72-0.62,1.08  C271.25,304.09,271.05,304.45,270.84,304.81L270.84,304.81z M271.09,318.12c-0.5,0-1,0-1.49,0c-0.5,0-1,0-1.49,0  c-0.25-0.43-0.5-0.86-0.75-1.29c-0.25-0.43-0.5-0.86-0.75-1.29c0.25-0.43,0.5-0.86,0.75-1.29c0.25-0.43,0.5-0.86,0.75-1.29  c0.5,0,1,0,1.49,0c0.5,0,1,0,1.49,0c0.25,0.43,0.5,0.86,0.75,1.29c0.25,0.43,0.5,0.86,0.75,1.29c-0.25,0.43-0.5,0.86-0.75,1.29  C271.59,317.26,271.34,317.69,271.09,318.12L271.09,318.12z M271.34,331.86c-0.58,0-1.16,0-1.74,0c-0.58,0-1.16,0-1.74,0  c-0.29-0.5-0.58-1.01-0.87-1.51c-0.29-0.5-0.58-1.01-0.87-1.51c0.29-0.5,0.58-1.01,0.87-1.51c0.29-0.5,0.58-1.01,0.87-1.51  c0.58,0,1.16,0,1.74,0c0.58,0,1.16,0,1.74,0c0.29,0.5,0.58,1.01,0.87,1.51c0.29,0.5,0.58,1.01,0.87,1.51  c-0.29,0.5-0.58,1.01-0.87,1.51C271.92,330.85,271.63,331.35,271.34,331.86L271.34,331.86z M271.59,346.05c-0.67,0-1.33,0-2,0  c-0.67,0-1.33,0-2,0c-0.33-0.58-0.67-1.15-1-1.73c-0.33-0.58-0.67-1.15-1-1.73c0.33-0.58,0.67-1.15,1-1.73  c0.33-0.58,0.67-1.15,1-1.73c0.67,0,1.33,0,2,0c0.67,0,1.33,0,2,0c0.33,0.58,0.67,1.15,1,1.73c0.33,0.58,0.67,1.15,1,1.73  c-0.33,0.58-0.67,1.15-1,1.73C272.26,344.9,271.93,345.48,271.59,346.05L271.59,346.05z M271.85,360.73c-0.75,0-1.5,0-2.25,0  c-0.75,0-1.5,0-2.25,0c-0.37-0.65-0.75-1.3-1.12-1.95c-0.37-0.65-0.75-1.3-1.12-1.95c0.37-0.65,0.75-1.3,1.12-1.95  c0.37-0.65,0.75-1.3,1.12-1.95c0.75,0,1.5,0,2.25,0c0.75,0,1.5,0,2.25,0c0.37,0.65,0.75,1.3,1.12,1.95c0.37,0.65,0.75,1.3,1.12,1.95  c-0.37,0.65-0.75,1.3-1.12,1.95C272.6,359.44,272.22,360.08,271.85,360.73L271.85,360.73z M272.1,375.94c-0.83,0-1.67,0-2.5,0  c-0.83,0-1.67,0-2.5,0c-0.42-0.72-0.83-1.44-1.25-2.17c-0.42-0.72-0.83-1.44-1.25-2.17c0.42-0.72,0.83-1.44,1.25-2.17  c0.42-0.72,0.83-1.44,1.25-2.17c0.83,0,1.67,0,2.5,0c0.83,0,1.67,0,2.5,0c0.42,0.72,0.83,1.44,1.25,2.17  c0.42,0.72,0.83,1.44,1.25,2.17c-0.42,0.72-0.83,1.44-1.25,2.17C272.93,374.5,272.51,375.22,272.1,375.94L272.1,375.94z   M272.35,391.71c-0.92,0-1.83,0-2.75,0c-0.92,0-1.83,0-2.75,0c-0.46-0.79-0.92-1.59-1.38-2.38c-0.46-0.79-0.92-1.59-1.38-2.38  c0.46-0.79,0.92-1.59,1.38-2.38c0.46-0.79,0.92-1.59,1.38-2.38c0.92,0,1.83,0,2.75,0c0.92,0,1.83,0,2.75,0  c0.46,0.79,0.92,1.59,1.38,2.38c0.46,0.79,0.92,1.59,1.38,2.38c-0.46,0.79-0.92,1.59-1.38,2.38  C273.27,390.13,272.81,390.92,272.35,391.71L272.35,391.71z M272.6,408.1c-1,0-2,0-3,0c-1,0-2,0-3,0c-0.5-0.87-1-1.73-1.5-2.6  c-0.5-0.87-1-1.73-1.5-2.6c0.5-0.87,1-1.73,1.5-2.6c0.5-0.87,1-1.73,1.5-2.6c1,0,2,0,3,0c1,0,2,0,3,0c0.5,0.87,1,1.73,1.5,2.6  c0.5,0.87,1,1.73,1.5,2.6c-0.5,0.87-1,1.73-1.5,2.6C273.6,406.36,273.1,407.23,272.6,408.1L272.6,408.1z M272.85,425.14  c-1.09,0-2.17,0-3.26,0c-1.09,0-2.17,0-3.26,0c-0.54-0.94-1.09-1.88-1.63-2.82c-0.54-0.94-1.09-1.88-1.63-2.82  c0.54-0.94,1.09-1.88,1.63-2.82c0.54-0.94,1.09-1.88,1.63-2.82c1.08,0,2.17,0,3.26,0c1.08,0,2.17,0,3.26,0  c0.54,0.94,1.08,1.88,1.63,2.82c0.54,0.94,1.09,1.88,1.63,2.82c-0.54,0.94-1.09,1.88-1.63,2.82  C273.94,423.26,273.4,424.2,272.85,425.14L272.85,425.14z M273.1,442.9c-1.17,0-2.34,0-3.51,0c-1.17,0-2.34,0-3.51,0  c-0.58-1.01-1.17-2.02-1.75-3.04c-0.58-1.01-1.17-2.02-1.75-3.04c0.58-1.01,1.17-2.02,1.75-3.04c0.58-1.01,1.17-2.02,1.75-3.04  c1.17,0,2.34,0,3.51,0c1.17,0,2.34,0,3.51,0c0.58,1.01,1.17,2.02,1.75,3.04c0.58,1.01,1.17,2.02,1.75,3.04  c-0.58,1.01-1.17,2.02-1.75,3.04C274.27,440.88,273.69,441.89,273.1,442.9L273.1,442.9z M273.36,461.45c-1.25,0-2.51,0-3.76,0  c-1.25,0-2.51,0-3.76,0c-0.63-1.09-1.25-2.17-1.88-3.26c-0.63-1.09-1.25-2.17-1.88-3.26c0.63-1.09,1.25-2.17,1.88-3.26  c0.63-1.09,1.25-2.17,1.88-3.25c1.25,0,2.51,0,3.76,0c1.25,0,2.51,0,3.76,0c0.63,1.08,1.25,2.17,1.88,3.26  c0.63,1.08,1.25,2.17,1.88,3.25c-0.63,1.09-1.25,2.17-1.88,3.26C274.61,459.28,273.98,460.36,273.36,461.45L273.36,461.45z   M273.61,480.85c-1.34,0-2.67,0-4.01,0c-1.34,0-2.67,0-4.01,0c-0.67-1.16-1.34-2.32-2-3.47c-0.67-1.16-1.34-2.32-2.01-3.47  c0.67-1.16,1.34-2.32,2.01-3.47c0.67-1.16,1.34-2.32,2.01-3.47c1.34,0,2.67,0,4.01,0c1.34,0,2.67,0,4.01,0  c0.67,1.16,1.34,2.32,2.01,3.47c0.67,1.16,1.34,2.32,2.01,3.47c-0.67,1.16-1.34,2.32-2.01,3.47  C274.94,478.53,274.28,479.69,273.61,480.85L273.61,480.85z M273.86,501.19c-1.42,0-2.84,0-4.26,0c-1.42,0-2.84,0-4.26,0  c-0.71-1.23-1.42-2.46-2.13-3.69c-0.71-1.23-1.42-2.46-2.13-3.69c0.71-1.23,1.42-2.46,2.13-3.69c0.71-1.23,1.42-2.46,2.13-3.69  c1.42,0,2.84,0,4.26,0c1.42,0,2.84,0,4.26,0c0.71,1.23,1.42,2.46,2.13,3.69c0.71,1.23,1.42,2.46,2.13,3.69  c-0.71,1.23-1.42,2.46-2.13,3.69C275.28,498.73,274.57,499.96,273.86,501.19L273.86,501.19z M274.11,522.57h-4.51h-4.51l-2.26-3.91  l-2.26-3.91l2.26-3.91l2.26-3.91h4.51h4.51l2.26,3.91l1.27,2.19c-0.04,1.21-0.07,2.41-0.11,3.62l-1.16,2L274.11,522.57  L274.11,522.57z M285.76,288.27h-0.74h-0.74l-0.37-0.64l-0.37-0.64l0.37-0.64l0.37-0.64h0.74h0.74l0.37,0.64l0.37,0.64l-0.37,0.64  L285.76,288.27L285.76,288.27z M286.01,300.8c-0.33,0-0.66,0-0.99,0c-0.33,0-0.66,0-0.99,0c-0.16-0.29-0.33-0.57-0.49-0.86  c-0.17-0.29-0.33-0.57-0.5-0.86c0.17-0.29,0.33-0.57,0.5-0.86c0.17-0.29,0.33-0.57,0.49-0.86c0.33,0,0.66,0,0.99,0  c0.33,0,0.66,0,0.99,0c0.16,0.29,0.33,0.57,0.5,0.86c0.17,0.29,0.33,0.57,0.49,0.86c-0.16,0.29-0.33,0.57-0.49,0.86  C286.34,300.23,286.17,300.52,286.01,300.8L286.01,300.8z M286.26,313.71c-0.41,0-0.83,0-1.24,0c-0.41,0-0.83,0-1.24,0  c-0.21-0.36-0.41-0.72-0.62-1.08c-0.21-0.36-0.41-0.72-0.62-1.08c0.21-0.36,0.41-0.72,0.62-1.08c0.21-0.36,0.41-0.72,0.62-1.08  c0.41,0,0.83,0,1.24,0c0.41,0,0.83,0,1.24,0c0.21,0.36,0.41,0.72,0.62,1.08c0.21,0.36,0.41,0.72,0.62,1.08  c-0.21,0.36-0.41,0.72-0.62,1.08C286.67,313,286.47,313.35,286.26,313.71L286.26,313.71z M286.51,327.02c-0.5,0-1,0-1.49,0  c-0.5,0-1,0-1.49,0c-0.25-0.43-0.5-0.86-0.75-1.29c-0.25-0.43-0.5-0.86-0.75-1.29c0.25-0.43,0.5-0.86,0.75-1.29  c0.25-0.43,0.5-0.86,0.75-1.29c0.5,0,1,0,1.49,0c0.5,0,1,0,1.49,0c0.25,0.43,0.5,0.86,0.75,1.29c0.25,0.43,0.5,0.86,0.75,1.29  c-0.25,0.43-0.5,0.86-0.75,1.29C287.01,326.16,286.76,326.59,286.51,327.02L286.51,327.02z M286.76,340.76c-0.58,0-1.16,0-1.74,0  c-0.58,0-1.16,0-1.74,0c-0.29-0.5-0.58-1.01-0.87-1.51c-0.29-0.5-0.58-1.01-0.87-1.51c0.29-0.5,0.58-1.01,0.87-1.51  c0.29-0.5,0.58-1.01,0.87-1.51c0.58,0,1.16,0,1.74,0c0.58,0,1.16,0,1.74,0c0.29,0.5,0.58,1.01,0.87,1.51  c0.29,0.5,0.58,1.01,0.87,1.51c-0.29,0.5-0.58,1.01-0.87,1.51C287.34,339.75,287.05,340.26,286.76,340.76L286.76,340.76z   M287.01,354.95c-0.67,0-1.33,0-2,0c-0.67,0-1.33,0-2,0c-0.33-0.58-0.67-1.15-1-1.73c-0.33-0.58-0.67-1.15-1-1.73  c0.33-0.58,0.67-1.15,1-1.73c0.33-0.58,0.67-1.15,1-1.73c0.67,0,1.33,0,2,0c0.67,0,1.33,0,2,0l0.81,1.4  c-0.16,1.64-0.32,3.29-0.47,4.94L287.01,354.95L287.01,354.95z M285.96,369.64h-0.95c-0.75,0-1.5,0-2.25,0  c-0.37-0.65-0.75-1.3-1.12-1.95c-0.37-0.65-0.75-1.3-1.12-1.95c0.37-0.65,0.75-1.3,1.12-1.95c0.37-0.65,0.75-1.3,1.12-1.95  c0.75,0,1.5,0,2.25,0h1.64C286.42,364.43,286.19,367.03,285.96,369.64L285.96,369.64z M284.69,384.84h-2.17  c-0.42-0.72-0.83-1.44-1.25-2.17c-0.42-0.72-0.83-1.44-1.25-2.17c0.42-0.72,0.83-1.44,1.25-2.17c0.42-0.72,0.83-1.44,1.25-2.17  c0.83,0,1.67,0,2.5,0h0.39C285.16,379.06,284.92,381.94,284.69,384.84L284.69,384.84z M283.47,400.62h-1.21  c-0.46-0.79-0.92-1.59-1.38-2.38c-0.46-0.79-0.92-1.59-1.38-2.38c0.46-0.79,0.92-1.59,1.38-2.38c0.46-0.79,0.92-1.59,1.38-2.38h1.93  C283.95,394.25,283.71,397.42,283.47,400.62L283.47,400.62z M282.31,417h-0.3c-0.5-0.87-1-1.73-1.5-2.6c-0.5-0.87-1-1.73-1.5-2.6  c0.5-0.87,1-1.73,1.5-2.6c0.5-0.87,1-1.73,1.5-2.6h1.02C282.79,410.05,282.55,413.51,282.31,417L282.31,417z M281.28,433.2  l-1.14-1.98c-0.54-0.94-1.09-1.88-1.63-2.82c0.54-0.94,1.09-1.88,1.63-2.82c0.54-0.94,1.09-1.88,1.63-2.82h0.17  C281.71,426.23,281.49,429.71,281.28,433.2L281.28,433.2z M280.32,449.75l-0.57-0.98c-0.58-1.01-1.17-2.02-1.75-3.04  c0.58-1.01,1.17-2.03,1.75-3.04l1.07-1.85C280.65,443.8,280.49,446.77,280.32,449.75L280.32,449.75z M279.43,467.19  c0.12-2.45,0.24-4.89,0.36-7.32l-0.41,0.72c-0.63,1.08-1.25,2.17-1.88,3.26c0.63,1.09,1.25,2.17,1.88,3.26L279.43,467.19  L279.43,467.19z M278.62,485.61c0.08-2.02,0.17-4.04,0.25-6.05L277,482.8L278.62,485.61L278.62,485.61z M277.89,505.12  c0.04-1.19,0.08-2.37,0.12-3.56l0.06-1.58l-1.57,2.73L277.89,505.12L277.89,505.12z M277.27,525.88c0.04-1.55,0.08-3.1,0.12-4.66  l-1.41,2.44L277.27,525.88L277.27,525.88z M239.5,279.37h-0.74h-0.74l-0.37-0.64l-0.37-0.64l0.37-0.64l0.37-0.64h0.74h0.74  l0.37,0.64l0.37,0.64l-0.37,0.64L239.5,279.37L239.5,279.37z M239.75,291.9c-0.33,0-0.66,0-0.99,0c-0.33,0-0.66,0-0.99,0  c-0.17-0.29-0.33-0.57-0.5-0.86c-0.17-0.29-0.33-0.57-0.5-0.86c0.16-0.29,0.33-0.57,0.5-0.86c0.17-0.29,0.33-0.57,0.5-0.86  c0.33,0,0.66,0,0.99,0c0.33,0,0.66,0,0.99,0c0.16,0.29,0.33,0.57,0.5,0.86c0.16,0.29,0.33,0.57,0.49,0.86  c-0.17,0.29-0.33,0.57-0.49,0.86C240.08,291.33,239.91,291.62,239.75,291.9L239.75,291.9z M240,304.81c-0.41,0-0.83,0-1.24,0  c-0.41,0-0.83,0-1.24,0c-0.21-0.36-0.41-0.72-0.62-1.08c-0.21-0.36-0.41-0.72-0.62-1.08c0.21-0.36,0.41-0.72,0.62-1.08  c0.21-0.36,0.41-0.72,0.62-1.08c0.41,0,0.83,0,1.24,0c0.41,0,0.83,0,1.24,0c0.21,0.36,0.41,0.72,0.62,1.08  c0.21,0.36,0.41,0.72,0.62,1.08c-0.21,0.36-0.41,0.72-0.62,1.08C240.42,304.09,240.21,304.45,240,304.81L240,304.81z M240.25,318.12  c-0.5,0-1,0-1.49,0c-0.5,0-1,0-1.49,0c-0.25-0.43-0.5-0.86-0.75-1.29c-0.25-0.43-0.5-0.86-0.75-1.29c0.25-0.43,0.5-0.86,0.75-1.29  c0.25-0.43,0.5-0.86,0.75-1.29c0.5,0,1,0,1.49,0c0.5,0,1,0,1.49,0c0.25,0.43,0.5,0.86,0.75,1.29c0.25,0.43,0.5,0.86,0.75,1.29  c-0.25,0.43-0.5,0.86-0.75,1.29C240.75,317.26,240.5,317.69,240.25,318.12L240.25,318.12z M240.5,331.86c-0.58,0-1.16,0-1.74,0  c-0.58,0-1.16,0-1.75,0c-0.29-0.5-0.58-1.01-0.87-1.51c-0.29-0.5-0.58-1.01-0.87-1.51c0.29-0.5,0.58-1.01,0.87-1.51  c0.29-0.5,0.58-1.01,0.87-1.51c0.58,0,1.16,0,1.75,0c0.58,0,1.16,0,1.74,0c0.29,0.5,0.58,1.01,0.87,1.51  c0.29,0.5,0.58,1.01,0.87,1.51c-0.29,0.5-0.58,1.01-0.87,1.51C241.09,330.85,240.8,331.35,240.5,331.86L240.5,331.86z   M240.76,346.05c-0.67,0-1.33,0-2,0c-0.67,0-1.33,0-2,0c-0.33-0.58-0.67-1.15-1-1.73c-0.33-0.58-0.67-1.15-1-1.73  c0.33-0.58,0.67-1.15,1-1.73c0.33-0.58,0.67-1.15,1-1.73c0.67,0,1.33,0,2,0c0.67,0,1.33,0,2,0c0.33,0.58,0.67,1.15,1,1.73  c0.33,0.58,0.67,1.15,1,1.73c-0.33,0.58-0.67,1.15-1,1.73C241.42,344.9,241.09,345.48,240.76,346.05L240.76,346.05z M241.01,360.73  c-0.75,0-1.5,0-2.25,0c-0.75,0-1.5,0-2.25,0c-0.37-0.65-0.75-1.3-1.12-1.95c-0.37-0.65-0.75-1.3-1.12-1.95  c0.37-0.65,0.75-1.3,1.12-1.95c0.37-0.65,0.75-1.3,1.12-1.95c0.75,0,1.5,0,2.25,0c0.75,0,1.5,0,2.25,0c0.37,0.65,0.75,1.3,1.12,1.95  c0.37,0.65,0.75,1.3,1.12,1.95c-0.37,0.65-0.75,1.3-1.12,1.95C241.76,359.44,241.38,360.08,241.01,360.73L241.01,360.73z   M241.26,375.94c-0.83,0-1.67,0-2.5,0c-0.83,0-1.67,0-2.5,0c-0.42-0.72-0.83-1.44-1.25-2.17c-0.42-0.72-0.83-1.44-1.25-2.17  c0.42-0.72,0.83-1.44,1.25-2.17c0.42-0.72,0.83-1.44,1.25-2.17c0.83,0,1.67,0,2.5,0c0.83,0,1.67,0,2.5,0  c0.42,0.72,0.83,1.44,1.25,2.17c0.42,0.72,0.83,1.44,1.25,2.17c-0.42,0.72-0.83,1.44-1.25,2.17  C242.09,374.5,241.68,375.22,241.26,375.94L241.26,375.94z M241.51,391.71c-0.92,0-1.83,0-2.75,0c-0.92,0-1.83,0-2.75,0  c-0.46-0.79-0.92-1.59-1.38-2.38c-0.46-0.79-0.92-1.59-1.38-2.38c0.46-0.79,0.92-1.59,1.38-2.38c0.46-0.79,0.92-1.59,1.38-2.38  c0.92,0,1.83,0,2.75,0c0.92,0,1.83,0,2.75,0c0.46,0.79,0.92,1.59,1.38,2.38c0.46,0.79,0.92,1.59,1.38,2.38  c-0.46,0.79-0.92,1.59-1.38,2.38C242.43,390.13,241.97,390.92,241.51,391.71L241.51,391.71z M241.76,408.1c-1,0-2,0-3,0  c-1,0-2,0-3,0c-0.5-0.87-1-1.73-1.5-2.6c-0.5-0.87-1-1.73-1.5-2.6c0.5-0.87,1-1.73,1.5-2.6c0.5-0.87,1-1.73,1.5-2.6c1,0,2,0,3,0  c1,0,2,0,3,0c0.5,0.87,1,1.73,1.5,2.6c0.5,0.87,1,1.73,1.5,2.6c-0.5,0.87-1,1.73-1.5,2.6C242.76,406.36,242.26,407.23,241.76,408.1  L241.76,408.1z M242.02,425.14c-1.09,0-2.17,0-3.26,0c-1.09,0-2.17,0-3.26,0c-0.54-0.94-1.09-1.88-1.63-2.82  c-0.54-0.94-1.09-1.88-1.63-2.82c0.54-0.94,1.09-1.88,1.63-2.82c0.54-0.94,1.09-1.88,1.63-2.82c1.08,0,2.17,0,3.26,0  c1.08,0,2.17,0,3.26,0c0.54,0.94,1.08,1.88,1.63,2.82c0.54,0.94,1.09,1.88,1.63,2.82c-0.54,0.94-1.09,1.88-1.63,2.82  C243.1,423.26,242.56,424.2,242.02,425.14L242.02,425.14z M242.27,442.9c-1.17,0-2.34,0-3.51,0c-1.17,0-2.34,0-3.51,0  c-0.58-1.01-1.17-2.02-1.75-3.04c-0.58-1.01-1.17-2.02-1.75-3.04c0.58-1.01,1.17-2.02,1.75-3.04c0.58-1.01,1.17-2.02,1.75-3.04  c1.17,0,2.34,0,3.51,0c1.17,0,2.34,0,3.51,0c0.58,1.01,1.17,2.02,1.75,3.04c0.58,1.01,1.17,2.02,1.75,3.04  c-0.58,1.01-1.17,2.02-1.75,3.04C243.44,440.88,242.85,441.89,242.27,442.9L242.27,442.9z M242.52,461.45c-1.25,0-2.51,0-3.76,0  c-1.25,0-2.51,0-3.76,0c-0.63-1.09-1.25-2.17-1.88-3.26c-0.63-1.09-1.25-2.17-1.88-3.26c0.63-1.09,1.25-2.17,1.88-3.26  c0.63-1.09,1.25-2.17,1.88-3.25c1.25,0,2.51,0,3.76,0c1.25,0,2.51,0,3.76,0c0.63,1.08,1.25,2.17,1.88,3.26  c0.63,1.08,1.25,2.17,1.88,3.25c-0.63,1.09-1.25,2.17-1.88,3.26C243.77,459.28,243.14,460.36,242.52,461.45L242.52,461.45z   M242.77,480.85c-1.34,0-2.67,0-4.01,0c-1.34,0-2.67,0-4.01,0c-0.67-1.16-1.34-2.32-2-3.47c-0.67-1.16-1.34-2.32-2.01-3.47  c0.67-1.16,1.34-2.32,2.01-3.47c0.67-1.16,1.34-2.32,2.01-3.47c1.34,0,2.67,0,4.01,0c1.34,0,2.67,0,4.01,0  c0.67,1.16,1.34,2.32,2.01,3.47c0.67,1.16,1.34,2.32,2.01,3.47c-0.67,1.16-1.34,2.32-2.01,3.47  C244.11,478.53,243.44,479.69,242.77,480.85L242.77,480.85z M243.02,501.19c-1.42,0-2.84,0-4.26,0c-1.42,0-2.84,0-4.26,0  c-0.71-1.23-1.42-2.46-2.13-3.69c-0.71-1.23-1.42-2.46-2.13-3.69c0.71-1.23,1.42-2.46,2.13-3.69c0.71-1.23,1.42-2.46,2.13-3.69  c1.42,0,2.84,0,4.26,0c1.42,0,2.84,0,4.26,0c0.71,1.23,1.42,2.46,2.13,3.69c0.71,1.23,1.42,2.46,2.13,3.69  c-0.71,1.23-1.42,2.46-2.13,3.69C244.44,498.73,243.73,499.96,243.02,501.19L243.02,501.19z M243.27,522.57h-4.51h-4.51l-2.26-3.91  l-2.26-3.91l2.26-3.91l2.26-3.91h4.51h4.51l2.26,3.91l2.26,3.91l-2.26,3.91L243.27,522.57L243.27,522.57z M254.92,288.27h-0.74  h-0.74l-0.37-0.64l-0.37-0.64l0.37-0.64l0.37-0.64h0.74h0.74l0.37,0.64l0.37,0.64l-0.37,0.64L254.92,288.27L254.92,288.27z   M255.17,300.8c-0.33,0-0.66,0-0.99,0c-0.33,0-0.66,0-0.99,0c-0.16-0.29-0.33-0.57-0.49-0.86c-0.17-0.29-0.33-0.57-0.5-0.86  c0.17-0.29,0.33-0.57,0.5-0.86c0.16-0.29,0.33-0.57,0.49-0.86c0.33,0,0.66,0,0.99,0c0.33,0,0.66,0,0.99,0  c0.17,0.29,0.33,0.57,0.5,0.86c0.16,0.29,0.33,0.57,0.5,0.86c-0.17,0.29-0.33,0.57-0.5,0.86  C255.5,300.23,255.33,300.52,255.17,300.8L255.17,300.8z M255.42,313.71c-0.41,0-0.83,0-1.24,0c-0.41,0-0.83,0-1.24,0  c-0.21-0.36-0.41-0.72-0.62-1.08c-0.21-0.36-0.41-0.72-0.62-1.08c0.21-0.36,0.41-0.72,0.62-1.08c0.21-0.36,0.41-0.72,0.62-1.08  c0.41,0,0.83,0,1.24,0c0.41,0,0.83,0,1.24,0c0.21,0.36,0.41,0.72,0.62,1.08c0.21,0.36,0.41,0.72,0.62,1.08  c-0.21,0.36-0.41,0.72-0.62,1.08C255.83,313,255.63,313.35,255.42,313.71L255.42,313.71z M255.67,327.02c-0.5,0-1,0-1.49,0  c-0.5,0-1,0-1.49,0c-0.25-0.43-0.5-0.86-0.75-1.29c-0.25-0.43-0.5-0.86-0.75-1.29c0.25-0.43,0.5-0.86,0.75-1.29  c0.25-0.43,0.5-0.86,0.75-1.29c0.5,0,1,0,1.49,0c0.5,0,1,0,1.49,0c0.25,0.43,0.5,0.86,0.75,1.29c0.25,0.43,0.5,0.86,0.75,1.29  c-0.25,0.43-0.5,0.86-0.75,1.29C256.17,326.16,255.92,326.59,255.67,327.02L255.67,327.02z M255.92,340.76c-0.58,0-1.16,0-1.75,0  c-0.58,0-1.16,0-1.74,0c-0.29-0.5-0.58-1.01-0.87-1.51c-0.29-0.5-0.58-1.01-0.87-1.51c0.29-0.5,0.58-1.01,0.87-1.51  c0.29-0.5,0.58-1.01,0.87-1.51c0.58,0,1.16,0,1.74,0c0.58,0,1.16,0,1.75,0c0.29,0.5,0.58,1.01,0.87,1.51  c0.29,0.5,0.58,1.01,0.87,1.51c-0.29,0.5-0.58,1.01-0.87,1.51C256.51,339.75,256.21,340.26,255.92,340.76L255.92,340.76z   M256.18,354.95c-0.67,0-1.33,0-2,0c-0.67,0-1.33,0-2,0c-0.33-0.58-0.67-1.15-1-1.73c-0.33-0.58-0.67-1.15-1-1.73  c0.33-0.58,0.67-1.15,1-1.73c0.33-0.58,0.67-1.15,1-1.73c0.67,0,1.33,0,2,0c0.67,0,1.33,0,2,0c0.33,0.58,0.67,1.15,1,1.73  c0.33,0.58,0.67,1.15,1,1.73c-0.33,0.58-0.67,1.15-1,1.73C256.84,353.8,256.51,354.38,256.18,354.95L256.18,354.95z M256.43,369.64  c-0.75,0-1.5,0-2.25,0c-0.75,0-1.5,0-2.25,0c-0.37-0.65-0.75-1.3-1.12-1.95c-0.37-0.65-0.75-1.3-1.12-1.95  c0.37-0.65,0.75-1.3,1.12-1.95c0.37-0.65,0.75-1.3,1.12-1.95c0.75,0,1.5,0,2.25,0c0.75,0,1.5,0,2.25,0c0.37,0.65,0.75,1.3,1.12,1.95  c0.37,0.65,0.75,1.3,1.12,1.95c-0.37,0.65-0.75,1.3-1.12,1.95C257.18,368.34,256.8,368.99,256.43,369.64L256.43,369.64z   M256.68,384.84c-0.83,0-1.67,0-2.5,0c-0.83,0-1.67,0-2.5,0c-0.42-0.72-0.83-1.44-1.25-2.17c-0.42-0.72-0.83-1.44-1.25-2.17  c0.42-0.72,0.83-1.44,1.25-2.17c0.42-0.72,0.83-1.44,1.25-2.17c0.83,0,1.67,0,2.5,0c0.83,0,1.67,0,2.5,0  c0.42,0.72,0.83,1.44,1.25,2.17c0.42,0.72,0.83,1.44,1.25,2.17c-0.42,0.72-0.83,1.44-1.25,2.17  C257.51,383.4,257.1,384.12,256.68,384.84L256.68,384.84z M256.93,400.62c-0.92,0-1.83,0-2.75,0c-0.92,0-1.83,0-2.75,0  c-0.46-0.79-0.92-1.59-1.38-2.38c-0.46-0.79-0.92-1.59-1.38-2.38c0.46-0.79,0.92-1.59,1.38-2.38c0.46-0.79,0.92-1.59,1.38-2.38  c0.92,0,1.83,0,2.75,0c0.92,0,1.83,0,2.75,0c0.46,0.79,0.92,1.59,1.38,2.38c0.46,0.79,0.92,1.59,1.38,2.38  c-0.46,0.79-0.92,1.59-1.38,2.38C257.85,399.03,257.39,399.82,256.93,400.62L256.93,400.62z M257.18,417c-1,0-2,0-3,0c-1,0-2,0-3,0  c-0.5-0.87-1-1.73-1.5-2.6c-0.5-0.87-1-1.73-1.5-2.6c0.5-0.87,1-1.73,1.5-2.6c0.5-0.87,1-1.73,1.5-2.6c1,0,2,0,3,0c1,0,2,0,3,0  c0.5,0.87,1,1.73,1.5,2.6c0.5,0.87,1,1.73,1.5,2.6c-0.5,0.87-1,1.73-1.5,2.6C258.18,415.26,257.68,416.13,257.18,417L257.18,417z   M257.43,434.04c-1.09,0-2.17,0-3.26,0c-1.09,0-2.17,0-3.26,0c-0.54-0.94-1.09-1.88-1.63-2.82c-0.54-0.94-1.09-1.88-1.63-2.82  c0.54-0.94,1.09-1.88,1.63-2.82c0.54-0.94,1.09-1.88,1.63-2.82c1.08,0,2.17,0,3.25,0c1.08,0,2.17,0,3.26,0  c0.54,0.94,1.08,1.88,1.63,2.82c0.54,0.94,1.09,1.88,1.63,2.82c-0.54,0.94-1.09,1.88-1.63,2.82  C258.52,432.16,257.98,433.1,257.43,434.04L257.43,434.04z M257.69,451.8c-1.17,0-2.34,0-3.51,0c-1.17,0-2.34,0-3.51,0  c-0.58-1.01-1.17-2.02-1.75-3.04c-0.58-1.01-1.17-2.02-1.75-3.04c0.58-1.01,1.17-2.03,1.75-3.04c0.58-1.01,1.17-2.02,1.75-3.04  c1.17,0,2.34,0,3.51,0c1.17,0,2.34,0,3.51,0c0.58,1.01,1.17,2.02,1.75,3.04c0.58,1.01,1.17,2.02,1.75,3.04  c-0.58,1.01-1.17,2.02-1.75,3.04C258.85,449.78,258.27,450.79,257.69,451.8L257.69,451.8z M257.94,470.35  c0.63-1.09,1.25-2.17,1.88-3.25c0.63-1.09,1.25-2.17,1.88-3.26c-0.63-1.09-1.25-2.17-1.88-3.25c-0.63-1.09-1.25-2.17-1.88-3.25  c-1.25,0-2.51,0-3.76,0c-1.25,0-2.51,0-3.76,0c-0.63,1.08-1.25,2.17-1.88,3.25c-0.63,1.08-1.25,2.17-1.88,3.26  c0.63,1.09,1.25,2.17,1.88,3.26c0.63,1.08,1.25,2.17,1.88,3.25c1.25,0,2.51,0,3.76,0C255.43,470.35,256.68,470.35,257.94,470.35  L257.94,470.35z M258.19,489.75c0.67-1.16,1.34-2.32,2.01-3.47c0.67-1.16,1.34-2.32,2-3.47c-0.67-1.16-1.34-2.32-2-3.47  c-0.67-1.16-1.34-2.32-2.01-3.47c-1.34,0-2.67,0-4.01,0c-1.34,0-2.67,0-4.01,0c-0.67,1.16-1.34,2.32-2.01,3.47  c-0.67,1.16-1.34,2.32-2.01,3.47c0.67,1.16,1.34,2.32,2.01,3.47c0.67,1.16,1.34,2.32,2,3.47c1.34,0,2.67,0,4.01,0  C255.52,489.75,256.85,489.75,258.19,489.75L258.19,489.75z M258.44,510.09c0.71-1.23,1.42-2.46,2.13-3.69  c0.71-1.23,1.42-2.46,2.13-3.69c-0.71-1.23-1.42-2.46-2.13-3.69c-0.71-1.23-1.42-2.46-2.13-3.69c-1.42,0-2.84,0-4.26,0  c-1.42,0-2.84,0-4.26,0c-0.71,1.23-1.42,2.46-2.13,3.69c-0.71,1.23-1.42,2.46-2.13,3.69c0.71,1.23,1.42,2.46,2.13,3.69  c0.71,1.23,1.42,2.46,2.13,3.69c1.42,0,2.84,0,4.26,0C255.6,510.09,257.02,510.09,258.44,510.09L258.44,510.09z M247.83,528.3  c4.42-0.29,8.83-0.61,13.23-0.94l2.14-3.71l-2.26-3.91l-2.26-3.91h-4.51h-4.51l-2.26,3.91l-2.26,3.91l2.26,3.91L247.83,528.3  L247.83,528.3z M208.66,279.37h-0.74h-0.74l-0.37-0.64l-0.37-0.64l0.37-0.64l0.37-0.64h0.74h0.74l0.37,0.64l0.37,0.64l-0.37,0.64  L208.66,279.37L208.66,279.37z M208.91,291.9c-0.33,0-0.66,0-0.99,0c-0.33,0-0.66,0-0.99,0c-0.17-0.29-0.33-0.57-0.5-0.86  c-0.17-0.29-0.33-0.57-0.5-0.86c0.16-0.29,0.33-0.57,0.5-0.86c0.17-0.29,0.33-0.57,0.5-0.86c0.33,0,0.66,0,0.99,0  c0.33,0,0.66,0,0.99,0c0.17,0.29,0.33,0.57,0.5,0.86c0.16,0.29,0.33,0.57,0.49,0.86c-0.17,0.29-0.33,0.57-0.49,0.86  C209.24,291.33,209.08,291.62,208.91,291.9L208.91,291.9z M209.16,304.81c-0.41,0-0.83,0-1.24,0c-0.41,0-0.83,0-1.24,0  c-0.21-0.36-0.41-0.72-0.62-1.08c-0.21-0.36-0.41-0.72-0.62-1.08c0.21-0.36,0.41-0.72,0.62-1.08c0.21-0.36,0.41-0.72,0.62-1.08  c0.41,0,0.83,0,1.24,0c0.41,0,0.83,0,1.24,0c0.21,0.36,0.41,0.72,0.62,1.08c0.21,0.36,0.41,0.72,0.62,1.08  c-0.21,0.36-0.41,0.72-0.62,1.08C209.58,304.09,209.37,304.45,209.16,304.81L209.16,304.81z M209.42,318.12c-0.5,0-1,0-1.49,0  c-0.5,0-1,0-1.49,0c-0.25-0.43-0.5-0.86-0.75-1.29c-0.25-0.43-0.5-0.86-0.75-1.29c0.25-0.43,0.5-0.86,0.75-1.29  c0.25-0.43,0.5-0.86,0.75-1.29c0.5,0,1,0,1.49,0c0.5,0,1,0,1.49,0c0.25,0.43,0.5,0.86,0.75,1.29c0.25,0.43,0.5,0.86,0.75,1.29  c-0.25,0.43-0.5,0.86-0.75,1.29C209.91,317.26,209.66,317.69,209.42,318.12L209.42,318.12z M209.67,331.86c-0.58,0-1.16,0-1.74,0  c-0.58,0-1.16,0-1.74,0c-0.29-0.5-0.58-1.01-0.87-1.51c-0.29-0.5-0.58-1.01-0.87-1.51c0.29-0.5,0.58-1.01,0.87-1.51  c0.29-0.5,0.58-1.01,0.87-1.51c0.58,0,1.16,0,1.74,0c0.58,0,1.16,0,1.74,0c0.29,0.5,0.58,1.01,0.87,1.51  c0.29,0.5,0.58,1.01,0.87,1.51c-0.29,0.5-0.58,1.01-0.87,1.51C210.25,330.85,209.96,331.35,209.67,331.86L209.67,331.86z   M209.92,346.05c-0.67,0-1.33,0-2,0c-0.67,0-1.33,0-2,0c-0.33-0.58-0.67-1.15-1-1.73c-0.33-0.58-0.67-1.15-1-1.73  c0.33-0.58,0.67-1.15,1-1.73c0.33-0.58,0.67-1.15,1-1.73c0.67,0,1.33,0,2,0c0.67,0,1.33,0,2,0c0.33,0.58,0.67,1.15,1,1.73  c0.33,0.58,0.67,1.15,1,1.73c-0.33,0.58-0.67,1.15-1,1.73C210.58,344.9,210.25,345.48,209.92,346.05L209.92,346.05z M210.17,360.73  c-0.75,0-1.5,0-2.25,0c-0.75,0-1.5,0-2.25,0c-0.37-0.65-0.75-1.3-1.12-1.95c-0.37-0.65-0.75-1.3-1.12-1.95  c0.37-0.65,0.75-1.3,1.12-1.95c0.37-0.65,0.75-1.3,1.12-1.95c0.75,0,1.5,0,2.25,0c0.75,0,1.5,0,2.25,0c0.37,0.65,0.75,1.3,1.12,1.95  c0.37,0.65,0.75,1.3,1.12,1.95c-0.37,0.65-0.75,1.3-1.12,1.95C210.92,359.44,210.54,360.08,210.17,360.73L210.17,360.73z   M210.42,375.94c-0.83,0-1.67,0-2.5,0c-0.83,0-1.67,0-2.5,0c-0.42-0.72-0.83-1.44-1.25-2.17c-0.42-0.72-0.83-1.44-1.25-2.17  c0.42-0.72,0.83-1.44,1.25-2.17c0.42-0.72,0.83-1.44,1.25-2.17c0.83,0,1.67,0,2.5,0c0.83,0,1.67,0,2.5,0  c0.42,0.72,0.83,1.44,1.25,2.17c0.42,0.72,0.83,1.44,1.25,2.17c-0.42,0.72-0.83,1.44-1.25,2.17  C211.26,374.5,210.84,375.22,210.42,375.94L210.42,375.94z M210.67,391.71c-0.92,0-1.83,0-2.75,0c-0.92,0-1.83,0-2.75,0  c-0.46-0.79-0.92-1.59-1.38-2.38c-0.46-0.79-0.92-1.59-1.38-2.38c0.46-0.79,0.92-1.59,1.38-2.38c0.46-0.79,0.92-1.59,1.38-2.38  c0.92,0,1.83,0,2.75,0c0.92,0,1.83,0,2.75,0c0.46,0.79,0.92,1.59,1.38,2.38c0.46,0.79,0.92,1.59,1.38,2.38  c-0.46,0.79-0.92,1.59-1.38,2.38C211.59,390.13,211.13,390.92,210.67,391.71L210.67,391.71z M210.93,408.1c-1,0-2,0-3,0  c-1,0-2,0-3,0c-0.5-0.87-1-1.73-1.5-2.6c-0.5-0.87-1-1.73-1.5-2.6c0.5-0.87,1-1.73,1.5-2.6c0.5-0.87,1-1.73,1.5-2.6c1,0,2,0,3,0  c1,0,2,0,3,0c0.5,0.87,1,1.73,1.5,2.6c0.5,0.87,1,1.73,1.5,2.6c-0.5,0.87-1,1.73-1.5,2.6C211.93,406.36,211.43,407.23,210.93,408.1  L210.93,408.1z M211.18,425.14c-1.09,0-2.17,0-3.26,0c-1.09,0-2.17,0-3.26,0c-0.54-0.94-1.09-1.88-1.63-2.82  c-0.54-0.94-1.09-1.88-1.63-2.82c0.54-0.94,1.09-1.88,1.63-2.82c0.54-0.94,1.09-1.88,1.63-2.82c1.08,0,2.17,0,3.26,0  c1.08,0,2.17,0,3.26,0c0.54,0.94,1.08,1.88,1.63,2.82c0.54,0.94,1.09,1.88,1.63,2.82c-0.54,0.94-1.09,1.88-1.63,2.82  C212.26,423.26,211.72,424.2,211.18,425.14L211.18,425.14z M211.43,442.9c-1.17,0-2.34,0-3.51,0c-1.17,0-2.34,0-3.51,0  c-0.58-1.01-1.17-2.02-1.75-3.04c-0.58-1.01-1.17-2.02-1.75-3.04c0.58-1.01,1.17-2.02,1.75-3.04c0.58-1.01,1.17-2.02,1.75-3.04  c1.17,0,2.34,0,3.51,0c1.17,0,2.34,0,3.51,0c0.58,1.01,1.17,2.02,1.75,3.04c0.58,1.01,1.17,2.02,1.75,3.04  c-0.58,1.01-1.17,2.02-1.75,3.04C212.6,440.88,212.01,441.89,211.43,442.9L211.43,442.9z M211.68,461.45c-1.25,0-2.51,0-3.76,0  c-1.25,0-2.51,0-3.76,0c-0.63-1.09-1.25-2.17-1.88-3.26c-0.63-1.09-1.25-2.17-1.88-3.26c0.63-1.09,1.25-2.17,1.88-3.26  c0.63-1.09,1.25-2.17,1.88-3.25c1.25,0,2.51,0,3.76,0c1.25,0,2.51,0,3.76,0c0.63,1.08,1.25,2.17,1.88,3.26  c0.63,1.08,1.25,2.17,1.88,3.25c-0.63,1.09-1.25,2.17-1.88,3.26C212.93,459.28,212.31,460.36,211.68,461.45L211.68,461.45z   M211.93,480.85c-1.34,0-2.67,0-4.01,0c-1.34,0-2.67,0-4.01,0c-0.67-1.16-1.34-2.32-2-3.47c-0.67-1.16-1.34-2.32-2.01-3.47  c0.67-1.16,1.34-2.32,2.01-3.47c0.67-1.16,1.34-2.32,2.01-3.47c1.34,0,2.67,0,4.01,0c1.34,0,2.67,0,4.01,0  c0.67,1.16,1.34,2.32,2.01,3.47c0.67,1.16,1.34,2.32,2,3.47c-0.67,1.16-1.34,2.32-2,3.47C213.27,478.53,212.6,479.69,211.93,480.85  L211.93,480.85z M212.18,501.19c-1.42,0-2.84,0-4.26,0c-1.42,0-2.84,0-4.26,0c-0.71-1.23-1.42-2.46-2.13-3.69  c-0.71-1.23-1.42-2.46-2.13-3.69c0.71-1.23,1.42-2.46,2.13-3.69c0.71-1.23,1.42-2.46,2.13-3.69c1.42,0,2.84,0,4.26,0  c1.42,0,2.84,0,4.26,0c0.71,1.23,1.42,2.46,2.13,3.69c0.71,1.23,1.42,2.46,2.13,3.69c-0.71,1.23-1.42,2.46-2.13,3.69  C213.6,498.73,212.89,499.96,212.18,501.19L212.18,501.19z M212.44,522.57h-4.51h-4.51l-2.26-3.91l-2.26-3.91l2.26-3.91l2.26-3.91  h4.51h4.51l2.26,3.91l2.26,3.91l-2.26,3.91L212.44,522.57L212.44,522.57z M224.08,288.27h-0.74h-0.74l-0.37-0.64l-0.37-0.64  l0.37-0.64l0.37-0.64h0.74h0.74l0.37,0.64l0.37,0.64l-0.37,0.64L224.08,288.27L224.08,288.27z M224.33,300.8c-0.33,0-0.66,0-0.99,0  c-0.33,0-0.66,0-0.99,0c-0.17-0.29-0.33-0.57-0.49-0.86c-0.17-0.29-0.33-0.57-0.5-0.86c0.16-0.29,0.33-0.57,0.5-0.86  c0.16-0.29,0.33-0.57,0.49-0.86c0.33,0,0.66,0,0.99,0c0.33,0,0.66,0,0.99,0c0.16,0.29,0.33,0.57,0.5,0.86  c0.17,0.29,0.33,0.57,0.49,0.86c-0.16,0.29-0.33,0.57-0.49,0.86C224.66,300.23,224.5,300.52,224.33,300.8L224.33,300.8z   M224.58,313.71c-0.41,0-0.83,0-1.24,0c-0.41,0-0.83,0-1.24,0c-0.21-0.36-0.41-0.72-0.62-1.08c-0.21-0.36-0.41-0.72-0.62-1.08  c0.21-0.36,0.41-0.72,0.62-1.08c0.21-0.36,0.41-0.72,0.62-1.08c0.41,0,0.83,0,1.24,0c0.41,0,0.83,0,1.24,0  c0.21,0.36,0.41,0.72,0.62,1.08c0.21,0.36,0.41,0.72,0.62,1.08c-0.21,0.36-0.41,0.72-0.62,1.08C225,313,224.79,313.35,224.58,313.71  L224.58,313.71z M224.83,327.02c-0.5,0-1,0-1.49,0c-0.5,0-1,0-1.49,0c-0.25-0.43-0.5-0.86-0.75-1.29c-0.25-0.43-0.5-0.86-0.75-1.29  c0.25-0.43,0.5-0.86,0.75-1.29c0.25-0.43,0.5-0.86,0.75-1.29c0.5,0,1,0,1.49,0c0.5,0,1,0,1.49,0c0.25,0.43,0.5,0.86,0.75,1.29  c0.25,0.43,0.5,0.86,0.75,1.29c-0.25,0.43-0.5,0.86-0.75,1.29C225.33,326.16,225.08,326.59,224.83,327.02L224.83,327.02z   M225.09,340.76c-0.58,0-1.16,0-1.75,0c-0.58,0-1.16,0-1.74,0c-0.29-0.5-0.58-1.01-0.87-1.51c-0.29-0.5-0.58-1.01-0.87-1.51  c0.29-0.5,0.58-1.01,0.87-1.51c0.29-0.5,0.58-1.01,0.87-1.51c0.58,0,1.16,0,1.74,0c0.58,0,1.16,0,1.75,0  c0.29,0.5,0.58,1.01,0.87,1.51c0.29,0.5,0.58,1.01,0.87,1.51c-0.29,0.5-0.58,1.01-0.87,1.51  C225.67,339.75,225.38,340.26,225.09,340.76L225.09,340.76z M225.34,354.95c-0.67,0-1.33,0-2,0c-0.67,0-1.33,0-2,0  c-0.33-0.58-0.67-1.15-1-1.73c-0.33-0.58-0.67-1.15-1-1.73c0.33-0.58,0.67-1.15,1-1.73c0.33-0.58,0.67-1.15,1-1.73  c0.67,0,1.33,0,2,0c0.67,0,1.33,0,2,0c0.33,0.58,0.67,1.15,1,1.73c0.33,0.58,0.67,1.15,1,1.73c-0.33,0.58-0.67,1.15-1,1.73  C226,353.8,225.67,354.38,225.34,354.95L225.34,354.95z M225.59,369.64c-0.75,0-1.5,0-2.25,0c-0.75,0-1.5,0-2.25,0  c-0.37-0.65-0.75-1.3-1.12-1.95c-0.37-0.65-0.75-1.3-1.12-1.95c0.37-0.65,0.75-1.3,1.12-1.95c0.37-0.65,0.75-1.3,1.12-1.95  c0.75,0,1.5,0,2.25,0c0.75,0,1.5,0,2.25,0c0.37,0.65,0.75,1.3,1.12,1.95c0.37,0.65,0.75,1.3,1.12,1.95  c-0.37,0.65-0.75,1.3-1.12,1.95C226.34,368.34,225.96,368.99,225.59,369.64L225.59,369.64z M225.84,384.84c-0.83,0-1.67,0-2.5,0  c-0.83,0-1.67,0-2.5,0c-0.42-0.72-0.83-1.44-1.25-2.17c-0.42-0.72-0.83-1.44-1.25-2.17c0.42-0.72,0.83-1.44,1.25-2.17  c0.42-0.72,0.83-1.44,1.25-2.17c0.83,0,1.67,0,2.5,0c0.83,0,1.67,0,2.5,0c0.42,0.72,0.83,1.44,1.25,2.17  c0.42,0.72,0.83,1.44,1.25,2.17c-0.42,0.72-0.83,1.44-1.25,2.17C226.67,383.4,226.26,384.12,225.84,384.84L225.84,384.84z   M226.09,400.62c-0.92,0-1.83,0-2.75,0c-0.92,0-1.83,0-2.75,0c-0.46-0.79-0.92-1.59-1.38-2.38c-0.46-0.79-0.92-1.59-1.38-2.38  c0.46-0.79,0.92-1.59,1.38-2.38c0.46-0.79,0.92-1.59,1.38-2.38c0.92,0,1.83,0,2.75,0c0.92,0,1.83,0,2.75,0  c0.46,0.79,0.92,1.59,1.38,2.38c0.46,0.79,0.92,1.59,1.38,2.38c-0.46,0.79-0.92,1.59-1.38,2.38  C227.01,399.03,226.55,399.82,226.09,400.62L226.09,400.62z M226.34,417c-1,0-2,0-3,0c-1,0-2,0-3,0c-0.5-0.87-1-1.73-1.5-2.6  c-0.5-0.87-1-1.73-1.5-2.6c0.5-0.87,1-1.73,1.5-2.6c0.5-0.87,1-1.73,1.5-2.6c1,0,2,0,3,0c1,0,2,0,3,0c0.5,0.87,1,1.73,1.5,2.6  c0.5,0.87,1,1.73,1.5,2.6c-0.5,0.87-1,1.73-1.5,2.6C227.34,415.26,226.84,416.13,226.34,417L226.34,417z M226.6,434.04  c-1.09,0-2.17,0-3.26,0c-1.09,0-2.17,0-3.26,0c-0.54-0.94-1.09-1.88-1.63-2.82c-0.54-0.94-1.09-1.88-1.63-2.82  c0.54-0.94,1.09-1.88,1.63-2.82c0.54-0.94,1.09-1.88,1.63-2.82c1.08,0,2.17,0,3.26,0c1.08,0,2.17,0,3.26,0  c0.54,0.94,1.08,1.88,1.63,2.82c0.54,0.94,1.09,1.88,1.63,2.82c-0.54,0.94-1.09,1.88-1.63,2.82  C227.68,432.16,227.14,433.1,226.6,434.04L226.6,434.04z M226.85,451.8c-1.17,0-2.34,0-3.51,0c-1.17,0-2.34,0-3.51,0  c-0.58-1.01-1.17-2.02-1.75-3.04c-0.58-1.01-1.17-2.02-1.75-3.04c0.58-1.01,1.17-2.03,1.75-3.04c0.58-1.01,1.17-2.02,1.75-3.04  c1.17,0,2.34,0,3.51,0c1.17,0,2.34,0,3.51,0c0.58,1.01,1.17,2.02,1.75,3.04c0.58,1.01,1.17,2.02,1.75,3.04  c-0.58,1.01-1.17,2.02-1.75,3.04C228.02,449.78,227.43,450.79,226.85,451.8L226.85,451.8z M227.1,470.35  c0.63-1.09,1.25-2.17,1.88-3.25c0.63-1.09,1.25-2.17,1.88-3.26c-0.63-1.09-1.25-2.17-1.88-3.25c-0.63-1.09-1.25-2.17-1.88-3.25  c-1.25,0-2.51,0-3.76,0c-1.25,0-2.51,0-3.76,0c-0.63,1.08-1.25,2.17-1.88,3.25c-0.63,1.08-1.25,2.17-1.88,3.26  c0.63,1.09,1.25,2.17,1.88,3.26c0.63,1.08,1.25,2.17,1.88,3.25c1.25,0,2.51,0,3.76,0C224.59,470.35,225.85,470.35,227.1,470.35  L227.1,470.35z M227.35,489.75c0.67-1.16,1.34-2.32,2.01-3.47c0.67-1.16,1.34-2.32,2-3.47c-0.67-1.16-1.34-2.32-2-3.47  c-0.67-1.16-1.34-2.32-2.01-3.47c-1.34,0-2.67,0-4.01,0c-1.34,0-2.67,0-4.01,0c-0.67,1.16-1.34,2.32-2.01,3.47  c-0.67,1.16-1.34,2.32-2.01,3.47c0.67,1.16,1.34,2.32,2.01,3.47c0.67,1.16,1.34,2.32,2.01,3.47c1.34,0,2.67,0,4.01,0  C224.68,489.75,226.01,489.75,227.35,489.75L227.35,489.75z M227.6,510.09c0.71-1.23,1.42-2.46,2.13-3.69  c0.71-1.23,1.42-2.46,2.13-3.69c-0.71-1.23-1.42-2.46-2.13-3.69c-0.71-1.23-1.42-2.46-2.13-3.69c-1.42,0-2.84,0-4.26,0  c-1.42,0-2.84,0-4.26,0c-0.71,1.23-1.42,2.46-2.13,3.69c-0.71,1.23-1.42,2.46-2.13,3.69c0.71,1.23,1.42,2.46,2.13,3.69  c0.71,1.23,1.42,2.46,2.13,3.69c1.42,0,2.84,0,4.26,0C224.76,510.09,226.18,510.09,227.6,510.09L227.6,510.09z M217.97,529.99  c3.69-0.17,7.38-0.36,11.06-0.56l1.08-1.87l2.26-3.91l-2.26-3.91l-2.26-3.91h-4.51h-4.51l-2.26,3.91l-2.26,3.91l2.26,3.91  L217.97,529.99L217.97,529.99z M177.82,279.37h-0.74h-0.74l-0.37-0.64l-0.37-0.64l0.37-0.64l0.37-0.64h0.74h0.74l0.37,0.64  l0.37,0.64l-0.37,0.64L177.82,279.37L177.82,279.37z M178.07,291.9c-0.33,0-0.66,0-0.99,0c-0.33,0-0.66,0-0.99,0  c-0.16-0.29-0.33-0.57-0.49-0.86c-0.17-0.29-0.33-0.57-0.5-0.86c0.17-0.29,0.33-0.57,0.5-0.86c0.16-0.29,0.33-0.57,0.49-0.86  c0.33,0,0.66,0,0.99,0c0.33,0,0.66,0,0.99,0c0.17,0.29,0.33,0.57,0.5,0.86c0.16,0.29,0.33,0.57,0.49,0.86  c-0.16,0.29-0.33,0.57-0.49,0.86C178.4,291.33,178.24,291.62,178.07,291.9L178.07,291.9z M178.33,304.81c-0.41,0-0.83,0-1.24,0  c-0.41,0-0.83,0-1.24,0c-0.21-0.36-0.41-0.72-0.62-1.08c-0.21-0.36-0.41-0.72-0.62-1.08c0.21-0.36,0.41-0.72,0.62-1.08  c0.21-0.36,0.41-0.72,0.62-1.08c0.41,0,0.83,0,1.24,0c0.41,0,0.83,0,1.24,0c0.21,0.36,0.41,0.72,0.62,1.08  c0.21,0.36,0.41,0.72,0.62,1.08c-0.21,0.36-0.41,0.72-0.62,1.08C178.74,304.09,178.53,304.45,178.33,304.81L178.33,304.81z   M178.58,318.12c-0.5,0-1,0-1.49,0c-0.5,0-1,0-1.49,0c-0.25-0.43-0.5-0.86-0.75-1.29c-0.25-0.43-0.5-0.86-0.75-1.29  c0.25-0.43,0.5-0.86,0.75-1.29c0.25-0.43,0.5-0.86,0.75-1.29c0.5,0,1,0,1.49,0c0.5,0,1,0,1.49,0c0.25,0.43,0.5,0.86,0.75,1.29  c0.25,0.43,0.5,0.86,0.75,1.29c-0.25,0.43-0.5,0.86-0.75,1.29C179.07,317.26,178.83,317.69,178.58,318.12L178.58,318.12z   M178.83,331.86c-0.58,0-1.16,0-1.75,0c-0.58,0-1.16,0-1.74,0c-0.29-0.5-0.58-1.01-0.87-1.51c-0.29-0.5-0.58-1.01-0.87-1.51  c0.29-0.5,0.58-1.01,0.87-1.51c0.29-0.5,0.58-1.01,0.87-1.51c0.58,0,1.16,0,1.74,0c0.58,0,1.16,0,1.75,0  c0.29,0.5,0.58,1.01,0.87,1.51c0.29,0.5,0.58,1.01,0.87,1.51c-0.29,0.5-0.58,1.01-0.87,1.51  C179.41,330.85,179.12,331.35,178.83,331.86L178.83,331.86z M179.08,346.05c-0.67,0-1.33,0-2,0c-0.67,0-1.33,0-2,0  c-0.33-0.58-0.67-1.15-1-1.73c-0.33-0.58-0.67-1.15-1-1.73c0.33-0.58,0.67-1.15,1-1.73c0.33-0.58,0.67-1.15,1-1.73  c0.67,0,1.33,0,2,0c0.67,0,1.33,0,2,0c0.33,0.58,0.67,1.15,1,1.73c0.33,0.58,0.67,1.15,1,1.73c-0.33,0.58-0.67,1.15-1,1.73  C179.75,344.9,179.41,345.48,179.08,346.05L179.08,346.05z M179.33,360.73c-0.75,0-1.5,0-2.25,0c-0.75,0-1.5,0-2.25,0  c-0.37-0.65-0.75-1.3-1.12-1.95c-0.37-0.65-0.75-1.3-1.12-1.95c0.37-0.65,0.75-1.3,1.12-1.95c0.37-0.65,0.75-1.3,1.12-1.95  c0.75,0,1.5,0,2.25,0c0.75,0,1.5,0,2.25,0c0.37,0.65,0.75,1.3,1.12,1.95c0.37,0.65,0.75,1.3,1.12,1.95  c-0.37,0.65-0.75,1.3-1.12,1.95C180.08,359.44,179.71,360.08,179.33,360.73L179.33,360.73z M179.58,375.94c-0.83,0-1.67,0-2.5,0  c-0.83,0-1.67,0-2.5,0c-0.42-0.72-0.83-1.44-1.25-2.17c-0.42-0.72-0.83-1.44-1.25-2.17c0.42-0.72,0.83-1.44,1.25-2.17  c0.42-0.72,0.83-1.44,1.25-2.17c0.83,0,1.67,0,2.5,0c0.83,0,1.67,0,2.5,0c0.42,0.72,0.83,1.44,1.25,2.17  c0.42,0.72,0.83,1.44,1.25,2.17c-0.42,0.72-0.83,1.44-1.25,2.17C180.42,374.5,180,375.22,179.58,375.94L179.58,375.94z   M179.84,391.71c-0.92,0-1.83,0-2.75,0c-0.92,0-1.83,0-2.75,0c-0.46-0.79-0.92-1.59-1.38-2.38c-0.46-0.79-0.92-1.59-1.38-2.38  c0.46-0.79,0.92-1.59,1.38-2.38c0.46-0.79,0.92-1.59,1.38-2.38c0.92,0,1.83,0,2.75,0c0.92,0,1.83,0,2.75,0  c0.46,0.79,0.92,1.59,1.38,2.38c0.46,0.79,0.92,1.59,1.38,2.38c-0.46,0.79-0.92,1.59-1.38,2.38  C180.75,390.13,180.29,390.92,179.84,391.71L179.84,391.71z M180.09,408.1c-1,0-2,0-3,0c-1,0-2,0-3,0c-0.5-0.87-1-1.73-1.5-2.6  c-0.5-0.87-1-1.73-1.5-2.6c0.5-0.87,1-1.73,1.5-2.6c0.5-0.87,1-1.73,1.5-2.6c1,0,2,0,3,0c1,0,2,0,3,0c0.5,0.87,1,1.73,1.5,2.6  c0.5,0.87,1,1.73,1.5,2.6c-0.5,0.87-1,1.73-1.5,2.6C181.09,406.36,180.59,407.23,180.09,408.1L180.09,408.1z M180.34,425.14  c-1.09,0-2.17,0-3.26,0c-1.09,0-2.17,0-3.26,0c-0.54-0.94-1.09-1.88-1.63-2.82c-0.54-0.94-1.09-1.88-1.63-2.82  c0.54-0.94,1.09-1.88,1.63-2.82c0.54-0.94,1.09-1.88,1.63-2.82c1.08,0,2.17,0,3.25,0c1.08,0,2.17,0,3.26,0  c0.54,0.94,1.08,1.88,1.63,2.82c0.54,0.94,1.09,1.88,1.63,2.82c-0.54,0.94-1.09,1.88-1.63,2.82  C181.42,423.26,180.88,424.2,180.34,425.14L180.34,425.14z M180.59,442.9c-1.17,0-2.34,0-3.51,0c-1.17,0-2.34,0-3.51,0  c-0.58-1.01-1.17-2.02-1.75-3.04c-0.58-1.01-1.17-2.02-1.75-3.04c0.58-1.01,1.17-2.02,1.75-3.04c0.58-1.01,1.17-2.02,1.75-3.04  c1.17,0,2.34,0,3.51,0c1.17,0,2.34,0,3.51,0c0.58,1.01,1.17,2.02,1.75,3.04c0.58,1.01,1.17,2.02,1.75,3.04  c-0.58,1.01-1.17,2.02-1.75,3.04C181.76,440.88,181.17,441.89,180.59,442.9L180.59,442.9z M180.84,461.45c-1.25,0-2.51,0-3.76,0  c-1.25,0-2.51,0-3.76,0c-0.63-1.09-1.25-2.17-1.88-3.26c-0.63-1.09-1.25-2.17-1.88-3.26c0.63-1.09,1.25-2.17,1.88-3.26  c0.63-1.09,1.25-2.17,1.88-3.25c1.25,0,2.51,0,3.76,0c1.25,0,2.51,0,3.76,0c0.63,1.08,1.25,2.17,1.88,3.26  c0.63,1.08,1.25,2.17,1.88,3.25c-0.63,1.09-1.25,2.17-1.88,3.26C182.09,459.28,181.47,460.36,180.84,461.45L180.84,461.45z   M181.09,480.85c-1.34,0-2.67,0-4.01,0c-1.34,0-2.67,0-4.01,0c-0.67-1.16-1.34-2.32-2-3.47c-0.67-1.16-1.34-2.32-2.01-3.47  c0.67-1.16,1.34-2.32,2.01-3.47c0.67-1.16,1.34-2.32,2.01-3.47c1.34,0,2.67,0,4.01,0c1.34,0,2.67,0,4.01,0  c0.67,1.16,1.34,2.32,2.01,3.47c0.67,1.16,1.34,2.32,2,3.47c-0.67,1.16-1.34,2.32-2,3.47C182.43,478.53,181.76,479.69,181.09,480.85  L181.09,480.85z M181.35,501.19c-1.42,0-2.84,0-4.26,0c-1.42,0-2.84,0-4.26,0c-0.71-1.23-1.42-2.46-2.13-3.69  c-0.71-1.23-1.42-2.46-2.13-3.69c0.71-1.23,1.42-2.46,2.13-3.69c0.71-1.23,1.42-2.46,2.13-3.69c1.42,0,2.84,0,4.26,0  c1.42,0,2.84,0,4.26,0c0.71,1.23,1.42,2.46,2.13,3.69c0.71,1.23,1.42,2.46,2.13,3.69c-0.71,1.23-1.42,2.46-2.13,3.69  C182.77,498.73,182.06,499.96,181.35,501.19L181.35,501.19z M181.6,522.57h-4.51h-4.51l-2.26-3.91l-2.26-3.91l2.26-3.91l2.26-3.91  h4.51h4.51l2.26,3.91l2.26,3.91l-2.26,3.91L181.6,522.57L181.6,522.57z M193.24,288.27h-0.74h-0.74l-0.37-0.64l-0.37-0.64l0.37-0.64  l0.37-0.64h0.74h0.74l0.37,0.64l0.37,0.64l-0.37,0.64L193.24,288.27L193.24,288.27z M193.49,300.8c-0.33,0-0.66,0-0.99,0  c-0.33,0-0.66,0-0.99,0c-0.16-0.29-0.33-0.57-0.49-0.86c-0.17-0.29-0.33-0.57-0.5-0.86c0.16-0.29,0.33-0.57,0.5-0.86  c0.17-0.29,0.33-0.57,0.49-0.86c0.33,0,0.66,0,0.99,0c0.33,0,0.66,0,0.99,0c0.16,0.29,0.33,0.57,0.5,0.86  c0.17,0.29,0.33,0.57,0.49,0.86c-0.16,0.29-0.33,0.57-0.49,0.86C193.82,300.23,193.66,300.52,193.49,300.8L193.49,300.8z   M193.74,313.71c-0.41,0-0.83,0-1.24,0c-0.41,0-0.83,0-1.24,0c-0.21-0.36-0.41-0.72-0.62-1.08c-0.21-0.36-0.41-0.72-0.62-1.08  c0.21-0.36,0.41-0.72,0.62-1.08c0.21-0.36,0.41-0.72,0.62-1.08c0.41,0,0.83,0,1.24,0c0.41,0,0.83,0,1.24,0  c0.21,0.36,0.41,0.72,0.62,1.08c0.21,0.36,0.41,0.72,0.62,1.08c-0.21,0.36-0.41,0.72-0.62,1.08  C194.16,313,193.95,313.35,193.74,313.71L193.74,313.71z M194,327.02c-0.5,0-1,0-1.49,0c-0.5,0-1,0-1.49,0  c-0.25-0.43-0.5-0.86-0.75-1.29c-0.25-0.43-0.5-0.86-0.75-1.29c0.25-0.43,0.5-0.86,0.75-1.29c0.25-0.43,0.5-0.86,0.75-1.29  c0.5,0,1,0,1.49,0c0.5,0,1,0,1.49,0c0.25,0.43,0.5,0.86,0.75,1.29c0.25,0.43,0.5,0.86,0.75,1.29c-0.25,0.43-0.5,0.86-0.75,1.29  C194.49,326.16,194.24,326.59,194,327.02L194,327.02z M194.25,340.76c-0.58,0-1.16,0-1.74,0c-0.58,0-1.16,0-1.75,0  c-0.29-0.5-0.58-1.01-0.87-1.51c-0.29-0.5-0.58-1.01-0.87-1.51c0.29-0.5,0.58-1.01,0.87-1.51c0.29-0.5,0.58-1.01,0.87-1.51  c0.58,0,1.16,0,1.75,0c0.58,0,1.16,0,1.74,0c0.29,0.5,0.58,1.01,0.87,1.51c0.29,0.5,0.58,1.01,0.87,1.51  c-0.29,0.5-0.58,1.01-0.87,1.51C194.83,339.75,194.54,340.26,194.25,340.76L194.25,340.76z M194.5,354.95c-0.67,0-1.33,0-2,0  c-0.67,0-1.33,0-2,0c-0.33-0.58-0.67-1.15-1-1.73c-0.33-0.58-0.67-1.15-1-1.73c0.33-0.58,0.67-1.15,1-1.73  c0.33-0.58,0.67-1.15,1-1.73c0.67,0,1.33,0,2,0c0.67,0,1.33,0,2,0c0.33,0.58,0.67,1.15,1,1.73c0.33,0.58,0.67,1.15,1,1.73  c-0.33,0.58-0.67,1.15-1,1.73C195.16,353.8,194.83,354.38,194.5,354.95L194.5,354.95z M194.75,369.64c-0.75,0-1.5,0-2.25,0  c-0.75,0-1.5,0-2.25,0c-0.37-0.65-0.75-1.3-1.12-1.95c-0.37-0.65-0.75-1.3-1.12-1.95c0.37-0.65,0.75-1.3,1.12-1.95  c0.37-0.65,0.75-1.3,1.12-1.95c0.75,0,1.5,0,2.25,0c0.75,0,1.5,0,2.25,0c0.37,0.65,0.75,1.3,1.12,1.95c0.37,0.65,0.75,1.3,1.12,1.95  c-0.37,0.65-0.75,1.3-1.12,1.95C195.5,368.34,195.13,368.99,194.75,369.64L194.75,369.64z M195,384.84c-0.83,0-1.67,0-2.5,0  c-0.83,0-1.67,0-2.5,0c-0.42-0.72-0.83-1.44-1.25-2.17c-0.42-0.72-0.83-1.44-1.25-2.17c0.42-0.72,0.83-1.44,1.25-2.17  c0.42-0.72,0.83-1.44,1.25-2.17c0.83,0,1.67,0,2.5,0c0.83,0,1.67,0,2.5,0c0.42,0.72,0.83,1.44,1.25,2.17  c0.42,0.72,0.83,1.44,1.25,2.17c-0.42,0.72-0.83,1.44-1.25,2.17C195.84,383.4,195.42,384.12,195,384.84L195,384.84z M195.25,400.62  c-0.92,0-1.83,0-2.75,0c-0.92,0-1.83,0-2.75,0c-0.46-0.79-0.92-1.59-1.38-2.38c-0.46-0.79-0.92-1.59-1.38-2.38  c0.46-0.79,0.92-1.59,1.38-2.38c0.46-0.79,0.92-1.59,1.38-2.38c0.92,0,1.83,0,2.75,0c0.92,0,1.83,0,2.75,0  c0.46,0.79,0.92,1.59,1.38,2.38c0.46,0.79,0.92,1.59,1.38,2.38c-0.46,0.79-0.92,1.59-1.38,2.38  C196.17,399.03,195.71,399.82,195.25,400.62L195.25,400.62z M195.51,417c-1,0-2,0-3,0c-1,0-2,0-3,0c-0.5-0.87-1-1.73-1.5-2.6  c-0.5-0.87-1-1.73-1.5-2.6c0.5-0.87,1-1.73,1.5-2.6c0.5-0.87,1-1.73,1.5-2.6c1,0,2,0,3,0c1,0,2,0,3,0c0.5,0.87,1,1.73,1.5,2.6  c0.5,0.87,1,1.73,1.5,2.6c-0.5,0.87-1,1.73-1.5,2.6C196.51,415.26,196.01,416.13,195.51,417L195.51,417z M195.76,434.04  c-1.09,0-2.17,0-3.26,0c-1.09,0-2.17,0-3.26,0c-0.54-0.94-1.09-1.88-1.63-2.82c-0.54-0.94-1.09-1.88-1.63-2.82  c0.54-0.94,1.09-1.88,1.63-2.82c0.54-0.94,1.09-1.88,1.63-2.82c1.08,0,2.17,0,3.26,0c1.08,0,2.17,0,3.26,0  c0.54,0.94,1.08,1.88,1.63,2.82c0.54,0.94,1.09,1.88,1.63,2.82c-0.54,0.94-1.09,1.88-1.63,2.82  C196.84,432.16,196.3,433.1,195.76,434.04L195.76,434.04z M196.01,451.8c-1.17,0-2.34,0-3.51,0c-1.17,0-2.34,0-3.51,0  c-0.58-1.01-1.17-2.02-1.75-3.04c-0.58-1.01-1.17-2.02-1.75-3.04c0.58-1.01,1.17-2.03,1.75-3.04c0.58-1.01,1.17-2.02,1.75-3.04  c1.17,0,2.34,0,3.51,0c1.17,0,2.34,0,3.51,0c0.58,1.01,1.17,2.02,1.75,3.04c0.58,1.01,1.17,2.02,1.75,3.04  c-0.58,1.01-1.17,2.02-1.75,3.04C197.18,449.78,196.59,450.79,196.01,451.8L196.01,451.8z M196.26,470.35  c0.63-1.09,1.25-2.17,1.88-3.25c0.63-1.09,1.25-2.17,1.88-3.26c-0.63-1.09-1.25-2.17-1.88-3.25c-0.63-1.09-1.25-2.17-1.88-3.25  c-1.25,0-2.51,0-3.76,0c-1.25,0-2.51,0-3.76,0c-0.63,1.08-1.25,2.17-1.88,3.25c-0.63,1.08-1.25,2.17-1.88,3.26  c0.63,1.09,1.25,2.17,1.88,3.26c0.63,1.08,1.25,2.17,1.88,3.25c1.25,0,2.51,0,3.76,0C193.75,470.35,195.01,470.35,196.26,470.35  L196.26,470.35z M196.51,489.75c0.67-1.16,1.34-2.32,2.01-3.47c0.67-1.16,1.34-2.32,2-3.47c-0.67-1.16-1.34-2.32-2-3.47  c-0.67-1.16-1.34-2.32-2.01-3.47c-1.34,0-2.67,0-4.01,0c-1.34,0-2.67,0-4.01,0c-0.67,1.16-1.34,2.32-2.01,3.47  c-0.67,1.16-1.34,2.32-2.01,3.47c0.67,1.16,1.34,2.32,2.01,3.47c0.67,1.16,1.34,2.32,2,3.47c1.34,0,2.67,0,4.01,0  C193.84,489.75,195.18,489.75,196.51,489.75L196.51,489.75z M196.76,510.09c0.71-1.23,1.42-2.46,2.13-3.69  c0.71-1.23,1.42-2.46,2.13-3.69c-0.71-1.23-1.42-2.46-2.13-3.69c-0.71-1.23-1.42-2.46-2.13-3.69c-1.42,0-2.84,0-4.26,0  c-1.42,0-2.84,0-4.26,0c-0.71,1.23-1.42,2.46-2.13,3.69c-0.71,1.23-1.42,2.46-2.13,3.69c0.71,1.23,1.42,2.46,2.13,3.69  c0.71,1.23,1.42,2.46,2.13,3.69c1.42,0,2.84,0,4.26,0C193.92,510.09,195.34,510.09,196.76,510.09L196.76,510.09z M187.77,531.1  c3.21-0.09,6.42-0.18,9.63-0.29l1.87-3.24l2.26-3.91l-2.26-3.91l-2.26-3.91h-4.51h-4.51l-2.26,3.91l-2.26,3.91l2.26,3.91  L187.77,531.1L187.77,531.1z M146.98,279.37h-0.74h-0.74l-0.37-0.64l-0.37-0.64l0.37-0.64l0.37-0.64h0.74h0.74l0.37,0.64l0.37,0.64  l-0.37,0.64L146.98,279.37L146.98,279.37z M147.24,291.9c-0.33,0-0.66,0-0.99,0c-0.33,0-0.66,0-0.99,0  c-0.16-0.29-0.33-0.57-0.49-0.86c-0.17-0.29-0.33-0.57-0.5-0.86c0.16-0.29,0.33-0.57,0.5-0.86c0.16-0.29,0.33-0.57,0.49-0.86  c0.33,0,0.66,0,0.99,0c0.33,0,0.66,0,0.99,0c0.16,0.29,0.33,0.57,0.5,0.86c0.17,0.29,0.33,0.57,0.49,0.86  c-0.16,0.29-0.33,0.57-0.49,0.86C147.57,291.33,147.4,291.62,147.24,291.9L147.24,291.9z M147.49,304.81c-0.41,0-0.83,0-1.24,0  c-0.41,0-0.83,0-1.24,0c-0.21-0.36-0.41-0.72-0.62-1.08c-0.21-0.36-0.41-0.72-0.62-1.08c0.21-0.36,0.41-0.72,0.62-1.08  c0.21-0.36,0.41-0.72,0.62-1.08c0.41,0,0.83,0,1.24,0c0.41,0,0.83,0,1.24,0c0.21,0.36,0.41,0.72,0.62,1.08  c0.21,0.36,0.41,0.72,0.62,1.08c-0.21,0.36-0.41,0.72-0.62,1.08C147.9,304.09,147.69,304.45,147.49,304.81L147.49,304.81z   M147.74,318.12c-0.5,0-1,0-1.49,0c-0.5,0-1,0-1.49,0c-0.25-0.43-0.5-0.86-0.75-1.29c-0.25-0.43-0.5-0.86-0.75-1.29  c0.25-0.43,0.5-0.86,0.75-1.29c0.25-0.43,0.5-0.86,0.75-1.29c0.5,0,1,0,1.49,0c0.5,0,1,0,1.49,0c0.25,0.43,0.5,0.86,0.75,1.29  c0.25,0.43,0.5,0.86,0.75,1.29c-0.25,0.43-0.5,0.86-0.75,1.29C148.24,317.26,147.99,317.69,147.74,318.12L147.74,318.12z   M147.99,331.86c-0.58,0-1.16,0-1.74,0c-0.58,0-1.16,0-1.75,0c-0.29-0.5-0.58-1.01-0.87-1.51c-0.29-0.5-0.58-1.01-0.87-1.51  c0.29-0.5,0.58-1.01,0.87-1.51c0.29-0.5,0.58-1.01,0.87-1.51c0.58,0,1.16,0,1.75,0c0.58,0,1.16,0,1.74,0  c0.29,0.5,0.58,1.01,0.87,1.51c0.29,0.5,0.58,1.01,0.87,1.51c-0.29,0.5-0.58,1.01-0.87,1.51  C148.57,330.85,148.28,331.35,147.99,331.86L147.99,331.86z M148.24,346.05c-0.67,0-1.33,0-2,0c-0.67,0-1.33,0-2,0  c-0.33-0.58-0.67-1.15-1-1.73c-0.33-0.58-0.67-1.15-1-1.73c0.33-0.58,0.67-1.15,1-1.73c0.33-0.58,0.67-1.15,1-1.73  c0.67,0,1.33,0,2,0c0.67,0,1.33,0,2,0c0.33,0.58,0.67,1.15,1,1.73c0.33,0.58,0.67,1.15,1,1.73c-0.33,0.58-0.67,1.15-1,1.73  C148.91,344.9,148.57,345.48,148.24,346.05L148.24,346.05z M148.49,360.73c-0.75,0-1.5,0-2.25,0c-0.75,0-1.5,0-2.25,0  c-0.37-0.65-0.75-1.3-1.12-1.95c-0.37-0.65-0.75-1.3-1.12-1.95c0.37-0.65,0.75-1.3,1.12-1.95c0.37-0.65,0.75-1.3,1.12-1.95  c0.75,0,1.5,0,2.25,0c0.75,0,1.5,0,2.25,0c0.37,0.65,0.75,1.3,1.12,1.95c0.37,0.65,0.75,1.3,1.12,1.95  c-0.37,0.65-0.75,1.3-1.12,1.95C149.24,359.44,148.87,360.08,148.49,360.73L148.49,360.73z M148.75,375.94c-0.83,0-1.67,0-2.5,0  c-0.83,0-1.67,0-2.5,0c-0.42-0.72-0.83-1.44-1.25-2.17c-0.42-0.72-0.83-1.44-1.25-2.17c0.42-0.72,0.83-1.44,1.25-2.17  c0.42-0.72,0.83-1.44,1.25-2.17c0.83,0,1.67,0,2.5,0c0.83,0,1.67,0,2.5,0c0.42,0.72,0.83,1.44,1.25,2.17  c0.42,0.72,0.83,1.44,1.25,2.17c-0.42,0.72-0.83,1.44-1.25,2.17C149.58,374.5,149.16,375.22,148.75,375.94L148.75,375.94z   M149,391.71c-0.92,0-1.83,0-2.75,0c-0.92,0-1.83,0-2.75,0c-0.46-0.79-0.92-1.59-1.38-2.38c-0.46-0.79-0.92-1.59-1.38-2.38  c0.46-0.79,0.92-1.59,1.38-2.38c0.46-0.79,0.92-1.59,1.38-2.38c0.92,0,1.83,0,2.75,0c0.92,0,1.83,0,2.75,0  c0.46,0.79,0.92,1.59,1.38,2.38c0.46,0.79,0.92,1.59,1.38,2.38c-0.46,0.79-0.92,1.59-1.38,2.38  C149.91,390.13,149.46,390.92,149,391.71L149,391.71z M149.25,408.1c-1,0-2,0-3,0c-1,0-2,0-3,0c-0.5-0.87-1-1.73-1.5-2.6  c-0.5-0.87-1-1.73-1.5-2.6c0.5-0.87,1-1.73,1.5-2.6c0.5-0.87,1-1.73,1.5-2.6c1,0,2,0,3,0c1,0,2,0,3,0c0.5,0.87,1,1.73,1.5,2.6  c0.5,0.87,1,1.73,1.5,2.6c-0.5,0.87-1,1.73-1.5,2.6C150.25,406.36,149.75,407.23,149.25,408.1L149.25,408.1z M149.5,425.14  c-1.09,0-2.17,0-3.26,0c-1.09,0-2.17,0-3.26,0c-0.54-0.94-1.09-1.88-1.63-2.82c-0.54-0.94-1.09-1.88-1.63-2.82  c0.54-0.94,1.09-1.88,1.63-2.82c0.54-0.94,1.09-1.88,1.63-2.82c1.08,0,2.17,0,3.26,0c1.08,0,2.17,0,3.26,0  c0.54,0.94,1.08,1.88,1.63,2.82c0.54,0.94,1.09,1.88,1.63,2.82c-0.54,0.94-1.09,1.88-1.63,2.82  C150.59,423.26,150.04,424.2,149.5,425.14L149.5,425.14z M149.75,442.9c-1.17,0-2.34,0-3.51,0c-1.17,0-2.34,0-3.51,0  c-0.58-1.01-1.17-2.02-1.75-3.04c-0.58-1.01-1.17-2.02-1.75-3.04c0.58-1.01,1.17-2.02,1.75-3.04c0.58-1.01,1.17-2.02,1.75-3.04  c1.17,0,2.34,0,3.51,0c1.17,0,2.34,0,3.51,0c0.58,1.01,1.17,2.02,1.75,3.04c0.58,1.01,1.17,2.02,1.75,3.04  c-0.58,1.01-1.17,2.02-1.75,3.04C150.92,440.88,150.34,441.89,149.75,442.9L149.75,442.9z M150,461.45c-1.25,0-2.51,0-3.76,0  c-1.25,0-2.51,0-3.76,0c-0.63-1.09-1.25-2.17-1.88-3.26c-0.63-1.09-1.25-2.17-1.88-3.26c0.63-1.09,1.25-2.17,1.88-3.26  c0.63-1.09,1.25-2.17,1.88-3.25c1.25,0,2.51,0,3.76,0c1.25,0,2.51,0,3.76,0c0.63,1.08,1.25,2.17,1.88,3.26  c0.63,1.08,1.25,2.17,1.88,3.25c-0.63,1.09-1.25,2.17-1.88,3.26C151.26,459.28,150.63,460.36,150,461.45L150,461.45z M150.26,480.85  c-1.34,0-2.67,0-4.01,0c-1.34,0-2.67,0-4.01,0c-0.67-1.16-1.34-2.32-2-3.47c-0.67-1.16-1.34-2.32-2.01-3.47  c0.67-1.16,1.34-2.32,2.01-3.47c0.67-1.16,1.34-2.32,2.01-3.47c1.34,0,2.67,0,4.01,0c1.34,0,2.67,0,4.01,0  c0.67,1.16,1.34,2.32,2.01,3.47c0.67,1.16,1.34,2.32,2,3.47c-0.67,1.16-1.34,2.32-2,3.47C151.59,478.53,150.92,479.69,150.26,480.85  L150.26,480.85z M150.51,501.19c-1.42,0-2.84,0-4.26,0c-1.42,0-2.84,0-4.26,0c-0.71-1.23-1.42-2.46-2.13-3.69  c-0.71-1.23-1.42-2.46-2.13-3.69c0.71-1.23,1.42-2.46,2.13-3.69c0.71-1.23,1.42-2.46,2.13-3.69c1.42,0,2.84,0,4.26,0  c1.42,0,2.84,0,4.26,0c0.71,1.23,1.42,2.46,2.13,3.69c0.71,1.23,1.42,2.46,2.13,3.69c-0.71,1.23-1.42,2.46-2.13,3.69  C151.93,498.73,151.22,499.96,150.51,501.19L150.51,501.19z M150.76,522.57h-4.51h-4.51l-2.26-3.91l-2.26-3.91l2.26-3.91l2.26-3.91  h4.51h4.51l2.26,3.91l2.26,3.91l-2.26,3.91L150.76,522.57L150.76,522.57z M162.4,288.27h-0.74h-0.74l-0.37-0.64l-0.37-0.64  l0.37-0.64l0.37-0.64h0.74h0.74l0.37,0.64l0.37,0.64l-0.37,0.64L162.4,288.27L162.4,288.27z M162.65,300.8c-0.33,0-0.66,0-0.99,0  c-0.33,0-0.66,0-0.99,0c-0.16-0.29-0.33-0.57-0.49-0.86c-0.17-0.29-0.33-0.57-0.5-0.86c0.16-0.29,0.33-0.57,0.5-0.86  c0.16-0.29,0.33-0.57,0.49-0.86c0.33,0,0.66,0,0.99,0c0.33,0,0.66,0,0.99,0c0.17,0.29,0.33,0.57,0.5,0.86  c0.16,0.29,0.33,0.57,0.49,0.86c-0.16,0.29-0.33,0.57-0.49,0.86C162.98,300.23,162.82,300.52,162.65,300.8L162.65,300.8z   M162.91,313.71c-0.41,0-0.83,0-1.24,0c-0.41,0-0.83,0-1.24,0c-0.21-0.36-0.41-0.72-0.62-1.08c-0.21-0.36-0.41-0.72-0.62-1.08  c0.21-0.36,0.41-0.72,0.62-1.08c0.21-0.36,0.41-0.72,0.62-1.08c0.41,0,0.83,0,1.24,0c0.41,0,0.83,0,1.24,0  c0.21,0.36,0.41,0.72,0.62,1.08c0.21,0.36,0.41,0.72,0.62,1.08c-0.21,0.36-0.41,0.72-0.62,1.08  C163.32,313,163.11,313.35,162.91,313.71L162.91,313.71z M163.16,327.02c-0.5,0-1,0-1.49,0c-0.5,0-1,0-1.49,0  c-0.25-0.43-0.5-0.86-0.75-1.29c-0.25-0.43-0.5-0.86-0.75-1.29c0.25-0.43,0.5-0.86,0.75-1.29c0.25-0.43,0.5-0.86,0.75-1.29  c0.5,0,1,0,1.49,0c0.5,0,1,0,1.49,0c0.25,0.43,0.5,0.86,0.75,1.29c0.25,0.43,0.5,0.86,0.75,1.29c-0.25,0.43-0.5,0.86-0.75,1.29  C163.66,326.16,163.41,326.59,163.16,327.02L163.16,327.02z M163.41,340.76c-0.58,0-1.16,0-1.75,0c-0.58,0-1.16,0-1.74,0  c-0.29-0.5-0.58-1.01-0.87-1.51c-0.29-0.5-0.58-1.01-0.87-1.51c0.29-0.5,0.58-1.01,0.87-1.51c0.29-0.5,0.58-1.01,0.87-1.51  c0.58,0,1.16,0,1.74,0c0.58,0,1.16,0,1.75,0c0.29,0.5,0.58,1.01,0.87,1.51c0.29,0.5,0.58,1.01,0.87,1.51  c-0.29,0.5-0.58,1.01-0.87,1.51C163.99,339.75,163.7,340.26,163.41,340.76L163.41,340.76z M163.66,354.95c-0.67,0-1.33,0-2,0  c-0.67,0-1.33,0-2,0c-0.33-0.58-0.67-1.15-1-1.73c-0.33-0.58-0.67-1.15-1-1.73c0.33-0.58,0.67-1.15,1-1.73  c0.33-0.58,0.67-1.15,1-1.73c0.67,0,1.33,0,2,0c0.67,0,1.33,0,2,0c0.33,0.58,0.67,1.15,1,1.73c0.33,0.58,0.67,1.15,1,1.73  c-0.33,0.58-0.67,1.15-1,1.73C164.33,353.8,163.99,354.38,163.66,354.95L163.66,354.95z M163.91,369.64c-0.75,0-1.5,0-2.25,0  c-0.75,0-1.5,0-2.25,0c-0.37-0.65-0.75-1.3-1.12-1.95c-0.37-0.65-0.75-1.3-1.12-1.95c0.37-0.65,0.75-1.3,1.12-1.95  c0.37-0.65,0.75-1.3,1.12-1.95c0.75,0,1.5,0,2.25,0c0.75,0,1.5,0,2.25,0c0.37,0.65,0.75,1.3,1.12,1.95c0.37,0.65,0.75,1.3,1.12,1.95  c-0.37,0.65-0.75,1.3-1.12,1.95C164.66,368.34,164.29,368.99,163.91,369.64L163.91,369.64z M164.16,384.84c-0.83,0-1.67,0-2.5,0  c-0.83,0-1.67,0-2.5,0c-0.42-0.72-0.83-1.44-1.25-2.17c-0.42-0.72-0.83-1.44-1.25-2.17c0.42-0.72,0.83-1.44,1.25-2.17  c0.42-0.72,0.83-1.44,1.25-2.17c0.83,0,1.67,0,2.5,0c0.83,0,1.67,0,2.5,0c0.42,0.72,0.83,1.44,1.25,2.17  c0.42,0.72,0.83,1.44,1.25,2.17c-0.42,0.72-0.83,1.44-1.25,2.17C165,383.4,164.58,384.12,164.16,384.84L164.16,384.84z   M164.42,400.62c-0.92,0-1.83,0-2.75,0c-0.92,0-1.83,0-2.75,0c-0.46-0.79-0.92-1.59-1.38-2.38c-0.46-0.79-0.92-1.59-1.38-2.38  c0.46-0.79,0.92-1.59,1.38-2.38c0.46-0.79,0.92-1.59,1.38-2.38c0.92,0,1.83,0,2.75,0c0.92,0,1.83,0,2.75,0  c0.46,0.79,0.92,1.59,1.38,2.38c0.46,0.79,0.92,1.59,1.38,2.38c-0.46,0.79-0.92,1.59-1.38,2.38  C165.33,399.03,164.87,399.82,164.42,400.62L164.42,400.62z M164.67,417c-1,0-2,0-3,0c-1,0-2,0-3,0c-0.5-0.87-1-1.73-1.5-2.6  c-0.5-0.87-1-1.73-1.5-2.6c0.5-0.87,1-1.73,1.5-2.6c0.5-0.87,1-1.73,1.5-2.6c1,0,2,0,3,0c1,0,2,0,3,0c0.5,0.87,1,1.73,1.5,2.6  c0.5,0.87,1,1.73,1.5,2.6c-0.5,0.87-1,1.73-1.5,2.6C165.67,415.26,165.17,416.13,164.67,417L164.67,417z M164.92,434.04  c-1.09,0-2.17,0-3.26,0c-1.09,0-2.17,0-3.26,0c-0.54-0.94-1.09-1.88-1.63-2.82c-0.54-0.94-1.09-1.88-1.63-2.82  c0.54-0.94,1.09-1.88,1.63-2.82c0.54-0.94,1.09-1.88,1.63-2.82c1.08,0,2.17,0,3.25,0c1.08,0,2.17,0,3.26,0  c0.54,0.94,1.08,1.88,1.63,2.82c0.54,0.94,1.09,1.88,1.63,2.82c-0.54,0.94-1.09,1.88-1.63,2.82  C166,432.16,165.46,433.1,164.92,434.04L164.92,434.04z M165.17,451.8c-1.17,0-2.34,0-3.51,0c-1.17,0-2.34,0-3.51,0  c-0.58-1.01-1.17-2.02-1.75-3.04c-0.58-1.01-1.17-2.02-1.75-3.04c0.58-1.01,1.17-2.03,1.75-3.04c0.58-1.01,1.17-2.02,1.75-3.04  c1.17,0,2.34,0,3.51,0c1.17,0,2.34,0,3.51,0c0.58,1.01,1.17,2.02,1.75,3.04c0.58,1.01,1.17,2.02,1.75,3.04  c-0.58,1.01-1.17,2.02-1.75,3.04C166.34,449.78,165.76,450.79,165.17,451.8L165.17,451.8z M165.42,470.35  c0.63-1.09,1.25-2.17,1.88-3.25c0.63-1.09,1.25-2.17,1.88-3.26c-0.63-1.09-1.25-2.17-1.88-3.25c-0.63-1.09-1.25-2.17-1.88-3.25  c-1.25,0-2.51,0-3.76,0c-1.25,0-2.51,0-3.76,0c-0.63,1.08-1.25,2.17-1.88,3.25c-0.63,1.08-1.25,2.17-1.88,3.26  c0.63,1.09,1.25,2.17,1.88,3.26c0.63,1.08,1.25,2.17,1.88,3.25c1.25,0,2.51,0,3.76,0C162.92,470.35,164.17,470.35,165.42,470.35  L165.42,470.35z M165.67,489.75c0.67-1.16,1.34-2.32,2.01-3.47c0.67-1.16,1.34-2.32,2-3.47c-0.67-1.16-1.34-2.32-2-3.47  c-0.67-1.16-1.34-2.32-2.01-3.47c-1.34,0-2.67,0-4.01,0c-1.34,0-2.67,0-4.01,0c-0.67,1.16-1.34,2.32-2.01,3.47  c-0.67,1.16-1.34,2.32-2.01,3.47c0.67,1.16,1.34,2.32,2.01,3.47c0.67,1.16,1.34,2.32,2.01,3.47c1.34,0,2.67,0,4.01,0  C163,489.75,164.34,489.75,165.67,489.75L165.67,489.75z M165.93,510.09c0.71-1.23,1.42-2.46,2.13-3.69  c0.71-1.23,1.42-2.46,2.13-3.69c-0.71-1.23-1.42-2.46-2.13-3.69c-0.71-1.23-1.42-2.46-2.13-3.69c-1.42,0-2.84,0-4.26,0  c-1.42,0-2.84,0-4.26,0c-0.71,1.23-1.42,2.46-2.13,3.69c-0.71,1.23-1.42,2.46-2.13,3.69c0.71,1.23,1.42,2.46,2.13,3.69  c0.71,1.23,1.42,2.46,2.13,3.69c1.42,0,2.84,0,4.26,0C163.08,510.09,164.51,510.09,165.93,510.09L165.93,510.09z M157.1,531.39  c3.04,0.04,6.07,0.06,9.08,0.08l2.25-3.9l2.26-3.91l-2.26-3.91l-2.26-3.91h-4.51h-4.51l-2.26,3.91l-2.26,3.91l2.26,3.91  L157.1,531.39L157.1,531.39z M116.15,279.37h-0.74h-0.74l-0.37-0.64l-0.37-0.64l0.37-0.64l0.37-0.64h0.74h0.74l0.37,0.64l0.37,0.64  l-0.37,0.64L116.15,279.37L116.15,279.37z M116.4,291.9c-0.33,0-0.66,0-0.99,0c-0.33,0-0.66,0-0.99,0  c-0.17-0.29-0.33-0.57-0.49-0.86c-0.17-0.29-0.33-0.57-0.5-0.86c0.17-0.29,0.33-0.57,0.5-0.86c0.16-0.29,0.33-0.57,0.49-0.86  c0.33,0,0.66,0,0.99,0c0.33,0,0.66,0,0.99,0c0.17,0.29,0.33,0.57,0.5,0.86c0.17,0.29,0.33,0.57,0.49,0.86  c-0.16,0.29-0.33,0.57-0.49,0.86C116.73,291.33,116.56,291.62,116.4,291.9L116.4,291.9z M116.65,304.81c-0.41,0-0.83,0-1.24,0  c-0.41,0-0.83,0-1.24,0c-0.21-0.36-0.41-0.72-0.62-1.08c-0.21-0.36-0.41-0.72-0.62-1.08c0.21-0.36,0.41-0.72,0.62-1.08  c0.21-0.36,0.41-0.72,0.62-1.08c0.41,0,0.83,0,1.24,0c0.41,0,0.83,0,1.24,0c0.21,0.36,0.41,0.72,0.62,1.08  c0.21,0.36,0.41,0.72,0.62,1.08c-0.21,0.36-0.41,0.72-0.62,1.08C117.06,304.09,116.86,304.45,116.65,304.81L116.65,304.81z   M116.9,318.12c-0.5,0-1,0-1.49,0c-0.5,0-1,0-1.49,0c-0.25-0.43-0.5-0.86-0.75-1.29c-0.25-0.43-0.5-0.86-0.75-1.29  c0.25-0.43,0.5-0.86,0.75-1.29c0.25-0.43,0.5-0.86,0.75-1.29c0.5,0,1,0,1.49,0c0.5,0,1,0,1.49,0c0.25,0.43,0.5,0.86,0.75,1.29  c0.25,0.43,0.5,0.86,0.75,1.29c-0.25,0.43-0.5,0.86-0.75,1.29C117.4,317.26,117.15,317.69,116.9,318.12L116.9,318.12z   M117.15,331.86c-0.58,0-1.16,0-1.74,0c-0.58,0-1.16,0-1.75,0c-0.29-0.5-0.58-1.01-0.87-1.51c-0.29-0.5-0.58-1.01-0.87-1.51  c0.29-0.5,0.58-1.01,0.87-1.51c0.29-0.5,0.58-1.01,0.87-1.51c0.58,0,1.16,0,1.75,0c0.58,0,1.16,0,1.74,0  c0.29,0.5,0.58,1.01,0.87,1.51c0.29,0.5,0.58,1.01,0.87,1.51c-0.29,0.5-0.58,1.01-0.87,1.51  C117.73,330.85,117.44,331.35,117.15,331.86L117.15,331.86z M117.4,346.05c-0.67,0-1.33,0-2,0c-0.67,0-1.33,0-2,0  c-0.33-0.58-0.67-1.15-1-1.73c-0.33-0.58-0.67-1.15-1-1.73c0.33-0.58,0.67-1.15,1-1.73c0.33-0.58,0.67-1.15,1-1.73  c0.67,0,1.33,0,2,0c0.67,0,1.33,0,2,0c0.33,0.58,0.67,1.15,1,1.73c0.33,0.58,0.67,1.15,1,1.73c-0.33,0.58-0.67,1.15-1,1.73  C118.07,344.9,117.74,345.48,117.4,346.05L117.4,346.05z M117.66,360.73c-0.75,0-1.5,0-2.25,0c-0.75,0-1.5,0-2.25,0  c-0.37-0.65-0.75-1.3-1.12-1.95c-0.37-0.65-0.75-1.3-1.12-1.95c0.37-0.65,0.75-1.3,1.12-1.95c0.37-0.65,0.75-1.3,1.12-1.95  c0.75,0,1.5,0,2.25,0c0.75,0,1.5,0,2.25,0c0.37,0.65,0.75,1.3,1.12,1.95c0.37,0.65,0.75,1.3,1.12,1.95  c-0.37,0.65-0.75,1.3-1.12,1.95C118.41,359.44,118.03,360.08,117.66,360.73L117.66,360.73z M117.91,375.94c-0.83,0-1.67,0-2.5,0  c-0.83,0-1.67,0-2.5,0c-0.42-0.72-0.83-1.44-1.25-2.17c-0.42-0.72-0.83-1.44-1.25-2.17c0.42-0.72,0.83-1.44,1.25-2.17  c0.42-0.72,0.83-1.44,1.25-2.17c0.83,0,1.67,0,2.5,0c0.83,0,1.67,0,2.5,0c0.42,0.72,0.83,1.44,1.25,2.17  c0.42,0.72,0.83,1.44,1.25,2.17c-0.42,0.72-0.83,1.44-1.25,2.17C118.74,374.5,118.32,375.22,117.91,375.94L117.91,375.94z   M118.16,391.71c-0.92,0-1.83,0-2.75,0c-0.92,0-1.83,0-2.75,0c-0.46-0.79-0.92-1.59-1.38-2.38c-0.46-0.79-0.92-1.59-1.38-2.38  c0.46-0.79,0.92-1.59,1.38-2.38c0.46-0.79,0.92-1.59,1.38-2.38c0.92,0,1.83,0,2.75,0c0.92,0,1.83,0,2.75,0  c0.46,0.79,0.92,1.59,1.38,2.38c0.46,0.79,0.92,1.59,1.38,2.38c-0.46,0.79-0.92,1.59-1.38,2.38  C119.08,390.13,118.62,390.92,118.16,391.71L118.16,391.71z M118.41,408.1c-1,0-2,0-3,0c-1,0-2,0-3,0c-0.5-0.87-1-1.73-1.5-2.6  c-0.5-0.87-1-1.73-1.5-2.6c0.5-0.87,1-1.73,1.5-2.6c0.5-0.87,1-1.73,1.5-2.6c1,0,2,0,3,0c1,0,2,0,3,0c0.5,0.87,1,1.73,1.5,2.6  c0.5,0.87,1,1.73,1.5,2.6c-0.5,0.87-1,1.73-1.5,2.6C119.41,406.36,118.91,407.23,118.41,408.1L118.41,408.1z M118.66,425.14  c-1.09,0-2.17,0-3.26,0c-1.09,0-2.17,0-3.26,0c-0.54-0.94-1.09-1.88-1.63-2.82c-0.54-0.94-1.09-1.88-1.63-2.82  c0.54-0.94,1.09-1.88,1.63-2.82c0.54-0.94,1.09-1.88,1.63-2.82c1.08,0,2.17,0,3.26,0c1.08,0,2.17,0,3.26,0  c0.54,0.94,1.08,1.88,1.63,2.82c0.54,0.94,1.09,1.88,1.63,2.82c-0.54,0.94-1.09,1.88-1.63,2.82  C119.75,423.26,119.2,424.2,118.66,425.14L118.66,425.14z M118.91,442.9c-1.17,0-2.34,0-3.51,0c-1.17,0-2.34,0-3.51,0  c-0.58-1.01-1.17-2.02-1.75-3.04c-0.58-1.01-1.17-2.02-1.75-3.04c0.58-1.01,1.17-2.02,1.75-3.04c0.58-1.01,1.17-2.02,1.75-3.04  c1.17,0,2.34,0,3.51,0c1.17,0,2.34,0,3.51,0c0.58,1.01,1.17,2.02,1.75,3.04c0.58,1.01,1.17,2.02,1.75,3.04  c-0.58,1.01-1.17,2.02-1.75,3.04C120.08,440.88,119.5,441.89,118.91,442.9L118.91,442.9z M119.17,461.45c-1.25,0-2.51,0-3.76,0  c-1.25,0-2.51,0-3.76,0c-0.63-1.09-1.25-2.17-1.88-3.26c-0.63-1.09-1.25-2.17-1.88-3.26c0.63-1.09,1.25-2.17,1.88-3.26  c0.63-1.09,1.25-2.17,1.88-3.25c1.25,0,2.51,0,3.76,0c1.25,0,2.51,0,3.76,0c0.63,1.08,1.25,2.17,1.88,3.26  c0.63,1.08,1.25,2.17,1.88,3.25c-0.63,1.09-1.25,2.17-1.88,3.26C120.42,459.28,119.79,460.36,119.17,461.45L119.17,461.45z   M119.42,480.85c-1.34,0-2.67,0-4.01,0c-1.34,0-2.67,0-4.01,0c-0.67-1.16-1.34-2.32-2.01-3.47c-0.67-1.16-1.34-2.32-2.01-3.47  c0.67-1.16,1.34-2.32,2.01-3.47c0.67-1.16,1.34-2.32,2.01-3.47c1.34,0,2.67,0,4.01,0c1.34,0,2.67,0,4.01,0  c0.67,1.16,1.34,2.32,2.01,3.47c0.67,1.16,1.34,2.32,2,3.47c-0.67,1.16-1.34,2.32-2,3.47C120.75,478.53,120.09,479.69,119.42,480.85  L119.42,480.85z M119.67,501.19c-1.42,0-2.84,0-4.26,0c-1.42,0-2.84,0-4.26,0c-0.71-1.23-1.42-2.46-2.13-3.69  c-0.71-1.23-1.42-2.46-2.13-3.69c0.71-1.23,1.42-2.46,2.13-3.69c0.71-1.23,1.42-2.46,2.13-3.69c1.42,0,2.84,0,4.26,0  c1.42,0,2.84,0,4.26,0c0.71,1.23,1.42,2.46,2.13,3.69c0.71,1.23,1.42,2.46,2.13,3.69c-0.71,1.23-1.42,2.46-2.13,3.69  C121.09,498.73,120.38,499.96,119.67,501.19L119.67,501.19z M119.92,522.57h-4.51h-4.51l-2.26-3.91l-2.26-3.91l2.26-3.91l2.26-3.91  h4.51h4.51l2.26,3.91l2.26,3.91l-2.26,3.91L119.92,522.57L119.92,522.57z M131.56,288.27h-0.74h-0.74l-0.37-0.64l-0.37-0.64  l0.37-0.64l0.37-0.64h0.74h0.74l0.37,0.64l0.37,0.64l-0.37,0.64L131.56,288.27L131.56,288.27z M131.82,300.8c-0.33,0-0.66,0-0.99,0  c-0.33,0-0.66,0-0.99,0c-0.17-0.29-0.33-0.57-0.49-0.86c-0.17-0.29-0.33-0.57-0.5-0.86c0.16-0.29,0.33-0.57,0.5-0.86  c0.16-0.29,0.33-0.57,0.49-0.86c0.33,0,0.66,0,0.99,0c0.33,0,0.66,0,0.99,0c0.17,0.29,0.33,0.57,0.5,0.86  c0.16,0.29,0.33,0.57,0.49,0.86c-0.17,0.29-0.33,0.57-0.49,0.86C132.15,300.23,131.98,300.52,131.82,300.8L131.82,300.8z   M132.07,313.71c-0.41,0-0.83,0-1.24,0c-0.41,0-0.83,0-1.24,0c-0.21-0.36-0.41-0.72-0.62-1.08c-0.21-0.36-0.41-0.72-0.62-1.08  c0.21-0.36,0.41-0.72,0.62-1.08c0.21-0.36,0.41-0.72,0.62-1.08c0.41,0,0.83,0,1.24,0c0.41,0,0.83,0,1.24,0  c0.21,0.36,0.41,0.72,0.62,1.08c0.21,0.36,0.41,0.72,0.62,1.08c-0.21,0.36-0.41,0.72-0.62,1.08  C132.48,313,132.27,313.35,132.07,313.71L132.07,313.71z M132.32,327.02c-0.5,0-1,0-1.49,0c-0.5,0-1,0-1.49,0  c-0.25-0.43-0.5-0.86-0.75-1.29c-0.25-0.43-0.5-0.86-0.75-1.29c0.25-0.43,0.5-0.86,0.75-1.29c0.25-0.43,0.5-0.86,0.75-1.29  c0.5,0,1,0,1.49,0c0.5,0,1,0,1.49,0c0.25,0.43,0.5,0.86,0.75,1.29c0.25,0.43,0.5,0.86,0.75,1.29c-0.25,0.43-0.5,0.86-0.75,1.29  C132.82,326.16,132.57,326.59,132.32,327.02L132.32,327.02z M132.57,340.76c-0.58,0-1.16,0-1.74,0c-0.58,0-1.16,0-1.75,0  c-0.29-0.5-0.58-1.01-0.87-1.51c-0.29-0.5-0.58-1.01-0.87-1.51c0.29-0.5,0.58-1.01,0.87-1.51c0.29-0.5,0.58-1.01,0.87-1.51  c0.58,0,1.16,0,1.75,0c0.58,0,1.16,0,1.74,0c0.29,0.5,0.58,1.01,0.87,1.51c0.29,0.5,0.58,1.01,0.87,1.51  c-0.29,0.5-0.58,1.01-0.87,1.51C133.15,339.75,132.86,340.26,132.57,340.76L132.57,340.76z M132.82,354.95c-0.67,0-1.33,0-2,0  c-0.67,0-1.33,0-2,0c-0.33-0.58-0.67-1.15-1-1.73c-0.33-0.58-0.67-1.15-1-1.73c0.33-0.58,0.67-1.15,1-1.73  c0.33-0.58,0.67-1.15,1-1.73c0.67,0,1.33,0,2,0c0.67,0,1.33,0,2,0c0.33,0.58,0.67,1.15,1,1.73c0.33,0.58,0.67,1.15,1,1.73  c-0.33,0.58-0.67,1.15-1,1.73C133.49,353.8,133.16,354.38,132.82,354.95L132.82,354.95z M133.07,369.64c-0.75,0-1.5,0-2.25,0  c-0.75,0-1.5,0-2.25,0c-0.37-0.65-0.75-1.3-1.12-1.95c-0.37-0.65-0.75-1.3-1.12-1.95c0.37-0.65,0.75-1.3,1.12-1.95  c0.37-0.65,0.75-1.3,1.12-1.95c0.75,0,1.5,0,2.25,0c0.75,0,1.5,0,2.25,0c0.37,0.65,0.75,1.3,1.12,1.95s0.75,1.3,1.12,1.95  c-0.37,0.65-0.75,1.3-1.12,1.95C133.82,368.34,133.45,368.99,133.07,369.64L133.07,369.64z M133.33,384.84c-0.83,0-1.67,0-2.5,0  c-0.83,0-1.67,0-2.5,0c-0.42-0.72-0.83-1.44-1.25-2.17c-0.42-0.72-0.83-1.44-1.25-2.17c0.42-0.72,0.83-1.44,1.25-2.17  c0.42-0.72,0.83-1.44,1.25-2.17c0.83,0,1.67,0,2.5,0c0.83,0,1.67,0,2.5,0c0.42,0.72,0.83,1.44,1.25,2.17  c0.42,0.72,0.83,1.44,1.25,2.17c-0.42,0.72-0.83,1.44-1.25,2.17C134.16,383.4,133.74,384.12,133.33,384.84L133.33,384.84z   M133.58,400.62c-0.92,0-1.83,0-2.75,0c-0.92,0-1.83,0-2.75,0c-0.46-0.79-0.92-1.59-1.38-2.38c-0.46-0.79-0.92-1.59-1.38-2.38  c0.46-0.79,0.92-1.59,1.38-2.38c0.46-0.79,0.92-1.59,1.38-2.38c0.92,0,1.83,0,2.75,0c0.92,0,1.83,0,2.75,0  c0.46,0.79,0.92,1.59,1.38,2.38c0.46,0.79,0.92,1.59,1.38,2.38c-0.46,0.79-0.92,1.59-1.38,2.38  C134.49,399.03,134.04,399.82,133.58,400.62L133.58,400.62z M133.83,417c-1,0-2,0-3,0c-1,0-2,0-3,0c-0.5-0.87-1-1.73-1.5-2.6  c-0.5-0.87-1-1.73-1.5-2.6c0.5-0.87,1-1.73,1.5-2.6c0.5-0.87,1-1.73,1.5-2.6c1,0,2,0,3,0c1,0,2,0,3,0c0.5,0.87,1,1.73,1.5,2.6  c0.5,0.87,1,1.73,1.5,2.6c-0.5,0.87-1,1.73-1.5,2.6C134.83,415.26,134.33,416.13,133.83,417L133.83,417z M134.08,434.04  c-1.09,0-2.17,0-3.26,0c-1.09,0-2.17,0-3.26,0c-0.54-0.94-1.09-1.88-1.63-2.82c-0.54-0.94-1.09-1.88-1.63-2.82  c0.54-0.94,1.09-1.88,1.63-2.82c0.54-0.94,1.09-1.88,1.63-2.82c1.08,0,2.17,0,3.26,0c1.08,0,2.17,0,3.26,0  c0.54,0.94,1.08,1.88,1.63,2.82c0.54,0.94,1.09,1.88,1.63,2.82c-0.54,0.94-1.09,1.88-1.63,2.82  C135.17,432.16,134.62,433.1,134.08,434.04L134.08,434.04z M134.33,451.8c-1.17,0-2.34,0-3.51,0c-1.17,0-2.34,0-3.51,0  c-0.58-1.01-1.17-2.02-1.75-3.04c-0.58-1.01-1.17-2.02-1.75-3.04c0.58-1.01,1.17-2.03,1.75-3.04c0.58-1.01,1.17-2.02,1.75-3.04  c1.17,0,2.34,0,3.51,0c1.17,0,2.34,0,3.51,0c0.58,1.01,1.17,2.02,1.75,3.04c0.58,1.01,1.17,2.02,1.75,3.04  c-0.58,1.01-1.17,2.02-1.75,3.04C135.5,449.78,134.92,450.79,134.33,451.8L134.33,451.8z M134.58,470.35  c0.63-1.09,1.25-2.17,1.88-3.25c0.63-1.09,1.25-2.17,1.88-3.26c-0.63-1.09-1.25-2.17-1.88-3.25c-0.63-1.09-1.25-2.17-1.88-3.25  c-1.25,0-2.51,0-3.76,0c-1.25,0-2.51,0-3.76,0c-0.63,1.08-1.25,2.17-1.88,3.25c-0.63,1.08-1.25,2.17-1.88,3.26  c0.63,1.09,1.25,2.17,1.88,3.26c0.63,1.08,1.25,2.17,1.88,3.25c1.25,0,2.51,0,3.76,0C132.08,470.35,133.33,470.35,134.58,470.35  L134.58,470.35z M134.84,489.75c0.67-1.16,1.34-2.32,2.01-3.47c0.67-1.16,1.34-2.32,2.01-3.47c-0.67-1.16-1.34-2.32-2.01-3.47  c-0.67-1.16-1.34-2.32-2.01-3.47c-1.34,0-2.67,0-4.01,0c-1.34,0-2.67,0-4.01,0c-0.67,1.16-1.34,2.32-2.01,3.47  c-0.67,1.16-1.34,2.32-2.01,3.47c0.67,1.16,1.34,2.32,2.01,3.47c0.67,1.16,1.34,2.32,2.01,3.47c1.34,0,2.67,0,4.01,0  C132.16,489.75,133.5,489.75,134.84,489.75L134.84,489.75z M135.09,510.09c0.71-1.23,1.42-2.46,2.13-3.69  c0.71-1.23,1.42-2.46,2.13-3.69c-0.71-1.23-1.42-2.46-2.13-3.69c-0.71-1.23-1.42-2.46-2.13-3.69c-1.42,0-2.84,0-4.26,0  c-1.42,0-2.84,0-4.26,0c-0.71,1.23-1.42,2.46-2.13,3.69c-0.71,1.23-1.42,2.46-2.13,3.69c0.71,1.23,1.42,2.46,2.13,3.69  c0.71,1.23,1.42,2.46,2.13,3.69c1.42,0,2.84,0,4.26,0C132.25,510.09,133.67,510.09,135.09,510.09L135.09,510.09z M125.76,530.51  c3.31,0.14,6.62,0.26,9.92,0.38l1.92-3.32l2.26-3.91l-2.26-3.91l-2.26-3.91h-4.51h-4.51l-2.26,3.91l-2.26,3.91l2.26,3.91  L125.76,530.51L125.76,530.51z M85.31,279.37h-0.74h-0.74l-0.37-0.64l-0.37-0.64l0.37-0.64l0.37-0.64h0.74h0.74l0.37,0.64l0.37,0.64  l-0.37,0.64L85.31,279.37L85.31,279.37z M85.56,291.9c-0.33,0-0.66,0-0.99,0c-0.33,0-0.66,0-0.99,0c-0.17-0.29-0.33-0.57-0.49-0.86  c-0.17-0.29-0.33-0.57-0.5-0.86c0.16-0.29,0.33-0.57,0.5-0.86c0.17-0.29,0.33-0.57,0.49-0.86c0.33,0,0.66,0,0.99,0  c0.33,0,0.66,0,0.99,0c0.16,0.29,0.33,0.57,0.5,0.86c0.17,0.29,0.33,0.57,0.49,0.86c-0.16,0.29-0.33,0.57-0.49,0.86  C85.89,291.33,85.72,291.62,85.56,291.9L85.56,291.9z M85.81,304.81c-0.41,0-0.83,0-1.24,0c-0.41,0-0.83,0-1.24,0  c-0.21-0.36-0.41-0.72-0.62-1.08c-0.21-0.36-0.41-0.72-0.62-1.08c0.21-0.36,0.41-0.72,0.62-1.08c0.21-0.36,0.41-0.72,0.62-1.08  c0.41,0,0.83,0,1.24,0c0.41,0,0.83,0,1.24,0c0.21,0.36,0.41,0.72,0.62,1.08c0.21,0.36,0.41,0.72,0.62,1.08  c-0.21,0.36-0.41,0.72-0.62,1.08C86.22,304.09,86.02,304.45,85.81,304.81L85.81,304.81z M86.06,318.12c-0.5,0-1,0-1.49,0  c-0.5,0-1,0-1.49,0c-0.25-0.43-0.5-0.86-0.75-1.29c-0.25-0.43-0.5-0.86-0.75-1.29c0.25-0.43,0.5-0.86,0.75-1.29  c0.25-0.43,0.5-0.86,0.75-1.29c0.5,0,1,0,1.49,0c0.5,0,1,0,1.49,0c0.25,0.43,0.5,0.86,0.75,1.29c0.25,0.43,0.5,0.86,0.75,1.29  c-0.25,0.43-0.5,0.86-0.75,1.29C86.56,317.26,86.31,317.69,86.06,318.12L86.06,318.12z M86.31,331.86c-0.58,0-1.16,0-1.75,0  c-0.58,0-1.16,0-1.75,0c-0.29-0.5-0.58-1.01-0.87-1.51c-0.29-0.5-0.58-1.01-0.87-1.51c0.29-0.5,0.58-1.01,0.87-1.51  c0.29-0.5,0.58-1.01,0.87-1.51c0.58,0,1.16,0,1.75,0c0.58,0,1.16,0,1.75,0c0.29,0.5,0.58,1.01,0.87,1.51  c0.29,0.5,0.58,1.01,0.87,1.51c-0.29,0.5-0.58,1.01-0.87,1.51C86.9,330.85,86.61,331.35,86.31,331.86L86.31,331.86z M86.57,346.05  c-0.67,0-1.33,0-2,0c-0.67,0-1.33,0-2,0c-0.33-0.58-0.67-1.15-1-1.73c-0.33-0.58-0.67-1.15-1-1.73c0.33-0.58,0.67-1.15,1-1.73  c0.33-0.58,0.67-1.15,1-1.73c0.67,0,1.33,0,2,0c0.67,0,1.33,0,2,0c0.33,0.58,0.67,1.15,1,1.73c0.33,0.58,0.67,1.15,1,1.73  c-0.33,0.58-0.67,1.15-1,1.73C87.23,344.9,86.9,345.48,86.57,346.05L86.57,346.05z M86.82,360.73c-0.75,0-1.5,0-2.25,0  c-0.75,0-1.5,0-2.25,0c-0.37-0.65-0.75-1.3-1.12-1.95c-0.37-0.65-0.75-1.3-1.12-1.95c0.37-0.65,0.75-1.3,1.12-1.95  c0.37-0.65,0.75-1.3,1.12-1.95c0.75,0,1.5,0,2.25,0c0.75,0,1.5,0,2.25,0c0.37,0.65,0.75,1.3,1.12,1.95c0.37,0.65,0.75,1.3,1.12,1.95  c-0.37,0.65-0.75,1.3-1.12,1.95C87.57,359.44,87.19,360.08,86.82,360.73L86.82,360.73z M87.07,375.94c-0.83,0-1.67,0-2.5,0  c-0.83,0-1.67,0-2.5,0c-0.42-0.72-0.83-1.44-1.25-2.17c-0.42-0.72-0.83-1.44-1.25-2.17c0.42-0.72,0.83-1.44,1.25-2.17  c0.42-0.72,0.83-1.44,1.25-2.17c0.83,0,1.67,0,2.5,0c0.83,0,1.67,0,2.5,0c0.42,0.72,0.83,1.44,1.25,2.17  c0.42,0.72,0.83,1.44,1.25,2.17c-0.42,0.72-0.83,1.44-1.25,2.17C87.9,374.5,87.49,375.22,87.07,375.94L87.07,375.94z M87.32,391.71  c-0.92,0-1.83,0-2.75,0c-0.92,0-1.83,0-2.75,0c-0.46-0.79-0.92-1.59-1.38-2.38c-0.46-0.79-0.92-1.59-1.38-2.38  c0.46-0.79,0.92-1.59,1.38-2.38c0.46-0.79,0.92-1.59,1.38-2.38c0.92,0,1.83,0,2.75,0c0.92,0,1.83,0,2.75,0  c0.46,0.79,0.92,1.59,1.38,2.38c0.46,0.79,0.92,1.59,1.38,2.38c-0.46,0.79-0.92,1.59-1.38,2.38  C88.24,390.13,87.78,390.92,87.32,391.71L87.32,391.71z M87.57,408.1c-1,0-2,0-3,0c-1,0-2,0-3,0c-0.5-0.87-1-1.73-1.5-2.6  c-0.5-0.87-1-1.73-1.5-2.6c0.5-0.87,1-1.73,1.5-2.6c0.5-0.87,1-1.73,1.5-2.6c1,0,2,0,3,0c1,0,2,0,3,0c0.5,0.87,1,1.73,1.5,2.6  c0.5,0.87,1,1.73,1.5,2.6c-0.5,0.87-1,1.73-1.5,2.6C88.57,406.36,88.07,407.23,87.57,408.1L87.57,408.1z M87.82,425.14  c-1.09,0-2.17,0-3.26,0c-1.09,0-2.17,0-3.26,0c-0.54-0.94-1.09-1.88-1.63-2.82c-0.54-0.94-1.09-1.88-1.63-2.82  c0.54-0.94,1.09-1.88,1.63-2.82c0.54-0.94,1.09-1.88,1.63-2.82c1.08,0,2.17,0,3.26,0c1.08,0,2.17,0,3.26,0  c0.54,0.94,1.08,1.88,1.63,2.82c0.54,0.94,1.09,1.88,1.63,2.82c-0.54,0.94-1.09,1.88-1.63,2.82  C88.91,423.26,88.37,424.2,87.82,425.14L87.82,425.14z M88.08,442.9c-1.17,0-2.34,0-3.51,0c-1.17,0-2.34,0-3.51,0  c-0.58-1.01-1.17-2.02-1.75-3.04c-0.58-1.01-1.17-2.02-1.75-3.04c0.58-1.01,1.17-2.02,1.75-3.04c0.58-1.01,1.17-2.02,1.75-3.04  c1.17,0,2.34,0,3.51,0c1.17,0,2.34,0,3.51,0c0.58,1.01,1.17,2.02,1.75,3.04c0.58,1.01,1.17,2.02,1.75,3.04  c-0.58,1.01-1.17,2.02-1.75,3.04C89.24,440.88,88.66,441.89,88.08,442.9L88.08,442.9z M88.33,461.45c-1.25,0-2.51,0-3.76,0  c-1.25,0-2.51,0-3.76,0c-0.63-1.09-1.25-2.17-1.88-3.26c-0.63-1.09-1.25-2.17-1.88-3.26c0.63-1.09,1.25-2.17,1.88-3.26  c0.63-1.09,1.25-2.17,1.88-3.25c1.25,0,2.51,0,3.76,0c1.25,0,2.51,0,3.76,0c0.63,1.08,1.25,2.17,1.88,3.26  c0.63,1.08,1.25,2.17,1.88,3.25c-0.63,1.09-1.25,2.17-1.88,3.26C89.58,459.28,88.95,460.36,88.33,461.45L88.33,461.45z   M88.58,480.85c-1.34,0-2.67,0-4.01,0c-1.34,0-2.67,0-4.01,0c-0.67-1.16-1.34-2.32-2-3.47c-0.67-1.16-1.34-2.32-2.01-3.47  c0.67-1.16,1.34-2.32,2.01-3.47c0.67-1.16,1.34-2.32,2.01-3.47c1.34,0,2.67,0,4.01,0c1.34,0,2.67,0,4.01,0  c0.67,1.16,1.34,2.32,2.01,3.47c0.67,1.16,1.34,2.32,2,3.47c-0.67,1.16-1.34,2.32-2,3.47C89.92,478.53,89.25,479.69,88.58,480.85  L88.58,480.85z M88.83,501.19c-1.42,0-2.84,0-4.26,0c-1.42,0-2.84,0-4.26,0c-0.71-1.23-1.42-2.46-2.13-3.69  c-0.71-1.23-1.42-2.46-2.13-3.69c0.71-1.23,1.42-2.46,2.13-3.69c0.71-1.23,1.42-2.46,2.13-3.69c1.42,0,2.84,0,4.26,0  c1.42,0,2.84,0,4.26,0c0.71,1.23,1.42,2.46,2.13,3.69c0.71,1.23,1.42,2.46,2.13,3.69c-0.71,1.23-1.42,2.46-2.13,3.69  C90.25,498.73,89.54,499.96,88.83,501.19L88.83,501.19z M89.08,522.57h-4.51h-4.51l-2.26-3.91l-2.26-3.91l2.26-3.91l2.26-3.91h4.51  h4.51l2.26,3.91l2.26,3.91l-2.26,3.91L89.08,522.57L89.08,522.57z M100.73,288.27h-0.74h-0.74l-0.37-0.64l-0.37-0.64l0.37-0.64  l0.37-0.64h0.74h0.74l0.37,0.64l0.37,0.64l-0.37,0.64L100.73,288.27L100.73,288.27z M100.98,300.8c-0.33,0-0.66,0-0.99,0  c-0.33,0-0.66,0-0.99,0c-0.17-0.29-0.33-0.57-0.49-0.86c-0.17-0.29-0.33-0.57-0.5-0.86c0.17-0.29,0.33-0.57,0.5-0.86  c0.16-0.29,0.33-0.57,0.49-0.86c0.33,0,0.66,0,0.99,0c0.33,0,0.66,0,0.99,0c0.16,0.29,0.33,0.57,0.5,0.86  c0.17,0.29,0.33,0.57,0.49,0.86c-0.17,0.29-0.33,0.57-0.49,0.86C101.31,300.23,101.14,300.52,100.98,300.8L100.98,300.8z   M101.23,313.71c-0.41,0-0.83,0-1.24,0c-0.41,0-0.83,0-1.24,0c-0.21-0.36-0.41-0.72-0.62-1.08c-0.21-0.36-0.41-0.72-0.62-1.08  c0.21-0.36,0.41-0.72,0.62-1.08c0.21-0.36,0.41-0.72,0.62-1.08c0.41,0,0.83,0,1.24,0c0.41,0,0.83,0,1.24,0  c0.21,0.36,0.41,0.72,0.62,1.08c0.21,0.36,0.41,0.72,0.62,1.08c-0.21,0.36-0.41,0.72-0.62,1.08  C101.64,313,101.44,313.35,101.23,313.71L101.23,313.71z M101.48,327.02c-0.5,0-1,0-1.49,0c-0.5,0-1,0-1.49,0  c-0.25-0.43-0.5-0.86-0.75-1.29c-0.25-0.43-0.5-0.86-0.75-1.29c0.25-0.43,0.5-0.86,0.75-1.29c0.25-0.43,0.5-0.86,0.75-1.29  c0.5,0,1,0,1.49,0c0.5,0,1,0,1.49,0c0.25,0.43,0.5,0.86,0.75,1.29c0.25,0.43,0.5,0.86,0.75,1.29c-0.25,0.43-0.5,0.86-0.75,1.29  C101.98,326.16,101.73,326.59,101.48,327.02L101.48,327.02z M101.73,340.76c-0.58,0-1.16,0-1.75,0c-0.58,0-1.16,0-1.75,0  c-0.29-0.5-0.58-1.01-0.87-1.51c-0.29-0.5-0.58-1.01-0.87-1.51c0.29-0.5,0.58-1.01,0.87-1.51c0.29-0.5,0.58-1.01,0.87-1.51  c0.58,0,1.16,0,1.75,0c0.58,0,1.16,0,1.75,0c0.29,0.5,0.58,1.01,0.87,1.51c0.29,0.5,0.58,1.01,0.87,1.51  c-0.29,0.5-0.58,1.01-0.87,1.51C102.31,339.75,102.02,340.26,101.73,340.76L101.73,340.76z M101.98,354.95c-0.67,0-1.33,0-2,0  c-0.67,0-1.33,0-2,0c-0.33-0.58-0.67-1.15-1-1.73c-0.33-0.58-0.67-1.15-1-1.73c0.33-0.58,0.67-1.15,1-1.73  c0.33-0.58,0.67-1.15,1-1.73c0.67,0,1.33,0,2,0c0.67,0,1.33,0,2,0c0.33,0.58,0.67,1.15,1,1.73c0.33,0.58,0.67,1.15,1,1.73  c-0.33,0.58-0.67,1.15-1,1.73C102.65,353.8,102.32,354.38,101.98,354.95L101.98,354.95z M102.24,369.64c-0.75,0-1.5,0-2.25,0  c-0.75,0-1.5,0-2.25,0c-0.37-0.65-0.75-1.3-1.12-1.95c-0.37-0.65-0.75-1.3-1.12-1.95c0.37-0.65,0.75-1.3,1.12-1.95  c0.37-0.65,0.75-1.3,1.12-1.95c0.75,0,1.5,0,2.25,0c0.75,0,1.5,0,2.25,0c0.37,0.65,0.75,1.3,1.12,1.95c0.37,0.65,0.75,1.3,1.12,1.95  c-0.37,0.65-0.75,1.3-1.12,1.95C102.99,368.34,102.61,368.99,102.24,369.64L102.24,369.64z M102.49,384.84c-0.83,0-1.67,0-2.5,0  c-0.83,0-1.67,0-2.5,0c-0.42-0.72-0.83-1.44-1.25-2.17c-0.42-0.72-0.83-1.44-1.25-2.17c0.42-0.72,0.83-1.44,1.25-2.17  c0.42-0.72,0.83-1.44,1.25-2.17c0.83,0,1.67,0,2.5,0c0.83,0,1.67,0,2.5,0c0.42,0.72,0.83,1.44,1.25,2.17  c0.42,0.72,0.83,1.44,1.25,2.17c-0.42,0.72-0.83,1.44-1.25,2.17C103.32,383.4,102.9,384.12,102.49,384.84L102.49,384.84z   M102.74,400.62c-0.92,0-1.83,0-2.75,0c-0.92,0-1.83,0-2.75,0c-0.46-0.79-0.92-1.59-1.38-2.38c-0.46-0.79-0.92-1.59-1.38-2.38  c0.46-0.79,0.92-1.59,1.38-2.38c0.46-0.79,0.92-1.59,1.38-2.38c0.92,0,1.83,0,2.75,0c0.92,0,1.83,0,2.75,0  c0.46,0.79,0.92,1.59,1.38,2.38c0.46,0.79,0.92,1.59,1.38,2.38c-0.46,0.79-0.92,1.59-1.38,2.38  C103.66,399.03,103.2,399.82,102.74,400.62L102.74,400.62z M102.99,417c-1,0-2,0-3,0c-1,0-2,0-3,0c-0.5-0.87-1-1.73-1.5-2.6  c-0.5-0.87-1-1.73-1.5-2.6c0.5-0.87,1-1.73,1.5-2.6c0.5-0.87,1-1.73,1.5-2.6c1,0,2,0,3,0c1,0,2,0,3,0c0.5,0.87,1,1.73,1.5,2.6  c0.5,0.87,1,1.73,1.5,2.6c-0.5,0.87-1,1.73-1.5,2.6C103.99,415.26,103.49,416.13,102.99,417L102.99,417z M103.24,434.04  c-1.09,0-2.17,0-3.26,0c-1.09,0-2.17,0-3.26,0c-0.54-0.94-1.09-1.88-1.63-2.82c-0.54-0.94-1.09-1.88-1.63-2.82  c0.54-0.94,1.09-1.88,1.63-2.82c0.54-0.94,1.09-1.88,1.63-2.82c1.08,0,2.17,0,3.25,0c1.08,0,2.17,0,3.26,0  c0.54,0.94,1.08,1.88,1.63,2.82c0.54,0.94,1.09,1.88,1.63,2.82c-0.54,0.94-1.09,1.88-1.63,2.82  C104.33,432.16,103.79,433.1,103.24,434.04L103.24,434.04z M103.49,451.8c-1.17,0-2.34,0-3.51,0c-1.17,0-2.34,0-3.51,0  c-0.58-1.01-1.17-2.02-1.75-3.04c-0.58-1.01-1.17-2.02-1.75-3.04c0.58-1.01,1.17-2.03,1.75-3.04c0.58-1.01,1.17-2.02,1.75-3.04  c1.17,0,2.34,0,3.51,0c1.17,0,2.34,0,3.51,0c0.58,1.01,1.17,2.02,1.75,3.04c0.58,1.01,1.17,2.02,1.75,3.04  c-0.58,1.01-1.17,2.02-1.75,3.04C104.66,449.78,104.08,450.79,103.49,451.8L103.49,451.8z M103.75,470.35  c0.63-1.09,1.25-2.17,1.88-3.25c0.63-1.09,1.25-2.17,1.88-3.26c-0.63-1.09-1.25-2.17-1.88-3.25c-0.63-1.09-1.25-2.17-1.88-3.25  c-1.25,0-2.51,0-3.76,0c-1.25,0-2.51,0-3.76,0c-0.63,1.08-1.25,2.17-1.88,3.25c-0.63,1.08-1.25,2.17-1.88,3.26  c0.63,1.09,1.25,2.17,1.88,3.26c0.63,1.08,1.25,2.17,1.88,3.25c1.25,0,2.51,0,3.76,0C101.24,470.35,102.49,470.35,103.75,470.35  L103.75,470.35z M104,489.75c0.67-1.16,1.34-2.32,2.01-3.47c0.67-1.16,1.34-2.32,2-3.47c-0.67-1.16-1.34-2.32-2-3.47  c-0.67-1.16-1.34-2.32-2.01-3.47c-1.34,0-2.67,0-4.01,0c-1.34,0-2.67,0-4.01,0c-0.67,1.16-1.34,2.32-2.01,3.47  c-0.67,1.16-1.34,2.32-2.01,3.47c0.67,1.16,1.34,2.32,2.01,3.47c0.67,1.16,1.34,2.32,2,3.47c1.34,0,2.67,0,4.01,0  C101.32,489.75,102.66,489.75,104,489.75L104,489.75z M104.25,510.09c0.71-1.23,1.42-2.46,2.13-3.69c0.71-1.23,1.42-2.46,2.13-3.69  c-0.71-1.23-1.42-2.46-2.13-3.69c-0.71-1.23-1.42-2.46-2.13-3.69c-1.42,0-2.84,0-4.26,0c-1.42,0-2.84,0-4.26,0  c-0.71,1.23-1.42,2.46-2.13,3.69c-0.71,1.23-1.42,2.46-2.13,3.69c0.71,1.23,1.42,2.46,2.13,3.69c0.71,1.23,1.42,2.46,2.13,3.69  c1.42,0,2.84,0,4.26,0C101.41,510.09,102.83,510.09,104.25,510.09L104.25,510.09z M93.91,528.76c3.91,0.26,7.83,0.51,11.74,0.74  l1.12-1.93l2.26-3.91l-2.26-3.91l-2.26-3.91h-4.51h-4.51l-2.26,3.91l-2.26,3.91l2.26,3.91L93.91,528.76L93.91,528.76z M54.47,279.37  h-0.74h-0.74l-0.37-0.64l-0.37-0.64l0.37-0.64l0.37-0.64h0.74h0.74l0.37,0.64l0.37,0.64l-0.37,0.64L54.47,279.37L54.47,279.37z   M54.72,291.9c-0.33,0-0.66,0-0.99,0c-0.33,0-0.66,0-0.99,0c-0.17-0.29-0.33-0.57-0.49-0.86c-0.17-0.29-0.33-0.57-0.5-0.86  c0.16-0.29,0.33-0.57,0.5-0.86c0.16-0.29,0.33-0.57,0.49-0.86c0.33,0,0.66,0,0.99,0c0.33,0,0.66,0,0.99,0  c0.17,0.29,0.33,0.57,0.5,0.86c0.17,0.29,0.33,0.57,0.49,0.86c-0.17,0.29-0.33,0.57-0.49,0.86  C55.05,291.33,54.89,291.62,54.72,291.9L54.72,291.9z M54.97,304.81c-0.41,0-0.83,0-1.24,0c-0.41,0-0.83,0-1.24,0  c-0.21-0.36-0.41-0.72-0.62-1.08c-0.21-0.36-0.41-0.72-0.62-1.08c0.21-0.36,0.41-0.72,0.62-1.08c0.21-0.36,0.41-0.72,0.62-1.08  c0.41,0,0.83,0,1.24,0c0.41,0,0.83,0,1.24,0c0.21,0.36,0.41,0.72,0.62,1.08c0.21,0.36,0.41,0.72,0.62,1.08  c-0.21,0.36-0.41,0.72-0.62,1.08C55.39,304.09,55.18,304.45,54.97,304.81L54.97,304.81z M55.22,318.12c-0.5,0-1,0-1.49,0  c-0.5,0-1,0-1.49,0c-0.25-0.43-0.5-0.86-0.75-1.29c-0.25-0.43-0.5-0.86-0.75-1.29c0.25-0.43,0.5-0.86,0.75-1.29  c0.25-0.43,0.5-0.86,0.75-1.29c0.5,0,1,0,1.49,0c0.5,0,1,0,1.49,0c0.25,0.43,0.5,0.86,0.75,1.29c0.25,0.43,0.5,0.86,0.75,1.29  c-0.25,0.43-0.5,0.86-0.75,1.29C55.72,317.26,55.47,317.69,55.22,318.12L55.22,318.12z M55.48,331.86c-0.58,0-1.16,0-1.75,0  c-0.58,0-1.16,0-1.74,0c-0.29-0.5-0.58-1.01-0.87-1.51c-0.29-0.5-0.58-1.01-0.87-1.51c0.29-0.5,0.58-1.01,0.87-1.51  c0.29-0.5,0.58-1.01,0.87-1.51c0.58,0,1.16,0,1.74,0c0.58,0,1.16,0,1.75,0c0.29,0.5,0.58,1.01,0.87,1.51  c0.29,0.5,0.58,1.01,0.87,1.51c-0.29,0.5-0.58,1.01-0.87,1.51C56.06,330.85,55.77,331.35,55.48,331.86L55.48,331.86z M55.73,346.05  c-0.67,0-1.33,0-2,0c-0.67,0-1.33,0-2,0c-0.33-0.58-0.67-1.15-1-1.73l-0.37-0.64l-0.18-1.85l0.56-0.96c0.33-0.58,0.67-1.15,1-1.73  c0.67,0,1.33,0,2,0c0.67,0,1.33,0,2,0c0.33,0.58,0.67,1.15,1,1.73c0.33,0.58,0.67,1.15,1,1.73c-0.33,0.58-0.67,1.15-1,1.73  C56.39,344.9,56.06,345.48,55.73,346.05L55.73,346.05z M55.98,360.73c-0.75,0-1.5,0-2.25,0h-1.74c-0.23-2.5-0.46-4.99-0.69-7.46  l0.19-0.33c0.75,0,1.5,0,2.25,0c0.75,0,1.5,0,2.25,0c0.37,0.65,0.75,1.3,1.12,1.95c0.37,0.65,0.75,1.3,1.12,1.95  c-0.37,0.65-0.75,1.3-1.12,1.95C56.73,359.44,56.35,360.08,55.98,360.73L55.98,360.73z M56.23,375.94c-0.83,0-1.67,0-2.5,0h-0.41  c-0.24-2.9-0.49-5.79-0.75-8.66h1.16c0.83,0,1.67,0,2.5,0c0.42,0.72,0.83,1.44,1.25,2.17c0.42,0.72,0.83,1.44,1.25,2.17  c-0.42,0.72-0.83,1.44-1.25,2.17C57.06,374.5,56.65,375.22,56.23,375.94L56.23,375.94z M56.48,391.71H54.6  c-0.25-3.19-0.5-6.37-0.76-9.53h2.64c0.46,0.79,0.92,1.59,1.38,2.38c0.46,0.79,0.92,1.59,1.38,2.38c-0.46,0.79-0.92,1.59-1.38,2.38  C57.4,390.13,56.94,390.92,56.48,391.71L56.48,391.71z M56.73,408.1h-0.92c-0.25-3.48-0.5-6.95-0.76-10.4h1.68  c0.5,0.87,1,1.73,1.5,2.6c0.5,0.87,1,1.73,1.5,2.6c-0.5,0.87-1,1.73-1.5,2.6C57.74,406.36,57.23,407.23,56.73,408.1L56.73,408.1z   M56.99,425.14h-0.02c-0.24-3.78-0.49-7.54-0.75-11.28h0.77c0.54,0.94,1.08,1.88,1.63,2.82c0.54,0.94,1.09,1.88,1.63,2.82  c-0.54,0.94-1.09,1.88-1.63,2.82C58.07,423.26,57.53,424.2,56.99,425.14L56.99,425.14z M57.33,430.91l1.66,2.88  c0.58,1.01,1.17,2.02,1.75,3.04c-0.58,1.01-1.17,2.02-1.75,3.04l-1.02,1.77C57.76,438.04,57.55,434.47,57.33,430.91L57.33,430.91z   M58.44,450.08l0.93,1.6c0.63,1.08,1.25,2.17,1.88,3.25c-0.63,1.09-1.25,2.17-1.88,3.26l-0.46,0.79  C58.76,456,58.6,453.04,58.44,450.08L58.44,450.08z M59.44,469.9l0.3,0.52c0.67,1.16,1.34,2.32,2.01,3.47l-1.97,3.41  C59.67,474.84,59.56,472.37,59.44,469.9L59.44,469.9z M60.33,490.47l1.93,3.34l-1.69,2.93C60.49,494.64,60.41,492.55,60.33,490.47  L60.33,490.47z M61.08,511.84l1.68,2.91l-1.51,2.62C61.19,515.54,61.13,513.69,61.08,511.84L61.08,511.84z M69.89,288.27h-0.74  h-0.74l-0.37-0.64l-0.37-0.64l0.37-0.64l0.37-0.64h0.74h0.74l0.37,0.64l0.37,0.64l-0.37,0.64L69.89,288.27L69.89,288.27z   M70.14,300.8c-0.33,0-0.66,0-0.99,0c-0.33,0-0.66,0-0.99,0c-0.17-0.29-0.33-0.57-0.49-0.86c-0.17-0.29-0.33-0.57-0.5-0.86  c0.17-0.29,0.33-0.57,0.5-0.86c0.16-0.29,0.33-0.57,0.49-0.86c0.33,0,0.66,0,0.99,0c0.33,0,0.66,0,0.99,0  c0.16,0.29,0.33,0.57,0.5,0.86c0.16,0.29,0.33,0.57,0.49,0.86c-0.16,0.29-0.33,0.57-0.49,0.86C70.47,300.23,70.3,300.52,70.14,300.8  L70.14,300.8z M70.39,313.71c-0.41,0-0.83,0-1.24,0c-0.41,0-0.83,0-1.24,0c-0.21-0.36-0.41-0.72-0.62-1.08  c-0.21-0.36-0.41-0.72-0.62-1.08c0.21-0.36,0.41-0.72,0.62-1.08c0.21-0.36,0.41-0.72,0.62-1.08c0.41,0,0.83,0,1.24,0  c0.41,0,0.83,0,1.24,0c0.21,0.36,0.41,0.72,0.62,1.08c0.21,0.36,0.41,0.72,0.62,1.08c-0.21,0.36-0.41,0.72-0.62,1.08  C70.81,313,70.6,313.35,70.39,313.71L70.39,313.71z M70.64,327.02c-0.5,0-1,0-1.49,0c-0.5,0-1,0-1.49,0  c-0.25-0.43-0.5-0.86-0.75-1.29c-0.25-0.43-0.5-0.86-0.75-1.29c0.25-0.43,0.5-0.86,0.75-1.29c0.25-0.43,0.5-0.86,0.75-1.29  c0.5,0,1,0,1.49,0c0.5,0,1,0,1.49,0c0.25,0.43,0.5,0.86,0.75,1.29c0.25,0.43,0.5,0.86,0.75,1.29c-0.25,0.43-0.5,0.86-0.75,1.29  C71.14,326.16,70.89,326.59,70.64,327.02L70.64,327.02z M70.89,340.76c-0.58,0-1.16,0-1.74,0c-0.58,0-1.16,0-1.75,0  c-0.29-0.5-0.58-1.01-0.87-1.51c-0.29-0.5-0.58-1.01-0.87-1.51c0.29-0.5,0.58-1.01,0.87-1.51c0.29-0.5,0.58-1.01,0.87-1.51  c0.58,0,1.16,0,1.75,0c0.58,0,1.16,0,1.74,0c0.29,0.5,0.58,1.01,0.87,1.51c0.29,0.5,0.58,1.01,0.87,1.51  c-0.29,0.5-0.58,1.01-0.87,1.51C71.48,339.75,71.19,340.26,70.89,340.76L70.89,340.76z M71.15,354.95c-0.67,0-1.33,0-2,0  c-0.67,0-1.33,0-2,0c-0.33-0.58-0.67-1.15-1-1.73c-0.33-0.58-0.67-1.15-1-1.73c0.33-0.58,0.67-1.15,1-1.73  c0.33-0.58,0.67-1.15,1-1.73c0.67,0,1.33,0,2,0c0.67,0,1.33,0,2,0c0.33,0.58,0.67,1.15,1,1.73c0.33,0.58,0.67,1.15,1,1.73  c-0.33,0.58-0.67,1.15-1,1.73C71.81,353.8,71.48,354.38,71.15,354.95L71.15,354.95z M71.4,369.64c-0.75,0-1.5,0-2.25,0  c-0.75,0-1.5,0-2.25,0c-0.37-0.65-0.75-1.3-1.12-1.95c-0.37-0.65-0.75-1.3-1.12-1.95c0.37-0.65,0.75-1.3,1.12-1.95  c0.37-0.65,0.75-1.3,1.12-1.95c0.75,0,1.5,0,2.25,0c0.75,0,1.5,0,2.25,0c0.37,0.65,0.75,1.3,1.12,1.95c0.37,0.65,0.75,1.3,1.12,1.95  c-0.37,0.65-0.75,1.3-1.12,1.95C72.15,368.34,71.77,368.99,71.4,369.64L71.4,369.64z M71.65,384.84c-0.83,0-1.67,0-2.5,0  c-0.83,0-1.67,0-2.5,0c-0.42-0.72-0.83-1.44-1.25-2.17c-0.42-0.72-0.83-1.44-1.25-2.17c0.42-0.72,0.83-1.44,1.25-2.17  c0.42-0.72,0.83-1.44,1.25-2.17c0.83,0,1.67,0,2.5,0c0.83,0,1.67,0,2.5,0c0.42,0.72,0.83,1.44,1.25,2.17  c0.42,0.72,0.83,1.44,1.25,2.17c-0.42,0.72-0.83,1.44-1.25,2.17C72.48,383.4,72.07,384.12,71.65,384.84L71.65,384.84z M71.9,400.62  c-0.92,0-1.83,0-2.75,0c-0.92,0-1.83,0-2.75,0c-0.46-0.79-0.92-1.59-1.38-2.38c-0.46-0.79-0.92-1.59-1.38-2.38  c0.46-0.79,0.92-1.59,1.38-2.38c0.46-0.79,0.92-1.59,1.38-2.38c0.92,0,1.83,0,2.75,0c0.92,0,1.83,0,2.75,0  c0.46,0.79,0.92,1.59,1.38,2.38c0.46,0.79,0.92,1.59,1.38,2.38c-0.46,0.79-0.92,1.59-1.38,2.38  C72.82,399.03,72.36,399.82,71.9,400.62L71.9,400.62z M72.15,417c-1,0-2,0-3,0c-1,0-2,0-3,0c-0.5-0.87-1-1.73-1.5-2.6  c-0.5-0.87-1-1.73-1.5-2.6c0.5-0.87,1-1.73,1.5-2.6c0.5-0.87,1-1.73,1.5-2.6c1,0,2,0,3,0c1,0,2,0,3,0c0.5,0.87,1,1.73,1.5,2.6  c0.5,0.87,1,1.73,1.5,2.6c-0.5,0.87-1,1.73-1.5,2.6C73.15,415.26,72.65,416.13,72.15,417L72.15,417z M72.41,434.04  c-1.09,0-2.17,0-3.26,0c-1.09,0-2.17,0-3.26,0c-0.54-0.94-1.09-1.88-1.63-2.82c-0.54-0.94-1.09-1.88-1.63-2.82  c0.54-0.94,1.09-1.88,1.63-2.82c0.54-0.94,1.09-1.88,1.63-2.82c1.08,0,2.17,0,3.26,0c1.08,0,2.17,0,3.26,0  c0.54,0.94,1.08,1.88,1.63,2.82c0.54,0.94,1.09,1.88,1.63,2.82c-0.54,0.94-1.09,1.88-1.63,2.82  C73.49,432.16,72.95,433.1,72.41,434.04L72.41,434.04z M72.66,451.8c-1.17,0-2.34,0-3.51,0c-1.17,0-2.34,0-3.51,0  c-0.58-1.01-1.17-2.02-1.75-3.04c-0.58-1.01-1.17-2.02-1.75-3.04c0.58-1.01,1.17-2.03,1.75-3.04c0.58-1.01,1.17-2.02,1.75-3.04  c1.17,0,2.34,0,3.51,0c1.17,0,2.34,0,3.51,0c0.58,1.01,1.17,2.02,1.75,3.04c0.58,1.01,1.17,2.02,1.75,3.04  c-0.58,1.01-1.17,2.02-1.75,3.04C73.83,449.78,73.24,450.79,72.66,451.8L72.66,451.8z M72.91,470.35c0.63-1.09,1.25-2.17,1.88-3.25  c0.63-1.09,1.25-2.17,1.88-3.26c-0.63-1.09-1.25-2.17-1.88-3.25c-0.63-1.09-1.25-2.17-1.88-3.25c-1.25,0-2.51,0-3.76,0  c-1.25,0-2.51,0-3.76,0c-0.63,1.08-1.25,2.17-1.88,3.25c-0.63,1.08-1.25,2.17-1.88,3.26c0.63,1.09,1.25,2.17,1.88,3.26  c0.63,1.08,1.25,2.17,1.88,3.25c1.25,0,2.51,0,3.76,0C70.4,470.35,71.66,470.35,72.91,470.35L72.91,470.35z M73.16,489.75  c0.67-1.16,1.34-2.32,2.01-3.47c0.67-1.16,1.34-2.32,2-3.47c-0.67-1.16-1.34-2.32-2-3.47c-0.67-1.16-1.34-2.32-2.01-3.47  c-1.34,0-2.67,0-4.01,0c-1.34,0-2.67,0-4.01,0c-0.67,1.16-1.34,2.32-2.01,3.47c-0.67,1.16-1.34,2.32-2.01,3.47  c0.67,1.16,1.34,2.32,2.01,3.47c0.67,1.16,1.34,2.32,2,3.47c1.34,0,2.67,0,4.01,0C70.49,489.75,71.82,489.75,73.16,489.75  L73.16,489.75z M73.41,510.09c0.71-1.23,1.42-2.46,2.13-3.69c0.71-1.23,1.42-2.46,2.13-3.69c-0.71-1.23-1.42-2.46-2.13-3.69  c-0.71-1.23-1.42-2.46-2.13-3.69c-1.42,0-2.84,0-4.26,0c-1.42,0-2.84,0-4.26,0c-0.71,1.23-1.42,2.46-2.13,3.69l-1.99,3.44l0.02,0.53  l1.97,3.41c0.71,1.23,1.42,2.46,2.13,3.69c1.42,0,2.84,0,4.26,0C70.57,510.09,71.99,510.09,73.41,510.09L73.41,510.09z M61.59,526.2  c4.79,0.43,9.6,0.84,14.4,1.23l2.18-3.78l-2.26-3.91l-2.26-3.91h-4.51h-4.51l-2.26,3.91l-1.02,1.77c0.04,1.5,0.08,3,0.12,4.49  L61.59,526.2z"/>
<g id="图层_x0020_1">
	<path fill="#F08300" d="M157.52,54.64c0.416,1.136,1.472,1.984,2.752,2.032c0.144,0,0.304,0,0.448-0.016h0.016   c0.016,0,0.064,0,0.128-0.016c0.032,0,0.048-0.016,0.08-0.016c0.064-0.016,0.144-0.032,0.224-0.048c0.016,0,0.016,0,0.032,0   c0.192-0.048,0.4-0.112,0.576-0.208c0.192-0.096,0.4-0.224,0.608-0.384c0.672-0.56,1.104-1.408,1.104-2.352   c0-0.224-0.032-0.448-0.08-0.672l0,0C163.36,52.76,163.31,52.59,163.23,52.41C162.76,51.32,161.68,50.56,160.41,50.56C158.72,50.56,157.34,51.93,157.34,53.63C157.34,53.98,157.4,54.32,157.52,54.64L157.52,54.64L157.52,54.64z M161.82,53.66L161.82,53.66C161.79,54.44,161.13,55.04,160.35,55C159.56,54.97,158.97,54.32,159,53.53c0.032-0.784,0.688-1.376,1.472-1.344   C161.24,52.22,161.85,52.89,161.82,53.66L161.82,53.66z"/>
	<polygon fill="#F08300" points="175.85,51.24 ,175.21,52.83 ,173.77,52.83 ,172.35,56.38 ,170.4,56.38 ,171.8,52.83 ,170.22,52.83    ,170.86,51.24"/>
	<path fill="#F08300" d="M177.82,46.51c-1.008-0.096-3.024-0.144-5.056,0.112c-2.416,0.304-5.152,0.912-7.616,1.664   C163.1,48.89,161.23,49.61,159.88,50.38C160.08,50.35,160.27,50.33,160.46,50.33c0.48,0,0.944,0.112,1.36,0.288   C165.92,48.3,173.12,46.25,177.82,46.51L177.82,46.51L177.82,46.51z"/>
	<path fill="#F08300" d="M163.29,51.98c4-2.368,8.88-4.672,13.488-5.248c-4.608,0.288-10.224,2-14.288,4.304   C162.81,51.29,163.08,51.61,163.29,51.98C163.29,51.98,163.29,51.98,163.29,51.98z"/>
	<polygon fill="#F08300" points="181.34,51.24 ,180.72,52.83 ,179.26,52.83 ,177.85,56.38 ,177.39,56.38 ,175.88,56.38 ,174.19,56.38    ,174.78,54.88 ,176.49,54.88 ,177.31,52.83 ,175.72,52.83 ,176.36,51.24"/>
	<polygon fill="#F08300" points="170.43,51.24 ,169.79,52.83 ,167.5,54.94 ,169.76,54.94 ,169.18,56.38 ,163.69,56.38 ,167.36,52.83    ,164.78,52.83 ,165.42,51.24"/>
	<path fill="#F08300" d="M175.71,47.1c-3.376,0.752-6.464,2.192-9.424,3.952h1.888C170.6,49.48,172.94,48.05,175.71,47.1z    M164.91,51.92C164.28,52.3,164.22,52.35,163.61,52.76c0.064,0.256,0.112,0.544,0.112,0.816c0,0.496-0.112,0.976-0.32,1.392   c0.176-0.16,0.32-0.304,0.432-0.4c0.272-0.24,0.768-0.64,1.6-1.296l0.32-0.256H164.43l0,0L164.91,51.92L164.91,51.92L164.91,51.92z"/>
</g>
</svg>