<?xml version="1.0" encoding="utf-8"?>
<!-- Generator: Adobe Illustrator 16.0.0, SVG Export Plug-In . SVG Version: 6.00 Build 0)  -->
<!DOCTYPE svg PUBLIC "-//W3C//DTD SVG 1.1//EN" "http://www.w3.org/Graphics/SVG/1.1/DTD/svg11.dtd">
<svg xmlns="http://www.w3.org/2000/svg" xmlns:xlink="http://www.w3.org/1999/xlink" version="1.1" id="图层_1" x="0px" y="0px" width="339.96px" height="531.8px" viewBox="-1.09 -0.15 339.96 531.8" enable-background="new -1.09 -0.15 339.96 531.8" xml:space="preserve">
<g>
	<path fill="#FFFFFF" stroke="#DCDDDD" stroke-width="0.2999" stroke-miterlimit="22.9256" d="M168.95,531.49   c57.56-0.83,113.7-4.88,168.62-11.86l0.14-317.58c-54.71-20.78-82.93-77.26-72.43-185.9h0.02c-10.68-2-19.8-4.62-31.02-9.67   c17.85,154.04-148.56,154.04-130.71,0c-11.22,5.04-20.33,7.67-31.02,9.67h0.02c10.5,108.63-17.72,165.1-72.43,185.89l0.14,317.58   C54.76,526.55,114.06,531.49,168.95,531.49z"/>
	<path fill="#0039A6" d="M73.44,233.73c8.85-21.17,16.88-39.1,16.88-50.13c0-19.47-18.85-40.82-26.71-48.86   c-0.01-0.01-0.02-0.02-0.03-0.03c-12.17,34.52-33.94,56.1-63.41,67.32l-0.02,0.03l0.03,61.11   C16.24,263.15,40.97,247.7,73.44,233.73z"/>
	<path fill="#0039A6" d="M247.54,183.6c0,11.04,8.03,28.96,16.88,50.13c32.47,13.97,57.21,29.42,73.27,29.42l0.03-61.11   c-0.01,0-0.02-0.01-0.03-0.01v0.01c-29.49-11.21-51.28-32.77-63.46-67.29C266.36,142.82,247.54,164.15,247.54,183.6z"/>
	<path fill="#0039A6" d="M72.57,16.16c1.12,11.67,1.8,22.72,2.06,33.21l28.23-5.99c-1.01-11.12-0.86-23.4,0.7-36.88   C92.34,11.54,83.24,14.16,72.57,16.16z"/>
	<path fill="#0039A6" d="M234.28,6.49c1.56,13.48,1.71,25.76,0.7,36.88l28.22,5.99c0.25-10.48,0.93-21.54,2.06-33.2h0.03   C254.62,14.15,245.49,11.53,234.28,6.49z"/>
	<path fill="#DCDDDD" d="M168.9,31.06c26.54-0.42,43.06-6.71,53.46-14.5c0.02-0.06,0.03-0.12,0.05-0.18   c1.15,124.1-108.17,124.1-107.02,0c0.02,0.06,0.03,0.12,0.05,0.18C125.85,24.35,142.37,30.64,168.9,31.06z"/>
	<path fill="none" stroke="#DCDDDD" stroke-width="0.1621" stroke-miterlimit="22.9256" d="M168.9,31.06   c26.53-0.42,43.06-6.71,53.46-14.5c0.02-0.06,0.03-0.12,0.05-0.18c1.15,124.1-108.17,124.1-107.02,0c0.02,0.06,0.03,0.12,0.05,0.18   C125.85,24.35,142.36,30.64,168.9,31.06z"/>
	<path fill="#08A6C3" stroke="#DCDDDD" stroke-width="0.2999" stroke-miterlimit="22.9256" d="M0.1,202.04   c54.71-20.78,82.93-77.26,72.43-185.9l-12.74,2.07c6.32,97.7-12.05,147.57-60.72,170.32L0.1,202.04z"/>
	<path fill="#08A6C2" stroke="#DCDDDD" stroke-width="0.2999" stroke-miterlimit="22.9256" d="M116.21,0.17   c-13.02,145.02,118.4,145.02,105.39,0l12.66,6.31c17.85,154.04-148.56,154.04-130.71,0L116.21,0.17z"/>
	<path fill="#08A6C2" stroke="#DCDDDD" stroke-width="0.2999" stroke-miterlimit="22.9256" d="M116.21,0.17   c14.87,14.31,33.03,18.75,52.69,18.7c19.66,0.05,37.82-4.4,52.69-18.7c0.5,5.63,0.77,11.02,0.82,16.19   c-0.02,0.06-0.03,0.13-0.05,0.19c-10.4,7.8-26.92,14.07-53.46,14.5c-26.54-0.42-43.06-6.71-53.47-14.5   c-0.02-0.06-0.03-0.13-0.05-0.19C115.44,11.19,115.7,5.8,116.21,0.17z"/>
	<path fill="#08A6C3" stroke="#DCDDDD" stroke-width="0.2999" stroke-miterlimit="22.9256" d="M337.69,202.04   c-54.71-20.78-82.93-77.26-72.43-185.9L278,18.22c-6.32,97.7,12.05,147.57,60.72,170.32L337.69,202.04z"/>
	
	<path fill="#08A6C1" d="M50.46,319.75c0-29.09,12.11-60.01,22.98-86.02c-32.47,13.97-57.21,29.42-73.27,29.42l0.11,256.47   c20.52,2.61,41.7,4.93,63.09,6.82c1.36-13.57,2.28-27.36,2.28-40.1C65.65,381.08,50.46,372.54,50.46,319.75z"/>
	<path fill="#08A6C1" d="M287.43,319.75c0-29.09-12.11-60.01-22.98-86.02c32.47,13.97,57.21,29.42,73.27,29.42l-0.11,256.47   c-20.52,2.61-41.7,4.93-63.09,6.82c-1.36-13.57-2.28-27.36-2.28-40.1C272.24,381.08,287.43,372.54,287.43,319.75z"/>
</g>
<g id="图层_x0020_1">
	<path fill="#F08300" d="M157.08,54.81c0.416,1.136,1.472,1.984,2.752,2.032c0.144,0,0.304,0,0.448-0.016h0.016   c0.016,0,0.064,0,0.128-0.016c0.032,0,0.048-0.016,0.08-0.016c0.064-0.016,0.144-0.032,0.224-0.048c0.016,0,0.016,0,0.032,0   c0.192-0.048,0.4-0.112,0.576-0.208c0.192-0.096,0.4-0.224,0.608-0.384c0.672-0.56,1.104-1.408,1.104-2.352   c0-0.224-0.032-0.448-0.08-0.672l0,0C162.92,52.93,162.87,52.76,162.79,52.58C162.32,51.49,161.24,50.73,159.97,50.73C158.28,50.73,156.9,52.1,156.9,53.8C156.9,54.15,156.96,54.49,157.08,54.81L157.08,54.81L157.08,54.81z M161.38,53.83L161.38,53.83C161.35,54.61,160.69,55.21,159.91,55.17C159.12,55.14,158.53,54.49,158.56,53.7c0.032-0.784,0.688-1.376,1.472-1.344   C160.8,52.39,161.41,53.06,161.38,53.83L161.38,53.83z"/>
	<polygon fill="#F08300" points="175.41,51.41 ,174.77,53 ,173.33,53 ,171.91,56.55 ,169.96,56.55 ,171.36,53 ,169.78,53    ,170.42,51.41"/>
	<path fill="#F08300" d="M177.38,46.68c-1.008-0.096-3.024-0.144-5.056,0.112c-2.416,0.304-5.152,0.912-7.616,1.664   C162.66,49.06,160.79,49.78,159.44,50.55C159.64,50.52,159.83,50.5,160.02,50.5c0.48,0,0.944,0.112,1.36,0.288   C165.48,48.47,172.68,46.42,177.38,46.68L177.38,46.68L177.38,46.68z"/>
	<path fill="#F08300" d="M162.85,52.15c4-2.368,8.88-4.672,13.488-5.248c-4.608,0.288-10.224,2-14.288,4.304   C162.37,51.46,162.64,51.78,162.85,52.15C162.85,52.15,162.85,52.15,162.85,52.15z"/>
	<polygon fill="#F08300" points="180.9,51.41 ,180.28,53 ,178.82,53 ,177.41,56.55 ,176.95,56.55 ,175.44,56.55 ,173.75,56.55    ,174.34,55.05 ,176.05,55.05 ,176.87,53 ,175.28,53 ,175.92,51.41"/>
	<polygon fill="#F08300" points="169.99,51.41 ,169.35,53 ,167.06,55.11 ,169.32,55.11 ,168.74,56.55 ,163.25,56.55 ,166.92,53    ,164.34,53 ,164.98,51.41"/>
	<path fill="#F08300" d="M175.27,47.27c-3.376,0.752-6.464,2.192-9.424,3.952h1.888C170.16,49.65,172.5,48.22,175.27,47.27z    M164.47,52.09C163.84,52.47,163.78,52.52,163.17,52.93c0.064,0.256,0.112,0.544,0.112,0.816c0,0.496-0.112,0.976-0.32,1.392   c0.176-0.16,0.32-0.304,0.432-0.4c0.272-0.24,0.768-0.64,1.6-1.296l0.32-0.256H163.99l0,0L164.47,52.09L164.47,52.09L164.47,52.09z"/>
</g>
</svg>