<?xml version="1.0" encoding="utf-8"?>
<!-- Generator: Adobe Illustrator 22.0.0, SVG Export Plug-In . SVG Version: 6.00 Build 0)  -->
<svg xmlns="http://www.w3.org/2000/svg" xmlns:xlink="http://www.w3.org/1999/xlink" version="1.1" id="图层_1" x="0px" y="0px" width="338.76px" height="531.46px" viewBox="0 0 338.76 531.46" enable-background="new 0 0 338.76 531.46" xml:space="preserve">
<path fill-rule="evenodd" clip-rule="evenodd" fill="#0072CF" stroke="#DCDDDD" stroke-width="0.2999" stroke-miterlimit="22.9256" d="  M169.44,531.49c57.4-0.83,113.39-4.88,168.16-11.86l0.14-317.69c-54.56-20.79-82.7-77.29-72.23-185.96l0.02,0  c-10.65-2-19.75-4.62-30.94-9.67c17.8,154.09-148.15,154.09-130.35,0c-11.19,5.04-20.28,7.67-30.94,9.67l0.02,0  C83.79,124.65,55.65,181.15,1.09,201.94l0.14,317.69C55.56,526.55,114.7,531.49,169.44,531.49z"/>
<path fill-rule="evenodd" clip-rule="evenodd" fill="#DCDDDD" d="M169.39,30.9c26.47-0.42,42.94-6.71,53.31-14.51  c0.02-0.06,0.03-0.12,0.05-0.18c1.15,124.14-107.87,124.14-106.73,0c0.02,0.06,0.03,0.12,0.05,0.18  C126.45,24.19,142.93,30.48,169.39,30.9z"/>
<path fill-rule="evenodd" clip-rule="evenodd" fill="none" stroke="#DCDDDD" stroke-width="0.1621" stroke-miterlimit="22.9256" d="  M169.39,30.89c26.46-0.42,42.94-6.71,53.31-14.5c0.02-0.06,0.03-0.12,0.05-0.18c1.15,124.14-107.87,124.14-106.73,0  c0.02,0.06,0.03,0.12,0.05,0.18C126.44,24.19,142.92,30.48,169.39,30.89z"/>
<path fill-rule="evenodd" clip-rule="evenodd" fill="#0039A7" stroke="#DCDDDD" stroke-width="0.2999" stroke-miterlimit="22.9256" d="  M1.05,201.94c54.56-20.79,82.7-77.29,72.23-185.96l-12.71,2.07c6.3,97.73-12.02,147.62-60.55,170.38L1.05,201.94z"/>
<path fill-rule="evenodd" clip-rule="evenodd" fill="#0039A8" stroke="#DCDDDD" stroke-width="0.2999" stroke-miterlimit="22.9256" d="  M116.84,0c-12.98,145.07,118.08,145.07,105.1,0l12.63,6.31c17.8,154.09-148.15,154.09-130.35,0L116.84,0z"/>
<path fill-rule="evenodd" clip-rule="evenodd" fill="#0039A8" stroke="#DCDDDD" stroke-width="0.2999" stroke-miterlimit="22.9256" d="  M116.84,0c14.83,14.31,32.94,18.76,52.55,18.71C189,18.75,207.11,14.3,221.94,0c0.5,5.63,0.77,11.02,0.82,16.2  c-0.02,0.06-0.03,0.13-0.05,0.19c-10.37,7.8-26.85,14.08-53.31,14.5c-26.47-0.42-42.94-6.71-53.32-14.5  c-0.02-0.06-0.03-0.13-0.05-0.19C116.07,11.02,116.33,5.62,116.84,0z"/>
<path fill-rule="evenodd" clip-rule="evenodd" fill="#0039A7" stroke="#DCDDDD" stroke-width="0.2999" stroke-miterlimit="22.9256" d="  M337.71,201.94c-54.56-20.79-82.7-77.29-72.23-185.96l12.71,2.07c-6.3,97.73,12.02,147.62,60.55,170.38L337.71,201.94z"/>

<path fill-rule="evenodd" clip-rule="evenodd" fill="#0039A6" d="M215.94,194.56c-15.59,15.15-31.17,30.47-46.76,45.91  c-15.59-15.54-31.17-30.85-46.7-45.98c-30.33-3.46-60.66-6.91-90.96-10.35c1.63-1.37,3.21-2.8,4.75-4.28l88.64,9.88  c14.76,14.32,29.51,28.8,44.27,43.5c14.76-14.61,29.51-29.09,44.32-43.41c29.68-3.33,59.37-6.65,89.05-9.97  c1.55,1.49,3.14,2.92,4.78,4.3C276.88,187.64,246.39,191.09,215.94,194.56z"/>
<path fill-rule="evenodd" clip-rule="evenodd" fill="#0039A6" d="M211.07,185.06c-13.98,13.55-27.96,27.23-41.89,40.97  c-13.98-13.84-27.91-27.48-41.84-41.03c-28.93-3.14-57.89-6.32-86.8-9.49c1.31-1.42,2.58-2.89,3.82-4.41  c28.45,3.05,56.94,6.11,85.42,9.17c13.1,12.68,26.25,25.52,39.4,38.53c13.15-12.91,26.31-25.75,39.46-38.46  c28.61-3.08,57.23-6.15,85.84-9.22c1.24,1.52,2.51,2.99,3.82,4.41C269.23,178.71,240.13,181.87,211.07,185.06z"/>
<path fill-rule="evenodd" clip-rule="evenodd" fill="#0039A6" d="M206.21,175.55c-12.38,11.91-24.7,23.95-37.03,36.02  c-12.32-12.14-24.65-24.18-36.97-36.09c-28.14-2.95-56.27-5.89-84.41-8.85c1.09-1.48,2.14-3.01,3.17-4.57  c27.87,2.87,55.77,5.77,83.67,8.64c11.5,11.11,22.99,22.31,34.54,33.65c11.5-11.24,23.05-22.44,34.6-33.61  c28.02-2.88,56.07-5.76,84.1-8.64c1.02,1.55,2.07,3.07,3.15,4.54C262.75,169.61,234.48,172.6,206.21,175.55z"/>
<path fill-rule="evenodd" clip-rule="evenodd" fill="#0039A6" d="M220.8,204c-17.24,16.79-34.43,33.81-51.62,50.89  c-17.19-17.18-34.38-34.19-51.56-50.92c-32.52-3.87-64.99-7.71-97.46-11.54c2.07-1.3,4.09-2.67,6.06-4.11  c31.25,3.62,62.56,7.25,93.83,10.9c16.36,15.92,32.72,32.07,49.13,48.48c16.36-16.31,32.77-32.46,49.19-48.42  c31.39-3.64,62.87-7.28,94.28-10.93c1.96,1.43,3.96,2.79,6.02,4.08C286.04,196.29,253.42,200.17,220.8,204z"/>
<path fill-rule="evenodd" clip-rule="evenodd" fill="#FFFFFF" d="M169.18,204.35c11.5-11.24,23.05-22.44,34.6-33.61l84.01-8.63  c-20.4-31.19-28.81-78.58-22.3-146.13l0.03,0c-10.64-2-19.74-4.62-30.92-9.66c9.57,82.83-33.96,121.13-73.5,114.91  c-0.09-0.01-0.19-0.03-0.28-0.05c-33.92-5.5-64.81-43.79-56.6-114.86c-11.17,5.03-20.26,7.65-30.9,9.66  c6.51,67.53-1.89,114.91-22.28,146.1c27.85,2.87,55.72,5.76,83.6,8.63C146.14,181.82,157.63,193.02,169.18,204.35z"/>
<g id="图层_x0020_1">
	<path fill="#F08300" d="M157.56,54.66c0.416,1.136,1.472,1.984,2.752,2.032c0.144,0,0.304,0,0.448-0.016h0.016   c0.016,0,0.064,0,0.128-0.016c0.032,0,0.048-0.016,0.08-0.016c0.064-0.016,0.144-0.032,0.224-0.048c0.016,0,0.016,0,0.032,0   c0.192-0.048,0.4-0.112,0.576-0.208c0.192-0.096,0.4-0.224,0.608-0.384c0.672-0.56,1.104-1.408,1.104-2.352   c0-0.224-0.032-0.448-0.08-0.672l0,0C163.4,52.78,163.35,52.61,163.27,52.43C162.8,51.34,161.72,50.58,160.45,50.58C158.76,50.58,157.38,51.95,157.38,53.65C157.38,54,157.44,54.34,157.56,54.66L157.56,54.66L157.56,54.66z M161.86,53.68L161.86,53.68C161.83,54.46,161.17,55.06,160.39,55.02C159.6,54.99,159.01,54.34,159.04,53.55c0.032-0.784,0.688-1.376,1.472-1.344   C161.28,52.24,161.89,52.91,161.86,53.68L161.86,53.68z"/>
	<polygon fill="#F08300" points="175.89,51.26 ,175.25,52.85 ,173.81,52.85 ,172.39,56.4 ,170.44,56.4 ,171.84,52.85 ,170.26,52.85    ,170.9,51.26"/>
	<path fill="#F08300" d="M177.86,46.53c-1.008-0.096-3.024-0.144-5.056,0.112c-2.416,0.304-5.152,0.912-7.616,1.664   C163.14,48.91,161.27,49.63,159.92,50.4C160.12,50.37,160.31,50.35,160.5,50.35c0.48,0,0.944,0.112,1.36,0.288   C165.96,48.32,173.16,46.27,177.86,46.53L177.86,46.53L177.86,46.53z"/>
	<path fill="#F08300" d="M163.33,52c4-2.368,8.88-4.672,13.488-5.248c-4.608,0.288-10.224,2-14.288,4.304   C162.85,51.31,163.12,51.63,163.33,52C163.33,52,163.33,52,163.33,52z"/>
	<polygon fill="#F08300" points="181.38,51.26 ,180.76,52.85 ,179.3,52.85 ,177.89,56.4 ,177.43,56.4 ,175.92,56.4 ,174.23,56.4    ,174.82,54.9 ,176.53,54.9 ,177.35,52.85 ,175.76,52.85 ,176.4,51.26"/>
	<polygon fill="#F08300" points="170.47,51.26 ,169.83,52.85 ,167.54,54.96 ,169.8,54.96 ,169.22,56.4 ,163.73,56.4 ,167.4,52.85    ,164.82,52.85 ,165.46,51.26"/>
	<path fill="#F08300" d="M175.75,47.12c-3.376,0.752-6.464,2.192-9.424,3.952h1.888C170.64,49.5,172.98,48.07,175.75,47.12z    M164.95,51.94C164.32,52.32,164.26,52.37,163.65,52.78c0.064,0.256,0.112,0.544,0.112,0.816c0,0.496-0.112,0.976-0.32,1.392   c0.176-0.16,0.32-0.304,0.432-0.4c0.272-0.24,0.768-0.64,1.6-1.296l0.32-0.256H164.47l0,0L164.95,51.94L164.95,51.94L164.95,51.94z"/>
</g>
</svg>