<?xml version="1.0" encoding="utf-8"?>
<!-- Generator: Adobe Illustrator 22.0.0, SVG Export Plug-In . SVG Version: 6.00 Build 0)  -->
<svg xmlns="http://www.w3.org/2000/svg" xmlns:xlink="http://www.w3.org/1999/xlink" version="1.1" id="图层_1" x="0px" y="0px" width="338.74px" height="531.5px" viewBox="0 0 338.74 531.5" enable-background="new 0 0 338.74 531.5" xml:space="preserve">
<path fill-rule="evenodd" clip-rule="evenodd" fill="#CCCCCC" stroke="#DCDDDD" stroke-width="0.2999" stroke-miterlimit="22.9256" d="  M169.43,531.46c57.4-0.83,113.39-4.88,168.16-11.86l0.14-317.69c-54.56-20.79-82.7-77.29-72.23-185.96l0.02,0  c-10.65-2-19.75-4.62-30.94-9.67c17.8,154.09-148.15,154.09-130.35,0c-11.19,5.04-20.28,7.67-30.94,9.67l0.02,0  C83.78,124.62,55.64,181.12,1.08,201.91L1.22,519.6C55.55,526.52,114.69,531.46,169.43,531.46z"/>
<path fill-rule="evenodd" clip-rule="evenodd" fill="#DCDDDD" d="M169.38,30.86c26.47-0.42,42.94-6.71,53.31-14.51  c0.02-0.06,0.03-0.12,0.05-0.18c1.15,124.14-107.87,124.14-106.73,0c0.02,0.06,0.03,0.12,0.05,0.18  C126.44,24.16,142.92,30.44,169.38,30.86z"/>
<path fill-rule="evenodd" clip-rule="evenodd" fill="none" stroke="#DCDDDD" stroke-width="0.1621" stroke-miterlimit="22.9256" d="  M169.38,30.86c26.46-0.42,42.94-6.71,53.31-14.5c0.02-0.06,0.03-0.12,0.05-0.18c1.15,124.14-107.87,124.14-106.73,0  c0.02,0.06,0.03,0.12,0.05,0.18C126.44,24.16,142.91,30.44,169.38,30.86z"/>
<path fill-rule="evenodd" clip-rule="evenodd" fill="#152E52" stroke="#DCDDDD" stroke-width="0.3" stroke-miterlimit="22.9256" d="  M1.04,201.91c54.56-20.79,82.7-77.29,72.23-185.96l-12.71,2.07C66.86,115.75,48.53,165.64,0,188.4L1.04,201.91z"/>
<path fill-rule="evenodd" clip-rule="evenodd" fill="#152E53" stroke="#DCDDDD" stroke-width="0.3" stroke-miterlimit="22.9256" d="  M116.83-0.03c-12.98,145.07,118.08,145.07,105.1,0l12.63,6.31c17.8,154.09-148.15,154.09-130.35,0L116.83-0.03z"/>
<path fill-rule="evenodd" clip-rule="evenodd" fill="#152E53" stroke="#DCDDDD" stroke-width="0.3" stroke-miterlimit="22.9256" d="  M116.83-0.03c14.83,14.31,32.94,18.76,52.55,18.71c19.61,0.05,37.72-4.4,52.55-18.71c0.5,5.63,0.77,11.02,0.82,16.2  c-0.02,0.06-0.03,0.13-0.05,0.19c-10.37,7.8-26.85,14.08-53.31,14.5c-26.47-0.42-42.94-6.71-53.32-14.5  c-0.02-0.06-0.03-0.13-0.05-0.19C116.06,10.99,116.32,5.59,116.83-0.03z"/>
<path fill-rule="evenodd" clip-rule="evenodd" fill="#152E52" stroke="#DCDDDD" stroke-width="0.3" stroke-miterlimit="22.9256" d="  M337.7,201.91c-54.56-20.79-82.7-77.29-72.23-185.96l12.71,2.07c-6.3,97.73,12.02,147.62,60.55,170.38L337.7,201.91z"/>

<path fill-rule="evenodd" clip-rule="evenodd" fill="#CC0000" d="M335.43,401.07c-45.87,0-58.32,42.59-115.33,42.59  c-16.63,0-22.28-4.59-22.28-4.59s37.84-8.68,62.41-41.45c24.57-32.76,56.35-56.35,77.32-56.35v59.79H335.43z"/>
<path fill-rule="evenodd" clip-rule="evenodd" fill="#152E51" d="M170.99,269.41c52.25-39.15,102.15-68.79,134.63-86.68  c9.32,8.21,20.05,14.52,32.05,19.09l-0.14,317.77c-54.3,6.93-113.42,11.86-168.14,11.87c-0.02,0-0.03,0-0.05,0  c-57.4-0.83-113.38-4.88-168.14-11.87l-0.02-34.61c6.59-5.43,13.37-10.69,20.04-15.74c23.92-18.11,49.64-35.12,76.45-48.62  c24.87-12.53,55.14-24.2,83.34-24.2c46.33,0,85.97-17.53,110.93-57.39c7.57-12.09,13.28-25.5,17.07-39.25  c1.6-5.79,3.14-12.43,3.75-18.44c0.62-6.1,0.67-15.39-0.1-21.74c-2.67,6.65-6.49,12.33-10.71,16.77  c-12.58,13.22-26.21,26.16-41.21,36.62c-11.17,7.79-22.69,13.8-35.49,18.46c-12.96,4.72-26.53,7.91-39.93,11.1  c-17.71,4.2-35.19,8.47-52.63,13.72c-5.83,1.75-11.57,3.81-17.22,6.13c4.21-2.11,8.5-4.07,12.87-5.85  c40.23-16.4,89.57-41.59,117.37-76.29c6.4-7.99,12.18-17.18,15.49-26.92c1.18-3.48,2.41-8.12,2.44-11.85  c1.01-6.69,0.85-18.1-1.52-25.02c-1.89,7.1-6.08,15.84-9.94,21.39c-4.73,6.8-14.3,12.52-21.6,16.02  c-15.07,7.23-32.49,11.32-48.97,13.61C178.04,267.99,174.5,268.64,170.99,269.41L170.99,269.41z M337.56,341.28  c-20.97,0-52.75,23.59-77.32,56.35c-24.57,32.76-62.41,41.45-62.41,41.45s5.65,4.59,22.28,4.59c57.01,0,69.46-42.59,115.33-42.59  h2.13V341.28z"/>
<path fill-rule="evenodd" clip-rule="evenodd" fill="#FFFFFF" d="M301.93,276.37c4.23-4.44,8.04-10.11,10.71-16.77  c0.77,6.35,0.72,15.64,0.1,21.74c-0.61,6.01-2.16,12.65-3.75,18.44c-3.79,13.75-9.49,27.16-17.07,39.25  c-24.95,39.86-64.59,57.39-110.93,57.39c-28.2,0-58.47,11.67-83.34,24.2c-26.81,13.5-52.53,30.51-76.45,48.62  c-6.67,5.05-13.45,10.31-20.04,15.74l0-8.01c34.58-27.95,115.12-86.84,179.83-86.84c114.34,0,125.48-109.43,125.48-109.43  c-63.89,67.17-91.41,57.34-172.01,81.58C67.09,382.56,16.08,443.72,1.17,463.22l0-10.08C16.24,434.08,66.35,375,125.94,350.72  C257,297.31,257.33,241.45,257.33,241.45c-7.86,11.3-31.29,26.21-74.86,32.27s-91.9,38.17-91.9,38.17  c17.2-41.28,56.85-59.63,56.85-59.63c-71.54,0-131.53,123.25-146.26,156.15l-0.01-15.06c2.3-4.77,4.67-9.49,7.05-14.12  c12.41-24.18,26.69-48.13,43.21-69.73c22.44-29.33,56.31-63.53,96.01-63.53c8.9,0,15.91,0.9,27.1,3.44  c-8.64,1.89-19.31,5.47-24.46,8.56c-6.57,3.94-14.88,8.8-20.77,13.57c-8.31,6.72-15.77,14.47-21.95,23.13l1.23-0.66  c15.47-8.33,31.94-15.78,48.74-20.96c4.5-1.39,9.08-2.62,13.69-3.64c3.51-0.77,7.05-1.42,10.6-1.92  c16.48-2.29,33.9-6.38,48.97-13.61c7.29-3.5,16.87-9.23,21.6-16.02c3.86-5.55,8.04-14.29,9.94-21.39  c2.37,6.92,2.53,18.33,1.52,25.02c-0.02,3.73-1.25,8.37-2.44,11.85c-3.32,9.74-9.09,18.93-15.49,26.92  c-27.8,34.7-77.14,59.89-117.37,76.29c-4.36,1.78-8.65,3.74-12.87,5.85c5.65-2.32,11.39-4.38,17.22-6.13  c17.44-5.25,34.93-9.52,52.63-13.72c13.4-3.18,26.97-6.38,39.93-11.1c12.8-4.65,24.32-10.67,35.49-18.46  C275.72,302.53,289.35,289.6,301.93,276.37z"/>
<path fill-rule="evenodd" clip-rule="evenodd" fill="#CC0000" d="M257.33,241.45c0,0-0.33,55.86-131.38,109.27  C66.35,375,16.24,434.08,1.16,453.14l-0.02-44.72c14.74-32.9,74.72-156.15,146.26-156.15c0,0-39.64,18.35-56.85,59.63  c0,0,48.33-32.11,91.9-38.17S249.46,252.76,257.33,241.45z"/>
<path fill-rule="evenodd" clip-rule="evenodd" fill="#CC0000" d="M134.48,362.29c80.6-24.24,108.12-14.42,172.01-81.58  c0,0-11.14,109.43-125.48,109.43c-64.71,0-145.25,58.88-179.83,86.84l-0.01-13.75C16.08,443.72,67.09,382.56,134.48,362.29z"/>
<g id="图层_x0020_1">
	<path fill="#F08300" d="M157.55,54.63c0.416,1.136,1.472,1.984,2.752,2.032c0.144,0,0.304,0,0.448-0.016h0.016   c0.016,0,0.064,0,0.128-0.016c0.032,0,0.048-0.016,0.08-0.016c0.064-0.016,0.144-0.032,0.224-0.048c0.016,0,0.016,0,0.032,0   c0.192-0.048,0.4-0.112,0.576-0.208c0.192-0.096,0.4-0.224,0.608-0.384c0.672-0.56,1.104-1.408,1.104-2.352   c0-0.224-0.032-0.448-0.08-0.672l0,0C163.39,52.75,163.34,52.58,163.26,52.4C162.79,51.31,161.71,50.55,160.44,50.55C158.75,50.55,157.37,51.92,157.37,53.62C157.37,53.97,157.43,54.31,157.55,54.63L157.55,54.63L157.55,54.63z M161.85,53.65L161.85,53.65C161.82,54.43,161.16,55.03,160.38,54.99C159.59,54.96,159,54.31,159.03,53.52c0.032-0.784,0.688-1.376,1.472-1.344   C161.27,52.21,161.88,52.88,161.85,53.65L161.85,53.65z"/>
	<polygon fill="#F08300" points="175.88,51.23 ,175.24,52.82 ,173.8,52.82 ,172.38,56.37 ,170.43,56.37 ,171.83,52.82 ,170.25,52.82    ,170.89,51.23"/>
	<path fill="#F08300" d="M177.85,46.5c-1.008-0.096-3.024-0.144-5.056,0.112c-2.416,0.304-5.152,0.912-7.616,1.664   C163.13,48.88,161.26,49.6,159.91,50.37C160.11,50.34,160.3,50.32,160.49,50.32c0.48,0,0.944,0.112,1.36,0.288   C165.95,48.29,173.15,46.24,177.85,46.5L177.85,46.5L177.85,46.5z"/>
	<path fill="#F08300" d="M163.32,51.97c4-2.368,8.88-4.672,13.488-5.248c-4.608,0.288-10.224,2-14.288,4.304   C162.84,51.28,163.11,51.6,163.32,51.97C163.32,51.97,163.32,51.97,163.32,51.97z"/>
	<polygon fill="#F08300" points="181.37,51.23 ,180.75,52.82 ,179.29,52.82 ,177.88,56.37 ,177.42,56.37 ,175.91,56.37 ,174.22,56.37    ,174.81,54.87 ,176.52,54.87 ,177.34,52.82 ,175.75,52.82 ,176.39,51.23"/>
	<polygon fill="#F08300" points="170.46,51.23 ,169.82,52.82 ,167.53,54.93 ,169.79,54.93 ,169.21,56.37 ,163.72,56.37 ,167.39,52.82    ,164.81,52.82 ,165.45,51.23"/>
	<path fill="#F08300" d="M175.74,47.09c-3.376,0.752-6.464,2.192-9.424,3.952h1.888C170.63,49.47,172.97,48.04,175.74,47.09z    M164.94,51.91C164.31,52.29,164.25,52.34,163.64,52.75c0.064,0.256,0.112,0.544,0.112,0.816c0,0.496-0.112,0.976-0.32,1.392   c0.176-0.16,0.32-0.304,0.432-0.4c0.272-0.24,0.768-0.64,1.6-1.296l0.32-0.256H164.46l0,0L164.94,51.91L164.94,51.91L164.94,51.91z"/>
</g>
</svg>