<?xml version="1.0" encoding="utf-8"?>
<!-- Generator: Adobe Illustrator 23.0.0, SVG Export Plug-In . SVG Version: 6.00 Build 0)  -->
<svg version="1.1" id="图层_1" xmlns="http://www.w3.org/2000/svg" xmlns:xlink="http://www.w3.org/1999/xlink" x="0px" y="0px"
	 width="378.5px" height="456px" viewBox="0 0 378.5 456" enable-background="new 0 0 378.5 456" xml:space="preserve">
<g>
	
		<path fill-rule="evenodd" clip-rule="evenodd" fill="#00778D" stroke="#DCDDDD" stroke-width="0.2" stroke-miterlimit="22.9256" d="
		M189.26,31.43c47.2,1.1,89.71-2.15,129.85-7.61v0.02l-3.5-23.55c-35.43,6-77.76,8.81-126.35,8.74C140.67,9.11,98.34,6.29,62.9,0.3
		l-3.5,23.55l0.01-0.02C99.54,29.29,142.05,32.54,189.26,31.43z"/>
	
		<path fill-rule="evenodd" clip-rule="evenodd" fill="#00778D" stroke="#DCDDDD" stroke-width="0.2" stroke-miterlimit="22.9256" d="
		M189.26,31.43c47.2,1.1,89.71-2.15,129.85-7.61v0.02l1.97,8.28l0.17,0.69v0.01c26.94,82.67,42.27,225.19,56.03,375.74l0.93,10.18
		c-49.96,38.86-109.66,42.91-173.79,31.14l-15.17-80.5l-15.17,80.5c-64.12,11.78-123.82,7.73-173.78-31.13l0.93-10.18
		C14.98,258.02,30.3,115.51,57.26,32.84v-0.01l0.17-0.69l1.97-8.28l0.01-0.02C99.54,29.29,142.05,32.54,189.26,31.43z"/>
	<g>
		<path fill-rule="evenodd" clip-rule="evenodd" fill="#152E51" d="M46.9,69.7l88.53,385.26c-4.23,0.31-8.43,0.52-12.6,0.64
			L40.59,97.75C42.61,87.98,44.71,78.62,46.9,69.7z"/>
		<path fill-rule="evenodd" clip-rule="evenodd" fill="#152E51" d="M331.6,69.67l-88.53,385.27c4.23,0.31,8.43,0.52,12.6,0.64
			L337.9,97.72C335.89,87.96,333.79,78.6,331.6,69.67z"/>
		<path fill-rule="evenodd" clip-rule="evenodd" fill="#152E51" d="M107.18,284.42L88.27,27.3c-9.77-1.01-19.38-2.18-28.86-3.47
			l-0.01,0.02l-1.97,8.28l-0.17,0.69v0.01c-1.53,4.7-3.03,9.6-4.48,14.68L107.18,284.42z"/>
		<path fill-rule="evenodd" clip-rule="evenodd" fill="#152E51" d="M271.32,284.42l18.91-257.13c9.78-1.02,19.4-2.18,28.88-3.47
			v0.02l1.97,8.28l0.17,0.69v0.01c1.53,4.7,3.02,9.59,4.48,14.67L271.32,284.42z"/>
		<g>
			<path fill-rule="evenodd" clip-rule="evenodd" fill="#FFF500" d="M24.37,322.05l46.54,5.23l-40.39,23.71l9.41,45.88L5.18,366.02
				c0.28-2.97,0.57-5.94,0.85-8.91l22.45,19.92l-6.09-29.67l26.12-15.33l-30.1-3.38l-6.51-29.58l-0.05,0.1
				c0.81-7.65,1.63-15.24,2.46-22.77L24.37,322.05z"/>
			<path fill-rule="evenodd" clip-rule="evenodd" fill="#FFF500" d="M6.9,348.22l10.14,9l-2.76-13.46l11.85-6.96l-13.66-1.53
				l-2.95-13.42C8.63,330.57,7.76,339.37,6.9,348.22z"/>
		</g>
		<g>
			<path fill-rule="evenodd" clip-rule="evenodd" fill="#FFF500" d="M354.13,322.05l-46.54,5.23l40.39,23.71l-9.41,45.88
				l34.75-30.84c-0.28-2.97-0.57-5.94-0.85-8.91l-22.45,19.93l6.09-29.67l-26.12-15.33l30.1-3.38l6.51-29.58l0.05,0.12
				c-0.81-7.66-1.63-15.26-2.46-22.8L354.13,322.05z"/>
			<path fill-rule="evenodd" clip-rule="evenodd" fill="#FFF500" d="M368.98,321.84l0.01,0.01c0.89,8.73,1.76,17.52,2.62,26.37
				l-10.15,9l2.76-13.46l-11.85-6.96l13.66-1.53L368.98,321.84z"/>
		</g>
	</g>
	
		<line fill="none" stroke="#DCDDDD" stroke-width="0.2" stroke-miterlimit="22.9256" x1="189.26" y1="369.38" x2="189.26" y2="40.95"/>
	<path fill="none" stroke="#DCDDDD" stroke-width="0.2" stroke-miterlimit="22.9256" d="M59.44,23.8
		c40.13,5.46,82.65,8.71,129.85,7.61c47.2,1.1,89.68-2.13,129.81-7.59l0.04-0.01"/>
	<g>
		<path fill-rule="evenodd" clip-rule="evenodd" fill="#DCDDDD" d="M63.52,24.06l3.16-21.59l1.21,0.17l-3.16,21.59L63.52,24.06
			L63.52,24.06L63.52,24.06z M67.39,24.36L67.39,24.36l1.21,0.17l3.14-21.59l-1.2-0.17L67.39,24.36L67.39,24.36L67.39,24.36z
			 M71.26,24.95L71.26,24.95l2.76-21.64l1.21,0.15L72.47,25.1L71.26,24.95L71.26,24.95L71.26,24.95z M75,25.26L75,25.26l1.21,0.15
			l2.77-21.64l-1.21-0.15L75,25.26L75,25.26L75,25.26z M78.87,25.86L78.87,25.86l2.77-21.64l1.21,0.15l-2.76,21.64L78.87,25.86
			L78.87,25.86L78.87,25.86z M82.74,26.17L82.74,26.17l1.21,0.15l2.77-21.64l-1.21-0.15L82.74,26.17L82.74,26.17L82.74,26.17z
			 M86.61,26.76L86.61,26.76l2.37-21.68l1.21,0.12l-2.37,21.68L86.61,26.76L86.61,26.76L86.61,26.76z M90.47,27.07L90.47,27.07
			l2.37-21.69l1.2,0.12l-2.37,21.69L90.47,27.07L90.47,27.07L90.47,27.07z M94.21,27.37L94.21,27.37l2.37-21.68l1.21,0.12
			l-2.37,21.68L94.21,27.37L94.21,27.37L94.21,27.37z M98.08,27.67L98.08,27.67l2.37-21.69l1.21,0.12l-2.37,21.69L98.08,27.67
			L98.08,27.67L98.08,27.67z M101.95,27.96L101.95,27.96l1.97-21.72l1.21,0.1l-1.97,21.72L101.95,27.96L101.95,27.96L101.95,27.96z
			 M105.82,28.26L105.82,28.26l1.97-21.72l1.21,0.1l-1.97,21.72L105.82,28.26L105.82,28.26L105.82,28.26z M109.68,28.56
			L109.68,28.56l1.97-21.72l1.21,0.1l-1.97,21.72L109.68,28.56L109.68,28.56L109.68,28.56z M113.55,28.87L113.55,28.87l1.97-21.72
			l1.21,0.1l-1.97,21.72L113.55,28.87L113.55,28.87L113.55,28.87z M117.43,29.18L117.43,29.18l1.97-21.72l1.21,0.1l-1.97,21.72
			L117.43,29.18L117.43,29.18L117.43,29.18z M121.29,29.46L121.29,29.46l1.58-21.74l1.21,0.08l-1.58,21.74L121.29,29.46
			L121.29,29.46L121.29,29.46z M125.16,29.77L125.16,29.77l1.58-21.76l1.21,0.09l-1.57,21.74L125.16,29.77L125.16,29.77
			L125.16,29.77z M129.04,29.77L129.04,29.77l1.58-21.76l1.21,0.08l-1.58,21.74L129.04,29.77L129.04,29.77L129.04,29.77z
			 M132.9,30.05L132.9,30.05l1.18-21.78l1.22,0.07l-1.18,21.77L132.9,30.05L132.9,30.05L132.9,30.05z M136.76,30.35L136.76,30.35
			l1.18-21.78l1.22,0.06l-1.18,21.78L136.76,30.35L136.76,30.35L136.76,30.35z M140.63,30.35L140.63,30.35l1.18-21.78l1.21,0.06
			l-1.18,21.78L140.63,30.35L140.63,30.35L140.63,30.35z M144.51,30.64L144.51,30.64l0.79-21.79l1.22,0.04l-0.79,21.79L144.51,30.64
			L144.51,30.64L144.51,30.64z M148.36,30.64L148.36,30.64l0.79-21.79l1.22,0.04l-0.79,21.79L148.36,30.64L148.36,30.64
			L148.36,30.64z M152.1,30.64L152.1,30.64l0.79-21.79l1.22,0.04l-0.79,21.79L152.1,30.64L152.1,30.64L152.1,30.64z M155.97,30.94
			L155.97,30.94l0.79-21.79l1.22,0.04l-0.79,21.79L155.97,30.94L155.97,30.94L155.97,30.94z M159.85,30.92L159.85,30.92l0.39-21.8
			l1.22,0.02l-0.39,21.8L159.85,30.92L159.85,30.92L159.85,30.92z M163.7,30.92L163.7,30.92l0.39-21.8l1.22,0.02l-0.39,21.8
			L163.7,30.92L163.7,30.92L163.7,30.92z M167.58,30.92L167.58,30.92l0.39-21.8l1.22,0.02l-0.39,21.8L167.58,30.92L167.58,30.92
			L167.58,30.92z M171.45,30.92L171.45,30.92l0.39-21.8l1.22,0.02l-0.39,21.8L171.45,30.92L171.45,30.92L171.45,30.92z
			 M175.32,30.88L175.32,30.88l-0.39-21.8l1.22-0.02l0.39,21.8L175.32,30.88L175.32,30.88L175.32,30.88z M179.18,30.88L179.18,30.88
			l-0.39-21.8l1.21-0.02l0.39,21.8L179.18,30.88L179.18,30.88L179.18,30.88z M183.05,30.88L183.05,30.88l-0.4-21.8l1.22-0.02
			l0.39,21.8L183.05,30.88L183.05,30.88L183.05,30.88z M186.91,30.86L186.91,30.86l0.03-21.79l1.21-0.04l-0.03,21.79L186.91,30.86z"
			/>
		<path fill-rule="evenodd" clip-rule="evenodd" fill="#DCDDDD" d="M315.88,24.06l-3.14-21.59l-1.21,0.17l3.16,21.59L315.88,24.06
			L315.88,24.06L315.88,24.06z M312.02,24.36L312.02,24.36l-1.21,0.17l-3.15-21.59l1.19-0.17L312.02,24.36L312.02,24.36
			L312.02,24.36z M308.15,24.95L308.15,24.95l-2.76-21.64l-1.21,0.15l2.77,21.64L308.15,24.95L308.15,24.95L308.15,24.95z
			 M304.41,25.26L304.41,25.26l-1.21,0.15l-2.76-21.65l1.21-0.15L304.41,25.26L304.41,25.26L304.41,25.26z M300.54,25.86
			L300.54,25.86l-2.77-21.64l-1.21,0.15l2.76,21.64L300.54,25.86L300.54,25.86L300.54,25.86z M296.67,26.17L296.67,26.17l-1.21,0.15
			L292.7,4.68l1.21-0.15L296.67,26.17L296.67,26.17L296.67,26.17z M292.8,26.76L292.8,26.76l-2.36-21.69l-1.21,0.12l2.37,21.68
			L292.8,26.76L292.8,26.76L292.8,26.76z M288.94,27.07L288.94,27.07l-2.37-21.69l-1.21,0.12l2.37,21.69L288.94,27.07L288.94,27.07
			L288.94,27.07z M285.2,27.37L285.2,27.37l-2.36-21.68l-1.21,0.12L284,27.5L285.2,27.37L285.2,27.37L285.2,27.37z M281.33,27.67
			L281.33,27.67l-2.37-21.69l-1.21,0.12l2.37,21.68L281.33,27.67L281.33,27.67L281.33,27.67z M277.46,27.96L277.46,27.96
			l-1.97-21.72l-1.21,0.1l1.97,21.72L277.46,27.96L277.46,27.96L277.46,27.96z M273.6,28.26L273.6,28.26l-1.97-21.72l-1.21,0.1
			l1.97,21.72L273.6,28.26L273.6,28.26L273.6,28.26z M269.73,28.56L269.73,28.56l-1.97-21.72l-1.21,0.1l1.97,21.72L269.73,28.56
			L269.73,28.56L269.73,28.56z M265.86,28.87L265.86,28.87l-1.97-21.72l-1.21,0.1l1.97,21.72L265.86,28.87L265.86,28.87
			L265.86,28.87z M261.99,29.18L261.99,29.18l-1.97-21.72l-1.21,0.1l1.97,21.72L261.99,29.18L261.99,29.18L261.99,29.18z
			 M258.12,29.46L258.12,29.46l-1.58-21.75l-1.21,0.08l1.58,21.74L258.12,29.46L258.12,29.46L258.12,29.46z M254.26,29.77
			L254.26,29.77l-1.58-21.76l-1.21,0.09l1.58,21.74L254.26,29.77L254.26,29.77L254.26,29.77z M250.38,29.77L250.38,29.77
			l-1.57-21.76L247.6,8.1l1.58,21.74L250.38,29.77L250.38,29.77L250.38,29.77z M246.51,30.05L246.51,30.05l-1.18-21.78l-1.22,0.07
			l1.18,21.77L246.51,30.05L246.51,30.05L246.51,30.05z M242.65,30.35L242.65,30.35l-1.18-21.78l-1.21,0.06l1.18,21.78L242.65,30.35
			L242.65,30.35L242.65,30.35z M238.79,30.35L238.79,30.35l-1.18-21.78l-1.22,0.06l1.18,21.78L238.79,30.35L238.79,30.35
			L238.79,30.35z M234.91,30.64L234.91,30.64l-0.79-21.79l-1.21,0.04l0.79,21.79L234.91,30.64L234.91,30.64L234.91,30.64z
			 M231.05,30.64L231.05,30.64l-0.79-21.79l-1.21,0.04l0.79,21.79L231.05,30.64L231.05,30.64L231.05,30.64z M227.32,30.64
			L227.32,30.64l-0.79-21.79l-1.22,0.04l0.79,21.79L227.32,30.64L227.32,30.64L227.32,30.64z M223.44,30.94L223.44,30.94
			l-0.79-21.79l-1.22,0.04l0.79,21.79L223.44,30.94L223.44,30.94L223.44,30.94z M219.57,30.92L219.57,30.92l-0.39-21.79l-1.22,0.02
			l0.39,21.8L219.57,30.92L219.57,30.92L219.57,30.92z M215.7,30.92L215.7,30.92l-0.39-21.8l-1.21,0.02l0.39,21.8L215.7,30.92
			L215.7,30.92L215.7,30.92z M211.85,30.92L211.85,30.92l-0.39-21.8l-1.22,0.02l0.39,21.8L211.85,30.92L211.85,30.92L211.85,30.92z
			 M207.96,30.92L207.96,30.92l-0.39-21.79l-1.22,0.02l0.39,21.8L207.96,30.92L207.96,30.92L207.96,30.92z M204.1,30.88L204.1,30.88
			l0.39-21.8l-1.21-0.02l-0.4,21.8L204.1,30.88L204.1,30.88L204.1,30.88z M200.23,30.88L200.23,30.88l0.39-21.8l-1.21-0.02
			l-0.39,21.8L200.23,30.88L200.23,30.88L200.23,30.88z M196.36,30.88L196.36,30.88l0.4-21.8l-1.22-0.02l-0.39,21.8L196.36,30.88
			L196.36,30.88L196.36,30.88z M192.49,30.86L192.49,30.86l-0.42-21.79l-1.22-0.04l0.42,21.79L192.49,30.86z"/>
	</g>
	
		<path fill-rule="evenodd" clip-rule="evenodd" fill="#FDFFFF" stroke="#DCDDDD" stroke-width="0.2" stroke-miterlimit="22.9256" d="
		M180.45,22.51c1.58,0.11,3.25,0.22,4.76,1.08c5.68,3.25,4.72,11.09,3.63,22.25c-7.62,13.96-24.24,38-14.44,71.52l4.67-1.64
		c-4.23-25.11,2.06-38.67,8.83-51.87c0.25,13.79,3.33,30.2,15.45,48.03l3.44-3.49c-14.21-28.72-11.35-46.31-10.2-65.9
		c0.28-5.11,0.61-12.16-0.18-16.48C195.47,19.5,184.77,11.97,180.45,22.51z"/>
	<path fill-rule="evenodd" clip-rule="evenodd" fill="#152E51" d="M88.27,27.3L86.54,3.71C78.35,2.72,70.47,1.58,62.9,0.3
		l-3.5,23.55l0.01-0.02C68.89,25.12,78.5,26.29,88.27,27.3z"/>
	<path fill-rule="evenodd" clip-rule="evenodd" fill="#152E51" d="M290.23,27.29l1.73-23.59c8.19-0.99,16.08-2.13,23.64-3.41
		l3.5,23.55v-0.02C309.62,25.11,300.01,26.28,290.23,27.29z"/>
</g>
</svg>
