<?xml version="1.0" encoding="utf-8"?>
<!-- Generator: Adobe Illustrator 23.0.0, SVG Export Plug-In . SVG Version: 6.00 Build 0)  -->
<svg version="1.1" id="图层_1" xmlns="http://www.w3.org/2000/svg" xmlns:xlink="http://www.w3.org/1999/xlink" x="0px" y="0px"
	 width="378.5px" height="456px" viewBox="0 0 378.5 456" enable-background="new 0 0 378.5 456" xml:space="preserve">
<g>
	
		<path fill-rule="evenodd" clip-rule="evenodd" fill="#162E52" stroke="#DCDDDD" stroke-width="0.2" stroke-miterlimit="22.9256" d="
		M189.25,31.43c47.21,1.1,89.71-2.15,129.86-7.61v0.02l1.97,8.28l0.17,0.69v0.01c26.94,82.67,42.27,225.2,56.03,375.75l0.93,10.18
		c-49.96,38.86-109.66,42.91-173.8,31.14l-15.17-80.5l-15.17,80.5c-64.12,11.78-123.82,7.73-173.78-31.13l0.93-10.18
		C14.97,258.02,30.29,115.51,57.25,32.84v-0.01l0.17-0.69l1.97-8.28l0.01-0.02C99.53,29.29,142.04,32.54,189.25,31.43z"/>
	<g>
		<path fill-rule="evenodd" clip-rule="evenodd" fill="#FFFFFF" d="M11.05,306.83c1.33-12.82,2.7-25.47,4.1-37.93h38.49
			c-1.45,12.44-2.87,25.1-4.24,37.93H11.05z"/>
		<path fill-rule="evenodd" clip-rule="evenodd" fill="#FFFFFF" d="M18.77,237.92c1.57-12.92,3.19-25.57,4.86-37.93H63.1
			c-1.8,12.31-3.54,24.98-5.21,37.93L18.77,237.92L18.77,237.92z"/>
		<path fill-rule="evenodd" clip-rule="evenodd" fill="#FFFFFF" d="M28.05,169.07c1.97-13.08,4.02-25.74,6.17-37.93h37.37
			c-1.45,12.44-2.87,25.1-4.24,37.93H28.05z"/>
		<path fill-rule="evenodd" clip-rule="evenodd" fill="#FFFFFF" d="M40.1,100.09c2.74-13.41,5.63-26.09,8.68-37.93h31.29
			c-1.45,12.44-2.87,25.1-4.24,37.93H40.1z"/>
		<path fill-rule="evenodd" clip-rule="evenodd" fill="#FFFFFF" d="M363.34,268.89c1.4,12.46,2.77,25.12,4.1,37.93h-38.35
			c-1.38-12.83-2.79-25.49-4.24-37.93H363.34z"/>
		<path fill-rule="evenodd" clip-rule="evenodd" fill="#FFFFFF" d="M354.85,199.97c1.68,12.36,3.29,25.02,4.86,37.93H320.6
			c-1.68-12.96-3.41-25.62-5.21-37.93H354.85z"/>
		<path fill-rule="evenodd" clip-rule="evenodd" fill="#FFFFFF" d="M344.27,131.13c2.14,12.19,4.19,24.86,6.17,37.93h-39.29
			c-1.38-12.83-2.79-25.49-4.24-37.93H344.27z"/>
		<path fill-rule="evenodd" clip-rule="evenodd" fill="#FFFFFF" d="M329.72,62.15c3.05,11.84,5.94,24.52,8.68,37.93h-35.73
			c-1.38-12.83-2.79-25.49-4.24-37.93H329.72z"/>
	</g>
	
		<path fill-rule="evenodd" clip-rule="evenodd" fill="#162E52" stroke="#DCDDDD" stroke-width="0.2" stroke-miterlimit="22.9256" d="
		M189.25,31.43c47.21,1.1,89.71-2.15,129.86-7.61v0.02l-3.5-23.55c-35.44,6-77.77,8.81-126.36,8.74
		C140.66,9.11,98.34,6.29,62.89,0.3l-3.5,23.55l0.01-0.02C99.53,29.29,142.04,32.54,189.25,31.43z"/>
	
		<line fill="none" stroke="#DCDDDD" stroke-width="0.2" stroke-miterlimit="22.9256" x1="189.25" y1="369.38" x2="189.25" y2="40.95"/>
	<path fill="none" stroke="#DCDDDD" stroke-width="0.2" stroke-miterlimit="22.9256" d="M59.43,23.8
		c40.13,5.46,82.65,8.71,129.86,7.61c47.21,1.1,89.68-2.13,129.81-7.59l0.04-0.01"/>
	<g>
		<path fill-rule="evenodd" clip-rule="evenodd" fill="#DCDDDD" d="M63.52,24.06l3.16-21.59l1.21,0.17l-3.16,21.59L63.52,24.06
			L63.52,24.06L63.52,24.06L63.52,24.06z M67.38,24.36L67.38,24.36l1.21,0.17l3.14-21.59l-1.19-0.17L67.38,24.36L67.38,24.36
			L67.38,24.36L67.38,24.36z M71.25,24.95L71.25,24.95L74.01,3.3l1.21,0.15l-2.76,21.64L71.25,24.95L71.25,24.95L71.25,24.95
			L71.25,24.95z M74.99,25.27L74.99,25.27l1.21,0.15l2.77-21.64l-1.21-0.15L74.99,25.27L74.99,25.27L74.99,25.27L74.99,25.27z
			 M78.86,25.86L78.86,25.86l2.77-21.63l1.21,0.15L80.1,26.02L78.86,25.86L78.86,25.86L78.86,25.86L78.86,25.86z M82.73,26.17
			L82.73,26.17l1.21,0.15l2.77-21.64L85.5,4.53L82.73,26.17L82.73,26.17L82.73,26.17L82.73,26.17z M86.6,26.76L86.6,26.76
			l2.37-21.68l1.21,0.12L87.8,26.88L86.6,26.76L86.6,26.76L86.6,26.76L86.6,26.76z M90.46,27.07L90.46,27.07l2.37-21.69l1.2,0.12
			l-2.37,21.69L90.46,27.07L90.46,27.07L90.46,27.07L90.46,27.07z M94.2,27.37L94.2,27.37l2.37-21.68l1.21,0.12l-2.35,21.68
			L94.2,27.37L94.2,27.37L94.2,27.37L94.2,27.37z M98.08,27.67L98.08,27.67l2.37-21.69l1.21,0.12l-2.37,21.69L98.08,27.67
			L98.08,27.67L98.08,27.67L98.08,27.67z M101.94,27.97L101.94,27.97l1.97-21.72l1.21,0.1l-1.97,21.72L101.94,27.97L101.94,27.97
			L101.94,27.97L101.94,27.97z M105.81,28.26L105.81,28.26l1.97-21.72l1.21,0.1l-1.97,21.72L105.81,28.26L105.81,28.26L105.81,28.26
			L105.81,28.26z M109.68,28.56L109.68,28.56l1.97-21.72l1.21,0.1l-1.97,21.72L109.68,28.56L109.68,28.56L109.68,28.56L109.68,28.56
			z M113.55,28.86L113.55,28.86l1.97-21.72l1.21,0.1l-1.97,21.72L113.55,28.86L113.55,28.86L113.55,28.86L113.55,28.86z
			 M117.42,29.18L117.42,29.18l1.97-21.72l1.21,0.1l-1.97,21.72L117.42,29.18L117.42,29.18L117.42,29.18L117.42,29.18z
			 M121.28,29.46L121.28,29.46l1.58-21.75l1.21,0.08l-1.58,21.75L121.28,29.46L121.28,29.46L121.28,29.46L121.28,29.46z
			 M125.15,29.77L125.15,29.77l1.58-21.76l1.21,0.09l-1.57,21.75L125.15,29.77L125.15,29.77L125.15,29.77L125.15,29.77z
			 M129.02,29.77L129.02,29.77l1.58-21.76l1.21,0.08l-1.58,21.75L129.02,29.77L129.02,29.77L129.02,29.77L129.02,29.77z
			 M132.89,30.05L132.89,30.05l1.18-21.78l1.22,0.07l-1.18,21.77L132.89,30.05L132.89,30.05L132.89,30.05L132.89,30.05z
			 M136.75,30.35L136.75,30.35l1.18-21.78l1.22,0.06l-1.18,21.78L136.75,30.35L136.75,30.35L136.75,30.35L136.75,30.35z
			 M140.64,30.35L140.64,30.35l1.18-21.78l1.21,0.06l-1.18,21.78L140.64,30.35L140.64,30.35L140.64,30.35L140.64,30.35z
			 M144.5,30.65L144.5,30.65l0.79-21.79l1.22,0.04l-0.79,21.79L144.5,30.65L144.5,30.65L144.5,30.65L144.5,30.65z M148.37,30.65
			L148.37,30.65l0.79-21.79l1.22,0.04l-0.79,21.79L148.37,30.65L148.37,30.65L148.37,30.65L148.37,30.65z M152.1,30.65L152.1,30.65
			l0.79-21.79l1.22,0.04l-0.79,21.79L152.1,30.65L152.1,30.65L152.1,30.65L152.1,30.65z M155.97,30.94L155.97,30.94l0.79-21.79
			l1.22,0.04l-0.79,21.79L155.97,30.94L155.97,30.94L155.97,30.94L155.97,30.94z M159.84,30.92L159.84,30.92l0.39-21.81l1.22,0.03
			l-0.39,21.8L159.84,30.92L159.84,30.92L159.84,30.92L159.84,30.92z M163.7,30.92L163.7,30.92l0.4-21.81l1.2,0.03l-0.39,21.8
			L163.7,30.92L163.7,30.92L163.7,30.92L163.7,30.92z M167.57,30.92L167.57,30.92l0.39-21.81l1.22,0.03l-0.39,21.8L167.57,30.92
			L167.57,30.92L167.57,30.92L167.57,30.92z M171.44,30.92L171.44,30.92l0.39-21.81l1.21,0.03l-0.39,21.8L171.44,30.92L171.44,30.92
			L171.44,30.92L171.44,30.92z M175.3,30.88L175.3,30.88l-0.39-21.8l1.22-0.02l0.39,21.8L175.3,30.88L175.3,30.88L175.3,30.88
			L175.3,30.88z M179.17,30.88L179.17,30.88l-0.39-21.8l1.21-0.02l0.39,21.8L179.17,30.88L179.17,30.88L179.17,30.88L179.17,30.88z
			 M183.05,30.88L183.05,30.88l-0.4-21.8l1.22-0.02l0.39,21.8L183.05,30.88L183.05,30.88L183.05,30.88L183.05,30.88z M186.91,30.86
			L186.91,30.86l0.03-21.79l1.21-0.04l-0.03,21.79L186.91,30.86z"/>
		<path fill-rule="evenodd" clip-rule="evenodd" fill="#DCDDDD" d="M315.88,24.06l-3.15-21.59l-1.21,0.17l3.16,21.59L315.88,24.06
			L315.88,24.06L315.88,24.06L315.88,24.06z M312.02,24.36L312.02,24.36l-1.21,0.17l-3.15-21.59l1.19-0.17L312.02,24.36
			L312.02,24.36L312.02,24.36L312.02,24.36z M308.15,24.95L308.15,24.95L305.39,3.3l-1.21,0.15l2.77,21.64L308.15,24.95
			L308.15,24.95L308.15,24.95L308.15,24.95z M304.41,25.27L304.41,25.27l-1.21,0.15l-2.77-21.64l1.21-0.15L304.41,25.27
			L304.41,25.27L304.41,25.27L304.41,25.27z M300.54,25.86L300.54,25.86l-2.77-21.64l-1.21,0.15l2.76,21.64L300.54,25.86
			L300.54,25.86L300.54,25.86L300.54,25.86z M296.68,26.17L296.68,26.17l-1.21,0.15L292.7,4.68l1.21-0.15L296.68,26.17L296.68,26.17
			L296.68,26.17L296.68,26.17z M292.8,26.76L292.8,26.76l-2.37-21.69l-1.21,0.12l2.37,21.68L292.8,26.76L292.8,26.76L292.8,26.76
			L292.8,26.76z M288.94,27.07L288.94,27.07l-2.37-21.69l-1.21,0.12l2.37,21.69L288.94,27.07L288.94,27.07L288.94,27.07
			L288.94,27.07z M285.2,27.37L285.2,27.37l-2.37-21.68l-1.21,0.12l2.37,21.69L285.2,27.37L285.2,27.37L285.2,27.37L285.2,27.37z
			 M281.33,27.67L281.33,27.67l-2.37-21.69l-1.21,0.12l2.37,21.68L281.33,27.67L281.33,27.67L281.33,27.67L281.33,27.67z
			 M277.46,27.97L277.46,27.97l-1.97-21.72l-1.21,0.1l1.97,21.72L277.46,27.97L277.46,27.97L277.46,27.97L277.46,27.97z
			 M273.6,28.26L273.6,28.26l-1.97-21.73l-1.21,0.1l1.97,21.72L273.6,28.26L273.6,28.26L273.6,28.26L273.6,28.26z M269.73,28.56
			L269.73,28.56l-1.97-21.72l-1.21,0.1l1.97,21.72L269.73,28.56L269.73,28.56L269.73,28.56L269.73,28.56z M265.85,28.86
			L265.85,28.86l-1.97-21.72l-1.21,0.1l1.97,21.72L265.85,28.86L265.85,28.86L265.85,28.86L265.85,28.86z M261.98,29.18
			L261.98,29.18l-1.97-21.72l-1.21,0.1l1.97,21.72L261.98,29.18L261.98,29.18L261.98,29.18L261.98,29.18z M258.12,29.46
			L258.12,29.46l-1.58-21.75l-1.21,0.08l1.58,21.75L258.12,29.46L258.12,29.46L258.12,29.46L258.12,29.46z M254.26,29.77
			L254.26,29.77l-1.58-21.76l-1.21,0.09l1.58,21.75L254.26,29.77L254.26,29.77L254.26,29.77L254.26,29.77z M250.38,29.77
			L250.38,29.77l-1.57-21.76L247.6,8.1l1.58,21.75L250.38,29.77L250.38,29.77L250.38,29.77L250.38,29.77z M246.51,30.05
			L246.51,30.05l-1.18-21.78l-1.22,0.07l1.18,21.77L246.51,30.05L246.51,30.05L246.51,30.05L246.51,30.05z M242.65,30.35
			L242.65,30.35l-1.18-21.78l-1.21,0.06l1.18,21.78L242.65,30.35L242.65,30.35L242.65,30.35L242.65,30.35z M238.77,30.35
			L238.77,30.35L237.6,8.57l-1.22,0.06l1.18,21.78L238.77,30.35L238.77,30.35L238.77,30.35L238.77,30.35z M234.9,30.65L234.9,30.65
			l-0.79-21.79L232.9,8.9l0.79,21.79L234.9,30.65L234.9,30.65L234.9,30.65L234.9,30.65z M231.04,30.65L231.04,30.65l-0.79-21.79
			l-1.21,0.04l0.79,21.79L231.04,30.65L231.04,30.65L231.04,30.65L231.04,30.65z M227.31,30.65L227.31,30.65l-0.79-21.8l-1.22,0.04
			l0.79,21.79L227.31,30.65L227.31,30.65L227.31,30.65L227.31,30.65z M223.43,30.94L223.43,30.94l-0.78-21.78l-1.22,0.04l0.8,21.8
			L223.43,30.94L223.43,30.94L223.43,30.94L223.43,30.94z M219.56,30.92L219.56,30.92l-0.39-21.78l-1.22,0.01l0.39,21.8
			L219.56,30.92L219.56,30.92L219.56,30.92L219.56,30.92z M215.69,30.92L215.69,30.92L215.3,9.11l-1.19,0.03l0.39,21.8L215.69,30.92
			L215.69,30.92L215.69,30.92L215.69,30.92z M211.84,30.92L211.84,30.92l-0.4-21.81l-1.22,0.03l0.39,21.8L211.84,30.92L211.84,30.92
			L211.84,30.92L211.84,30.92z M207.96,30.92L207.96,30.92l-0.39-21.78l-1.22,0.02l0.39,21.8L207.96,30.92L207.96,30.92
			L207.96,30.92L207.96,30.92z M204.11,30.88L204.11,30.88l0.39-21.8l-1.21-0.02l-0.4,21.8L204.11,30.88L204.11,30.88L204.11,30.88
			L204.11,30.88z M200.23,30.88L200.23,30.88l0.39-21.8l-1.21-0.02l-0.39,21.8L200.23,30.88L200.23,30.88L200.23,30.88L200.23,30.88
			z M196.36,30.88L196.36,30.88l0.4-21.8l-1.22-0.02l-0.39,21.8L196.36,30.88L196.36,30.88L196.36,30.88L196.36,30.88z
			 M192.48,30.86L192.48,30.86l-0.42-21.79l-1.22-0.04l0.42,21.79L192.48,30.86z"/>
	</g>
	
		<path fill-rule="evenodd" clip-rule="evenodd" fill="#FDFFFF" stroke="#DCDDDD" stroke-width="0.2" stroke-miterlimit="22.9256" d="
		M180.45,22.51c1.58,0.11,3.25,0.22,4.76,1.08c5.68,3.25,4.72,11.09,3.63,22.25c-7.62,13.96-24.24,38-14.44,71.52l4.67-1.64
		c-4.23-25.11,2.06-38.67,8.83-51.87c0.25,13.79,3.33,30.2,15.45,48.03l3.44-3.49c-14.21-28.72-11.35-46.31-10.2-65.91
		c0.28-5.11,0.61-12.16-0.18-16.48C195.46,19.5,184.76,11.98,180.45,22.51z"/>
</g>
</svg>
