<?xml version="1.0" encoding="utf-8"?>
<!-- Generator: Adobe Illustrator 23.0.0, SVG Export Plug-In . SVG Version: 6.00 Build 0)  -->
<svg xmlns="http://www.w3.org/2000/svg" xmlns:xlink="http://www.w3.org/1999/xlink" version="1.1" id="图层_1" x="0px" y="0px" width="378.5px" height="596px" viewBox="0 0 378.5 596" enable-background="new 0 0 378.5 596" xml:space="preserve">
<g>
	<path fill-rule="evenodd" clip-rule="evenodd" fill="#DCDDDD" d="M189.3,34.99c29.56-0.45,47.85-7.51,59.45-16.24   c0-0.11,0-0.11,0-0.22c0.56,57.91-23.53,91.63-59.56,113.7c-35.91-22.07-60.01-55.78-59.56-113.7c0,0.11,0,0.11,0,0.22   C141.34,27.49,159.75,34.54,189.3,34.99z"/>
	
		<path fill-rule="evenodd" clip-rule="evenodd" fill="#00914C" stroke="#DCDDDD" stroke-width="0.2" stroke-miterlimit="22.9256" d="   M1.48,226.65c60.9-23.3,92.24-86.59,80.53-208.35l-14.17,2.35c7.03,109.44-13.38,165.34-67.59,190.88L1.48,226.65z"/>
	
		<path fill-rule="evenodd" clip-rule="evenodd" fill="#CCCCCD" stroke="#DCDDDD" stroke-width="0.2" stroke-miterlimit="22.9256" d="   M130.64,0.25c-6.13,69.23,19.07,107.54,58.67,131.84c39.59-24.31,64.8-62.62,58.67-131.84l14.05,7.06   c7.47,64.97-22.53,115.38-72.72,142.15c-50.19-26.77-80.19-77.18-72.72-142.15L130.64,0.25z"/>
	
		<path fill-rule="evenodd" clip-rule="evenodd" fill="#00914C" stroke="#DCDDDD" stroke-width="0.2" stroke-miterlimit="22.9256" d="   M377.02,226.65c-60.9-23.3-92.24-86.59-80.53-208.35l14.17,2.35c-7.03,109.44,13.38,165.34,67.59,190.88L377.02,226.65   L377.02,226.65z"/>
	
		<path fill-rule="evenodd" clip-rule="evenodd" fill="#CCCCCD" stroke="#DCDDDD" stroke-width="0.2" stroke-miterlimit="22.9256" d="   M130.64,0.38c16.51,16.02,36.7,21.06,58.67,20.95c21.86,0,42.05-4.93,58.67-20.95c0.56,6.27,0.89,12.32,0.89,18.15   c0,0.11,0,0.11-0.11,0.22c-11.6,8.74-30,15.79-59.45,16.24c-29.56-0.45-47.85-7.51-59.45-16.24c0-0.11,0-0.11-0.11-0.22   C129.85,12.81,130.08,6.76,130.64,0.38z"/>
	
	
		<path fill-rule="evenodd" clip-rule="evenodd" fill="#00914B" stroke="#DCDDDD" stroke-width="0.2" stroke-miterlimit="22.9256" d="   M189.22,595.75L189.22,595.75L189.22,595.75L189.22,595.75L189.22,595.75z M189.22,595.75c64.02-0.9,126.04-5.49,187.16-13.33   c-5.35-116.5-8.25-234,0.56-355.88l0,0c-60.9-23.3-92.24-86.59-80.53-208.35l0,0c-11.93-2.24-21.97-5.15-34.46-10.87   c7.47,64.97-22.53,115.38-72.72,142.15c-50.2-26.77-80.21-77.18-72.73-142.15c-12.49,5.6-22.64,8.63-34.46,10.87l0,0   C93.74,140.06,62.29,203.35,1.5,226.65l-0.05,0.02c9.03,122.66,5.96,238.57,0.61,355.85C62.62,590.26,128.21,595.75,189.22,595.75z   "/>
	<path fill-rule="evenodd" clip-rule="evenodd" fill="#FFFFFF" d="M262.8,35.99l31.7,8.42c0.4-8.43,1.03-17.16,1.9-26.23l0,0   c-11.93-2.24-21.97-5.15-34.46-10.87C263.08,17.23,263.34,26.8,262.8,35.99z"/>
	<path fill-rule="evenodd" clip-rule="evenodd" fill="#FFFFFF" d="M115.61,35.62l-31.72,8.09c-0.4-8.21-1.01-16.71-1.86-25.52l0,0   C93.85,15.95,104,12.92,116.5,7.32C115.37,17.1,115.1,26.54,115.61,35.62z"/>
	<path fill-rule="evenodd" clip-rule="evenodd" fill="#FEFEFE" d="M7.19,393.17c11.23,4.54,22.79,15.66,25.18,24.92   c4.56,17.62,6.26,37.68,8.47,59.07c3.82,37.01,5.75,74.02,9.03,110.86c-16.16-1.64-32.15-3.49-47.8-5.49   C4.94,519.44,7.16,456.74,7.19,393.17z"/>
	<path fill-rule="evenodd" clip-rule="evenodd" fill="#666666" d="M7.19,393.17l0.15,0.06l-0.15,0.08V393.17L7.19,393.17z    M14.82,397.21c0.28,0.18,0.56,0.37,0.84,0.56v0.07l1.96,1.33c0.85,0.63,1.67,1.29,2.48,1.97l-0.16,0.11v4.41l3.93,2.12l1.93-1.04   c0.21,0.24,0.41,0.47,0.6,0.71l-2.15,1.16l-0.01,4.4l3.93,2.66l2.58-1.74c0.13,0.26,0.26,0.53,0.38,0.79l-2.5,1.69l-0.01,4.45   l3.9,2.1l0.9-0.49l0.21,0.93l-0.7,0.38v4.46l1.97,1.33l0.22,1.2l-2.65-1.79l-3.9,2.64l-0.01,4.43l3.89,2.1l3.59-1.94l0.14,0.9   l-3.29,1.78v4.44l3.87,2.62l0.62-0.42l0.12,0.94l-0.33,0.22l-0.01,4.45l0.97,0.52l0.13,1.15l-1.56-0.84l-3.88,2.1v4.42l3.91,2.65   l2.28-1.54l0.1,0.98l-1.93,1.31l-0.01,4.44l2.68,1.45l0.12,1.14l-3.26-1.76l-3.87,2.1v4.46l3.87,2.62l3.75-2.53l0.1,0.96   l-3.43,2.32l-0.01,4.44l3.91,2.11l0.41-0.22l0.09,0.96l-0.02,0.01v2.05v2.38l0.48,0.32l0.11,1.21L41,489.6l-3.9,2.64l-0.01,4.41   l3.93,2.12l1.75-0.95l0.08,0.97l-1.35,0.73v4.45l1.89,1.28l0.09,1.12l-2.44-1.65l-3.92,2.65v4.41l3.93,2.12l2.92-1.58l0.08,1   l-2.62,1.42l-0.01,4.4l3.25,2.2l0.08,1.11l-3.71-2.51l-3.88,2.62L37.15,527l3.91,2.11l3.87-2.1v-2.1l0.23,3.01l-3.7,2v4.45   l3.88,2.63l0.47-0.32l0.07,0.97l-0.14,0.09l-0.01,4.43l0.49,0.27l0.07,1l-0.99-0.53l0,0l-3.89,2.11v4.43l3.88,2.63l1.56-1.05   l0.07,0.97l-1.23,0.83l-0.01,4.43l1.7,0.92l0.09,1.13l-2.24-1.21l-3.89,2.11l-0.01,4.4l3.93,2.66l2.68-1.81l0.08,1l-2.3,1.55   l-0.01,4.45l2.91,1.57l0.09,1.12l-3.46-1.86l-3.88,2.1v4.45l3.88,2.63l3.84-2.6l0.08,0.97l-3.52,2.38l-0.01,4.33l-0.85-0.09v-4.25   l-3.88-2.63l-3.92,2.65v3.4l-0.85-0.09l0.01-3.31l-3.9-2.64l-3.9,2.64v2.45l-0.86-0.1v-2.36l-3.88-2.63l-3.89,2.63v1.46l-0.87-0.1   v-1.36l-3.87-2.62l-3.9,2.64v0.41l-0.86-0.11v-0.31l-3.88-2.63l-3.06,2.07l-1.26-0.16v-0.04l0.02,0.01l3.9-2.64l0.01-4.43   l-3.52-1.9L2.5,572v0.47l3.91,2.11l3.87-2.1v-4.43l-3.9-2.64l-3.7,2.5l0.05-1.1l3.19-2.16v-1.15v-3.27l-2.85-1.54l0.05-1.06   l3.26,1.76l3.88-2.1v-4.45l-3.88-2.63l-3.03,2.05l0.04-1.05l2.59-1.75l0.01-4.43L3.7,543.8l0.04-0.94l2.67,1.44l3.89-2.11v-4.43   l-3.88-2.63l-2.44,1.65l0.04-1.05l2-1.35l0.01-4.43l-1.74-0.94l0.04-1.06l2.16,1.17l3.87-2.1v-4.43l-3.9-2.64l-1.88,1.27l0.04-1.1   L6,519.19v-1.73v-2.69l-1.17-0.63l0.04-1.07l1.6,0.86l3.88-2.1v-4.45l-3.88-2.63l-1.34,0.91l0.03-1.05l0.9-0.61l0.01-4.42   l-0.74-0.4l0.03-0.96l1.08,0.58l3.88-2.1v-2.05v-2.38l-3.9-2.64l-0.81,0.54l0.03-1.04l0.44-0.3v-4.41l-0.3-0.16l0.03-0.95   l0.64,0.34l3.87-2.1v-4.45l-3.88-2.63l-0.4,0.27c0.06-2.15,0.11-4.3,0.16-6.45l0.3,0.16l3.89-2.11l0.01-4.4l-3.93-2.66l-0.06,0.04   c0.04-2.03,0.09-4.06,0.13-6.1l3.82-2.07v-4.45l-3.65-2.48c0.04-2.08,0.07-4.16,0.1-6.24l3.58-1.94v-4.43l-3.46-2.35l0.04-2.8v1.77   l3.88,2.63l3.92-2.65v-4.41l-3.93-2.12l-3.85,2.09L7,422.72l3.46-1.87l0.01-4.4l-3.38-2.29l0.01-1.05l3.76,2.54l3.88-2.62   l0.01-4.44l-3.91-2.11l-3.7,2l0.01-1.04l3.29-1.78v-4.45L7.18,399v-1.05l3.72,2.52l3.92-2.65L14.82,397.21L14.82,397.21z    M15.2,398.6l-3.9,2.64l-0.01,4.43l3.91,2.11l3.89-2.11l0.01-4.43L15.2,398.6L15.2,398.6z M15.6,408.61v4.4l3.92,2.66l3.88-2.62   v-4.42l-3.93-2.12L15.6,408.61L15.6,408.61z M19.14,416.47l-3.92-2.66l-3.88,2.62v4.42l3.93,2.12l3.88-2.1L19.14,416.47   L19.14,416.47z M27.77,416.45l-3.9-2.64l-3.88,2.62l-0.01,4.44l3.91,2.11l3.87-2.1L27.77,416.45L27.77,416.45z M27.72,436.06v-4.43   L23.84,429l-3.92,2.65v4.41l3.91,2.11l0,0L27.72,436.06L27.72,436.06z M28.18,430.88l3.89-2.63l0.01-4.45l-3.9-2.1l-3.88,2.1v4.45   L28.18,430.88L28.18,430.88z M28.16,436.8l-3.89,2.11v4.43l3.88,2.63l3.89-2.63l0.01-4.45L28.16,436.8L28.16,436.8z M19.53,430.88   l3.9-2.64l0.01-4.43l-3.91-2.11l-3.89,2.11l-0.01,4.43L19.53,430.88L19.53,430.88z M19.07,436.06l0.01-4.43l-3.9-2.64l-3.9,2.64   l-0.01,4.43l3.91,2.11l0,0L19.07,436.06L19.07,436.06z M19.5,436.79l-3.9,2.11l-0.01,4.43l3.9,2.64l3.9-2.64l0.01-4.43L19.5,436.79   L19.5,436.79z M10.84,436.8l-3.89,2.11v4.43l3.88,2.63l3.92-2.65v-4.41L10.84,436.8L10.84,436.8z M15.14,444.09l-3.9,2.64   l-0.01,4.43l3.91,2.11l3.89-2.11l0.01-4.43L15.14,444.09L15.14,444.09z M23.8,444.09l-3.92,2.65v4.41l3.93,2.12l3.88-2.1v-4.45   L23.8,444.09L23.8,444.09z M32.45,444.09l-3.9,2.64l-0.01,4.43l3.91,2.11l3.87-2.1v-4.46L32.45,444.09L32.45,444.09z M6.9,454.09   v4.43l3.9,2.64l3.88-2.62l0.01-4.44l-3.91-2.11L6.9,454.09L6.9,454.09z M15.53,454.09v4.4l3.92,2.66l3.88-2.62v-4.42l-3.93-2.12   L15.53,454.09L15.53,454.09z M19.07,461.96l-3.92-2.66l-3.88,2.62v4.42l3.93,2.12l3.88-2.1L19.07,461.96L19.07,461.96z    M28.08,451.99l-3.89,2.11l-0.01,4.4l3.93,2.66l3.88-2.62L32,454.1L28.08,451.99L28.08,451.99z M27.7,461.93l-3.9-2.64l-3.88,2.62   l-0.01,4.44l3.91,2.11l3.87-2.1L27.7,461.93L27.7,461.93z M36.35,461.93l-3.91-2.65l-3.87,2.61l-0.01,4.45l3.9,2.1l3.88-2.1   L36.35,461.93L36.35,461.93z M40.7,484.43l-3.93-2.12l-3.87,2.1v4.45l3.88,2.63l3.92-2.65v-2.38L40.7,484.43L40.7,484.43z    M36.29,481.56v-4.46l-3.87-2.62l-3.9,2.64l-0.01,4.43l3.91,2.11L36.29,481.56L36.29,481.56z M32.04,484.41l-3.92-2.11l-3.87,2.09   v4.46l3.87,2.62l3.9-2.64L32.04,484.41L32.04,484.41z M27.65,481.56v-4.45l-3.88-2.63l-3.92,2.65v4.4l3.93,2.12L27.65,481.56   L27.65,481.56z M28.11,476.36l3.89-2.63l0.01-4.45l-3.9-2.1l-3.88,2.1v4.45L28.11,476.36L28.11,476.36z M23.39,484.41l-3.91-2.11   l-3.87,2.1v4.45l3.88,2.63l3.89-2.63L23.39,484.41L23.39,484.41z M19.47,476.36l3.9-2.64l0.01-4.43l-3.91-2.11l-3.89,2.11   l-0.01,4.43L19.47,476.36L19.47,476.36z M15.12,483.65l3.87-2.1l0.01-4.43l-3.9-2.64l-3.9,2.64l-0.01,4.41L15.12,483.65   L15.12,483.65z M14.76,484.43l-3.93-2.12l-3.87,2.1l-0.01,4.43l3.9,2.64l3.9-2.64L14.76,484.43L14.76,484.43z M10.8,476.36   l3.92-2.65v-4.41l-3.93-2.12l-3.88,2.1v4.45L10.8,476.36L10.8,476.36z M15.1,489.63l-3.92,2.65v2.4v2.01l3.93,2.12l3.87-2.1v-4.45   L15.1,489.63L15.1,489.63z M23.75,489.63l-3.9,2.64l-0.01,4.43l3.92,2.11l3.87-2.09v-4.46L23.75,489.63L23.75,489.63z    M32.38,489.63l-3.89,2.63l-0.01,4.44l3.91,2.11l3.87-2.1v-4.45L32.38,489.63L32.38,489.63z M36.67,582.51l3.9-2.64l0.01-4.43   l-3.91-2.11l-3.89,2.11l-0.01,4.43L36.67,582.51L36.67,582.51z M28,582.51l3.92-2.65v-4.41L28,573.33l-3.88,2.1v4.45L28,582.51   L28,582.51z M19.36,582.51l3.9-2.64l0.01-4.43l-3.91-2.11l-3.87,2.1v4.46L19.36,582.51L19.36,582.51z M10.72,582.51l3.89-2.63   l0.01-4.45l-3.9-2.1l-3.88,2.1v4.45L10.72,582.51L10.72,582.51z M44.91,572.51v-4.43l-3.9-2.64l-3.88,2.62l-0.01,4.44l3.91,2.11   L44.91,572.51L44.91,572.51z M36.28,572.5v-4.4l-3.92-2.66l-3.88,2.62v4.42l3.93,2.12L36.28,572.5L36.28,572.5z M32.74,564.64   l3.92,2.66l3.88-2.62v-4.42l-3.93-2.12l-3.88,2.1L32.74,564.64L32.74,564.64z M23.73,574.6l3.89-2.11l0.01-4.4l-3.93-2.66   l-3.88,2.62l-0.01,4.44L23.73,574.6L23.73,574.6z M18.96,572.5v-4.42l-3.91-2.65l-3.87,2.61l-0.01,4.45l3.9,2.1L18.96,572.5   L18.96,572.5z M24.11,564.66l3.9,2.64l3.88-2.62l0.01-4.44l-3.91-2.11l-3.87,2.1L24.11,564.66L24.11,564.66z M15.46,564.66   l3.91,2.65l3.87-2.61l0.01-4.45l-3.9-2.1l-3.88,2.1L15.46,564.66L15.46,564.66z M6.8,564.64l3.93,2.66l3.88-2.62l0.01-4.44   l-3.91-2.11l-3.89,2.11l-0.01,3.29L6.8,564.64L6.8,564.64z M6.88,545.05v4.43l3.88,2.63l3.89-2.63l0.01-4.45l-3.89-2.1L6.88,545.05   L6.88,545.05z M15.52,545.05v4.44l3.87,2.62l3.9-2.64l0.01-4.43l-3.89-2.1L15.52,545.05L15.52,545.05z M15.06,550.23l-3.9,2.64   l-0.01,4.43l3.91,2.11l3.87-2.1v-4.46L15.06,550.23L15.06,550.23z M15.08,544.31l3.89-2.11v-4.44l-3.87-2.62l-3.9,2.64l-0.01,4.43   L15.08,544.31L15.08,544.31z M24.16,545.05v4.43l3.88,2.63l3.92-2.65v-4.41l-3.91-2.11l0,0L24.16,545.05L24.16,545.05z    M23.7,550.23l-3.89,2.63l-0.01,4.45l3.9,2.1l3.88-2.1v-4.45L23.7,550.23L23.7,550.23z M23.72,544.31l3.89-2.11v-4.43l-3.88-2.63   l-3.89,2.63l-0.01,4.45L23.72,544.31L23.72,544.31z M32.34,550.23l-3.9,2.64l-0.01,4.43l3.91,2.11l3.89-2.11l0.01-4.43   L32.34,550.23L32.34,550.23z M32.81,545.05l-0.01,4.43l3.9,2.64l3.9-2.64l0.01-4.43l-3.91-2.11l0,0L32.81,545.05L32.81,545.05z    M32.38,544.32l3.9-2.11l0.01-4.43l-3.9-2.64l-3.9,2.64l-0.01,4.43L32.38,544.32L32.38,544.32z M41.01,550.23l-3.92,2.65v4.41   l3.93,2.12l3.88-2.1v-4.45L41.01,550.23L41.01,550.23z M41.04,544.31l3.89-2.11v-4.43l-3.88-2.63l-3.92,2.65v4.41L41.04,544.31   L41.04,544.31z M36.74,537.02l3.9-2.64l0.01-4.43l-3.91-2.11l-3.89,2.11l-0.01,4.43L36.74,537.02L36.74,537.02z M28.07,537.02   l3.92-2.65v-4.41l-3.93-2.12l-3.88,2.1v4.45L28.07,537.02L28.07,537.02z M19.43,537.02l3.9-2.64l0.01-4.43l-3.91-2.11l-3.87,2.1   v4.46L19.43,537.02L19.43,537.02z M10.79,537.02l3.89-2.63l0.01-4.45l-3.9-2.1l-3.88,2.1v4.45L10.79,537.02L10.79,537.02z    M36.34,527.02v-4.4l-3.92-2.66l-3.88,2.62V527l3.93,2.12L36.34,527.02L36.34,527.02z M32.81,519.16l3.92,2.66l3.88-2.62v-4.42   l-3.93-2.12l-3.88,2.1L32.81,519.16L32.81,519.16z M23.79,529.12l3.89-2.11l0.01-4.4l-3.93-2.66l-3.88,2.62l-0.01,4.44   L23.79,529.12L23.79,529.12z M19.03,527.02v-4.42l-3.91-2.65l-3.87,2.61l-0.01,4.45l3.9,2.1L19.03,527.02L19.03,527.02z    M24.18,519.18l3.9,2.64l3.88-2.62l0.01-4.44l-3.91-2.11l-3.87,2.1L24.18,519.18L24.18,519.18z M15.53,519.18l3.91,2.65l3.87-2.61   l0.01-4.45l-3.9-2.1l-3.88,2.1L15.53,519.18L15.53,519.18z M6.87,519.16l3.93,2.66l3.88-2.62l0.01-4.44l-3.91-2.11l-3.89,2.11v2.71   L6.87,519.16L6.87,519.16z M6.94,499.55V504l3.88,2.63l3.89-2.63l0.01-4.44l-3.91-2.11L6.94,499.55L6.94,499.55z M15.59,499.55   v4.46l3.87,2.62l3.9-2.64l0.01-4.43l-3.92-2.11L15.59,499.55L15.59,499.55z M15.13,504.75l-3.9,2.64l-0.01,4.43l3.91,2.11l3.87-2.1   v-4.46L15.13,504.75L15.13,504.75z M24.22,499.55V504l3.88,2.63l3.92-2.65v-4.4l-3.93-2.12L24.22,499.55L24.22,499.55z    M23.77,504.75l-3.89,2.63l-0.01,4.45l3.9,2.1l3.88-2.1v-4.45L23.77,504.75L23.77,504.75z M32.41,504.75l-3.9,2.64l-0.01,4.43   l3.91,2.11l3.89-2.11l0.01-4.43L32.41,504.75L32.41,504.75z M36.75,497.46l-3.87,2.1l-0.01,4.43l3.9,2.64l3.9-2.64l0.01-4.41   L36.75,497.46z"/>
	<path fill-rule="evenodd" clip-rule="evenodd" fill="#FFFFFF" d="M376.68,226.6c-11.4,57.87-23.48,120.36-31.31,180.62   c3.06-7.38,15.68-17.66,23.84-20.01c0.71-0.2,1.4-0.36,2.09-0.48c0.1-51.63,1.64-103.79,5.38-156.78V226.6z"/>
	<path fill-rule="evenodd" clip-rule="evenodd" fill="#CCCCCC" d="M328.25,191.59c-0.35,2.36-0.89,5.97-1.04,6.89   c-2.81,17.69-25.42,143.18,2.01,284.87c0.1-1.88,5.95-117.82,36.75-261.6C351.33,214.5,338.68,204.54,328.25,191.59z"/>
	<path fill-rule="evenodd" clip-rule="evenodd" fill="#FFFFFF" d="M1.53,226.64C12.94,284.5,25,346.98,32.84,407.22   c-3.06-7.38-15.68-17.66-23.84-20.01c-0.64-0.19-1.28-0.33-1.9-0.44c-0.11-52.38-1.7-105.3-5.56-159.06L1.53,226.64L1.53,226.64z"/>
	<path fill-rule="evenodd" clip-rule="evenodd" fill="#CCCCCC" d="M50.01,191.86c0.35,2.36,0.85,5.73,1,6.61   c2.81,17.69,25.42,143.18-2.01,284.87c-0.1-1.88-5.94-117.71-36.71-261.41C26.91,214.71,39.56,204.79,50.01,191.86z"/>
	<path fill-rule="evenodd" clip-rule="evenodd" fill="#FEFEFE" d="M371.25,393.06c-11.23,4.54-22.79,15.66-25.18,24.92   c-4.56,17.62-6.26,37.68-8.47,59.07c-3.82,37.01-5.75,74.02-9.03,110.86c16.16-1.64,32.15-3.49,47.8-5.49   C373.49,519.32,371.27,456.62,371.25,393.06z"/>
	<path fill-rule="evenodd" clip-rule="evenodd" fill="#666666" d="M371.25,393.06l-0.15,0.06l0.15,0.08V393.06L371.25,393.06z    M363.61,397.1c-0.28,0.18-0.56,0.37-0.84,0.56v0.07l-1.96,1.33c-0.85,0.63-1.67,1.29-2.48,1.97l0.16,0.1v4.41l-3.93,2.12   l-1.93-1.04c-0.21,0.24-0.41,0.47-0.6,0.71l2.15,1.16l0.01,4.4l-3.93,2.66l-2.58-1.74c-0.13,0.26-0.26,0.53-0.38,0.79l2.5,1.69   l0.01,4.45l-3.9,2.1l-0.9-0.49l-0.21,0.93l0.7,0.38v4.46l-1.97,1.33l-0.22,1.2l2.65-1.79l3.9,2.64l0.01,4.43l-3.89,2.1l-3.59-1.94   l-0.14,0.9l3.29,1.78v4.44l-3.87,2.62l-0.62-0.42l-0.12,0.94l0.33,0.22l0.01,4.45l-0.97,0.52l-0.13,1.15l1.56-0.84l3.88,2.1v4.42   l-3.91,2.65l-2.28-1.54l-0.1,0.98l1.93,1.31l0.01,4.44l-2.68,1.45l-0.12,1.14l3.26-1.76l3.87,2.1v4.46l-3.87,2.62l-3.75-2.53   l-0.1,0.96l3.43,2.32l0.01,4.44l-3.91,2.11l-0.41-0.22l-0.09,0.96l0.02,0.01v2.05v2.38l-0.48,0.32l-0.11,1.21l1.1-0.75l3.9,2.64   l0.01,4.41l-3.93,2.12l-1.75-0.95l-0.08,0.97l1.35,0.73v4.45l-1.89,1.28l-0.09,1.12l2.44-1.65l3.92,2.65v4.41l-3.93,2.12   l-2.92-1.58l-0.08,1l2.62,1.42l0.01,4.4l-3.25,2.2l-0.08,1.11l3.71-2.51l3.88,2.62l0.01,4.44l-3.91,2.11l-3.87-2.1v-2.1l-0.23,3.01   l3.7,2v4.45l-3.88,2.63l-0.47-0.32l-0.07,0.97l0.14,0.09l0.01,4.43l-0.49,0.27l-0.07,1l0.99-0.53l0,0l3.89,2.11v4.43l-3.88,2.63   l-1.56-1.05l-0.07,0.97l1.23,0.83l0.01,4.43l-1.7,0.92l-0.09,1.13l2.24-1.21l3.89,2.11l0.01,4.4l-3.93,2.66l-2.68-1.81l-0.08,1   l2.3,1.55l0.01,4.45l-2.91,1.57l-0.09,1.12l3.46-1.86l3.88,2.1v4.45l-3.88,2.63l-3.84-2.6l-0.08,0.97l3.52,2.38l0.01,4.33   l0.85-0.09v-4.25l3.88-2.63l3.92,2.65v3.4l0.85-0.09l-0.01-3.31l3.9-2.64l3.9,2.64v2.45l0.86-0.1v-2.36l3.88-2.63l3.89,2.63v1.46   l0.87-0.1v-1.36l3.87-2.62l3.9,2.64v0.41l0.86-0.11v-0.31l3.88-2.63l3.06,2.07l1.26-0.16v-0.04l-0.02,0.01l-3.9-2.64l-0.01-4.43   l3.52-1.9l-0.07-1.51v0.47l-3.91,2.11l-3.87-2.1v-4.43l3.9-2.64l3.7,2.5l-0.05-1.1l-3.19-2.16v-1.15v-3.27l2.85-1.54l-0.05-1.06   l-3.26,1.76l-3.88-2.1v-4.45l3.88-2.63l3.03,2.05l-0.04-1.05l-2.59-1.75l-0.01-4.43l2.29-1.24l-0.04-0.94l-2.67,1.44l-3.89-2.11   v-4.43l3.88-2.63l2.44,1.65l-0.04-1.05l-2-1.35l-0.01-4.43l1.74-0.94l-0.04-1.06l-2.16,1.17l-3.87-2.1v-4.43l3.9-2.64l1.88,1.27   l-0.04-1.1l-1.38-0.93v-1.73v-2.69l1.17-0.63l-0.04-1.07l-1.6,0.86l-3.88-2.1v-4.45l3.88-2.63l1.34,0.91l-0.03-1.05l-0.9-0.61   l-0.01-4.42l0.74-0.4l-0.03-0.96l-1.08,0.58l-3.88-2.1v-2.05v-2.38l3.9-2.64l0.81,0.54l-0.03-1.04l-0.44-0.3v-4.41l0.3-0.16   l-0.03-0.95l-0.64,0.34l-3.87-2.1v-4.45l3.88-2.63l0.4,0.27c-0.06-2.15-0.11-4.3-0.16-6.45l-0.3,0.16l-3.89-2.11l-0.01-4.4   l3.93-2.66l0.06,0.04c-0.04-2.03-0.09-4.06-0.13-6.1l-3.82-2.07v-4.45l3.65-2.48c-0.04-2.08-0.07-4.16-0.1-6.24l-3.58-1.94v-4.43   l3.46-2.35l-0.04-2.8v1.77l-3.88,2.63l-3.92-2.65v-4.41l3.93-2.12l3.85,2.09l-0.01-1.05l-3.46-1.87l-0.01-4.4l3.38-2.29l-0.01-1.05   l-3.76,2.54l-3.88-2.62l-0.01-4.44l3.91-2.11l3.7,2l-0.01-1.04l-3.29-1.78v-4.45l3.26-2.21v-1.05l-3.72,2.52l-3.92-2.65   L363.61,397.1L363.61,397.1z M363.23,398.49l3.9,2.64l0.01,4.43l-3.91,2.11l-3.89-2.11l-0.01-4.43L363.23,398.49L363.23,398.49z    M362.83,408.5v4.4l-3.92,2.66l-3.88-2.62v-4.42l3.93-2.12L362.83,408.5L362.83,408.5z M359.3,416.36l3.92-2.66l3.88,2.62v4.42   l-3.93,2.12l-3.88-2.1L359.3,416.36L359.3,416.36z M350.66,416.34l3.9-2.64l3.88,2.62l0.01,4.44l-3.91,2.11l-3.87-2.1   L350.66,416.34L350.66,416.34z M350.71,435.95v-4.43l3.88-2.63l3.92,2.65v4.41l-3.91,2.11l0,0L350.71,435.95L350.71,435.95z    M350.25,430.77l-3.89-2.63l-0.01-4.45l3.9-2.1l3.88,2.1v4.45L350.25,430.77L350.25,430.77z M350.28,436.69l3.89,2.11v4.43   l-3.88,2.63l-3.89-2.63l-0.01-4.45L350.28,436.69L350.28,436.69z M358.9,430.77l-3.9-2.64l-0.01-4.43l3.91-2.11l3.89,2.11   l0.01,4.43L358.9,430.77L358.9,430.77z M359.37,435.95l-0.01-4.43l3.9-2.64l3.9,2.64l0.01,4.43l-3.91,2.11l0,0L359.37,435.95   L359.37,435.95z M358.94,436.68l3.9,2.11l0.01,4.43l-3.9,2.64l-3.9-2.64l-0.01-4.43L358.94,436.68L358.94,436.68z M367.59,436.69   l3.89,2.11v4.43l-3.88,2.63l-3.92-2.65v-4.41L367.59,436.69L367.59,436.69z M363.3,443.97l3.9,2.64l0.01,4.43l-3.91,2.11   l-3.89-2.11l-0.01-4.43L363.3,443.97L363.3,443.97z M354.63,443.97l3.92,2.65v4.41l-3.93,2.12l-3.88-2.1v-4.45L354.63,443.97   L354.63,443.97z M345.98,443.97l3.9,2.64l0.01,4.43l-3.91,2.11l-3.87-2.1v-4.46L345.98,443.97L345.98,443.97z M371.53,453.97v4.43   l-3.9,2.64l-3.88-2.62l-0.01-4.44l3.91-2.11L371.53,453.97L371.53,453.97z M362.9,453.98v4.4l-3.92,2.66l-3.88-2.62V454l3.93-2.12   L362.9,453.98L362.9,453.98z M359.37,461.84l3.92-2.66l3.88,2.62v4.42l-3.93,2.12l-3.88-2.1L359.37,461.84L359.37,461.84z    M350.35,451.88l3.89,2.11l0.01,4.4l-3.93,2.66l-3.88-2.62l-0.01-4.44L350.35,451.88L350.35,451.88z M350.73,461.82l3.9-2.64   l3.88,2.62l0.01,4.44l-3.91,2.11l-3.87-2.1L350.73,461.82L350.73,461.82z M342.09,461.82l3.91-2.65l3.87,2.61l0.01,4.45l-3.9,2.1   l-3.88-2.1L342.09,461.82L342.09,461.82z M337.74,484.31l3.93-2.12l3.87,2.1v4.45l-3.88,2.63l-3.92-2.65v-2.38L337.74,484.31   L337.74,484.31z M342.15,481.45v-4.46l3.87-2.62l3.9,2.64l0.01,4.43l-3.92,2.11L342.15,481.45L342.15,481.45z M346.39,484.3   l3.92-2.11l3.87,2.09v4.46l-3.87,2.62l-3.9-2.64L346.39,484.3L346.39,484.3z M350.78,481.44v-4.45l3.88-2.63l3.92,2.65v4.4   l-3.93,2.12L350.78,481.44L350.78,481.44z M350.32,476.25l-3.89-2.63l-0.01-4.45l3.9-2.1l3.88,2.1v4.45L350.32,476.25   L350.32,476.25z M355.04,484.3l3.91-2.11l3.87,2.1v4.45l-3.88,2.63l-3.89-2.63L355.04,484.3L355.04,484.3z M358.97,476.25   l-3.9-2.64l-0.01-4.43l3.91-2.11l3.89,2.11l0.01,4.43L358.97,476.25L358.97,476.25z M363.31,483.54l-3.87-2.1l-0.01-4.43l3.9-2.64   l3.9,2.64l0.01,4.41L363.31,483.54L363.31,483.54z M363.67,484.32l3.93-2.12l3.87,2.1l0.01,4.43l-3.9,2.64l-3.9-2.64L363.67,484.32   L363.67,484.32z M367.64,476.25l-3.92-2.65v-4.41l3.93-2.12l3.88,2.1v4.45L367.64,476.25L367.64,476.25z M363.33,489.52l3.92,2.65   v2.4v2.01l-3.93,2.12l-3.87-2.1v-4.45L363.33,489.52L363.33,489.52z M354.69,489.52l3.9,2.64l0.01,4.43l-3.92,2.11l-3.87-2.09   v-4.46L354.69,489.52L354.69,489.52z M346.05,489.52l3.89,2.63l0.01,4.44l-3.91,2.11l-3.87-2.1v-4.45L346.05,489.52L346.05,489.52z    M341.76,582.4l-3.9-2.64l-0.01-4.43l3.91-2.11l3.89,2.11l0.01,4.43L341.76,582.4L341.76,582.4z M350.43,582.4l-3.92-2.65v-4.41   l3.93-2.12l3.88,2.1v4.45L350.43,582.4L350.43,582.4z M359.08,582.4l-3.9-2.64l-0.01-4.43l3.91-2.11l3.87,2.1v4.46L359.08,582.4   L359.08,582.4z M367.71,582.4l-3.89-2.63l-0.01-4.45l3.9-2.1l3.88,2.1v4.45L367.71,582.4L367.71,582.4z M333.52,572.4v-4.43   l3.9-2.64l3.88,2.62l0.01,4.44l-3.91,2.11L333.52,572.4L333.52,572.4z M342.16,572.39v-4.4l3.92-2.66l3.88,2.62v4.42l-3.93,2.12   L342.16,572.39L342.16,572.39z M345.69,564.53l-3.92,2.66l-3.88-2.62v-4.42l3.93-2.12l3.88,2.1L345.69,564.53L345.69,564.53z    M354.71,574.49l-3.89-2.11l-0.01-4.4l3.93-2.66l3.88,2.62l0.01,4.44L354.71,574.49L354.71,574.49z M359.47,572.39v-4.42l3.91-2.65   l3.87,2.61l0.01,4.45l-3.9,2.1L359.47,572.39L359.47,572.39z M354.33,564.55l-3.9,2.64l-3.88-2.62l-0.01-4.44l3.91-2.11l3.87,2.1   L354.33,564.55L354.33,564.55z M362.97,564.55l-3.91,2.65l-3.87-2.61l-0.01-4.45l3.9-2.1l3.88,2.1L362.97,564.55L362.97,564.55z    M371.64,564.53l-3.93,2.66l-3.88-2.62l-0.01-4.44l3.91-2.11l3.89,2.11l0.01,3.29L371.64,564.53L371.64,564.53z M371.56,544.94   v4.43l-3.88,2.63l-3.89-2.63l-0.01-4.45l3.89-2.1L371.56,544.94L371.56,544.94z M362.91,544.94v4.44l-3.87,2.62l-3.9-2.64   l-0.01-4.43l3.89-2.1L362.91,544.94L362.91,544.94z M363.37,550.12l3.9,2.64l0.01,4.43l-3.91,2.11l-3.87-2.1v-4.46L363.37,550.12   L363.37,550.12z M363.35,544.2l-3.89-2.11v-4.44l3.87-2.62l3.9,2.64l0.01,4.43L363.35,544.2L363.35,544.2z M354.28,544.94v4.43   L350.4,552l-3.92-2.65v-4.41l3.91-2.11l0,0L354.28,544.94L354.28,544.94z M354.74,550.12l3.89,2.63l0.01,4.45l-3.9,2.1l-3.88-2.1   v-4.45L354.74,550.12L354.74,550.12z M354.71,544.2l-3.89-2.11v-4.43l3.88-2.63l3.89,2.63l0.01,4.45L354.71,544.2L354.71,544.2z    M346.09,550.12l3.9,2.64l0.01,4.43l-3.91,2.11l-3.89-2.11l-0.01-4.43L346.09,550.12L346.09,550.12z M345.62,544.94l0.01,4.43   l-3.9,2.64l-3.9-2.64l-0.01-4.43l3.91-2.11l0,0L345.62,544.94L345.62,544.94z M346.05,544.21l-3.9-2.11l-0.01-4.43l3.9-2.64   l3.9,2.64l0.01,4.43L346.05,544.21L346.05,544.21z M337.42,550.12l3.92,2.65v4.41l-3.93,2.12l-3.88-2.1v-4.45L337.42,550.12   L337.42,550.12z M337.4,544.2l-3.89-2.11v-4.43l3.88-2.63l3.92,2.65v4.41L337.4,544.2L337.4,544.2z M341.69,536.91l-3.9-2.64   l-0.01-4.43l3.91-2.11l3.89,2.11l0.01,4.43L341.69,536.91L341.69,536.91z M350.36,536.91l-3.92-2.65v-4.41l3.93-2.12l3.88,2.1v4.45   L350.36,536.91L350.36,536.91z M359.01,536.91l-3.9-2.64l-0.01-4.43l3.91-2.11l3.87,2.1v4.46L359.01,536.91L359.01,536.91z    M367.64,536.91l-3.89-2.63l-0.01-4.45l3.9-2.1l3.88,2.1v4.45L367.64,536.91L367.64,536.91z M342.09,526.91v-4.4l3.92-2.66   l3.88,2.62v4.42l-3.93,2.12L342.09,526.91L342.09,526.91z M345.62,519.04l-3.92,2.66l-3.88-2.62v-4.42l3.93-2.12l3.88,2.1   L345.62,519.04L345.62,519.04z M354.64,529.01l-3.89-2.11l-0.01-4.4l3.93-2.66l3.88,2.62l0.01,4.44L354.64,529.01L354.64,529.01z    M359.41,526.91v-4.42l3.91-2.65l3.87,2.61l0.01,4.45l-3.9,2.1L359.41,526.91L359.41,526.91z M354.26,519.07l-3.9,2.64l-3.88-2.62   l-0.01-4.44l3.91-2.11l3.87,2.1L354.26,519.07L354.26,519.07z M362.9,519.07l-3.91,2.65l-3.87-2.61l-0.01-4.45l3.9-2.1l3.88,2.1   L362.9,519.07L362.9,519.07z M371.57,519.05l-3.93,2.66l-3.88-2.62l-0.01-4.44l3.91-2.11l3.89,2.11v2.71L371.57,519.05   L371.57,519.05z M371.49,499.44v4.45l-3.88,2.63l-3.89-2.63l-0.01-4.44l3.91-2.11L371.49,499.44L371.49,499.44z M362.84,499.44   v4.46l-3.87,2.62l-3.9-2.64l-0.01-4.43l3.92-2.11L362.84,499.44L362.84,499.44z M363.3,504.64l3.9,2.64l0.01,4.43l-3.91,2.11   l-3.87-2.1v-4.46L363.3,504.64L363.3,504.64z M354.21,499.44v4.45l-3.88,2.63l-3.92-2.65v-4.4l3.93-2.12L354.21,499.44   L354.21,499.44z M354.67,504.64l3.89,2.63l0.01,4.45l-3.9,2.1l-3.88-2.1v-4.45L354.67,504.64L354.67,504.64z M346.02,504.64   l3.9,2.64l0.01,4.43l-3.91,2.11l-3.89-2.11l-0.01-4.43L346.02,504.64L346.02,504.64z M341.68,497.35l3.87,2.1l0.01,4.43l-3.9,2.64   l-3.9-2.64l-0.01-4.41L341.68,497.35z"/>
</g>
<g id="图层_x0020_1">
	<path fill="#F08300" d="M177.49,60.34c0.416,1.136,1.472,1.984,2.752,2.032c0.144,0,0.304,0,0.448-0.016h0.016   c0.016,0,0.064,0,0.128-0.016c0.032,0,0.048-0.016,0.08-0.016c0.064-0.016,0.144-0.032,0.224-0.048c0.016,0,0.016,0,0.032,0   c0.192-0.048,0.4-0.112,0.576-0.208c0.192-0.096,0.4-0.224,0.608-0.384c0.672-0.56,1.104-1.408,1.104-2.352   c0-0.224-0.032-0.448-0.08-0.672l0,0C183.33,58.46,183.28,58.29,183.2,58.11C182.73,57.02,181.65,56.26,180.38,56.26C178.69,56.26,177.31,57.63,177.31,59.33C177.31,59.68,177.37,60.02,177.49,60.34L177.49,60.34L177.49,60.34z M181.79,59.36L181.79,59.36C181.76,60.14,181.1,60.74,180.32,60.7C179.53,60.67,178.94,60.02,178.97,59.23c0.032-0.784,0.688-1.376,1.472-1.344   C181.21,57.92,181.82,58.59,181.79,59.36L181.79,59.36z"/>
	<polygon fill="#F08300" points="195.82,56.94 ,195.18,58.53 ,193.74,58.53 ,192.32,62.08 ,190.37,62.08 ,191.77,58.53 ,190.19,58.53    ,190.83,56.94"/>
	<path fill="#F08300" d="M197.79,52.21c-1.008-0.096-3.024-0.144-5.056,0.112c-2.416,0.304-5.152,0.912-7.616,1.664   C183.07,54.59,181.2,55.31,179.85,56.08C180.05,56.05,180.24,56.03,180.43,56.03c0.48,0,0.944,0.112,1.36,0.288   C185.89,54,193.09,51.95,197.79,52.21L197.79,52.21L197.79,52.21z"/>
	<path fill="#F08300" d="M183.26,57.68c4-2.368,8.88-4.672,13.488-5.248c-4.608,0.288-10.224,2-14.288,4.304   C182.78,56.99,183.05,57.31,183.26,57.68C183.26,57.68,183.26,57.68,183.26,57.68z"/>
	<polygon fill="#F08300" points="201.31,56.94 ,200.69,58.53 ,199.23,58.53 ,197.82,62.08 ,197.36,62.08 ,195.85,62.08 ,194.16,62.08    ,194.75,60.58 ,196.46,60.58 ,197.28,58.53 ,195.69,58.53 ,196.33,56.94"/>
	<polygon fill="#F08300" points="190.4,56.94 ,189.76,58.53 ,187.47,60.64 ,189.73,60.64 ,189.15,62.08 ,183.66,62.08 ,187.33,58.53    ,184.75,58.53 ,185.39,56.94"/>
	<path fill="#F08300" d="M195.68,52.8c-3.376,0.752-6.464,2.192-9.424,3.952h1.888C190.57,55.18,192.91,53.75,195.68,52.8z    M184.88,57.62C184.25,58,184.19,58.05,183.58,58.46c0.064,0.256,0.112,0.544,0.112,0.816c0,0.496-0.112,0.976-0.32,1.392   c0.176-0.16,0.32-0.304,0.432-0.4c0.272-0.24,0.768-0.64,1.6-1.296l0.32-0.256H184.4l0,0L184.88,57.62L184.88,57.62L184.88,57.62z"/>
</g>
</svg>