<?xml version="1.0" encoding="utf-8"?>
<!-- Generator: Adobe Illustrator 23.0.0, SVG Export Plug-In . SVG Version: 6.00 Build 0)  -->
<svg xmlns="http://www.w3.org/2000/svg" xmlns:xlink="http://www.w3.org/1999/xlink" version="1.1" id="图层_1" x="0px" y="0px" width="378.5px" height="596px" viewBox="0 0 378.5 596" enable-background="new 0 0 378.5 596" xml:space="preserve">
<g>
	
		<path fill-rule="evenodd" clip-rule="evenodd" fill="#00778E" stroke="#DCDDDD" stroke-width="0.2" stroke-miterlimit="22.9256" d="   M189.31,595.75L189.31,595.75L189.31,595.75L189.31,595.75L189.31,595.75z M189.31,595.75c64.02-0.9,126.04-5.49,187.16-13.33   c-5.35-116.52-8.25-234.05,0.56-355.96l0,0c-60.9-23.3-92.24-86.61-80.53-208.4l0,0c-11.93-2.24-21.97-5.15-34.46-10.87   c7.47,64.98-22.53,115.4-72.72,142.18c-50.19-26.78-80.19-77.2-72.72-142.18c-12.49,5.6-22.64,8.63-34.46,10.87l0,0   c11.71,121.9-19.74,185.2-80.53,208.51l-0.22-2.35c9.03,122.69,6.13,241,0.78,358.31C62.72,590.26,128.29,595.75,189.31,595.75z"/>
	<g>
		<path fill-rule="evenodd" clip-rule="evenodd" fill="#152E51" d="M123.44,74.69L83.93,86.98c1.2-20.53,0.64-43.44-1.81-68.91l0,0    c11.82-2.24,21.97-5.27,34.46-10.87C113.74,31.98,116.35,54.65,123.44,74.69z"/>
		<path fill-rule="evenodd" clip-rule="evenodd" fill="#152E51" d="M255.15,74.76l39.53,12.29c-1.2-20.55-0.64-43.48,1.81-68.98l0,0    c-11.93-2.24-21.97-5.15-34.46-10.87C264.89,32.01,262.27,54.7,255.15,74.76z"/>
		<g>
			<path fill-rule="evenodd" clip-rule="evenodd" fill="#FFF500" d="M13.66,497.85l26.62,0.19l-21.43,15.87l8.05,25.49L5.25,523.85     l-0.69,0.5l0.19-5.21l0.5-0.36l14,10.07l-5.2-16.49l13.86-10.27l-17.22-0.12l-4.92-14.85c0.11-4.03,0.22-8.06,0.32-12.09     L13.66,497.85z"/>
			<path fill-rule="evenodd" clip-rule="evenodd" fill="#FFF500" d="M4.93,513.93l0.32-0.23l6.35,4.57l-2.36-7.48l6.29-4.66     l-7.81-0.06l-2.31-6.96C5.26,504.05,5.1,508.99,4.93,513.93z"/>
		</g>
		<g>
			<path fill-rule="evenodd" clip-rule="evenodd" fill="#FFF500" d="M13.66,404.11l26.62,0.19l-21.43,15.87l8.05,25.49L6.93,431.31     c0.02-1.68,0.04-3.35,0.06-5.03l12.26,8.81l-5.2-16.49l13.86-10.27l-17.22-0.12l-3.51-10.59c0.01-4.36,0.01-8.72-0.01-13.09     L13.66,404.11z"/>
			<path fill-rule="evenodd" clip-rule="evenodd" fill="#FFF500" d="M7.05,421.24l4.56,3.28l-2.36-7.48l6.29-4.66l-7.81-0.06     l-0.59-1.78C7.11,414.11,7.08,417.68,7.05,421.24z"/>
		</g>
		<g>
			<path fill-rule="evenodd" clip-rule="evenodd" fill="#FFF500" d="M13.66,310.36l26.62,0.19l-21.43,15.87l8.05,25.49L6.62,337.34     c-0.04-1.72-0.07-3.44-0.11-5.16l12.75,9.17l-5.2-16.49l13.86-10.27l-17.22-0.12l-5.2-15.69c-0.16-4.31-0.34-8.62-0.53-12.93     l0.29-0.86L13.66,310.36z"/>
			<path fill-rule="evenodd" clip-rule="evenodd" fill="#FFF500" d="M6.38,327.01l5.23,3.76l-2.36-7.48l6.29-4.66l-7.81-0.06     L6,313.36C6.14,317.92,6.27,322.47,6.38,327.01z"/>
		</g>
		<g>
			<path fill-rule="evenodd" clip-rule="evenodd" fill="#FFF500" d="M364.74,497.85l-26.62,0.19l21.43,15.87l-8.05,25.49     l21.65-15.56l0.91,0.65l-0.19-5.21l-0.72-0.52l-14,10.07l5.2-16.49l-13.86-10.27l17.22-0.12l5.11-15.42     c-0.11-4.03-0.22-8.06-0.32-12.09L364.74,497.85z"/>
			<path fill-rule="evenodd" clip-rule="evenodd" fill="#FFF500" d="M373.15,498.62l0.03,0.1c0.16,5.13,0.33,10.25,0.51,15.37     l-0.54-0.39l-6.35,4.57l2.36-7.48l-6.29-4.66l7.81-0.06L373.15,498.62z"/>
		</g>
		<g>
			<path fill-rule="evenodd" clip-rule="evenodd" fill="#FFF500" d="M364.74,404.11l-26.62,0.19l21.43,15.87l-8.05,25.49l20.16-14.5     c-0.02-1.68-0.04-3.35-0.06-5.03l-12.45,8.95l5.2-16.49l-13.86-10.27l17.22-0.12l3.69-11.15c-0.01-4.36-0.01-8.72,0.01-13.09     L364.74,404.11z"/>
			<path fill-rule="evenodd" clip-rule="evenodd" fill="#FFF500" d="M371.55,421.1l-4.75,3.42l2.36-7.48l-6.29-4.66l7.81-0.06     l0.78-2.34C371.48,413.69,371.51,417.4,371.55,421.1z"/>
		</g>
		<g>
			<path fill-rule="evenodd" clip-rule="evenodd" fill="#FFF500" d="M364.74,310.36l-26.62,0.19l21.43,15.87l-8.05,25.49     l20.47-14.71c0.04-1.72,0.07-3.44,0.11-5.16l-12.93,9.3l5.2-16.49l-13.86-10.27l17.22-0.12l5.4-16.29     c0.15-3.95,0.31-7.9,0.48-11.86l-0.44-1.33L364.74,310.36z"/>
			<path fill-rule="evenodd" clip-rule="evenodd" fill="#FFF500" d="M372.2,326.88l-5.41,3.89l2.36-7.48l-6.29-4.66l7.81-0.06     l1.92-5.8C372.46,317.48,372.32,322.18,372.2,326.88z"/>
		</g>
		<path fill-rule="evenodd" clip-rule="evenodd" fill="#152E51" d="M57.52,181.5l28.53,409.8c-4.18-0.33-8.36-0.69-12.53-1.05    L46.1,196.46C50.22,191.89,54.03,186.91,57.52,181.5z"/>
		<path fill-rule="evenodd" clip-rule="evenodd" fill="#152E51" d="M79.82,347.97l45.56,245.97c-9.5-0.51-19.03-1.12-28.56-1.82    L79.82,347.97z"/>
		<path fill-rule="evenodd" clip-rule="evenodd" fill="#152E51" d="M320.9,181.16l-28.53,409.9c4.18-0.32,8.36-0.66,12.53-1.01    l27.42-393.87C328.2,191.59,324.4,186.6,320.9,181.16z"/>
		<path fill-rule="evenodd" clip-rule="evenodd" fill="#152E51" d="M298.58,347.97l-45.5,245.64c9.54-0.51,19.05-1.09,28.52-1.76    L298.58,347.97z"/>
	</g>
	<path fill-rule="evenodd" clip-rule="evenodd" fill="#DCDDDD" d="M189.31,34.87c29.56-0.45,47.85-7.51,59.45-16.25   c0-0.11,0-0.11,0-0.22c0.56,57.93-23.53,91.65-59.56,113.72c-35.91-22.07-60.01-55.8-59.56-113.72c0,0.11,0,0.11,0,0.22   C141.35,27.36,159.76,34.42,189.31,34.87z"/>
	
		<path fill-rule="evenodd" clip-rule="evenodd" fill="#152E52" stroke="#DCDDDD" stroke-width="0.2" stroke-miterlimit="22.9256" d="   M1.49,226.57c60.9-23.3,92.24-86.61,80.53-208.4l-14.17,2.35C74.88,129.99,54.47,185.9,0.26,211.45L1.49,226.57z"/>
	
		<path fill-rule="evenodd" clip-rule="evenodd" fill="#152E52" stroke="#DCDDDD" stroke-width="0.2" stroke-miterlimit="22.9256" d="   M130.65,0.25c-6.13,69.24,19.07,107.56,58.67,131.87c39.6-24.31,64.8-62.63,58.67-131.87l14.05,7.06   c7.47,64.98-22.53,115.4-72.72,142.18c-50.19-26.78-80.19-77.2-72.72-142.18L130.65,0.25z"/>
	
		<path fill-rule="evenodd" clip-rule="evenodd" fill="#152E52" stroke="#DCDDDD" stroke-width="0.2" stroke-miterlimit="22.9256" d="   M377.02,226.57c-60.9-23.3-92.24-86.61-80.53-208.4l14.16,2.35c-7.03,109.46,13.38,165.37,67.59,190.92L377.02,226.57   L377.02,226.57z"/>
	
		<path fill-rule="evenodd" clip-rule="evenodd" fill="#152E52" stroke="#DCDDDD" stroke-width="0.2" stroke-miterlimit="22.9256" d="   M130.65,0.25c16.51,16.02,36.7,21.06,58.67,20.95c21.86,0,42.05-4.93,58.67-20.95c0.56,6.27,0.89,12.32,0.89,18.15   c0,0.11,0,0.11-0.11,0.22c-11.6,8.74-30,15.8-59.45,16.25c-29.56-0.45-47.85-7.51-59.45-16.25c0-0.11,0-0.11-0.11-0.22   C129.86,12.69,130.09,6.64,130.65,0.25z"/>
	
	<path fill-rule="evenodd" clip-rule="evenodd" fill="#00778D" d="M75.64,19.14C85.76,133.67,57.04,195.42,1.1,220.35l0.5,6.11   c0.02-0.01,0.04-0.01,0.06-0.02c0.02-0.01,0.03-0.01,0.05-0.02c60.83-23.34,92.13-86.64,80.42-208.36L75.64,19.14z"/>
	<path fill-rule="evenodd" clip-rule="evenodd" fill="#00778D" d="M377.58,219.73c-55.37-25.1-83.79-86.66-73.85-200.35l-7.24-1.2   c-1.63,16.91-2.42,32.7-2.42,47.4c0.01,91.13,30.53,140.82,82.95,160.88c0,0.04-0.01,0.07-0.01,0.11h0.01L377.58,219.73z"/>
	<path fill-rule="evenodd" clip-rule="evenodd" fill="#00778D" d="M189.51,142.7c-46.45-27.49-73.74-76.32-66.67-138.53l-6.25,3.14   c-0.76,6.62-1.13,13.08-1.14,19.38c-0.02,55.62,28.77,98.74,73.86,122.8c2.08-1.11,4.12-2.26,6.12-3.44   c41.55-24.61,67.75-66.29,67.73-119.35c0-0.04,0-0.09,0-0.13c-0.01-6.26-0.38-12.68-1.14-19.25l-6.91-3.47l0.08,0.67   C262.32,66.39,235.43,115.07,189.51,142.7z"/>
	<path fill-rule="evenodd" clip-rule="evenodd" fill="#00778D" d="M190.36,27.98c-21.03,0.11-43.91-4.51-60.3-18.96   c-0.16,3.22-0.25,6.35-0.31,9.38c0.11,0.11,0.11,0.11,0.11,0.22c10.79,8.13,27.37,14.8,53.42,16.06c1.96,0.09,3.97,0.16,6.03,0.19   c29.45-0.45,47.85-7.51,59.45-16.25c0.11-0.11,0.11-0.11,0.11-0.22c0-0.77-0.01-1.55-0.02-2.33c-0.04-2.01-0.11-4.05-0.21-6.12   C232.35,23.38,210.62,27.98,190.36,27.98z"/>
</g>
<g id="图层_x0020_1">
	<path fill="#F08300" d="M177.5,60.23c0.416,1.136,1.472,1.984,2.752,2.032c0.144,0,0.304,0,0.448-0.016h0.016   c0.016,0,0.064,0,0.128-0.016c0.032,0,0.048-0.016,0.08-0.016c0.064-0.016,0.144-0.032,0.224-0.048c0.016,0,0.016,0,0.032,0   c0.192-0.048,0.4-0.112,0.576-0.208c0.192-0.096,0.4-0.224,0.608-0.384c0.672-0.56,1.104-1.408,1.104-2.352   c0-0.224-0.032-0.448-0.08-0.672l0,0C183.34,58.35,183.29,58.18,183.21,58C182.74,56.91,181.66,56.15,180.39,56.15C178.7,56.15,177.32,57.52,177.32,59.22C177.32,59.57,177.38,59.91,177.5,60.23L177.5,60.23L177.5,60.23z M181.8,59.25L181.8,59.25C181.77,60.03,181.11,60.63,180.33,60.59C179.54,60.56,178.95,59.91,178.98,59.12c0.032-0.784,0.688-1.376,1.472-1.344   C181.22,57.81,181.83,58.48,181.8,59.25L181.8,59.25z"/>
	<polygon fill="#F08300" points="195.83,56.83 ,195.19,58.42 ,193.75,58.42 ,192.33,61.97 ,190.38,61.97 ,191.78,58.42 ,190.2,58.42    ,190.84,56.83"/>
	<path fill="#F08300" d="M197.8,52.1c-1.008-0.096-3.024-0.144-5.056,0.112c-2.416,0.304-5.152,0.912-7.616,1.664   C183.08,54.48,181.21,55.2,179.86,55.97C180.06,55.94,180.25,55.92,180.44,55.92c0.48,0,0.944,0.112,1.36,0.288   C185.9,53.89,193.1,51.84,197.8,52.1L197.8,52.1L197.8,52.1z"/>
	<path fill="#F08300" d="M183.27,57.57c4-2.368,8.88-4.672,13.488-5.248c-4.608,0.288-10.224,2-14.288,4.304   C182.79,56.88,183.06,57.2,183.27,57.57C183.27,57.57,183.27,57.57,183.27,57.57z"/>
	<polygon fill="#F08300" points="201.32,56.83 ,200.7,58.42 ,199.24,58.42 ,197.83,61.97 ,197.37,61.97 ,195.86,61.97 ,194.17,61.97    ,194.76,60.47 ,196.47,60.47 ,197.29,58.42 ,195.7,58.42 ,196.34,56.83"/>
	<polygon fill="#F08300" points="190.41,56.83 ,189.77,58.42 ,187.48,60.53 ,189.74,60.53 ,189.16,61.97 ,183.67,61.97 ,187.34,58.42    ,184.76,58.42 ,185.4,56.83"/>
	<path fill="#F08300" d="M195.69,52.69c-3.376,0.752-6.464,2.192-9.424,3.952h1.888C190.58,55.07,192.92,53.64,195.69,52.69z    M184.89,57.51C184.26,57.89,184.2,57.94,183.59,58.35c0.064,0.256,0.112,0.544,0.112,0.816c0,0.496-0.112,0.976-0.32,1.392   c0.176-0.16,0.32-0.304,0.432-0.4c0.272-0.24,0.768-0.64,1.6-1.296l0.32-0.256H184.41l0,0L184.89,57.51L184.89,57.51L184.89,57.51z"/>
</g>
</svg>