<?xml version="1.0" encoding="utf-8"?>
<!-- Generator: Adobe Illustrator 23.0.0, SVG Export Plug-In . SVG Version: 6.00 Build 0)  -->
<svg version="1.1" id="图层_1" xmlns="http://www.w3.org/2000/svg" xmlns:xlink="http://www.w3.org/1999/xlink" x="0px" y="0px"
	 width="378.5px" height="456px" viewBox="0 0 378.5 456" enable-background="new 0 0 378.5 456" xml:space="preserve">
<g>
	
		<path fill-rule="evenodd" clip-rule="evenodd" fill="#08A6C1" stroke="#DCDDDD" stroke-width="0.2" stroke-miterlimit="22.9256" d="
		M189.26,31.44c47.2,1.1,89.71-2.15,129.85-7.61v0.02l1.97,8.28l0.17,0.69v0.01c26.94,82.67,42.27,225.18,56.03,375.73l0.93,10.17
		c-49.96,38.86-109.66,42.91-173.78,31.14l-15.18-80.49l-15.17,80.49c-64.13,11.78-123.81,7.72-173.78-31.14l0.93-10.17
		C14.96,258.02,30.28,115.5,57.25,32.83v-0.01l0.17-0.69l1.99-8.28v-0.02C99.54,29.3,142.06,32.54,189.26,31.44z"/>
	<g>
		<path fill-rule="evenodd" clip-rule="evenodd" fill="#00778D" d="M91.12,27.6l-5.2,28.28C64.67,171.43,44.53,286.76,36.36,404.11
			l-2.44,35.1c-11.63-5.33-22.86-12.09-33.64-20.47l0.93-10.17C14.96,258.02,30.28,115.5,57.25,32.83v-0.01l0.17-0.69l1.99-8.28
			v-0.02C69.8,25.25,80.36,26.51,91.12,27.6z"/>
		<path fill-rule="evenodd" clip-rule="evenodd" fill="#FFF500" d="M74.06,86.14L44.03,81.8c0.29-1.26,0.57-2.51,0.86-3.76
			l29.86,4.31L74.06,86.14L74.06,86.14z M2.29,396.73c0.65-7.07,1.31-14.11,1.97-21.13l27.66,3.99c-0.59,7.05-1.14,14.11-1.64,21.18
			L2.29,396.73L2.29,396.73z M5.6,361.55c0.62-6.43,1.24-12.83,1.86-19.2L35,346.33c-0.65,6.4-1.27,12.8-1.85,19.2L5.6,361.55
			L5.6,361.55z M9.04,326.38c0.58-5.78,1.17-11.54,1.76-17.27l27.82,4.02c-0.67,5.74-1.32,11.49-1.95,17.24L9.04,326.38L9.04,326.38
			z M12.69,291.25c0.55-5.14,1.11-10.25,1.67-15.33l28.39,4.1c-0.67,5.09-1.33,10.19-1.96,15.29L12.69,291.25L12.69,291.25z
			 M16.6,256.15c0.52-4.49,1.05-8.96,1.58-13.39l29.13,4.21c-0.64,4.45-1.27,8.9-1.89,13.35L16.6,256.15L16.6,256.15z M20.85,221.1
			c0.49-3.85,0.98-7.67,1.48-11.46l29.92,4.32c-0.59,3.81-1.18,7.61-1.75,11.42L20.85,221.1L20.85,221.1z M25.55,186.12
			c0.45-3.2,0.91-6.38,1.37-9.53l30.61,4.42c-0.52,3.17-1.04,6.33-1.55,9.5L25.55,186.12L25.55,186.12z M30.83,151.22
			c0.41-2.55,0.83-5.08,1.24-7.6l31,4.48c-0.44,2.53-0.87,5.06-1.3,7.59L30.83,151.22L30.83,151.22z M36.88,116.43
			c0.36-1.9,0.72-3.8,1.08-5.67l30.87,4.46l-1.01,5.68L36.88,116.43z"/>
		<path fill-rule="evenodd" clip-rule="evenodd" fill="#00778D" d="M287.37,27.59l5.2,28.28c21.25,115.56,41.38,230.89,49.56,348.23
			l2.44,35.1c11.63-5.33,22.86-12.09,33.64-20.47l-0.93-10.17c-13.76-150.55-29.09-293.06-56.03-375.73v-0.01l-0.17-0.69l-1.97-8.28
			v-0.02C308.7,25.25,298.14,26.51,287.37,27.59z"/>
		<path fill-rule="evenodd" clip-rule="evenodd" fill="#FFF500" d="M304.43,86.14l30.03-4.34c-0.29-1.26-0.57-2.51-0.86-3.76
			l-29.86,4.31L304.43,86.14L304.43,86.14z M340.52,110.76c0.36,1.88,0.72,3.77,1.08,5.67l-30.94,4.47l-1.01-5.68L340.52,110.76
			L340.52,110.76z M346.41,143.62c0.42,2.51,0.83,5.05,1.24,7.6l-30.95,4.47c-0.43-2.53-0.86-5.06-1.3-7.59L346.41,143.62
			L346.41,143.62z M351.56,176.59c0.46,3.15,0.92,6.33,1.37,9.53l-30.43,4.39c-0.51-3.17-1.03-6.34-1.55-9.5L351.56,176.59
			L351.56,176.59z M356.15,209.64c0.5,3.79,0.99,7.61,1.48,11.46l-29.65,4.28c-0.58-3.81-1.16-7.62-1.75-11.42L356.15,209.64
			L356.15,209.64z M360.3,242.76c0.53,4.44,1.06,8.9,1.58,13.39l-28.82,4.16c-0.62-4.45-1.25-8.9-1.89-13.35L360.3,242.76
			L360.3,242.76z M364.12,275.92c0.56,5.08,1.12,10.19,1.67,15.33l-28.1,4.06c-0.64-5.1-1.29-10.19-1.96-15.29L364.12,275.92
			L364.12,275.92z M367.68,309.12c0.59,5.73,1.18,11.48,1.76,17.26l-27.63,3.99c-0.63-5.75-1.28-11.5-1.95-17.24L367.68,309.12
			L367.68,309.12z M371.03,342.35c0.63,6.37,1.25,12.77,1.86,19.2l-27.55,3.98c-0.58-6.41-1.2-12.81-1.85-19.2L371.03,342.35
			L371.03,342.35z M374.23,375.6c0.66,7.02,1.32,14.07,1.97,21.13l-27.98,4.04c-0.51-7.07-1.06-14.13-1.64-21.18L374.23,375.6z"/>
	</g>
	
		<path fill-rule="evenodd" clip-rule="evenodd" fill="#08A6C1" stroke="#DCDDDD" stroke-width="0.2" stroke-miterlimit="22.9256" d="
		M189.25,31.44c47.2,1.1,89.71-2.15,129.85-7.61v0.02L315.6,0.3c-35.43,6-77.76,8.81-126.35,8.74C140.66,9.11,98.33,6.3,62.9,0.31
		l-3.5,23.55l0.01-0.02C99.54,29.3,142.05,32.54,189.25,31.44z"/>
	<path fill-rule="evenodd" clip-rule="evenodd" fill="#00778D" d="M95.32,4.71C83.95,3.5,73.13,2.04,62.9,0.31l-3.5,23.55l0.01-0.02
		c10.4,1.41,20.95,2.68,31.71,3.76L95.32,4.71z"/>
	
		<line fill="none" stroke="#DCDDDD" stroke-width="0.2" stroke-miterlimit="22.9256" x1="189.25" y1="369.38" x2="189.25" y2="40.95"/>
	<path fill="none" stroke="#DCDDDD" stroke-width="0.2" stroke-miterlimit="22.9256" d="M59.44,23.81
		c40.13,5.46,82.65,8.71,129.85,7.61c47.2,1.1,89.68-2.13,129.81-7.59l0.04-0.01"/>
	<g>
		<path fill-rule="evenodd" clip-rule="evenodd" fill="#DCDDDD" d="M63.51,24.06l3.16-21.59l1.21,0.17l-3.16,21.59L63.51,24.06
			L63.51,24.06L63.51,24.06z M67.39,24.36L67.39,24.36l1.21,0.17l3.15-21.59l-1.19-0.17L67.39,24.36L67.39,24.36L67.39,24.36z
			 M71.26,24.96L71.26,24.96l2.76-21.64l1.21,0.15L72.46,25.1L71.26,24.96L71.26,24.96L71.26,24.96z M74.99,25.27L74.99,25.27
			l1.21,0.15l2.77-21.64l-1.21-0.15L74.99,25.27L74.99,25.27L74.99,25.27z M78.87,25.87L78.87,25.87l2.76-21.64l1.21,0.15
			l-2.76,21.64L78.87,25.87L78.87,25.87L78.87,25.87z M82.74,26.17L82.74,26.17l1.21,0.15l2.77-21.64l-1.21-0.15L82.74,26.17
			L82.74,26.17L82.74,26.17z M86.61,26.76L86.61,26.76l2.37-21.68l1.21,0.12l-2.37,21.68L86.61,26.76L86.61,26.76L86.61,26.76z
			 M90.47,27.08L90.47,27.08l2.36-21.69l1.21,0.12L91.67,27.2L90.47,27.08L90.47,27.08L90.47,27.08z M94.21,27.38L94.21,27.38
			L96.57,5.7l1.21,0.12L95.41,27.5L94.21,27.38L94.21,27.38L94.21,27.38z M98.08,27.68L98.08,27.68l2.37-21.69l1.21,0.12L99.28,27.8
			L98.08,27.68L98.08,27.68L98.08,27.68z M101.95,27.97L101.95,27.97l1.97-21.72l1.21,0.1l-1.97,21.72L101.95,27.97L101.95,27.97
			L101.95,27.97z M105.82,28.27L105.82,28.27l1.97-21.72l1.21,0.1l-1.97,21.72L105.82,28.27L105.82,28.27L105.82,28.27z
			 M109.68,28.57L109.68,28.57l1.97-21.72l1.21,0.1l-1.97,21.72L109.68,28.57L109.68,28.57L109.68,28.57z M113.55,28.87
			L113.55,28.87l1.97-21.72l1.21,0.1l-1.97,21.72L113.55,28.87L113.55,28.87L113.55,28.87z M117.42,29.18L117.42,29.18l1.97-21.72
			l1.21,0.1l-1.97,21.72L117.42,29.18L117.42,29.18L117.42,29.18z M121.28,29.46L121.28,29.46l1.58-21.74l1.21,0.08l-1.58,21.74
			L121.28,29.46L121.28,29.46L121.28,29.46z M125.15,29.77L125.15,29.77l1.58-21.76l1.21,0.09l-1.57,21.74L125.15,29.77
			L125.15,29.77L125.15,29.77z M129.03,29.77L129.03,29.77l1.58-21.76l1.21,0.08l-1.58,21.74L129.03,29.77L129.03,29.77
			L129.03,29.77z M132.9,30.05L132.9,30.05l1.18-21.78l1.22,0.07l-1.18,21.77L132.9,30.05L132.9,30.05L132.9,30.05z M136.76,30.36
			L136.76,30.36l1.18-21.78l1.22,0.06l-1.18,21.78L136.76,30.36L136.76,30.36L136.76,30.36z M140.63,30.36L140.63,30.36l1.18-21.78
			l1.21,0.06l-1.18,21.78L140.63,30.36L140.63,30.36L140.63,30.36z M144.5,30.65L144.5,30.65l0.79-21.79l1.22,0.04l-0.79,21.79
			L144.5,30.65L144.5,30.65L144.5,30.65z M148.36,30.65L148.36,30.65l0.79-21.79l1.22,0.04l-0.79,21.79L148.36,30.65L148.36,30.65
			L148.36,30.65z M152.1,30.65L152.1,30.65l0.79-21.79l1.22,0.04l-0.79,21.79L152.1,30.65L152.1,30.65L152.1,30.65z M155.97,30.95
			L155.97,30.95l0.79-21.79l1.22,0.04l-0.79,21.79L155.97,30.95L155.97,30.95L155.97,30.95z M159.84,30.92L159.84,30.92l0.39-21.8
			l1.22,0.02l-0.39,21.8L159.84,30.92L159.84,30.92L159.84,30.92z M163.7,30.92L163.7,30.92l0.39-21.8l1.22,0.02l-0.39,21.8
			L163.7,30.92L163.7,30.92L163.7,30.92z M167.57,30.92L167.57,30.92l0.39-21.8l1.22,0.02l-0.39,21.8L167.57,30.92L167.57,30.92
			L167.57,30.92z M171.44,30.92L171.44,30.92l0.39-21.8l1.22,0.02l-0.39,21.8L171.44,30.92L171.44,30.92L171.44,30.92z M175.3,30.89
			L175.3,30.89l-0.39-21.8l1.22-0.02l0.39,21.8L175.3,30.89L175.3,30.89L175.3,30.89z M179.17,30.89L179.17,30.89l-0.39-21.8
			l1.21-0.02l0.39,21.8L179.17,30.89L179.17,30.89L179.17,30.89z M183.05,30.89L183.05,30.89l-0.4-21.8l1.22-0.02l0.39,21.8
			L183.05,30.89L183.05,30.89L183.05,30.89z M186.91,30.87L186.91,30.87l0.03-21.79l1.21-0.04l-0.03,21.79L186.91,30.87z"/>
		<path fill-rule="evenodd" clip-rule="evenodd" fill="#DCDDDD" d="M315.87,24.06l-3.14-21.59l-1.21,0.17l3.16,21.59L315.87,24.06
			L315.87,24.06L315.87,24.06z M312.01,24.36L312.01,24.36l-1.21,0.17l-3.15-21.59l1.19-0.17L312.01,24.36L312.01,24.36
			L312.01,24.36z M308.14,24.96L308.14,24.96l-2.76-21.64l-1.21,0.15l2.77,21.64L308.14,24.96L308.14,24.96L308.14,24.96z
			 M304.41,25.27L304.41,25.27l-1.21,0.15l-2.77-21.65l1.21-0.15L304.41,25.27L304.41,25.27L304.41,25.27z M300.53,25.87
			L300.53,25.87l-2.77-21.64l-1.21,0.15l2.76,21.64L300.53,25.87L300.53,25.87L300.53,25.87z M296.66,26.17L296.66,26.17l-1.21,0.15
			l-2.76-21.64l1.21-0.15L296.66,26.17L296.66,26.17L296.66,26.17z M292.79,26.76L292.79,26.76l-2.36-21.69l-1.21,0.12l2.37,21.68
			L292.79,26.76L292.79,26.76L292.79,26.76z M288.93,27.08L288.93,27.08l-2.37-21.69l-1.21,0.12l2.37,21.69L288.93,27.08
			L288.93,27.08L288.93,27.08z M285.19,27.38L285.19,27.38L282.83,5.7l-1.21,0.12l2.37,21.69L285.19,27.38L285.19,27.38
			L285.19,27.38z M281.32,27.68L281.32,27.68l-2.37-21.69l-1.21,0.12l2.37,21.68L281.32,27.68L281.32,27.68L281.32,27.68z
			 M277.45,27.97L277.45,27.97l-1.97-21.72l-1.21,0.1l1.97,21.72L277.45,27.97L277.45,27.97L277.45,27.97z M273.59,28.27
			L273.59,28.27l-1.97-21.72l-1.21,0.1l1.97,21.72L273.59,28.27L273.59,28.27L273.59,28.27z M269.72,28.57L269.72,28.57l-1.97-21.72
			l-1.21,0.1l1.97,21.72L269.72,28.57L269.72,28.57L269.72,28.57z M265.85,28.87L265.85,28.87l-1.97-21.72l-1.21,0.1l1.97,21.72
			L265.85,28.87L265.85,28.87L265.85,28.87z M261.98,29.18L261.98,29.18l-1.97-21.72l-1.21,0.1l1.97,21.72L261.98,29.18
			L261.98,29.18L261.98,29.18z M258.12,29.46L258.12,29.46l-1.59-21.74l-1.2,0.08l1.58,21.74L258.12,29.46L258.12,29.46
			L258.12,29.46z M254.25,29.77L254.25,29.77l-1.58-21.76l-1.21,0.09l1.58,21.74L254.25,29.77L254.25,29.77L254.25,29.77z
			 M250.37,29.77L250.37,29.77L248.8,8.01l-1.21,0.09l1.58,21.74L250.37,29.77L250.37,29.77L250.37,29.77z M246.5,30.05L246.5,30.05
			l-1.18-21.78l-1.22,0.07l1.18,21.77L246.5,30.05L246.5,30.05L246.5,30.05z M242.64,30.36L242.64,30.36l-1.18-21.78l-1.21,0.06
			l1.18,21.78L242.64,30.36L242.64,30.36L242.64,30.36z M238.77,30.36L238.77,30.36L237.6,8.58l-1.22,0.06l1.18,21.78L238.77,30.36
			L238.77,30.36L238.77,30.36z M234.9,30.65L234.9,30.65l-0.79-21.79L232.9,8.9l0.79,21.79L234.9,30.65L234.9,30.65L234.9,30.65z
			 M231.04,30.65L231.04,30.65l-0.79-21.79l-1.21,0.04l0.79,21.79L231.04,30.65L231.04,30.65L231.04,30.65z M227.3,30.65
			L227.3,30.65l-0.79-21.79l-1.22,0.04l0.79,21.79L227.3,30.65L227.3,30.65L227.3,30.65z M223.43,30.95L223.43,30.95l-0.79-21.79
			l-1.22,0.04l0.79,21.79L223.43,30.95L223.43,30.95L223.43,30.95z M219.56,30.92L219.56,30.92l-0.39-21.79l-1.22,0.02l0.39,21.8
			L219.56,30.92L219.56,30.92L219.56,30.92z M215.69,30.92L215.69,30.92l-0.39-21.8l-1.21,0.02l0.39,21.8L215.69,30.92L215.69,30.92
			L215.69,30.92z M211.83,30.92L211.83,30.92l-0.39-21.8l-1.22,0.02l0.39,21.8L211.83,30.92L211.83,30.92L211.83,30.92z
			 M207.96,30.92L207.96,30.92l-0.39-21.79l-1.22,0.02l0.39,21.8L207.96,30.92L207.96,30.92L207.96,30.92z M204.1,30.89L204.1,30.89
			l0.39-21.8l-1.21-0.02l-0.4,21.8L204.1,30.89L204.1,30.89L204.1,30.89z M200.23,30.89L200.23,30.89l0.39-21.8l-1.21-0.02
			l-0.39,21.8L200.23,30.89L200.23,30.89L200.23,30.89z M196.36,30.89L196.36,30.89l0.4-21.8l-1.22-0.02l-0.39,21.8L196.36,30.89
			L196.36,30.89L196.36,30.89z M192.48,30.87L192.48,30.87l-0.42-21.79l-1.22-0.04l0.42,21.79L192.48,30.87z"/>
	</g>
	
		<path fill-rule="evenodd" clip-rule="evenodd" fill="#FFFFFA" stroke="#DCDDDD" stroke-width="0.2" stroke-miterlimit="22.9256" d="
		M180.45,22.51c1.58,0.11,3.25,0.22,4.76,1.08c5.68,3.25,4.72,11.09,3.63,22.25c-7.62,13.96-24.24,38-14.44,71.51l4.67-1.64
		c-4.23-25.11,2.06-38.67,8.82-51.87c0.25,13.79,3.32,30.2,15.45,48.03l3.44-3.49c-14.21-28.72-11.35-46.31-10.2-65.9
		c0.28-5.11,0.61-12.16-0.18-16.48C195.46,19.51,184.76,11.98,180.45,22.51z"/>
	<path fill-rule="evenodd" clip-rule="evenodd" fill="#00778D" d="M283.16,4.71l4.21,22.88c10.76-1.08,21.33-2.35,31.73-3.76v0.02
		L315.6,0.3C305.36,2.03,294.54,3.5,283.16,4.71z"/>
</g>
</svg>
