<?xml version="1.0" encoding="utf-8"?>
<!-- Generator: Adobe Illustrator 23.0.0, SVG Export Plug-In . SVG Version: 6.00 Build 0)  -->
<svg xmlns="http://www.w3.org/2000/svg" xmlns:xlink="http://www.w3.org/1999/xlink" version="1.1" id="图层_1" x="0px" y="0px" width="378.5px" height="596px" viewBox="0 0 378.5 596" enable-background="new 0 0 378.5 596" xml:space="preserve">
<g>
	
		<path fill-rule="evenodd" clip-rule="evenodd" fill="#FFFFFE" stroke="#DCDDDD" stroke-width="0.2" stroke-miterlimit="22.9256" d="   M189.3,595.75L189.3,595.75L189.3,595.75L189.3,595.75L189.3,595.75z M189.3,595.75c64.02-0.9,126.03-5.49,187.16-13.33   c-5.35-116.52-8.25-234.05,0.56-355.96l0,0c-60.9-23.3-92.24-86.61-80.53-208.4l0,0c-11.93-2.24-21.97-5.15-34.46-10.87   c7.47,64.98-22.53,115.4-72.72,142.18c-50.19-26.78-80.19-77.2-72.72-142.18c-12.49,5.6-22.64,8.63-34.46,10.87l0,0   c11.71,121.9-19.74,185.2-80.53,208.51l-0.22-2.35c9.03,122.69,6.13,241,0.78,358.31C62.71,590.26,128.29,595.75,189.3,595.75z"/>
	<path fill-rule="evenodd" clip-rule="evenodd" fill="#990000" d="M50.55,191.2l43.39,119.51L37.59,204.92   C42.23,200.78,46.55,196.21,50.55,191.2z"/>
	<path fill-rule="evenodd" clip-rule="evenodd" fill="#333333" d="M32.42,209.26l66.71,197.19L21.56,216.79   C25.33,214.49,28.96,211.99,32.42,209.26z"/>
	<path fill-rule="evenodd" clip-rule="evenodd" fill="#CCCCCC" d="M6.77,442.16l107.2,92.71l-58.58-153.7l43.74,25.28L21.56,216.79   c-6.25,3.82-12.91,7.07-19.97,9.78l-0.22-2.35C6.81,298.21,7.92,370.61,6.77,442.16z"/>
	<path fill-rule="evenodd" clip-rule="evenodd" fill="#990000" d="M116.69,593.45L5.38,499.84c-0.54,17.36-1.19,34.69-1.9,51.99   l42.55,35.79C69.37,590.04,93.09,592.04,116.69,593.45z"/>
	<path fill-rule="evenodd" clip-rule="evenodd" fill="#990000" d="M262.1,593.11l111.1-93.44c0.55,17.36,1.19,34.68,1.91,51.98   l-42.59,35.83C309.23,589.84,285.78,591.73,262.1,593.11z"/>
	<path fill-rule="evenodd" clip-rule="evenodd" fill="#990000" d="M327.91,190.98l-43.47,119.73l56.45-105.97   C336.24,200.59,331.92,196.01,327.91,190.98z"/>
	<path fill-rule="evenodd" clip-rule="evenodd" fill="#333333" d="M346.03,209.06l-66.78,197.39l77.65-189.84   C353.12,214.3,349.49,211.79,346.03,209.06z"/>
	<path fill-rule="evenodd" clip-rule="evenodd" fill="#CCCCCC" d="M371.81,442l-107.39,92.87L323,381.17l-43.74,25.28l77.65-189.84   c6.29,3.85,13,7.13,20.12,9.85l0,0C371.73,299.64,370.66,371.24,371.81,442z"/>
	<path fill-rule="evenodd" clip-rule="evenodd" fill="#DCDDDD" d="M189.3,34.87c29.56-0.45,47.85-7.51,59.45-16.25   c0-0.11,0-0.11,0-0.22c0.56,57.93-23.53,91.65-59.56,113.72c-35.91-22.07-60.01-55.8-59.56-113.72c0,0.11,0,0.11,0,0.22   C141.34,27.36,159.75,34.42,189.3,34.87z"/>
	
		<path fill-rule="evenodd" clip-rule="evenodd" fill="#990000" stroke="#DCDDDD" stroke-width="0.2" stroke-miterlimit="22.9256" d="   M1.48,226.57c60.9-23.3,92.24-86.61,80.53-208.4l-14.17,2.35C74.87,129.99,54.46,185.9,0.25,211.45L1.48,226.57z"/>
	
		<path fill-rule="evenodd" clip-rule="evenodd" fill="#990000" stroke="#DCDDDD" stroke-width="0.2" stroke-miterlimit="22.9256" d="   M130.64,0.25c-6.13,69.24,19.07,107.56,58.67,131.87c39.6-24.31,64.8-62.63,58.67-131.87l14.05,7.06   c7.47,64.98-22.53,115.4-72.72,142.18c-50.19-26.78-80.19-77.2-72.72-142.18L130.64,0.25z"/>
	
		<path fill-rule="evenodd" clip-rule="evenodd" fill="#990000" stroke="#DCDDDD" stroke-width="0.2" stroke-miterlimit="22.9256" d="   M377.02,226.57c-60.9-23.3-92.24-86.61-80.53-208.4l14.17,2.35c-7.03,109.46,13.38,165.37,67.59,190.92L377.02,226.57   L377.02,226.57z"/>
	
		<path fill-rule="evenodd" clip-rule="evenodd" fill="#990000" stroke="#DCDDDD" stroke-width="0.2" stroke-miterlimit="22.9256" d="   M130.64,0.25c16.51,16.02,36.7,21.06,58.67,20.95c21.86,0,42.05-4.93,58.67-20.95c0.56,6.27,0.89,12.32,0.89,18.15   c0,0.11,0,0.11-0.11,0.22c-11.6,8.74-30,15.8-59.45,16.25c-29.56-0.45-47.85-7.51-59.45-16.25c0-0.11,0-0.11-0.11-0.22   C129.85,12.69,130.08,6.64,130.64,0.25z"/>
	<g>
		<g>
			<path fill-rule="evenodd" clip-rule="evenodd" fill="#990000" d="M371.33,401.02l-75.12,88.18l23.21-100.57l-40.16,17.83     l90.32-183.06c2.4,1.09,4.84,2.12,7.34,3.08l0.22-2.35C372.72,283.99,371.15,342.83,371.33,401.02z"/>
			<g>
				<g>
					<polygon fill-rule="evenodd" clip-rule="evenodd" fill="#F75D59" points="293.43,400.15 284.67,395.46 284.24,396.35        289.48,401.91      "/>
					<path fill-rule="evenodd" clip-rule="evenodd" fill="#F75D59" d="M297.09,391.06c4.67-4.94,9.33-9.88,14-14.83       c-4.67,2.5-9.33,4.99-14,7.49l-5.24-2.8l-1.49,3.01L297.09,391.06z"/>
					<path fill-rule="evenodd" clip-rule="evenodd" fill="#F75D59" d="M297.09,372.17c4.34-4.59,8.68-9.19,13.01-13.78l-9.69,5.19       l-3.92,7.95L297.09,372.17z"/>
					<polygon fill-rule="evenodd" clip-rule="evenodd" fill="#F75D59" points="309.21,432.83 310.1,431.89 309.34,432.3      "/>
					<polygon fill-rule="evenodd" clip-rule="evenodd" fill="#F75D59" points="303.76,456.45 309.12,450.78 304.5,453.25      "/>
					<polygon fill-rule="evenodd" clip-rule="evenodd" fill="#F75D59" points="298.31,480.08 308.13,469.68 299.66,474.21      "/>
				</g>
				<g>
					<polygon fill-rule="evenodd" clip-rule="evenodd" fill="#F75D59" points="316.17,465.76 303.21,458.82 303.18,458.95        313.06,469.41      "/>
					<polygon fill-rule="evenodd" clip-rule="evenodd" fill="#F75D59" points="335.47,443.1 321.83,450.4 306.99,442.46        306.69,443.77 321.52,459.48      "/>
					<path fill-rule="evenodd" clip-rule="evenodd" fill="#F75D59" d="M321.83,440.9c5.65-5.98,11.3-11.97,16.95-17.95       c-5.65,3.02-11.3,6.05-16.95,9.07l-11.06-5.92l-0.57,2.48L321.83,440.9z"/>
					<path fill-rule="evenodd" clip-rule="evenodd" fill="#F75D59" d="M321.83,422.01c5.32-5.64,10.64-11.27,15.97-16.91       c-5.32,2.85-10.65,5.7-15.97,8.54l-7.29-3.9l-0.84,3.65L321.83,422.01z"/>
					<path fill-rule="evenodd" clip-rule="evenodd" fill="#F75D59" d="M321.83,403.11c4.99-5.29,9.99-10.58,14.98-15.87       c-4.99,2.67-9.99,5.34-14.98,8.02l-3.51-1.88l-1.11,4.83L321.83,403.11L321.83,403.11z M313.95,391.04l-7.11-3.8l4.63,4.9       L313.95,391.04z"/>
					<path fill-rule="evenodd" clip-rule="evenodd" fill="#F75D59" d="M321.83,384.21c4.67-4.94,9.33-9.88,14-14.83       c-4.67,2.5-9.33,4.99-14,7.49c-4.67-2.5-9.33-4.99-14-7.49C312.5,374.33,317.16,379.27,321.83,384.21z"/>
					<path fill-rule="evenodd" clip-rule="evenodd" fill="#F75D59" d="M321.83,365.32c4.34-4.59,8.68-9.19,13.01-13.78       c-4.34,2.32-8.68,4.64-13.01,6.96c-4.34-2.32-8.68-4.64-13.01-6.96C313.15,356.13,317.49,360.72,321.83,365.32z"/>
					<path fill-rule="evenodd" clip-rule="evenodd" fill="#F75D59" d="M321.83,346.42c4.01-4.25,8.02-8.49,12.03-12.74       c-4.01,2.15-8.02,4.29-12.03,6.44l-7.79-4.17l-0.72,1.46L321.83,346.42z"/>
					<path fill-rule="evenodd" clip-rule="evenodd" fill="#F75D59" d="M321.83,327.52c3.68-3.9,7.36-7.8,11.04-11.7       c-3.68,1.97-7.36,3.94-11.04,5.91l-0.62-0.33l-1.77,3.59L321.83,327.52z"/>
				</g>
				<g>
					<path fill-rule="evenodd" clip-rule="evenodd" fill="#F75D59" d="M346.57,409.96c4.99-5.29,9.99-10.58,14.98-15.87       c-4.99,2.67-9.99,5.34-14.98,8.02c-4.99-2.67-9.99-5.34-14.98-8.02C336.58,399.38,341.58,404.67,346.57,409.96z"/>
					<path fill-rule="evenodd" clip-rule="evenodd" fill="#F75D59" d="M346.57,391.06c4.67-4.94,9.33-9.88,14-14.83       c-4.67,2.5-9.33,4.99-14,7.49c-4.67-2.5-9.33-4.99-14-7.49C337.24,381.18,341.91,386.12,346.57,391.06z"/>
					<path fill-rule="evenodd" clip-rule="evenodd" fill="#F75D59" d="M346.57,372.17c4.34-4.59,8.68-9.19,13.01-13.78       c-4.34,2.32-8.68,4.64-13.01,6.96c-4.34-2.32-8.68-4.64-13.01-6.96C337.9,362.98,342.23,367.57,346.57,372.17z"/>
					<path fill-rule="evenodd" clip-rule="evenodd" fill="#F75D59" d="M346.57,353.27c4.01-4.25,8.02-8.49,12.03-12.74       c-4.01,2.14-8.02,4.29-12.03,6.43c-4.01-2.14-8.02-4.29-12.03-6.43C338.55,344.78,342.56,349.02,346.57,353.27z"/>
					<path fill-rule="evenodd" clip-rule="evenodd" fill="#F75D59" d="M346.57,334.37c3.68-3.9,7.36-7.8,11.04-11.7       c-3.68,1.97-7.36,3.94-11.04,5.91c-3.68-1.97-7.36-3.94-11.04-5.91C339.21,326.57,342.89,330.47,346.57,334.37z"/>
					<path fill-rule="evenodd" clip-rule="evenodd" fill="#F75D59" d="M346.57,315.47c3.35-3.55,6.71-7.1,10.06-10.65       c-3.35,1.79-6.71,3.59-10.06,5.38c-3.35-1.79-6.71-3.59-10.06-5.38C339.87,308.37,343.22,311.92,346.57,315.47z"/>
					<path fill-rule="evenodd" clip-rule="evenodd" fill="#F75D59" d="M346.57,296.58c3.02-3.2,6.05-6.41,9.07-9.61       c-3.02,1.62-6.05,3.24-9.07,4.85l-8.52-4.56l-0.09,0.19L346.57,296.58z"/>
					<path fill-rule="evenodd" clip-rule="evenodd" fill="#F75D59" d="M346.57,277.68c2.7-2.86,5.39-5.71,8.09-8.57       c-2.7,1.44-5.39,2.88-8.09,4.33l-1.35-0.72l-1.14,2.32L346.57,277.68z"/>
					<path fill-rule="evenodd" clip-rule="evenodd" fill="#F75D59" d="M346.57,427.81c4.67-4.94,9.33-9.88,14-14.83       c-4.67,2.5-9.33,4.99-14,7.49c-4.67-2.5-9.33-4.99-14-7.49C337.24,417.93,341.91,422.87,346.57,427.81z"/>
					<polygon fill-rule="evenodd" clip-rule="evenodd" fill="#F75D59" points="341.44,436.1 333.56,431.89 339.59,438.27      "/>
				</g>
				<g>
					<polygon fill-rule="evenodd" clip-rule="evenodd" fill="#F75D59" points="363.94,409.69 355.35,405.1 361.92,412.06      "/>
					<path fill-rule="evenodd" clip-rule="evenodd" fill="#F75D59" d="M371.32,395.26L371.32,395.26c-5-2.67-9.99-5.34-14.99-8.01       l14.05,14.88l0.95-1.11C371.32,399.1,371.32,397.18,371.32,395.26z"/>
					<path fill-rule="evenodd" clip-rule="evenodd" fill="#F75D59" d="M371.31,384.21l0.01-0.01c0.01-2.45,0.02-4.9,0.03-7.35       l-0.05,0.02c-4.67-2.5-9.33-4.99-14-7.49C361.98,374.33,366.65,379.27,371.31,384.21z"/>
					<path fill-rule="evenodd" clip-rule="evenodd" fill="#F75D59" d="M371.31,365.32l0.14-0.14c0.02-2.26,0.05-4.53,0.08-6.79       l-0.21,0.11c-4.34-2.32-8.68-4.64-13.01-6.96C362.64,356.13,366.98,360.72,371.31,365.32z"/>
					<path fill-rule="evenodd" clip-rule="evenodd" fill="#F75D59" d="M371.31,346.42l0.4-0.42c0.04-2.05,0.07-4.1,0.12-6.16       l-0.51,0.28c-4.01-2.15-8.02-4.29-12.03-6.44C363.3,337.93,367.3,342.17,371.31,346.42z"/>
					<path fill-rule="evenodd" clip-rule="evenodd" fill="#F75D59" d="M371.31,327.52l0.81-0.86c0.05-1.81,0.09-3.63,0.14-5.44       l-0.96,0.51c-3.68-1.97-7.36-3.94-11.04-5.91C363.95,319.72,367.63,323.62,371.31,327.52z"/>
					<path fill-rule="evenodd" clip-rule="evenodd" fill="#F75D59" d="M371.31,308.63l1.39-1.47c0.05-1.54,0.11-3.09,0.16-4.63       l-1.55,0.83c-3.35-1.79-6.71-3.59-10.06-5.38C364.61,301.52,367.96,305.07,371.31,308.63z"/>
					<path fill-rule="evenodd" clip-rule="evenodd" fill="#F75D59" d="M371.31,289.73l2.15-2.27l0.16-3.72l-2.31,1.24       c-3.02-1.62-6.05-3.24-9.07-4.85C365.27,283.32,368.29,286.52,371.31,289.73z"/>
					<path fill-rule="evenodd" clip-rule="evenodd" fill="#F75D59" d="M371.31,270.83l3.09-3.27l0.14-2.7l-3.23,1.73       c-2.7-1.44-5.39-2.89-8.09-4.33C365.92,265.12,368.62,267.97,371.31,270.83z"/>
					<path fill-rule="evenodd" clip-rule="evenodd" fill="#F75D59" d="M371.31,251.93l4.24-4.49l0.1-1.56l-4.33,2.32       c-2.37-1.27-4.74-2.53-7.1-3.8C366.58,246.92,368.95,249.43,371.31,251.93z"/>
					<polygon fill-rule="evenodd" clip-rule="evenodd" fill="#F75D59" points="371.31,233.04 376.91,227.11 376.93,226.82        371.31,229.83 367.42,227.74 367.04,228.51      "/>
				</g>
			</g>
		</g>
		<g>
			<path fill-rule="evenodd" clip-rule="evenodd" fill="#990000" d="M7.05,401.02l75.12,88.18l-23.2-100.58l40.16,17.83L8.82,223.38     c-2.4,1.09-4.84,2.12-7.34,3.08l-0.22-2.35C5.66,283.99,7.23,342.83,7.05,401.02z"/>
			<g>
				<g>
					<polygon fill-rule="evenodd" clip-rule="evenodd" fill="#F75D59" points="84.95,400.15 93.71,395.46 94.15,396.35 88.9,401.91             "/>
					<path fill-rule="evenodd" clip-rule="evenodd" fill="#F75D59" d="M81.3,391.06c-4.67-4.94-9.33-9.88-14-14.83       c4.67,2.5,9.33,4.99,14,7.49l5.24-2.8l1.49,3.01L81.3,391.06z"/>
					<path fill-rule="evenodd" clip-rule="evenodd" fill="#F75D59" d="M81.3,372.17c-4.34-4.59-8.68-9.19-13.01-13.78l9.69,5.19       l3.92,7.95L81.3,372.17z"/>
					<polygon fill-rule="evenodd" clip-rule="evenodd" fill="#F75D59" points="69.17,432.83 68.28,431.89 69.05,432.3      "/>
					<polygon fill-rule="evenodd" clip-rule="evenodd" fill="#F75D59" points="74.62,456.45 69.27,450.78 73.88,453.25      "/>
					<polygon fill-rule="evenodd" clip-rule="evenodd" fill="#F75D59" points="80.07,480.08 70.25,469.68 78.72,474.21      "/>
				</g>
				<g>
					<polygon fill-rule="evenodd" clip-rule="evenodd" fill="#F75D59" points="62.21,465.76 75.17,458.82 75.2,458.95 65.32,469.41             "/>
					<polygon fill-rule="evenodd" clip-rule="evenodd" fill="#F75D59" points="42.91,443.1 56.55,450.4 71.39,442.46 71.69,443.77        56.86,459.48      "/>
					<path fill-rule="evenodd" clip-rule="evenodd" fill="#F75D59" d="M56.55,440.9c-5.65-5.98-11.3-11.97-16.95-17.95       c5.65,3.02,11.3,6.05,16.95,9.07l11.06-5.92l0.57,2.48L56.55,440.9z"/>
					<path fill-rule="evenodd" clip-rule="evenodd" fill="#F75D59" d="M56.55,422.01c-5.32-5.64-10.65-11.27-15.97-16.91       c5.32,2.85,10.65,5.7,15.97,8.54l7.29-3.9l0.84,3.65L56.55,422.01z"/>
					<path fill-rule="evenodd" clip-rule="evenodd" fill="#F75D59" d="M56.55,403.11c-4.99-5.29-9.99-10.58-14.98-15.87       c4.99,2.67,9.99,5.34,14.98,8.02l3.51-1.88l1.11,4.83L56.55,403.11L56.55,403.11z M64.43,391.04l7.11-3.8l-4.63,4.9       L64.43,391.04z"/>
					<path fill-rule="evenodd" clip-rule="evenodd" fill="#F75D59" d="M56.55,384.21c-4.67-4.94-9.33-9.88-14-14.83       c4.67,2.5,9.33,4.99,14,7.49c4.67-2.5,9.33-4.99,14-7.49C65.89,374.33,61.22,379.27,56.55,384.21z"/>
					<path fill-rule="evenodd" clip-rule="evenodd" fill="#F75D59" d="M56.55,365.32c-4.34-4.59-8.68-9.19-13.01-13.78       c4.34,2.32,8.68,4.64,13.01,6.96c4.34-2.32,8.68-4.64,13.01-6.96C65.23,356.13,60.89,360.72,56.55,365.32z"/>
					<path fill-rule="evenodd" clip-rule="evenodd" fill="#F75D59" d="M56.55,346.42c-4.01-4.25-8.02-8.49-12.03-12.74       c4.01,2.15,8.02,4.29,12.03,6.44l7.79-4.17l0.72,1.46L56.55,346.42z"/>
					<path fill-rule="evenodd" clip-rule="evenodd" fill="#F75D59" d="M56.55,327.52c-3.68-3.9-7.36-7.8-11.04-11.7       c3.68,1.97,7.36,3.94,11.04,5.91l0.62-0.33l1.77,3.59L56.55,327.52z"/>
				</g>
				<g>
					<path fill-rule="evenodd" clip-rule="evenodd" fill="#F75D59" d="M31.81,409.96c-4.99-5.29-9.99-10.58-14.98-15.87       c4.99,2.67,9.99,5.34,14.98,8.02c4.99-2.67,9.99-5.34,14.98-8.02C41.8,399.38,36.81,404.67,31.81,409.96z"/>
					<path fill-rule="evenodd" clip-rule="evenodd" fill="#F75D59" d="M31.81,391.06c-4.67-4.94-9.33-9.88-14-14.83       c4.67,2.5,9.33,4.99,14,7.49c4.67-2.5,9.33-4.99,14-7.49C41.14,381.18,36.48,386.12,31.81,391.06z"/>
					<path fill-rule="evenodd" clip-rule="evenodd" fill="#F75D59" d="M31.81,372.17c-4.34-4.59-8.68-9.19-13.01-13.78       c4.34,2.32,8.68,4.64,13.01,6.96c4.34-2.32,8.68-4.64,13.01-6.96C40.49,362.98,36.15,367.57,31.81,372.17z"/>
					<path fill-rule="evenodd" clip-rule="evenodd" fill="#F75D59" d="M31.81,353.27c-4.01-4.25-8.02-8.49-12.03-12.74       c4.01,2.14,8.02,4.29,12.03,6.43c4.01-2.14,8.02-4.29,12.03-6.43C39.83,344.78,35.82,349.02,31.81,353.27z"/>
					<path fill-rule="evenodd" clip-rule="evenodd" fill="#F75D59" d="M31.81,334.37c-3.68-3.9-7.36-7.8-11.04-11.7       c3.68,1.97,7.36,3.94,11.04,5.91c3.68-1.97,7.36-3.94,11.04-5.91C39.17,326.57,35.49,330.47,31.81,334.37z"/>
					<path fill-rule="evenodd" clip-rule="evenodd" fill="#F75D59" d="M31.81,315.47c-3.35-3.55-6.71-7.1-10.06-10.65       c3.35,1.79,6.71,3.59,10.06,5.38c3.35-1.79,6.71-3.59,10.06-5.38C38.52,308.37,35.16,311.92,31.81,315.47z"/>
					<path fill-rule="evenodd" clip-rule="evenodd" fill="#F75D59" d="M31.81,296.58c-3.02-3.2-6.05-6.41-9.07-9.61       c3.02,1.62,6.05,3.24,9.07,4.85l8.52-4.56l0.09,0.19L31.81,296.58z"/>
					<path fill-rule="evenodd" clip-rule="evenodd" fill="#F75D59" d="M31.81,277.68c-2.7-2.86-5.39-5.71-8.09-8.57       c2.7,1.44,5.39,2.88,8.09,4.33l1.35-0.72l1.14,2.32L31.81,277.68z"/>
					<path fill-rule="evenodd" clip-rule="evenodd" fill="#F75D59" d="M31.81,427.81c-4.67-4.94-9.33-9.88-14-14.83       c4.67,2.5,9.33,4.99,14,7.49c4.67-2.5,9.33-4.99,14-7.49C41.14,417.93,36.48,422.87,31.81,427.81z"/>
					<polygon fill-rule="evenodd" clip-rule="evenodd" fill="#F75D59" points="36.95,436.1 44.82,431.89 38.79,438.27      "/>
				</g>
				<g>
					<polygon fill-rule="evenodd" clip-rule="evenodd" fill="#F75D59" points="14.45,409.69 23.04,405.1 16.46,412.06      "/>
					<path fill-rule="evenodd" clip-rule="evenodd" fill="#F75D59" d="M7.07,395.26L7.07,395.26c5-2.67,9.99-5.34,14.99-8.01       L8,402.12l-0.95-1.11C7.06,399.1,7.06,397.18,7.07,395.26z"/>
					<path fill-rule="evenodd" clip-rule="evenodd" fill="#F75D59" d="M7.07,384.21l-0.01-0.01c-0.01-2.45-0.02-4.9-0.03-7.35       l0.05,0.02c4.67-2.5,9.33-4.99,14-7.49C16.4,374.33,11.73,379.27,7.07,384.21z"/>
					<path fill-rule="evenodd" clip-rule="evenodd" fill="#F75D59" d="M7.07,365.32l-0.14-0.14c-0.02-2.26-0.05-4.53-0.08-6.79       l0.21,0.11c4.34-2.32,8.68-4.64,13.01-6.96C15.74,356.13,11.41,360.72,7.07,365.32z"/>
					<path fill-rule="evenodd" clip-rule="evenodd" fill="#F75D59" d="M7.07,346.42L6.67,346c-0.04-2.05-0.07-4.1-0.12-6.16       l0.51,0.28c4.01-2.15,8.02-4.29,12.03-6.44C15.09,337.93,11.08,342.17,7.07,346.42z"/>
					<path fill-rule="evenodd" clip-rule="evenodd" fill="#F75D59" d="M7.07,327.52l-0.81-0.86c-0.05-1.81-0.09-3.63-0.14-5.44       l0.96,0.51c3.68-1.97,7.36-3.94,11.04-5.91C14.43,319.72,10.75,323.62,7.07,327.52z"/>
					<path fill-rule="evenodd" clip-rule="evenodd" fill="#F75D59" d="M7.07,308.63l-1.39-1.47c-0.05-1.54-0.11-3.09-0.16-4.63       l1.55,0.83c3.35-1.79,6.71-3.59,10.06-5.38C13.77,301.52,10.42,305.07,7.07,308.63z"/>
					<path fill-rule="evenodd" clip-rule="evenodd" fill="#F75D59" d="M7.07,289.73l-2.15-2.27l-0.16-3.72l2.31,1.24       c3.02-1.62,6.05-3.24,9.07-4.85C13.12,283.32,10.09,286.52,7.07,289.73z"/>
					<path fill-rule="evenodd" clip-rule="evenodd" fill="#F75D59" d="M7.07,270.83l-3.09-3.27l-0.14-2.7l3.23,1.73       c2.7-1.44,5.39-2.89,8.09-4.33C12.46,265.12,9.76,267.97,7.07,270.83z"/>
					<path fill-rule="evenodd" clip-rule="evenodd" fill="#F75D59" d="M7.07,251.93l-4.24-4.49l-0.1-1.56l4.33,2.32       c2.37-1.27,4.74-2.53,7.1-3.8C11.8,246.92,9.44,249.43,7.07,251.93z"/>
					<polygon fill-rule="evenodd" clip-rule="evenodd" fill="#F75D59" points="7.07,233.04 1.47,227.11 1.45,226.82 7.07,229.83        10.97,227.74 11.34,228.51      "/>
				</g>
			</g>
		</g>
	</g>
	
	<path fill-rule="evenodd" clip-rule="evenodd" fill="#990000" d="M294.19,81.81l-35.93-16.92c4.71-17.51,6.16-36.79,3.77-57.58   c12.49,5.71,22.53,8.63,34.46,10.87l0,0c-2.24,23.28-2.9,44.42-2.08,63.55L294.19,81.81z"/>
	<g>
		<g>
			<path fill-rule="evenodd" clip-rule="evenodd" fill="#F75D59" d="M294.78,40.56l-3.72-3.94l3.83,2.05     C294.85,39.3,294.82,39.93,294.78,40.56z"/>
			<path fill-rule="evenodd" clip-rule="evenodd" fill="#F75D59" d="M296.04,23l-3.99-4.23l4.17,2.23     C296.16,21.67,296.1,22.34,296.04,23z"/>
			<polygon fill-rule="evenodd" clip-rule="evenodd" fill="#F75D59" points="294.14,57.74 292.05,55.52 294.16,56.65    "/>
			<polygon fill-rule="evenodd" clip-rule="evenodd" fill="#F75D59" points="294.2,75.65 293.03,74.42 294.18,75.03    "/>
		</g>
		<g>
			<path fill-rule="evenodd" clip-rule="evenodd" fill="#F75D59" d="M268.22,69.58l-3.87-4.1c5.65,3.02,11.3,6.05,16.95,9.07     l12.77-6.83c0,0.73,0.01,1.45,0.02,2.17l-7.76,8.21L268.22,69.58z"/>
			<path fill-rule="evenodd" clip-rule="evenodd" fill="#F75D59" d="M281.31,64.54c-5.32-5.64-10.64-11.27-15.97-16.91     c5.32,2.85,10.65,5.7,15.97,8.54l13.08-7l-0.06,1.57L281.31,64.54z"/>
			<path fill-rule="evenodd" clip-rule="evenodd" fill="#F75D59" d="M281.31,45.64c-4.99-5.29-9.99-10.58-14.98-15.87     c4.99,2.67,9.99,5.34,14.98,8.02l14.15-7.57l-0.04,0.47L281.31,45.64z"/>
			<path fill-rule="evenodd" clip-rule="evenodd" fill="#F75D59" d="M281.31,26.75c-4.67-4.94-9.33-9.88-14-14.83     c4.67,2.5,9.33,4.99,14,7.49l5.98-3.2c1.08,0.26,2.16,0.51,3.25,0.76L281.31,26.75z"/>
		</g>
		<g>
			<path fill-rule="evenodd" clip-rule="evenodd" fill="#F75D59" d="M262.46,41.48l9.09-4.86l-9.7,10.28     C262.08,45.11,262.29,43.3,262.46,41.48z"/>
			<path fill-rule="evenodd" clip-rule="evenodd" fill="#F75D59" d="M263.11,22.76l7.45-3.99l-7.4,7.84     C263.16,25.33,263.14,24.05,263.11,22.76z"/>
			<path fill-rule="evenodd" clip-rule="evenodd" fill="#F75D59" d="M263.09,7.79l-0.9,0.96c-0.05-0.48-0.1-0.96-0.16-1.44     L263.09,7.79z"/>
			<path fill-rule="evenodd" clip-rule="evenodd" fill="#F75D59" d="M259.08,61.66l11.48-6.14l-9.91,10.49l-2.4-1.13     C258.54,63.82,258.82,62.74,259.08,61.66z"/>
		</g>
	</g>
	<path fill-rule="evenodd" clip-rule="evenodd" fill="#990000" d="M84.42,81.69l35.93-16.92c-4.71-17.51-6.16-36.79-3.77-57.58   c-12.49,5.71-22.53,8.63-34.46,10.87l0,0c2.24,23.28,2.9,44.42,2.08,63.55L84.42,81.69z"/>
	<g>
		<g>
			<path fill-rule="evenodd" clip-rule="evenodd" fill="#F75D59" d="M83.82,40.45l3.72-3.94l-3.83,2.05     C83.75,39.19,83.79,39.82,83.82,40.45z"/>
			<path fill-rule="evenodd" clip-rule="evenodd" fill="#F75D59" d="M82.56,22.89l3.99-4.23l-4.17,2.23     C82.44,21.56,82.5,22.22,82.56,22.89z"/>
			<polygon fill-rule="evenodd" clip-rule="evenodd" fill="#F75D59" points="84.46,57.62 86.56,55.41 84.44,56.54    "/>
			<polygon fill-rule="evenodd" clip-rule="evenodd" fill="#F75D59" points="84.41,75.54 85.57,74.31 84.43,74.92    "/>
		</g>
		<g>
			<path fill-rule="evenodd" clip-rule="evenodd" fill="#F75D59" d="M110.39,69.47l3.87-4.1c-5.65,3.02-11.3,6.05-16.95,9.07     l-12.77-6.83c0,0.73-0.01,1.45-0.02,2.17L92.27,78L110.39,69.47z"/>
			<path fill-rule="evenodd" clip-rule="evenodd" fill="#F75D59" d="M97.3,64.43c5.32-5.64,10.65-11.27,15.97-16.91     c-5.32,2.85-10.65,5.7-15.97,8.54l-13.08-7l0.06,1.57L97.3,64.43z"/>
			<path fill-rule="evenodd" clip-rule="evenodd" fill="#F75D59" d="M97.3,45.53c4.99-5.29,9.99-10.58,14.98-15.87     c-4.99,2.67-9.99,5.34-14.98,8.02l-14.15-7.57l0.04,0.47L97.3,45.53z"/>
			<path fill-rule="evenodd" clip-rule="evenodd" fill="#F75D59" d="M97.3,26.63c4.67-4.94,9.33-9.88,14-14.83     c-4.67,2.5-9.33,4.99-14,7.49l-5.98-3.2c-1.08,0.26-2.16,0.51-3.25,0.76L97.3,26.63z"/>
		</g>
		<g>
			<path fill-rule="evenodd" clip-rule="evenodd" fill="#F75D59" d="M116.15,41.37l-9.09-4.86l9.7,10.28     C116.53,45,116.32,43.19,116.15,41.37z"/>
			<path fill-rule="evenodd" clip-rule="evenodd" fill="#F75D59" d="M115.5,22.64l-7.45-3.99l7.4,7.84     C115.45,25.22,115.47,23.94,115.5,22.64z"/>
			<path fill-rule="evenodd" clip-rule="evenodd" fill="#F75D59" d="M115.52,7.68l0.9,0.96c0.05-0.48,0.1-0.96,0.16-1.44     L115.52,7.68z"/>
			<path fill-rule="evenodd" clip-rule="evenodd" fill="#F75D59" d="M119.53,61.55l-11.48-6.14l9.91,10.49l2.4-1.13     C120.06,63.71,119.79,62.63,119.53,61.55z"/>
		</g>
	</g>
</g>
<g id="图层_x0020_1">
	<path fill="#F08300" d="M177.38,60.01c0.416,1.136,1.472,1.984,2.752,2.032c0.144,0,0.304,0,0.448-0.016h0.016   c0.016,0,0.064,0,0.128-0.016c0.032,0,0.048-0.016,0.08-0.016c0.064-0.016,0.144-0.032,0.224-0.048c0.016,0,0.016,0,0.032,0   c0.192-0.048,0.4-0.112,0.576-0.208c0.192-0.096,0.4-0.224,0.608-0.384c0.672-0.56,1.104-1.408,1.104-2.352   c0-0.224-0.032-0.448-0.08-0.672l0,0C183.22,58.13,183.17,57.96,183.09,57.78C182.62,56.69,181.54,55.93,180.27,55.93C178.58,55.93,177.2,57.3,177.2,59C177.2,59.35,177.26,59.69,177.38,60.01L177.38,60.01L177.38,60.01z M181.68,59.03L181.68,59.03C181.65,59.81,180.99,60.41,180.21,60.37C179.42,60.34,178.83,59.69,178.86,58.9c0.032-0.784,0.688-1.376,1.472-1.344   C181.1,57.59,181.71,58.26,181.68,59.03L181.68,59.03z"/>
	<polygon fill="#F08300" points="195.71,56.61 ,195.07,58.2 ,193.63,58.2 ,192.21,61.75 ,190.26,61.75 ,191.66,58.2 ,190.08,58.2    ,190.72,56.61"/>
	<path fill="#F08300" d="M197.68,51.88c-1.008-0.096-3.024-0.144-5.056,0.112c-2.416,0.304-5.152,0.912-7.616,1.664   C182.96,54.26,181.09,54.98,179.74,55.75C179.94,55.72,180.13,55.7,180.32,55.7c0.48,0,0.944,0.112,1.36,0.288   C185.78,53.67,192.98,51.62,197.68,51.88L197.68,51.88L197.68,51.88z"/>
	<path fill="#F08300" d="M183.15,57.35c4-2.368,8.88-4.672,13.488-5.248c-4.608,0.288-10.224,2-14.288,4.304   C182.67,56.66,182.94,56.98,183.15,57.35C183.15,57.35,183.15,57.35,183.15,57.35z"/>
	<polygon fill="#F08300" points="201.2,56.61 ,200.58,58.2 ,199.12,58.2 ,197.71,61.75 ,197.25,61.75 ,195.74,61.75 ,194.05,61.75    ,194.64,60.25 ,196.35,60.25 ,197.17,58.2 ,195.58,58.2 ,196.22,56.61"/>
	<polygon fill="#F08300" points="190.29,56.61 ,189.65,58.2 ,187.36,60.31 ,189.62,60.31 ,189.04,61.75 ,183.55,61.75 ,187.22,58.2    ,184.64,58.2 ,185.28,56.61"/>
	<path fill="#F08300" d="M195.57,52.47c-3.376,0.752-6.464,2.192-9.424,3.952h1.888C190.46,54.85,192.8,53.42,195.57,52.47z    M184.77,57.29C184.14,57.67,184.08,57.72,183.47,58.13c0.064,0.256,0.112,0.544,0.112,0.816c0,0.496-0.112,0.976-0.32,1.392   c0.176-0.16,0.32-0.304,0.432-0.4c0.272-0.24,0.768-0.64,1.6-1.296l0.32-0.256H184.29l0,0L184.77,57.29L184.77,57.29L184.77,57.29z"/>
</g>
</svg>