<?xml version="1.0" encoding="utf-8"?>
<!-- Generator: Adobe Illustrator 23.0.0, SVG Export Plug-In . SVG Version: 6.00 Build 0)  -->
<svg xmlns="http://www.w3.org/2000/svg" xmlns:xlink="http://www.w3.org/1999/xlink" version="1.1" id="图层_1" x="0px" y="0px" width="378.53px" height="596px" viewBox="0 0 378.53 596" enable-background="new 0 0 378.53 596" xml:space="preserve">
<g>
	
		<path fill-rule="evenodd" clip-rule="evenodd" fill="#162E52" stroke="#DCDDDD" stroke-width="0.2" stroke-miterlimit="22.9256" d="   M191.29,133.96l-1.82,0.78c-50.21-29.47-63.21-62.68-66.79-128.69c-2,0.9-3.84,0.71-6,1.24c-13.78,3.37-26.57,8.94-36.02,11.05   h0.02C92.4,140.28,62.04,202.57,0.91,225.9l-0.18-2.32c9.03,122.91,6.16,241.36,0.76,358.85c60.83,7.77,126.62,13.31,187.91,13.32   c61.29-0.01,127.09-5.55,187.91-13.32c-5.4-117.49-8.27-235.94,0.76-358.85l-0.18,2.32c-61.13-23.33-91.48-85.61-79.74-207.57h0.02   c-9.45-2.11-26.46-7.93-36.04-11.05c-2.12-0.69-4.39-0.49-6.39-1.4c-1.62,59.31-6.23,91.5-45.15,119.14L191.29,133.96z"/>
	<g>
		<path fill-rule="evenodd" clip-rule="evenodd" fill="#FFFFFE" d="M69.19,156.36c-8.81,22.83-21.66,40.19-38.12,52.86h316.66    c-16.46-12.66-29.3-30.03-38.11-52.86H69.19z"/>
		<path fill-rule="evenodd" clip-rule="evenodd" fill="#FFFFFE" d="M373.35,316.88c0.52-17.54,1.23-35.15,2.18-52.85l-331.26,0.32    c2.53,18.31,8.19,35.13,19.83,52.41L373.35,316.88z"/>
		<path fill-rule="evenodd" clip-rule="evenodd" fill="#FFFFFE" d="M375.29,534.52c-0.68-17.59-1.27-35.21-1.75-52.88l-106.8-0.27    c15.04,14.97,33.18,27.57,51,53.15H375.29z"/>
		<path fill-rule="evenodd" clip-rule="evenodd" fill="#FFFFFE" d="M372.44,425.13c-0.19-17.56-0.24-35.18-0.11-52.86l-251.23-0.03    l-18.39-0.2c16.38,18.02,26.11,31.62,57.23,53.26L372.44,425.13z"/>
	</g>
	<g>
		<path fill-rule="evenodd" clip-rule="evenodd" fill="#FFD20A" d="M136.49,79.57c-1.56-3.58-2.97-7.3-4.22-11.18    c-7.69,5.53-17.36,12.3-24.11,17.15c-10.36,7.45-19.44,15.14-27.46,23.01c-0.79,6.26-1.78,12.26-2.95,18.01    c9.06-10.34,19.93-20.16,32.84-29.29C114.92,94.21,126.97,85.99,136.49,79.57L136.49,79.57z M43.28,198.27    c-3.5,3.66-7.21,7.03-11.14,10.13c-7.87,110.25,105.83,218.05,127.81,216.89C86.45,372.04,29.66,280.17,43.28,198.27z"/>
		<path fill-rule="evenodd" clip-rule="evenodd" fill="#FFD20A" d="M317.74,589.09c3.2-0.31,6.39-0.62,9.58-0.94    c-22.64-97.13-164.16-147.48-164.16-147.48C284.93,494.7,311.94,565.13,317.74,589.09z"/>
	</g>
	<path fill-rule="evenodd" clip-rule="evenodd" fill="#DCDDDD" d="M189.36,34.88c29.55-0.45,47.83-7.48,59.43-16.19   c0-0.11,0-0.11,0-0.22c0.56,57.74-23.52,91.36-59.54,113.36c-35.9-22-59.98-55.62-59.54-113.36c0,0.11,0,0.11,0,0.22   C141.42,27.4,159.82,34.43,189.36,34.88z"/>
	
	
		<path fill-rule="evenodd" clip-rule="evenodd" fill="#162E53" stroke="#DCDDDD" stroke-width="0.2" stroke-miterlimit="22.9256" d="   M130.72,0.24c-6.13,69.02,19.07,107.22,58.65,131.45c39.58-24.24,64.78-62.43,58.65-131.45l14.05,7.04   c7.47,64.78-22.52,115.03-72.69,141.73c-50.17-26.69-80.16-76.95-72.69-141.73L130.72,0.24z"/>
	
		<path fill-rule="evenodd" clip-rule="evenodd" fill="#162E53" stroke="#DCDDDD" stroke-width="0.2" stroke-miterlimit="22.9256" d="   M130.72,0.37c16.5,15.97,36.68,21,58.65,20.88c21.85,0,42.03-4.91,58.65-20.88c0.56,6.25,0.89,12.29,0.89,18.09   c0,0.11,0,0.11-0.11,0.22c-11.6,8.71-29.99,15.75-59.43,16.19c-29.55-0.45-47.83-7.48-59.43-16.19c0-0.11,0-0.11-0.11-0.22   C129.94,12.76,130.16,6.73,130.72,0.37z"/>
	<g>
		
			<path fill-rule="evenodd" clip-rule="evenodd" fill="#162E53" stroke="#DCDDDD" stroke-width="0.2" stroke-miterlimit="22.9256" d="    M1.56,225.85c60.88-23.23,92.2-86.33,80.5-207.73L67.9,20.48C74.92,129.6,54.52,185.33,0.35,210.79L1.56,225.85z"/>
		
			<path fill-rule="evenodd" clip-rule="evenodd" fill="#162E53" stroke="#DCDDDD" stroke-width="0.2" stroke-miterlimit="22.9256" d="    M376.95,225.85c-60.88-23.23-92.2-86.33-80.5-207.73l14.16,2.35c-7.02,109.12,13.38,164.85,67.57,190.31L376.95,225.85    L376.95,225.85z"/>
	</g>
</g>
<g id="图层_x0020_1">
	<path fill="#F08300" d="M177.58,70.34c0.416,1.136,1.472,1.984,2.752,2.032c0.144,0,0.304,0,0.448-0.016h0.016   c0.016,0,0.064,0,0.128-0.016c0.032,0,0.048-0.016,0.08-0.016c0.064-0.016,0.144-0.032,0.224-0.048c0.016,0,0.016,0,0.032,0   c0.192-0.048,0.4-0.112,0.576-0.208c0.192-0.096,0.4-0.224,0.608-0.384c0.672-0.56,1.104-1.408,1.104-2.352   c0-0.224-0.032-0.448-0.08-0.672l0,0C183.42,68.46,183.37,68.29,183.29,68.11C182.82,67.02,181.74,66.26,180.47,66.26C178.78,66.26,177.4,67.63,177.4,69.33C177.4,69.68,177.46,70.02,177.58,70.34L177.58,70.34L177.58,70.34z M181.88,69.36L181.88,69.36C181.85,70.14,181.19,70.74,180.41,70.7C179.62,70.67,179.03,70.02,179.06,69.23c0.032-0.784,0.688-1.376,1.472-1.344   C181.3,67.92,181.91,68.59,181.88,69.36L181.88,69.36z"/>
	<polygon fill="#F08300" points="195.91,66.94 ,195.27,68.53 ,193.83,68.53 ,192.41,72.08 ,190.46,72.08 ,191.86,68.53 ,190.28,68.53    ,190.92,66.94"/>
	<path fill="#F08300" d="M197.88,62.21c-1.008-0.096-3.024-0.144-5.056,0.112c-2.416,0.304-5.152,0.912-7.616,1.664   C183.16,64.59,181.29,65.31,179.94,66.08C180.14,66.05,180.33,66.03,180.52,66.03c0.48,0,0.944,0.112,1.36,0.288   C185.98,64,193.18,61.95,197.88,62.21L197.88,62.21L197.88,62.21z"/>
	<path fill="#F08300" d="M183.35,67.68c4-2.368,8.88-4.672,13.488-5.248c-4.608,0.288-10.224,2-14.288,4.304   C182.87,66.99,183.14,67.31,183.35,67.68C183.35,67.68,183.35,67.68,183.35,67.68z"/>
	<polygon fill="#F08300" points="201.4,66.94 ,200.78,68.53 ,199.32,68.53 ,197.91,72.08 ,197.45,72.08 ,195.94,72.08 ,194.25,72.08    ,194.84,70.58 ,196.55,70.58 ,197.37,68.53 ,195.78,68.53 ,196.42,66.94"/>
	<polygon fill="#F08300" points="190.49,66.94 ,189.85,68.53 ,187.56,70.64 ,189.82,70.64 ,189.24,72.08 ,183.75,72.08 ,187.42,68.53    ,184.84,68.53 ,185.48,66.94"/>
	<path fill="#F08300" d="M195.77,62.8c-3.376,0.752-6.464,2.192-9.424,3.952h1.888C190.66,65.18,193,63.75,195.77,62.8z    M184.97,67.62C184.34,68,184.28,68.05,183.67,68.46c0.064,0.256,0.112,0.544,0.112,0.816c0,0.496-0.112,0.976-0.32,1.392   c0.176-0.16,0.32-0.304,0.432-0.4c0.272-0.24,0.768-0.64,1.6-1.296l0.32-0.256H184.49l0,0L184.97,67.62L184.97,67.62L184.97,67.62z"/>
</g>
</svg>