<?xml version="1.0" encoding="utf-8"?>
<!-- Generator: Adobe Illustrator 23.0.0, SVG Export Plug-In . SVG Version: 6.00 Build 0)  -->
<svg xmlns="http://www.w3.org/2000/svg" xmlns:xlink="http://www.w3.org/1999/xlink" version="1.1" id="图层_1" x="0px" y="0px" width="378.5px" height="596px" viewBox="0 0 378.5 596" enable-background="new 0 0 378.5 596" xml:space="preserve">
<g>
	
		<path fill-rule="evenodd" clip-rule="evenodd" fill="#009DAF" stroke="#DCDDDD" stroke-width="0.2" stroke-miterlimit="22.9256" d="   M189.3,595.74L189.3,595.74L189.3,595.74L189.3,595.74L189.3,595.74z M189.3,595.74c64.02-0.9,126.03-5.49,187.16-13.33   c-5.35-116.52-8.25-234.05,0.56-355.96l0,0c-60.9-23.3-92.24-86.61-80.53-208.4l0,0c-11.93-2.24-21.97-5.15-34.46-10.87   c7.47,64.98-22.53,115.4-72.72,142.18c-50.19-26.78-80.19-77.2-72.72-142.18c-12.49,5.6-22.64,8.63-34.46,10.87l0,0   c11.71,121.9-19.74,185.2-80.53,208.51l-0.22-2.35c9.03,122.69,6.13,241,0.78,358.31C62.71,590.26,128.29,595.74,189.3,595.74z"/>
	<g>
		<g>
			<path fill-rule="evenodd" clip-rule="evenodd" fill="#00778D" d="M189.3,595.74L189.3,595.74L189.3,595.74L189.3,595.74     L189.3,595.74L189.3,595.74z M200.2,595.55l26.4-45.22l-96.88,43.84c20.12,1.02,40.09,1.58,59.58,1.58     C192.94,595.7,196.57,595.64,200.2,595.55L200.2,595.55z M121.77,593.74c-40.26-2.26-80.96-6.29-119.62-11.22     C7.5,465.21,10.4,346.9,1.37,224.21l0.22,2.35c60.79-23.3,92.24-86.61,80.53-208.51l0,0c10.95-2.08,20.46-4.82,31.73-9.67     l2.64-0.28c-6.64,60.47,19.24,108.24,63.62,135.94l-66.76,64.95l195.12-30.84L121.4,320.4l131.92-41.04L115.89,409.01     l128.1-38.71L120.98,499.02l114.95-41.04L121.77,593.74L121.77,593.74z M256.96,69.27l38.37-37.33     c0.33-4.55,0.71-9.17,1.16-13.89l0,0c-11.93-2.24-21.97-5.15-34.46-10.87C264.62,29.77,262.69,50.59,256.96,69.27z"/>
			<path fill-rule="evenodd" clip-rule="evenodd" fill="#003F5C" d="M167.65,595.53l53.6-91.8l-110.29,49.9l119.62-142.25     l-114.95,41.04L238.64,323.7l-128.1,38.71l137.44-129.66l-131.93,41.05l185.12-140.77c-0.09-0.38-0.18-0.75-0.27-1.13L108,162.38     l43.19-42.03c-26.31-28.2-39.92-67.01-34.61-113.16c-12.49,5.6-22.64,8.63-34.46,10.87l0,0c11.71,121.9-19.74,185.2-80.53,208.51     l-0.22-2.35c9.03,122.69,6.13,241,0.78,358.31C55.6,589.34,112.97,594.42,167.65,595.53L167.65,595.53z M262.51,12.05     c-0.14-1.61-0.3-3.23-0.49-4.87c1.28,0.59,2.54,1.14,3.77,1.67L262.51,12.05z"/>
		</g>
		<path fill-rule="evenodd" clip-rule="evenodd" fill="#00778D" d="M43.52,222.26c8.93,121.23,6.39,242.07,0.85,363.37l-0.08,1.79    c-14.23-1.49-28.32-3.14-42.14-4.9C7.5,465.21,10.4,346.9,1.37,224.21l0.22,2.35c15.41-5.91,28.93-14.39,40.35-25.75L43.52,222.26    z"/>
		<path fill-rule="evenodd" clip-rule="evenodd" fill="#00778D" d="M335.16,223.36c-8.93,121.23-6.39,242.07-0.85,363.37l0.02,0.54    c14.1-1.45,28.14-3.07,42.13-4.87c-5.35-116.52-8.25-234.05,0.56-355.96l0,0c-15.35-5.88-28.83-14.3-40.21-25.56L335.16,223.36z"/>
		<path fill-rule="evenodd" clip-rule="evenodd" fill="#FFF500" d="M3.52,550.89h36.02l-0.16,3.86H3.36L3.52,550.89L3.52,550.89z     M1.91,231.86c0.5,7.11,0.95,14.21,1.37,21.29h35.94c-0.41-7.09-0.86-14.19-1.35-21.29H1.91L1.91,231.86z M4.07,267.32    c0.34,6.46,0.65,12.91,0.92,19.35H40.9c-0.27-6.45-0.57-12.9-0.9-19.35H4.07L4.07,267.32z M5.63,302.76    c0.21,5.81,0.39,11.62,0.56,17.41h35.89c-0.16-5.8-0.34-11.61-0.55-17.41H5.63L5.63,302.76z M6.63,338.2    c0.11,5.17,0.2,10.32,0.27,15.48h35.88c-0.07-5.16-0.16-10.32-0.27-15.48H6.63L6.63,338.2z M7.11,373.65    c0.03,4.52,0.05,9.03,0.06,13.54h35.88c-0.01-4.51-0.03-9.03-0.06-13.54H7.11L7.11,373.65z M7.13,409.1    c-0.02,3.87-0.05,7.74-0.09,11.6h35.9c0.03-3.87,0.06-7.74,0.08-11.6H7.13L7.13,409.1z M6.73,444.54    c-0.05,3.22-0.11,6.45-0.18,9.67h35.92c0.06-3.22,0.12-6.45,0.17-9.67H6.73L6.73,444.54z M5.96,479.99    c-0.07,2.58-0.14,5.15-0.21,7.73H41.7c0.07-2.58,0.14-5.15,0.2-7.73H5.96L5.96,479.99z M4.87,515.43l-0.2,5.79h35.99l0.2-5.79    H4.87z"/>
		<path fill-rule="evenodd" clip-rule="evenodd" fill="#FFF500" d="M375.13,551.98h-35.99l0.16,3.86h36L375.13,551.98L375.13,551.98    z M373.97,522.33l-0.21-5.79h-35.94l0.2,5.79H373.97L373.97,522.33z M372.87,488.82c-0.07-2.58-0.15-5.15-0.21-7.73h-35.89    c0.07,2.58,0.13,5.15,0.2,7.73H372.87L372.87,488.82z M372.05,455.3c-0.06-3.22-0.12-6.44-0.18-9.67h-35.84    c0.05,3.22,0.11,6.45,0.17,9.67H372.05L372.05,455.3z M371.54,421.79c-0.04-3.87-0.07-7.73-0.09-11.6h-35.8    c0.02,3.87,0.05,7.74,0.08,11.6H371.54L371.54,421.79z M371.39,388.29c0.01-4.51,0.02-9.02,0.05-13.54h-35.77    c-0.03,4.51-0.05,9.03-0.06,13.54H371.39L371.39,388.29z M371.65,354.79c0.07-5.15,0.16-10.31,0.26-15.48h-35.75    c-0.11,5.16-0.2,10.32-0.27,15.48H371.65L371.65,354.79z M372.34,321.27c0.16-5.8,0.34-11.6,0.55-17.41h-35.75    c-0.2,5.81-0.39,11.61-0.55,17.41H372.34L372.34,321.27z M373.52,287.76c0.27-6.44,0.58-12.89,0.91-19.35h-35.75    c-0.33,6.45-0.63,12.9-0.9,19.35H373.52L373.52,287.76z M375.2,254.25c0.41-7.08,0.87-14.18,1.36-21.29H340.8    c-0.49,7.1-0.94,14.19-1.35,21.29L375.2,254.25L375.2,254.25z"/>
	</g>
	<path fill-rule="evenodd" clip-rule="evenodd" fill="#DCDDDD" d="M189.3,34.86c29.56-0.45,47.85-7.51,59.45-16.25   c0-0.11,0-0.11,0-0.22c0.56,57.93-23.53,91.65-59.56,113.72c-35.91-22.07-60.01-55.8-59.56-113.72c0,0.11,0,0.11,0,0.22   C141.34,27.35,159.75,34.41,189.3,34.86z"/>
	
		<path fill-rule="evenodd" clip-rule="evenodd" fill="#003F5C" stroke="#DCDDDD" stroke-width="0.2" stroke-miterlimit="22.9256" d="   M1.48,226.57c60.9-23.3,92.24-86.61,80.53-208.4l-14.17,2.35c7.03,109.47-13.38,165.38-67.59,190.93L1.48,226.57z"/>
	
		<path fill-rule="evenodd" clip-rule="evenodd" fill="#003F5C" stroke="#DCDDDD" stroke-width="0.2" stroke-miterlimit="22.9256" d="   M130.64,0.24c-6.13,69.24,19.07,107.56,58.67,131.87c39.6-24.31,64.8-62.63,58.67-131.87l14.05,7.06   c7.47,64.98-22.53,115.4-72.72,142.18c-50.19-26.78-80.19-77.2-72.72-142.18L130.64,0.24z"/>
	
		<path fill-rule="evenodd" clip-rule="evenodd" fill="#003F5C" stroke="#DCDDDD" stroke-width="0.2" stroke-miterlimit="22.9256" d="   M377.02,226.57c-60.9-23.3-92.24-86.61-80.53-208.4l14.17,2.35c-7.03,109.46,13.38,165.37,67.59,190.92L377.02,226.57   L377.02,226.57z"/>
	
		<path fill-rule="evenodd" clip-rule="evenodd" fill="#003F5C" stroke="#DCDDDD" stroke-width="0.2" stroke-miterlimit="22.9256" d="   M130.64,0.24c16.51,16.02,36.7,21.06,58.67,20.95c21.86,0,42.05-4.93,58.67-20.95c0.56,6.27,0.89,12.32,0.89,18.15   c0,0.11,0,0.11-0.11,0.22c-11.6,8.74-30,15.8-59.45,16.25c-29.56-0.45-47.85-7.51-59.45-16.25c0-0.11,0-0.11-0.11-0.22   C129.85,12.68,130.08,6.63,130.64,0.24z"/>
	
	<path fill-rule="evenodd" clip-rule="evenodd" fill="#08A6C1" d="M75.52,19.24c10.12,114.53-18.6,176.28-74.54,201.21l0.5,6.11   c0.02-0.01,0.04-0.01,0.06-0.02c0.02-0.01,0.03-0.01,0.05-0.02c60.83-23.34,92.13-86.64,80.42-208.36L75.52,19.24z"/>
	<path fill-rule="evenodd" clip-rule="evenodd" fill="#08A6C1" d="M377.57,219.72c-55.37-25.1-83.79-86.66-73.85-200.35l-7.24-1.2   c-1.63,16.91-2.42,32.7-2.42,47.4c0.01,91.13,30.53,140.82,82.95,160.88c0,0.04-0.01,0.07-0.01,0.11h0.01L377.57,219.72z"/>
	<path fill-rule="evenodd" clip-rule="evenodd" fill="#08A6C1" d="M189.5,142.69c-46.45-27.49-73.74-76.32-66.67-138.53l-6.25,3.14   c-0.76,6.62-1.13,13.08-1.14,19.38c-0.02,55.62,28.77,98.74,73.86,122.8c2.08-1.11,4.12-2.26,6.12-3.44   c41.55-24.61,67.75-66.29,67.73-119.35c0-0.04,0-0.09,0-0.13c-0.01-6.26-0.38-12.68-1.14-19.25l-6.91-3.47l0.08,0.67   C262.31,66.38,235.43,115.06,189.5,142.69z"/>
	<path fill-rule="evenodd" clip-rule="evenodd" fill="#08A6C1" d="M190.35,27.97c-21.03,0.11-43.91-4.51-60.3-18.96   c-0.16,3.22-0.25,6.35-0.31,9.38c0.11,0.11,0.11,0.11,0.11,0.22c10.79,8.13,27.37,14.8,53.42,16.06c1.96,0.09,3.97,0.16,6.03,0.19   c29.45-0.45,47.85-7.51,59.45-16.25c0.11-0.11,0.11-0.11,0.11-0.22c0-0.77-0.01-1.55-0.02-2.33c-0.04-2.01-0.11-4.05-0.21-6.12   C232.34,23.37,210.61,27.97,190.35,27.97z"/>
</g>
<g id="图层_x0020_1">
	<path fill="#F08300" d="M177.49,60.22c0.416,1.136,1.472,1.984,2.752,2.032c0.144,0,0.304,0,0.448-0.016h0.016   c0.016,0,0.064,0,0.128-0.016c0.032,0,0.048-0.016,0.08-0.016c0.064-0.016,0.144-0.032,0.224-0.048c0.016,0,0.016,0,0.032,0   c0.192-0.048,0.4-0.112,0.576-0.208c0.192-0.096,0.4-0.224,0.608-0.384c0.672-0.56,1.104-1.408,1.104-2.352   c0-0.224-0.032-0.448-0.08-0.672l0,0C183.33,58.34,183.28,58.17,183.2,57.99C182.73,56.9,181.65,56.14,180.38,56.14C178.69,56.14,177.31,57.51,177.31,59.21C177.31,59.56,177.37,59.9,177.49,60.22L177.49,60.22L177.49,60.22z M181.79,59.24L181.79,59.24C181.76,60.02,181.1,60.62,180.32,60.58C179.53,60.55,178.94,59.9,178.97,59.11c0.032-0.784,0.688-1.376,1.472-1.344   C181.21,57.8,181.82,58.47,181.79,59.24L181.79,59.24z"/>
	<polygon fill="#F08300" points="195.82,56.82 ,195.18,58.41 ,193.74,58.41 ,192.32,61.96 ,190.37,61.96 ,191.77,58.41 ,190.19,58.41    ,190.83,56.82"/>
	<path fill="#F08300" d="M197.79,52.09c-1.008-0.096-3.024-0.144-5.056,0.112c-2.416,0.304-5.152,0.912-7.616,1.664   C183.07,54.47,181.2,55.19,179.85,55.96C180.05,55.93,180.24,55.91,180.43,55.91c0.48,0,0.944,0.112,1.36,0.288   C185.89,53.88,193.09,51.83,197.79,52.09L197.79,52.09L197.79,52.09z"/>
	<path fill="#F08300" d="M183.26,57.56c4-2.368,8.88-4.672,13.488-5.248c-4.608,0.288-10.224,2-14.288,4.304   C182.78,56.87,183.05,57.19,183.26,57.56C183.26,57.56,183.26,57.56,183.26,57.56z"/>
	<polygon fill="#F08300" points="201.31,56.82 ,200.69,58.41 ,199.23,58.41 ,197.82,61.96 ,197.36,61.96 ,195.85,61.96 ,194.16,61.96    ,194.75,60.46 ,196.46,60.46 ,197.28,58.41 ,195.69,58.41 ,196.33,56.82"/>
	<polygon fill="#F08300" points="190.4,56.82 ,189.76,58.41 ,187.47,60.52 ,189.73,60.52 ,189.15,61.96 ,183.66,61.96 ,187.33,58.41    ,184.75,58.41 ,185.39,56.82"/>
	<path fill="#F08300" d="M195.68,52.68c-3.376,0.752-6.464,2.192-9.424,3.952h1.888C190.57,55.06,192.91,53.63,195.68,52.68z    M184.88,57.5C184.25,57.88,184.19,57.93,183.58,58.34c0.064,0.256,0.112,0.544,0.112,0.816c0,0.496-0.112,0.976-0.32,1.392   c0.176-0.16,0.32-0.304,0.432-0.4c0.272-0.24,0.768-0.64,1.6-1.296l0.32-0.256H184.4l0,0L184.88,57.5L184.88,57.5L184.88,57.5z"/>
</g>
</svg>