<?xml version="1.0" encoding="utf-8"?>
<!-- Generator: Adobe Illustrator 23.0.0, SVG Export Plug-In . SVG Version: 6.00 Build 0)  -->
<svg version="1.1" id="图层_1" xmlns="http://www.w3.org/2000/svg" xmlns:xlink="http://www.w3.org/1999/xlink" x="0px" y="0px"
	 width="378.5px" height="456px" viewBox="0 0 378.5 456" enable-background="new 0 0 378.5 456" xml:space="preserve">
<g>
	
		<path fill-rule="evenodd" clip-rule="evenodd" fill="#00914C" stroke="#DCDDDD" stroke-width="0.2" stroke-miterlimit="22.9256" d="
		M189.25,31.43c47.21,1.1,89.71-2.15,129.86-7.61v0.02l1.97,8.28l0.17,0.69v0.01c26.94,82.67,42.27,225.2,56.03,375.75l0.93,10.18
		c-49.96,38.86-109.66,42.91-173.8,31.14l-15.17-80.5l-15.17,80.5c-64.12,11.78-123.82,7.73-173.78-31.13l0.93-10.18
		C14.97,258.02,30.29,115.51,57.25,32.84v-0.01l0.17-0.69l1.97-8.28l0.01-0.02C99.53,29.29,142.04,32.54,189.25,31.43z"/>
	
		<line fill="none" stroke="#DCDDDD" stroke-width="0.2" stroke-miterlimit="22.9256" x1="189.25" y1="369.38" x2="189.25" y2="40.95"/>
	<path fill-rule="evenodd" clip-rule="evenodd" fill="#FFFFFF" d="M80.92,26.51c0.25,2.88,0.38,5.67,0.38,8.35
		c0.01,45.48-4.15,95.39-8.13,148.82c-6.54,87.94-15.14,174.96-22.4,262.22c-17.7-5.93-34.59-14.77-50.49-27.14l0.93-10.18
		C14.97,258.02,30.29,115.51,57.25,32.84v-0.01l0.17-0.69l1.97-8.28l0.01-0.02c3.55,0.48,7.11,0.95,10.69,1.39
		c1.79,0.22,3.59,0.44,5.39,0.66c1.8,0.21,3.61,0.42,5.42,0.63L80.92,26.51z"/>
	<path fill-rule="evenodd" clip-rule="evenodd" fill="#666666" d="M63.8,297.41l-0.78,0.54l0.38,3.49l0.05,0.02l-0.08,0.93
		l-0.27-0.14l-2.85,2.41l0.34,3.14l2.22,0.9l-0.11,1.23l-2.41-0.97l-2.94,2.03l0.34,3.09l3.33,1.75l1.26-1.07l-0.13,1.5l-0.63,0.53
		l0.32,2.93l-0.13,1.41l-0.16-0.06l-2.91,2.01l0.38,3.51l2.1,1.1l-0.09,0.92l-2.38-1.25l-2.87,2.43l0.38,3.51l3.29,1.33l1.12-0.77
		l-0.1,1.16l-0.53,0.36l0.27,2.5l-0.16,1.83l-0.07-0.04l-2.83,2.39l0.36,3.34l1.96,0.79l-0.1,1.16l-2.2-0.89l-2.9,2l0.38,3.52
		l3.31,1.74l0.9-0.76l-0.11,1.2l-0.31,0.26l0.15,1.44l-0.27,3l-2.7,1.87l0.38,3.51l1.76,0.93l-0.08,0.93l-2.04-1.07l-2.87,2.43
		l0.38,3.51l3.29,1.33l0.74-0.51l-0.1,1.16l-0.15,0.1l0.08,0.72l-0.34,3.82l-2.53,2.14l0.36,3.32l1.63,0.66l-0.1,1.18l-1.86-0.75
		l-2.9,2l0.38,3.52l3.31,1.74l0.53-0.45l-0.51,5.79l-2.38,1.64l0.38,3.52l1.48,0.78l-0.09,1.01l-1.81-0.95l-2.95,2.49l0.36,3.38
		l3.14,1.27l0.76-0.53l-0.53,6.07l-2.37,2l0,0l0.38,3.51l1.47,0.59l-0.08,0.94l-1.69-0.68l-2.85,1.97l0.39,3.58l3.26,1.72l0.36-0.31
		l-0.38,4.47l-0.36-3.36l-3.29-1.73l-2.91,2.46l0.37,3.46l3.29,1.33l2.88-1.99l-0.1,1.18l-2.46,1.69l0.38,3.52l1.56,0.82l-0.09,1.02
		l-1.91-1l-2.66,2.24l0.18,1.63c-0.41-0.15-0.81-0.3-1.21-0.45l-0.12-1.08l-3.12-1.64l-1.19,1l-0.97-0.39l1.62-1.37l-0.4-3.7
		l-0.01-0.05l-3.01-1.22l-2.87,1.98l0.27,2.47l-0.9-0.4l-0.21-1.94l-3.33-1.34l-1.39,0.96l-0.91-0.45l1.74-1.2l-0.39-3.53l-3.3-1.74
		l-2.87,2.43l0.18,1.63l-0.91-0.5l-0.11-1.05l-3.31-1.74l-0.61,0.51l-0.77-0.45l0.9-0.76l-0.38-3.51l-3.29-1.33l-2.89,1.99
		l0.01,0.12c-0.87-0.56-1.74-1.13-2.61-1.71l2.1,0.85l2.9-2l-0.38-3.5l-3.33-1.75l-2.85,2.4l0.34,3.18l-0.94-0.64l-0.26-2.42
		l-3.33-1.75l-1.02,0.86l-0.72-0.54l1.21-1.02l-0.38-3.5l-3.07-1.24l0.11-1.17l0.02,0.21l3.3,1.33l2.9-2l-0.38-3.52l-3.31-1.74
		l-2.18,1.84l0.11-1.2l1.58-1.33l-0.38-3.5l-0.73-0.3l0.08-0.89l0.97,0.39l2.9-2l-0.38-3.51l-2.88-1.52l0.09-0.98l3.23,1.7
		l2.87-2.43l-0.38-3.51l-3.29-1.33l-2.05,1.41l0.11-1.16l1.45-1L4,385.26l-0.62-0.33l0.09-0.94l0.84,0.44l2.86-2.41l-0.38-3.5
		l-2.7-1.09l0.09-0.97l2.98,1.2l2.9-2l-0.38-3.52l-3.31-1.74l-1.75,1.48l0.11-1.2l1.15-0.97l-0.37-3.48l-0.34-0.14l0.09-0.9
		l0.53,0.21l2.88-1.99l-0.38-3.51l-2.4-1.27l0.09-0.96l2.71,1.43l2.87-2.43l-0.38-3.51l-3.29-1.33l-1.45,1l0.11-1.17l0.85-0.58
		l-0.38-3.49l-0.07-0.03l0.09-0.94l0.28,0.15l2.86-2.41l-0.12-1.13l-0.26-2.37l-2.11-0.85l0.1-0.97l2.38,0.96l2.9-2l-0.38-3.52
		l-3.31-1.74l-1.05,0.88l0.12-1.21l0.44-0.37l-0.21-1.94l0.24-2.39l2.84-1.96l-0.38-3.51l-1.81-0.95l0.09-0.93l2.08,1.1l2.87-2.42
		l-0.38-3.52l-3.28-1.33l-0.7,0.48l0.12-1.17l0.09-0.06l-0.04-0.38l0.45-4.32l2.39-2.02l-0.38-3.52l-1.38-0.56l0.1-0.96l1.64,0.66
		l2.89-1.99l-0.39-3.53l-3.3-1.74l-0.16,0.13l0.31-2.89l0.22,1.98l3.3,1.74l2.87-2.43l-0.38-3.51l-3.29-1.33l-2.53,1.74l0.12-1.14
		l1.87-1.29l-0.38-3.52l-0.91-0.48l0.11-0.98l1.21,0.64l2.86-2.42l-0.38-3.51l-2.98-1.2l0.1-0.88l3.19,1.29l2.89-2l-0.38-3.52
		l-3.31-1.74l-1.91,1.61l0.14-1.22l1.28-1.08l-0.38-3.51l-0.37-0.15l0.11-0.96l0.62,0.25l2.89-1.99l-0.38-3.51l-2.39-1.25l0.11-0.92
		l2.61,1.37l2.85-2.41l-0.38-3.52l-3.29-1.33l-1.2,0.83l0.14-1.19l0.57-0.4l-0.25-2.32l0.23-1.99l2.87-2.42l-0.38-3.52l0,0
		l-1.69-0.68l0.1-0.86l1.93,0.78l2.91-2l-0.38-3.52l-3.3-1.74l-0.4,0.34c0.16-1.27,0.31-2.54,0.47-3.81l0.29,2.69l3.3,1.74
		l2.87-2.43L26,227.13l-3.29-1.33l-2.68,1.88l0.15-1.19l2.04-1.41l-0.38-3.5l-0.97-0.51l0.12-0.91l1.18,0.62l2.85-2.4l-0.38-3.53
		l-2.82-1.14l0.12-0.94l3.06,1.24l2.9-2l-0.38-3.52l-3.31-1.74l-1.65,1.4l0.16-1.25l1-0.85l-0.38-3.51l-0.04-0.02l0.12-0.86
		l0.23,0.09l2.89-1.99l-0.38-3.53l-1.86-0.98l0.13-0.9l2.1,1.11l2.87-2.43l-0.38-3.51l-3.29-1.33l-0.49,0.34l0.56-3.94l0.3,2.74
		l3.29,1.33l2.91-2.01l-0.38-3.48l-3.35-1.76l-2.63,2.22l0.19-1.29l1.92-1.62l-0.38-3.53l-0.75-0.3l0.14-0.94l0.97,0.39l2.9-2
		l-0.38-3.52l-2.53-1.33l0.14-0.9l2.75,1.45l2.89-2.44l-0.38-3.49l-3.31-1.34l-1.19,0.82l0.18-1.14l0.5-0.35l-0.19-1.71l0.45-2.84
		l2.67-2.26l-0.38-3.48l-1.3-0.53l0.15-0.91l1.52,0.61l2.9-2l-0.38-3.48l-3.01-1.58l0.15-0.91l3.14,1.65l2.86-2.41l-0.38-3.5
		l-3.3-1.33l-1.54,1.07l0.21-1.27l0.8-0.55l-0.27-2.51l0.31-1.79l0,0l2.87-2.43l-0.37-3.48l-1.36-0.55l0.16-0.88l1.47,0.59
		l2.88-1.99l-0.38-3.51l-2.8-1.48l0.17-0.92l3.03,1.59l2.87-2.43l-0.38-3.51l-3.29-1.33l-1.34,0.92l0.24-1.26l0.61-0.42l-0.19-1.75
		c0.19-0.99,0.39-1.97,0.58-2.95l2.4-2.02l-0.12-1.13l-0.26-2.37l-0.84-0.34l0.19-0.93l1.02,0.41l2.9-2l-0.38-3.52l-2.22-1.17
		l0.19-0.88l2.4,1.26l2.87-2.42l-0.38-3.52l-3.27-1.32l-0.37,0.26c0.18-0.83,0.37-1.67,0.55-2.5l0.16,1.47l3.28,1.32l2.91-2
		l-0.38-3.52l-3.3-1.74l-2.03,1.72l0.31-1.37l1.23-1.04l-0.31-2.91l0.36-1.5l2.84-1.96l-0.38-3.5l-1.01-0.53L47.31,68l1.12,0.59
		l2.85-2.4l-0.38-3.53l-2.04-0.82l0.24-0.9l2.16,0.87l2.9-2l-0.38-3.52l-3.02-1.59l0.23-0.85l3.15,1.66l2.89-2.45l-0.38-3.49
		l-3.31-1.34l-0.98,0.67c0.13-0.44,0.25-0.88,0.38-1.32l0.05-0.04l-0.01-0.11c0.21-0.73,0.42-1.46,0.63-2.19l0.24,2.19l3.29,1.33
		l2.89-2l-0.38-3.52l-3.31-1.74l-2.15,1.81l0.44-1.48l1.26-1.06l-0.24-2.26c0.25-0.82,0.51-1.63,0.76-2.44l2.3-1.59l-0.39-3.53
		l-0.38-0.2l0.21-0.86l0.54,0.29l2.87-2.43l-0.38-3.51l-0.75-0.3l1.59,0.21l0.38,3.51l3.31,1.74l2.81-2.37l-0.22-2.07l0.94,0.12
		l0.2,1.83l3.26,1.71l2.85-2.4l-0.04-0.38l0.16,0.02l0.72,0.09l0.02,0.14l3.34,1.76l1.38-1.16c0.03,0.36,0.06,0.72,0.09,1.09
		l-0.91,0.77l0.38,3.52l0.78,0.31c0.01,0.31,0.02,0.62,0.02,0.92l-1.11-0.45l-2.89,2l0.38,3.52l3.32,1.75l0.3-0.26
		c-0.01,1.82-0.03,3.64-0.05,5.47l-2.62,1.81L79,50.66l2.13,1.12l-0.02,0.97l-2.47-1.3l-2.87,2.42l0.38,3.52l3.28,1.33l1.56-1.08
		l-0.03,1.11l-1.04,0.71l0.38,3.51l0.52,0.27l-0.03,0.96l-0.82-0.43l-2.85,2.41l0.38,3.52l3.05,1.23l-0.06,1.48l-0.06-0.53
		l-3.29-1.33l-2.89,1.99l0.39,3.53l3.3,1.74l2.41-2.04l-0.05,1.15l-1.87,1.58l0.38,3.52l0,0l1.23,0.5L80,83.41l-1.53-0.62l-2.91,2
		l0.38,3.52l3.3,1.74l0.44-0.37c-0.1,1.89-0.2,3.79-0.31,5.7l-2.51,1.73l0.38,3.5l1.77,0.93l-0.06,0.94l-2.04-1.07l-2.85,2.4
		l0.38,3.53l3.28,1.33l0.88-0.61l-0.07,1.14l-0.32,0.22l0.19,1.75l-0.17,2.56h-0.01l-2.87,2.43l0.38,3.51l2.05,0.83l-0.06,0.89
		l-2.3-0.93l-2.89,1.99l0.38,3.53l3.3,1.74l1.13-0.96l-0.08,1.18l-0.55,0.47l0.32,2.93l-0.11,1.52l-0.19-0.08l-2.9,2l0.38,3.5
		l2.23,1.17l-0.07,0.93l-2.49-1.31l-2.85,2.4l0.38,3.53l3.28,1.33l1.3-0.9l-0.08,1.15l-0.72,0.5l0.39,3.53l0.04,0.02l-0.07,0.93
		l-0.33-0.18l-2.87,2.43l0.38,3.51l2.33,0.94l-0.07,0.89l-2.59-1.05l-2.91,2.01l0.38,3.51l3.33,1.75l1.41-1.19l-0.09,1.18
		l-0.97,0.82l0.39,3.66l0.02,0.16l0.21,0.08l-0.07,0.88l-0.8-0.32l-2.89,1.99l0.34,3.09l0.21,0.11l2.67,1.4l-0.1,1.32L70.54,177
		l-2.56,2.16l0.37,3.46l3.04,1.23l1.87-1.29l-0.08,1.12L73.15,184l-1.22,0.84l0.33,3.01l0.58,0.3l-0.08,1.09l-0.82-0.43l-2.74,2.32
		l0.38,3.51l2.69,1.09l-0.09,1.19l-2.76-1.12l-2.89,1.99l0.38,3.49l2.94,1.55l2.01-1.69l-0.14,1.76l-1.17,0.99L70.41,204l0.32,2.97
		l0.65,0.26l-0.07,0.93l-0.86-0.35l-2.86,1.97l0.18,1.65l0.2,1.86l2.81,1.48l-0.09,1.16l-2.91-1.53l-2.86,2.42l0.35,3.26l3.28,1.33
		l1.8-1.24l-0.11,1.38l-1.15,0.79l0.36,3.26l0.45,0.24l-0.09,1.12l-0.86-0.45l-2.89,2.44l-0.04,0.03l0.35,3.24l2.92,1.18l-0.09,1.06
		l-3.13-1.26l-2.72,1.88l0.39,3.53l3.31,1.74l1.8-1.52l-0.13,1.62l-1.13,0.95l0.37,3.4l0.38,0.16l-0.08,0.99l-0.63-0.26l-2.94,2.03
		l0.06,0.52l0.3,2.79l2.67,1.4l-0.08,0.95l-2.75-1.45l-2.97,2.51l0.36,3.32l3.19,1.29l1.8-1.24l-0.1,1.2l-1.31,0.9l-0.19,0.13
		l-0.06-0.03l0.32,2.96l0.02-0.01l0.25,0.13l0.59,0.31l-0.12,1.42l-1-0.53l-2.5,2.11l0.02,0.2l0.36,3.29l2.59,1.05l-0.09,1.1
		l-2.62-1.06l-3.07,2.12l0.36,3.33l3.31,1.74l0,0l1.61-1.36l-0.1,1.19l-1.01,0.85l0,0l0.38,3.5l0.24,0.1l-0.1,1.13l-0.47-0.19
		l-2.9,2l0.38,3.53l2.21,1.16l0.2,0.08l-0.08,0.93l-0.47-0.25l-2.15-0.87l-2.16,1.49l-0.74,0.63l0.37,3.4l1.96,1.03l1.51,0.61
		l1.25-1.06L63.8,297.41L63.8,297.41z M69.7,34.94l2.9-2l-0.23-2.15l-0.15-1.34l-3.35-1.76l-2.86,2.41l0.38,3.5L69.7,34.94
		L69.7,34.94z M69.4,35.74l-3.3-1.33l-2.9,2l0.18,1.65l0.2,1.86l3.33,1.75l2.86-2.42L69.4,35.74L69.4,35.74z M65.55,33.72
		l-0.38-3.52l-3.31-1.74L59,30.88l0.38,3.51l3.29,1.33L65.55,33.72L65.55,33.72z M73.06,29.34l0.16,1.45l0.22,2.04l3.31,1.34
		l2.89-1.99l-0.38-3.5l-3.34-1.76L73.06,29.34L73.06,29.34z M62.36,36.51l-3.31-1.34l-2.89,2l0.38,3.52l3.31,1.74L62.74,40
		l-0.19-1.81L62.36,36.51L62.36,36.51z M63.18,40.74l-2.87,2.43l0.38,3.49l3.3,1.34l2.9-2l-0.38-3.51L63.18,40.74L63.18,40.74z
		 M76.43,34.96l-3.29-1.33l-2.89,1.99l0.39,3.53l3.31,1.74l2.87-2.42L76.43,34.96L76.43,34.96z M70.23,39.97l-2.89,2.44l0.38,3.49
		l3.31,1.34l2.89-2l-0.38-3.52L70.23,39.97L70.23,39.97z M71.9,157.45l-0.38-3.52l-3.31-1.74l-2.89,2.44l0.38,3.49l3.3,1.33
		L71.9,157.45L71.9,157.45z M71.89,153.14l2.87-2.42l-0.38-3.52l-3.28-1.33l-2.9,2l0.38,3.52L71.89,153.14L71.89,153.14z
		 M64.85,153.91l2.87-2.43l-0.38-3.51l-3.29-1.33l-2.91,2.01l0.38,3.51L64.85,153.91L64.85,153.91z M61.95,160.22l2.91-2.01
		l-0.38-3.51l-3.33-1.75l-2.87,2.43l0.38,3.51L61.95,160.22L61.95,160.22z M61.63,161l-3.29-1.33l-2.91,2.01l0.38,3.51l3.25,1.71
		l2.94-2.48L61.63,161L61.63,161z M57.81,158.99l-0.38-3.52l-3.31-1.74l-2.87,2.42l0.38,3.52l3.29,1.33L57.81,158.99L57.81,158.99z
		 M57.79,154.69l2.89-2.44l-0.38-3.49l-3.3-1.33l-2.9,2l0.38,3.52L57.79,154.69L57.79,154.69z M54.59,161.77l-3.31-1.34l-2.9,2
		l0.38,3.52l3.24,1.71l2.95-2.49L54.59,161.77L54.59,161.77z M50.77,159.77l-0.39-3.53l-3.3-1.74l-2.87,2.43l0.38,3.51l3.29,1.33
		L50.77,159.77L50.77,159.77z M50.75,155.46l2.87-2.43l-0.38-3.51l-3.29-1.33l-2.89,1.99l0.39,3.53L50.75,155.46L50.75,155.46z
		 M43.74,160.53l-0.38-3.52l-3.31-1.74l-2.89,2.44l0.38,3.49l3.31,1.34L43.74,160.53L43.74,160.53z M43.72,156.23l2.87-2.42
		l-0.38-3.52l-3.28-1.33l-2.9,2l0.38,3.52L43.72,156.23L43.72,156.23z M40.49,163.3l-3.29-1.33l-2.91,2l0.38,3.51l3.26,1.71
		l2.93-2.47L40.49,163.3L40.49,163.3z M36.68,157l2.87-2.43l-0.38-3.51l-3.29-1.33l-2.85,1.97l0.39,3.58L36.68,157L36.68,157z
		 M70.59,145.13l-0.38-3.51l-3.33-1.75l-2.85,2.41l0.38,3.52l3.29,1.33L70.59,145.13L70.59,145.13z M63.56,145.89l-0.38-3.48
		l-3.35-1.76l-2.86,2.41l0.38,3.5l3.3,1.33L63.56,145.89L63.56,145.89z M67.19,139.05l3.35,1.76l2.85-2.41l-0.38-3.52l-3.29-1.33
		l-2.91,2.01L67.19,139.05L67.19,139.05z M60.14,139.82l3.35,1.76l2.86-2.41l-0.38-3.5l-3.3-1.33l-2.9,2L60.14,139.82L60.14,139.82z
		 M53.6,148.67l2.91-2.01l-0.38-3.48l-3.35-1.76l-2.85,2.41l0.38,3.52L53.6,148.67L53.6,148.67z M49.46,147.44l-0.38-3.5l-3.33-1.75
		l-2.85,2.4l0.38,3.53l3.28,1.33L49.46,147.44L49.46,147.44z M53.11,140.61l3.33,1.75l2.85-2.41l-0.38-3.52l-3.29-1.33l-2.89,1.99
		L53.11,140.61L53.11,140.61z M42.42,148.21l-0.38-3.51l-3.33-1.75l-2.85,2.41l0.38,3.52l3.29,1.33L42.42,148.21L42.42,148.21z
		 M46.07,141.38l3.33,1.75l2.85-2.4l-0.38-3.53l-3.28-1.33l-2.9,2L46.07,141.38L46.07,141.38z M39.02,142.14l3.35,1.76l2.85-2.41
		l-0.38-3.52l-3.29-1.33l-2.91,2.01L39.02,142.14L39.02,142.14z M37.35,126.32l0.38,3.52l3.31,1.74l2.87-2.42l-0.38-3.52l-3.29-1.33
		L37.35,126.32L37.35,126.32z M37.37,130.63l-2.89,2.44l0.38,3.49l3.3,1.33l2.9-2l-0.38-3.52L37.37,130.63L37.37,130.63z
		 M40.53,123.53l3.31,1.34l2.89-2l-0.38-3.52l-3.31-1.74l-2.89,2.44L40.53,123.53L40.53,123.53z M44.39,125.54l0.39,3.53l3.3,1.74
		l2.87-2.43l-0.38-3.51l-3.29-1.33L44.39,125.54L44.39,125.54z M44.41,129.85l-2.87,2.43l0.38,3.51l3.29,1.33l2.89-1.99l-0.38-3.53
		L44.41,129.85L44.41,129.85z M47.59,122.76l3.29,1.33l2.89-1.99l-0.39-3.53l-3.3-1.74l-2.87,2.43L47.59,122.76L47.59,122.76z
		 M51.42,124.78l0.38,3.52l3.31,1.74L58,127.6l-0.38-3.49l-3.31-1.34L51.42,124.78L51.42,124.78z M51.44,129.09l-2.87,2.42
		l0.38,3.52l3.28,1.33l2.9-2l-0.38-3.52L51.44,129.09L51.44,129.09z M54.63,121.99l3.29,1.33l2.89-2l-0.38-3.52l-3.31-1.74
		l-2.87,2.42L54.63,121.99L54.63,121.99z M58.48,128.32l-2.87,2.43l0.38,3.51l3.29,1.33l2.91-2.01l-0.38-3.51L58.48,128.32
		L58.48,128.32z M61.36,122.02l-2.9,2l0.38,3.51l3.33,1.75l2.87-2.43l-0.38-3.49L61.36,122.02L61.36,122.02z M61.65,121.21
		l3.31,1.34l2.9-2l-0.38-3.51l-3.33-1.75l-2.87,2.43L61.65,121.21L61.65,121.21z M65.52,123.24l0.38,3.52l3.31,1.74l2.87-2.42
		l-0.38-3.51l-3.29-1.33L65.52,123.24L65.52,123.24z M65.54,127.54l-2.89,2.44l0.38,3.49l3.3,1.33l2.9-2l-0.38-3.52L65.54,127.54
		L65.54,127.54z M68.7,120.44l3.31,1.34l2.89-2l-0.38-3.52l-3.31-1.74l-2.89,2.44L68.7,120.44L68.7,120.44z M72.58,126.77
		l-2.87,2.43l0.38,3.51l3.29,1.33l2.89-1.99l-0.39-3.53L72.58,126.77L72.58,126.77z M74.89,115.48l2.87-2.42l-0.38-3.52l-3.28-1.33
		l-2.9,2l0.38,3.52L74.89,115.48L74.89,115.48z M67.85,116.25l2.87-2.43l-0.38-3.51l-3.29-1.33l-2.91,2.01l0.38,3.51L67.85,116.25
		L67.85,116.25z M60.79,117.02l2.89-2.44l-0.38-3.49l-3.3-1.33l-2.9,2l0.38,3.52L60.79,117.02L60.79,117.02z M53.75,117.79
		l2.87-2.43l-0.38-3.51l-3.29-1.33l-2.89,1.99l0.39,3.53L53.75,117.79L53.75,117.79z M46.72,118.56l2.87-2.42l-0.38-3.52l-3.28-1.33
		l-2.9,2l0.38,3.52L46.72,118.56L46.72,118.56z M73.6,107.46l-0.38-3.51l-3.33-1.75l-2.85,2.41l0.38,3.52l3.29,1.33L73.6,107.46
		L73.6,107.46z M66.57,108.23l-0.38-3.48l-3.35-1.76l-2.86,2.41l0.38,3.5l3.3,1.33L66.57,108.23L66.57,108.23z M70.19,101.39
		l3.35,1.76l2.85-2.41l-0.38-3.52l-3.28-1.32l-2.91,2.01L70.19,101.39L70.19,101.39z M63.15,102.15l3.35,1.76l2.86-2.41L68.97,98
		l-3.3-1.33l-2.9,2L63.15,102.15L63.15,102.15z M56.61,111l2.91-2.01l-0.38-3.48l-3.35-1.76l-2.85,2.41l0.38,3.52L56.61,111
		L56.61,111z M52.47,109.77l-0.38-3.5l-3.33-1.75l-2.85,2.4l0.38,3.53l3.28,1.33L52.47,109.77L52.47,109.77z M56.12,102.94
		l3.33,1.75l2.85-2.41l-0.38-3.52l-3.29-1.33l-2.89,1.99L56.12,102.94L56.12,102.94z M45.43,110.55l-0.38-3.51l-3.33-1.75
		l-2.85,2.41l0.38,3.52l3.29,1.33L45.43,110.55L45.43,110.55z M49.08,103.71l3.33,1.75l2.85-2.41l-0.38-3.53l-3.28-1.33l-2.9,2
		L49.08,103.71L49.08,103.71z M42.02,104.47l3.35,1.76l2.85-2.41l-0.38-3.52l-3.29-1.33l-2.91,2.01l0.27,2.48L42.02,104.47
		L42.02,104.47z M47.4,87.89l0.38,3.52l3.3,1.74l2.87-2.43l-0.38-3.51l-3.28-1.32L47.4,87.89L47.4,87.89z M47.41,92.19l-2.87,2.43
		l0.38,3.51l3.29,1.33l2.89-1.99l-0.39-3.53L47.41,92.19L47.41,92.19z M54.43,87.12l0.38,3.51l3.31,1.74l2.89-2.44l-0.38-3.49l0,0
		l-3.29-1.33L54.43,87.12L54.43,87.12z M54.44,91.42l-2.87,2.42l0.38,3.52l3.28,1.33l2.9-2l-0.38-3.52L54.44,91.42L54.44,91.42z
		 M53.92,86.44l2.91-2.01l-0.38-3.51l-3.31-1.74l-2.87,2.42l0.38,3.52l0,0L53.92,86.44L53.92,86.44z M61.48,90.65l-2.87,2.43
		l0.38,3.51l3.29,1.33l2.91-2.01l-0.38-3.51L61.48,90.65L61.48,90.65z M61.47,86.35l0.38,3.51l3.33,1.75l2.87-2.43l-0.38-3.51
		l-3.29-1.33L61.47,86.35L61.47,86.35z M60.97,85.68l2.91-2.01l-0.38-3.51l-3.33-1.75l-2.87,2.43l0.38,3.51l0,0L60.97,85.68
		L60.97,85.68z M68.52,85.58l0.38,3.51l3.31,1.74l2.87-2.42l-0.38-3.52l-0.84-0.34l-2.43-0.98L68.52,85.58L68.52,85.58z
		 M68.54,89.88l-2.89,2.44l0.38,3.49l3.3,1.33l2.9-2l-0.38-3.52L68.54,89.88L68.54,89.88z M68.02,84.9l2.91-2.01l-0.38-3.51
		l-3.31-1.74l-2.89,2.44l0.38,3.49l0,0L68.02,84.9L68.02,84.9z M75.58,89.11l-2.87,2.43l0.38,3.51l3.29,1.33l2.89-1.99l-0.39-3.53
		L75.58,89.11L75.58,89.11z M75.05,84.13l2.91-2l-0.38-3.52l-3.3-1.74l-2.87,2.43l0.38,3.51L75.05,84.13L75.05,84.13z M70.91,78.6
		l2.87-2.42l-0.38-3.52l-3.28-1.33l-2.9,2l0.38,3.52L70.91,78.6L70.91,78.6z M63.87,79.37l2.87-2.43l-0.38-3.51l-3.29-1.33
		l-2.91,2.01l0.38,3.51L63.87,79.37L63.87,79.37z M56.81,80.14l2.89-2.44l-0.38-3.49l-3.3-1.33l-2.9,2l0.38,3.52L56.81,80.14
		L56.81,80.14z M49.77,80.91l2.87-2.43l-0.38-3.51l-3.29-1.33l-2.89,1.99l0.39,3.53L49.77,80.91L49.77,80.91z M76.66,69.81
		l-0.38-3.5l-3.33-1.75l-2.85,2.4l0.38,3.53l3.28,1.33L76.66,69.81L76.66,69.81z M69.62,70.58l-0.38-3.51l-3.33-1.75l-2.85,2.41
		l0.38,3.52l3.29,1.33L69.62,70.58L69.62,70.58z M73.27,63.75l3.33,1.75l2.85-2.4l-0.38-3.53l-3.28-1.33l-2.9,2L73.27,63.75
		L73.27,63.75z M62.59,71.35l-0.38-3.48l-3.35-1.76L56,68.52l0.38,3.5l3.3,1.33L62.59,71.35L62.59,71.35z M66.21,64.51l3.35,1.76
		l2.85-2.41l-0.38-3.52l-3.29-1.33l-2.91,2.01L66.21,64.51L66.21,64.51z M59.17,65.27l3.35,1.76l2.86-2.41L65,61.12l-3.3-1.33
		l-2.9,2L59.17,65.27L59.17,65.27z M52.63,74.12l2.91-2.01l-0.38-3.48l-3.35-1.76l-2.85,2.41l0.38,3.52L52.63,74.12L52.63,74.12z
		 M52.14,66.06l3.33,1.75l2.85-2.41l-0.38-3.52l-3.29-1.33l-2.89,1.99L52.14,66.06L52.14,66.06z M57.5,53.77l-2.87,2.43l0.38,3.51
		l3.29,1.33l2.91-2.01l-0.38-3.51L57.5,53.77L57.5,53.77z M60.39,47.47l-2.9,2l0.38,3.51l3.33,1.75l2.87-2.43l-0.38-3.49
		L60.39,47.47L60.39,47.47z M64.54,48.69l0.38,3.52l3.31,1.74l2.86-2.42l-0.38-3.51l-3.29-1.33L64.54,48.69L64.54,48.69z M64.56,53
		l-2.89,2.44l0.38,3.49l3.3,1.33l2.9-2l-0.38-3.52L64.56,53L64.56,53z M71.58,47.91l0.39,3.53l3.3,1.74l2.87-2.43l-0.38-3.51
		l-3.29-1.33L71.58,47.91L71.58,47.91z M71.6,52.22l-2.87,2.43l0.38,3.51l3.29,1.33l2.89-1.99l-0.39-3.53L71.6,52.22L71.6,52.22z
		 M74.78,45.13l3.29,1.33l2.89-1.99l-0.39-3.53l-3.31-1.74l-2.87,2.42L74.78,45.13L74.78,45.13z M33.71,163.31l2.91-2l-0.38-3.51
		l-3.26-1.71l-2.93,2.47l0.37,3.43L33.71,163.31L33.71,163.31z M34.24,168.29l-2.87,2.43l0.38,3.51l3.29,1.33l2.85-1.97l-0.39-3.58
		L34.24,168.29L34.24,168.29z M38.42,170l0.38,3.48l3.24,1.31l2.89-1.99l-0.39-3.53l-3.23-1.7L38.42,170L38.42,170z M28.5,177.08
		l0.38,3.51l3.33,1.75l2.85-2.41l-0.38-3.52l-3.29-1.33L28.5,177.08L28.5,177.08z M35.53,176.31l0.38,3.48l3.35,1.76l2.85-2.4
		l-0.38-3.51l-3.3-1.33L35.53,176.31L35.53,176.31z M42.57,175.54l0.38,3.49l3.35,1.76l2.84-2.4l-0.38-3.53l-3.28-1.33L42.57,175.54
		L42.57,175.54z M38.94,182.38l-3.34-1.76l-2.86,2.41l0.38,3.5l3.3,1.33l2.89-1.99L38.94,182.38L38.94,182.38z M37.74,200.18
		l2.86-1.97l-0.39-3.54l-3.3-1.74l-2.87,2.43l0.37,3.48L37.74,200.18L37.74,200.18z M37.46,201l-3.32-1.34l-2.88,1.99l0.38,3.51
		l3.26,1.71l2.93-2.47L37.46,201L37.46,201z M33.57,198.97l-0.38-3.52l-3.31-1.74l-2.87,2.42l0.38,3.52l3.29,1.33L33.57,198.97
		L33.57,198.97z M33.55,194.66l2.89-2.44l-0.38-3.49l-3.3-1.33l-2.9,2l0.38,3.52L33.55,194.66L33.55,194.66z M41.08,194.64
		l0.37,3.43l3.32,1.34l2.86-1.97l-0.39-3.53l-3.26-1.71L41.08,194.64L41.08,194.64z M30.39,201.76l-3.31-1.34l-2.89,2l0.38,3.52
		l3.31,1.74l2.89-2.44L30.39,201.76L30.39,201.76z M31.24,205.96l-2.87,2.43l0.38,3.51l3.29,1.33l2.82-1.94l-0.4-3.63L31.24,205.96
		L31.24,205.96z M35.41,207.65l0.38,3.53l3.2,1.29l2.89-1.99l-0.39-3.53l-3.23-1.7L35.41,207.65L35.41,207.65z M25.49,214.74
		l0.38,3.51L29.2,220l2.85-2.41l-0.38-3.52l-3.29-1.33L25.49,214.74L25.49,214.74z M32.52,213.98l0.38,3.49l3.35,1.76l2.86-2.41
		l-0.2-1.85l-0.18-1.65l-3.3-1.33L32.52,213.98L32.52,213.98z M28.9,220.82l-3.35-1.76l-2.85,2.41l0.38,3.52l3.29,1.33l2.91-2.01
		l-0.26-2.36L28.9,220.82L28.9,220.82z M39.74,214.88l0.2,1.83l3.35,1.76l2.85-2.4l-0.38-3.53l-3.28-1.33l-2.91,2.01L39.74,214.88
		L39.74,214.88z M35.93,220.04l-3.33-1.75l-2.86,2.41l0.13,1.24l0.25,2.26l3.3,1.33l2.89-1.99L35.93,220.04L35.93,220.04z
		 M37.62,235.85l-0.23-2.1l-0.15-1.4l-3.33-1.75l-2.88,2.42l0.38,3.51l3.29,1.33L37.62,235.85L37.62,235.85z M38.12,236.53
		l-2.92,2.01l0.2,1.84l0.18,1.67l3.33,1.75l2.87-2.42l-0.38-3.52L38.12,236.53L38.12,236.53z M30.56,236.62l-0.38-3.51l-3.31-1.74
		L24,233.79l0.38,3.52l3.27,1.32L30.56,236.62L30.56,236.62z M30.55,232.33l2.89-2.44l-0.21-1.95l-0.17-1.55l-3.3-1.33l-2.9,2
		l0.38,3.52L30.55,232.33L30.55,232.33z M38.07,232.26l0.16,1.44l0.22,2.05l3.29,1.33l2.91-2l-0.38-3.52l-3.3-1.74L38.07,232.26
		L38.07,232.26z M31.07,237.31l-2.91,2.01l0.38,3.51l3.31,1.74l2.89-2.44l-0.18-1.63l-0.2-1.87L31.07,237.31L31.07,237.31z
		 M24.04,238.08l-2.91,2l0.38,3.52l3.3,1.74l2.87-2.43l-0.38-3.51L24.04,238.08L24.04,238.08z M34.07,227.97l0.2,1.84l3.33,1.75
		l2.86-2.42l-0.38-3.52l-3.28-1.33l-2.91,2.01L34.07,227.97L34.07,227.97z M21.15,244.38l-2.87,2.43l0.38,3.51l3.29,1.33l2.89-1.99
		l-0.39-3.53L21.15,244.38L21.15,244.38z M28.18,243.61l-2.87,2.42l0.38,3.52l3.28,1.33l2.9-2l-0.38-3.52L28.18,243.61L28.18,243.61
		z M35.22,242.84l-2.87,2.43l0.38,3.51l3.29,1.33l2.91-2.01l-0.16-1.47l-0.22-2.04L35.22,242.84L35.22,242.84z M39.39,244.5
		l0.22,2.06l0.16,1.44l3.3,1.33l2.89-1.99l-0.39-3.53l-3.3-1.74L39.39,244.5L39.39,244.5z M22.43,252.4l0.38,3.5l3.33,1.75l2.85-2.4
		l-0.38-3.53l-3.28-1.33L22.43,252.4L22.43,252.4z M29.47,251.62l0.38,3.51l3.33,1.75l2.85-2.41l-0.38-3.52l-3.29-1.33L29.47,251.62
		L29.47,251.62z M25.82,258.45l-3.33-1.75l-2.85,2.4l0.38,3.53l3.28,1.33l2.9-2L25.82,258.45L25.82,258.45z M36.5,250.86l0.38,3.49
		l3.35,1.76l2.86-2.41l-0.21-1.97l-0.17-1.53l-3.3-1.33L36.5,250.86L36.5,250.86z M32.88,257.7l-3.35-1.76l-2.85,2.41l0.38,3.52
		l3.29,1.33l2.91-2.01l-0.23-2.17L32.88,257.7L32.88,257.7z M43.71,251.6l0.22,1.98l3.35,1.76l2.85-2.4l-0.38-3.53l-3.28-1.33
		l-2.91,2.01L43.71,251.6L43.71,251.6z M39.91,256.92l-3.34-1.75l-2.86,2.41l0.15,1.41l0.23,2.09l3.3,1.33l2.89-1.99L39.91,256.92
		L39.91,256.92z M38.7,274.74l2.9-2l-0.23-2.15l-0.15-1.34l-3.35-1.76l-2.86,2.41l0.38,3.5L38.7,274.74L38.7,274.74z M38.39,275.54
		l-3.3-1.33l-2.9,2l0.18,1.65l0.2,1.86l3.33,1.75l2.86-2.42L38.39,275.54L38.39,275.54z M34.55,273.52L34.17,270l-3.31-1.74
		l-2.87,2.42l0.38,3.51l3.29,1.33L34.55,273.52L34.55,273.52z M34.53,269.21l2.81-2.37l-0.39-3.6l-3.22-1.3l-2.9,2l0.38,3.52
		L34.53,269.21L34.53,269.21z M38.26,266.72l3.26,1.71l2.85-2.4l-0.38-3.53l-3.28-1.33l-2.83,1.95L38.26,266.72L38.26,266.72z
		 M42.06,269.14l0.16,1.45l0.22,2.04l3.31,1.34l2.89-1.99l-0.38-3.5l-3.34-1.76L42.06,269.14L42.06,269.14z M31.36,276.31
		l-3.31-1.34l-2.89,2l0.38,3.52l3.31,1.74l2.89-2.44l-0.19-1.81L31.36,276.31L31.36,276.31z M27.51,274.29l-0.39-3.53l-3.3-1.74
		l-2.87,2.43l0.38,3.51l3.29,1.33L27.51,274.29L27.51,274.29z M27.49,269.98l2.87-2.43l-0.38-3.51l-3.29-1.33l-2.89,1.99l0.39,3.53
		L27.49,269.98L27.49,269.98z M24.31,277.07l-3.3-1.33l-2.89,1.99l0.39,3.53l3.3,1.74l2.87-2.43L24.31,277.07L24.31,277.07z
		 M20.46,270.75l2.87-2.42l-0.38-3.52l-3.28-1.33l-2.9,2l0.38,3.52L20.46,270.75L20.46,270.75z M18.1,282.08l-2.87,2.43l0.38,3.51
		l3.29,1.33l2.89-1.99l-0.39-3.53L18.1,282.08L18.1,282.08z M25.13,281.31l-2.87,2.42l0.38,3.51l3.29,1.33l2.89-2l-0.38-3.52
		L25.13,281.31L25.13,281.31z M32.17,280.54l-2.87,2.43l0.38,3.49l3.31,1.34l2.9-2l-0.38-3.51L32.17,280.54L32.17,280.54z
		 M41.35,163.2l0.39,3.53l3.23,1.7l2.94-2.48l-0.37-3.42l-3.29-1.33L41.35,163.2L41.35,163.2z M48.34,166.79l-2.93,2.47l0.37,3.43
		l3.28,1.33l2.9-2l-0.38-3.52L48.34,166.79L48.34,166.79z M55.38,166.02l-2.93,2.48l0.37,3.42l3.29,1.33l2.91-2.01l-0.38-3.51
		L55.38,166.02L55.38,166.02z M49.61,174.77l0.38,3.5l3.33,1.75l2.85-2.4l-0.38-3.52l-3.29-1.33L49.61,174.77L49.61,174.77z
		 M45.98,181.6l-3.34-1.76l-2.84,2.4l0.38,3.53l3.28,1.33l2.9-2L45.98,181.6L45.98,181.6z M56.64,174l0.38,3.48l3.35,1.76l2.56-2.16
		l-0.41-3.8l-0.01-0.09l-2.97-1.2L56.64,174L56.64,174z M53.03,180.85l-3.36-1.77l-2.85,2.4L47.2,185l3.29,1.33l2.91-2.01
		L53.03,180.85L53.03,180.85z M63.68,173.24l0.38,3.45l3.34,1.76l2.56-2.16l-0.38-3.53l-3.28-1.33L63.68,173.24L63.68,173.24z
		 M60.09,180.09l-3.37-1.77l-2.85,2.41l0.38,3.5l3,1.21l3.18-2.19L60.09,180.09L60.09,180.09z M39.87,186.62l-2.91,2.01l0.38,3.51
		l3.29,1.73l2.9-2.45l-0.37-3.47L39.87,186.62L39.87,186.62z M44,187.84l0.39,3.53l3.26,1.72l2.91-2.46l-0.37-3.46l-3.29-1.33
		L44,187.84L44,187.84z M51.04,187.08l0.38,3.52l3.27,1.72l2.71-2.29l-0.02-0.15L57,186.31l-3.06-1.24L51.04,187.08L51.04,187.08z
		 M51.02,191.42l-2.9,2.45l0.37,3.43l3.32,1.34l2.87-1.98l-0.38-3.52L51.02,191.42L51.02,191.42z M58.07,186.22l0.38,3.48l3.07,1.61
		l2.88-2.43l-0.37-3.44l-3.05-1.23L58.07,186.22L58.07,186.22z M58.06,190.65l-2.91,2.46l0.37,3.42l3.33,1.35l2.88-1.98l-0.38-3.51
		L58.06,190.65L58.06,190.65z M58.6,198.71l-3.34-1.35l-2.88,1.98l0.38,3.51l3,1.58l3.14-2.65l0.03-0.02L58.6,198.71L58.6,198.71z
		 M62.14,191.91l0.02,0.15l0.01,0.13l0.35,3.2l3.3,1.33l2.89-1.99l-0.36-3.34l-3.45-1.81L62.14,191.91L62.14,191.91z M51.55,199.48
		l-3.34-1.35l-2.87,1.98l0.38,3.52l3.24,1.7l2.95-2.49L51.55,199.48L51.55,199.48z M44.5,200.24l-3.33-1.34l-2.86,1.97l0.39,3.53
		l3.23,1.7l2.94-2.48L44.5,200.24L44.5,200.24z M45.29,204.47l-2.93,2.47l0.37,3.43l3.28,1.33l2.9-2l-0.38-3.52L45.29,204.47
		L45.29,204.47z M52.33,203.69l-2.94,2.48l0.37,3.42l3.29,1.33l2.87-1.98l-0.01-0.05l-0.38-3.51L52.33,203.69L52.33,203.69z
		 M56.44,205.42l0.34,3.15l3.26,1.32l0,0l2.82-1.94l-0.39-3.54l-2.97-1.56L56.44,205.42L56.44,205.42z M46.61,212.43l0.38,3.51
		l3.33,1.75l2.85-2.41l0,0l-0.38-3.52l-3.29-1.33L46.61,212.43L46.61,212.43z M42.97,219.26l-3.33-1.75l-2.85,2.4l0.38,3.53
		l3.28,1.33l2.9-2L42.97,219.26L42.97,219.26z M53.64,211.67l0.38,3.51l3.33,1.75l2.77-2.34l-0.02-0.21l-0.37-3.43l-3.18-1.28
		L53.64,211.67L53.64,211.67z M49.97,218.48l-3.3-1.74l-2.85,2.41l0.38,3.52l3.29,1.33l2.87-1.98L49.97,218.48L49.97,218.48z
		 M60.64,210.49l0.02,0.17l0.38,3.48l3.2,1.69l2.88-2.43l-0.2-1.89l-0.17-1.56l-3.35-1.35L60.64,210.49L60.64,210.49z M57.02,217.72
		l-3.34-1.76l-2.83,2.39l0.38,3.56l3,1.21l0.05-0.03l3.08-2.12l-0.23-2.1L57.02,217.72L57.02,217.72z M40.94,225.52l0.39,3.53
		l3.3,1.74l2.87-2.43l-0.38-3.51l-3.29-1.33L40.94,225.52L40.94,225.52z M47.97,224.75l0.38,3.52l3.31,1.74l2.88-2.43l-0.01-0.13
		l-0.36-3.31l-0.01-0.06l-3.3-1.33L47.97,224.75L47.97,224.75z M47.99,229.06l-2.87,2.42L45.5,235l0,0l3.27,1.32l0,0l2.91-2.01
		l-0.38-3.51L47.99,229.06L47.99,229.06z M55.01,223.95l0.35,3.19l3.25,1.71l2.89-2.44l0.04-0.03l-0.34-3.17l-3.29-1.33l-2.9,2
		L55.01,223.95L55.01,223.95z M55.03,228.29l-2.87,2.43l0.38,3.51l2.92,1.18l0.14-0.1l2.89-1.99l-0.37-3.4L55.03,228.29
		L55.03,228.29z M59.4,234.11l-3.07,2.12l0.34,3.13l3.33,1.75l2.86-2.42l-0.36-3.34L59.4,234.11L59.4,234.11z M59.16,229.6
		l0.01,0.13l0.36,3.35l3.26,1.32l2.72-1.88l-0.39-3.53l-3.23-1.7L59.16,229.6L59.16,229.6z M52.2,234.99L49.29,237l0.38,3.51
		l3.31,1.74l2.88-2.43l-0.02-0.15l-0.36-3.35L52.2,234.99L52.2,234.99z M45.16,235.77l-2.91,2l0.38,3.52l3.3,1.74l2.87-2.43
		l-0.38-3.51l-0.09-0.04L45.16,235.77L45.16,235.77z M49.3,241.3l-2.87,2.42l0.38,3.52l3.28,1.33l2.9-2l-0.38-3.52L49.3,241.3
		L49.3,241.3z M56.34,240.53l-2.87,2.43l0.38,3.51l3.29,1.33l2.91-2.01l-0.37-3.47v-0.04L56.34,240.53L56.34,240.53z M60.51,242.19
		l0.03,0.24l0.36,3.26l3.15,1.27l3.03-2.09l-0.37-3.38l-3.31-1.74L60.51,242.19L60.51,242.19z M50.59,249.31l0.38,3.51l3.17,1.67
		l2.99-2.52l-0.36-3.32l-3.29-1.33L50.59,249.31L50.59,249.31z M46.95,256.14l-3.33-1.75l-2.85,2.4l0.38,3.53l3.28,1.33l2.9-2
		L46.95,256.14L46.95,256.14z M57.63,248.55l0.35,3.24l3.38,1.78l2.83-2.39l-0.3-2.75l-0.06-0.55l-3.3-1.33L57.63,248.55
		L57.63,248.55z M57.66,252.84l-2.83,2.39l0.36,3.3l3.21,1.3l2.74-1.89l0.19-0.13l0.06,0.03l-0.35-3.22L57.66,252.84L57.66,252.84z
		 M54,255.39l-3.35-1.76l-2.85,2.41l0.38,3.52l3.29,1.33l2.91-2.01L54,255.39L54,255.39z M44.84,262.41l0.38,3.5l3.34,1.76l2.85-2.4
		l-0.38-3.52l-3.29-1.33L44.84,262.41L44.84,262.41z M51.87,261.64l0.38,3.49l3.34,1.76l2.51-2.12l-0.02-0.19l-0.41-3.77l-2.9-1.17
		L51.87,261.64L51.87,261.64z M58.88,260.62v0.02l0.41,3.73l3.02,1.59l2.78-2.34l-0.38-3.53l-3.19-1.29L58.88,260.62L58.88,260.62z
		 M55.29,267.71l-3.34-1.76l-2.84,2.4l0.38,3.52l3.09,1.25l3.07-2.12L55.29,267.71L55.29,267.71z M62.7,270.22l-0.35-3.2l-0.02,0.01
		l-0.25-0.13l-3.16-1.66l-2.79,2.35l0.36,3.32l3.29,1.33L62.7,270.22L62.7,270.22z M59.46,273.2l-3.28-1.33l-2.86,1.97l0.37,3.37
		l3.27,1.72l2.86-2.42L59.46,273.2L59.46,273.2z M52.43,273.98l-3.26-1.32l-2.89,2l0.38,3.52l3.32,1.75l0,0l2.83-2.39v-0.03
		L52.43,273.98L52.43,273.98z M45.43,274.76l-3.29-1.33l-2.89,1.99l0.39,3.53l3.31,1.74l2.87-2.42L45.43,274.76L45.43,274.76z
		 M39.23,279.76l-2.89,2.44l0.38,3.49l3.31,1.34l2.89-2l-0.38-3.52L39.23,279.76L39.23,279.76z M53.3,278.22l-2.86,2.42l0.38,3.52
		l3.29,1.33l2.89-2l-0.38-3.52L53.3,278.22L53.3,278.22z M54.97,395.71l-0.38-3.52l-3.31-1.74l-2.87,2.42l0.38,3.52l3.28,1.33
		L54.97,395.71L54.97,395.71z M51.75,398.48l-3.29-1.33l-2.91,2.01l0.38,3.51l3.08,1.62l2.97-2.51l0.11-0.09L51.75,398.48
		L51.75,398.48z M47.93,396.48l-0.38-3.53l-3.3-1.74l-2.87,2.43l0.38,3.51l3.29,1.33L47.93,396.48L47.93,396.48z M47.91,392.17
		l2.87-2.43l-0.38-3.51l-3.29-1.33l-2.89,1.99l0.39,3.53L47.91,392.17L47.91,392.17z M40.9,397.25l-0.38-3.52l-3.31-1.74l-2.89,2.44
		l0.38,3.49l3.3,1.33L40.9,397.25L40.9,397.25z M40.88,392.94l2.87-2.42L43.37,387l-3.28-1.33l-2.9,2l0.38,3.52L40.88,392.94
		L40.88,392.94z M33.84,393.71l2.87-2.43l-0.38-3.51l-3.29-1.33l-2.91,2.01l0.38,3.51L33.84,393.71L33.84,393.71z M30.95,400.01
		l2.9-2l-0.38-3.51l-3.33-1.75l-2.87,2.43l0.38,3.5L30.95,400.01L30.95,400.01z M30.62,400.8l-3.3-1.33l-2.9,2l0.38,3.51l3.26,1.71
		l2.93-2.47L30.62,400.8L30.62,400.8z M26.8,398.79l-0.38-3.52l-3.31-1.74l-2.86,2.42l0.38,3.52l3.28,1.33L26.8,398.79L26.8,398.79z
		 M26.78,394.48l2.89-2.44l-0.38-3.49l-3.3-1.33l-2.9,2l0.38,3.52L26.78,394.48L26.78,394.48z M19.76,399.53l-0.38-3.5l-3.3-1.74
		l-2.87,2.43l0.38,3.51l3.26,1.32L19.76,399.53L19.76,399.53z M19.75,395.25l2.87-2.43l-0.38-3.51l-3.29-1.33l-2.89,1.99l0.39,3.53
		L19.75,395.25L19.75,395.25z M20.25,400.25l-2.93,2.02l0.38,3.49l3.31,1.74l2.89-2.44l-0.38-3.49L20.25,400.25L20.25,400.25z
		 M12.73,400.29l-0.38-3.49l-3.31-1.74l-2.89,2.44l0.38,3.49l3.27,1.32L12.73,400.29L12.73,400.29z M12.71,396.02l2.87-2.42
		l-0.38-3.52l-3.28-1.33l-2.9,2l0.38,3.52L12.71,396.02L12.71,396.02z M13.21,401.02l-2.92,2.02l0.38,3.5l3.3,1.74l2.87-2.43
		l-0.38-3.51L13.21,401.02L13.21,401.02z M50.77,385.38l2.91-2.01l-0.38-3.48l-3.35-1.76l-2.85,2.41l0.38,3.52L50.77,385.38
		L50.77,385.38z M46.63,384.15l-0.38-3.5l-3.33-1.75l-2.85,2.4l0.38,3.53l3.28,1.33L46.63,384.15L46.63,384.15z M50.28,377.32
		l3.19,1.68l2.97-2.51l-0.36-3.34l-3.29-1.33l-2.89,1.99L50.28,377.32L50.28,377.32z M39.59,384.92l-0.38-3.51l-3.33-1.75
		l-2.85,2.41l0.38,3.52l3.29,1.33L39.59,384.92L39.59,384.92z M43.24,378.09l3.33,1.75l2.85-2.4l-0.38-3.53l-3.28-1.33l-2.9,2
		L43.24,378.09L43.24,378.09z M32.56,385.69l-0.38-3.48l-3.35-1.76l-2.86,2.41l0.38,3.5l3.3,1.33L32.56,385.69L32.56,385.69z
		 M36.18,378.85l3.35,1.76l2.85-2.41L42,374.68l-3.29-1.33l-2.91,2.01L36.18,378.85L36.18,378.85z M29.14,379.62l3.35,1.76
		l2.86-2.41l-0.38-3.5l-3.3-1.33l-2.9,2L29.14,379.62L29.14,379.62z M22.6,388.46l2.91-2.01l-0.38-3.48l-3.35-1.76l-2.85,2.41
		l0.38,3.52L22.6,388.46L22.6,388.46z M18.46,387.23l-0.38-3.5l-3.33-1.75l-2.85,2.4l0.38,3.53l3.28,1.33L18.46,387.23L18.46,387.23
		z M22.11,380.4l3.33,1.75l2.85-2.41l-0.38-3.52l-3.29-1.33l-2.89,1.99L22.11,380.4L22.11,380.4z M11.42,388.01l-0.38-3.51
		l-3.33-1.75l-2.85,2.41l0.38,3.52L8.53,390L11.42,388.01L11.42,388.01z M15.07,381.18l3.33,1.75l2.85-2.4L20.87,377l-3.28-1.33
		l-2.9,2L15.07,381.18L15.07,381.18z M8.01,381.93l3.35,1.76l2.85-2.41l-0.38-3.52l-3.29-1.33l-2.91,2.01L8.01,381.93L8.01,381.93z
		 M6.35,366.11l0.38,3.52l3.31,1.74l2.87-2.42l-0.38-3.52l-3.29-1.33L6.35,366.11L6.35,366.11z M9.53,363.32l3.31,1.34l2.89-2
		l-0.38-3.52l-3.31-1.74l-2.89,2.44L9.53,363.32L9.53,363.32z M13.39,365.34l0.39,3.53l3.3,1.74l2.87-2.43l-0.38-3.51l-3.29-1.33
		L13.39,365.34L13.39,365.34z M13.41,369.65l-2.87,2.43l0.38,3.51l3.29,1.33l2.89-1.99l-0.38-3.53L13.41,369.65L13.41,369.65z
		 M16.58,362.56l3.29,1.33l2.89-1.99l-0.39-3.53l-3.3-1.74l-2.87,2.43L16.58,362.56L16.58,362.56z M20.42,364.57l0.38,3.52
		l3.31,1.74l2.89-2.44l-0.38-3.49l-3.31-1.34L20.42,364.57L20.42,364.57z M20.44,368.88l-2.87,2.42l0.38,3.52l3.28,1.33l2.9-2
		l-0.38-3.52L20.44,368.88L20.44,368.88z M23.62,361.79l3.29,1.33l2.89-2l-0.38-3.52l-3.31-1.74l-2.86,2.42L23.62,361.79
		L23.62,361.79z M27.48,368.11l-2.87,2.43l0.38,3.51l3.29,1.33l2.91-2.01l-0.38-3.51L27.48,368.11L27.48,368.11z M30.36,361.81
		l-2.9,2l0.38,3.51l3.33,1.75l2.87-2.43l-0.38-3.49L30.36,361.81L30.36,361.81z M30.65,361l3.31,1.34l2.9-2l-0.38-3.51l-3.33-1.75
		l-2.87,2.43L30.65,361L30.65,361z M34.52,363.03l0.38,3.52l3.31,1.74l2.86-2.42l-0.38-3.51l-3.29-1.33L34.52,363.03L34.52,363.03z
		 M34.54,367.34l-2.89,2.44l0.38,3.49l3.3,1.33l2.9-2l-0.38-3.52L34.54,367.34L34.54,367.34z M37.7,360.24l3.31,1.34l2.89-2
		l-0.38-3.52l-3.31-1.74l-2.89,2.44L37.7,360.24L37.7,360.24z M41.56,362.25l0.38,3.53l3.3,1.74l2.87-2.43l-0.38-3.51l-3.3-1.33
		L41.56,362.25L41.56,362.25z M41.58,366.57L38.71,369l0.38,3.51l3.29,1.33l2.89-1.99l-0.39-3.53L41.58,366.57L41.58,366.57z
		 M44.75,359.48l3.29,1.33l2.89-1.99l-0.39-3.53l-3.3-1.74l-2.87,2.43L44.75,359.48L44.75,359.48z M48.59,361.49l0.38,3.52
		l3.31,1.74l2.88-2.43l-0.38-3.49l-3.31-1.34L48.59,361.49L48.59,361.49z M48.61,365.8l-2.87,2.42l0.38,3.52l3.28,1.33l2.9-2
		l-0.38-3.52L48.61,365.8L48.61,365.8z M51.79,358.71l3.29,1.33l2.89-2l-0.38-3.52l-3.31-1.74l-2.86,2.42L51.79,358.71L51.79,358.71
		z M50.92,354.5l2.87-2.43l-0.38-3.51l-3.29-1.33l-2.89,1.99l0.38,3.53L50.92,354.5L50.92,354.5z M43.89,355.27l2.87-2.42
		l-0.38-3.52L43.1,348l-2.9,2l0.38,3.52L43.89,355.27L43.89,355.27z M36.85,356.04l2.87-2.43l-0.38-3.51l-3.29-1.33l-2.91,2.01
		l0.38,3.51L36.85,356.04L36.85,356.04z M29.79,356.82l2.89-2.44l-0.38-3.49l-3.3-1.33l-2.9,2l0.38,3.52L29.79,356.82L29.79,356.82z
		 M22.75,357.59l2.87-2.43l-0.38-3.51l-3.29-1.33l-2.89,1.99l0.39,3.53L22.75,357.59L22.75,357.59z M15.72,358.36l2.87-2.42
		l-0.38-3.52l-3.28-1.33l-2.9,2l0.38,3.52L15.72,358.36L15.72,358.36z M53.78,347.71l2.87-1.98v-0.02l-0.38-3.53l-3.3-1.74
		l-2.85,2.41l0.38,3.52L53.78,347.71L53.78,347.71z M49.64,346.48l-0.38-3.5l-3.33-1.75l-2.85,2.4l0.38,3.53l3.28,1.33L49.64,346.48
		L49.64,346.48z M53.28,339.66l3.15,1.66l3.01-2.54l-0.36-3.29l-3.29-1.33l-2.89,1.99L53.28,339.66L53.28,339.66z M42.6,347.26
		l-0.38-3.51L38.89,342l-2.86,2.41l0.38,3.52l3.29,1.33L42.6,347.26L42.6,347.26z M46.25,340.43l3.33,1.75l2.85-2.4l-0.38-3.53
		l-3.28-1.33l-2.9,2L46.25,340.43L46.25,340.43z M35.57,348.02l-0.38-3.48l-3.35-1.76l-2.86,2.41l0.38,3.5l3.3,1.33L35.57,348.02
		L35.57,348.02z M39.19,341.18l3.35,1.76l2.85-2.41l-0.38-3.52l-3.29-1.33l-2.91,2.01L39.19,341.18L39.19,341.18z M32.14,341.95
		l3.35,1.76l2.86-2.41l-0.38-3.5l-3.3-1.33l-2.9,2L32.14,341.95L32.14,341.95z M25.61,350.79l2.91-2.01l-0.38-3.48l-3.35-1.76
		l-2.85,2.41l0.38,3.52L25.61,350.79L25.61,350.79z M21.47,349.56l-0.38-3.5l-3.33-1.75l-2.85,2.4l0.38,3.53l3.28,1.33L21.47,349.56
		L21.47,349.56z M25.12,342.74l3.33,1.75l2.85-2.41l-0.38-3.52l-3.29-1.33l-2.89,1.99L25.12,342.74L25.12,342.74z M14.43,350.34
		l-0.38-3.51l-3.33-1.75l-2.85,2.41L8.24,351l3.29,1.33L14.43,350.34L14.43,350.34z M18.08,343.51l3.33,1.75l2.85-2.41l-0.38-3.53
		L20.59,338l-2.9,2L18.08,343.51L18.08,343.51z M11.02,344.26l3.35,1.76l2.85-2.41l-0.38-3.52l-3.29-1.33l-2.91,2.01l0.27,2.48
		L11.02,344.26L11.02,344.26z M9.35,328.46l0.38,3.51l3.31,1.74l2.87-2.42l-0.38-3.52l-3.27-1.32L9.35,328.46L9.35,328.46z
		 M16.39,327.69l0.38,3.52l3.3,1.74l2.87-2.43l-0.38-3.51l-3.28-1.32L16.39,327.69L16.39,327.69z M16.41,331.98l-2.87,2.43
		l0.38,3.51l3.29,1.33l2.89-1.99l-0.39-3.53L16.41,331.98L16.41,331.98z M15.88,327l2.91-2l-0.38-3.52l-3.3-1.74l-2.87,2.43
		l0.38,3.51L15.88,327L15.88,327z M23.42,326.92l0.38,3.51l3.31,1.74l2.89-2.44l-0.38-3.49l0,0l-3.29-1.33L23.42,326.92
		L23.42,326.92z M23.44,331.21l-2.87,2.42l0.38,3.52l3.28,1.33l2.9-2l-0.38-3.52L23.44,331.21L23.44,331.21z M22.91,326.24
		l2.91-2.01l-0.38-3.51l-3.31-1.74l-2.87,2.42l0.38,3.52l0,0L22.91,326.24L22.91,326.24z M30.48,330.44l-2.87,2.43l0.38,3.51
		l3.29,1.33l2.91-2.01l-0.38-3.51L30.48,330.44L30.48,330.44z M30.47,326.14l0.38,3.51l3.33,1.75l2.87-2.43l-0.38-3.51l-3.29-1.33
		L30.47,326.14L30.47,326.14z M29.97,325.47l2.91-2.01l-0.38-3.51l-3.33-1.75l-2.87,2.43l0.38,3.51l0,0L29.97,325.47L29.97,325.47z
		 M37.52,325.38l0.38,3.51l3.31,1.74l2.87-2.42l-0.38-3.52l-0.84-0.34l-2.43-0.98L37.52,325.38L37.52,325.38z M37.54,329.67
		l-2.89,2.44l0.38,3.49l3.3,1.33l2.9-2l-0.38-3.52L37.54,329.67L37.54,329.67z M37.01,324.69l2.91-2.01l-0.38-3.51l-3.31-1.74
		l-2.89,2.44l0.38,3.49l0,0L37.01,324.69L37.01,324.69z M44.56,324.61l0.38,3.52l3.3,1.74l2.87-2.43l-0.38-3.51l-3.28-1.32
		L44.56,324.61L44.56,324.61z M44.58,328.9l-2.87,2.43l0.38,3.51l3.29,1.33l2.89-1.99l-0.38-3.53L44.58,328.9L44.58,328.9z
		 M44.05,323.92l2.91-2l-0.38-3.52l-3.3-1.74l-2.87,2.43l0.38,3.51L44.05,323.92L44.05,323.92z M51.59,323.84l0.38,3.51l3.31,1.74
		l2.88-2.43l-0.38-3.5l-3.29-1.33L51.59,323.84L51.59,323.84z M51.61,328.13l-2.87,2.42l0.38,3.52l3.28,1.33l2.9-2l-0.38-3.52
		L51.61,328.13L51.61,328.13z M51.08,323.15l2.91-2.01l-0.38-3.51l-3.31-1.74l-2.86,2.42l0.38,3.52l0,0L51.08,323.15L51.08,323.15z
		 M58.14,322.39l2.91-2.01l-0.38-3.51l-3.33-1.75l-2.87,2.43l0.38,3.51L58.14,322.39L58.14,322.39z M53.98,316.85l2.88-2.43v-0.04
		l-0.36-3.35l-3.41-1.38l-2.81,1.93l0.38,3.52L53.98,316.85L53.98,316.85z M46.94,317.62l2.87-2.43l-0.38-3.51l-3.29-1.33
		l-2.89,1.99l0.39,3.53L46.94,317.62L46.94,317.62z M39.91,318.39l2.87-2.42l-0.38-3.52l-3.28-1.33l-2.9,2l0.38,3.52L39.91,318.39
		L39.91,318.39z M32.87,319.16l2.87-2.43l-0.38-3.51l-3.29-1.33l-2.91,2.01l0.38,3.51L32.87,319.16L32.87,319.16z M25.81,319.93
		l2.89-2.44L28.32,314l-3.3-1.33l-2.9,2l0.38,3.52L25.81,319.93L25.81,319.93z M18.77,320.71l2.87-2.43l-0.38-3.51l-3.29-1.33
		l-2.89,1.99l0.39,3.53L18.77,320.71L18.77,320.71z M53.56,308.83l3,1.21l0.05-0.03l3.12-2.15l-0.34-3.11L56.07,303l-2.89,2.44
		L53.56,308.83L53.56,308.83z M49.79,310.83l2.91-2.01l-0.38-3.48l-3.35-1.77l-2.85,2.41l0.38,3.52L49.79,310.83L49.79,310.83z
		 M45.66,309.6l-0.38-3.5l-3.33-1.75l-2.85,2.4l0.38,3.53l3.28,1.33L45.66,309.6L45.66,309.6z M49.3,302.77l3.33,1.75l2.85-2.41
		l-0.38-3.52l-3.29-1.33l-2.89,1.99L49.3,302.77L49.3,302.77z M38.62,310.38l-0.38-3.51l-3.33-1.75l-2.85,2.41l0.38,3.52l3.29,1.33
		L38.62,310.38L38.62,310.38z M42.26,303.54l3.33,1.75l2.85-2.4l-0.38-3.53l-3.28-1.33l-2.9,2L42.26,303.54L42.26,303.54z
		 M31.59,311.14l-0.38-3.48l-3.35-1.76L25,308.31l0.38,3.5l3.3,1.33L31.59,311.14L31.59,311.14z M35.21,304.3l3.35,1.76l2.85-2.41
		l-0.38-3.52l-3.29-1.33l-2.91,2.01L35.21,304.3L35.21,304.3z M28.16,305.07l3.35,1.76l2.86-2.41l-0.38-3.5l-3.3-1.33l-2.9,2
		L28.16,305.07L28.16,305.07z M21.63,313.91l2.91-2.01l-0.38-3.48l-3.35-1.76l-2.85,2.41l0.38,3.52L21.63,313.91L21.63,313.91z
		 M17.49,312.68l-0.38-3.5l-3.33-1.75l-2.85,2.4l0.38,3.53l3.28,1.33L17.49,312.68L17.49,312.68z M21.13,305.86l3.33,1.75l2.85-2.41
		l-0.38-3.52l-3.29-1.33l-2.89,1.99L21.13,305.86L21.13,305.86z M14.1,306.63l3.33,1.75l2.85-2.4l-0.38-3.53l-3.28-1.33l-2.9,2
		L14.1,306.63L14.1,306.63z M19.44,290.03l0.38,3.52l3.31,1.74l2.89-2.44l-0.38-3.49l-3.31-1.34L19.44,290.03L19.44,290.03z
		 M19.46,294.33l-2.87,2.42l0.38,3.52l3.28,1.33l2.9-2l-0.38-3.52L19.46,294.33L19.46,294.33z M26.5,293.56l-2.87,2.43l0.38,3.51
		l3.29,1.33l2.91-2.01l-0.38-3.51L26.5,293.56L26.5,293.56z M29.39,287.26l-2.9,2l0.38,3.51l3.33,1.75l2.87-2.43l-0.38-3.49
		L29.39,287.26L29.39,287.26z M33.54,288.48l0.38,3.52l3.31,1.74l2.87-2.42l-0.38-3.51l-3.29-1.33L33.54,288.48L33.54,288.48z
		 M33.56,292.79l-2.89,2.44l0.38,3.49l3.3,1.33l2.9-2l-0.38-3.52L33.56,292.79L33.56,292.79z M40.58,287.71l0.39,3.53l3.3,1.74
		l2.87-2.43l-0.38-3.51l-3.29-1.33L40.58,287.71L40.58,287.71z M40.6,292.02l-2.87,2.43l0.38,3.51l3.29,1.33l2.89-1.99l-0.39-3.53
		L40.6,292.02L40.6,292.02z M43.78,284.93l3.29,1.33l2.89-1.99l-0.39-3.53L46.26,279l-2.87,2.42L43.78,284.93L43.78,284.93z
		 M47.61,286.94l0.38,3.52l3.31,1.74l2.83-2.39l-0.38-3.55l-3.25-1.31L47.61,286.94L47.61,286.94z M47.63,291.25l-2.87,2.42
		l0.38,3.52l3.28,1.33l2.9-2L50.94,293L47.63,291.25L47.63,291.25z M54.65,286.14l0.39,3.57l3.18,1.67l0.84-0.58l2.12-1.79
		l-0.38-3.53l-3.28-1.33l0,0L54.65,286.14L54.65,286.14z M54.67,290.48l-2.87,2.43l0.38,3.51l3.29,1.33l2.91-2.01L58,292.23
		L54.67,290.48L54.67,290.48z M55.95,298.5l0.38,3.52l3.32,1.75l2.88-2.43l-0.36-3.33l-1.38-0.72l-1.95-0.79L55.95,298.5
		L55.95,298.5z M64.05,282.71l-0.38-3.5l-3.33-1.75l-2.87,2.42l0.38,3.52l3.29,1.33L64.05,282.71L64.05,282.71z M3.24,403.78
		l0.38,3.52l3.31,1.74l2.87-2.42l-0.37-3.52l-3.28-1.33L3.24,403.78L3.24,403.78z M10.3,407.31l-2.87,2.43l0.38,3.51l3.29,1.33
		l2.89-1.99l-0.39-3.53L10.3,407.31L10.3,407.31z M17.33,406.54l-2.87,2.42l0.38,3.52l3.28,1.33l2.9-2l-0.38-3.52L17.33,406.54
		L17.33,406.54z M24.37,405.77l-2.87,2.43l0.38,3.51l3.29,1.33l2.85-1.97l-0.39-3.58L24.37,405.77L24.37,405.77z M28.54,407.49
		l0.38,3.48l3.24,1.31l2.89-1.99l-0.39-3.53l-3.23-1.7L28.54,407.49L28.54,407.49z M7.45,414.1l-2.91,2.01l0.38,3.48l3.35,1.76
		l2.85-2.41l-0.38-3.52L7.45,414.1L7.45,414.1z M11.58,415.33l0.38,3.5l3.33,1.75l2.85-2.4l-0.38-3.53l-3.28-1.33L11.58,415.33
		L11.58,415.33z M18.62,414.56l0.38,3.51l3.33,1.75l2.85-2.41l-0.38-3.52l-3.29-1.33L18.62,414.56L18.62,414.56z M25.65,413.79
		l0.38,3.48l3.35,1.76l2.85-2.4l-0.38-3.51l-3.3-1.33L25.65,413.79L25.65,413.79z M22.03,420.64l-3.35-1.76l-2.85,2.41l0.38,3.52
		l3.29,1.33l2.91-2.01L22.03,420.64L22.03,420.64z M32.69,413.03l0.38,3.49l3.35,1.76l2.84-2.4l-0.38-3.53l-3.28-1.33L32.69,413.03
		L32.69,413.03z M29.07,419.86l-3.34-1.76l-2.86,2.41l0.38,3.5l3.3,1.33l2.89-1.99L29.07,419.86L29.07,419.86z M23.68,432.15
		l2.89-2.44l-0.38-3.49l-3.3-1.33l-2.9,2l0.38,3.52L23.68,432.15L23.68,432.15z M31.21,432.12l0.37,3.43l3.32,1.34l2.86-1.97
		l-0.39-3.53l-3.26-1.71L31.21,432.12L31.21,432.12z M31.48,400.68l0.39,3.53l3.23,1.7l2.94-2.48l-0.37-3.42l-3.29-1.33
		L31.48,400.68L31.48,400.68z M38.51,399.92l0.38,3.52l3.24,1.71l2.95-2.49l-0.37-3.41l-3.3-1.33L38.51,399.92L38.51,399.92z
		 M38.46,404.28l-2.93,2.47l0.37,3.43l3.28,1.33l2.9-2l-0.38-3.52L38.46,404.28L38.46,404.28z M45.5,403.51l-2.94,2.48l0.37,3.42
		l3.29,1.33l2.77-1.91l-0.4-3.69L45.5,403.51L45.5,403.51z M39.74,412.25l0.38,3.5l3.33,1.75l2.85-2.4l-0.38-3.51l-3.29-1.33
		L39.74,412.25L39.74,412.25z M36.11,419.09l-3.34-1.76l-2.84,2.4l0.38,3.53l3.28,1.33l2.9-2L36.11,419.09L36.11,419.09z
		 M46.77,411.48l0.38,3.51l3.33,1.75l2.87-2.43l-0.38-3.5l-3.3-1.33L46.77,411.48L46.77,411.48z M46.81,415.78l-2.82,2.38l0.39,3.58
		l3.24,1.31l2.9-2l-0.38-3.51L46.81,415.78L46.81,415.78z M43.09,418.29l-3.29-1.73l-2.85,2.4l0.38,3.52l3.29,1.33l2.85-1.97
		L43.09,418.29L43.09,418.29z M29.99,424.1l-2.91,2.01l0.38,3.51l3.29,1.73l2.9-2.45l-0.37-3.47L29.99,424.1L29.99,424.1z
		 M34.13,425.33l0.39,3.53l3.26,1.72l2.87-2.43l-0.38-3.51l-3.25-1.31L34.13,425.33L34.13,425.33z M41.16,424.56l0.38,3.52
		l3.27,1.72l2.87-2.42l-0.38-3.51l-3.25-1.31L41.16,424.56L41.16,424.56z M41.14,428.9l-2.9,2.45l0.37,3.43l3.32,1.34l2.87-1.98
		l-0.38-3.52L41.14,428.9L41.14,428.9z M42.51,436.83l0.4,3.63l3.12,1.64l2.76-2.33l-0.37-3.42l-3.29-1.33L42.51,436.83
		L42.51,436.83z M62.47,160.9l0.38,3.52l3.24,1.71l2.95-2.49l-0.37-3.41l-3.3-1.33L62.47,160.9L62.47,160.9z M62.43,165.26
		l-2.93,2.47l0.37,3.43l3.28,1.33l2.9-2l-0.38-3.52L62.43,165.26L62.43,165.26z M69.47,164.49l-2.94,2.48l0.37,3.42l3.29,1.33
		l2.91-2.01l-0.38-3.51L69.47,164.49L69.47,164.49z M67.17,179.7l-0.21-0.11l-3.45-1.81l-2.58,2.18l0.37,3.43l3.06,1.23l3.11-2.15
		L67.17,179.7L67.17,179.7z M71.06,184.69l-3.04-1.23l-3.11,2.15l0.33,3.01l3.45,1.81l2.75-2.32L71.06,184.69L71.06,184.69z
		 M62.38,196.56l-2.91,2.01l0.37,3.41l3.01,1.59l3.01-2.54l0.13-0.11l-0.33-3.03L62.38,196.56L62.38,196.56z M66.55,202.09
		l-3.04,2.57l-0.06,0.05l0.33,3.08l3.24,1.31l2.85-1.97l-0.38-3.49L66.55,202.09L66.55,202.09z M57.86,217.61l0.13,1.24l0.22,1.99
		l3.3,1.33l2.89-2l-0.36-3.27l-3.31-1.74L57.86,217.61L57.86,217.61z M68.24,222.45l-3.29-1.33l-2.89,2l0.36,3.27l3.23,1.7
		l2.89-2.44l0.05-0.04L68.24,222.45z"/>
	<path fill-rule="evenodd" clip-rule="evenodd" fill="#FFFFFF" d="M297.57,26.51c-0.25,2.88-0.38,5.67-0.38,8.35
		c-0.01,45.48,4.15,95.39,8.13,148.82c6.54,87.94,15.15,174.97,22.41,262.22c17.7-5.93,34.59-14.77,50.49-27.14l-0.93-10.18
		C363.52,258.01,348.2,115.5,321.25,32.83v-0.01l-0.17-0.69l-1.97-8.28l-0.01-0.02c-3.55,0.48-7.11,0.95-10.69,1.39
		c-1.79,0.22-3.59,0.44-5.39,0.66c-1.8,0.21-3.61,0.42-5.42,0.63L297.57,26.51z"/>
	<path fill-rule="evenodd" clip-rule="evenodd" fill="#666666" d="M314.69,297.41l0.78,0.54l-0.38,3.49l-0.05,0.02l0.08,0.93
		l0.27-0.14l2.85,2.41l-0.34,3.14l-2.22,0.9l0.11,1.23l2.41-0.97l2.94,2.03l-0.34,3.09l-3.33,1.75l-1.26-1.07l0.13,1.5l0.63,0.53
		l-0.32,2.93l0.13,1.41l0.16-0.06l2.91,2.01l-0.38,3.51l-2.1,1.1l0.08,0.93l2.38-1.25l2.87,2.43l-0.38,3.51l-3.29,1.33l-1.12-0.77
		l0.1,1.16l0.53,0.36l-0.27,2.5l0.16,1.83l0.07-0.04l2.83,2.39l-0.36,3.34l-1.96,0.79l0.1,1.16l2.2-0.89l2.9,2l-0.38,3.52
		l-3.31,1.74l-0.9-0.76l0.11,1.2l0.31,0.26l-0.15,1.44l0.27,3l2.7,1.87l-0.38,3.51l-1.76,0.93l0.08,0.93l2.04-1.07l2.87,2.43
		l-0.38,3.51l-3.29,1.33l-0.74-0.51l0.1,1.16l0.15,0.1l-0.08,0.72l0.34,3.82l2.53,2.14l-0.36,3.32l-1.63,0.66l0.1,1.18l1.86-0.75
		l2.9,2l-0.38,3.52l-3.31,1.74l-0.53-0.45l0.51,5.79l2.38,1.64l-0.38,3.52l-1.48,0.78l0.09,1.01l1.81-0.95l2.95,2.49l-0.36,3.38
		l-3.14,1.27l-0.76-0.53l0.53,6.07l2.37,2l0,0l-0.38,3.51l-1.47,0.59l0.08,0.94l1.69-0.68l2.85,1.97l-0.39,3.58l-3.26,1.72
		l-0.36-0.31l0.38,4.47l0.36-3.36l3.29-1.73l2.91,2.46l-0.37,3.46l-3.29,1.33l-2.88-1.99l0.1,1.18l2.46,1.69l-0.38,3.52l-1.56,0.82
		l0.09,1.02l1.91-1l2.66,2.24l-0.18,1.63c0.41-0.15,0.81-0.3,1.21-0.45l0.12-1.08l3.12-1.64l1.19,1l0.97-0.39l-1.62-1.37l0.4-3.7
		l0.01-0.05l3.01-1.22l2.87,1.98l-0.27,2.47l0.9-0.4l0.21-1.94l3.33-1.34l1.39,0.96l0.91-0.45l-1.74-1.2l0.39-3.53l3.3-1.74
		l2.87,2.43l-0.18,1.63l0.91-0.5l0.11-1.05l3.31-1.74l0.61,0.51l0.77-0.45l-0.9-0.76l0.38-3.51l3.29-1.33l2.89,1.99l-0.01,0.12
		c0.87-0.56,1.74-1.13,2.61-1.71l-2.1,0.85l-2.9-2l0.38-3.5l3.33-1.75l2.85,2.4l-0.34,3.18l0.94-0.64l0.26-2.42l3.33-1.75l1.02,0.86
		l0.72-0.54l-1.21-1.02l0.38-3.5l3.07-1.24l-0.11-1.17l-0.02,0.21l-3.3,1.33l-2.9-2l0.38-3.52l3.31-1.74l2.18,1.84l-0.11-1.2
		l-1.58-1.33l0.38-3.5l0.73-0.3l-0.08-0.89l-0.97,0.39l-2.9-2l0.38-3.51l2.88-1.52l-0.09-0.98l-3.23,1.7l-2.87-2.43l0.38-3.51
		l3.29-1.33l2.05,1.41l-0.11-1.16l-1.45-1l0.38-3.48l0.62-0.33l-0.09-0.94l-0.84,0.44l-2.86-2.41l0.38-3.5l2.7-1.09l-0.09-0.97
		l-2.98,1.2l-2.9-2l0.38-3.52l3.31-1.74l1.75,1.48l-0.11-1.2l-1.15-0.97l0.37-3.48l0.34-0.14l-0.09-0.9l-0.53,0.21l-2.88-1.99
		l0.38-3.51l2.4-1.27l-0.09-0.96l-2.71,1.43l-2.87-2.43l0.38-3.51l3.29-1.33l1.45,1l-0.11-1.17l-0.85-0.58l0.38-3.49l0.07-0.03
		l-0.09-0.94l-0.28,0.15l-2.86-2.41l0.12-1.13l0.26-2.37l2.11-0.85l-0.1-0.97l-2.38,0.96l-2.9-2l0.38-3.52l3.31-1.74l1.05,0.88
		l-0.12-1.21l-0.44-0.37l0.21-1.94l-0.24-2.39l-2.84-1.96l0.38-3.51l1.81-0.95l-0.09-0.93l-2.08,1.1l-2.87-2.42l0.38-3.52l3.28-1.33
		l0.7,0.48l-0.12-1.17l-0.09-0.06l0.04-0.38l-0.45-4.32l-2.39-2.02l0.38-3.52l1.38-0.56l-0.1-0.96l-1.64,0.66l-2.89-1.99l0.39-3.53
		l3.3-1.74l0.16,0.13l-0.31-2.89l-0.22,1.98l-3.3,1.74l-2.87-2.43l0.38-3.51l3.29-1.33l2.53,1.74l-0.12-1.14l-1.87-1.29l0.38-3.52
		l0.91-0.48l-0.11-0.98l-1.21,0.64l-2.87-2.42l0.38-3.51l2.98-1.2l-0.1-0.88l-3.19,1.29l-2.89-2l0.38-3.52l3.31-1.74l1.91,1.61
		l-0.14-1.22l-1.28-1.08l0.38-3.51l0.37-0.15l-0.11-0.96l-0.62,0.25l-2.89-1.99l0.38-3.51l2.39-1.25l-0.11-0.92l-2.61,1.37
		L356.5,256l0.38-3.52l3.29-1.33l1.2,0.83l-0.14-1.19l-0.57-0.4l0.25-2.32l-0.23-1.99l-2.87-2.42l0.38-3.52l0,0l1.69-0.68l-0.1-0.86
		l-1.93,0.78l-2.91-2l0.38-3.52l3.3-1.74l0.4,0.34c-0.16-1.27-0.32-2.54-0.47-3.81l-0.29,2.69l-3.3,1.74l-2.87-2.43l0.38-3.51
		l3.29-1.33l2.68,1.85l-0.15-1.19l-2.04-1.41l0.38-3.5l0.97-0.51l-0.12-0.91l-1.18,0.62l-2.85-2.4l0.38-3.53l2.82-1.14l-0.12-0.94
		l-3.06,1.24l-2.9-2l0.38-3.52l3.31-1.74l1.65,1.4l-0.16-1.25l-1-0.85l0.38-3.51l0.04-0.02l-0.12-0.86l-0.23,0.09l-2.89-1.99
		l0.39-3.53l1.86-0.98l-0.13-0.9l-2.1,1.11l-2.87-2.43l0.38-3.51l3.29-1.33l0.49,0.34l-0.56-3.94l-0.3,2.74l-3.29,1.33l-2.91-2.01
		l0.38-3.48l3.35-1.76l2.63,2.22l-0.19-1.29l-1.92-1.62l0.38-3.53l0.75-0.3l-0.14-0.94l-0.97,0.39l-2.9-2l0.38-3.52l2.53-1.33
		l-0.14-0.9l-2.75,1.45l-2.89-2.44l0.38-3.49l3.31-1.34l1.19,0.82l-0.18-1.14l-0.5-0.35l0.19-1.71l-0.45-2.84l-2.67-2.26l0.38-3.48
		l1.3-0.53l-0.15-0.91l-1.52,0.61l-2.9-2l0.38-3.48l2.98-1.57l-0.15-0.91l-3.14,1.65l-2.86-2.41l0.38-3.5l3.3-1.33l1.54,1.07
		l-0.21-1.27l-0.8-0.55l0.27-2.51l-0.31-1.79l0,0l-2.87-2.43l0.37-3.48l1.36-0.55l-0.16-0.88l-1.47,0.59l-2.88-1.99l0.38-3.51
		l2.8-1.48l-0.17-0.92l-3.03,1.59l-2.87-2.43l0.38-3.51l3.29-1.33l1.34,0.92l-0.24-1.26l-0.61-0.42l0.19-1.75
		c-0.19-0.99-0.39-1.97-0.58-2.95l-2.4-2.02l0.12-1.13l0.26-2.37l0.84-0.34l-0.19-0.93l-1.02,0.41l-2.9-2l0.38-3.52l2.22-1.17
		l-0.19-0.88l-2.4,1.26l-2.87-2.42l0.38-3.52l3.27-1.32l0.37,0.26c-0.18-0.83-0.37-1.67-0.55-2.5l-0.16,1.47l-3.28,1.32l-2.91-2
		l0.38-3.52l3.3-1.74l2.03,1.72l-0.31-1.37l-1.23-1.04l0.31-2.91l-0.36-1.5l-2.84-1.96l0.38-3.5l1.01-0.53L331.18,68l-1.12,0.59
		l-2.85-2.4l0.38-3.53l2.04-0.82l-0.24-0.9l-2.16,0.87l-2.9-2l0.38-3.52l3.02-1.59l-0.23-0.85l-3.15,1.66l-2.89-2.44l0.38-3.49
		l3.31-1.34l0.98,0.67c-0.13-0.44-0.25-0.88-0.38-1.32l-0.05-0.04l0.01-0.11c-0.21-0.73-0.42-1.46-0.63-2.19l-0.24,2.19l-3.29,1.33
		l-2.89-2l0.38-3.52l3.31-1.74l2.15,1.81l-0.44-1.48l-1.26-1.06l0.24-2.26c-0.25-0.82-0.51-1.63-0.76-2.44l-2.3-1.59l0.39-3.53
		l0.38-0.2l-0.21-0.86L320,30.19l-2.87-2.43l0.38-3.51l0.75-0.3l-1.59,0.21l-0.38,3.51l-3.31,1.74l-2.81-2.37l0.22-2.07l-0.94,0.12
		l-0.2,1.83l-3.26,1.71l-2.85-2.4l0.04-0.38l-0.16,0.02l-0.72,0.09l-0.02,0.14l-3.34,1.76l-1.38-1.16
		c-0.03,0.36-0.06,0.72-0.09,1.09l0.91,0.77L298,32.08l-0.78,0.31c-0.01,0.31-0.02,0.62-0.02,0.92l1.11-0.45l2.89,2l-0.38,3.52
		l-3.32,1.75l-0.3-0.26c0.01,1.82,0.03,3.64,0.05,5.47l2.62,1.81l-0.38,3.52l-2.13,1.12l0.02,0.97l2.47-1.3l2.87,2.42l-0.38,3.52
		l-3.28,1.33l-1.56-1.08l0.03,1.11l1.04,0.71l-0.38,3.51l-0.52,0.27l0.03,0.96l0.82-0.43l2.85,2.41l-0.38,3.52l-3.05,1.23l0.06,1.48
		l0.06-0.53l3.29-1.33l2.89,1.99l-0.39,3.53l-3.3,1.74l-2.41-2.04l0.05,1.15l1.87,1.58l-0.38,3.52l0,0l-1.23,0.5l0.04,0.89
		l1.53-0.62l2.91,2l-0.38,3.52l-3.3,1.74l-0.44-0.37c0.1,1.89,0.2,3.79,0.31,5.7l2.51,1.73l-0.38,3.5l-1.77,0.93l0.06,0.94
		l2.04-1.07l2.85,2.4l-0.38,3.53l-3.28,1.33l-0.88-0.61l0.07,1.14l0.32,0.22l-0.19,1.75l0.17,2.56h0.01l2.87,2.43l-0.38,3.51
		l-2.05,0.83l0.06,0.89l2.3-0.93l2.89,1.99l-0.39,3.53l-3.3,1.74l-1.13-0.96l0.08,1.18l0.55,0.47l-0.32,2.93l0.11,1.52l0.19-0.08
		l2.9,2l-0.38,3.5l-2.23,1.17l0.07,0.93l2.49-1.31l2.85,2.4l-0.38,3.53l-3.28,1.33l-1.3-0.9l0.08,1.15l0.72,0.5l-0.39,3.53
		l-0.04,0.02l0.07,0.93l0.33-0.18l2.87,2.43l-0.38,3.51l-2.33,0.94l0.07,0.89l2.59-1.05l2.91,2.01l-0.38,3.51l-3.33,1.75l-1.41-1.19
		l0.09,1.18l0.97,0.82l-0.39,3.66l-0.02,0.16l-0.21,0.08l0.07,0.88l0.8-0.32l2.89,1.99l-0.34,3.09l-0.21,0.11l-2.67,1.4l0.1,1.32
		l3.02-1.59l2.56,2.16l-0.37,3.46l-3.04,1.23l-1.87-1.29l0.08,1.12l0.02,0.32l1.22,0.84l-0.33,3.01l-0.58,0.3l0.08,1.09l0.82-0.43
		l2.74,2.32l-0.38,3.51l-2.69,1.09l0.09,1.19l2.76-1.12l2.89,1.99l-0.38,3.49l-2.94,1.55l-2.01-1.69l0.14,1.76l1.17,0.99l0.13,0.11
		l-0.32,2.97l-0.65,0.26l0.07,0.93l0.86-0.35l2.86,1.97l-0.18,1.65l-0.2,1.86l-2.81,1.48l0.09,1.16l2.91-1.53l2.86,2.42l-0.35,3.26
		l-3.28,1.33l-1.8-1.24l0.11,1.38l1.15,0.79l-0.36,3.26l-0.45,0.24l0.09,1.12l0.86-0.45l2.89,2.44l0.04,0.03l-0.35,3.24l-2.92,1.18
		l0.09,1.06l3.13-1.26l2.73,1.88l-0.39,3.53l-3.31,1.74l-1.8-1.52l0.13,1.62l1.13,0.95l-0.37,3.4l-0.38,0.16l0.08,0.99l0.63-0.26
		l2.94,2.03l-0.06,0.52l-0.3,2.79l-2.67,1.4l0.08,0.95l2.75-1.45l2.97,2.51l-0.36,3.32l-3.18,1.29l-1.8-1.24l0.1,1.2l1.31,0.9
		l0.19,0.13l0.06-0.03l-0.32,2.96l-0.02-0.01l-0.25,0.13l-0.59,0.31l0.12,1.42l1-0.53l2.5,2.11l-0.02,0.2l-0.36,3.29l-2.59,1.05
		l0.09,1.1l2.62-1.06l3.07,2.12l-0.36,3.33l-3.31,1.74l0,0l-1.61-1.36l0.1,1.19l1.01,0.85l0,0l-0.38,3.5l-0.24,0.1l0.1,1.13
		l0.47-0.19l2.9,2l-0.38,3.53l-2.21,1.16l-0.2,0.08l0.08,0.93l0.47-0.25l2.15-0.87l2.16,1.49l0.74,0.63l-0.37,3.4l-1.96,1.03
		l-1.51,0.61l-1.25-1.06L314.69,297.41L314.69,297.41z M308.79,34.94l-2.9-2l0.23-2.15l0.15-1.34l3.35-1.76l2.86,2.41l-0.38,3.5
		L308.79,34.94L308.79,34.94z M309.09,35.74l3.3-1.33l2.9,2l-0.18,1.65l-0.2,1.86l-3.33,1.75l-2.86-2.42L309.09,35.74L309.09,35.74z
		 M312.94,33.72l0.38-3.52l3.31-1.74l2.87,2.42l-0.38,3.51l-3.29,1.33L312.94,33.72L312.94,33.72z M305.43,29.34l-0.16,1.45
		l-0.22,2.04l-3.31,1.34l-2.89-1.99l0.38-3.5l3.34-1.76L305.43,29.34L305.43,29.34z M316.12,36.51l3.31-1.34l2.89,2l-0.38,3.52
		l-3.31,1.74L315.74,40l0.19-1.81L316.12,36.51L316.12,36.51z M315.31,40.74l2.87,2.43l-0.38,3.49L314.5,48l-2.9-2l0.38-3.51
		L315.31,40.74L315.31,40.74z M302.05,34.96l3.29-1.33l2.89,1.99l-0.39,3.53l-3.31,1.74l-2.87-2.42L302.05,34.96L302.05,34.96z
		 M308.25,39.97l2.89,2.44l-0.38,3.49l-3.31,1.34l-2.89-2l0.38-3.52L308.25,39.97L308.25,39.97z M306.58,157.45l0.38-3.52l3.31-1.74
		l2.89,2.44l-0.38,3.49l-3.3,1.33L306.58,157.45L306.58,157.45z M306.6,153.14l-2.87-2.42l0.38-3.52l3.28-1.33l2.9,2l-0.38,3.52
		L306.6,153.14L306.6,153.14z M313.64,153.91l-2.87-2.43l0.38-3.51l3.29-1.33l2.91,2.01l-0.38,3.51L313.64,153.91L313.64,153.91z
		 M316.54,160.22l-2.91-2.01l0.38-3.51l3.33-1.75l2.87,2.43l-0.38,3.51L316.54,160.22L316.54,160.22z M316.86,161l3.29-1.33
		l2.91,2.01l-0.38,3.51l-3.25,1.71l-2.94-2.48L316.86,161L316.86,161z M320.68,158.99l0.38-3.52l3.31-1.74l2.86,2.42l-0.38,3.52
		l-3.29,1.33L320.68,158.99L320.68,158.99z M320.7,154.69l-2.89-2.44l0.38-3.49l3.3-1.33l2.9,2l-0.38,3.52L320.7,154.69
		L320.7,154.69z M323.9,161.77l3.31-1.34l2.9,2l-0.38,3.52l-3.24,1.71l-2.95-2.49L323.9,161.77L323.9,161.77z M327.72,159.77
		l0.39-3.53l3.3-1.74l2.87,2.43l-0.38,3.51l-3.29,1.33L327.72,159.77L327.72,159.77z M327.74,155.46l-2.87-2.43l0.38-3.51l3.29-1.33
		l2.89,1.99l-0.39,3.53L327.74,155.46L327.74,155.46z M334.75,160.53l0.38-3.52l3.31-1.74l2.89,2.44l-0.38,3.49l-3.31,1.34
		L334.75,160.53L334.75,160.53z M334.77,156.23l-2.87-2.42l0.38-3.52l3.28-1.33l2.9,2l-0.38,3.52L334.77,156.23L334.77,156.23z
		 M337.99,163.3l3.29-1.33l2.91,2l-0.38,3.51l-3.26,1.71l-2.93-2.47L337.99,163.3L337.99,163.3z M341.81,157l-2.87-2.43l0.38-3.51
		l3.29-1.33l2.85,1.97l-0.39,3.58L341.81,157L341.81,157z M307.89,145.13l0.38-3.51l3.33-1.75l2.85,2.41l-0.38,3.52l-3.29,1.33
		L307.89,145.13L307.89,145.13z M314.92,145.89l0.38-3.48l3.35-1.76l2.86,2.41l-0.38,3.5l-3.3,1.33L314.92,145.89L314.92,145.89z
		 M311.3,139.05l-3.35,1.76l-2.85-2.41l0.38-3.52l3.29-1.33l2.91,2.01L311.3,139.05L311.3,139.05z M318.35,139.82l-3.35,1.76
		l-2.86-2.41l0.38-3.5l3.3-1.33l2.9,2L318.35,139.82L318.35,139.82z M324.88,148.67l-2.91-2.01l0.38-3.48l3.35-1.76l2.85,2.41
		l-0.38,3.52L324.88,148.67L324.88,148.67z M329.02,147.44l0.38-3.5l3.33-1.75l2.85,2.4l-0.38,3.53l-3.28,1.33L329.02,147.44
		L329.02,147.44z M325.37,140.61l-3.33,1.75l-2.85-2.41l0.38-3.52l3.29-1.33l2.89,1.99L325.37,140.61L325.37,140.61z M336.06,148.21
		l0.38-3.51l3.33-1.75l2.85,2.41l-0.38,3.52l-3.29,1.33L336.06,148.21L336.06,148.21z M332.41,141.38l-3.33,1.75l-2.85-2.4
		l0.38-3.53l3.28-1.33l2.9,2L332.41,141.38L332.41,141.38z M339.47,142.14l-3.35,1.76l-2.85-2.41l0.38-3.52l3.29-1.33l2.91,2.01
		L339.47,142.14L339.47,142.14z M341.14,126.32l-0.38,3.52l-3.31,1.74l-2.87-2.42l0.38-3.52l3.29-1.33L341.14,126.32L341.14,126.32z
		 M341.12,130.63l2.89,2.44l-0.38,3.49l-3.3,1.33l-2.9-2l0.38-3.52L341.12,130.63L341.12,130.63z M337.95,123.53l-3.31,1.34l-2.89-2
		l0.38-3.52l3.31-1.74l2.89,2.44L337.95,123.53L337.95,123.53z M334.1,125.54l-0.39,3.53l-3.3,1.74l-2.87-2.43l0.38-3.51l3.29-1.33
		L334.1,125.54L334.1,125.54z M334.08,129.85l2.87,2.43l-0.38,3.51l-3.29,1.33l-2.89-1.99l0.39-3.53L334.08,129.85L334.08,129.85z
		 M330.9,122.76l-3.29,1.33l-2.89-1.99l0.39-3.53l3.3-1.74l2.87,2.43L330.9,122.76L330.9,122.76z M327.07,124.78l-0.38,3.52
		l-3.31,1.74l-2.89-2.44l0.38-3.49l3.31-1.34L327.07,124.78L327.07,124.78z M327.05,129.09l2.87,2.42l-0.38,3.52l-3.28,1.33l-2.9-2
		l0.38-3.52L327.05,129.09L327.05,129.09z M323.86,121.99l-3.29,1.33l-2.89-2l0.38-3.52l3.31-1.74l2.87,2.42L323.86,121.99
		L323.86,121.99z M320.01,128.32l2.87,2.43l-0.38,3.51l-3.29,1.33l-2.91-2.01l0.38-3.51L320.01,128.32L320.01,128.32z
		 M317.12,122.02l2.9,2l-0.38,3.51l-3.33,1.75l-2.87-2.43l0.38-3.49L317.12,122.02L317.12,122.02z M316.83,121.21l-3.31,1.34l-2.9-2
		l0.38-3.51l3.33-1.75l2.87,2.43L316.83,121.21L316.83,121.21z M312.97,123.24l-0.38,3.52l-3.31,1.74l-2.86-2.42l0.38-3.51
		l3.29-1.33L312.97,123.24L312.97,123.24z M312.95,127.54l2.89,2.44l-0.38,3.49l-3.3,1.33l-2.9-2l0.38-3.52L312.95,127.54
		L312.95,127.54z M309.78,120.44l-3.31,1.34l-2.89-2l0.38-3.52l3.31-1.74l2.89,2.44L309.78,120.44L309.78,120.44z M305.91,126.77
		l2.87,2.43l-0.38,3.51l-3.29,1.33l-2.89-1.99l0.39-3.53L305.91,126.77L305.91,126.77z M303.6,115.48l-2.87-2.42l0.38-3.52
		l3.28-1.33l2.9,2l-0.38,3.52L303.6,115.48L303.6,115.48z M310.64,116.25l-2.87-2.43l0.38-3.51l3.29-1.33l2.91,2.01l-0.38,3.51
		L310.64,116.25L310.64,116.25z M317.7,117.02l-2.89-2.44l0.38-3.49l3.3-1.33l2.9,2l-0.38,3.52L317.7,117.02L317.7,117.02z
		 M324.73,117.79l-2.87-2.43l0.38-3.51l3.29-1.33l2.89,1.99l-0.39,3.53L324.73,117.79L324.73,117.79z M331.77,118.56l-2.87-2.42
		l0.38-3.52l3.28-1.33l2.9,2l-0.38,3.52L331.77,118.56L331.77,118.56z M304.89,107.46l0.38-3.51l3.33-1.75l2.85,2.41l-0.38,3.52
		l-3.29,1.33L304.89,107.46L304.89,107.46z M311.92,108.23l0.38-3.48l3.35-1.76l2.86,2.41l-0.38,3.5l-3.3,1.33L311.92,108.23
		L311.92,108.23z M308.3,101.39l-3.35,1.76l-2.85-2.41l0.38-3.52l3.29-1.33l2.91,2.01L308.3,101.39L308.3,101.39z M315.34,102.15
		l-3.35,1.76l-2.86-2.41l0.38-3.5l3.3-1.33l2.9,2L315.34,102.15L315.34,102.15z M321.88,111l-2.91-2.01l0.38-3.48l3.35-1.76
		l2.85,2.41l-0.38,3.52L321.88,111L321.88,111z M326.02,109.77l0.38-3.5l3.33-1.75l2.85,2.4l-0.38,3.53l-3.28,1.33L326.02,109.77
		L326.02,109.77z M322.37,102.94l-3.33,1.75l-2.85-2.41l0.38-3.52l3.29-1.33l2.89,1.99L322.37,102.94L322.37,102.94z M333.06,110.55
		l0.38-3.51l3.33-1.75l2.85,2.41l-0.38,3.52l-3.29,1.33L333.06,110.55L333.06,110.55z M329.41,103.71l-3.33,1.75l-2.85-2.41
		l0.38-3.53l3.28-1.33l2.9,2L329.41,103.71L329.41,103.71z M336.46,104.47l-3.35,1.76l-2.85-2.41l0.38-3.52l3.29-1.33l2.91,2.01
		l-0.27,2.48L336.46,104.47L336.46,104.47z M331.09,87.89l-0.38,3.52l-3.3,1.74l-2.87-2.43l0.38-3.51l3.28-1.32L331.09,87.89
		L331.09,87.89z M331.07,92.19l2.87,2.43l-0.38,3.51l-3.29,1.33l-2.89-1.99l0.39-3.53L331.07,92.19L331.07,92.19z M324.06,87.12
		l-0.38,3.51l-3.31,1.74l-2.89-2.44l0.38-3.49l0,0l3.29-1.33L324.06,87.12L324.06,87.12z M324.04,91.42l2.87,2.42l-0.38,3.52
		l-3.28,1.33l-2.9-2l0.38-3.52L324.04,91.42L324.04,91.42z M324.57,86.44l-2.91-2.01l0.38-3.51l3.31-1.74l2.87,2.42l-0.38,3.52l0,0
		L324.57,86.44L324.57,86.44z M317,90.65l2.87,2.43l-0.38,3.51l-3.29,1.33l-2.91-2.01l0.38-3.51L317,90.65L317,90.65z M317.01,86.35
		l-0.38,3.51l-3.33,1.75l-2.87-2.43l0.38-3.51l3.29-1.33L317.01,86.35L317.01,86.35z M317.52,85.68l-2.91-2.01l0.38-3.51l3.33-1.75
		l2.87,2.43l-0.38,3.51l0,0L317.52,85.68L317.52,85.68z M309.96,85.58l-0.38,3.51l-3.31,1.74l-2.87-2.42l0.38-3.52l0.84-0.34
		l2.43-0.98L309.96,85.58L309.96,85.58z M309.94,89.88l2.89,2.44l-0.38,3.49l-3.3,1.33l-2.9-2l0.38-3.52L309.94,89.88L309.94,89.88z
		 M310.47,84.9l-2.91-2.01l0.38-3.51l3.31-1.74l2.89,2.44l-0.38,3.49l0,0L310.47,84.9L310.47,84.9z M302.9,89.11l2.87,2.43
		l-0.38,3.51l-3.29,1.33l-2.89-1.99l0.38-3.53L302.9,89.11L302.9,89.11z M303.44,84.13l-2.91-2l0.38-3.52l3.3-1.74l2.87,2.43
		l-0.38,3.51L303.44,84.13L303.44,84.13z M307.58,78.6l-2.87-2.42l0.38-3.52l3.28-1.33l2.9,2l-0.38,3.52L307.58,78.6L307.58,78.6z
		 M314.62,79.37l-2.87-2.43l0.38-3.51l3.29-1.33l2.91,2.01l-0.38,3.51L314.62,79.37L314.62,79.37z M321.68,80.14l-2.89-2.44
		l0.38-3.49l3.3-1.33l2.9,2l-0.38,3.52L321.68,80.14L321.68,80.14z M328.72,80.91l-2.87-2.43l0.38-3.51l3.29-1.33l2.89,1.99
		l-0.39,3.53L328.72,80.91L328.72,80.91z M301.83,69.81l0.38-3.5l3.33-1.75l2.85,2.4l-0.38,3.53l-3.28,1.33L301.83,69.81
		L301.83,69.81z M308.87,70.58l0.38-3.51l3.33-1.75l2.85,2.41l-0.38,3.52l-3.29,1.33L308.87,70.58L308.87,70.58z M305.22,63.75
		l-3.33,1.75l-2.85-2.4l0.38-3.53l3.28-1.33l2.9,2L305.22,63.75L305.22,63.75z M315.9,71.35l0.38-3.48l3.35-1.76l2.86,2.41
		l-0.38,3.5l-3.3,1.33L315.9,71.35L315.9,71.35z M312.28,64.51l-3.35,1.76l-2.85-2.41l0.38-3.52l3.29-1.33l2.91,2.01L312.28,64.51
		L312.28,64.51z M319.32,65.27l-3.35,1.76l-2.86-2.41l0.38-3.5l3.3-1.33l2.9,2L319.32,65.27L319.32,65.27z M325.86,74.12l-2.91-2.01
		l0.38-3.48l3.35-1.76l2.85,2.41l-0.38,3.52L325.86,74.12L325.86,74.12z M326.35,66.06l-3.33,1.75l-2.85-2.41l0.38-3.52l3.29-1.33
		l2.89,1.99L326.35,66.06L326.35,66.06z M320.98,53.77l2.87,2.43l-0.38,3.51l-3.29,1.33l-2.91-2.01l0.38-3.51L320.98,53.77
		L320.98,53.77z M318.1,47.47l2.9,2l-0.38,3.51l-3.33,1.75l-2.87-2.43l0.38-3.49L318.1,47.47L318.1,47.47z M313.94,48.69l-0.38,3.52
		l-3.31,1.74l-2.86-2.42l0.38-3.51l3.29-1.33L313.94,48.69L313.94,48.69z M313.93,53l2.89,2.44l-0.38,3.49l-3.3,1.33l-2.9-2
		l0.38-3.52L313.93,53L313.93,53z M306.9,47.91l-0.39,3.53l-3.3,1.74l-2.87-2.43l0.38-3.51l3.29-1.33L306.9,47.91L306.9,47.91z
		 M306.89,52.22l2.87,2.43l-0.38,3.51l-3.29,1.33l-2.89-1.99l0.39-3.53L306.89,52.22L306.89,52.22z M303.71,45.13l-3.29,1.33
		l-2.89-1.99l0.39-3.53l3.31-1.74l2.87,2.42L303.71,45.13L303.71,45.13z M344.77,163.31l-2.91-2l0.38-3.51l3.26-1.71l2.93,2.47
		l-0.37,3.43L344.77,163.31L344.77,163.31z M344.24,168.29l2.87,2.43l-0.38,3.51l-3.29,1.33l-2.85-1.97l0.39-3.58L344.24,168.29
		L344.24,168.29z M340.07,170l-0.38,3.48l-3.24,1.31l-2.89-1.99l0.39-3.53l3.23-1.7L340.07,170L340.07,170z M349.99,177.08
		l-0.38,3.51l-3.33,1.75l-2.85-2.41l0.38-3.52l3.29-1.33L349.99,177.08L349.99,177.08z M342.96,176.31l-0.38,3.48l-3.35,1.76
		l-2.85-2.4l0.38-3.51l3.3-1.33L342.96,176.31L342.96,176.31z M335.92,175.54l-0.38,3.49l-3.35,1.76l-2.84-2.4l0.38-3.53l3.28-1.33
		L335.92,175.54L335.92,175.54z M339.55,182.38l3.34-1.76l2.86,2.41l-0.38,3.5l-3.3,1.33l-2.89-1.99L339.55,182.38L339.55,182.38z
		 M340.75,200.18l-2.86-1.97l0.39-3.54l3.3-1.74l2.87,2.43l-0.37,3.48L340.75,200.18L340.75,200.18z M341.03,201l3.32-1.34
		l2.88,1.99l-0.38,3.51l-3.26,1.71l-2.93-2.47L341.03,201L341.03,201z M344.92,198.97l0.38-3.52l3.31-1.74l2.87,2.42l-0.38,3.52
		l-3.29,1.33L344.92,198.97L344.92,198.97z M344.93,194.66l-2.89-2.44l0.38-3.49l3.3-1.33l2.9,2l-0.38,3.52L344.93,194.66
		L344.93,194.66z M337.4,194.64l-0.37,3.43l-3.32,1.34l-2.86-1.97l0.39-3.53l3.26-1.71L337.4,194.64L337.4,194.64z M348.1,201.76
		l3.31-1.34l2.89,2l-0.38,3.52l-3.31,1.74l-2.89-2.44L348.1,201.76L348.1,201.76z M347.25,205.96l2.87,2.43l-0.38,3.51l-3.29,1.33
		l-2.82-1.94l0.4-3.63L347.25,205.96L347.25,205.96z M343.08,207.65l-0.38,3.53l-3.2,1.29l-2.89-1.99l0.39-3.53l3.23-1.7
		L343.08,207.65L343.08,207.65z M353,214.74l-0.38,3.51l-3.33,1.75l-2.85-2.41l0.38-3.52l3.29-1.33L353,214.74L353,214.74z
		 M345.97,213.98l-0.38,3.49l-3.35,1.76l-2.86-2.41l0.2-1.85l0.18-1.65l3.3-1.33L345.97,213.98L345.97,213.98z M349.59,220.82
		l3.35-1.76l2.85,2.41l-0.38,3.52l-3.29,1.33l-2.91-2.01l0.26-2.36L349.59,220.82L349.59,220.82z M338.74,214.88l-0.2,1.83
		l-3.35,1.76l-2.85-2.4l0.38-3.53l3.28-1.33l2.91,2.01L338.74,214.88L338.74,214.88z M342.56,220.04l3.33-1.75l2.86,2.41l-0.13,1.24
		l-0.25,2.26l-3.3,1.33l-2.89-1.99L342.56,220.04L342.56,220.04z M340.87,235.85l0.23-2.1l0.15-1.4l3.33-1.75l2.87,2.43l-0.38,3.51
		l-3.29,1.33L340.87,235.85L340.87,235.85z M340.37,236.53l2.92,2.01l-0.2,1.84l-0.18,1.67l-3.33,1.75l-2.87-2.42l0.38-3.52
		L340.37,236.53L340.37,236.53z M347.92,236.62l0.38-3.51l3.31-1.74l2.87,2.42l-0.38,3.52l-3.27,1.32L347.92,236.62L347.92,236.62z
		 M347.94,232.33l-2.89-2.44l0.21-1.95l0.17-1.55l3.3-1.33l2.9,2l-0.38,3.52L347.94,232.33L347.94,232.33z M340.41,232.26
		l-0.16,1.44l-0.22,2.05l-3.29,1.33l-2.91-2l0.38-3.52l3.3-1.74L340.41,232.26L340.41,232.26z M347.41,237.31l2.91,2.01l-0.38,3.51
		l-3.31,1.74l-2.89-2.44l0.18-1.63l0.2-1.87L347.41,237.31L347.41,237.31z M354.45,238.08l2.91,2l-0.38,3.52l-3.3,1.74l-2.87-2.43
		l0.38-3.51L354.45,238.08L354.45,238.08z M344.41,227.97l-0.2,1.84l-3.33,1.75l-2.87-2.42l0.38-3.52l3.28-1.33l2.91,2.01
		L344.41,227.97L344.41,227.97z M357.34,244.38l2.87,2.43l-0.38,3.51l-3.29,1.33l-2.89-1.99l0.39-3.53L357.34,244.38L357.34,244.38z
		 M350.31,243.61l2.87,2.42l-0.38,3.52l-3.28,1.33l-2.9-2l0.38-3.52L350.31,243.61L350.31,243.61z M343.27,242.84l2.87,2.43
		l-0.38,3.51l-3.29,1.33l-2.91-2.01l0.16-1.47l0.22-2.04L343.27,242.84L343.27,242.84z M339.1,244.5l-0.22,2.06l-0.16,1.44
		l-3.3,1.33l-2.89-1.99l0.39-3.53l3.3-1.74L339.1,244.5L339.1,244.5z M356.05,252.4l-0.38,3.5l-3.33,1.75l-2.85-2.4l0.38-3.53
		l3.28-1.33L356.05,252.4L356.05,252.4z M349.01,251.62l-0.38,3.51l-3.33,1.75l-2.85-2.41l0.38-3.52l3.29-1.33L349.01,251.62
		L349.01,251.62z M352.66,258.45l3.33-1.75l2.85,2.4l-0.38,3.53l-3.28,1.33l-2.9-2L352.66,258.45L352.66,258.45z M341.98,250.86
		l-0.38,3.49l-3.35,1.76l-2.86-2.41l0.21-1.97l0.17-1.53l3.3-1.33L341.98,250.86L341.98,250.86z M345.61,257.7l3.35-1.76l2.85,2.41
		l-0.38,3.52l-3.29,1.33l-2.91-2.01l0.23-2.17L345.61,257.7L345.61,257.7z M334.78,251.6l-0.22,1.98l-3.35,1.76l-2.85-2.4l0.38-3.53
		l3.28-1.33l2.91,2.01L334.78,251.6L334.78,251.6z M338.58,256.92l3.34-1.75l2.86,2.41l-0.15,1.41l-0.23,2.09l-3.3,1.33l-2.89-1.99
		L338.58,256.92L338.58,256.92z M339.79,274.74l-2.9-2l0.23-2.15l0.15-1.34l3.35-1.76l2.86,2.41l-0.38,3.5L339.79,274.74
		L339.79,274.74z M340.09,275.54l3.3-1.33l2.9,2l-0.18,1.65l-0.2,1.86l-3.33,1.75l-2.86-2.42L340.09,275.54L340.09,275.54z
		 M343.94,273.52l0.38-3.52l3.31-1.74l2.86,2.42l-0.38,3.51l-3.29,1.33L343.94,273.52L343.94,273.52z M343.96,269.21l-2.81-2.37
		l0.39-3.6l3.22-1.3l2.9,2l-0.38,3.52L343.96,269.21L343.96,269.21z M340.23,266.72l-3.26,1.71l-2.85-2.4l0.38-3.53l3.28-1.33
		l2.83,1.95L340.23,266.72L340.23,266.72z M336.43,269.14l-0.16,1.45l-0.22,2.04l-3.31,1.34l-2.89-1.99l0.38-3.5l3.34-1.76
		L336.43,269.14L336.43,269.14z M347.12,276.31l3.31-1.34l2.89,2l-0.38,3.52l-3.31,1.74l-2.89-2.44l0.19-1.81L347.12,276.31
		L347.12,276.31z M350.98,274.29l0.39-3.53l3.3-1.74l2.87,2.43l-0.38,3.51l-3.29,1.33L350.98,274.29L350.98,274.29z M351,269.98
		l-2.87-2.43l0.38-3.51l3.29-1.33l2.89,1.99l-0.39,3.53L351,269.98L351,269.98z M354.18,277.07l3.3-1.33l2.89,1.99l-0.39,3.53
		l-3.3,1.74l-2.87-2.43L354.18,277.07L354.18,277.07z M358.03,270.75l-2.87-2.42l0.38-3.52l3.28-1.33l2.9,2l-0.38,3.52
		L358.03,270.75L358.03,270.75z M360.38,282.08l2.87,2.43l-0.38,3.51l-3.29,1.33l-2.89-1.99l0.39-3.53L360.38,282.08L360.38,282.08z
		 M353.35,281.31l2.87,2.42l-0.38,3.51l-3.29,1.33l-2.89-2l0.38-3.52L353.35,281.31L353.35,281.31z M346.31,280.54l2.87,2.43
		l-0.38,3.49l-3.31,1.34l-2.9-2l0.38-3.51L346.31,280.54L346.31,280.54z M337.14,163.2l-0.39,3.53l-3.23,1.7l-2.94-2.48l0.37-3.42
		l3.29-1.33L337.14,163.2L337.14,163.2z M330.15,166.79l2.93,2.47l-0.37,3.43l-3.28,1.33l-2.9-2l0.38-3.52L330.15,166.79
		L330.15,166.79z M323.11,166.02l2.93,2.48l-0.37,3.42l-3.29,1.33l-2.91-2.01l0.38-3.51L323.11,166.02L323.11,166.02z
		 M328.88,174.77l-0.38,3.5l-3.33,1.75l-2.85-2.4l0.38-3.52l3.29-1.33L328.88,174.77L328.88,174.77z M332.51,181.6l3.34-1.76
		l2.84,2.4l-0.38,3.53l-3.28,1.33l-2.9-2L332.51,181.6L332.51,181.6z M321.84,174l-0.38,3.48l-3.35,1.76l-2.56-2.16l0.41-3.8
		l0.01-0.09l2.97-1.2L321.84,174L321.84,174z M325.45,180.85l3.36-1.77l2.85,2.4l-0.38,3.52l-3.29,1.33l-2.91-2.01L325.45,180.85
		L325.45,180.85z M314.8,173.24l-0.38,3.45l-3.34,1.76l-2.56-2.16l0.38-3.53l3.28-1.33L314.8,173.24L314.8,173.24z M318.4,180.09
		l3.37-1.77l2.85,2.41l-0.38,3.5l-3,1.21l-3.18-2.19L318.4,180.09L318.4,180.09z M338.62,186.62l2.91,2.01l-0.38,3.51l-3.29,1.73
		l-2.9-2.45l0.37-3.47L338.62,186.62L338.62,186.62z M334.48,187.84l-0.39,3.53l-3.26,1.72l-2.91-2.46l0.37-3.46l3.29-1.33
		L334.48,187.84L334.48,187.84z M327.45,187.08l-0.38,3.52l-3.27,1.72l-2.71-2.29l0.02-0.15l0.38-3.57l3.06-1.24L327.45,187.08
		L327.45,187.08z M327.47,191.42l2.9,2.45L330,197.3l-3.32,1.34l-2.87-1.98l0.38-3.52L327.47,191.42L327.47,191.42z M320.42,186.22
		l-0.38,3.48l-3.07,1.61l-2.88-2.43l0.37-3.44l3.05-1.23L320.42,186.22L320.42,186.22z M320.43,190.65l2.91,2.46l-0.37,3.42
		l-3.33,1.35l-2.88-1.98l0.38-3.51L320.43,190.65L320.43,190.65z M319.89,198.71l3.34-1.35l2.88,1.98l-0.38,3.51l-3.01,1.58
		l-3.14-2.65l-0.03-0.02L319.89,198.71L319.89,198.71z M316.35,191.91l-0.02,0.15l-0.01,0.13l-0.35,3.2l-3.3,1.33l-2.89-1.99
		l0.36-3.34l3.45-1.81L316.35,191.91L316.35,191.91z M326.94,199.48l3.34-1.35l2.87,1.98l-0.38,3.52l-3.24,1.7l-2.95-2.49
		L326.94,199.48L326.94,199.48z M333.99,200.24l3.33-1.34l2.86,1.97l-0.39,3.53l-3.23,1.7l-2.94-2.48L333.99,200.24L333.99,200.24z
		 M333.19,204.47l2.93,2.47l-0.37,3.43l-3.28,1.33l-2.9-2l0.38-3.52L333.19,204.47L333.19,204.47z M326.15,203.69l2.94,2.48
		l-0.37,3.42l-3.29,1.33l-2.87-1.98l0.01-0.05l0.38-3.51L326.15,203.69L326.15,203.69z M322.05,205.42l-0.34,3.15l-3.26,1.32l0,0
		l-2.82-1.94l0.39-3.54l2.97-1.56L322.05,205.42L322.05,205.42z M331.87,212.43l-0.38,3.51l-3.33,1.75l-2.85-2.41l0,0l0.38-3.52
		l3.29-1.33L331.87,212.43L331.87,212.43z M335.52,219.26l3.33-1.75l2.85,2.4l-0.38,3.53l-3.28,1.33l-2.9-2L335.52,219.26
		L335.52,219.26z M324.84,211.67l-0.38,3.51l-3.33,1.75l-2.77-2.34l0.02-0.21l0.37-3.43l3.18-1.28L324.84,211.67L324.84,211.67z
		 M328.52,218.48l3.3-1.74l2.85,2.41l-0.38,3.52L331,224l-2.87-1.98L328.52,218.48L328.52,218.48z M317.85,210.49l-0.02,0.17
		l-0.38,3.48l-3.2,1.69l-2.88-2.43l0.2-1.89l0.17-1.56l3.35-1.35L317.85,210.49L317.85,210.49z M321.46,217.72l3.34-1.76l2.83,2.39
		l-0.38,3.56l-3.01,1.21l-0.05-0.03l-3.08-2.12l0.23-2.1L321.46,217.72L321.46,217.72z M337.54,225.52l-0.39,3.53l-3.3,1.74
		l-2.87-2.43l0.38-3.51l3.29-1.33L337.54,225.52L337.54,225.52z M330.51,224.75l-0.38,3.52l-3.31,1.74l-2.88-2.43l0.01-0.13
		l0.36-3.31l0.01-0.06l3.3-1.33L330.51,224.75L330.51,224.75z M330.5,229.06l2.86,2.42l-0.38,3.52l0,0l-3.27,1.32l0,0l-2.91-2.01
		l0.38-3.51L330.5,229.06L330.5,229.06z M323.48,223.95l-0.35,3.19l-3.25,1.71l-2.89-2.44l-0.04-0.03l0.34-3.17l3.29-1.33l2.9,2
		L323.48,223.95L323.48,223.95z M323.45,228.29l2.87,2.43l-0.38,3.51l-2.91,1.17l-0.14-0.1l-2.89-1.99l0.37-3.4L323.45,228.29
		L323.45,228.29z M319.09,234.11l3.07,2.12l-0.34,3.13l-3.33,1.75l-2.86-2.42l0.36-3.34L319.09,234.11L319.09,234.11z M319.33,229.6
		l-0.01,0.13l-0.36,3.35l-3.26,1.32l-2.73-1.88l0.39-3.53l3.23-1.7L319.33,229.6L319.33,229.6z M326.29,234.99l2.91,2.01l-0.38,3.51
		l-3.31,1.74l-2.88-2.43l0.02-0.15l0.36-3.35L326.29,234.99L326.29,234.99z M333.32,235.77l2.91,2l-0.38,3.52l-3.3,1.74l-2.87-2.43
		l0.38-3.51l0.09-0.04L333.32,235.77L333.32,235.77z M329.18,241.3l2.87,2.42l-0.38,3.52l-3.28,1.33l-2.9-2l0.38-3.52L329.18,241.3
		L329.18,241.3z M322.14,240.53l2.87,2.43l-0.38,3.51l-3.29,1.33l-2.91-2.01l0.37-3.47v-0.04L322.14,240.53L322.14,240.53z
		 M317.98,242.19l-0.03,0.24l-0.36,3.26l-3.15,1.27l-3.03-2.09l0.37-3.38l3.31-1.74L317.98,242.19L317.98,242.19z M327.89,249.31
		l-0.38,3.51l-3.17,1.67l-2.99-2.52l0.36-3.32l3.29-1.33L327.89,249.31L327.89,249.31z M331.54,256.14l3.33-1.75l2.85,2.4
		l-0.38,3.53l-3.28,1.33l-2.9-2L331.54,256.14L331.54,256.14z M320.86,248.55l-0.35,3.24l-3.38,1.78l-2.83-2.39l0.3-2.75l0.06-0.55
		l3.3-1.33L320.86,248.55L320.86,248.55z M320.82,252.84l2.83,2.39l-0.36,3.3l-3.21,1.3l-2.74-1.89l-0.19-0.13l-0.06,0.03l0.35-3.22
		L320.82,252.84L320.82,252.84z M324.48,255.39l3.35-1.76l2.85,2.41l-0.38,3.52l-3.29,1.33l-2.91-2.01L324.48,255.39L324.48,255.39z
		 M333.65,262.41l-0.38,3.5l-3.34,1.76l-2.85-2.4l0.38-3.52l3.29-1.33L333.65,262.41L333.65,262.41z M326.62,261.64l-0.38,3.49
		l-3.34,1.76l-2.51-2.12l0.02-0.19l0.41-3.77l2.9-1.17L326.62,261.64L326.62,261.64z M319.61,260.62v0.02l-0.41,3.73l-3.02,1.59
		l-2.78-2.34l0.38-3.53l3.18-1.29L319.61,260.62L319.61,260.62z M323.2,267.71l3.34-1.76l2.84,2.4l-0.38,3.52l-3.09,1.25l-3.07-2.12
		L323.2,267.71L323.2,267.71z M315.79,270.22l0.35-3.2l0.02,0.01l0.25-0.13l3.16-1.66l2.79,2.35l-0.36,3.32l-3.29,1.33
		L315.79,270.22L315.79,270.22z M319.03,273.2l3.28-1.33l2.86,1.97l-0.37,3.37l-3.27,1.72l-2.86-2.42L319.03,273.2L319.03,273.2z
		 M326.06,273.98l3.26-1.32l2.89,2l-0.38,3.52l-3.32,1.75l0,0l-2.83-2.39v-0.03L326.06,273.98L326.06,273.98z M333.05,274.76
		l3.29-1.33l2.89,1.99l-0.39,3.53l-3.31,1.74l-2.87-2.42L333.05,274.76L333.05,274.76z M339.26,279.76l2.89,2.44l-0.38,3.49
		l-3.31,1.34l-2.89-2l0.38-3.52L339.26,279.76L339.26,279.76z M325.19,278.22l2.86,2.42l-0.38,3.52l-3.29,1.33l-2.89-2l0.38-3.52
		L325.19,278.22L325.19,278.22z M323.51,395.71l0.38-3.52l3.31-1.74l2.87,2.42l-0.38,3.52l-3.28,1.33L323.51,395.71L323.51,395.71z
		 M326.73,398.48l3.29-1.33l2.91,2.01l-0.38,3.51l-3.08,1.62l-2.97-2.51l-0.11-0.09L326.73,398.48L326.73,398.48z M330.55,396.48
		l0.38-3.53l3.3-1.74l2.87,2.43l-0.38,3.51l-3.29,1.33L330.55,396.48L330.55,396.48z M330.57,392.17l-2.87-2.43l0.38-3.51l3.29-1.33
		l2.89,1.99l-0.39,3.53L330.57,392.17L330.57,392.17z M337.58,397.25l0.38-3.52l3.31-1.74l2.89,2.44l-0.38,3.49l-3.3,1.33
		L337.58,397.25L337.58,397.25z M337.6,392.94l-2.87-2.42l0.38-3.52l3.28-1.33l2.9,2l-0.38,3.52L337.6,392.94L337.6,392.94z
		 M344.64,393.71l-2.87-2.43l0.38-3.51l3.29-1.33l2.91,2.01l-0.38,3.51L344.64,393.71L344.64,393.71z M347.53,400.01l-2.9-2
		l0.38-3.51l3.33-1.75l2.87,2.43l-0.38,3.5L347.53,400.01L347.53,400.01z M347.86,400.8l3.3-1.33l2.9,2l-0.38,3.51l-3.26,1.71
		l-2.93-2.47L347.86,400.8L347.86,400.8z M351.68,398.79l0.38-3.52l3.31-1.74l2.87,2.42l-0.38,3.52l-3.28,1.33L351.68,398.79
		L351.68,398.79z M351.7,394.48l-2.89-2.44l0.38-3.49l3.3-1.33l2.9,2l-0.38,3.52L351.7,394.48L351.7,394.48z M358.73,399.53
		l0.38-3.5l3.3-1.74l2.87,2.43l-0.38,3.51l-3.26,1.32L358.73,399.53L358.73,399.53z M358.74,395.25l-2.87-2.43l0.38-3.51l3.29-1.33
		l2.89,1.99l-0.39,3.53L358.74,395.25L358.74,395.25z M358.24,400.25l2.93,2.02l-0.38,3.49l-3.31,1.74l-2.89-2.44l0.38-3.49
		L358.24,400.25L358.24,400.25z M365.76,400.29l0.38-3.49l3.31-1.74l2.89,2.44l-0.38,3.49l-3.27,1.32L365.76,400.29L365.76,400.29z
		 M365.77,396.02l-2.87-2.42l0.38-3.52l3.28-1.33l2.9,2l-0.38,3.52L365.77,396.02L365.77,396.02z M365.28,401.02l2.92,2.02
		l-0.38,3.5l-3.3,1.74l-2.87-2.43l0.38-3.51L365.28,401.02L365.28,401.02z M327.72,385.38l-2.91-2.01l0.38-3.48l3.35-1.76l2.85,2.41
		l-0.38,3.52L327.72,385.38L327.72,385.38z M331.86,384.15l0.38-3.5l3.33-1.75l2.85,2.4l-0.38,3.53l-3.28,1.33L331.86,384.15
		L331.86,384.15z M328.21,377.32l-3.19,1.68l-2.97-2.51l0.36-3.34l3.29-1.33l2.89,1.99L328.21,377.32L328.21,377.32z M338.89,384.92
		l0.38-3.51l3.33-1.75l2.85,2.41l-0.38,3.52l-3.29,1.33L338.89,384.92L338.89,384.92z M335.25,378.09l-3.33,1.75l-2.85-2.4
		l0.38-3.53l3.28-1.33l2.9,2L335.25,378.09L335.25,378.09z M345.93,385.69l0.38-3.48l3.35-1.76l2.86,2.41l-0.38,3.5l-3.3,1.33
		L345.93,385.69L345.93,385.69z M342.3,378.85l-3.35,1.76l-2.85-2.41l0.38-3.52l3.29-1.33l2.91,2.01L342.3,378.85L342.3,378.85z
		 M349.35,379.62l-3.35,1.76l-2.86-2.41l0.38-3.5l3.3-1.33l2.9,2L349.35,379.62L349.35,379.62z M355.89,388.46l-2.91-2.01l0.38-3.48
		l3.35-1.76l2.85,2.41l-0.38,3.52L355.89,388.46L355.89,388.46z M360.02,387.23l0.38-3.5l3.33-1.75l2.85,2.4l-0.38,3.53l-3.28,1.33
		L360.02,387.23L360.02,387.23z M356.38,380.4l-3.33,1.75l-2.85-2.41l0.38-3.52l3.29-1.33l2.89,1.99L356.38,380.4L356.38,380.4z
		 M367.06,388.01l0.38-3.51l3.33-1.75l2.85,2.41l-0.38,3.52l-3.29,1.33L367.06,388.01L367.06,388.01z M363.42,381.18l-3.33,1.75
		l-2.85-2.4l0.38-3.53l3.28-1.33l2.9,2L363.42,381.18L363.42,381.18z M370.47,381.93l-3.35,1.76l-2.85-2.41l0.38-3.52l3.29-1.33
		l2.91,2.01L370.47,381.93L370.47,381.93z M372.14,366.11l-0.38,3.52l-3.31,1.74l-2.87-2.42l0.38-3.52l3.29-1.33L372.14,366.11
		L372.14,366.11z M368.95,363.32l-3.31,1.34l-2.89-2l0.38-3.52l3.31-1.74l2.89,2.44L368.95,363.32L368.95,363.32z M365.1,365.34
		l-0.39,3.53l-3.3,1.74l-2.87-2.43l0.38-3.51l3.29-1.33L365.1,365.34L365.1,365.34z M365.08,369.65l2.87,2.43l-0.38,3.51l-3.29,1.33
		l-2.89-1.99l0.38-3.53L365.08,369.65L365.08,369.65z M361.9,362.56l-3.29,1.33l-2.89-1.99l0.39-3.53l3.3-1.74l2.87,2.43
		L361.9,362.56L361.9,362.56z M358.07,364.57l-0.38,3.52l-3.31,1.74l-2.89-2.44l0.38-3.49l3.31-1.34L358.07,364.57L358.07,364.57z
		 M358.05,368.88l2.87,2.42l-0.38,3.52l-3.28,1.33l-2.9-2l0.38-3.52L358.05,368.88L358.05,368.88z M354.86,361.79l-3.29,1.33
		l-2.89-2l0.38-3.52l3.31-1.74l2.87,2.42L354.86,361.79L354.86,361.79z M351.01,368.11l2.87,2.43l-0.38,3.51l-3.29,1.33l-2.91-2.01
		l0.38-3.51L351.01,368.11L351.01,368.11z M348.12,361.81l2.9,2l-0.38,3.51l-3.33,1.75l-2.87-2.43l0.38-3.49L348.12,361.81
		L348.12,361.81z M347.83,361l-3.31,1.34l-2.9-2l0.38-3.51l3.33-1.75l2.87,2.43L347.83,361L347.83,361z M343.97,363.03l-0.38,3.52
		l-3.31,1.74l-2.87-2.42l0.38-3.51l3.29-1.33L343.97,363.03L343.97,363.03z M343.95,367.34l2.89,2.44l-0.38,3.49l-3.3,1.33l-2.9-2
		l0.38-3.52L343.95,367.34L343.95,367.34z M340.79,360.24l-3.31,1.34l-2.89-2l0.38-3.52l3.31-1.74l2.89,2.44L340.79,360.24
		L340.79,360.24z M336.93,362.25l-0.38,3.53l-3.3,1.74l-2.87-2.43l0.38-3.51l3.3-1.33L336.93,362.25L336.93,362.25z M336.91,366.57
		l2.87,2.43l-0.38,3.51l-3.29,1.33l-2.89-1.99l0.39-3.53L336.91,366.57L336.91,366.57z M333.73,359.48l-3.29,1.33l-2.89-1.99
		l0.39-3.53l3.3-1.74l2.87,2.43L333.73,359.48L333.73,359.48z M329.9,361.49l-0.38,3.52l-3.31,1.74l-2.88-2.43l0.38-3.49l3.31-1.34
		L329.9,361.49L329.9,361.49z M329.88,365.8l2.87,2.42l-0.38,3.52l-3.28,1.33l-2.9-2l0.38-3.52L329.88,365.8L329.88,365.8z
		 M326.69,358.71l-3.29,1.33l-2.89-2l0.38-3.52l3.31-1.74l2.87,2.42L326.69,358.71L326.69,358.71z M327.57,354.5l-2.87-2.43
		l0.38-3.51l3.29-1.33l2.89,1.99l-0.39,3.53L327.57,354.5L327.57,354.5z M334.6,355.27l-2.87-2.42l0.38-3.52l3.28-1.33l2.9,2
		l-0.38,3.52L334.6,355.27L334.6,355.27z M341.64,356.04l-2.87-2.43l0.38-3.51l3.29-1.33l2.91,2.01l-0.38,3.51L341.64,356.04
		L341.64,356.04z M348.7,356.82l-2.89-2.44l0.38-3.49l3.3-1.33l2.9,2l-0.38,3.52L348.7,356.82L348.7,356.82z M355.74,357.59
		l-2.87-2.43l0.38-3.51l3.29-1.33l2.89,1.99l-0.39,3.53L355.74,357.59L355.74,357.59z M362.77,358.36l-2.87-2.42l0.38-3.52
		l3.28-1.33l2.9,2l-0.38,3.52L362.77,358.36L362.77,358.36z M324.71,347.71l-2.87-1.98v-0.02l0.38-3.53l3.3-1.74l2.85,2.41
		l-0.38,3.52L324.71,347.71L324.71,347.71z M328.85,346.48l0.38-3.5l3.33-1.75l2.85,2.4l-0.38,3.53l-3.28,1.33L328.85,346.48
		L328.85,346.48z M325.2,339.66l-3.15,1.66l-3.01-2.54l0.36-3.29l3.29-1.33l2.89,1.99L325.2,339.66L325.2,339.66z M335.89,347.26
		l0.38-3.51l3.33-1.75l2.85,2.41l-0.38,3.52l-3.29,1.33L335.89,347.26L335.89,347.26z M332.24,340.43l-3.33,1.75l-2.85-2.4
		l0.38-3.53l3.28-1.33l2.9,2L332.24,340.43L332.24,340.43z M342.92,348.02l0.38-3.48l3.35-1.76l2.86,2.41l-0.38,3.5l-3.3,1.33
		L342.92,348.02L342.92,348.02z M339.3,341.18l-3.35,1.76l-2.85-2.41l0.38-3.52l3.29-1.33l2.91,2.01L339.3,341.18L339.3,341.18z
		 M346.34,341.95l-3.35,1.76l-2.86-2.41l0.38-3.5l3.3-1.33l2.9,2L346.34,341.95L346.34,341.95z M352.88,350.79l-2.91-2.01l0.38-3.48
		l3.35-1.76l2.85,2.41l-0.38,3.52L352.88,350.79L352.88,350.79z M357.02,349.56l0.38-3.5l3.33-1.75l2.85,2.4l-0.38,3.53l-3.28,1.33
		L357.02,349.56L357.02,349.56z M353.37,342.74l-3.33,1.75l-2.85-2.41l0.38-3.52l3.29-1.33l2.89,1.99L353.37,342.74L353.37,342.74z
		 M364.06,350.34l0.38-3.51l3.33-1.75l2.85,2.41l-0.38,3.52l-3.29,1.33L364.06,350.34L364.06,350.34z M360.41,343.51l-3.33,1.75
		l-2.85-2.41l0.38-3.53l3.28-1.33l2.9,2L360.41,343.51L360.41,343.51z M367.47,344.26l-3.35,1.76l-2.85-2.41l0.38-3.52l3.29-1.33
		l2.91,2.01l-0.27,2.48L367.47,344.26L367.47,344.26z M369.13,328.46l-0.38,3.51l-3.31,1.74l-2.87-2.42l0.38-3.52l3.27-1.32
		L369.13,328.46L369.13,328.46z M362.09,327.69l-0.38,3.52l-3.3,1.74l-2.87-2.43l0.38-3.51l3.28-1.32L362.09,327.69L362.09,327.69z
		 M362.08,331.98l2.87,2.43l-0.38,3.51l-3.29,1.33l-2.89-1.99l0.39-3.53L362.08,331.98L362.08,331.98z M362.61,327l-2.91-2
		l0.38-3.52l3.3-1.74l2.87,2.43l-0.38,3.51L362.61,327L362.61,327z M355.06,326.92l-0.38,3.51l-3.31,1.74l-2.89-2.44l0.38-3.49l0,0
		l3.29-1.33L355.06,326.92L355.06,326.92z M355.04,331.21l2.87,2.42l-0.38,3.52l-3.28,1.33l-2.9-2l0.38-3.52L355.04,331.21
		L355.04,331.21z M355.57,326.24l-2.91-2.01l0.38-3.51l3.31-1.74l2.87,2.42l-0.38,3.52l0,0L355.57,326.24L355.57,326.24z
		 M348.01,330.44l2.87,2.43l-0.38,3.51l-3.29,1.33l-2.91-2.01l0.38-3.51L348.01,330.44L348.01,330.44z M348.02,326.14l-0.38,3.51
		l-3.33,1.75l-2.87-2.43l0.38-3.51l3.29-1.33L348.02,326.14L348.02,326.14z M348.52,325.47l-2.91-2.01l0.38-3.51l3.33-1.75
		l2.87,2.43l-0.38,3.51l0,0L348.52,325.47L348.52,325.47z M340.96,325.38l-0.38,3.51l-3.31,1.74l-2.86-2.42l0.38-3.52l0.84-0.34
		l2.43-0.98L340.96,325.38L340.96,325.38z M340.95,329.67l2.89,2.44l-0.38,3.49l-3.3,1.33l-2.9-2l0.38-3.52L340.95,329.67
		L340.95,329.67z M341.47,324.69l-2.91-2.01l0.38-3.51l3.31-1.74l2.89,2.44l-0.38,3.49l0,0L341.47,324.69L341.47,324.69z
		 M333.92,324.61l-0.38,3.52l-3.3,1.74l-2.87-2.43l0.38-3.51l3.28-1.32L333.92,324.61L333.92,324.61z M333.91,328.9l2.87,2.43
		l-0.38,3.51l-3.29,1.33l-2.89-1.99l0.39-3.53L333.91,328.9L333.91,328.9z M334.44,323.92l-2.91-2l0.38-3.52l3.3-1.74l2.87,2.43
		l-0.38,3.51L334.44,323.92L334.44,323.92z M326.89,323.84l-0.38,3.51l-3.31,1.74l-2.88-2.43l0.38-3.5l3.29-1.33L326.89,323.84
		L326.89,323.84z M326.88,328.13l2.87,2.42l-0.38,3.52l-3.28,1.33l-2.9-2l0.38-3.52L326.88,328.13L326.88,328.13z M327.4,323.15
		l-2.91-2.01l0.38-3.51l3.31-1.74l2.87,2.42l-0.38,3.52l0,0L327.4,323.15L327.4,323.15z M320.35,322.39l-2.91-2.01l0.38-3.51
		l3.33-1.75l2.87,2.43l-0.38,3.51L320.35,322.39L320.35,322.39z M324.51,316.85l-2.88-2.43v-0.04l0.36-3.35l3.41-1.38l2.81,1.93
		l-0.38,3.52L324.51,316.85L324.51,316.85z M331.55,317.62l-2.87-2.43l0.38-3.51l3.29-1.33l2.89,1.99l-0.39,3.53L331.55,317.62
		L331.55,317.62z M338.58,318.39l-2.87-2.42l0.38-3.52l3.28-1.33l2.9,2l-0.38,3.52L338.58,318.39L338.58,318.39z M345.62,319.16
		l-2.87-2.43l0.38-3.51l3.29-1.33l2.91,2.01l-0.38,3.51L345.62,319.16L345.62,319.16z M352.68,319.93l-2.89-2.44l0.38-3.49l3.3-1.33
		l2.9,2l-0.38,3.52L352.68,319.93L352.68,319.93z M359.72,320.71l-2.87-2.43l0.38-3.51l3.29-1.33l2.89,1.99l-0.39,3.53
		L359.72,320.71L359.72,320.71z M324.93,308.83l-3,1.21l-0.05-0.03l-3.12-2.15l0.34-3.11l3.32-1.75l2.89,2.44L324.93,308.83
		L324.93,308.83z M328.69,310.83l-2.91-2.01l0.38-3.48l3.35-1.77l2.85,2.41l-0.38,3.52L328.69,310.83L328.69,310.83z M332.83,309.6
		l0.38-3.5l3.33-1.75l2.85,2.4l-0.38,3.53l-3.28,1.33L332.83,309.6L332.83,309.6z M329.18,302.77l-3.33,1.75l-2.85-2.41l0.38-3.52
		l3.29-1.33l2.89,1.99L329.18,302.77L329.18,302.77z M339.87,310.38l0.38-3.51l3.33-1.75l2.85,2.41l-0.38,3.52l-3.29,1.33
		L339.87,310.38L339.87,310.38z M336.22,303.54l-3.33,1.75l-2.85-2.4l0.38-3.53l3.28-1.33l2.9,2L336.22,303.54L336.22,303.54z
		 M346.9,311.14l0.38-3.48l3.35-1.76l2.86,2.41l-0.38,3.5l-3.3,1.33L346.9,311.14L346.9,311.14z M343.28,304.3l-3.35,1.76
		l-2.85-2.41l0.38-3.52l3.29-1.33l2.91,2.01L343.28,304.3L343.28,304.3z M350.32,305.07l-3.35,1.76l-2.86-2.41l0.38-3.5l3.3-1.33
		l2.9,2L350.32,305.07L350.32,305.07z M356.86,313.91l-2.91-2.01l0.38-3.48l3.35-1.76l2.85,2.41l-0.38,3.52L356.86,313.91
		L356.86,313.91z M361,312.68l0.38-3.5l3.33-1.75l2.85,2.4l-0.38,3.53l-3.28,1.33L361,312.68L361,312.68z M357.35,305.86l-3.33,1.75
		l-2.85-2.41l0.38-3.52l3.29-1.33l2.89,1.99L357.35,305.86L357.35,305.86z M364.39,306.63l-3.33,1.75l-2.85-2.4l0.38-3.53l3.28-1.33
		l2.9,2L364.39,306.63L364.39,306.63z M359.04,290.03l-0.38,3.52l-3.31,1.74l-2.89-2.44l0.38-3.49l3.31-1.34L359.04,290.03
		L359.04,290.03z M359.03,294.33l2.87,2.42l-0.38,3.52l-3.28,1.33l-2.9-2l0.38-3.52L359.03,294.33L359.03,294.33z M351.99,293.56
		l2.87,2.43l-0.38,3.51l-3.29,1.33l-2.91-2.01l0.38-3.51L351.99,293.56L351.99,293.56z M349.1,287.26l2.9,2l-0.38,3.51l-3.33,1.75
		l-2.87-2.43l0.38-3.49L349.1,287.26L349.1,287.26z M344.95,288.48l-0.38,3.52l-3.31,1.74l-2.86-2.42l0.38-3.51l3.29-1.33
		L344.95,288.48L344.95,288.48z M344.93,292.79l2.89,2.44l-0.38,3.49l-3.3,1.33l-2.9-2l0.38-3.52L344.93,292.79L344.93,292.79z
		 M337.91,287.71l-0.39,3.53l-3.3,1.74l-2.87-2.43l0.38-3.51l3.29-1.33L337.91,287.71L337.91,287.71z M337.89,292.02l2.87,2.43
		l-0.38,3.51l-3.29,1.33l-2.89-1.99l0.39-3.53L337.89,292.02L337.89,292.02z M334.71,284.93l-3.29,1.33l-2.89-1.99l0.39-3.53
		l3.31-1.74l2.87,2.42L334.71,284.93L334.71,284.93z M330.88,286.94l-0.38,3.52l-3.31,1.74l-2.83-2.39l0.38-3.55l3.25-1.31
		L330.88,286.94L330.88,286.94z M330.86,291.25l2.87,2.42l-0.38,3.52l-3.28,1.33l-2.9-2l0.38-3.52L330.86,291.25L330.86,291.25z
		 M323.84,286.14l-0.39,3.57l-3.18,1.67l-0.84-0.58l-2.12-1.79l0.38-3.53l3.28-1.33l0,0L323.84,286.14L323.84,286.14z
		 M323.82,290.48l2.87,2.43l-0.38,3.51l-3.29,1.33l-2.91-2.01l0.38-3.51L323.82,290.48L323.82,290.48z M322.53,298.5l-0.38,3.52
		l-3.32,1.75l-2.88-2.43l0.36-3.33l1.38-0.72l1.95-0.79L322.53,298.5L322.53,298.5z M314.44,282.71l0.38-3.5l3.33-1.75l2.87,2.42
		l-0.38,3.52l-3.29,1.33L314.44,282.71L314.44,282.71z M375.24,403.78l-0.38,3.52l-3.31,1.74l-2.86-2.42l0.38-3.52l3.28-1.33
		L375.24,403.78L375.24,403.78z M368.19,407.31l2.87,2.43l-0.38,3.51l-3.29,1.33l-2.89-1.99l0.39-3.53L368.19,407.31L368.19,407.31z
		 M361.16,406.54l2.87,2.42l-0.38,3.52l-3.28,1.33l-2.9-2l0.38-3.52L361.16,406.54L361.16,406.54z M354.12,405.77l2.87,2.43
		l-0.38,3.51l-3.29,1.33l-2.85-1.97l0.39-3.58L354.12,405.77L354.12,405.77z M349.94,407.49l-0.38,3.48l-3.24,1.31l-2.89-1.99
		l0.39-3.53l3.23-1.7L349.94,407.49L349.94,407.49z M371.04,414.1l2.91,2.01l-0.38,3.48l-3.35,1.76l-2.85-2.41l0.38-3.52
		L371.04,414.1L371.04,414.1z M366.9,415.33l-0.38,3.5l-3.33,1.75l-2.85-2.4l0.38-3.53l3.28-1.33L366.9,415.33L366.9,415.33z
		 M359.86,414.56l-0.38,3.51l-3.33,1.75l-2.85-2.41l0.38-3.52l3.29-1.33L359.86,414.56L359.86,414.56z M352.83,413.79l-0.38,3.48
		l-3.35,1.76l-2.85-2.4l0.38-3.51l3.3-1.33L352.83,413.79L352.83,413.79z M356.45,420.64l3.35-1.76l2.85,2.41l-0.38,3.52l-3.29,1.33
		l-2.91-2.01L356.45,420.64L356.45,420.64z M345.79,413.03l-0.38,3.49l-3.35,1.76l-2.84-2.4l0.38-3.53l3.28-1.33L345.79,413.03
		L345.79,413.03z M349.42,419.86l3.34-1.76l2.86,2.41l-0.38,3.5l-3.3,1.33l-2.89-1.99L349.42,419.86L349.42,419.86z M354.81,432.15
		l-2.89-2.44l0.38-3.49l3.3-1.33l2.9,2l-0.38,3.52L354.81,432.15L354.81,432.15z M347.27,432.12l-0.37,3.43l-3.32,1.34l-2.86-1.97
		l0.39-3.53l3.26-1.71L347.27,432.12L347.27,432.12z M347.01,400.68l-0.39,3.53l-3.23,1.7l-2.94-2.48l0.37-3.42l3.29-1.33
		L347.01,400.68L347.01,400.68z M339.98,399.92l-0.38,3.52l-3.24,1.71l-2.95-2.49l0.37-3.41l3.3-1.33L339.98,399.92L339.98,399.92z
		 M340.02,404.28l2.93,2.47l-0.37,3.43l-3.28,1.33l-2.9-2l0.38-3.52L340.02,404.28L340.02,404.28z M332.98,403.51l2.94,2.48
		l-0.37,3.42l-3.29,1.33l-2.77-1.91l0.4-3.69L332.98,403.51L332.98,403.51z M338.75,412.25l-0.38,3.5l-3.34,1.75l-2.85-2.4
		l0.38-3.51l3.29-1.33L338.75,412.25L338.75,412.25z M342.38,419.09l3.34-1.76l2.84,2.4l-0.38,3.53l-3.28,1.33l-2.9-2L342.38,419.09
		L342.38,419.09z M331.72,411.48l-0.39,3.52l-3.33,1.75l-2.87-2.43l0.38-3.5l3.3-1.33L331.72,411.48L331.72,411.48z M331.68,415.78
		l2.82,2.38l-0.39,3.58l-3.24,1.31l-2.9-2l0.38-3.51L331.68,415.78L331.68,415.78z M335.39,418.29l3.29-1.73l2.85,2.4l-0.38,3.52
		l-3.29,1.33l-2.85-1.97L335.39,418.29L335.39,418.29z M348.49,424.1l2.91,2.01l-0.38,3.51l-3.29,1.73l-2.9-2.45l0.37-3.47
		L348.49,424.1L348.49,424.1z M344.35,425.33l-0.39,3.53l-3.26,1.72l-2.87-2.43l0.38-3.51l3.25-1.31L344.35,425.33L344.35,425.33z
		 M337.32,424.56l-0.38,3.52l-3.27,1.72l-2.87-2.42l0.38-3.51l3.25-1.31L337.32,424.56L337.32,424.56z M337.34,428.9l2.9,2.45
		l-0.37,3.43l-3.32,1.34l-2.87-1.98l0.38-3.52L337.34,428.9L337.34,428.9z M335.98,436.83l-0.4,3.63l-3.12,1.64l-2.76-2.33
		l0.37-3.42l3.29-1.33L335.98,436.83L335.98,436.83z M316.01,160.9l-0.38,3.52l-3.24,1.71l-2.95-2.49l0.37-3.41l3.3-1.33
		L316.01,160.9L316.01,160.9z M316.06,165.26l2.93,2.47l-0.37,3.43l-3.28,1.33l-2.9-2l0.38-3.52L316.06,165.26L316.06,165.26z
		 M309.02,164.49l2.94,2.48l-0.37,3.42l-3.29,1.33l-2.91-2.01l0.38-3.51L309.02,164.49L309.02,164.49z M311.32,179.7l0.21-0.11
		l3.45-1.81l2.58,2.18l-0.37,3.43l-3.06,1.23l-3.11-2.15L311.32,179.7L311.32,179.7z M307.43,184.69l3.04-1.23l3.11,2.15l-0.33,3.01
		l-3.45,1.81l-2.75-2.32L307.43,184.69L307.43,184.69z M316.11,196.56l2.91,2.01l-0.37,3.41l-3.01,1.59l-3.01-2.54l-0.13-0.11
		l0.33-3.03L316.11,196.56L316.11,196.56z M311.93,202.09l3.04,2.57l0.06,0.05l-0.33,3.08l-3.24,1.31l-2.85-1.97l0.38-3.49
		L311.93,202.09L311.93,202.09z M320.63,217.61l-0.13,1.24l-0.22,1.99l-3.3,1.33l-2.89-2l0.36-3.27l3.31-1.74L320.63,217.61
		L320.63,217.61z M310.25,222.45l3.29-1.33l2.89,2l-0.36,3.27l-3.23,1.7l-2.89-2.44l-0.05-0.04L310.25,222.45z"/>
	
		<path fill-rule="evenodd" clip-rule="evenodd" fill="#00914C" stroke="#DCDDDD" stroke-width="0.2" stroke-miterlimit="22.9256" d="
		M189.25,31.43c47.21,1.1,89.71-2.15,129.86-7.61v0.02l-3.5-23.55c-35.44,6-77.77,8.81-126.36,8.74
		C140.66,9.11,98.34,6.29,62.89,0.3l-3.5,23.55l0.01-0.02C99.53,29.29,142.04,32.54,189.25,31.43z"/>
	<path fill-rule="evenodd" clip-rule="evenodd" fill="#FFFFFF" d="M76.62,2.43c2.13,8.18,3.64,16.46,4.3,24.16l-21.53-2.72
		l0.01-0.03l3.38-22.75l0.12-0.78L76.62,2.43z"/>
	<path fill="none" stroke="#DCDDDD" stroke-width="0.2" stroke-miterlimit="22.9256" d="M59.43,23.8
		c40.13,5.46,82.65,8.71,129.86,7.61c47.21,1.1,89.68-2.13,129.81-7.59l0.04-0.01"/>
	<path fill-rule="evenodd" clip-rule="evenodd" fill="#666666" d="M76.81,3.16c0.35,1.36,0.68,2.72,0.99,4.08l0.02,0.2l0.03,0.01
		c0.08,0.36,0.16,0.73,0.25,1.09l-0.63-0.26l-2.91,2.01l0.16,1.5l0.22,1.98l3.35,1.76l1.04-0.88c0.06,0.33,0.12,0.66,0.17,0.99
		l-0.69,0.58l0.38,3.52l1.02,0.41c0.05,0.37,0.1,0.74,0.15,1.1l-1.61-0.65l-2.89,1.99l0.37,3.38l-0.88-0.11l-0.34-3.17l-3.28-1.33
		l-2.83,1.95l0.19,1.75l-0.94-0.12l-0.16-1.52l-3.22-1.3l-2.9,2v0.03l-1.51-0.19l-0.9-0.36l0.14-0.94l1.77,0.72l2.91-2.01
		l-0.23-2.17l-0.14-1.31l-3.34-1.76l0.23-1.57l0.08,0.76l3.33,1.75l2.85-2.41l-0.38-3.52l-3.29-1.33l-2.1,1.45l0.18-1.21l1.44-0.99
		l-0.38-3.52l-0.35-0.19l0.13-0.91l0.59,0.31l2.89-2.44l-0.17-1.62l0.86,0.13l0.15,1.4L69.91,4l2.61-2.2l2.41,0.37L76.81,3.16
		L76.81,3.16z M66.22,3.04l-2.87,2.43l0.38,3.51l3.29,1.33l2.91-2.01l-0.16-1.47l-0.22-2.04L66.22,3.04L66.22,3.04z M70.39,4.71
		l0.22,2.06l0.16,1.44l3.3,1.33l2.89-1.99l-0.39-3.53l-3.3-1.74L70.39,4.71L70.39,4.71z M67.5,11.06l0.38,3.49l3.35,1.76l2.86-2.41
		l-0.21-1.97l-0.17-1.53l-3.3-1.33L67.5,11.06L67.5,11.06z M70.91,17.13l-3.34-1.75l-2.86,2.41l0.15,1.41l0.23,2.09l3.3,1.33
		l2.89-1.99L70.91,17.13L70.91,17.13z M77.95,16.35l-3.33-1.75L71.77,17l0.38,3.53l3.28,1.33l2.9-2L77.95,16.35z"/>
	<path fill-rule="evenodd" clip-rule="evenodd" fill="#FFFFFF" d="M301.87,2.43c-2.13,8.18-3.64,16.46-4.3,24.16l21.53-2.72
		l-0.01-0.03l-3.38-22.75l-0.12-0.78L301.87,2.43z"/>
	<path fill-rule="evenodd" clip-rule="evenodd" fill="#666666" d="M301.68,3.16c-0.35,1.36-0.68,2.72-0.99,4.08l-0.02,0.2
		l-0.03,0.01c-0.08,0.36-0.16,0.73-0.25,1.09l0.64-0.25l2.91,2.01l-0.16,1.5l-0.22,1.98l-3.35,1.76l-1.04-0.88
		c-0.06,0.33-0.12,0.66-0.17,0.99l0.69,0.58l-0.38,3.52l-1.02,0.41c-0.05,0.37-0.1,0.74-0.15,1.1l1.61-0.65l2.89,1.99l-0.37,3.38
		l0.88-0.11l0.34-3.17l3.28-1.33l2.83,1.95l-0.19,1.75l0.94-0.12l0.16-1.52l3.22-1.3l2.9,2v0.03l1.51-0.19l0.9-0.36l-0.14-0.94
		l-1.77,0.72l-2.91-2.01l0.23-2.17l0.14-1.31l3.34-1.76l-0.23-1.57l-0.08,0.76l-3.33,1.75l-2.85-2.41l0.38-3.52l3.29-1.33l2.1,1.45
		l-0.18-1.21l-1.44-0.99l0.38-3.52l0.35-0.19l-0.13-0.91l-0.59,0.31l-2.89-2.44l0.17-1.62l-0.86,0.13l-0.15,1.4L308.57,4l-2.61-2.2
		l-2.41,0.37L301.68,3.16L301.68,3.16z M312.27,3.04l2.87,2.43l-0.38,3.51l-3.29,1.33l-2.91-2.01l0.16-1.47l0.22-2.04L312.27,3.04
		L312.27,3.04z M308.1,4.71l-0.22,2.06l-0.16,1.44l-3.3,1.33l-2.89-1.99l0.39-3.53l3.3-1.74L308.1,4.71L308.1,4.71z M310.98,11.06
		l-0.38,3.49l-3.35,1.76l-2.86-2.41l0.21-1.97l0.17-1.53l3.3-1.33L310.98,11.06L310.98,11.06z M307.58,17.13l3.34-1.75l2.86,2.41
		l-0.15,1.41l-0.23,2.09l-3.3,1.33l-2.89-1.99L307.58,17.13L307.58,17.13z M300.54,16.35l3.33-1.75l2.85,2.4l-0.38,3.53l-3.28,1.33
		l-2.9-2L300.54,16.35z"/>
	<g>
		<path fill-rule="evenodd" clip-rule="evenodd" fill="#DCDDDD" d="M63.52,24.06l3.16-21.59l1.21,0.17l-3.16,21.59L63.52,24.06
			L63.52,24.06L63.52,24.06L63.52,24.06z M67.38,24.36L67.38,24.36l1.21,0.17l3.14-21.59l-1.19-0.17L67.38,24.36L67.38,24.36
			L67.38,24.36L67.38,24.36z M71.25,24.95L71.25,24.95L74.01,3.3l1.21,0.15l-2.76,21.64L71.25,24.95L71.25,24.95L71.25,24.95
			L71.25,24.95z M74.99,25.27L74.99,25.27l1.21,0.15l2.77-21.64l-1.21-0.15L74.99,25.27L74.99,25.27L74.99,25.27L74.99,25.27z
			 M78.86,25.86L78.86,25.86l2.77-21.63l1.21,0.15L80.1,26.02L78.86,25.86L78.86,25.86L78.86,25.86L78.86,25.86z M82.73,26.17
			L82.73,26.17l1.21,0.15l2.77-21.64L85.5,4.53L82.73,26.17L82.73,26.17L82.73,26.17L82.73,26.17z M86.6,26.76L86.6,26.76
			l2.37-21.68l1.21,0.12L87.8,26.88L86.6,26.76L86.6,26.76L86.6,26.76L86.6,26.76z M90.46,27.07L90.46,27.07l2.37-21.69l1.2,0.12
			l-2.37,21.69L90.46,27.07L90.46,27.07L90.46,27.07L90.46,27.07z M94.2,27.37L94.2,27.37l2.37-21.68l1.21,0.12l-2.35,21.68
			L94.2,27.37L94.2,27.37L94.2,27.37L94.2,27.37z M98.08,27.67L98.08,27.67l2.37-21.69l1.21,0.12l-2.37,21.69L98.08,27.67
			L98.08,27.67L98.08,27.67L98.08,27.67z M101.94,27.97L101.94,27.97l1.97-21.72l1.21,0.1l-1.97,21.72L101.94,27.97L101.94,27.97
			L101.94,27.97L101.94,27.97z M105.81,28.26L105.81,28.26l1.97-21.72l1.21,0.1l-1.97,21.72L105.81,28.26L105.81,28.26L105.81,28.26
			L105.81,28.26z M109.68,28.56L109.68,28.56l1.97-21.72l1.21,0.1l-1.97,21.72L109.68,28.56L109.68,28.56L109.68,28.56L109.68,28.56
			z M113.55,28.86L113.55,28.86l1.97-21.72l1.21,0.1l-1.97,21.72L113.55,28.86L113.55,28.86L113.55,28.86L113.55,28.86z
			 M117.42,29.18L117.42,29.18l1.97-21.72l1.21,0.1l-1.97,21.72L117.42,29.18L117.42,29.18L117.42,29.18L117.42,29.18z
			 M121.28,29.46L121.28,29.46l1.58-21.75l1.21,0.08l-1.58,21.75L121.28,29.46L121.28,29.46L121.28,29.46L121.28,29.46z
			 M125.15,29.77L125.15,29.77l1.58-21.76l1.21,0.09l-1.57,21.75L125.15,29.77L125.15,29.77L125.15,29.77L125.15,29.77z
			 M129.02,29.77L129.02,29.77l1.58-21.76l1.21,0.08l-1.58,21.75L129.02,29.77L129.02,29.77L129.02,29.77L129.02,29.77z
			 M132.89,30.05L132.89,30.05l1.18-21.78l1.22,0.07l-1.18,21.77L132.89,30.05L132.89,30.05L132.89,30.05L132.89,30.05z
			 M136.75,30.35L136.75,30.35l1.18-21.78l1.22,0.06l-1.18,21.78L136.75,30.35L136.75,30.35L136.75,30.35L136.75,30.35z
			 M140.64,30.35L140.64,30.35l1.18-21.78l1.21,0.06l-1.18,21.78L140.64,30.35L140.64,30.35L140.64,30.35L140.64,30.35z
			 M144.5,30.65L144.5,30.65l0.79-21.79l1.22,0.04l-0.79,21.79L144.5,30.65L144.5,30.65L144.5,30.65L144.5,30.65z M148.37,30.65
			L148.37,30.65l0.79-21.79l1.22,0.04l-0.79,21.79L148.37,30.65L148.37,30.65L148.37,30.65L148.37,30.65z M152.1,30.65L152.1,30.65
			l0.79-21.79l1.22,0.04l-0.79,21.79L152.1,30.65L152.1,30.65L152.1,30.65L152.1,30.65z M155.97,30.94L155.97,30.94l0.79-21.79
			l1.22,0.04l-0.79,21.79L155.97,30.94L155.97,30.94L155.97,30.94L155.97,30.94z M159.84,30.92L159.84,30.92l0.39-21.81l1.22,0.03
			l-0.39,21.8L159.84,30.92L159.84,30.92L159.84,30.92L159.84,30.92z M163.7,30.92L163.7,30.92l0.4-21.81l1.2,0.03l-0.39,21.8
			L163.7,30.92L163.7,30.92L163.7,30.92L163.7,30.92z M167.57,30.92L167.57,30.92l0.39-21.81l1.22,0.03l-0.39,21.8L167.57,30.92
			L167.57,30.92L167.57,30.92L167.57,30.92z M171.44,30.92L171.44,30.92l0.39-21.81l1.21,0.03l-0.39,21.8L171.44,30.92L171.44,30.92
			L171.44,30.92L171.44,30.92z M175.3,30.88L175.3,30.88l-0.39-21.8l1.22-0.02l0.39,21.8L175.3,30.88L175.3,30.88L175.3,30.88
			L175.3,30.88z M179.17,30.88L179.17,30.88l-0.39-21.8l1.21-0.02l0.39,21.8L179.17,30.88L179.17,30.88L179.17,30.88L179.17,30.88z
			 M183.04,30.88L183.04,30.88l-0.4-21.8l1.22-0.02l0.39,21.8L183.04,30.88L183.04,30.88L183.04,30.88L183.04,30.88z M186.91,30.86
			L186.91,30.86l0.03-21.79l1.21-0.04l-0.03,21.79L186.91,30.86z"/>
		<path fill-rule="evenodd" clip-rule="evenodd" fill="#DCDDDD" d="M315.88,24.06l-3.15-21.59l-1.21,0.17l3.16,21.59L315.88,24.06
			L315.88,24.06L315.88,24.06L315.88,24.06z M312.02,24.36L312.02,24.36l-1.21,0.17l-3.15-21.59l1.19-0.17L312.02,24.36
			L312.02,24.36L312.02,24.36L312.02,24.36z M308.15,24.95L308.15,24.95L305.39,3.3l-1.21,0.15l2.77,21.64L308.15,24.95
			L308.15,24.95L308.15,24.95L308.15,24.95z M304.41,25.27L304.41,25.27l-1.21,0.15l-2.77-21.64l1.21-0.15L304.41,25.27
			L304.41,25.27L304.41,25.27L304.41,25.27z M300.54,25.86L300.54,25.86l-2.77-21.64l-1.21,0.15l2.76,21.64L300.54,25.86
			L300.54,25.86L300.54,25.86L300.54,25.86z M296.68,26.17L296.68,26.17l-1.21,0.15L292.7,4.68l1.21-0.15L296.68,26.17L296.68,26.17
			L296.68,26.17L296.68,26.17z M292.8,26.76L292.8,26.76l-2.37-21.69l-1.21,0.12l2.37,21.68L292.8,26.76L292.8,26.76L292.8,26.76
			L292.8,26.76z M288.94,27.07L288.94,27.07l-2.37-21.69l-1.21,0.12l2.37,21.69L288.94,27.07L288.94,27.07L288.94,27.07
			L288.94,27.07z M285.2,27.37L285.2,27.37l-2.37-21.68l-1.21,0.12l2.37,21.69L285.2,27.37L285.2,27.37L285.2,27.37L285.2,27.37z
			 M281.33,27.67L281.33,27.67l-2.37-21.69l-1.21,0.12l2.37,21.68L281.33,27.67L281.33,27.67L281.33,27.67L281.33,27.67z
			 M277.46,27.97L277.46,27.97l-1.97-21.72l-1.21,0.1l1.97,21.72L277.46,27.97L277.46,27.97L277.46,27.97L277.46,27.97z
			 M273.6,28.26L273.6,28.26l-1.97-21.73l-1.21,0.1l1.97,21.72L273.6,28.26L273.6,28.26L273.6,28.26L273.6,28.26z M269.73,28.56
			L269.73,28.56l-1.97-21.72l-1.21,0.1l1.97,21.72L269.73,28.56L269.73,28.56L269.73,28.56L269.73,28.56z M265.85,28.86
			L265.85,28.86l-1.97-21.72l-1.21,0.1l1.97,21.72L265.85,28.86L265.85,28.86L265.85,28.86L265.85,28.86z M261.98,29.18
			L261.98,29.18l-1.97-21.72l-1.21,0.1l1.97,21.72L261.98,29.18L261.98,29.18L261.98,29.18L261.98,29.18z M258.12,29.46
			L258.12,29.46l-1.58-21.75l-1.21,0.08l1.58,21.75L258.12,29.46L258.12,29.46L258.12,29.46L258.12,29.46z M254.26,29.77
			L254.26,29.77l-1.58-21.76l-1.21,0.09l1.58,21.75L254.26,29.77L254.26,29.77L254.26,29.77L254.26,29.77z M250.38,29.77
			L250.38,29.77l-1.57-21.76L247.6,8.1l1.58,21.75L250.38,29.77L250.38,29.77L250.38,29.77L250.38,29.77z M246.51,30.05
			L246.51,30.05l-1.18-21.78l-1.22,0.07l1.18,21.77L246.51,30.05L246.51,30.05L246.51,30.05L246.51,30.05z M242.65,30.35
			L242.65,30.35l-1.18-21.78l-1.21,0.06l1.18,21.78L242.65,30.35L242.65,30.35L242.65,30.35L242.65,30.35z M238.77,30.35
			L238.77,30.35L237.6,8.57l-1.22,0.06l1.18,21.78L238.77,30.35L238.77,30.35L238.77,30.35L238.77,30.35z M234.9,30.65L234.9,30.65
			l-0.79-21.79L232.9,8.9l0.79,21.79L234.9,30.65L234.9,30.65L234.9,30.65L234.9,30.65z M231.04,30.65L231.04,30.65l-0.79-21.79
			l-1.21,0.04l0.79,21.79L231.04,30.65L231.04,30.65L231.04,30.65L231.04,30.65z M227.31,30.65L227.31,30.65l-0.79-21.8l-1.22,0.04
			l0.79,21.79L227.31,30.65L227.31,30.65L227.31,30.65L227.31,30.65z M223.43,30.94L223.43,30.94l-0.78-21.78l-1.22,0.04l0.8,21.8
			L223.43,30.94L223.43,30.94L223.43,30.94L223.43,30.94z M219.56,30.92L219.56,30.92l-0.39-21.78l-1.22,0.01l0.39,21.8
			L219.56,30.92L219.56,30.92L219.56,30.92L219.56,30.92z M215.69,30.92L215.69,30.92L215.3,9.11l-1.19,0.03l0.39,21.8L215.69,30.92
			L215.69,30.92L215.69,30.92L215.69,30.92z M211.84,30.92L211.84,30.92l-0.4-21.81l-1.22,0.03l0.39,21.8L211.84,30.92L211.84,30.92
			L211.84,30.92L211.84,30.92z M207.96,30.92L207.96,30.92l-0.39-21.78l-1.22,0.02l0.39,21.8L207.96,30.92L207.96,30.92
			L207.96,30.92L207.96,30.92z M204.11,30.88L204.11,30.88l0.39-21.8l-1.21-0.02l-0.4,21.8L204.11,30.88L204.11,30.88L204.11,30.88
			L204.11,30.88z M200.23,30.88L200.23,30.88l0.39-21.8l-1.21-0.02l-0.39,21.8L200.23,30.88L200.23,30.88L200.23,30.88L200.23,30.88
			z M196.36,30.88L196.36,30.88l0.4-21.8l-1.22-0.02l-0.39,21.8L196.36,30.88L196.36,30.88L196.36,30.88L196.36,30.88z
			 M192.48,30.86L192.48,30.86l-0.42-21.79l-1.22-0.04l0.42,21.79L192.48,30.86z"/>
	</g>
	
		<path fill-rule="evenodd" clip-rule="evenodd" fill="#FDFFFF" stroke="#DCDDDD" stroke-width="0.2" stroke-miterlimit="22.9256" d="
		M180.45,22.51c1.58,0.11,3.25,0.22,4.76,1.08c5.68,3.25,4.72,11.09,3.63,22.25c-7.62,13.96-24.24,38-14.44,71.52l4.67-1.64
		c-4.23-25.11,2.06-38.67,8.83-51.87c0.25,13.79,3.32,30.2,15.45,48.03l3.44-3.49c-14.21-28.72-11.35-46.31-10.2-65.91
		c0.28-5.11,0.61-12.16-0.18-16.48C195.46,19.5,184.76,11.98,180.45,22.51z"/>
</g>
</svg>
