<?xml version="1.0" encoding="utf-8"?>
<!-- Generator: Adobe Illustrator 23.0.0, SVG Export Plug-In . SVG Version: 6.00 Build 0)  -->
<svg version="1.1" id="图层_1" xmlns="http://www.w3.org/2000/svg" xmlns:xlink="http://www.w3.org/1999/xlink" x="0px" y="0px"
	 width="378.5px" height="456px" viewBox="0 0 378.5 456" enable-background="new 0 0 378.5 456" xml:space="preserve">
<g>
	
		<path fill-rule="evenodd" clip-rule="evenodd" fill="#FFFFFF" stroke="#DCDDDD" stroke-width="0.2" stroke-miterlimit="22.9256" d="
		M189.26,31.43c47.2,1.1,89.71-2.15,129.85-7.61v0.02l-3.5-23.55c-35.43,6-77.76,8.81-126.35,8.74C140.66,9.11,98.33,6.3,62.9,0.31
		l-3.5,23.55l0.01-0.02C99.54,29.29,142.05,32.54,189.26,31.43z"/>
	
		<path fill-rule="evenodd" clip-rule="evenodd" fill="#FEFEFE" stroke="#DCDDDD" stroke-width="0.2" stroke-miterlimit="22.9256" d="
		M189.26,31.43c47.2,1.1,89.71-2.15,129.85-7.61v0.02l1.97,8.28l0.17,0.69v0.01c26.94,82.67,42.27,225.19,56.03,375.73l0.93,10.17
		c-49.96,38.86-109.66,42.91-173.79,31.14l-15.17-80.5l-15.17,80.5c-64.12,11.78-123.82,7.73-173.78-31.13l0.93-10.17
		C14.98,258.01,30.3,115.51,57.26,32.84v-0.01l0.17-0.69l1.97-8.28l0.01-0.02C99.54,29.29,142.05,32.54,189.26,31.43z"/>
	<path fill-rule="evenodd" clip-rule="evenodd" fill="#990000" d="M183.11,401.93L34.78,128.01c-1.35,7.58-2.66,15.34-3.95,23.28
		l148,273.31L183.11,401.93z"/>
	
		<line fill="none" stroke="#DCDDDD" stroke-width="0.2" stroke-miterlimit="22.9256" x1="189.26" y1="369.38" x2="189.26" y2="40.95"/>
	<path fill="none" stroke="#DCDDDD" stroke-width="0.2" stroke-miterlimit="22.9256" d="M59.44,23.8
		c40.13,5.46,82.65,8.71,129.85,7.61c47.2,1.1,89.68-2.13,129.81-7.59l0.04-0.01"/>
	<g>
		<path fill-rule="evenodd" clip-rule="evenodd" fill="#DCDDDD" d="M63.52,24.06l3.16-21.59l1.21,0.17l-3.16,21.59L63.52,24.06
			L63.52,24.06L63.52,24.06z M67.39,24.36L67.39,24.36l1.21,0.17l3.14-21.59l-1.2-0.17L67.39,24.36L67.39,24.36L67.39,24.36z
			 M71.26,24.95L71.26,24.95l2.76-21.64l1.21,0.15L72.46,25.1L71.26,24.95L71.26,24.95L71.26,24.95z M75,25.26L75,25.26l1.21,0.15
			l2.77-21.64l-1.21-0.15L75,25.26L75,25.26L75,25.26z M78.87,25.87L78.87,25.87l2.77-21.64l1.21,0.15l-2.76,21.64L78.87,25.87
			L78.87,25.87L78.87,25.87z M82.74,26.17L82.74,26.17l1.21,0.15l2.77-21.64l-1.21-0.15L82.74,26.17L82.74,26.17L82.74,26.17z
			 M86.61,26.76L86.61,26.76l2.37-21.68l1.21,0.12l-2.37,21.68L86.61,26.76L86.61,26.76L86.61,26.76z M90.47,27.07L90.47,27.07
			l2.37-21.69l1.2,0.13L91.67,27.2L90.47,27.07L90.47,27.07L90.47,27.07z M94.21,27.37L94.21,27.37L96.57,5.7l1.21,0.12L95.41,27.5
			L94.21,27.37L94.21,27.37L94.21,27.37z M98.08,27.67L98.08,27.67l2.37-21.69l1.21,0.12l-2.38,21.7L98.08,27.67L98.08,27.67
			L98.08,27.67z M101.95,27.96L101.95,27.96l1.97-21.72l1.21,0.1l-1.97,21.72L101.95,27.96L101.95,27.96L101.95,27.96z
			 M105.82,28.27L105.82,28.27l1.97-21.72l1.21,0.1l-1.97,21.72L105.82,28.27L105.82,28.27L105.82,28.27z M109.68,28.57
			L109.68,28.57l1.97-21.72l1.21,0.1l-1.97,21.72L109.68,28.57L109.68,28.57L109.68,28.57z M113.55,28.87L113.55,28.87l1.97-21.72
			l1.21,0.1l-1.97,21.72L113.55,28.87L113.55,28.87L113.55,28.87z M117.42,29.18L117.42,29.18l1.97-21.72l1.21,0.1l-1.97,21.72
			L117.42,29.18L117.42,29.18L117.42,29.18z M121.28,29.46L121.28,29.46l1.58-21.74l1.21,0.08l-1.58,21.74L121.28,29.46
			L121.28,29.46L121.28,29.46z M125.16,29.77L125.16,29.77l1.58-21.76l1.21,0.09l-1.57,21.74L125.16,29.77L125.16,29.77
			L125.16,29.77z M129.04,29.77L129.04,29.77l1.58-21.76l1.21,0.08l-1.58,21.74L129.04,29.77L129.04,29.77L129.04,29.77z
			 M132.9,30.05L132.9,30.05l1.18-21.78l1.22,0.07l-1.18,21.77L132.9,30.05L132.9,30.05L132.9,30.05z M136.76,30.35L136.76,30.35
			l1.18-21.78l1.22,0.06l-1.18,21.78L136.76,30.35L136.76,30.35L136.76,30.35z M140.63,30.35L140.63,30.35l1.18-21.78l1.21,0.06
			l-1.18,21.78L140.63,30.35L140.63,30.35L140.63,30.35z M144.51,30.64L144.51,30.64l0.79-21.79l1.22,0.04l-0.79,21.79L144.51,30.64
			L144.51,30.64L144.51,30.64z M148.36,30.64L148.36,30.64l0.79-21.79l1.22,0.04l-0.79,21.79L148.36,30.64L148.36,30.64
			L148.36,30.64z M152.1,30.64L152.1,30.64l0.79-21.79l1.22,0.04l-0.79,21.79L152.1,30.64L152.1,30.64L152.1,30.64z M155.97,30.94
			L155.97,30.94l0.79-21.79l1.22,0.04l-0.79,21.79L155.97,30.94L155.97,30.94L155.97,30.94z M159.85,30.92L159.85,30.92l0.39-21.8
			l1.22,0.02l-0.39,21.8L159.85,30.92L159.85,30.92L159.85,30.92z M163.7,30.92L163.7,30.92l0.39-21.8l1.22,0.02l-0.39,21.8
			L163.7,30.92L163.7,30.92L163.7,30.92z M167.57,30.92L167.57,30.92l0.39-21.8l1.22,0.02l-0.39,21.8L167.57,30.92L167.57,30.92
			L167.57,30.92z M171.44,30.92L171.44,30.92l0.39-21.8l1.22,0.02l-0.39,21.8L171.44,30.92L171.44,30.92L171.44,30.92z M175.3,30.89
			L175.3,30.89l-0.39-21.8l1.22-0.02l0.39,21.8L175.3,30.89L175.3,30.89L175.3,30.89z M179.18,30.89L179.18,30.89l-0.39-21.8
			l1.21-0.02l0.39,21.8L179.18,30.89L179.18,30.89L179.18,30.89z M183.05,30.89L183.05,30.89l-0.4-21.8l1.22-0.02l0.39,21.8
			L183.05,30.89L183.05,30.89L183.05,30.89z M186.91,30.87L186.91,30.87l0.03-21.79l1.21-0.04l-0.03,21.79L186.91,30.87z"/>
		<path fill-rule="evenodd" clip-rule="evenodd" fill="#DCDDDD" d="M315.88,24.06l-3.15-21.59l-1.21,0.17l3.16,21.59L315.88,24.06
			L315.88,24.06L315.88,24.06z M312.02,24.36L312.02,24.36l-1.21,0.17l-3.15-21.59l1.19-0.17L312.02,24.36L312.02,24.36
			L312.02,24.36z M308.15,24.95L308.15,24.95l-2.76-21.64l-1.21,0.15l2.77,21.64L308.15,24.95L308.15,24.95L308.15,24.95z
			 M304.41,25.26L304.41,25.26l-1.21,0.15l-2.76-21.64l1.21-0.15L304.41,25.26L304.41,25.26L304.41,25.26z M300.54,25.87
			L300.54,25.87l-2.77-21.64l-1.21,0.15l2.76,21.64L300.54,25.87L300.54,25.87L300.54,25.87z M296.67,26.17L296.67,26.17l-1.21,0.15
			L292.7,4.68l1.21-0.15L296.67,26.17L296.67,26.17L296.67,26.17z M292.8,26.76L292.8,26.76l-2.37-21.69l-1.21,0.12l2.37,21.68
			L292.8,26.76L292.8,26.76L292.8,26.76z M288.94,27.07L288.94,27.07l-2.37-21.69l-1.21,0.12l2.37,21.69L288.94,27.07L288.94,27.07
			L288.94,27.07z M285.2,27.37L285.2,27.37L282.83,5.7l-1.21,0.12l2.37,21.69L285.2,27.37L285.2,27.37L285.2,27.37z M281.33,27.67
			L281.33,27.67l-2.37-21.69l-1.21,0.12l2.37,21.68L281.33,27.67L281.33,27.67L281.33,27.67z M277.46,27.96L277.46,27.96
			l-1.97-21.72l-1.21,0.1l1.97,21.72L277.46,27.96L277.46,27.96L277.46,27.96z M273.59,28.27L273.59,28.27l-1.97-21.72l-1.21,0.1
			l1.97,21.72L273.59,28.27L273.59,28.27L273.59,28.27z M269.72,28.57L269.72,28.57l-1.97-21.72l-1.21,0.1l1.97,21.72L269.72,28.57
			L269.72,28.57L269.72,28.57z M265.85,28.87L265.85,28.87l-1.97-21.72l-1.21,0.1l1.97,21.72L265.85,28.87L265.85,28.87
			L265.85,28.87z M261.98,29.18L261.98,29.18l-1.97-21.72l-1.21,0.1l1.97,21.72L261.98,29.18L261.98,29.18L261.98,29.18z
			 M258.12,29.46L258.12,29.46l-1.58-21.74l-1.21,0.08l1.58,21.74L258.12,29.46L258.12,29.46L258.12,29.46z M254.26,29.77
			L254.26,29.77l-1.58-21.76l-1.21,0.09l1.58,21.75L254.26,29.77L254.26,29.77L254.26,29.77z M250.38,29.77L250.38,29.77
			l-1.57-21.76L247.6,8.1l1.58,21.74L250.38,29.77L250.38,29.77L250.38,29.77z M246.51,30.05L246.51,30.05l-1.18-21.78l-1.22,0.07
			l1.18,21.77L246.51,30.05L246.51,30.05L246.51,30.05z M242.65,30.35L242.65,30.35l-1.18-21.78l-1.21,0.06l1.18,21.78L242.65,30.35
			L242.65,30.35L242.65,30.35z M238.79,30.35L238.79,30.35l-1.18-21.78l-1.22,0.06l1.18,21.78L238.79,30.35L238.79,30.35
			L238.79,30.35z M234.9,30.64L234.9,30.64l-0.79-21.79l-1.21,0.04l0.79,21.79L234.9,30.64L234.9,30.64L234.9,30.64z M231.04,30.64
			L231.04,30.64l-0.79-21.79l-1.21,0.04l0.79,21.79L231.04,30.64L231.04,30.64L231.04,30.64z M227.32,30.64L227.32,30.64
			l-0.79-21.79l-1.22,0.04l0.79,21.79L227.32,30.64L227.32,30.64L227.32,30.64z M223.43,30.94L223.43,30.94l-0.79-21.79l-1.22,0.04
			l0.79,21.79L223.43,30.94L223.43,30.94L223.43,30.94z M219.57,30.92L219.57,30.92l-0.39-21.79l-1.22,0.02l0.39,21.8L219.57,30.92
			L219.57,30.92L219.57,30.92z M215.69,30.92L215.69,30.92l-0.39-21.8l-1.21,0.02l0.39,21.8L215.69,30.92L215.69,30.92L215.69,30.92
			z M211.83,30.92L211.83,30.92l-0.39-21.8l-1.22,0.02l0.39,21.8L211.83,30.92L211.83,30.92L211.83,30.92z M207.96,30.92
			L207.96,30.92l-0.39-21.79l-1.22,0.02l0.39,21.8L207.96,30.92L207.96,30.92L207.96,30.92z M204.1,30.89L204.1,30.89l0.39-21.8
			l-1.21-0.02l-0.4,21.8L204.1,30.89L204.1,30.89L204.1,30.89z M200.23,30.89L200.23,30.89l0.39-21.8l-1.21-0.02l-0.39,21.8
			L200.23,30.89L200.23,30.89L200.23,30.89z M196.36,30.89L196.36,30.89l0.4-21.8l-1.22-0.02l-0.39,21.8L196.36,30.89L196.36,30.89
			L196.36,30.89z M192.49,30.87L192.49,30.87l-0.42-21.79l-1.22-0.04l0.42,21.79L192.49,30.87z"/>
	</g>
	
		<path fill-rule="evenodd" clip-rule="evenodd" fill="#FDFFFF" stroke="#DCDDDD" stroke-width="0.2" stroke-miterlimit="22.9256" d="
		M180.45,22.51c1.58,0.11,3.25,0.22,4.76,1.08c5.68,3.25,4.72,11.09,3.63,22.25c-7.62,13.96-24.24,38-14.44,71.51l4.67-1.64
		c-4.23-25.11,2.06-38.67,8.83-51.87c0.25,13.79,3.32,30.2,15.45,48.03l3.44-3.49c-14.21-28.72-11.35-46.31-10.2-65.9
		c0.28-5.11,0.61-12.16-0.18-16.48C195.47,19.51,184.77,11.98,180.45,22.51z"/>
	<path fill-rule="evenodd" clip-rule="evenodd" fill="#990000" d="M195.38,401.93L343.7,128.01c1.35,7.58,2.66,15.34,3.95,23.28
		L199.66,424.6L195.38,401.93z"/>
	<g>
		<path fill-rule="evenodd" clip-rule="evenodd" fill="#990000" d="M371.55,347.82l-54.89,101.37c-29.37,7.74-60.8,8.09-93.57,3.68
			l132.78-245.21C361.67,251.44,366.77,298.79,371.55,347.82z"/>
		<g>
			<g>
				<polygon fill-rule="evenodd" clip-rule="evenodd" fill="#F75D59" points="345.24,396.41 345.09,396.24 345.28,396.34 				"/>
				<polygon fill-rule="evenodd" clip-rule="evenodd" fill="#F75D59" points="351.73,384.43 346.07,378.46 352.97,382.14 				"/>
				<polygon fill-rule="evenodd" clip-rule="evenodd" fill="#F75D59" points="358.22,372.45 347.06,360.68 360.66,367.93 				"/>
				<path fill-rule="evenodd" clip-rule="evenodd" fill="#F75D59" d="M361.06,356.63c-4.34-4.57-8.68-9.15-13.02-13.72
					c4.34,2.31,8.68,4.62,13.02,6.93l10.16-5.41l0.13,1.35L361.06,356.63z"/>
				<path fill-rule="evenodd" clip-rule="evenodd" fill="#F75D59" d="M361.06,337.81c-4.01-4.23-8.02-8.46-12.03-12.69
					c4.01,2.14,8.02,4.27,12.03,6.41l8.44-4.49l0.17,1.7L361.06,337.81z"/>
				<path fill-rule="evenodd" clip-rule="evenodd" fill="#F75D59" d="M361.06,319c-3.68-3.88-7.36-7.76-11.05-11.65
					c3.68,1.96,7.36,3.92,11.05,5.88l6.67-3.55l0.21,2.06L361.06,319z"/>
				<path fill-rule="evenodd" clip-rule="evenodd" fill="#F75D59" d="M361.06,300.18c-3.35-3.54-6.71-7.07-10.06-10.61
					c3.35,1.79,6.71,3.57,10.06,5.36l4.84-2.58l0.26,2.45L361.06,300.18z"/>
				<path fill-rule="evenodd" clip-rule="evenodd" fill="#F75D59" d="M361.06,281.36c-3.03-3.19-6.05-6.38-9.08-9.57
					c3.03,1.61,6.05,3.22,9.08,4.83l2.96-1.57l0.32,2.86L361.06,281.36z"/>
				<path fill-rule="evenodd" clip-rule="evenodd" fill="#F75D59" d="M361.06,262.54c-2.7-2.84-5.39-5.69-8.09-8.53
					c2.7,1.44,5.39,2.87,8.09,4.31l1-0.53l0.38,3.3L361.06,262.54z"/>
				<polygon fill-rule="evenodd" clip-rule="evenodd" fill="#F75D59" points="360.32,242.94 353.95,236.24 359.89,239.4 				"/>
				<polygon fill-rule="evenodd" clip-rule="evenodd" fill="#F75D59" points="357.65,221.31 354.94,218.46 357.45,219.8 				"/>
			</g>
			<g>
				<path fill-rule="evenodd" clip-rule="evenodd" fill="#F75D59" d="M336.31,401.08c-5-5.27-9.99-10.53-14.99-15.8
					c5,2.66,9.99,5.32,14.99,7.98l14.94-7.96l-0.03,0.05L336.31,401.08z"/>
				<path fill-rule="evenodd" clip-rule="evenodd" fill="#F75D59" d="M336.31,382.27c-4.67-4.92-9.33-9.84-14-14.76
					c4.67,2.49,9.33,4.97,14,7.46c4.67-2.49,9.34-4.97,14-7.46C345.65,372.43,340.98,377.35,336.31,382.27z"/>
				<path fill-rule="evenodd" clip-rule="evenodd" fill="#F75D59" d="M336.31,363.45c-4.34-4.57-8.68-9.15-13.02-13.72
					c4.34,2.31,8.68,4.62,13.02,6.93c4.34-2.31,8.68-4.62,13.02-6.93C344.99,354.3,340.65,358.88,336.31,363.45z"/>
				<path fill-rule="evenodd" clip-rule="evenodd" fill="#F75D59" d="M336.31,344.63c-4.01-4.23-8.02-8.46-12.03-12.69
					c4.01,2.14,8.02,4.27,12.03,6.41c4.01-2.14,8.02-4.27,12.03-6.41C344.33,336.18,340.32,340.4,336.31,344.63z"/>
				<path fill-rule="evenodd" clip-rule="evenodd" fill="#F75D59" d="M336.31,325.82c-3.68-3.88-7.36-7.76-11.05-11.65
					c3.68,1.96,7.36,3.92,11.05,5.88c3.68-1.96,7.36-3.92,11.05-5.88C343.68,318.05,339.99,321.93,336.31,325.82z"/>
				<path fill-rule="evenodd" clip-rule="evenodd" fill="#F75D59" d="M336.31,307c-3.35-3.54-6.71-7.07-10.06-10.61
					c3.35,1.79,6.71,3.57,10.06,5.36c3.35-1.79,6.71-3.57,10.06-5.36C343.02,299.93,339.66,303.46,336.31,307z"/>
				<path fill-rule="evenodd" clip-rule="evenodd" fill="#F75D59" d="M336.31,288.18c-3.03-3.19-6.05-6.38-9.08-9.57
					c3.03,1.61,6.05,3.22,9.08,4.83c3.03-1.61,6.05-3.22,9.08-4.83C342.36,281.8,339.34,284.99,336.31,288.18z"/>
				<path fill-rule="evenodd" clip-rule="evenodd" fill="#F75D59" d="M336.31,269.36c-2.7-2.84-5.39-5.69-8.09-8.53
					c2.7,1.44,5.39,2.87,8.09,4.31c2.7-1.44,5.39-2.87,8.09-4.31C341.7,263.68,339.01,266.52,336.31,269.36z"/>
				<path fill-rule="evenodd" clip-rule="evenodd" fill="#F75D59" d="M336.31,250.55l-2.33-2.46l1.05-1.93l1.29,0.69
					c2.37-1.26,4.74-2.52,7.11-3.78C341.05,245.55,338.68,248.05,336.31,250.55z"/>
				<path fill-rule="evenodd" clip-rule="evenodd" fill="#F75D59" d="M334.26,416.7l-11.95-12.6c4.67,2.49,9.33,4.97,14,7.46
					l1.03-0.55L334.26,416.7z"/>
				<polygon fill-rule="evenodd" clip-rule="evenodd" fill="#F75D59" points="328.13,428.01 323.29,422.92 329.19,426.06 				"/>
			</g>
			<g>
				<path fill-rule="evenodd" clip-rule="evenodd" fill="#F75D59" d="M296.22,453.36l-3.59-3.78l6.31,3.36
					C298.04,453.09,297.13,453.23,296.22,453.36z"/>
				<path fill-rule="evenodd" clip-rule="evenodd" fill="#F75D59" d="M311.35,450.5l-17.74-18.7c5.98,3.19,11.96,6.37,17.94,9.56
					l13.13-6.99l-3.17,5.85l-9.64,10.16L311.35,450.5z"/>
				<path fill-rule="evenodd" clip-rule="evenodd" fill="#F75D59" d="M311.56,431.9c-5.65-5.96-11.3-11.92-16.96-17.88
					c5.65,3.01,11.3,6.02,16.96,9.03c5.65-3.01,11.3-6.02,16.96-9.03C322.87,419.98,317.21,425.94,311.56,431.9z"/>
				<path fill-rule="evenodd" clip-rule="evenodd" fill="#F75D59" d="M311.56,413.08c-5.32-5.61-10.65-11.23-15.97-16.84
					c5.32,2.84,10.65,5.67,15.97,8.51c5.32-2.84,10.65-5.67,15.97-8.51C322.21,401.85,316.89,407.47,311.56,413.08z"/>
				<path fill-rule="evenodd" clip-rule="evenodd" fill="#F75D59" d="M311.56,394.26c-5-5.27-9.99-10.53-14.99-15.8
					c5,2.66,9.99,5.32,14.99,7.98c5-2.66,9.99-5.32,14.99-7.98C321.55,383.73,316.56,389,311.56,394.26z"/>
				<path fill-rule="evenodd" clip-rule="evenodd" fill="#F75D59" d="M311.56,375.45c-4.67-4.92-9.33-9.84-14-14.76
					c4.67,2.49,9.33,4.97,14,7.46c4.67-2.49,9.34-4.97,14-7.46C320.9,365.6,316.23,370.53,311.56,375.45z"/>
				<path fill-rule="evenodd" clip-rule="evenodd" fill="#F75D59" d="M311.56,356.63c-4.34-4.57-8.68-9.15-13.02-13.72
					c4.34,2.31,8.68,4.62,13.02,6.93c4.34-2.31,8.68-4.62,13.02-6.93C320.24,347.48,315.9,352.05,311.56,356.63z"/>
				<path fill-rule="evenodd" clip-rule="evenodd" fill="#F75D59" d="M311.56,337.81c-4.01-4.23-8.02-8.46-12.03-12.69
					c4.01,2.14,8.02,4.27,12.03,6.41c4.01-2.14,8.02-4.27,12.03-6.41C319.58,329.36,315.57,333.58,311.56,337.81z"/>
				<path fill-rule="evenodd" clip-rule="evenodd" fill="#F75D59" d="M311.56,319l-10.17-10.72l0.19-0.35l9.98,5.32
					c3.68-1.96,7.36-3.92,11.05-5.88C318.93,311.23,315.24,315.11,311.56,319z"/>
				<path fill-rule="evenodd" clip-rule="evenodd" fill="#F75D59" d="M311.56,300.18l-3.69-3.89l1.4-2.58l2.29,1.22
					c3.35-1.79,6.71-3.57,10.06-5.36C318.27,293.11,314.92,296.64,311.56,300.18z"/>
			</g>
			<g>
				<path fill-rule="evenodd" clip-rule="evenodd" fill="#F75D59" d="M286.81,401.08c-5-5.27-9.99-10.53-14.99-15.8
					c5,2.66,9.99,5.32,14.99,7.98c5-2.66,9.99-5.32,14.99-7.98C296.8,390.55,291.81,395.82,286.81,401.08z"/>
				<path fill-rule="evenodd" clip-rule="evenodd" fill="#F75D59" d="M286.81,382.27c-4.67-4.92-9.33-9.84-14-14.76
					c4.67,2.49,9.33,4.97,14,7.46c4.67-2.49,9.33-4.97,14-7.46C296.15,372.43,291.48,377.35,286.81,382.27z"/>
				<path fill-rule="evenodd" clip-rule="evenodd" fill="#F75D59" d="M286.81,363.45l-9.74-10.27l0.72-1.33l9.02,4.8
					c4.34-2.31,8.68-4.62,13.02-6.93C295.49,354.3,291.15,358.88,286.81,363.45z"/>
				<path fill-rule="evenodd" clip-rule="evenodd" fill="#F75D59" d="M286.81,344.63l-3.25-3.43l1.92-3.55l1.33,0.71
					c4.01-2.14,8.02-4.27,12.03-6.41C294.83,336.18,290.82,340.4,286.81,344.63z"/>
				<path fill-rule="evenodd" clip-rule="evenodd" fill="#F75D59" d="M286.81,418.86c-4.67-4.92-9.33-9.84-14-14.76
					c4.67,2.49,9.33,4.97,14,7.46c4.67-2.49,9.33-4.97,14-7.46C296.15,409.02,291.48,413.94,286.81,418.86z"/>
				<path fill-rule="evenodd" clip-rule="evenodd" fill="#F75D59" d="M286.81,436.64c-4.34-4.57-8.68-9.15-13.02-13.72
					c4.34,2.31,8.68,4.62,13.02,6.93c4.34-2.31,8.68-4.62,13.02-6.93C295.49,427.49,291.15,432.07,286.81,436.64z"/>
				<path fill-rule="evenodd" clip-rule="evenodd" fill="#F75D59" d="M286.81,454.42c-4.01-4.23-8.02-8.46-12.03-12.69
					c4.01,2.14,8.02,4.27,12.03,6.41c4.01-2.14,8.02-4.27,12.03-6.41C294.83,445.96,290.82,450.19,286.81,454.42z"/>
			</g>
			<g>
				<path fill-rule="evenodd" clip-rule="evenodd" fill="#F75D59" d="M248.57,455.3l-5.43-5.72l11.22,5.98
					C252.43,455.49,250.51,455.4,248.57,455.3L248.57,455.3z M269.64,455.62l11.35-6.05l-5.52,5.82
					C273.53,455.5,271.59,455.57,269.64,455.62z"/>
				<path fill-rule="evenodd" clip-rule="evenodd" fill="#F75D59" d="M262.06,450.72c-5.98-6.31-11.96-12.61-17.94-18.92
					c5.98,3.19,11.96,6.37,17.94,9.56c5.98-3.19,11.96-6.37,17.94-9.56C274.03,438.1,268.04,444.41,262.06,450.72z"/>
				<path fill-rule="evenodd" clip-rule="evenodd" fill="#F75D59" d="M262.06,431.9c-5.65-5.96-11.3-11.92-16.96-17.88
					c5.65,3.01,11.3,6.02,16.96,9.03c5.65-3.01,11.3-6.02,16.96-9.03C273.37,419.98,267.72,425.94,262.06,431.9z"/>
				<path fill-rule="evenodd" clip-rule="evenodd" fill="#F75D59" d="M262.06,413.08l-11.09-11.7l1.07-1.98l10.02,5.34
					c5.32-2.84,10.65-5.67,15.97-8.51C272.71,401.85,267.39,407.47,262.06,413.08z"/>
				<path fill-rule="evenodd" clip-rule="evenodd" fill="#F75D59" d="M262.06,394.26l-4.61-4.86l2.28-4.2l2.33,1.24
					c5-2.66,9.99-5.32,14.99-7.98C272.06,383.73,267.06,389,262.06,394.26z"/>
				<polygon fill-rule="evenodd" clip-rule="evenodd" fill="#F75D59" points="271.77,362.97 276.07,360.68 268.94,368.19 				"/>
			</g>
			<g>
				<polygon fill-rule="evenodd" clip-rule="evenodd" fill="#F75D59" points="248.77,405.46 251.32,404.1 247.1,408.56 				"/>
				<path fill-rule="evenodd" clip-rule="evenodd" fill="#F75D59" d="M237.32,436.64l-3.46-3.65l2.1-3.87l1.36,0.73
					c4.34-2.31,8.68-4.62,13.02-6.93C245.99,427.49,241.65,432.07,237.32,436.64z"/>
				<path fill-rule="evenodd" clip-rule="evenodd" fill="#F75D59" d="M237.32,454.42l-9.59-10.11l0.54-0.99l9.05,4.82
					c4.01-2.14,8.02-4.27,12.03-6.41C245.35,445.96,241.32,450.19,237.32,454.42z"/>
			</g>
			<path fill-rule="evenodd" clip-rule="evenodd" fill="#F75D59" d="M224.89,453.1l6.61-3.52l-3.68,3.88
				C226.85,453.34,225.86,453.22,224.89,453.1z"/>
		</g>
	</g>
	<g>
		<path fill-rule="evenodd" clip-rule="evenodd" fill="#333333" d="M22.62,207.65L155.4,452.86c6.18-0.83,12.41-1.83,18.68-2.98
			L22.62,207.65z"/>
		<path fill-rule="evenodd" clip-rule="evenodd" fill="#CCCCCC" d="M22.62,207.65l151.45,242.22l4.76-25.27l-148-273.32
			C27.93,169.25,25.21,188.09,22.62,207.65z"/>
	</g>
	<g>
		<path fill-rule="evenodd" clip-rule="evenodd" fill="#333333" d="M355.87,207.65L223.1,452.86c-6.18-0.83-12.41-1.83-18.68-2.98
			L355.87,207.65z"/>
		<path fill-rule="evenodd" clip-rule="evenodd" fill="#CCCCCC" d="M355.87,207.65L204.42,449.88l-4.76-25.27l148-273.32
			C350.56,169.25,353.28,188.09,355.87,207.65z"/>
	</g>
	<g>
		<path fill-rule="evenodd" clip-rule="evenodd" fill="#990000" d="M6.94,347.82l54.89,101.37c29.37,7.74,60.8,8.09,93.57,3.68
			L22.62,207.65C16.82,251.44,11.72,298.79,6.94,347.82z"/>
		<g>
			<g>
				<polygon fill-rule="evenodd" clip-rule="evenodd" fill="#F75D59" points="33.25,396.41 33.4,396.24 33.21,396.34 				"/>
				<polygon fill-rule="evenodd" clip-rule="evenodd" fill="#F75D59" points="26.76,384.43 32.42,378.46 25.52,382.14 				"/>
				<polygon fill-rule="evenodd" clip-rule="evenodd" fill="#F75D59" points="20.27,372.45 31.43,360.68 17.83,367.93 				"/>
				<path fill-rule="evenodd" clip-rule="evenodd" fill="#F75D59" d="M17.43,356.63c4.34-4.57,8.68-9.15,13.02-13.72
					c-4.34,2.31-8.68,4.62-13.02,6.93l-10.16-5.41l-0.13,1.35L17.43,356.63z"/>
				<path fill-rule="evenodd" clip-rule="evenodd" fill="#F75D59" d="M17.43,337.81c4.01-4.23,8.02-8.46,12.03-12.69
					c-4.01,2.14-8.02,4.27-12.03,6.41l-8.44-4.49l-0.17,1.7L17.43,337.81z"/>
				<path fill-rule="evenodd" clip-rule="evenodd" fill="#F75D59" d="M17.43,319c3.68-3.88,7.36-7.76,11.05-11.65
					c-3.68,1.96-7.36,3.92-11.05,5.88l-6.67-3.55l-0.21,2.06L17.43,319z"/>
				<path fill-rule="evenodd" clip-rule="evenodd" fill="#F75D59" d="M17.43,300.18c3.35-3.54,6.71-7.07,10.06-10.61
					c-3.35,1.79-6.71,3.57-10.06,5.36l-4.84-2.58l-0.26,2.45L17.43,300.18z"/>
				<path fill-rule="evenodd" clip-rule="evenodd" fill="#F75D59" d="M17.43,281.36c3.03-3.19,6.05-6.38,9.08-9.57
					c-3.03,1.61-6.05,3.22-9.08,4.83l-2.96-1.57l-0.32,2.86L17.43,281.36z"/>
				<path fill-rule="evenodd" clip-rule="evenodd" fill="#F75D59" d="M17.43,262.54c2.7-2.84,5.39-5.69,8.09-8.53
					c-2.7,1.44-5.39,2.87-8.09,4.31l-1-0.53l-0.38,3.3L17.43,262.54z"/>
				<polygon fill-rule="evenodd" clip-rule="evenodd" fill="#F75D59" points="18.18,242.94 24.54,236.24 18.6,239.4 				"/>
				<polygon fill-rule="evenodd" clip-rule="evenodd" fill="#F75D59" points="20.85,221.31 23.55,218.46 21.04,219.8 				"/>
			</g>
			<g>
				<path fill-rule="evenodd" clip-rule="evenodd" fill="#F75D59" d="M42.18,401.08c5-5.27,9.99-10.53,14.99-15.8
					c-5,2.66-9.99,5.32-14.99,7.98l-14.94-7.96l0.03,0.05L42.18,401.08z"/>
				<path fill-rule="evenodd" clip-rule="evenodd" fill="#F75D59" d="M42.18,382.27c4.67-4.92,9.33-9.84,14-14.76
					c-4.67,2.49-9.34,4.97-14,7.46c-4.67-2.49-9.33-4.97-14-7.46C32.84,372.43,37.51,377.35,42.18,382.27z"/>
				<path fill-rule="evenodd" clip-rule="evenodd" fill="#F75D59" d="M42.18,363.45c4.34-4.57,8.68-9.15,13.02-13.72
					c-4.34,2.31-8.68,4.62-13.02,6.93c-4.34-2.31-8.68-4.62-13.02-6.93C33.5,354.3,37.84,358.88,42.18,363.45z"/>
				<path fill-rule="evenodd" clip-rule="evenodd" fill="#F75D59" d="M42.18,344.63c4.01-4.23,8.02-8.46,12.03-12.69
					c-4.01,2.14-8.02,4.27-12.03,6.41c-4.01-2.14-8.02-4.27-12.03-6.41C34.16,336.18,38.17,340.4,42.18,344.63z"/>
				<path fill-rule="evenodd" clip-rule="evenodd" fill="#F75D59" d="M42.18,325.82c3.68-3.88,7.36-7.76,11.05-11.65
					c-3.68,1.96-7.36,3.92-11.05,5.88c-3.68-1.96-7.36-3.92-11.05-5.88C34.82,318.05,38.5,321.93,42.18,325.82z"/>
				<path fill-rule="evenodd" clip-rule="evenodd" fill="#F75D59" d="M42.18,307c3.35-3.54,6.71-7.07,10.06-10.61
					c-3.35,1.79-6.71,3.57-10.06,5.36c-3.35-1.79-6.71-3.57-10.06-5.36C35.47,299.93,38.83,303.46,42.18,307z"/>
				<path fill-rule="evenodd" clip-rule="evenodd" fill="#F75D59" d="M42.18,288.18c3.03-3.19,6.05-6.38,9.08-9.57
					c-3.03,1.61-6.05,3.22-9.08,4.83c-3.03-1.61-6.05-3.22-9.08-4.83C36.13,281.8,39.15,284.99,42.18,288.18z"/>
				<path fill-rule="evenodd" clip-rule="evenodd" fill="#F75D59" d="M42.18,269.36c2.7-2.84,5.39-5.69,8.09-8.53
					c-2.7,1.44-5.39,2.87-8.09,4.31c-2.7-1.44-5.39-2.87-8.09-4.31C36.79,263.68,39.48,266.52,42.18,269.36z"/>
				<path fill-rule="evenodd" clip-rule="evenodd" fill="#F75D59" d="M42.18,250.55l2.33-2.46l-1.05-1.93l-1.29,0.69
					c-2.37-1.26-4.74-2.52-7.11-3.78C37.44,245.55,39.81,248.05,42.18,250.55z"/>
				<path fill-rule="evenodd" clip-rule="evenodd" fill="#F75D59" d="M44.23,416.7l11.95-12.6c-4.67,2.49-9.34,4.97-14,7.46
					l-1.03-0.55L44.23,416.7z"/>
				<polygon fill-rule="evenodd" clip-rule="evenodd" fill="#F75D59" points="50.36,428.01 55.2,422.92 49.3,426.06 				"/>
			</g>
			<g>
				<path fill-rule="evenodd" clip-rule="evenodd" fill="#F75D59" d="M82.27,453.36l3.59-3.78l-6.31,3.36
					C80.45,453.09,81.36,453.23,82.27,453.36z"/>
				<path fill-rule="evenodd" clip-rule="evenodd" fill="#F75D59" d="M67.14,450.5l17.74-18.7c-5.98,3.19-11.96,6.37-17.94,9.56
					l-13.13-6.99l3.17,5.85l9.64,10.16L67.14,450.5z"/>
				<path fill-rule="evenodd" clip-rule="evenodd" fill="#F75D59" d="M66.93,431.9c5.65-5.96,11.3-11.92,16.96-17.88
					c-5.65,3.01-11.3,6.02-16.96,9.03c-5.65-3.01-11.3-6.02-16.96-9.03C55.62,419.98,61.28,425.94,66.93,431.9z"/>
				<path fill-rule="evenodd" clip-rule="evenodd" fill="#F75D59" d="M66.93,413.08c5.32-5.61,10.65-11.23,15.97-16.84
					c-5.32,2.84-10.65,5.67-15.97,8.51c-5.32-2.84-10.65-5.67-15.97-8.51C56.28,401.85,61.6,407.47,66.93,413.08z"/>
				<path fill-rule="evenodd" clip-rule="evenodd" fill="#F75D59" d="M66.93,394.26c5-5.27,9.99-10.53,14.99-15.8
					c-5,2.66-9.99,5.32-14.99,7.98c-5-2.66-9.99-5.32-14.99-7.98C56.94,383.73,61.93,389,66.93,394.26z"/>
				<path fill-rule="evenodd" clip-rule="evenodd" fill="#F75D59" d="M66.93,375.45c4.67-4.92,9.33-9.84,14-14.76
					c-4.67,2.49-9.33,4.97-14,7.46c-4.67-2.49-9.33-4.97-14-7.46C57.59,365.6,62.26,370.53,66.93,375.45z"/>
				<path fill-rule="evenodd" clip-rule="evenodd" fill="#F75D59" d="M66.93,356.63c4.34-4.57,8.68-9.15,13.02-13.72
					c-4.34,2.31-8.68,4.62-13.02,6.93c-4.34-2.31-8.68-4.62-13.02-6.93C58.25,347.48,62.59,352.05,66.93,356.63z"/>
				<path fill-rule="evenodd" clip-rule="evenodd" fill="#F75D59" d="M66.93,337.81c4.01-4.23,8.02-8.46,12.03-12.69
					c-4.01,2.14-8.02,4.27-12.03,6.41c-4.01-2.14-8.02-4.27-12.03-6.41C58.91,329.36,62.92,333.58,66.93,337.81z"/>
				<path fill-rule="evenodd" clip-rule="evenodd" fill="#F75D59" d="M66.93,319l10.17-10.72l-0.19-0.35l-9.98,5.32
					c-3.68-1.96-7.36-3.92-11.05-5.88C59.56,311.23,63.25,315.11,66.93,319z"/>
				<path fill-rule="evenodd" clip-rule="evenodd" fill="#F75D59" d="M66.93,300.18l3.69-3.89l-1.4-2.58l-2.29,1.22
					c-3.35-1.79-6.71-3.57-10.06-5.36C60.22,293.11,63.57,296.64,66.93,300.18z"/>
			</g>
			<g>
				<path fill-rule="evenodd" clip-rule="evenodd" fill="#F75D59" d="M91.68,401.08c5-5.27,9.99-10.53,14.99-15.8
					c-5,2.66-9.99,5.32-14.99,7.98c-5-2.66-9.99-5.32-14.99-7.98C81.69,390.55,86.68,395.82,91.68,401.08z"/>
				<path fill-rule="evenodd" clip-rule="evenodd" fill="#F75D59" d="M91.68,382.27c4.67-4.92,9.33-9.84,14-14.76
					c-4.67,2.49-9.33,4.97-14,7.46c-4.67-2.49-9.33-4.97-14-7.46C82.34,372.43,87.01,377.35,91.68,382.27z"/>
				<path fill-rule="evenodd" clip-rule="evenodd" fill="#F75D59" d="M91.68,363.45l9.74-10.27l-0.72-1.33l-9.02,4.8
					c-4.34-2.31-8.68-4.62-13.02-6.93C83,354.3,87.34,358.88,91.68,363.45z"/>
				<path fill-rule="evenodd" clip-rule="evenodd" fill="#F75D59" d="M91.68,344.63l3.25-3.43l-1.92-3.55l-1.33,0.71
					c-4.01-2.14-8.02-4.27-12.03-6.41C83.66,336.18,87.67,340.4,91.68,344.63z"/>
				<path fill-rule="evenodd" clip-rule="evenodd" fill="#F75D59" d="M91.68,418.86c4.67-4.92,9.33-9.84,14-14.76
					c-4.67,2.49-9.33,4.97-14,7.46c-4.67-2.49-9.33-4.97-14-7.46C82.34,409.02,87.01,413.94,91.68,418.86z"/>
				<path fill-rule="evenodd" clip-rule="evenodd" fill="#F75D59" d="M91.68,436.64c4.34-4.57,8.68-9.15,13.02-13.72
					c-4.34,2.31-8.68,4.62-13.02,6.93c-4.34-2.31-8.68-4.62-13.02-6.93C83,427.49,87.34,432.07,91.68,436.64z"/>
				<path fill-rule="evenodd" clip-rule="evenodd" fill="#F75D59" d="M91.68,454.42c4.01-4.23,8.02-8.46,12.03-12.69
					c-4.01,2.14-8.02,4.27-12.03,6.41c-4.01-2.14-8.02-4.27-12.03-6.41C83.66,445.96,87.67,450.19,91.68,454.42z"/>
			</g>
			<g>
				<path fill-rule="evenodd" clip-rule="evenodd" fill="#F75D59" d="M129.93,455.3l5.43-5.72l-11.22,5.98
					C126.06,455.49,127.99,455.4,129.93,455.3L129.93,455.3z M108.85,455.62l-11.35-6.05l5.52,5.82
					C104.96,455.5,106.9,455.57,108.85,455.62z"/>
				<path fill-rule="evenodd" clip-rule="evenodd" fill="#F75D59" d="M116.43,450.72c5.98-6.31,11.96-12.61,17.94-18.92
					c-5.98,3.19-11.96,6.37-17.94,9.56c-5.98-3.19-11.96-6.37-17.94-9.56C104.46,438.1,110.45,444.41,116.43,450.72z"/>
				<path fill-rule="evenodd" clip-rule="evenodd" fill="#F75D59" d="M116.43,431.9c5.65-5.96,11.3-11.92,16.96-17.88
					c-5.65,3.01-11.31,6.02-16.96,9.03c-5.65-3.01-11.3-6.02-16.96-9.03C105.12,419.98,110.77,425.94,116.43,431.9z"/>
				<path fill-rule="evenodd" clip-rule="evenodd" fill="#F75D59" d="M116.43,413.08l11.09-11.7l-1.07-1.98l-10.02,5.34
					c-5.32-2.84-10.65-5.67-15.97-8.51C105.78,401.85,111.1,407.47,116.43,413.08z"/>
				<path fill-rule="evenodd" clip-rule="evenodd" fill="#F75D59" d="M116.43,394.26l4.61-4.86l-2.28-4.2l-2.33,1.24
					c-5-2.66-9.99-5.32-14.99-7.98C106.44,383.73,111.43,389,116.43,394.26z"/>
				<polygon fill-rule="evenodd" clip-rule="evenodd" fill="#F75D59" points="106.72,362.97 102.42,360.68 109.55,368.19 				"/>
			</g>
			<g>
				<polygon fill-rule="evenodd" clip-rule="evenodd" fill="#F75D59" points="129.72,405.46 127.17,404.1 131.4,408.56 				"/>
				<path fill-rule="evenodd" clip-rule="evenodd" fill="#F75D59" d="M141.18,436.64l3.46-3.65l-2.1-3.87l-1.36,0.73
					c-4.34-2.31-8.68-4.62-13.02-6.93C132.51,427.49,136.85,432.07,141.18,436.64z"/>
				<path fill-rule="evenodd" clip-rule="evenodd" fill="#F75D59" d="M141.18,454.42l9.59-10.11l-0.54-0.99l-9.05,4.82
					c-4.01-2.14-8.02-4.27-12.03-6.41C133.15,445.96,137.17,450.19,141.18,454.42z"/>
			</g>
			<path fill-rule="evenodd" clip-rule="evenodd" fill="#F75D59" d="M153.6,453.1l-6.61-3.52l3.68,3.88
				C151.66,453.34,152.63,453.22,153.6,453.1z"/>
		</g>
	</g>
</g>
</svg>
