<?xml version="1.0" encoding="utf-8"?>
<!-- Generator: Adobe Illustrator 22.0.0, SVG Export Plug-In . SVG Version: 6.00 Build 0)  -->
<svg xmlns="http://www.w3.org/2000/svg" xmlns:xlink="http://www.w3.org/1999/xlink" version="1.1" id="图层_1" x="0px" y="0px" width="339.65px" height="326.41px" viewBox="0 0 339.65 326.41" enable-background="new 0 0 339.65 326.41" xml:space="preserve">
<g>
	<g>
		<path fill-rule="evenodd" clip-rule="evenodd" fill="#E32D00" d="M169.83,21.82c12.31-0.15,24.42-0.68,36.05-2.24    c39.94,14.77,50.55,60.14,50.26,99c-21.67,67.4-5.85,120.71-10.32,196.02c-6.5,3.12-31.47,11.52-76,11.66    c-45.54,0.21-73.75-10.05-76-11.66c-4.47-75.31,11.35-128.62-10.32-196.02c-0.28-38.86,10.33-84.23,50.27-99    C145.41,21.13,157.52,21.66,169.83,21.82z"/>
		<path fill-rule="evenodd" clip-rule="evenodd" fill="#DCDDDD" d="M205.93,19.44l-0.1,0.28l0.07,0.01l-1.09,0.14l-1.1,0.14    l-1.1,0.13l-1.1,0.13l-1.1,0.12l-1.11,0.11l-1.11,0.11l-1.11,0.1l-1.11,0.1l-1.12,0.09l-1.12,0.09l-1.12,0.08l-1.12,0.08    l-1.12,0.08l-1.13,0.07l-1.13,0.07l-1.13,0.06l-1.13,0.06l-1.13,0.06l-1.14,0.05l-1.14,0.05l-1.14,0.04l-1.14,0.04l-1.14,0.04    l-1.14,0.03l-1.15,0.03l-1.15,0.03l-1.15,0.03l-1.15,0.02l-1.15,0.02l-1.15,0.02l-1.15,0.02l0-0.3l1.15-0.02l1.15-0.02l1.15-0.02    l1.15-0.02l1.15-0.03l1.15-0.03l1.15-0.03l1.14-0.03l1.14-0.04l1.14-0.04l1.14-0.04l1.14-0.05l1.13-0.05l1.13-0.06l1.13-0.06    l1.13-0.06l1.13-0.07l1.13-0.07l1.12-0.08l1.12-0.08l1.12-0.08l1.12-0.09l1.11-0.09l1.11-0.1l1.11-0.1l1.11-0.11l1.1-0.11    l1.1-0.12l1.1-0.12l1.1-0.13l1.09-0.14l1.09-0.14L205.93,19.44L205.93,19.44z M205.86,19.43l0.04,0l0.04,0.01L205.86,19.43    L205.86,19.43z M256.29,118.62l-0.29-0.09l-0.01,0.04l-0.01-3.66l-0.07-3.69l-0.14-3.71l-0.22-3.73l-0.29-3.74l-0.38-3.75    l-0.46-3.74l-0.55-3.73l-0.64-3.72l-0.73-3.69l-0.83-3.66l-0.93-3.63l-1.03-3.58l-1.14-3.53l-1.25-3.48l-1.37-3.41l-1.48-3.34    l-1.6-3.26l-1.73-3.18l-1.86-3.09l-1.99-2.99l-2.12-2.89l-2.26-2.77l-2.4-2.66l-2.54-2.53l-2.69-2.4l-2.84-2.26l-3-2.12    l-3.16-1.97l-3.32-1.81l-3.48-1.64l-3.65-1.47l0.1-0.28l3.67,1.48l3.5,1.65l3.33,1.82l3.17,1.98l3.01,2.13l2.86,2.27l2.7,2.41    l2.56,2.54l2.41,2.67l2.27,2.79l2.13,2.9l2,3l1.86,3.1l1.74,3.19l1.61,3.28l1.49,3.35l1.37,3.42l1.26,3.49l1.14,3.54l1.04,3.59    l0.93,3.64l0.83,3.67l0.73,3.7l0.64,3.73l0.55,3.74l0.46,3.75l0.38,3.75l0.3,3.75l0.22,3.74l0.14,3.72l0.07,3.7l0.01,3.66    L256.29,118.62L256.29,118.62z M256.29,118.58l0,0.02l-0.01,0.02L256.29,118.58L256.29,118.58z M245.89,314.73l-0.13-0.27    l-0.09,0.13l0.36-6.99l0.25-6.87l0.16-6.76l0.07-6.65l-0.01-6.55l-0.07-6.45l-0.13-6.36l-0.17-6.28l-0.21-6.2l-0.23-6.13    l-0.25-6.07l-0.25-6.02l-0.24-5.97l-0.22-5.92l-0.19-5.89l-0.15-5.86l-0.1-5.83l-0.04-5.82l0.03-5.81l0.11-5.81l0.21-5.81    l0.31-5.82l0.42-5.84l0.55-5.86l0.68-5.89l0.83-5.93l0.98-5.97l1.15-6.02l1.33-6.07l1.52-6.14l1.72-6.21l1.92-6.28l0.29,0.09    l-1.92,6.27l-1.71,6.2l-1.51,6.13l-1.33,6.07l-1.15,6.01l-0.98,5.96l-0.83,5.92l-0.68,5.88l-0.55,5.85l-0.42,5.83l-0.31,5.81    l-0.21,5.8l-0.11,5.8l-0.03,5.8l0.04,5.81l0.1,5.83l0.15,5.86l0.19,5.89l0.22,5.92l0.24,5.97l0.25,6.02l0.25,6.07l0.23,6.13    l0.21,6.2l0.17,6.28l0.13,6.36l0.07,6.45l0.01,6.55l-0.07,6.65l-0.16,6.76l-0.25,6.88l-0.36,7L245.89,314.73L245.89,314.73z     M245.98,314.61l-0.01,0.09l-0.08,0.04L245.98,314.61L245.98,314.61z M169.83,326.41l0-0.3l0,0l4.12-0.04l4-0.08l3.89-0.13    l3.77-0.17l3.66-0.21l3.55-0.24l3.43-0.27l3.32-0.31l3.21-0.33l3.09-0.36l2.98-0.38l2.87-0.41l2.76-0.42l2.64-0.44l2.53-0.45    l2.42-0.47l2.31-0.47l2.2-0.48l2.09-0.48l1.98-0.48l1.87-0.48l1.75-0.48l1.64-0.47l1.53-0.47l1.42-0.45l1.31-0.44l1.21-0.42    l1.1-0.41l0.99-0.38l0.88-0.36l0.77-0.33l0.66-0.31l0.13,0.27l-0.67,0.31l-0.78,0.34l-0.88,0.36l-0.99,0.39l-1.1,0.41l-1.21,0.43    l-1.32,0.44l-1.43,0.46l-1.54,0.47l-1.65,0.48l-1.76,0.48l-1.87,0.48l-1.98,0.49l-2.09,0.48l-2.2,0.48l-2.31,0.47l-2.42,0.47    l-2.54,0.45l-2.65,0.44l-2.76,0.42l-2.87,0.41l-2.98,0.38l-3.1,0.36l-3.21,0.33l-3.32,0.31l-3.44,0.28l-3.55,0.24l-3.66,0.21    l-3.78,0.17l-3.89,0.13l-4,0.08L169.83,326.41L169.83,326.41L169.83,326.41z M169.83,326.11L169.83,326.11L169.83,326.11    L169.83,326.11L169.83,326.11z M93.68,314.61l0.3-0.02l-0.06-0.11l0.27,0.17l0.43,0.22l0.58,0.26l0.73,0.3l0.88,0.34l1.02,0.38    l1.16,0.41l1.31,0.43l1.44,0.45l1.58,0.47l1.72,0.49l1.85,0.5l1.99,0.51l2.12,0.52l2.25,0.52l2.38,0.51l2.5,0.51l2.63,0.5    l2.75,0.49l2.88,0.47l3,0.45l3.11,0.43l3.23,0.4l3.35,0.37l3.46,0.34l3.57,0.3l3.68,0.26l3.79,0.22l3.9,0.17l4.01,0.12l4.11,0.07    l4.22,0.01l0,0.3l-4.22-0.01l-4.12-0.07l-4.01-0.12l-3.91-0.17l-3.8-0.22l-3.69-0.26l-3.58-0.3l-3.47-0.34l-3.35-0.38l-3.24-0.41    l-3.12-0.43l-3-0.45l-2.88-0.47l-2.76-0.49l-2.63-0.5l-2.51-0.51l-2.38-0.52l-2.25-0.52l-2.12-0.52l-1.99-0.51l-1.86-0.5    l-1.72-0.49l-1.59-0.47l-1.45-0.46l-1.31-0.43l-1.17-0.41l-1.03-0.38l-0.88-0.34l-0.74-0.31l-0.59-0.27l-0.44-0.23l-0.3-0.19    L93.68,314.61L93.68,314.61z M93.74,314.72l-0.06-0.04l0-0.07L93.74,314.72L93.74,314.72z M83.36,118.58l0.3,0l-0.01-0.04    l1.92,6.28l1.72,6.21l1.52,6.14l1.33,6.07l1.15,6.02l0.98,5.97l0.83,5.93l0.68,5.89l0.55,5.86l0.42,5.84l0.31,5.82l0.21,5.81    l0.11,5.81l0.03,5.81l-0.04,5.82l-0.1,5.83l-0.15,5.86l-0.19,5.89l-0.22,5.92l-0.24,5.97l-0.25,6.02l-0.25,6.07l-0.23,6.13    l-0.21,6.2l-0.17,6.28l-0.13,6.36l-0.07,6.45l-0.01,6.55l0.07,6.65l0.16,6.76l0.25,6.87l0.36,6.99l-0.3,0.02l-0.36-7l-0.25-6.88    l-0.16-6.76l-0.07-6.65l0.01-6.55l0.07-6.45l0.13-6.36l0.17-6.28l0.21-6.2l0.23-6.13l0.25-6.07l0.25-6.02l0.24-5.97l0.22-5.92    l0.19-5.89l0.15-5.86l0.1-5.83l0.04-5.81l-0.03-5.8l-0.11-5.8l-0.21-5.8l-0.31-5.81l-0.42-5.83l-0.55-5.85l-0.68-5.88l-0.83-5.92    l-0.98-5.96l-1.15-6.01l-1.33-6.07L87,131.1l-1.71-6.2l-1.92-6.27L83.36,118.58L83.36,118.58z M83.37,118.62l-0.01-0.02l0-0.02    L83.37,118.62L83.37,118.62z M133.8,19.43l-0.04,0.3l0.07-0.01l-3.65,1.47l-3.48,1.64l-3.32,1.81l-3.16,1.97l-3,2.12l-2.84,2.26    l-2.69,2.4l-2.54,2.53l-2.4,2.66l-2.26,2.77l-2.12,2.89l-1.99,2.99l-1.86,3.09l-1.73,3.18l-1.6,3.26L93.7,60.1l-1.37,3.41    l-1.25,3.48l-1.14,3.53l-1.03,3.58l-0.93,3.63l-0.83,3.66l-0.73,3.69l-0.64,3.72l-0.55,3.73l-0.46,3.74l-0.38,3.75l-0.29,3.74    l-0.22,3.73l-0.14,3.71l-0.07,3.69l-0.01,3.66l-0.3,0l0.01-3.66l0.07-3.7l0.14-3.72l0.22-3.74l0.3-3.75l0.38-3.75l0.46-3.75    l0.55-3.74l0.64-3.73l0.73-3.7l0.83-3.67l0.93-3.64l1.04-3.59l1.14-3.54l1.26-3.49l1.37-3.42l1.49-3.35l1.61-3.28l1.74-3.19    l1.86-3.1l2-3l2.13-2.9l2.27-2.79l2.41-2.67l2.56-2.54l2.71-2.41l2.86-2.27l3.01-2.13l3.17-1.98l3.33-1.82l3.5-1.65l3.67-1.48    L133.8,19.43L133.8,19.43z M133.73,19.44l0.04-0.01l0.04,0L133.73,19.44L133.73,19.44z M169.83,21.66l0,0.3h0l-1.15-0.02    l-1.15-0.02l-1.15-0.02l-1.15-0.02l-1.15-0.03l-1.15-0.03l-1.15-0.03l-1.14-0.03l-1.14-0.04l-1.14-0.04l-1.14-0.04l-1.14-0.05    l-1.14-0.05l-1.13-0.06l-1.13-0.06l-1.13-0.06l-1.13-0.07l-1.13-0.07l-1.12-0.08l-1.12-0.08l-1.12-0.08l-1.12-0.09l-1.12-0.09    l-1.11-0.1l-1.11-0.1l-1.11-0.11l-1.11-0.11l-1.1-0.12l-1.1-0.13l-1.1-0.13l-1.1-0.14l-1.09-0.14l0.04-0.3l1.09,0.14l1.09,0.14    l1.1,0.13l1.1,0.12l1.1,0.12l1.1,0.11l1.11,0.11l1.11,0.1l1.11,0.1l1.11,0.09l1.12,0.09l1.12,0.08l1.12,0.08l1.12,0.08l1.12,0.07    l1.13,0.07l1.13,0.06l1.13,0.06l1.13,0.06l1.13,0.05l1.14,0.05l1.14,0.04l1.14,0.04l1.14,0.04l1.14,0.03l1.15,0.03l1.15,0.03    l1.15,0.03l1.15,0.02l1.15,0.02l1.15,0.02L169.83,21.66L169.83,21.66L169.83,21.66z M169.83,21.97L169.83,21.97L169.83,21.97    L169.83,21.97z"/>
	</g>
	<g>
		<path fill-rule="evenodd" clip-rule="evenodd" fill="#D42A00" d="M92.41,62.9c3.4-8.8,7.93-16.96,13.84-23.97L92.41,62.9z"/>
		<path fill-rule="evenodd" clip-rule="evenodd" fill="#D42A00" d="M84,103.15c0.41-5.75,1.1-11.53,2.12-17.23l34.49-59.74    c3.44-2.24,7.16-4.2,11.2-5.83L84,103.15z"/>
		<path fill-rule="evenodd" clip-rule="evenodd" fill="#D42A00" d="M85.72,125.85c-0.69-2.41-1.42-4.83-2.2-7.27    c-0.01-0.82-0.01-1.64,0-2.47l55.38-95.92c2.46,0.27,4.94,0.49,7.44,0.68L85.72,125.85z"/>
		<path fill-rule="evenodd" clip-rule="evenodd" fill="#D42A00" d="M90.12,143.9c-0.65-3.23-1.38-6.49-2.19-9.77L153.07,21.3    c2.54,0.13,5.08,0.24,7.65,0.32L90.12,143.9z"/>
		<path fill-rule="evenodd" clip-rule="evenodd" fill="#D42A00" d="M169.83,21.82c1.89-0.02,3.78-0.06,5.66-0.1L93.3,164.06    c-0.42-3.62-0.92-7.27-1.51-10.94l75.83-131.34C168.35,21.8,169.09,21.81,169.83,21.82z"/>
		<path fill-rule="evenodd" clip-rule="evenodd" fill="#D42A00" d="M182.61,21.49c2.71-0.11,5.4-0.25,8.08-0.43L95,186.8    c-0.15-4.11-0.38-8.22-0.7-12.35L182.61,21.49z"/>
		<path fill-rule="evenodd" clip-rule="evenodd" fill="#D42A00" d="M95.15,212.22c0.09-4.6,0.13-9.17,0.1-13.74L196.59,22.96    l5.87,3.39L95.15,212.22z"/>
		<path fill-rule="evenodd" clip-rule="evenodd" fill="#D42A00" d="M94.22,239.5c0.2-4.89,0.4-9.74,0.57-14.54L207.71,29.38    l5.87,3.39L94.22,239.5z"/>
		<path fill-rule="evenodd" clip-rule="evenodd" fill="#D42A00" d="M93.23,266.89c0.12-4.86,0.29-9.64,0.46-14.36L218.82,35.8    l5.87,3.39L93.23,266.89z"/>
		<path fill-rule="evenodd" clip-rule="evenodd" fill="#D42A00" d="M93.04,292.89c-0.07-4.57-0.07-9.07-0.03-13.5L229.94,42.21    l5.87,3.39L93.04,292.89z"/>
		<path fill-rule="evenodd" clip-rule="evenodd" fill="#D42A00" d="M240.7,49.26c1.35,2.29,2.6,4.65,3.74,7.08L94.99,315.2    c-0.57-0.26-0.97-0.46-1.16-0.6c-0.2-3.41-0.36-6.78-0.49-10.11L240.7,49.26z"/>
		<path fill-rule="evenodd" clip-rule="evenodd" fill="#D42A00" d="M247.41,63.32c1.07,2.8,2.02,5.67,2.87,8.58L107.49,319.22    c-2.59-0.67-4.84-1.32-6.72-1.92L247.41,63.32z"/>
		<path fill-rule="evenodd" clip-rule="evenodd" fill="#D42A00" d="M247.46,63.47c1.07,2.81,2.02,5.68,2.86,8.6L107.62,319.25    c-2.59-0.67-4.83-1.32-6.72-1.91L247.46,63.47z"/>
		<path fill-rule="evenodd" clip-rule="evenodd" fill="#D42A00" d="M252.46,80.49c0.75,3.41,1.37,6.86,1.87,10.32L120.78,322.13    c-2.5-0.46-4.84-0.94-7.01-1.41L252.46,80.49z"/>
		<path fill-rule="evenodd" clip-rule="evenodd" fill="#D42A00" d="M255.48,100.93c0.35,4.18,0.56,8.35,0.63,12.47L134.4,324.21    c-2.52-0.31-4.94-0.65-7.25-1.01L255.48,100.93z"/>
		<path fill-rule="evenodd" clip-rule="evenodd" fill="#D42A00" d="M252.19,132.31c-1.83,7.17-3.27,14.2-4.37,21.14l-99.37,172.12    c-2.57-0.18-5.06-0.39-7.47-0.62L252.19,132.31z"/>
		<path fill-rule="evenodd" clip-rule="evenodd" fill="#D42A00" d="M245.83,169.01c-0.5,5.17-0.85,10.3-1.08,15.43L162.9,326.21    c-2.63-0.05-5.19-0.13-7.69-0.25L245.83,169.01z"/>
		<path fill-rule="evenodd" clip-rule="evenodd" fill="#D42A00" d="M244.42,197.13c-0.04,4.48-0.02,8.96,0.06,13.45l-66.72,115.56    c-2.56,0.07-5.19,0.11-7.89,0.11L244.42,197.13z"/>
		<path fill-rule="evenodd" clip-rule="evenodd" fill="#D42A00" d="M244.77,222.18c0.14,4.22,0.3,8.46,0.47,12.74l-52.23,90.46    c-2.61,0.2-5.32,0.36-8.12,0.5L244.77,222.18z"/>
		<path fill-rule="evenodd" clip-rule="evenodd" fill="#D42A00" d="M245.71,246.23c0.17,4.2,0.33,8.44,0.48,12.73l-37.4,64.78    c-2.66,0.36-5.46,0.69-8.4,0.99L245.71,246.23z"/>
		<path fill-rule="evenodd" clip-rule="evenodd" fill="#D42A00" d="M246.51,270.52c0.09,4.37,0.15,8.79,0.16,13.29l-21.4,37.07    c-2.69,0.58-5.62,1.15-8.81,1.69L246.51,270.52z"/>
		<path fill-rule="evenodd" clip-rule="evenodd" fill="#D42A00" d="M246.55,296.12c-0.1,4.73-0.26,9.54-0.51,14.44l-3.02,5.23    c-2.31,0.9-5.52,1.98-9.62,3.11L246.55,296.12z"/>
	</g>
	<g>
		<rect x="169.11" y="27.59" fill-rule="evenodd" clip-rule="evenodd" fill="#FEFEFE" width="1.88" height="275.31"/>
		<path fill-rule="evenodd" clip-rule="evenodd" fill="#DCDDDD" d="M170.99,27.74h-1.88v-0.3h1.88l0.15,0.15L170.99,27.74    L170.99,27.74z M170.99,27.44h0.15v0.15L170.99,27.44L170.99,27.44z M170.84,302.9V27.59h0.3V302.9l-0.15,0.15L170.84,302.9    L170.84,302.9z M171.14,302.9v0.15h-0.15L171.14,302.9L171.14,302.9z M169.11,302.75h1.88v0.3h-1.88l-0.15-0.15L169.11,302.75    L169.11,302.75z M169.11,303.05h-0.15v-0.15L169.11,303.05L169.11,303.05z M169.26,27.59V302.9h-0.3V27.59l0.15-0.15L169.26,27.59    L169.26,27.59z M168.96,27.59v-0.15h0.15L168.96,27.59z"/>
	</g>
	<g>
		<path fill-rule="evenodd" clip-rule="evenodd" fill="#FFFFFF" d="M133.77,19.48c0.69,1.69,1.73,3.3,2.67,4.74    c-0.21,0.08-1.29,0.46-1.5,0.54c-12.43,4.54-22.34,11.09-30.04,19.61c-8.15,9.05-13.77,20.31-17.2,33.93    c-2.81,11.16-4.15,23.89-4.2,38.28c0,0.1,0,1.84,0,1.95l-50.75,23.43c-18.38-6.3-29.33-16.58-32.58-34.35    C31.68,81.36,36.96,56.76,133.77,19.48z"/>
		<path fill-rule="evenodd" clip-rule="evenodd" fill="#DCDDDD" d="M136.38,24.07l-0.07,0.22l-0.09-0.14l-0.09-0.14l-0.09-0.14    l-0.09-0.14l-0.09-0.14l-0.09-0.14l-0.09-0.14l-0.09-0.14l-0.09-0.14l-0.09-0.14l-0.09-0.14l-0.09-0.15l-0.09-0.15l-0.09-0.15    l-0.09-0.15l-0.09-0.15l-0.09-0.15l-0.09-0.15l-0.09-0.15l-0.08-0.15l-0.08-0.15l-0.08-0.15l-0.08-0.15l-0.08-0.15l-0.08-0.16    l-0.08-0.16l-0.08-0.16l-0.07-0.16l-0.07-0.16l-0.07-0.16l-0.07-0.16l-0.07-0.16l0.28-0.11l0.07,0.16l0.07,0.16l0.07,0.16    l0.07,0.16l0.07,0.15l0.07,0.15l0.08,0.15l0.08,0.15l0.08,0.15l0.08,0.15l0.08,0.15l0.08,0.15l0.08,0.15l0.08,0.15l0.09,0.15    l0.09,0.15l0.09,0.15l0.09,0.15l0.09,0.15l0.09,0.15l0.09,0.14l0.09,0.14l0.09,0.14l0.09,0.14l0.09,0.14l0.09,0.14l0.09,0.14    l0.09,0.14l0.09,0.14l0.09,0.14l0.09,0.14l0.09,0.14l-0.07,0.22L136.38,24.07L136.38,24.07z M136.56,24.13l0.1,0.16l-0.18,0.07    L136.56,24.13L136.56,24.13z M134.88,24.61L134.88,24.61l0.02-0.01l0.03-0.01l0.03-0.01l0.04-0.01l0.04-0.01l0.04-0.02l0.05-0.02    l0.05-0.02l0.05-0.02l0.05-0.02l0.06-0.02l0.06-0.02l0.06-0.02l0.06-0.02l0.06-0.02l0.06-0.02l0.06-0.02l0.06-0.02l0.06-0.02    l0.06-0.02l0.06-0.02l0.06-0.02l0.05-0.02l0.05-0.02l0.05-0.02l0.05-0.02l0.04-0.02l0.04-0.01l0.04-0.01l0.03-0.01l0.03-0.01    l0.02-0.01l0.1,0.28l-0.02,0.01l-0.03,0.01l-0.03,0.01l-0.04,0.01l-0.04,0.01l-0.04,0.02l-0.05,0.02l-0.05,0.02l-0.05,0.02    l-0.05,0.02l-0.06,0.02l-0.06,0.02l-0.06,0.02l-0.06,0.02l-0.06,0.02l-0.06,0.02l-0.06,0.02l-0.06,0.02l-0.06,0.02l-0.06,0.02    l-0.06,0.02l-0.06,0.02l-0.05,0.02l-0.05,0.02l-0.05,0.02l-0.05,0.02l-0.04,0.02l-0.04,0.01l-0.04,0.01l-0.03,0.01l-0.03,0.01    l-0.02,0.01l0,0L134.88,24.61L134.88,24.61z M104.79,44.26L104.79,44.26l0.73-0.79l0.74-0.78l0.76-0.77l0.77-0.76l0.78-0.75    l0.8-0.74l0.81-0.72l0.82-0.71l0.84-0.7l0.85-0.69l0.86-0.68l0.88-0.67l0.89-0.66l0.9-0.64l0.92-0.63l0.93-0.62l0.95-0.61    l0.96-0.6l0.97-0.59l0.99-0.57l1-0.56l1.02-0.55l1.03-0.54l1.04-0.53l1.06-0.51l1.07-0.5l1.09-0.49l1.1-0.48l1.12-0.47l1.13-0.46    l1.15-0.44l1.16-0.43l0.1,0.28l-1.16,0.43l-1.14,0.44l-1.13,0.45l-1.11,0.47l-1.1,0.48l-1.08,0.49l-1.07,0.5l-1.05,0.51    l-1.04,0.52l-1.03,0.54l-1.01,0.55l-1,0.56l-0.98,0.57l-0.97,0.58l-0.96,0.59l-0.94,0.61l-0.93,0.62l-0.91,0.63l-0.9,0.64    l-0.89,0.65l-0.87,0.66l-0.86,0.68l-0.85,0.69l-0.83,0.7l-0.82,0.71l-0.81,0.72l-0.79,0.73L108,41.37l-0.76,0.76l-0.75,0.77    l-0.74,0.78l-0.73,0.79h0L104.79,44.26z M104.79,44.26L104.79,44.26l-0.1,0.11L104.79,44.26L104.79,44.26z M87.55,78.25    L87.55,78.25l0.33-1.27l0.34-1.26l0.35-1.24l0.37-1.23l0.38-1.22l0.39-1.2l0.41-1.19l0.42-1.18l0.43-1.16l0.45-1.15l0.46-1.14    l0.47-1.12l0.49-1.11l0.5-1.09l0.52-1.08l0.53-1.07l0.54-1.05l0.56-1.04l0.57-1.03l0.58-1.01l0.6-1l0.61-0.99l0.63-0.98l0.64-0.96    l0.66-0.95l0.67-0.94l0.69-0.92l0.7-0.91l0.71-0.9l0.73-0.88l0.74-0.87l0.76-0.86l0.22,0.2l-0.76,0.85l-0.74,0.87l-0.73,0.88    l-0.71,0.89l-0.7,0.9l-0.68,0.92l-0.67,0.93l-0.65,0.94l-0.64,0.96l-0.62,0.97l-0.61,0.98l-0.6,1l-0.58,1.01l-0.57,1.02    l-0.55,1.04l-0.54,1.05l-0.53,1.06l-0.51,1.08l-0.5,1.09l-0.49,1.1l-0.47,1.12l-0.46,1.13l-0.45,1.14l-0.43,1.16l-0.42,1.17    l-0.41,1.19l-0.39,1.2l-0.38,1.21l-0.37,1.23l-0.35,1.24l-0.34,1.25l-0.33,1.27l0,0L87.55,78.25L87.55,78.25z M83.35,116.57    L83.35,116.57l0.01-1.35l0.02-1.34l0.02-1.33l0.03-1.32l0.04-1.31l0.05-1.3l0.05-1.29l0.06-1.28l0.07-1.27l0.08-1.26l0.09-1.25    l0.09-1.24l0.1-1.23l0.11-1.22l0.12-1.21l0.13-1.2l0.13-1.19l0.14-1.18l0.15-1.17L85,91.49l0.17-1.15l0.17-1.14l0.18-1.14    l0.19-1.13l0.2-1.12l0.21-1.11l0.22-1.1l0.23-1.09l0.23-1.08l0.24-1.07l0.25-1.06l0.26-1.05l0.29,0.07l-0.26,1.05l-0.25,1.06    L87.1,81.5l-0.23,1.08l-0.22,1.09l-0.22,1.1l-0.21,1.11l-0.2,1.11l-0.19,1.12l-0.18,1.13l-0.17,1.14l-0.17,1.15l-0.16,1.16    l-0.15,1.17l-0.14,1.18l-0.13,1.19l-0.13,1.2l-0.12,1.21l-0.11,1.22l-0.1,1.23l-0.09,1.24l-0.09,1.25l-0.08,1.26l-0.07,1.27    l-0.06,1.28l-0.05,1.29l-0.05,1.3l-0.04,1.3l-0.03,1.31l-0.02,1.32l-0.02,1.33l-0.01,1.34v0L83.35,116.57L83.35,116.57z     M83.44,118.38l-0.09,0.14v-0.01v-0.02v-0.03v-0.04l0-0.05v-0.05v-0.06v-0.06v-0.07v-0.07v-0.08v-0.08l0-0.08v-0.08v-0.09v-0.09    v-0.09v-0.09v-0.08l0-0.08v-0.08v-0.08v-0.07v-0.07v-0.06v-0.06v-0.05l0-0.05v-0.04v-0.03v-0.02v-0.01l0.3,0v0.01v0.02v0.03v0.04    l0,0.05v0.05v0.06v0.06v0.07v0.07v0.08v0.08l0,0.08v0.08v0.09v0.09v0.09v0.09v0.08l0,0.08v0.08v0.08v0.07v0.07v0.06v0.06v0.05    l0,0.05v0.04v0.03v0.02v0.01l-0.09,0.14L83.44,118.38L83.44,118.38z M83.65,118.52l0,0.1l-0.09,0.04L83.65,118.52L83.65,118.52z     M32.81,142.08l-0.11,0.01l-0.01-0.28l50.75-23.43l0.13,0.27L32.81,142.08z M32.81,142.08l-0.06,0.03l-0.06-0.02L32.81,142.08    L32.81,142.08z M0.26,107.71l0.05-0.14l0.33,1.64l0.37,1.6l0.42,1.55l0.46,1.51l0.51,1.47l0.55,1.43l0.59,1.39l0.64,1.35    l0.68,1.31l0.73,1.27l0.77,1.24l0.82,1.2l0.86,1.16l0.91,1.13l0.95,1.09l0.99,1.06l1.04,1.03l1.08,0.99l1.13,0.96l1.17,0.93    l1.22,0.9l1.26,0.87l1.3,0.84l1.35,0.81l1.39,0.78l1.44,0.75l1.48,0.73l1.52,0.7l1.57,0.67l1.61,0.65l1.66,0.63l1.7,0.6l-0.1,0.29    l-1.7-0.6l-1.66-0.63l-1.62-0.65l-1.57-0.68l-1.53-0.7l-1.49-0.73l-1.44-0.76l-1.4-0.79l-1.36-0.81l-1.31-0.84l-1.27-0.87    l-1.22-0.9l-1.18-0.94l-1.13-0.97l-1.09-1l-1.05-1.03l-1-1.07l-0.96-1.1l-0.91-1.14l-0.87-1.17l-0.82-1.21l-0.78-1.25l-0.73-1.28    l-0.69-1.32l-0.64-1.36l-0.6-1.4l-0.55-1.44l-0.51-1.48l-0.46-1.52l-0.42-1.56l-0.37-1.61l-0.33-1.65l0.05-0.14L0.26,107.71    L0.26,107.71z M0.02,107.63L0,107.54l0.07-0.06L0.02,107.63L0.02,107.63z M133.63,19.53l0.19,0.08l-8.81,3.46l-8.29,3.39    l-7.8,3.32l-7.33,3.25l-6.88,3.19l-6.45,3.13l-6.04,3.07l-5.66,3.01l-5.29,2.96l-4.95,2.91l-4.63,2.86l-4.33,2.81l-4.05,2.77    l-3.8,2.73l-3.56,2.69l-3.35,2.66l-3.16,2.62l-2.99,2.59l-2.84,2.57l-2.72,2.54l-2.61,2.52l-2.53,2.5l-2.47,2.49l-2.43,2.47    l-2.41,2.46l-2.41,2.45l-2.44,2.45l-2.48,2.44l-2.55,2.44l-2.64,2.45l-2.75,2.45l-2.88,2.46l-0.19-0.23l2.88-2.45l2.75-2.45    l2.64-2.44l2.55-2.44l2.48-2.44l2.44-2.45l2.41-2.45l2.41-2.46l2.43-2.47l2.47-2.49l2.53-2.51l2.61-2.52l2.72-2.55l2.85-2.57    l3-2.6l3.17-2.63l3.36-2.66l3.57-2.7l3.8-2.73l4.06-2.77l4.34-2.82l4.64-2.86l4.96-2.91l5.3-2.96l5.66-3.01l6.05-3.07l6.46-3.13    l6.88-3.19l7.33-3.25l7.81-3.32l8.3-3.39l8.81-3.46l0.19,0.08L133.63,19.53L133.63,19.53z M133.71,19.33l0.14-0.05l0.06,0.14    L133.71,19.33z"/>
	</g>
	<g>
		<path fill-rule="evenodd" clip-rule="evenodd" fill="#FFFFFF" d="M205.88,19.48c-0.69,1.69-1.73,3.3-2.67,4.74    c0.21,0.08,1.29,0.46,1.5,0.54c12.43,4.54,22.34,11.09,30.04,19.61c8.15,9.05,13.77,20.31,17.2,33.93    c2.81,11.16,4.15,23.89,4.2,38.28c0,0.1,0,1.84,0,1.95l50.75,23.43c18.38-6.3,29.33-16.58,32.58-34.35    C307.97,81.36,302.69,56.76,205.88,19.48z"/>
		<path fill-rule="evenodd" clip-rule="evenodd" fill="#DCDDDD" d="M203.26,24.07l-0.1,0.28l-0.07-0.22l0.09-0.14l0.09-0.14    l0.09-0.14l0.09-0.14l0.09-0.14l0.09-0.14l0.09-0.14l0.09-0.14l0.09-0.14l0.09-0.14l0.09-0.14l0.09-0.14l0.09-0.15l0.09-0.15    l0.09-0.15l0.09-0.15l0.09-0.15l0.09-0.15l0.08-0.15l0.08-0.15l0.08-0.15l0.08-0.15l0.08-0.15l0.08-0.15l0.08-0.15l0.08-0.15    l0.07-0.15l0.07-0.15l0.07-0.16l0.07-0.16l0.07-0.16l0.07-0.16l0.28,0.11l-0.07,0.16l-0.07,0.16l-0.07,0.16l-0.07,0.16l-0.07,0.16    l-0.08,0.16l-0.08,0.16l-0.08,0.16l-0.08,0.15l-0.08,0.15l-0.08,0.15l-0.08,0.15l-0.08,0.15l-0.09,0.15l-0.09,0.15l-0.09,0.15    l-0.09,0.15l-0.09,0.15l-0.09,0.15l-0.09,0.15l-0.09,0.15l-0.09,0.14l-0.09,0.14l-0.09,0.14l-0.09,0.14l-0.09,0.14l-0.09,0.14    l-0.09,0.14l-0.09,0.14l-0.09,0.14l-0.09,0.14l-0.09,0.14L203.26,24.07L203.26,24.07z M203.16,24.36l-0.18-0.07l0.1-0.16    L203.16,24.36L203.16,24.36z M204.76,24.61l-0.1,0.28l0,0l-0.02-0.01l-0.03-0.01l-0.03-0.01l-0.04-0.01l-0.04-0.01l-0.04-0.02    l-0.05-0.02l-0.05-0.02l-0.05-0.02l-0.05-0.02l-0.06-0.02l-0.06-0.02l-0.06-0.02l-0.06-0.02l-0.06-0.02l-0.06-0.02l-0.06-0.02    l-0.06-0.02l-0.06-0.02l-0.06-0.02l-0.06-0.02l-0.06-0.02l-0.05-0.02l-0.05-0.02l-0.05-0.02l-0.05-0.02l-0.04-0.02l-0.04-0.01    l-0.04-0.01l-0.03-0.01l-0.03-0.01l-0.02-0.01l0.1-0.28l0.02,0.01l0.03,0.01l0.03,0.01l0.04,0.01l0.04,0.01l0.04,0.02l0.05,0.02    l0.05,0.02l0.05,0.02l0.05,0.02l0.06,0.02l0.06,0.02l0.06,0.02l0.06,0.02l0.06,0.02l0.06,0.02l0.06,0.02l0.06,0.02l0.06,0.02    l0.06,0.02l0.06,0.02l0.06,0.02l0.05,0.02l0.05,0.02l0.05,0.02l0.05,0.02l0.04,0.02l0.04,0.01l0.04,0.01l0.03,0.01l0.03,0.01    L204.76,24.61L204.76,24.61L204.76,24.61z M234.86,44.26l-0.22,0.2h0l-0.73-0.79l-0.74-0.78l-0.75-0.77l-0.76-0.76l-0.78-0.74    l-0.79-0.73l-0.81-0.72l-0.82-0.71l-0.83-0.7l-0.85-0.69l-0.86-0.68l-0.87-0.66l-0.89-0.65l-0.9-0.64l-0.91-0.63l-0.93-0.62    l-0.94-0.61l-0.96-0.59l-0.97-0.58l-0.98-0.57l-1-0.56l-1.01-0.55l-1.03-0.54l-1.04-0.52l-1.05-0.51l-1.07-0.5l-1.08-0.49    l-1.1-0.48l-1.11-0.47l-1.13-0.45l-1.14-0.44l-1.16-0.43l0.1-0.28l1.16,0.43l1.15,0.44l1.13,0.46l1.12,0.47l1.1,0.48l1.09,0.49    l1.07,0.5l1.06,0.51l1.04,0.53l1.03,0.54l1.02,0.55l1,0.56l0.99,0.57l0.97,0.59l0.96,0.6l0.95,0.61l0.93,0.62l0.92,0.63l0.9,0.64    l0.89,0.66l0.88,0.67l0.86,0.68l0.85,0.69l0.84,0.7l0.82,0.71l0.81,0.72l0.8,0.74l0.78,0.75l0.77,0.76l0.76,0.77l0.74,0.78    L234.86,44.26L234.86,44.26L234.86,44.26z M234.86,44.26L234.86,44.26l0.1,0.11L234.86,44.26L234.86,44.26z M252.09,78.25    l-0.29,0.07l0,0l-0.33-1.27l-0.34-1.25l-0.35-1.24l-0.37-1.23l-0.38-1.21l-0.39-1.2l-0.41-1.19l-0.42-1.17l-0.43-1.16l-0.45-1.14    l-0.46-1.13l-0.47-1.12l-0.49-1.1l-0.5-1.09l-0.51-1.08l-0.53-1.06l-0.54-1.05l-0.55-1.04l-0.57-1.02l-0.58-1.01l-0.6-1    l-0.61-0.98l-0.62-0.97l-0.64-0.96l-0.65-0.94l-0.67-0.93l-0.68-0.92l-0.7-0.9l-0.71-0.89l-0.73-0.88l-0.74-0.87l-0.76-0.85    l0.22-0.2l0.76,0.86l0.74,0.87l0.73,0.88l0.71,0.9l0.7,0.91l0.69,0.92l0.67,0.94l0.66,0.95l0.64,0.96l0.63,0.98l0.61,0.99l0.6,1    l0.58,1.01l0.57,1.03l0.56,1.04l0.54,1.05l0.53,1.07l0.52,1.08l0.5,1.09l0.49,1.11l0.47,1.12l0.46,1.14l0.45,1.15l0.43,1.16    l0.42,1.18l0.41,1.19l0.39,1.2l0.38,1.22l0.37,1.23l0.35,1.24l0.34,1.26L252.09,78.25L252.09,78.25L252.09,78.25z M256.3,116.57    l-0.3,0v0l-0.01-1.34l-0.02-1.33l-0.02-1.32l-0.03-1.31l-0.04-1.3l-0.05-1.3l-0.05-1.29l-0.06-1.28l-0.07-1.27l-0.08-1.26    l-0.09-1.25l-0.09-1.24l-0.1-1.23l-0.11-1.22l-0.12-1.21l-0.13-1.2l-0.13-1.19l-0.14-1.18l-0.15-1.17l-0.16-1.16l-0.17-1.15    L254,89.24l-0.18-1.13l-0.19-1.12l-0.2-1.11l-0.21-1.11l-0.22-1.1l-0.22-1.09l-0.23-1.08l-0.24-1.07l-0.25-1.06l-0.26-1.05    l0.29-0.07l0.26,1.05l0.25,1.06l0.24,1.07l0.23,1.08l0.23,1.09l0.22,1.1l0.21,1.11l0.2,1.12l0.19,1.13l0.18,1.14l0.17,1.14    l0.17,1.15l0.16,1.16l0.15,1.17l0.14,1.18l0.13,1.19l0.13,1.2l0.12,1.21l0.11,1.22l0.1,1.23l0.09,1.24l0.09,1.25l0.08,1.26    l0.07,1.27l0.06,1.28l0.05,1.29l0.05,1.3l0.04,1.31l0.03,1.32l0.02,1.33l0.02,1.34L256.3,116.57L256.3,116.57L256.3,116.57z     M256.21,118.38l-0.13,0.27l-0.09-0.14v-0.01v-0.02v-0.03v-0.04l0-0.05v-0.05v-0.06v-0.06v-0.07v-0.07v-0.08v-0.08l0-0.08v-0.08    v-0.09v-0.09v-0.09v-0.09v-0.08l0-0.08v-0.08v-0.08v-0.07v-0.07v-0.06v-0.06v-0.05l0-0.05v-0.04v-0.03v-0.02v-0.01l0.3,0v0.01    v0.02v0.03v0.04l0,0.05v0.05v0.06v0.06v0.07v0.07v0.08v0.08l0,0.08v0.08v0.09v0.09v0.09v0.09v0.08l0,0.08v0.08v0.08v0.07v0.07    v0.06v0.06v0.05l0,0.05v0.04v0.03v0.02v0.01L256.21,118.38L256.21,118.38z M256.08,118.65l-0.09-0.04l0-0.1L256.08,118.65    L256.08,118.65z M306.84,142.08l-50.75-23.43l0.13-0.27l50.75,23.43l-0.01,0.28L306.84,142.08L306.84,142.08z M306.95,142.09    l-0.06,0.02l-0.05-0.03L306.95,142.09L306.95,142.09z M339.39,107.71l0.19-0.23l0.05,0.14l-0.33,1.65l-0.37,1.61l-0.42,1.56    l-0.46,1.52l-0.51,1.48l-0.55,1.44l-0.6,1.4l-0.64,1.36l-0.69,1.32l-0.73,1.28l-0.78,1.25l-0.82,1.21l-0.87,1.17l-0.91,1.14    l-0.96,1.1l-1,1.07l-1.05,1.03l-1.09,1l-1.13,0.97l-1.18,0.94l-1.22,0.9l-1.27,0.87l-1.31,0.84l-1.36,0.81l-1.4,0.79l-1.44,0.76    l-1.49,0.73l-1.53,0.7l-1.57,0.68l-1.62,0.65l-1.66,0.63l-1.7,0.6l-0.1-0.29l1.7-0.6l1.65-0.63l1.61-0.65l1.57-0.67l1.52-0.7    l1.48-0.73l1.44-0.75l1.39-0.78l1.35-0.81l1.3-0.84l1.26-0.87l1.22-0.9l1.17-0.93l1.13-0.96l1.08-0.99l1.04-1.03l0.99-1.06    l0.95-1.09l0.91-1.13l0.86-1.16l0.82-1.2l0.77-1.24l0.73-1.27l0.68-1.31l0.64-1.35l0.59-1.39l0.55-1.43l0.51-1.47l0.46-1.51    l0.42-1.55l0.37-1.6l0.33-1.64L339.39,107.71L339.39,107.71z M339.58,107.48l0.07,0.06l-0.02,0.09L339.58,107.48L339.58,107.48z     M206.02,19.53l-0.28-0.11l0.19-0.08l8.81,3.46l8.3,3.39l7.81,3.32l7.33,3.25l6.88,3.19l6.46,3.13l6.05,3.07l5.66,3.01l5.3,2.96    l4.96,2.91l4.64,2.86l4.34,2.82l4.06,2.77l3.8,2.73l3.57,2.7l3.36,2.66l3.17,2.63l3,2.6l2.85,2.57l2.72,2.55l2.61,2.52l2.53,2.51    l2.47,2.49l2.43,2.47l2.41,2.46l2.41,2.45l2.44,2.45l2.48,2.44l2.55,2.44l2.64,2.44l2.75,2.45l2.88,2.45l-0.19,0.23l-2.88-2.46    l-2.75-2.45l-2.64-2.45l-2.55-2.44l-2.48-2.44l-2.44-2.45l-2.41-2.45l-2.41-2.46l-2.43-2.47l-2.47-2.49l-2.53-2.5l-2.61-2.52    l-2.72-2.54l-2.84-2.57l-2.99-2.59l-3.16-2.62l-3.35-2.66l-3.56-2.69l-3.8-2.73l-4.05-2.77l-4.33-2.81l-4.63-2.86l-4.95-2.91    l-5.29-2.96l-5.66-3.01l-6.04-3.07l-6.45-3.13l-6.88-3.19l-7.33-3.25l-7.8-3.32l-8.29-3.39l-8.81-3.46L206.02,19.53L206.02,19.53z     M205.74,19.42l0.06-0.14l0.14,0.05L205.74,19.42z"/>
	</g>
	<path fill-rule="evenodd" clip-rule="evenodd" d="M63.37,127.81l-0.52,0.24c-20.15-10.6-31.33-39.54-34.04-47.34L28.6,80.1   c1.48-1.44,3-2.89,4.59-4.36l0,0l0.41,1.31c0.03,0.11,11.3,36.87,33.75,46.86c0.78,0.35,1.5,0.7,2.19,1.04L63.37,127.81z"/>
	<path fill-rule="evenodd" clip-rule="evenodd" fill="#D42A00" d="M66.18,126.51l-33.44,15.43c-18.38-6.3-29.33-16.58-32.58-34.35   c11.86-9.87,20.01-19.52,30.72-29.69C30.89,77.93,42.56,115.99,66.18,126.51z"/>
	<g>
		<path fill-rule="evenodd" clip-rule="evenodd" fill="#E32D00" d="M26.21,82.45c1.51-1.51,3.06-3.02,4.67-4.55    c0,0.01,0.53,1.73,1.59,4.55H26.21z"/>
		<path fill-rule="evenodd" clip-rule="evenodd" fill="#D42A00" d="M13.54,95.29c2.26-2.25,4.46-4.51,6.69-6.78h14.7    c0.91,2.09,1.97,4.38,3.18,6.78H13.54z"/>
		<path fill-rule="evenodd" clip-rule="evenodd" fill="#E32D00" d="M13.42,95.41c2.26-2.25,4.47-4.51,6.69-6.78h14.88    c0.91,2.09,1.98,4.38,3.19,6.78H13.42z"/>
		<path fill-rule="evenodd" clip-rule="evenodd" fill="#E32D00" d="M0.29,108.25c-0.04-0.22-0.08-0.44-0.12-0.65    c2.46-2.05,4.76-4.09,6.96-6.13h34.36c1.32,2.26,2.77,4.55,4.35,6.78H0.29z"/>
		<path fill-rule="evenodd" clip-rule="evenodd" fill="#E32D00" d="M4.84,121.09c-1.17-2.1-2.16-4.36-2.97-6.78h48.68    c2.14,2.46,4.45,4.76,6.95,6.78H4.84z"/>
		<path fill-rule="evenodd" clip-rule="evenodd" fill="#E32D00" d="M64.8,127.15l-14.69,6.78H16.49c-2.83-2.01-5.31-4.26-7.45-6.78    H64.8z"/>
		<path fill-rule="evenodd" clip-rule="evenodd" fill="#D42A00" d="M36.99,139.99l-4.24,1.96c-1.79-0.61-3.51-1.27-5.16-1.96H36.99z    "/>
	</g>
	<path fill-rule="evenodd" clip-rule="evenodd" d="M276.27,127.81l0.52,0.24c20.15-10.6,31.33-39.54,34.04-47.34l0.22-0.61   c-1.48-1.44-3-2.89-4.59-4.36l0,0l-0.41,1.31c-0.03,0.11-11.3,36.87-33.75,46.86c-0.78,0.35-1.5,0.7-2.19,1.04L276.27,127.81z"/>
	<path fill-rule="evenodd" clip-rule="evenodd" fill="#D42A00" d="M273.46,126.51l33.44,15.43c18.38-6.3,29.33-16.58,32.58-34.35   c-11.86-9.87-20.01-19.52-30.72-29.69C308.76,77.93,297.09,115.99,273.46,126.51z"/>
	<g>
		<path fill-rule="evenodd" clip-rule="evenodd" fill="#E32D00" d="M313.43,82.45c-1.51-1.51-3.06-3.02-4.67-4.55    c0,0.01-0.53,1.73-1.59,4.55H313.43z"/>
		<path fill-rule="evenodd" clip-rule="evenodd" fill="#D42A00" d="M326.1,95.29c-2.26-2.25-4.46-4.51-6.69-6.78h-14.7    c-0.91,2.09-1.97,4.38-3.18,6.78H326.1z"/>
		<path fill-rule="evenodd" clip-rule="evenodd" fill="#E32D00" d="M326.23,95.41c-2.26-2.25-4.47-4.51-6.69-6.78h-14.88    c-0.91,2.09-1.98,4.38-3.19,6.78H326.23z"/>
		<path fill-rule="evenodd" clip-rule="evenodd" fill="#E32D00" d="M339.36,108.25c0.04-0.22,0.08-0.44,0.12-0.65    c-2.46-2.05-4.76-4.09-6.96-6.13h-34.36c-1.32,2.26-2.77,4.55-4.35,6.78H339.36z"/>
		<path fill-rule="evenodd" clip-rule="evenodd" fill="#E32D00" d="M334.81,121.09c1.17-2.1,2.16-4.36,2.97-6.78h-48.68    c-2.14,2.46-4.45,4.76-6.95,6.78H334.81z"/>
		<path fill-rule="evenodd" clip-rule="evenodd" fill="#E32D00" d="M274.84,127.15l14.69,6.78h33.63c2.83-2.01,5.31-4.26,7.45-6.78    H274.84z"/>
		<path fill-rule="evenodd" clip-rule="evenodd" fill="#D42A00" d="M302.66,139.99l4.24,1.96c1.79-0.61,3.51-1.27,5.16-1.96H302.66z    "/>
	</g>
	<path fill-rule="evenodd" clip-rule="evenodd" d="M253.98,88.51c1.61,10.04,2.24,20.26,2.17,30.07c-1.25,3.88-2.37,7.72-3.38,11.51   H86.89c-1.01-3.8-2.13-7.63-3.38-11.51c-0.07-9.81,0.55-20.03,2.17-30.07H253.98z"/>
	
		<path fill-rule="evenodd" clip-rule="evenodd" fill="#FFFFFF" stroke="#DCDDDD" stroke-width="0.3018" stroke-miterlimit="22.9256" d="   M169.83,21.82c12.31-0.15,24.42-0.68,36.05-2.24c28.76,10.64,42.31,37.15,47.54,65.66H86.24c5.23-28.52,18.78-55.03,47.54-65.66   C145.41,21.13,157.52,21.66,169.83,21.82z"/>
	<path fill-rule="evenodd" clip-rule="evenodd" d="M235.28,318.24c2.99-0.78,5.54-1.62,7.39-2.31c1.84-0.69,2.98-1.22,3.16-1.38   c4.47-75.31-11.35-128.58,10.31-195.98c0.02-7.74-0.29-15.31-1.09-22.6C227.88,135.52,232.32,287.45,235.28,318.24z"/>
	<path fill-rule="evenodd" clip-rule="evenodd" d="M104.38,318.24c-3-0.78-5.54-1.62-7.39-2.31c-1.84-0.69-2.98-1.22-3.16-1.38   c-4.47-75.31,11.35-128.58-10.31-195.98c-0.02-7.74,0.29-15.31,1.09-22.6C111.78,135.52,107.34,287.45,104.38,318.24z"/>
	
		<rect x="169.22" y="27.59" fill-rule="evenodd" clip-rule="evenodd" fill="#989FA5" stroke="#DCDDDD" stroke-width="0.2824" stroke-miterlimit="22.9256" width="1.66" height="275.31"/>
	<g>
		<path fill-rule="evenodd" clip-rule="evenodd" fill="#FFFFFF" d="M136.1,6.34c17.39-8.09,46.4-8.42,67.46,0    c-7.31,10.06-21.49,21.7-33.73,21.32C157.81,27.98,143.75,17,136.1,6.34z"/>
		<path fill-rule="evenodd" clip-rule="evenodd" fill="#DCDDDD" d="M203.68,6.43l-0.24-0.18l0.07,0.23l-1.99-0.76l-2.04-0.71    l-2.08-0.66l-2.11-0.61l-2.14-0.56l-2.17-0.51l-2.2-0.46l-2.22-0.41l-2.24-0.36l-2.25-0.31l-2.26-0.26l-2.27-0.21l-2.27-0.16    l-2.27-0.11l-2.27-0.06l-2.26-0.02l-2.25,0.03l-2.24,0.08l-2.22,0.13l-2.2,0.18l-2.17,0.22l-2.14,0.27l-2.11,0.32l-2.08,0.36    l-2.04,0.41l-1.99,0.46l-1.95,0.5l-1.9,0.55l-1.84,0.6l-1.78,0.64l-1.72,0.69l-1.66,0.73l-0.13-0.27l1.67-0.74l1.73-0.69    l1.79-0.65l1.85-0.6l1.91-0.55l1.95-0.51l2-0.46l2.04-0.41l2.08-0.37l2.12-0.32l2.15-0.27l2.18-0.22l2.2-0.18l2.23-0.13l2.24-0.08    L168.45,0l2.27,0.02L173,0.08l2.28,0.11l2.28,0.16l2.28,0.21l2.27,0.26l2.26,0.31l2.24,0.36l2.23,0.41l2.2,0.46l2.18,0.51    l2.15,0.56l2.12,0.61l2.08,0.66l2.04,0.71l2,0.77L203.68,6.43L203.68,6.43z M203.61,6.2l0.18,0.07l-0.11,0.16L203.61,6.2    L203.61,6.2z M169.83,27.81l-0.01-0.3h0.01l1.14,0l1.15-0.07l1.16-0.13l1.17-0.19l1.18-0.25l1.18-0.31l1.18-0.37l1.18-0.42    l1.18-0.47l1.18-0.52l1.17-0.56l1.17-0.61l1.16-0.65l1.15-0.69l1.14-0.72l1.13-0.75l1.11-0.78l1.1-0.81l1.08-0.84l1.06-0.86    l1.04-0.88l1.02-0.9l0.99-0.92l0.97-0.93l0.94-0.94l0.91-0.95l0.88-0.95l0.85-0.96l0.81-0.96l0.78-0.96l0.74-0.95l0.7-0.94    l0.24,0.18l-0.71,0.95l-0.75,0.96l-0.78,0.96l-0.82,0.96l-0.85,0.96l-0.88,0.96l-0.91,0.95l-0.94,0.94l-0.97,0.93l-1,0.92    l-1.02,0.9L193,17.72l-1.07,0.87l-1.08,0.84l-1.1,0.82l-1.12,0.79l-1.13,0.76l-1.15,0.73l-1.16,0.69l-1.17,0.65l-1.18,0.61    l-1.18,0.57l-1.19,0.52l-1.19,0.47l-1.19,0.42l-1.19,0.37l-1.19,0.32l-1.19,0.26l-1.18,0.2l-1.18,0.13l-1.17,0.07L169.83,27.81    L169.83,27.81L169.83,27.81z M169.83,27.51L169.83,27.51L169.83,27.51L169.83,27.51L169.83,27.51z M136.04,6.2l0.13,0.27    l0.06-0.22l0.73,1l0.77,1l0.8,0.99l0.84,0.99l0.87,0.98l0.9,0.98l0.93,0.96l0.95,0.95l0.98,0.94l1,0.92l1.02,0.9l1.04,0.88    l1.06,0.85l1.08,0.83l1.1,0.8l1.11,0.77l1.12,0.74l1.13,0.7l1.14,0.67l1.15,0.63l1.16,0.59l1.16,0.55l1.17,0.5l1.17,0.45l1.17,0.4    l1.17,0.35l1.16,0.3l1.16,0.24l1.15,0.19l1.14,0.13l1.14,0.07l1.12,0l0.01,0.3l-1.14,0l-1.15-0.07l-1.16-0.13l-1.17-0.19    l-1.17-0.25l-1.18-0.3l-1.18-0.36l-1.18-0.41l-1.18-0.46l-1.18-0.51l-1.17-0.55L155.82,24l-1.16-0.63l-1.15-0.67l-1.14-0.71    l-1.13-0.74l-1.12-0.77l-1.1-0.8l-1.09-0.83l-1.07-0.86l-1.05-0.88l-1.03-0.9l-1.01-0.92l-0.98-0.94l-0.96-0.96l-0.93-0.97    l-0.9-0.98l-0.87-0.99l-0.84-1l-0.81-1l-0.77-1l-0.74-1L136.04,6.2L136.04,6.2z M135.98,6.43l-0.11-0.15l0.17-0.08L135.98,6.43z"/>
	</g>
	<g>
		<path fill-rule="evenodd" clip-rule="evenodd" fill="#FFFFFF" d="M203.56,6.34c-7.4,10.36-21.74,21.73-33.73,21.32v13.76    c15.54-0.36,30.52-9.51,36.05-21.92L203.56,6.34z"/>
		<path fill-rule="evenodd" clip-rule="evenodd" fill="#DCDDDD" d="M169.98,27.66h-0.3l0.16-0.15l1.12,0l1.13-0.06l1.14-0.13    l1.15-0.19l1.16-0.25l1.17-0.3l1.17-0.36l1.17-0.41l1.17-0.46l1.17-0.51l1.17-0.55l1.17-0.6l1.16-0.64l1.15-0.68l1.14-0.71    l1.13-0.75l1.12-0.78l1.1-0.81l1.09-0.84l1.07-0.86l1.05-0.88l1.02-0.9l1-0.92l0.98-0.94l0.95-0.95l0.92-0.96l0.89-0.97l0.86-0.97    l0.82-0.98l0.79-0.98l0.75-0.98l0.71-0.97l0.25,0.18l-0.72,0.98l-0.76,0.98l-0.79,0.98l-0.83,0.98l-0.86,0.98l-0.89,0.97    l-0.92,0.96l-0.95,0.95l-0.98,0.94l-1.01,0.92l-1.03,0.91l-1.05,0.89l-1.07,0.86l-1.09,0.84l-1.11,0.81l-1.12,0.78l-1.14,0.75    l-1.15,0.72l-1.16,0.68l-1.17,0.64l-1.17,0.6l-1.18,0.56l-1.18,0.51l-1.18,0.47l-1.18,0.42l-1.18,0.36l-1.18,0.31l-1.18,0.25    l-1.17,0.19l-1.16,0.13l-1.15,0.06l-1.14,0L169.98,27.66L169.98,27.66z M169.68,27.66v-0.16l0.16,0.01L169.68,27.66L169.68,27.66z     M169.68,41.42V27.66h0.3v13.76l-0.15,0.15L169.68,41.42L169.68,41.42z M169.83,41.57l-0.15,0v-0.15L169.83,41.57L169.83,41.57z     M205.73,19.52l0.3-0.05l-0.01,0.09l-0.55,1.16l-0.6,1.14l-0.65,1.12l-0.71,1.1l-0.75,1.07l-0.8,1.05l-0.85,1.02l-0.89,1    l-0.93,0.97l-0.98,0.94l-1.01,0.91l-1.05,0.88l-1.09,0.85l-1.12,0.82l-1.15,0.78l-1.19,0.75l-1.21,0.71l-1.24,0.68l-1.27,0.64    l-1.29,0.6l-1.32,0.56l-1.34,0.52l-1.36,0.48l-1.37,0.44l-1.39,0.39l-1.41,0.35l-1.42,0.3l-1.43,0.26l-1.44,0.21l-1.45,0.16    l-1.46,0.11l-1.46,0.06l-0.01-0.3l1.45-0.06l1.44-0.11l1.44-0.16l1.43-0.21l1.42-0.25l1.41-0.3l1.4-0.35l1.38-0.39l1.37-0.43    l1.35-0.48l1.33-0.52l1.31-0.56l1.28-0.6l1.26-0.63l1.23-0.67l1.21-0.71l1.18-0.74l1.15-0.78l1.11-0.81l1.08-0.84l1.04-0.87    l1.01-0.9l0.97-0.93l0.93-0.96l0.88-0.99l0.84-1.01l0.79-1.04l0.75-1.06l0.7-1.09l0.65-1.11l0.6-1.13l0.54-1.15L205.73,19.52    L205.73,19.52z M206.03,19.47l0.01,0.05l-0.02,0.04L206.03,19.47L206.03,19.47z M203.71,6.31l2.32,13.15l-0.3,0.05l-2.32-13.15    l0.03-0.11L203.71,6.31L203.71,6.31z M203.44,6.25l0.21-0.29l0.06,0.35L203.44,6.25z"/>
	</g>
	<g>
		<path fill-rule="evenodd" clip-rule="evenodd" fill="#FFFFFF" d="M136.1,6.34c7.4,10.36,21.74,21.73,33.73,21.32v13.76    c-15.54-0.36-30.52-9.51-36.05-21.92L136.1,6.34z"/>
		<path fill-rule="evenodd" clip-rule="evenodd" fill="#DCDDDD" d="M169.68,27.66l0.16,0.15l-1.14,0l-1.15-0.06l-1.16-0.13    l-1.17-0.19l-1.18-0.25l-1.18-0.31l-1.18-0.36l-1.18-0.42l-1.18-0.47l-1.18-0.51l-1.18-0.56l-1.17-0.6l-1.17-0.64l-1.16-0.68    l-1.15-0.72l-1.14-0.75l-1.12-0.78l-1.11-0.81l-1.09-0.84l-1.07-0.86l-1.05-0.89l-1.03-0.91l-1.01-0.92l-0.98-0.94l-0.95-0.95    l-0.92-0.96l-0.89-0.97l-0.86-0.98l-0.83-0.98l-0.79-0.98l-0.76-0.98l-0.72-0.98l0.25-0.18l0.71,0.97l0.75,0.98l0.79,0.98    l0.82,0.98l0.86,0.97l0.89,0.97l0.92,0.96l0.95,0.95l0.98,0.94l1,0.92l1.02,0.9l1.05,0.88l1.07,0.86l1.08,0.84l1.1,0.81l1.12,0.78    l1.13,0.75l1.14,0.71l1.15,0.68l1.16,0.64l1.17,0.6l1.17,0.55l1.17,0.51l1.17,0.46l1.17,0.41l1.17,0.36l1.17,0.3l1.16,0.25    l1.15,0.19l1.14,0.13l1.13,0.06l1.12,0l0.16,0.15H169.68L169.68,27.66z M169.82,27.51l0.16-0.01v0.16L169.82,27.51L169.82,27.51z     M169.98,41.42l-0.15,0.15l-0.15-0.15V27.66h0.3V41.42z M169.98,41.42v0.15l-0.15,0L169.98,41.42L169.98,41.42z M133.93,19.52    l-0.01-0.09l0.54,1.15l0.6,1.13l0.65,1.11l0.7,1.09l0.75,1.06l0.79,1.04l0.84,1.01l0.88,0.99l0.93,0.96l0.97,0.93l1.01,0.9    l1.04,0.87l1.08,0.84l1.11,0.81l1.15,0.78l1.18,0.74l1.21,0.71l1.23,0.67l1.26,0.63l1.28,0.6l1.31,0.56l1.33,0.52l1.35,0.48    l1.37,0.43l1.38,0.39l1.4,0.35l1.41,0.3l1.42,0.25l1.43,0.21l1.44,0.16l1.44,0.11l1.45,0.06l-0.01,0.3l-1.46-0.06l-1.46-0.11    l-1.45-0.16l-1.44-0.21l-1.43-0.26l-1.42-0.3l-1.41-0.35l-1.39-0.39L157,39.29l-1.36-0.48l-1.34-0.52l-1.32-0.56l-1.29-0.6    l-1.27-0.64l-1.24-0.68l-1.21-0.71l-1.19-0.75l-1.15-0.78l-1.12-0.82l-1.09-0.85l-1.05-0.88l-1.01-0.91l-0.97-0.94l-0.93-0.97    l-0.89-1l-0.85-1.02l-0.8-1.05l-0.75-1.07l-0.71-1.1l-0.65-1.12l-0.6-1.14l-0.55-1.16l-0.01-0.09L133.93,19.52L133.93,19.52z     M133.64,19.56l-0.02-0.04l0.01-0.05L133.64,19.56L133.64,19.56z M135.95,6.31l0.27-0.06l0.03,0.11l-2.32,13.15l-0.3-0.05    L135.95,6.31z M135.95,6.31l0.06-0.35l0.21,0.29L135.95,6.31z"/>
	</g>
	<g>
		<path fill-rule="evenodd" clip-rule="evenodd" fill="#DCDDDD" d="M149.64,19.93c7.96-2.02,14.43-3.35,20.42-4.01    c5.16,0.81,12.49,1.84,19.88,3.98c-6.67,4.98-12.96,7.87-20.11,7.76C160.78,27.74,153.98,23.08,149.64,19.93z"/>
		<path fill-rule="evenodd" clip-rule="evenodd" fill="#DCDDDD" d="M170.08,15.77l-0.05,0.3l0.04,0l-0.56,0.06l-0.57,0.07    l-0.57,0.07l-0.57,0.08l-0.58,0.08l-0.58,0.08l-0.58,0.09l-0.59,0.09l-0.59,0.1l-0.6,0.1l-0.6,0.1l-0.61,0.11l-0.61,0.11    l-0.62,0.12l-0.62,0.12l-0.63,0.12l-0.63,0.13l-0.64,0.13l-0.64,0.13l-0.65,0.14l-0.66,0.14l-0.66,0.15l-0.67,0.15l-0.68,0.15    l-0.69,0.16L154,19.01l-0.7,0.17l-0.71,0.17l-0.72,0.18l-0.72,0.18l-0.73,0.18l-0.74,0.19l-0.07-0.29l0.74-0.19l0.73-0.18    l0.73-0.18l0.72-0.18l0.71-0.17l0.7-0.17l0.69-0.16l0.69-0.16l0.68-0.15l0.67-0.15l0.67-0.15l0.66-0.14l0.65-0.14l0.65-0.13    l0.64-0.13l0.63-0.13l0.63-0.12l0.62-0.12l0.62-0.12l0.61-0.11l0.61-0.11l0.6-0.1l0.6-0.1l0.59-0.1l0.59-0.09l0.59-0.09l0.58-0.08    l0.58-0.08l0.57-0.08l0.57-0.07l0.57-0.07l0.56-0.06L170.08,15.77L170.08,15.77z M170.04,15.77l0.02,0l0.02,0L170.04,15.77    L170.04,15.77z M190.03,20.03l-0.18-0.24l0.05,0.26l-0.69-0.2l-0.69-0.19l-0.69-0.18l-0.69-0.18l-0.69-0.17l-0.68-0.17l-0.68-0.16    l-0.68-0.16l-0.67-0.15l-0.67-0.15l-0.67-0.14l-0.66-0.14l-0.66-0.13l-0.65-0.13l-0.65-0.12l-0.64-0.12l-0.63-0.12l-0.63-0.11    l-0.62-0.11l-0.61-0.1l-0.6-0.1l-0.6-0.1l-0.59-0.1l-0.58-0.09l-0.57-0.09l-0.56-0.09l-0.55-0.09l-0.54-0.08l-0.53-0.08    l-0.51-0.08l-0.5-0.08l-0.49-0.08l0.05-0.3l0.49,0.08l0.5,0.08l0.51,0.08l0.53,0.08l0.54,0.08l0.55,0.09l0.56,0.09l0.57,0.09    l0.58,0.09l0.59,0.1l0.6,0.1l0.6,0.1l0.61,0.11l0.62,0.11l0.63,0.11l0.64,0.12l0.64,0.12l0.65,0.12l0.65,0.13l0.66,0.13l0.66,0.14    l0.67,0.14l0.67,0.15l0.68,0.15l0.68,0.16l0.68,0.16l0.69,0.17l0.69,0.17l0.69,0.18l0.69,0.19l0.69,0.19l0.69,0.2L190.03,20.03    L190.03,20.03z M189.98,19.76l0.29,0.08l-0.24,0.18L189.98,19.76L189.98,19.76z M169.83,27.81l0-0.3h0l0.66,0l0.66-0.02l0.65-0.03    l0.65-0.05l0.65-0.07l0.64-0.08l0.64-0.1l0.64-0.12l0.63-0.13l0.63-0.15l0.63-0.16l0.62-0.18l0.62-0.2l0.62-0.21l0.62-0.23    l0.62-0.24l0.62-0.26l0.61-0.27l0.61-0.29l0.61-0.3l0.61-0.31l0.61-0.33l0.61-0.34l0.61-0.36l0.61-0.37l0.61-0.38l0.61-0.4    l0.62-0.41l0.62-0.42l0.62-0.43l0.62-0.45l0.62-0.46l0.18,0.24l-0.63,0.46l-0.62,0.45l-0.62,0.44l-0.62,0.42l-0.62,0.41l-0.62,0.4    l-0.62,0.38l-0.62,0.37l-0.62,0.36l-0.62,0.34l-0.62,0.33l-0.62,0.32l-0.62,0.3l-0.62,0.29l-0.62,0.27l-0.62,0.26l-0.62,0.24    l-0.62,0.23l-0.63,0.21l-0.63,0.2l-0.63,0.18l-0.63,0.17l-0.64,0.15l-0.64,0.13l-0.64,0.12l-0.65,0.1l-0.65,0.08l-0.65,0.07    l-0.66,0.05l-0.66,0.03l-0.67,0.02L169.83,27.81L169.83,27.81L169.83,27.81z M169.83,27.51L169.83,27.51L169.83,27.51    L169.83,27.51L169.83,27.51z M149.6,19.79l0.07,0.29l0.05-0.27l0.41,0.3l0.43,0.31l0.44,0.31l0.46,0.32l0.47,0.32l0.48,0.33    l0.5,0.33l0.51,0.33l0.53,0.33l0.54,0.33l0.55,0.32l0.57,0.32l0.58,0.32l0.6,0.31l0.61,0.3l0.62,0.29l0.64,0.28l0.65,0.27    l0.66,0.26l0.68,0.25l0.69,0.24l0.7,0.22l0.72,0.2l0.73,0.19l0.74,0.17L165,27.1l0.77,0.13l0.78,0.11l0.8,0.08l0.81,0.06    l0.82,0.03l0.84,0.01l0,0.3l-0.85-0.01l-0.83-0.03l-0.82-0.06l-0.81-0.08l-0.79-0.11l-0.78-0.13l-0.77-0.15l-0.75-0.17l-0.74-0.19    l-0.73-0.21l-0.71-0.22l-0.7-0.24l-0.68-0.25l-0.67-0.26l-0.66-0.28l-0.64-0.29l-0.63-0.3l-0.61-0.3l-0.6-0.31l-0.59-0.32    l-0.57-0.32l-0.56-0.33l-0.54-0.33l-0.53-0.33l-0.52-0.33l-0.5-0.33l-0.49-0.33l-0.47-0.32l-0.46-0.32l-0.44-0.31l-0.43-0.31    l-0.41-0.3L149.6,19.79L149.6,19.79z M149.55,20.05l-0.26-0.19l0.31-0.08L149.55,20.05z"/>
	</g>
	
	<g>
		<g>
			<path fill-rule="evenodd" clip-rule="evenodd" fill="#DCDDDD" d="M169.32,29.26c0.31,0,0.62,0,0.93,0.01L169.32,29.26z      M169.32,29.26L169.32,29.26L169.32,29.26z"/>
			
				<path fill-rule="evenodd" clip-rule="evenodd" fill="none" stroke="#DCDDDD" stroke-width="0.2824" stroke-miterlimit="22.9256" d="     M169.32,29.26c0.31,0,0.62,0,0.93,0.01 M169.32,29.26L169.32,29.26L169.32,29.26z"/>
		</g>
		<g>
			<path fill-rule="evenodd" clip-rule="evenodd" fill="#DCDDDD" d="M169.43,28.05c0.31,0,0.62,0,0.93,0.01L169.43,28.05z      M169.43,28.05L169.43,28.05L169.43,28.05z"/>
			
				<path fill-rule="evenodd" clip-rule="evenodd" fill="none" stroke="#DCDDDD" stroke-width="0.2824" stroke-miterlimit="22.9256" d="     M169.43,28.05c0.31,0,0.62,0,0.93,0.01 M169.43,28.05L169.43,28.05L169.43,28.05z"/>
		</g>
		<g>
			<path fill-rule="evenodd" clip-rule="evenodd" fill="#DCDDDD" d="M170.58,28.6c-0.36,0-0.72-0.01-1.08-0.01L170.58,28.6z      M170.58,28.6L170.58,28.6L170.58,28.6z"/>
			
				<path fill-rule="evenodd" clip-rule="evenodd" fill="none" stroke="#DCDDDD" stroke-width="0.2824" stroke-miterlimit="22.9256" d="     M170.58,28.6c-0.36,0-0.72-0.01-1.08-0.01 M170.58,28.6L170.58,28.6L170.58,28.6z"/>
		</g>
		<g>
			<path fill-rule="evenodd" clip-rule="evenodd" fill="#DCDDDD" d="M170.69,27.39c-0.36,0-0.72-0.01-1.08-0.01L170.69,27.39z      M170.69,27.39L170.69,27.39L170.69,27.39z"/>
			
				<path fill-rule="evenodd" clip-rule="evenodd" fill="none" stroke="#DCDDDD" stroke-width="0.2824" stroke-miterlimit="22.9256" d="     M170.69,27.39c-0.36,0-0.72-0.01-1.08-0.01 M170.69,27.39L170.69,27.39L170.69,27.39z"/>
		</g>
		<g>
			<path fill-rule="evenodd" clip-rule="evenodd" fill="#DCDDDD" d="M168.87,29.13c0.47,0,0.94,0,1.41,0H168.87z M168.87,29.13     L168.87,29.13L168.87,29.13z"/>
			
				<path fill-rule="evenodd" clip-rule="evenodd" fill="none" stroke="#DCDDDD" stroke-width="0.2824" stroke-miterlimit="22.9256" d="     M168.87,29.13c0.47,0,0.94,0,1.41,0 M168.87,29.13L168.87,29.13L168.87,29.13z"/>
		</g>
		<g>
			<path fill-rule="evenodd" clip-rule="evenodd" fill="#DCDDDD" d="M168.98,27.98c0.47,0,0.94,0,1.41,0H168.98z M168.98,27.98     L168.98,27.98L168.98,27.98z"/>
			
				<path fill-rule="evenodd" clip-rule="evenodd" fill="none" stroke="#DCDDDD" stroke-width="0.2824" stroke-miterlimit="22.9256" d="     M168.98,27.98c0.47,0,0.94,0,1.41,0 M168.98,27.98L168.98,27.98L168.98,27.98z"/>
		</g>
		<g>
			<path fill-rule="evenodd" clip-rule="evenodd" fill="#DCDDDD" d="M170.63,28.42c-0.48,0-0.96,0-1.44,0H170.63z M170.63,28.42     L170.63,28.42L170.63,28.42z"/>
			
				<path fill-rule="evenodd" clip-rule="evenodd" fill="none" stroke="#DCDDDD" stroke-width="0.2824" stroke-miterlimit="22.9256" d="     M170.63,28.42c-0.48,0-0.96,0-1.44,0 M170.63,28.42L170.63,28.42L170.63,28.42z"/>
		</g>
		
			<path fill-rule="evenodd" clip-rule="evenodd" fill="#DCDDDD" stroke="#DCDDDD" stroke-width="0.1221" stroke-miterlimit="22.9256" d="    M171.3,27.68c-0.77-0.04-1.61-0.02-2.39-0.06c-0.11,0.1-0.15,0.15-0.26,0.25c0.75,0.02,1.5,0.02,2.26,0.02    C171.05,27.82,171.18,27.75,171.3,27.68z"/>
		
			<path fill-rule="evenodd" clip-rule="evenodd" fill="#989FA5" stroke="#DCDDDD" stroke-width="0.1221" stroke-miterlimit="22.9256" d="    M168.81,29.86c0.83,0,1.65,0,2.48,0c-0.07-0.73,0.13-1.2,0.6-1.41c0-0.23,0-0.44,0-0.66c-0.41-0.22-0.82-0.43-1.23-0.65    c-0.4,0-0.8,0-1.21,0c-0.42,0.22-0.83,0.43-1.24,0.65c0,0.22,0,0.43,0,0.65C168.65,28.69,168.85,29.17,168.81,29.86z"/>
		<g>
			<path fill-rule="evenodd" clip-rule="evenodd" fill="#DCDDDD" d="M169.46,34.32c0.31,0,0.62,0.01,0.93,0.01L169.46,34.32z      M169.46,34.32L169.46,34.32L169.46,34.32z"/>
			
				<path fill-rule="evenodd" clip-rule="evenodd" fill="none" stroke="#DCDDDD" stroke-width="0.2824" stroke-miterlimit="22.9256" d="     M169.46,34.32c0.31,0,0.62,0.01,0.93,0.01 M169.46,34.32L169.46,34.32L169.46,34.32z"/>
		</g>
		<g>
			<path fill-rule="evenodd" clip-rule="evenodd" fill="#DCDDDD" d="M169.46,32.68c0.31,0,0.62,0.01,0.93,0.01L169.46,32.68z      M169.46,32.68L169.46,32.68L169.46,32.68z"/>
			
				<path fill-rule="evenodd" clip-rule="evenodd" fill="none" stroke="#DCDDDD" stroke-width="0.2824" stroke-miterlimit="22.9256" d="     M169.46,32.68c0.31,0,0.62,0.01,0.93,0.01 M169.46,32.68L169.46,32.68L169.46,32.68z"/>
		</g>
		<g>
			<path fill-rule="evenodd" clip-rule="evenodd" fill="#DCDDDD" d="M169.54,31.07c0.31,0,0.62,0.01,0.93,0.01L169.54,31.07z      M169.54,31.07L169.54,31.07L169.54,31.07z"/>
			
				<path fill-rule="evenodd" clip-rule="evenodd" fill="none" stroke="#DCDDDD" stroke-width="0.2824" stroke-miterlimit="22.9256" d="     M169.54,31.07c0.31,0,0.62,0.01,0.93,0.01 M169.54,31.07L169.54,31.07L169.54,31.07z"/>
		</g>
		<g>
			<path fill-rule="evenodd" clip-rule="evenodd" fill="#DCDDDD" d="M170.72,35.16c-0.36,0-0.72-0.01-1.08-0.01L170.72,35.16z      M170.72,35.16L170.72,35.16L170.72,35.16z"/>
			
				<path fill-rule="evenodd" clip-rule="evenodd" fill="none" stroke="#DCDDDD" stroke-width="0.2824" stroke-miterlimit="22.9256" d="     M170.72,35.16c-0.36,0-0.72-0.01-1.08-0.01 M170.72,35.16L170.72,35.16L170.72,35.16z"/>
		</g>
		<g>
			<path fill-rule="evenodd" clip-rule="evenodd" fill="#DCDDDD" d="M170.72,33.53c-0.36,0-0.72-0.01-1.08-0.01L170.72,33.53z      M170.72,33.53L170.72,33.53L170.72,33.53z"/>
			
				<path fill-rule="evenodd" clip-rule="evenodd" fill="none" stroke="#DCDDDD" stroke-width="0.2824" stroke-miterlimit="22.9256" d="     M170.72,33.53c-0.36,0-0.72-0.01-1.08-0.01 M170.72,33.53L170.72,33.53L170.72,33.53z"/>
		</g>
		<g>
			<path fill-rule="evenodd" clip-rule="evenodd" fill="#DCDDDD" d="M170.72,31.89c-0.36,0-0.72-0.01-1.08-0.01L170.72,31.89z      M170.72,31.89L170.72,31.89L170.72,31.89z"/>
			
				<path fill-rule="evenodd" clip-rule="evenodd" fill="none" stroke="#DCDDDD" stroke-width="0.2824" stroke-miterlimit="22.9256" d="     M170.72,31.89c-0.36,0-0.72-0.01-1.08-0.01 M170.72,31.89L170.72,31.89L170.72,31.89z"/>
		</g>
		<g>
			<path fill-rule="evenodd" clip-rule="evenodd" fill="#DCDDDD" d="M169.02,32.35c0.47,0,0.94,0,1.41,0H169.02z M169.02,32.35     L169.02,32.35L169.02,32.35z"/>
			
				<path fill-rule="evenodd" clip-rule="evenodd" fill="none" stroke="#DCDDDD" stroke-width="0.2824" stroke-miterlimit="22.9256" d="     M169.02,32.35c0.47,0,0.94,0,1.41,0 M169.02,32.35L169.02,32.35L169.02,32.35z"/>
		</g>
		<g>
			<path fill-rule="evenodd" clip-rule="evenodd" fill="#DCDDDD" d="M169.1,30.69c0.47,0,0.94,0,1.41,0H169.1z M169.1,30.69     L169.1,30.69L169.1,30.69z"/>
			
				<path fill-rule="evenodd" clip-rule="evenodd" fill="none" stroke="#DCDDDD" stroke-width="0.2824" stroke-miterlimit="22.9256" d="     M169.1,30.69c0.47,0,0.94,0,1.41,0 M169.1,30.69L169.1,30.69L169.1,30.69z"/>
		</g>
		<g>
			<path fill-rule="evenodd" clip-rule="evenodd" fill="#DCDDDD" d="M168.79,28.5c0.47,0,0.94,0,1.41,0H168.79z M168.79,28.5     L168.79,28.5L168.79,28.5z"/>
			
				<path fill-rule="evenodd" clip-rule="evenodd" fill="none" stroke="#DCDDDD" stroke-width="0.2824" stroke-miterlimit="22.9256" d="     M168.79,28.5c0.47,0,0.94,0,1.41,0 M168.79,28.5L168.79,28.5L168.79,28.5z"/>
		</g>
		<g>
			<path fill-rule="evenodd" clip-rule="evenodd" fill="#DCDDDD" d="M170.86,31.44c-0.48,0-0.96,0-1.44,0H170.86z M170.86,31.44     L170.86,31.44L170.86,31.44z"/>
			
				<path fill-rule="evenodd" clip-rule="evenodd" fill="none" stroke="#DCDDDD" stroke-width="0.2824" stroke-miterlimit="22.9256" d="     M170.86,31.44c-0.48,0-0.96,0-1.44,0 M170.86,31.44L170.86,31.44L170.86,31.44z"/>
		</g>
		
			<path fill-rule="evenodd" clip-rule="evenodd" fill="#989FA5" stroke="#DCDDDD" stroke-width="0.2824" stroke-miterlimit="22.9256" d="    M168.75,39.14c0-2.83,0-5.66,0-8.49c0.73,0,1.46,0,2.19,0c0.13-0.05,0.27-0.11,0.4-0.16c0,2.78,0,5.89,0,8.67    C168.17,39.12,171.81,39.17,168.75,39.14z"/>
		<g>
			<path fill-rule="evenodd" clip-rule="evenodd" fill="#DCDDDD" d="M171.33,30.59c0,2.78,0,5.56,0,8.34V30.59z M171.33,30.59     L171.33,30.59L171.33,30.59z"/>
			
				<path fill-rule="evenodd" clip-rule="evenodd" fill="none" stroke="#DCDDDD" stroke-width="0.1221" stroke-miterlimit="22.9256" d="     M171.33,30.59c0,2.78,0,5.56,0,8.34 M171.33,30.59L171.33,30.59L171.33,30.59z"/>
		</g>
		
			<path fill-rule="evenodd" clip-rule="evenodd" fill="#989FA5" stroke="#DCDDDD" stroke-width="0.1221" stroke-miterlimit="22.9256" d="    M168.74,30.87c0-0.84,0-1.68,0-2.52c0.87,0,1.73,0,2.6,0c0,0.81,0,1.62,0,2.43c-0.17,0-0.34,0-0.51,0c0-0.64,0-1.28,0-1.92    c-0.52,0-1.05,0-1.57,0c0,0.65,0,1.3,0,1.95C169.09,30.81,168.91,30.81,168.74,30.87z"/>
		
			<rect x="169.66" y="32.4" fill-rule="evenodd" clip-rule="evenodd" fill="#989FA5" stroke="#DCDDDD" stroke-width="0.1221" stroke-miterlimit="22.9256" width="0.87" height="3.44"/>
		
			<rect x="169.71" y="27.18" fill-rule="evenodd" clip-rule="evenodd" fill="#989FA5" stroke="#DCDDDD" stroke-width="0.1221" stroke-miterlimit="22.9256" width="0.83" height="2.69"/>
		
			<line fill-rule="evenodd" clip-rule="evenodd" fill="none" stroke="#DCDDDD" stroke-width="0.5649" stroke-miterlimit="22.9256" x1="168.87" y1="30.75" x2="171.21" y2="30.72"/>
	</g>
	<g>
		<path fill-rule="evenodd" clip-rule="evenodd" fill="#DCDDDD" d="M169.83,302.9c41.54,0.3,65.4,7.2,76,11.66    c-8,3.76-34.18,11.58-76,11.66c-41.82,0.08-69.02-8.25-76-11.66C101.67,310.92,128.29,302.6,169.83,302.9z"/>
		<path fill-rule="evenodd" clip-rule="evenodd" fill="#DCDDDD" d="M245.89,314.69l-0.13-0.27l0.01,0.28l-1.03-0.42l-1.11-0.44    l-1.19-0.45l-1.27-0.46l-1.35-0.47l-1.43-0.47l-1.51-0.48l-1.6-0.48l-1.68-0.48l-1.77-0.48l-1.85-0.48l-1.94-0.47l-2.03-0.47    l-2.11-0.46l-2.2-0.45l-2.29-0.44l-2.38-0.43l-2.48-0.41l-2.57-0.4l-2.66-0.38l-2.75-0.36l-2.85-0.34l-2.95-0.32l-3.04-0.3    l-3.14-0.27l-3.24-0.24l-3.34-0.22l-3.44-0.19l-3.54-0.15l-3.64-0.12l-3.74-0.08l-3.84-0.05l0-0.3l3.84,0.05l3.74,0.08l3.64,0.12    l3.54,0.15l3.44,0.19l3.34,0.22l3.24,0.24l3.14,0.27l3.04,0.3l2.95,0.32l2.85,0.34l2.76,0.36l2.66,0.38l2.57,0.4l2.48,0.41    l2.39,0.43l2.3,0.44l2.21,0.45l2.12,0.46l2.03,0.47l1.94,0.47l1.86,0.48l1.77,0.48l1.69,0.48l1.6,0.48l1.52,0.48l1.44,0.47    l1.35,0.47l1.27,0.46l1.19,0.45l1.11,0.44l1.03,0.43L245.89,314.69L245.89,314.69z M245.89,314.42l0.31,0.13l-0.31,0.14    L245.89,314.42L245.89,314.42z M169.83,326.37l0-0.3l0,0l3.87-0.03l3.78-0.07l3.69-0.11l3.6-0.15l3.5-0.19l3.41-0.22l3.31-0.26    l3.22-0.29l3.12-0.31l3.03-0.34l2.93-0.36l2.83-0.39l2.74-0.41l2.64-0.42l2.54-0.44l2.44-0.45l2.34-0.46l2.24-0.47l2.14-0.48    l2.04-0.48l1.94-0.48l1.84-0.48l1.74-0.48l1.64-0.48l1.53-0.47l1.43-0.46l1.33-0.45l1.22-0.44l1.12-0.42l1.01-0.4l0.91-0.38    l0.8-0.36l0.13,0.27l-0.81,0.37l-0.91,0.39l-1.02,0.41l-1.12,0.42l-1.23,0.44l-1.33,0.45l-1.43,0.46l-1.54,0.47l-1.64,0.48    l-1.74,0.48l-1.84,0.48l-1.95,0.48l-2.05,0.48l-2.15,0.48l-2.25,0.47l-2.35,0.46l-2.45,0.45l-2.54,0.44l-2.64,0.42l-2.74,0.41    l-2.84,0.39l-2.93,0.36l-3.03,0.34l-3.13,0.31l-3.22,0.29l-3.32,0.26l-3.41,0.22l-3.51,0.19l-3.6,0.15l-3.69,0.11l-3.78,0.07    L169.83,326.37L169.83,326.37L169.83,326.37z M93.77,314.42l0.13,0.27l0-0.27l0.71,0.33l0.83,0.36l0.94,0.38l1.06,0.4l1.17,0.42    l1.29,0.44l1.4,0.45l1.51,0.47l1.62,0.48l1.73,0.48l1.84,0.49l1.95,0.49l2.05,0.49l2.16,0.49l2.26,0.48l2.37,0.47l2.47,0.46    l2.57,0.45l2.67,0.43l2.77,0.42l2.87,0.4l2.96,0.37l3.06,0.35l3.15,0.32l3.25,0.29l3.34,0.26l3.43,0.23l3.52,0.19l3.61,0.15    l3.7,0.11l3.79,0.06l3.88,0.02l0,0.3l-3.88-0.02l-3.79-0.06l-3.71-0.11l-3.62-0.15l-3.53-0.19l-3.44-0.23l-3.34-0.26l-3.25-0.29    l-3.16-0.32l-3.06-0.35l-2.97-0.38l-2.87-0.4l-2.77-0.42l-2.67-0.44l-2.57-0.45l-2.47-0.46l-2.37-0.47l-2.27-0.48l-2.16-0.49    l-2.06-0.49l-1.95-0.49l-1.84-0.49l-1.74-0.48l-1.63-0.48l-1.52-0.47l-1.4-0.46l-1.29-0.44l-1.18-0.43l-1.07-0.41l-0.95-0.38    l-0.83-0.36l-0.72-0.34L93.77,314.42L93.77,314.42z M93.76,314.69l-0.28-0.14l0.29-0.13L93.76,314.69L93.76,314.69z     M169.83,302.75l0,0.3l0,0l-3.85,0l-3.76,0.04l-3.67,0.09l-3.58,0.13l-3.49,0.17l-3.4,0.21l-3.31,0.25l-3.22,0.28l-3.12,0.31    l-3.03,0.34l-2.94,0.37l-2.84,0.39l-2.74,0.41l-2.65,0.43l-2.55,0.45l-2.45,0.46l-2.35,0.47l-2.25,0.48l-2.15,0.49l-2.05,0.49    l-1.95,0.49l-1.85,0.49l-1.75,0.49l-1.64,0.49l-1.54,0.48l-1.43,0.47l-1.33,0.45l-1.22,0.44l-1.11,0.42l-1.01,0.4l-0.9,0.38    l-0.79,0.35l-0.13-0.27l0.79-0.36l0.9-0.38l1.01-0.4l1.12-0.42l1.23-0.44l1.33-0.46l1.44-0.47l1.54-0.48l1.65-0.49l1.75-0.49    l1.85-0.5l1.96-0.5l2.06-0.49l2.16-0.49l2.26-0.48l2.36-0.47l2.46-0.46l2.55-0.45l2.65-0.43l2.75-0.41l2.84-0.39l2.94-0.37    l3.03-0.34l3.13-0.31l3.22-0.28l3.31-0.25l3.4-0.21l3.5-0.17l3.59-0.13l3.68-0.09l3.76-0.04L169.83,302.75L169.83,302.75z"/>
	</g>
</g>
<g id="图层_x0020_1">
	<path fill="#F08300" d="M157.97,29.96c0.416,1.136,1.472,1.984,2.752,2.032c0.144,0,0.304,0,0.448-0.016h0.016   c0.016,0,0.064,0,0.128-0.016c0.032,0,0.048-0.016,0.08-0.016c0.064-0.016,0.144-0.032,0.224-0.048c0.016,0,0.016,0,0.032,0   c0.192-0.048,0.4-0.112,0.576-0.208c0.192-0.096,0.4-0.224,0.608-0.384c0.672-0.56,1.104-1.408,1.104-2.352   c0-0.224-0.032-0.448-0.08-0.672l0,0C163.81,28.08,163.76,27.91,163.68,27.73C163.21,26.64,162.13,25.88,160.86,25.88C159.17,25.88,157.79,27.25,157.79,28.95C157.79,29.3,157.85,29.64,157.97,29.96L157.97,29.96L157.97,29.96z M162.27,28.98L162.27,28.98C162.24,29.76,161.58,30.36,160.8,30.32C160.01,30.29,159.42,29.64,159.45,28.85c0.032-0.784,0.688-1.376,1.472-1.344   C161.69,27.54,162.3,28.21,162.27,28.98L162.27,28.98z"/>
	<polygon fill="#F08300" points="176.3,26.56 ,175.66,28.15 ,174.22,28.15 ,172.8,31.7 ,170.85,31.7 ,172.25,28.15 ,170.67,28.15    ,171.31,26.56"/>
	<path fill="#F08300" d="M178.27,21.83c-1.008-0.096-3.024-0.144-5.056,0.112c-2.416,0.304-5.152,0.912-7.616,1.664   C163.55,24.21,161.68,24.93,160.33,25.7C160.53,25.67,160.72,25.65,160.91,25.65c0.48,0,0.944,0.112,1.36,0.288   C166.37,23.62,173.57,21.57,178.27,21.83L178.27,21.83L178.27,21.83z"/>
	<path fill="#F08300" d="M163.74,27.3c4-2.368,8.88-4.672,13.488-5.248c-4.608,0.288-10.224,2-14.288,4.304   C163.26,26.61,163.53,26.93,163.74,27.3C163.74,27.3,163.74,27.3,163.74,27.3z"/>
	<polygon fill="#F08300" points="181.79,26.56 ,181.17,28.15 ,179.71,28.15 ,178.3,31.7 ,177.84,31.7 ,176.33,31.7 ,174.64,31.7    ,175.23,30.2 ,176.94,30.2 ,177.76,28.15 ,176.17,28.15 ,176.81,26.56"/>
	<polygon fill="#F08300" points="170.88,26.56 ,170.24,28.15 ,167.95,30.26 ,170.21,30.26 ,169.63,31.7 ,164.14,31.7 ,167.81,28.15    ,165.23,28.15 ,165.87,26.56"/>
	<path fill="#F08300" d="M176.16,22.42c-3.376,0.752-6.464,2.192-9.424,3.952h1.888C171.05,24.8,173.39,23.37,176.16,22.42z    M165.36,27.24C164.73,27.62,164.67,27.67,164.06,28.08c0.064,0.256,0.112,0.544,0.112,0.816c0,0.496-0.112,0.976-0.32,1.392   c0.176-0.16,0.32-0.304,0.432-0.4c0.272-0.24,0.768-0.64,1.6-1.296l0.32-0.256H164.88l0,0L165.36,27.24L165.36,27.24L165.36,27.24z"/>
</g>
</svg>