<?xml version="1.0" encoding="utf-8"?>
<!-- Generator: Adobe Illustrator 22.0.0, SVG Export Plug-In . SVG Version: 6.00 Build 0)  -->
<svg xmlns="http://www.w3.org/2000/svg" xmlns:xlink="http://www.w3.org/1999/xlink" version="1.1" id="图层_1" x="0px" y="0px" width="378px" height="498px" viewBox="0 0 378 498" enable-background="new 0 0 378 498" xml:space="preserve">
<g>
	<path fill="#DCDDDD" d="M201.38,178.76L201.38,178.76l-0.45,0.06L201.38,178.76L201.38,178.76z M195.48,179.41   c-2.09,0.18-4.2,0.32-6.34,0.41c-1.09-0.07-2.14-0.15-3.19-0.24c-2.27-4.19-5.74-9.7-10.8-15.81   c-11.12-13.42-27.68-28.01-27.68-44.92c0-14.42,0.19-70.13,26.88-86.22c4.61-2.78,10-4.38,16.32-4.38s11.71,1.61,16.32,4.38   c26.69,16.09,26.88,71.8,26.88,86.22c0,16.91-16.56,31.49-27.68,44.92C201.18,169.8,197.76,175.24,195.48,179.41L195.48,179.41z    M185.93,179.58c-0.35-0.03-0.69-0.06-1.03-0.1C185.24,179.51,185.59,179.55,185.93,179.58L185.93,179.58z M184.32,179.42   c-1.48-0.16-2.91-0.35-4.31-0.56v0.01C181.41,179.08,182.85,179.26,184.32,179.42z"/>
	<path fill="#0097DC" stroke="#DCDDDD" stroke-width="0.4" stroke-miterlimit="22.9256" d="M373.89,369.76   c-5.74,27.97-12.99,63.76-11.04,71.03c0.42,1.57,1.63,16.45-1.05,19.35s-1.51,4.93-1.49,7.71s-2.99,3.83-3.8,5.85   c-0.81,2.03-0.99,7.64-4.63,7.19c-9.56-1.19-20.19-3.13-31.96-4.6c-4.28-0.53-3.51-4.91-3.14-7.87s1.86-7.65-0.49-9.98   c-2.34-2.33-1.74-13.49,0.79-15.78c2.53-2.29,2.29-46.06,1.64-57.61c-0.64-11.55,4.61-35.93,4.65-42.86   c0.04-6.93-7.6-19.55-11.19-28.48c-3.59-8.93-5.63-15.75-9.35-19.31v-0.58c-7.24-40.06,0.02-76.54,10.45-116.03   c0,0,31.11,15.23,41.47,59.29c5.38,22.9,19.91,64.29,22.19,93.02C377.55,337.8,379.63,341.8,373.89,369.76z"/>
	<path fill="#0097DC" stroke="#DCDDDD" stroke-width="0.4" stroke-miterlimit="22.9256" d="M348.15,497.22l-28.49-3.99l1.08-16.84   c11.44,1.46,21.8,3.33,31.14,4.5c0.05,0.01,0.09,0.01,0.14,0.01l0,0l0,0L348.15,497.22z"/>
	<path fill="#0097DC" stroke="#DCDDDD" stroke-width="0.4" stroke-miterlimit="22.9256" d="M4.11,369.76   c5.74,27.97,12.99,63.76,11.04,71.03c-0.42,1.57-1.63,16.45,1.05,19.35s1.51,4.93,1.49,7.71s2.99,3.83,3.8,5.85   c0.81,2.03,0.99,7.64,4.63,7.19c9.56-1.19,20.19-3.13,31.96-4.6c4.28-0.53,3.51-4.91,3.14-7.87s-1.86-7.65,0.49-9.98   c2.34-2.33,1.74-13.49-0.79-15.78c-2.53-2.29-2.29-46.06-1.64-57.61c0.64-11.55-4.61-35.93-4.65-42.86s7.6-19.55,11.19-28.48   c3.59-8.93,5.63-15.76,9.35-19.31c8.36-40.32-0.7-78.63-10.45-116.62c0,0-31.11,15.23-41.47,59.29   c-5.38,22.9-19.91,64.29-22.19,93.02C0.44,337.8-1.63,341.8,4.11,369.76z"/>
	<path fill="#0097DC" stroke="#DCDDDD" stroke-width="0.4" stroke-miterlimit="22.9256" d="M29.85,497.22l28.49-3.99l-1.09-16.84   c-11.44,1.46-21.79,3.33-31.13,4.5c-0.05,0.01-0.09,0.01-0.14,0.01l0,0l0,0L29.85,497.22z"/>
	<path fill="#FFFFFF" stroke="#DCDDDD" stroke-width="0.4" stroke-miterlimit="22.9256" d="M206.99,2.31   c8.74,2.05,18.61,6,23.91,13.51c17.44,24.69,25.55,69.83,25.55,86.99c0,21.55-11.38,33.43-11.38,43.24c0,3.85,1.55,5.36,1.62,5.42   c-11.26,19.49-29.87,26.1-51.2,27.95c2.27-4.17,5.71-9.61,10.7-15.64c11.12-13.42,27.68-28.01,27.68-44.92   c0-14.42-0.19-70.13-26.88-86.22L206.99,2.31L206.99,2.31z M174.35,32.64c-26.69,16.09-26.88,71.8-26.88,86.22   c0,16.91,16.56,31.49,27.68,44.92c5.06,6.1,8.52,11.61,10.8,15.81c-37.92-3.45-47.59-25.56-51.3-28.11c0,0,1.62-1.49,1.62-5.42   c0-9.81-11.38-21.68-11.38-43.24c0-17.17,8.11-62.31,25.55-86.99c5.3-7.51,15.18-11.46,23.91-13.51L174.35,32.64L174.35,32.64z"/>
	<path fill="#FFFFFF" stroke="#DCDDDD" stroke-width="0.4" stroke-miterlimit="22.9256" d="M206.99,2.31v30.33   c-4.61-2.78-10-4.38-16.32-4.38s-11.71,1.61-16.32,4.38V2.31c7.44-1.74,14.06-2.11,16.32-2.11C192.93,0.2,199.54,0.56,206.99,2.31z   "/>
	<path fill="#FFFFFC" stroke="#DCDDDD" stroke-width="0.4" stroke-miterlimit="22.9256" d="M64.71,177.79l69.95-26.33   c3.81,2.62,13.91,25.89,54.49,28.36c23.96-1.09,45.19-6.96,57.55-28.36l66.61,26.33c-10.43,39.49-17.68,75.97-10.45,116.03   l-0.74,158.97c-0.3,8.19-1.4,14.86-3.89,18.85H78.18c-3.13-6.33-3.78-12.82-3.76-19.22c0.01-4.09,0.03-8.21,0.05-12.31l0.68-145.7   C83.51,254.09,74.46,215.79,64.71,177.79z"/>
	<path fill="#0097DF" d="M130.43,153.06c-6.86,30.64-2.31,46.75-0.33,59.56c4.66,30,13.44,47.86,3.36,81.86   c-0.95-35.4-18.61-51.88-29.09-73.12c-2.62-5.3-4.93-10.89-6.7-16.99c-2.84-9.81-5.22-23.86-6.97-36.35L130.43,153.06z"/>
	<path d="M132.88,323.21c8.6,48.94,30.96,75.78-5.32,124.32C152.01,396.18,130.38,365.36,132.88,323.21z"/>
	<path fill="#0097DF" d="M139.06,301.37c2,35.56,18.9,60.66,14.08,88.89C152.95,362.55,134.02,336.84,139.06,301.37z"/>
	<path fill="#0097DF" d="M74.93,460.78c15.28-19.51,20.17-36.01,23.17-54.21c-5.14,62.82,17.37,44.23,32.91,0.72   c-3.63,26.9-8.91,46.12-22.83,64.36H78.18C76.42,468.06,75.43,464.42,74.93,460.78z"/>
	<path fill="#0097DF" d="M247.26,151.69c7.31,31.53,2.66,47.93,0.64,60.93c-4.66,30-13.44,47.86-3.36,81.86   c0.95-35.4,18.61-51.88,29.09-73.12c2.62-5.3,4.93-10.89,6.7-16.99c2.88-9.93,5.28-24.21,7.04-36.82L247.26,151.69z"/>
	<path d="M245.12,323.21c-8.6,48.94-30.96,75.78,5.32,124.32C225.98,396.18,247.62,365.36,245.12,323.21z"/>
	<path fill="#0097DF" d="M238.93,301.37c-2,35.56-18.9,60.66-14.08,88.89C225.04,362.55,243.96,336.84,238.93,301.37z"/>
	<path fill="#0097DF" d="M301.68,458.99c-14.2-18.73-18.88-34.77-21.79-52.42c5.14,62.82-17.37,44.23-32.91,0.72   c3.63,26.9,8.91,46.12,22.83,64.36h28.39C300.04,468.71,301.13,464.34,301.68,458.99z"/>
	<path fill="#DCDDDD" stroke="#DCDDDD" stroke-width="0.3345" stroke-miterlimit="22.9256" d="M203.01,175.14l-1.55,19.66l2.71,3.48   l-5.8,1.16l1.38-3.26l1.33-20.66C201.07,175.53,202.29,171.7,203.01,175.14z"/>
	<path fill="#DCDDDD" stroke="#DCDDDD" stroke-width="0.3345" stroke-miterlimit="22.9256" d="M178.43,176.46l1.55,19.66l-2.71,3.48   l5.8,1.16l-1.38-3.26l-1.33-20.66C180.38,176.85,179.15,173.02,178.43,176.46z"/>
	<polygon fill="#0097DA" stroke="#DCDDDD" stroke-width="0.4" stroke-miterlimit="22.9256" points="78.18,471.64 298.21,471.64    296.8,497.22 81.58,497.22  "/>
	
		<linearGradient id="SVGID_1_" gradientUnits="userSpaceOnUse" x1="265.5624" y1="1057.79" x2="265.5624" y2="932.9432" gradientTransform="matrix(1 0 0 1 0 -687.96)">
		<stop offset="0" style="stop-color:#FFFFFF"/>
		<stop offset="1" style="stop-color:#0097DF"/>
	</linearGradient>
	<path fill="url(#SVGID_1_)" d="M257.59,241.63c3.61,23.6,4.53,39.29,3.99,51.32c-1.25,27.78-8.43,36.02-10.17,76.88   c18.29-56.46,39.49-48.84,21.41-161.83l-14.66,11.5L257.59,241.63z"/>
	
		<linearGradient id="SVGID_2_" gradientUnits="userSpaceOnUse" x1="8186.0767" y1="1056.09" x2="8186.0767" y2="931.2432" gradientTransform="matrix(-1 0 0 1 8298.2041 -687.96)">
		<stop offset="0" style="stop-color:#FFFFFF"/>
		<stop offset="1" style="stop-color:#0097DF"/>
	</linearGradient>
	<path fill="url(#SVGID_2_)" d="M120.1,239.93c-3.61,23.6-4.53,39.29-3.99,51.32c1.25,27.78,8.43,36.02,10.17,76.88   c-18.29-56.46-39.49-48.84-21.41-161.83l14.66,11.5L120.1,239.93z"/>
	<path fill="none" stroke="#DCDDDD" stroke-width="0.3345" stroke-miterlimit="22.9256" d="M173.02,177.47   c-1.76-2.75-3.61-5.32-5.4-7.48c-12.34-14.9-29.93-30.19-29.93-51.13c0-16.8,1.04-33.88,4.86-50.29   c5.77-24.74,19.2-50.07,48.11-50.07 M208.23,177.61c1.79-2.8,3.67-5.42,5.49-7.62c12.34-14.89,29.92-30.19,29.92-51.13   c0-16.8-1.04-33.88-4.86-50.29c-5.77-24.74-19.2-50.07-48.11-50.07"/>
	<polyline fill="none" stroke="#DCDDDD" stroke-width="0.3345" stroke-miterlimit="22.9256" points="112.03,471.64 108.51,441.13    145.74,377.23 232.85,377.23 269.47,441.13 265.97,471.64  "/>
	<path d="M282.14,165.48c-20.81,48.87-4.63,102.77,20.64,143.55l0.07-15.2c-7.24-40.06,0.02-76.54,10.45-116.03L282.14,165.48z"/>
	<path d="M96.07,165.99c20.52,48.82,4.27,102.6-20.99,143.26l0.07-14.84c8.36-40.32-0.7-78.63-10.45-116.62L96.07,165.99z"/>
	
</g>
<g id="图层_x0020_1">
	<path fill="#F08300" d="M178.54,154.02c0.416,1.136,1.472,1.984,2.752,2.032c0.144,0,0.304,0,0.448-0.016h0.016   c0.016,0,0.064,0,0.128-0.016c0.032,0,0.048-0.016,0.08-0.016c0.064-0.016,0.144-0.032,0.224-0.048c0.016,0,0.016,0,0.032,0   c0.192-0.048,0.4-0.112,0.576-0.208c0.192-0.096,0.4-0.224,0.608-0.384c0.672-0.56,1.104-1.408,1.104-2.352   c0-0.224-0.032-0.448-0.08-0.672l0,0C184.38,152.14,184.33,151.97,184.25,151.79C183.78,150.7,182.7,149.94,181.43,149.94C179.74,149.94,178.36,151.31,178.36,153.01C178.36,153.36,178.42,153.7,178.54,154.02L178.54,154.02L178.54,154.02z M182.84,153.04L182.84,153.04C182.81,153.82,182.15,154.42,181.37,154.38C180.58,154.35,179.99,153.7,180.02,152.91c0.032-0.784,0.688-1.376,1.472-1.344   C182.26,151.6,182.87,152.27,182.84,153.04L182.84,153.04z"/>
	<polygon fill="#F08300" points="196.87,150.62 ,196.23,152.21 ,194.79,152.21 ,193.37,155.76 ,191.42,155.76 ,192.82,152.21 ,191.24,152.21    ,191.88,150.62"/>
	<path fill="#F08300" d="M198.84,145.89c-1.008-0.096-3.024-0.144-5.056,0.112c-2.416,0.304-5.152,0.912-7.616,1.664   C184.12,148.27,182.25,148.99,180.9,149.76C181.1,149.73,181.29,149.71,181.48,149.71c0.48,0,0.944,0.112,1.36,0.288   C186.94,147.68,194.14,145.63,198.84,145.89L198.84,145.89L198.84,145.89z"/>
	<path fill="#F08300" d="M184.31,151.36c4-2.368,8.88-4.672,13.488-5.248c-4.608,0.288-10.224,2-14.288,4.304   C183.83,150.67,184.1,150.99,184.31,151.36C184.31,151.36,184.31,151.36,184.31,151.36z"/>
	<polygon fill="#F08300" points="202.36,150.62 ,201.74,152.21 ,200.28,152.21 ,198.87,155.76 ,198.41,155.76 ,196.9,155.76 ,195.21,155.76    ,195.8,154.26 ,197.51,154.26 ,198.33,152.21 ,196.74,152.21 ,197.38,150.62"/>
	<polygon fill="#F08300" points="191.45,150.62 ,190.81,152.21 ,188.52,154.32 ,190.78,154.32 ,190.2,155.76 ,184.71,155.76 ,188.38,152.21    ,185.8,152.21 ,186.44,150.62"/>
	<path fill="#F08300" d="M196.73,146.48c-3.376,0.752-6.464,2.192-9.424,3.952h1.888C191.62,148.86,193.96,147.43,196.73,146.48z    M185.93,151.3C185.3,151.68,185.24,151.73,184.63,152.14c0.064,0.256,0.112,0.544,0.112,0.816c0,0.496-0.112,0.976-0.32,1.392   c0.176-0.16,0.32-0.304,0.432-0.4c0.272-0.24,0.768-0.64,1.6-1.296l0.32-0.256H185.45l0,0L185.93,151.3L185.93,151.3L185.93,151.3z"/>
</g>
</svg>