<?xml version="1.0" encoding="utf-8"?>
<!-- Generator: Adobe Illustrator 22.0.0, SVG Export Plug-In . SVG Version: 6.00 Build 0)  -->
<svg xmlns="http://www.w3.org/2000/svg" xmlns:xlink="http://www.w3.org/1999/xlink" version="1.1" id="图层_1" x="0px" y="0px" width="378px" height="498px" viewBox="0 0 378 498" enable-background="new 0 0 378 498" xml:space="preserve">
<g>
	<path stroke="#DCDDDD" stroke-width="0.3481" stroke-miterlimit="10" d="M64.6,177.96l69.94-26.36   c3.83,2.63,13.91,25.95,54.51,28.39c23.97-1.08,45.18-6.96,57.55-28.39l66.62,26.36c-10.4,39.53-17.67,76.04-10.43,116.17   l-0.74,159.11c-0.32,8.2-1.42,14.87-3.92,18.86H78.07c-3.13-6.33-3.79-12.82-3.76-19.24c0-4.08,0.03-8.2,0.06-12.31l0.66-145.85   C83.4,254.35,74.33,216,64.6,177.96L64.6,177.96z"/>
	<g>
		
			<linearGradient id="SVGID_1_" gradientUnits="userSpaceOnUse" x1="-1885.1962" y1="1210.9633" x2="-1808.2096" y2="1131.2415" gradientTransform="matrix(1 0 0 1 1992.9707 -844.4715)">
			<stop offset="0" style="stop-color:#0039A6"/>
			<stop offset="1" style="stop-color:#FFFFFF"/>
		</linearGradient>
		<path fill="url(#SVGID_1_)" d="M99.1,368.51l28.09-78.61c12.73-12.59,35.6-15.2,55.51-14.12c-43.34,15.06-56.41,46.97-65.1,81.36    c10.97-28.17,32.21-66.35,68.97-68.1c0.83-0.04,1.61-0.07,2.35-0.09v50.01c-46.27,1.09-69.4,23.3-89.48,45.48L99.1,368.51z"/>
		
			<linearGradient id="SVGID_2_" gradientUnits="userSpaceOnUse" x1="-1983.7891" y1="1210.9667" x2="-1906.8013" y2="1131.2434" gradientTransform="matrix(-1 0 0 1 -1713.7404 -844.4715)">
			<stop offset="0" style="stop-color:#0039A6"/>
			<stop offset="1" style="stop-color:#FFFFFF"/>
		</linearGradient>
		<path fill="url(#SVGID_2_)" d="M278.73,368.51l-28.09-78.61c-12.73-12.59-35.6-15.2-55.51-14.12    c43.34,15.06,56.41,46.97,65.1,81.36c-10.97-28.17-32.21-66.35-68.97-68.1c-0.83-0.04-1.61-0.07-2.35-0.09v50.01    c46.27,1.09,69.4,23.3,89.48,45.48L278.73,368.51z"/>
	</g>
	<path fill="#000002" stroke="#DCDDDD" stroke-width="0.3481" stroke-miterlimit="10" d="M4.17,370.14   c5.72,27.97,12.96,63.8,11.03,71.08c-0.41,1.58-1.64,16.49,1.04,19.37c2.69,2.91,1.52,4.94,1.49,7.72s3,3.83,3.79,5.85   c0.82,2.06,1.01,7.66,4.65,7.22c9.55-1.2,20.2-3.13,31.97-4.62c4.27-0.54,3.51-4.91,3.13-7.88c-0.35-2.94-1.87-7.66,0.51-9.97   c2.34-2.34,1.74-13.51-0.79-15.79c-2.53-2.31-2.31-46.11-1.64-57.69c0.63-11.55-4.62-35.95-4.68-42.88   c-0.03-6.96,7.62-19.59,11.19-28.51c3.6-8.96,5.63-15.79,9.36-19.34v-0.57c7.24-40.13,0-76.65-10.43-116.17   c0,0-31.14,15.25-41.48,59.37c-5.41,22.91-19.92,64.34-22.2,93.1C0.5,338.15-1.58,342.14,4.17,370.14L4.17,370.14z"/>
	<path fill="#0039A1" d="M47.81,271.03c-12.05,35.98-15.71,61.3-16.98,89.56c-2.06,45.6,7.24,84.21,15.56,117.82   c3.79-0.57,7.71-1.14,11.76-1.65c4.27-0.54,3.51-4.91,3.13-7.88c-0.35-2.94-1.87-7.66,0.51-9.97c2.34-2.34,1.74-13.51-0.79-15.79   c-1.23-1.11-1.8-11.8-1.99-23.86c-1.42-5.38-2.78-10.54-3-11.36c-3.13-12.47-5.75-26.99-7.34-43.77   C46.16,337.77,43.38,309.48,47.81,271.03L47.81,271.03z"/>
	<path fill="#FFFFFA" d="M58.27,250.71c-5.38,37.63-10.02,121.14-1.93,163.58c0.73,3.83,1.71,7.69,2.78,11.52   c-0.44-14.3-0.19-33.32,0.22-40.38c0.63-11.55-4.62-35.95-4.68-42.88c-0.03-6.77,7.21-18.89,10.91-27.78   C62.45,294.6,59.76,272.74,58.27,250.71L58.27,250.71z"/>
	<path fill="#0039A1" d="M60.45,257.39c1.3,17.12,3.64,35.66,6.55,53.77c2.94-7.53,4.9-13.29,8.22-16.46v-0.57   c0.82-4.62,1.45-9.15,1.93-13.67C70.89,275.77,65.19,268.62,60.45,257.39L60.45,257.39z"/>
	<path fill="#FFFFFA" d="M46.89,270.58c-6.04,18.07-9.99,33.45-12.58,47.88c-2.59,14.4-3.83,27.85-4.46,42.06   c-2.06,45.73,7.21,84.4,15.56,118.04l1.96-0.32c-8.32-33.54-17.62-72.12-15.56-117.62c0.63-14.05,1.87-27.37,4.43-41.68   c2.15-11.9,5.22-24.49,9.64-38.7c-2.97,33.42-0.57,59.02,1.71,82.97l0.09,1.04c2.02,21.3,5.66,38.96,9.99,53.48v-0.16v-0.16   l-0.03-0.44l-0.03-0.16v-0.16v-0.16l-0.03-0.16v-0.13v-0.16l-0.03-0.16v-0.16l-0.03-0.28v-0.16v-0.16l-0.03-0.16v-0.16v-0.13   l-0.03-0.16v-0.16v-0.16l-0.03-0.16v-0.13l-0.03-0.28v-0.03v-0.16v-0.16l-0.03-0.13v-0.16v-0.16l-0.03-0.16v-0.13v-0.16l-0.03-0.47   v-0.13l-0.03-0.16v-0.16v-0.16l-0.03-0.16V411v-0.16v-0.16l-0.03-0.32v-0.13l-0.03-0.16v-0.16v-0.16v-0.13l-0.03-0.16v-0.16v-0.16   l-0.03-0.16v-0.13v-0.32H57.1v-0.16v-0.16v-0.13l-0.03-0.16c-3.16-12.5-5.82-27.12-7.4-44.05l-0.13-1.04   c-2.43-26.01-5.09-53.99-0.73-91.77l1.08-9.46L46.89,270.58z"/>
	<path fill="#FFFFFA" d="M59.51,257.48c1.17,15.66,3.19,32.5,5.79,49.11c0.32,2.12,0.66,4.24,1.01,6.36   c0.47-1.23,0.95-2.44,1.39-3.58c-0.16-1.08-0.35-2.12-0.51-3.2c-2.24-14.56-4.11-29.27-5.31-43.23   c4.46,8.86,9.58,14.78,15.15,18.86c0.09-0.89,0.19-1.77,0.25-2.63c-5.98-4.62-11.41-11.55-15.97-22.31l-2.31-5.47L59.51,257.48z"/>
	<path fill="#DCDDDD" d="M201.29,178.94L201.29,178.94l-0.44,0.06L201.29,178.94z M195.37,179.57c2.28-4.18,5.72-9.62,10.72-15.63   c11.13-13.45,27.7-28.04,27.7-44.97c0-14.43-0.19-70.19-26.91-86.3c-4.58-2.78-9.99-4.4-16.32-4.4s-11.7,1.61-16.32,4.4   c-26.69,16.11-26.88,71.87-26.88,86.3c0,16.93,16.57,31.52,27.7,44.97c5.06,6.11,8.51,11.61,10.78,15.82   c1.04,0.09,2.12,0.16,3.19,0.22C191.2,179.89,193.29,179.76,195.37,179.57L195.37,179.57z M185.82,179.76   c-0.35-0.03-0.66-0.06-1.01-0.13C185.15,179.7,185.48,179.73,185.82,179.76L185.82,179.76z M184.24,179.6   c-1.49-0.16-2.91-0.35-4.3-0.57l0,0C181.32,179.26,182.76,179.45,184.24,179.6L184.24,179.6z"/>
	<path fill="#000002" stroke="#DCDDDD" stroke-width="0.3481" stroke-miterlimit="10" d="M373.83,370.14   c-5.72,27.97-12.96,63.8-11.03,71.08c0.41,1.58,1.64,16.49-1.04,19.37c-2.69,2.91-1.52,4.94-1.49,7.72s-3,3.83-3.79,5.85   c-0.82,2.06-1.01,7.66-4.65,7.22c-9.55-1.2-20.2-3.13-31.97-4.62c-4.27-0.54-3.51-4.91-3.13-7.88c0.35-2.94,1.87-7.66-0.51-9.97   c-2.34-2.34-1.74-13.51,0.79-15.79c2.53-2.31,2.31-46.11,1.64-57.69c-0.63-11.55,4.62-35.95,4.68-42.88   c0.03-6.96-7.62-19.59-11.19-28.51c-3.6-8.96-5.63-15.79-9.36-19.34v-0.57c-7.24-40.13,0-76.65,10.43-116.17   c0,0,31.14,15.25,41.48,59.37c5.41,22.91,19.92,64.34,22.2,93.1C377.49,338.15,379.58,342.14,373.83,370.14L373.83,370.14z"/>
	<path fill="#0039A1" d="M330.2,271.03c12.05,35.98,15.71,61.3,16.98,89.56c2.06,45.6-7.24,84.21-15.56,117.82   c-3.79-0.57-7.71-1.14-11.76-1.65c-4.27-0.54-3.51-4.91-3.13-7.88c0.35-2.94,1.87-7.66-0.51-9.97c-2.34-2.34-1.74-13.51,0.79-15.79   c1.23-1.11,1.8-11.8,1.99-23.86c1.42-5.38,2.78-10.54,3-11.36c3.13-12.47,5.75-26.99,7.34-43.77   C331.83,337.77,334.61,309.48,330.2,271.03L330.2,271.03z"/>
	<path fill="#FFFFFA" d="M319.73,250.71c5.38,37.63,10.02,121.14,1.93,163.58c-0.73,3.83-1.71,7.69-2.78,11.52   c0.44-14.3,0.19-33.32-0.22-40.38c-0.63-11.55,4.62-35.95,4.68-42.88c0.03-6.77-7.21-18.89-10.91-27.78   C315.55,294.6,318.24,272.74,319.73,250.71L319.73,250.71z"/>
	<path fill="#0039A1" d="M317.55,257.39c-1.3,17.12-3.64,35.66-6.55,53.77c-2.94-7.53-4.9-13.29-8.22-16.46v-0.57   c-0.82-4.62-1.45-9.15-1.93-13.67C307.11,275.78,312.8,268.62,317.55,257.39L317.55,257.39z"/>
	<path fill="#FFFFFA" d="M331.11,270.59c6.04,18.07,9.99,33.45,12.58,47.88c2.59,14.4,3.83,27.85,4.46,42.06   c2.06,45.73-7.21,84.4-15.56,118.04l-1.96-0.32c8.32-33.54,17.61-72.12,15.56-117.63c-0.63-14.05-1.87-27.37-4.43-41.68   c-2.15-11.9-5.22-24.49-9.64-38.7c2.97,33.42,0.57,59.02-1.71,82.97l-0.09,1.04c-2.02,21.3-5.66,38.96-9.99,53.48v-0.16v-0.16   l0.03-0.44l0.03-0.16v-0.16v-0.16l0.03-0.16v-0.13v-0.16l0.03-0.16v-0.16l0.03-0.28v-0.16v-0.16l0.03-0.16v-0.16v-0.13l0.03-0.16   v-0.16v-0.16l0.03-0.16v-0.13l0.03-0.28v-0.03v-0.16v-0.16l0.03-0.13v-0.16v-0.16l0.03-0.16v-0.13v-0.16l0.03-0.47v-0.13l0.03-0.16   v-0.16v-0.16l0.03-0.16V411v-0.16v-0.16l0.03-0.32v-0.13l0.03-0.16v-0.16v-0.16v-0.13l0.03-0.16v-0.16v-0.16l0.03-0.16v-0.13v-0.32   h0.03v-0.16v-0.16v-0.13l0.03-0.16c3.16-12.5,5.82-27.12,7.4-44.05l0.13-1.04c2.43-26.01,5.09-53.99,0.73-91.77l-1.08-9.46   L331.11,270.59z"/>
	<path fill="#FFFFFA" d="M318.49,257.48c-1.17,15.66-3.19,32.5-5.79,49.11c-0.32,2.12-0.66,4.24-1.01,6.36   c-0.47-1.23-0.95-2.44-1.39-3.58c0.16-1.08,0.35-2.12,0.51-3.2c2.24-14.56,4.11-29.27,5.31-43.23   c-4.46,8.86-9.58,14.78-15.15,18.86c-0.09-0.89-0.19-1.77-0.25-2.63c5.98-4.62,11.41-11.55,15.97-22.31l2.31-5.47L318.49,257.48z"/>
	
		<linearGradient id="SVGID_3_" gradientUnits="userSpaceOnUse" x1="321.0407" y1="-380.4069" x2="349.3528" y2="-424.6123" gradientTransform="matrix(1 0 0 -1 0 -190.1102)">
		<stop offset="0" style="stop-color:#FFFFFF"/>
		<stop offset="1" style="stop-color:#0039A1"/>
	</linearGradient>
	<path fill="url(#SVGID_3_)" d="M351.02,224.98c-7.53,6.68-3.98,18.54-3.04,24.08l-24.92-39.84c-5.44-8.16-5.63-17.25-2.02-26.14   c0.22,0.16,0.41,0.32,0.63,0.47c1.83,15.7,3.89,19.53,17.74,37.69c-5.44-7.75-12.43-21.23-13-33.67   C334.49,194.92,344.49,206.91,351.02,224.98L351.02,224.98z"/>
	
		<linearGradient id="SVGID_4_" gradientUnits="userSpaceOnUse" x1="815.6915" y1="-380.4034" x2="844.0034" y2="-424.6087" gradientTransform="matrix(-1 0 0 -1 872.6428 -190.1102)">
		<stop offset="0" style="stop-color:#FFFFFF"/>
		<stop offset="1" style="stop-color:#0039A1"/>
	</linearGradient>
	<path fill="url(#SVGID_4_)" d="M26.97,224.98c6.54-18.07,16.53-30.06,24.61-37.41c-0.57,12.44-7.56,25.92-13,33.67   c13.85-18.16,15.91-21.99,17.74-37.69c0.22-0.15,0.41-0.31,0.63-0.47c3.61,8.89,3.42,17.98-2.02,26.14l-24.92,39.84   C30.95,243.52,34.5,231.66,26.97,224.98L26.97,224.98z"/>
	<path fill="#000002" stroke="#DCDDDD" stroke-width="0.3481" stroke-miterlimit="10" d="M348.08,497.71l-28.49-3.99l1.08-16.87   c11.45,1.49,21.82,3.35,31.14,4.53c0.06,0,0.09,0,0.16,0l0,0l0,0L348.08,497.71z"/>
	<path fill="#000002" stroke="#DCDDDD" stroke-width="0.3481" stroke-miterlimit="10" d="M29.72,497.71l28.49-3.99l-1.08-16.84   c-11.45,1.46-21.82,3.32-31.14,4.49c-0.06,0-0.09,0-0.16,0l0,0l0,0L29.72,497.71z"/>
	<path fill="#000004" stroke="#DCDDDD" stroke-width="0.3481" stroke-miterlimit="10" d="M206.88,2.29   c8.76,2.06,18.62,6.01,23.94,13.51c17.45,24.72,25.55,69.91,25.55,87.09c0,21.58-11.38,33.48-11.38,43.29   c0,3.86,1.55,5.35,1.61,5.41c-11.26,19.53-29.88,26.14-51.22,27.97c2.28-4.18,5.72-9.62,10.72-15.63   c11.13-13.45,27.7-28.04,27.7-44.97c0-14.43-0.19-70.19-26.91-86.3L206.88,2.29L206.88,2.29z M174.24,32.67   c-26.69,16.11-26.88,71.87-26.88,86.3c0,16.93,16.57,31.52,27.7,44.97c5.06,6.11,8.51,11.61,10.78,15.82   c-37.91-3.45-47.59-25.6-51.32-28.16c0,0,1.64-1.49,1.64-5.41c0-9.81-11.41-21.71-11.41-43.29c0-17.18,8.13-62.37,25.58-87.09   c5.28-7.5,15.18-11.46,23.9-13.51v30.37C174.24,32.67,174.24,32.67,174.24,32.67z"/>
	<path fill="#000004" stroke="#DCDDDD" stroke-width="0.3481" stroke-miterlimit="10" d="M206.88,2.29v30.38   c-4.58-2.78-9.99-4.4-16.32-4.4s-11.7,1.61-16.32,4.4V2.29c7.46-1.74,14.07-2.12,16.32-2.12C192.84,0.17,199.45,0.55,206.88,2.29   L206.88,2.29z"/>
	<path fill="#0039A6" d="M77.33,286.82c8.98,10.76,20.62,13.45,36.9,8.73L86.1,327.2l-10.28-26.71l0.03-5.82   C76.39,292.04,76.9,289.41,77.33,286.82L77.33,286.82z"/>
	<path fill="#FFFFFF" d="M77.58,285.27c3.7,4.68,7.87,7.91,12.65,9.68c6.51,2.44,14.26,2.25,23.65-0.47l3.86-1.14l-32.06,36.08   c-3.29-8.58-6.58-17.12-9.9-25.66l0.06-8.42l0.38,2.94l10.31,26.71l24.31-27.41c-8.25,1.9-15.34,1.77-21.5-0.54   c-4.58-1.71-8.66-4.62-12.27-8.77C77.25,287.29,77.44,286.28,77.58,285.27L77.58,285.27z"/>
	<polygon fill="#FFFFFF" points="93.24,330.36 122.9,293.94 97.89,364.38 89.1,354.26  "/>
	<path fill="#0039A6" d="M97.92,397.8c12.46-15.6,32.82-32.78,51.48-40.66c-29.37,24.08-32.03,44.62-31.3,79.91   c0.25,11.84,1.23,24.27,3.41,35.03H100.2l-0.54-9.11v-36.23L97.92,397.8z"/>
	<path fill="#FFFFFF" d="M96.9,397.07c6.51-8.2,15.24-16.84,24.76-24.34c8.73-6.93,18.15-12.88,27.19-16.71l7.94-3.35l-6.58,5.38   c-14.48,11.87-22.35,22.85-26.53,35.19c-4.21,12.41-4.68,26.27-4.3,43.77c0.22,11.46,1.17,23.51,3.23,34.02   c0.06,0.35,0.16,0.7,0.22,1.04h-2.62l-0.13-0.63c-2.12-10.63-3.04-22.82-3.29-34.4c-0.38-17.75,0.13-31.8,4.43-44.53   c3.57-10.63,9.8-20.25,20.39-30.22c-6.2,3.39-12.39,7.63-18.28,12.28c-9.23,7.28-17.67,15.66-24.09,23.61l1.71,28.54v36.23   l0.54,9.11h-2.53c-0.16-3.04-0.38-6.08-0.6-9.11v-36.23l-1.74-29.27L96.9,397.07z"/>
	<path d="M111.76,472.07c-2.24-55.16-5.28-104.91-14.8-145.51c-4.58-19.56-11.95-36.17-18.34-48.13   c-0.76,5.41-1.68,10.82-2.78,16.27l-0.7,145.82c0,4.11-0.03,8.23-0.03,12.31c-0.03,6.42,0.63,12.91,3.73,19.24L111.76,472.07   L111.76,472.07z"/>
	<path fill="#0039A6" d="M111.19,458.21l-36.71-50.03l0.47-100.28l10.47-15.47c4.33,9.78,8.54,21.33,11.54,34.15   C105.69,363.75,108.96,408.56,111.19,458.21L111.19,458.21z"/>
	<path fill="#FFFFFF" d="M111.3,460.43l-36.8-50.35l0.03-4.11L111.11,456C111.17,457.45,111.24,458.94,111.3,460.43L111.3,460.43z    M75,305.68l9.87-14.59c0.38,0.85,0.76,1.74,1.17,2.63l-11.07,16.39L75,305.68z"/>
	<path fill="#FFFFFF" d="M110.07,472.07l-35.63-48.89l-0.06,17.37c-0.03,4.11-0.06,8.23-0.06,12.31   c-0.03,6.42,0.63,12.91,3.73,19.24L110.07,472.07L110.07,472.07z"/>
	<path fill="#FFFFFF" d="M110.57,472.07c-2.28-55.06-5.31-104.72-14.8-145.22c-4.3-18.32-11.03-34.02-17.07-45.7   c-0.13-0.22-1.11-2.09-1.23-2.31c0.19-1.36,0.32-2.75,0.51-4.11v-0.09c0.19,0.32,1.26,2.31,1.45,2.63   c6.48,12.06,14.07,28.99,18.75,49.02c9.55,40.7,12.58,90.54,14.83,145.76h-2.47L110.57,472.07L110.57,472.07z"/>
	<path fill="#FFFFFF" d="M189.18,364.67c-4.3,34.37-9.39,74.81-26.15,107.41h25.86h26.43C198.57,439.48,193.48,399.03,189.18,364.67   L189.18,364.67z"/>
	<path fill="#0039A6" d="M300.46,286.82c-8.98,10.76-20.62,13.45-36.9,8.73l28.11,31.65l10.31-26.71l-0.03-5.82   C301.42,292.04,300.92,289.41,300.46,286.82L300.46,286.82z"/>
	<path fill="#FFFFFF" d="M300.73,288.15c-3.67,4.24-7.75,7.18-12.39,8.92c-6.13,2.31-13.25,2.44-21.56,0.47l24.6,27.66l10.4-26.99   l0.19-1.46l0.03,6.55c-3.29,8.64-6.64,17.25-9.96,25.85l-31.78-35.76l3.57,1.04c9.45,2.75,17.26,2.94,23.87,0.47   c4.74-1.77,8.85-4.91,12.55-9.49C300.38,286.34,300.54,287.23,300.73,288.15L300.73,288.15z"/>
	<polygon fill="#FFFFFF" points="284.57,330.36 254.9,293.94 279.92,364.38 288.71,354.26  "/>
	<path fill="#0039A6" d="M279.86,397.8c-12.43-15.6-32.79-32.78-51.44-40.66c29.37,24.08,32.03,44.62,31.3,79.91   c-0.25,11.84-1.23,24.27-3.41,35.03h21.31l0.54-9.11v-36.23L279.86,397.8z"/>
	<path fill="#FFFFFF" d="M278.55,398.18c-6.42-7.94-14.86-16.33-24.09-23.61c-5.88-4.65-12.11-8.89-18.28-12.28   c10.59,9.97,16.82,19.59,20.39,30.22c4.3,12.72,4.81,26.77,4.43,44.53c-0.25,11.58-1.17,23.77-3.29,34.4l-0.13,0.63h-2.62   c0.06-0.35,0.16-0.7,0.22-1.08c2.06-10.47,3-22.53,3.23-33.99c0.38-17.53-0.09-31.36-4.3-43.77   c-4.17-12.34-12.05-23.32-26.56-35.19l-6.55-5.38l7.94,3.35c9.04,3.83,18.47,9.78,27.19,16.68c9.52,7.53,18.21,16.17,24.76,24.37   l0.28,0.35l-1.74,29.3v36.23c-0.22,3.01-0.44,6.08-0.6,9.11h-2.53l0.54-9.11v-36.23L278.55,398.18z"/>
	<path d="M266.01,472.07c2.28-55.16,5.31-104.91,14.83-145.51c4.58-19.56,11.95-36.17,18.34-48.13c0.76,5.41,1.68,10.82,2.78,16.27   l0.7,145.82c0,4.11,0.03,8.23,0.03,12.31c0.03,6.42-0.63,12.91-3.73,19.24L266.01,472.07L266.01,472.07z"/>
	<path fill="#0039A6" d="M266.61,458.21l35.89-49.11l0.22-100.82l-10.34-15.85c-4.33,9.78-8.54,21.33-11.54,34.15   C272.11,363.75,268.86,408.56,266.61,458.21L266.61,458.21z"/>
	<path fill="#FFFFFF" d="M266.71,456l35.79-48.96v4.11l-35.98,49.27C266.58,458.94,266.64,457.45,266.71,456L266.71,456z    M302.71,310.05l-10.94-16.33c0.41-0.89,0.79-1.77,1.17-2.63l9.77,14.49V310.05z"/>
	<path fill="#FFFFFF" d="M267.74,472.07l34.81-47.78l0.09,16.23c0,4.11,0.03,8.23,0.03,12.31c0.03,6.42-0.63,12.91-3.73,19.24   H267.74L267.74,472.07z"/>
	<path fill="#FFFFFF" d="M264.8,472.07c2.24-55.22,5.28-105.06,14.83-145.79c4.74-20.16,12.39-37.22,18.91-49.3   c0.13-0.19,1.68-2.97,1.8-3.2v0.06c0.19,1.36,0.09,3.13,0.28,4.49v0.06c-0.13,0.28-1.45,2.72-1.61,3.01   c-6.04,11.65-12.71,27.28-16.98,45.44c-9.49,40.51-12.52,90.19-14.77,145.25h-2.47v-0.02L264.8,472.07L264.8,472.07z"/>
	<path fill="#DCDDDD" stroke="#DCDDDD" stroke-width="0.3481" stroke-miterlimit="10" d="M202.93,175.3l-1.55,19.68l2.69,3.48   l-5.79,1.17l1.39-3.26l1.33-20.66C200.99,175.71,202.2,171.88,202.93,175.3L202.93,175.3z"/>
	<path fill="#DCDDDD" stroke="#DCDDDD" stroke-width="0.3481" stroke-miterlimit="10" d="M178.35,176.63l1.52,19.68l-2.69,3.48   l5.79,1.17l-1.36-3.26l-1.33-20.7C180.29,177.01,179.06,173.18,178.35,176.63L178.35,176.63z"/>
	<polygon stroke="#DCDDDD" stroke-width="0.3481" stroke-miterlimit="10" points="78.07,472.1 298.13,472.1 296.74,497.71    81.48,497.71  "/>
	<path fill="none" stroke="#DCDDDD" stroke-width="0.3481" stroke-miterlimit="10" d="M172.92,177.64c-1.77-2.75-3.6-5.32-5.41-7.5   c-12.33-14.91-29.91-30.19-29.91-51.17c0-16.84,1.01-33.92,4.84-50.35c5.79-24.75,19.22-50.13,48.12-50.13 M208.15,177.77   c1.77-2.78,3.67-5.41,5.47-7.63c12.36-14.91,29.94-30.19,29.94-51.17c0-16.84-1.04-33.92-4.87-50.35   c-5.75-24.75-19.19-50.13-48.12-50.13"/>
	<polyline fill="none" stroke="#DCDDDD" stroke-width="0.3481" stroke-miterlimit="10" points="111.93,472.1 108.39,441.57    145.64,377.61 232.78,377.61 269.42,441.57 265.88,472.1  "/>
	
</g>
<g id="图层_x0020_1">
	<path fill="#F08300" d="M178.59,154.25c0.416,1.136,1.472,1.984,2.752,2.032c0.144,0,0.304,0,0.448-0.016h0.016   c0.016,0,0.064,0,0.128-0.016c0.032,0,0.048-0.016,0.08-0.016c0.064-0.016,0.144-0.032,0.224-0.048c0.016,0,0.016,0,0.032,0   c0.192-0.048,0.4-0.112,0.576-0.208c0.192-0.096,0.4-0.224,0.608-0.384c0.672-0.56,1.104-1.408,1.104-2.352   c0-0.224-0.032-0.448-0.08-0.672l0,0C184.43,152.37,184.38,152.2,184.3,152.02C183.83,150.93,182.75,150.17,181.48,150.17C179.79,150.17,178.41,151.54,178.41,153.24C178.41,153.59,178.47,153.93,178.59,154.25L178.59,154.25L178.59,154.25z M182.89,153.27L182.89,153.27C182.86,154.05,182.2,154.65,181.42,154.61C180.63,154.58,180.04,153.93,180.07,153.14c0.032-0.784,0.688-1.376,1.472-1.344   C182.31,151.83,182.92,152.5,182.89,153.27L182.89,153.27z"/>
	<polygon fill="#F08300" points="196.92,150.85 ,196.28,152.44 ,194.84,152.44 ,193.42,155.99 ,191.47,155.99 ,192.87,152.44 ,191.29,152.44    ,191.93,150.85"/>
	<path fill="#F08300" d="M198.89,146.12c-1.008-0.096-3.024-0.144-5.056,0.112c-2.416,0.304-5.152,0.912-7.616,1.664   C184.17,148.5,182.3,149.22,180.95,149.99C181.15,149.96,181.34,149.94,181.53,149.94c0.48,0,0.944,0.112,1.36,0.288   C186.99,147.91,194.19,145.86,198.89,146.12L198.89,146.12L198.89,146.12z"/>
	<path fill="#F08300" d="M184.36,151.59c4-2.368,8.88-4.672,13.488-5.248c-4.608,0.288-10.224,2-14.288,4.304   C183.88,150.9,184.15,151.22,184.36,151.59C184.36,151.59,184.36,151.59,184.36,151.59z"/>
	<polygon fill="#F08300" points="202.41,150.85 ,201.79,152.44 ,200.33,152.44 ,198.92,155.99 ,198.46,155.99 ,196.95,155.99 ,195.26,155.99    ,195.85,154.49 ,197.56,154.49 ,198.38,152.44 ,196.79,152.44 ,197.43,150.85"/>
	<polygon fill="#F08300" points="191.5,150.85 ,190.86,152.44 ,188.57,154.55 ,190.83,154.55 ,190.25,155.99 ,184.76,155.99 ,188.43,152.44    ,185.85,152.44 ,186.49,150.85"/>
	<path fill="#F08300" d="M196.78,146.71c-3.376,0.752-6.464,2.192-9.424,3.952h1.888C191.67,149.09,194.01,147.66,196.78,146.71z    M185.98,151.53C185.35,151.91,185.29,151.96,184.68,152.37c0.064,0.256,0.112,0.544,0.112,0.816c0,0.496-0.112,0.976-0.32,1.392   c0.176-0.16,0.32-0.304,0.432-0.4c0.272-0.24,0.768-0.64,1.6-1.296l0.32-0.256H185.5l0,0L185.98,151.53L185.98,151.53L185.98,151.53z"/>
</g>
</svg>