<?xml version="1.0" encoding="utf-8"?>
<!-- Generator: Adobe Illustrator 22.0.0, SVG Export Plug-In . SVG Version: 6.00 Build 0)  -->
<svg xmlns="http://www.w3.org/2000/svg" xmlns:xlink="http://www.w3.org/1999/xlink" version="1.1" id="图层_1" x="0px" y="0px" width="378px" height="498px" viewBox="0 0 378 498" enable-background="new 0 0 378 498" xml:space="preserve">
<g>
	<path fill="#FFFFFF" stroke="#DCDDDD" stroke-width="0.3345" stroke-miterlimit="22.9256" d="M4.19,369.78   c5.74,27.97,12.99,63.76,11.04,71.03c-0.42,1.57-1.63,16.45,1.05,19.36c2.68,2.9,1.51,4.93,1.49,7.71s2.99,3.83,3.8,5.85   c0.81,2.03,0.99,7.64,4.63,7.19c9.56-1.19,20.19-3.13,31.96-4.6c4.28-0.53,3.51-4.91,3.14-7.87s-1.86-7.65,0.49-9.98   c2.34-2.33,1.74-13.49-0.79-15.78c-2.53-2.29-2.29-46.06-1.64-57.61s-4.61-35.93-4.65-42.86s7.6-19.55,11.19-28.48   c3.59-8.93,5.63-15.76,9.35-19.31v-0.58c7.24-40.07-0.02-76.55-10.45-116.04c0,0-31.12,15.23-41.47,59.29   C17.95,260,3.42,301.39,1.14,330.13C0.52,337.82-1.55,341.81,4.19,369.78z"/>
	<path fill="#00778D" d="M14.6,449.44l12.9,9.42l-5.07-16.46l16.42,13.16l2.95-16l9.48,15.98l2.28-12.35l9.03,2.86   c1.05,4.23,0.93,10.7-0.8,12.41c-2.34,2.33-0.85,7.02-0.49,9.98c0.37,2.96,1.14,7.33-3.14,7.87c-11.77,1.47-22.4,3.41-31.96,4.6   c-3.64,0.45-3.82-5.16-4.63-7.19c-0.81-2.03-3.82-3.08-3.8-5.85c0.02-2.78,1.18-4.81-1.49-7.71   C14.88,458.65,14.55,453.88,14.6,449.44z"/>
	<path fill="#F0A31F" d="M21.46,468.48l-1.8-15.31l5.76,12.15l8.19-11.69l8.76,9.54l-0.35-10.44l6.69,12.03l3.91-14.06l7.39,7.48   l3.2-4.64c-0.14,2.22-0.6,4.11-1.42,4.93c-2.34,2.33-0.85,7.02-0.49,9.98c0.37,2.96,1.14,7.33-3.14,7.87   c-11.77,1.47-22.4,3.41-31.96,4.6c-3.64,0.45-3.82-5.16-4.63-7.19c-0.1-0.26-0.25-0.51-0.41-0.74L21.46,468.48z"/>
	<path fill="#DCDDDD" d="M201.28,178.77L201.28,178.77l-0.45,0.06L201.28,178.77L201.28,178.77z M195.38,179.42   c-2.09,0.18-4.2,0.32-6.34,0.41c-1.09-0.07-2.14-0.15-3.19-0.24c-2.27-4.19-5.74-9.7-10.8-15.81   c-11.12-13.42-27.68-28.01-27.68-44.92c0-14.42,0.19-70.13,26.88-86.22c4.61-2.78,10-4.38,16.32-4.38s11.71,1.61,16.32,4.38   c26.69,16.09,26.88,71.8,26.88,86.22c0,16.91-16.56,31.49-27.68,44.92C201.1,169.8,197.65,175.25,195.38,179.42L195.38,179.42z    M185.83,179.59c-0.35-0.03-0.69-0.06-1.03-0.1C185.14,179.52,185.49,179.56,185.83,179.59L185.83,179.59z M184.24,179.43   c-1.48-0.16-2.91-0.35-4.31-0.56v0.01C181.32,179.08,182.75,179.27,184.24,179.43z"/>
	<path fill="#FFFFFF" stroke="#DCDDDD" stroke-width="0.3345" stroke-miterlimit="22.9256" d="M373.8,369.78   c-5.74,27.97-12.99,63.76-11.05,71.03c0.42,1.57,1.63,16.45-1.05,19.36c-2.68,2.9-1.51,4.93-1.49,7.71s-2.99,3.83-3.8,5.85   c-0.81,2.03-0.99,7.64-4.63,7.19c-9.56-1.19-20.19-3.13-31.96-4.6c-4.28-0.53-3.51-4.91-3.14-7.87s1.86-7.65-0.49-9.98   c-2.35-2.33-1.74-13.49,0.79-15.78c2.53-2.29,2.29-46.06,1.64-57.61c-0.65-11.55,4.61-35.93,4.65-42.86   c0.04-6.93-7.6-19.55-11.19-28.48c-3.59-8.93-5.63-15.76-9.35-19.31v-0.58c-7.24-40.07,0.02-76.55,10.45-116.04   c0,0,31.12,15.23,41.47,59.29c5.38,22.9,19.91,64.29,22.19,93.03C377.46,337.82,379.54,341.81,373.8,369.78z"/>
	<path fill="#00778D" d="M363.4,449.44l-12.9,9.42l5.07-16.46l-16.42,13.16l-2.95-16l-9.48,15.98l-2.28-12.35l-9.03,2.86   c-1.05,4.23-0.93,10.7,0.8,12.41c2.34,2.33,0.85,7.02,0.49,9.98c-0.37,2.96-1.14,7.33,3.14,7.87c11.77,1.47,22.4,3.41,31.96,4.6   c3.64,0.45,3.82-5.16,4.63-7.19s3.82-3.08,3.8-5.85c-0.02-2.78-1.18-4.81,1.49-7.71C363.1,458.65,363.45,453.88,363.4,449.44z"/>
	<path fill="#F0A31F" d="M356.53,468.48l1.8-15.31l-5.76,12.15l-8.19-11.69l-8.76,9.54l0.35-10.44l-6.69,12.03l-3.91-14.06   l-7.39,7.48l-3.2-4.64c0.14,2.22,0.6,4.11,1.42,4.93c2.34,2.33,0.85,7.02,0.49,9.98c-0.37,2.96-1.14,7.33,3.14,7.87   c11.77,1.47,22.4,3.41,31.96,4.6c3.64,0.45,3.82-5.16,4.63-7.19c0.1-0.26,0.25-0.51,0.41-0.74L356.53,468.48z"/>
	<path fill="#F0A31F" stroke="#DCDDDD" stroke-width="0.4" stroke-miterlimit="22.9256" d="M348.05,497.24l-28.49-3.99l1.08-16.84   c11.44,1.46,21.8,3.33,31.14,4.5c0.05,0.01,0.09,0.01,0.14,0.01l0,0l0,0L348.05,497.24z"/>
	<path fill="#F0A31F" stroke="#DCDDDD" stroke-width="0.4" stroke-miterlimit="22.9256" d="M29.74,497.24l28.49-3.99l-1.09-16.84   c-11.44,1.46-21.8,3.33-31.13,4.5c-0.05,0.01-0.09,0.01-0.14,0.01l0,0l0,0L29.74,497.24z"/>
	<path fill="#00778A" stroke="#DCDDDD" stroke-width="0.4" stroke-miterlimit="22.9256" d="M206.89,2.31   c8.74,2.05,18.61,6,23.92,13.51c17.44,24.69,25.55,69.83,25.55,87c0,21.56-11.38,33.43-11.38,43.24c0,3.85,1.55,5.36,1.62,5.42   c-11.26,19.49-29.87,26.1-51.21,27.95c2.27-4.17,5.71-9.61,10.7-15.64c11.12-13.42,27.68-28.01,27.68-44.92   c0-14.42-0.19-70.13-26.88-86.22L206.89,2.31L206.89,2.31z M174.25,32.64c-26.69,16.09-26.88,71.8-26.88,86.22   c0,16.91,16.56,31.49,27.68,44.92c5.06,6.1,8.52,11.61,10.8,15.81c-37.92-3.45-47.6-25.56-51.3-28.11c0,0,1.62-1.49,1.62-5.42   c0-9.81-11.38-21.68-11.38-43.24c0-17.17,8.11-62.31,25.55-87c5.3-7.51,15.18-11.46,23.92-13.51L174.25,32.64L174.25,32.64z"/>
	<path fill="#00778A" stroke="#DCDDDD" stroke-width="0.4" stroke-miterlimit="22.9256" d="M206.89,2.31v30.33   c-4.61-2.78-10-4.38-16.32-4.38s-11.71,1.61-16.32,4.38V2.31c7.44-1.74,14.06-2.11,16.32-2.11S199.46,0.56,206.89,2.31z"/>
	<path fill="#FFFFFA" stroke="#DCDDDD" stroke-width="0.4" stroke-miterlimit="22.9256" d="M64.6,177.8l69.95-26.33   c3.81,2.62,13.91,25.89,54.49,28.36c23.96-1.09,45.19-6.96,57.55-28.36l66.61,26.33c-10.43,39.49-17.68,75.97-10.45,116.04   l-0.74,158.97c-0.3,8.19-1.4,14.86-3.89,18.85H78.08c-3.13-6.33-3.78-12.82-3.76-19.22c0.01-4.1,0.03-8.21,0.05-12.31l0.68-145.7   C83.42,254.1,74.35,215.8,64.6,177.8z"/>
	<path fill="#00778C" d="M74.72,365.09L99,375.86l-19.83-55.7l46.36,47.83l3.5-81.95l37.33,81.95l16.04-64.16l31.7,41.31l51.7-59.39   l-13.71,65.91l42.57-43.74l-3.98,43.92l11.77,2.79l-0.46,98.2c-0.3,8.19-1.4,14.86-3.89,18.85H78.08   c-3.13-6.33-3.78-12.82-3.76-19.22c0.01-4.1,0.03-8.21,0.05-12.31L74.72,365.09z"/>
	<path fill="#F0A31A" d="M74.6,391.83l12.55,7.11l6.61-32.12l27.12,28.87l-16.33-47.83l38.49,39.81l26-30.39l28.67,39.14   l35.87-50.01l4.08,53.51l43.3-39.81l-21.14,58.03l32.37-33.39l0.69,27.28l9.32-0.01l-0.19,40.8c-0.3,8.19-1.4,14.86-3.89,18.85   H78.08c-3.13-6.33-3.78-12.82-3.76-19.22c0.01-4.1,0.03-8.21,0.05-12.31L74.6,391.83z"/>
	<path fill="#DCDDDD" stroke="#DCDDDD" stroke-width="0.3345" stroke-miterlimit="22.9256" d="M202.91,175.15l-1.55,19.67l2.71,3.48   l-5.8,1.16l1.38-3.26l1.33-20.66C200.97,175.54,202.19,171.71,202.91,175.15z"/>
	<path fill="#DCDDDD" stroke="#DCDDDD" stroke-width="0.3345" stroke-miterlimit="22.9256" d="M178.35,176.47l1.55,19.66l-2.71,3.48   l5.8,1.16l-1.38-3.26l-1.33-20.66C180.27,176.85,179.07,173.03,178.35,176.47z"/>
	<polygon fill="#F0A31A" stroke="#DCDDDD" stroke-width="0.4" stroke-miterlimit="22.9256" points="78.08,471.66 298.13,471.66    296.71,497.24 81.49,497.24  "/>
	<path fill="none" stroke="#DCDDDD" stroke-width="0.3345" stroke-miterlimit="22.9256" d="M172.93,177.48   c-1.76-2.75-3.61-5.32-5.4-7.48c-12.34-14.9-29.93-30.19-29.93-51.14c0-16.8,1.04-33.88,4.86-50.29   c5.77-24.74,19.2-50.07,48.11-50.07 M208.13,177.61c1.79-2.8,3.67-5.42,5.49-7.62c12.34-14.9,29.93-30.19,29.93-51.14   c0-16.8-1.04-33.88-4.86-50.29c-5.77-24.74-19.2-50.07-48.11-50.07"/>
	<polyline fill="none" stroke="#DCDDDD" stroke-width="0.3345" stroke-miterlimit="22.9256" points="111.93,471.66 108.41,441.15    145.64,377.25 232.76,377.25 269.39,441.15 265.88,471.66  "/>
	
</g>
<g id="图层_x0020_1">
	<path fill="#F08300" d="M178.63,154.03c0.416,1.136,1.472,1.984,2.752,2.032c0.144,0,0.304,0,0.448-0.016h0.016   c0.016,0,0.064,0,0.128-0.016c0.032,0,0.048-0.016,0.08-0.016c0.064-0.016,0.144-0.032,0.224-0.048c0.016,0,0.016,0,0.032,0   c0.192-0.048,0.4-0.112,0.576-0.208c0.192-0.096,0.4-0.224,0.608-0.384c0.672-0.56,1.104-1.408,1.104-2.352   c0-0.224-0.032-0.448-0.08-0.672l0,0C184.47,152.15,184.42,151.98,184.34,151.8C183.87,150.71,182.79,149.95,181.52,149.95C179.83,149.95,178.45,151.32,178.45,153.02C178.45,153.37,178.51,153.71,178.63,154.03L178.63,154.03L178.63,154.03z M182.93,153.05L182.93,153.05C182.9,153.83,182.24,154.43,181.46,154.39C180.67,154.36,180.08,153.71,180.11,152.92c0.032-0.784,0.688-1.376,1.472-1.344   C182.35,151.61,182.96,152.28,182.93,153.05L182.93,153.05z"/>
	<polygon fill="#F08300" points="196.96,150.63 ,196.32,152.22 ,194.88,152.22 ,193.46,155.77 ,191.51,155.77 ,192.91,152.22 ,191.33,152.22    ,191.97,150.63"/>
	<path fill="#F08300" d="M198.93,145.9c-1.008-0.096-3.024-0.144-5.056,0.112c-2.416,0.304-5.152,0.912-7.616,1.664   C184.21,148.28,182.34,149,180.99,149.77C181.19,149.74,181.38,149.72,181.57,149.72c0.48,0,0.944,0.112,1.36,0.288   C187.03,147.69,194.23,145.64,198.93,145.9L198.93,145.9L198.93,145.9z"/>
	<path fill="#F08300" d="M184.4,151.37c4-2.368,8.88-4.672,13.488-5.248c-4.608,0.288-10.224,2-14.288,4.304   C183.92,150.68,184.19,151,184.4,151.37C184.4,151.37,184.4,151.37,184.4,151.37z"/>
	<polygon fill="#F08300" points="202.45,150.63 ,201.83,152.22 ,200.37,152.22 ,198.96,155.77 ,198.5,155.77 ,196.99,155.77 ,195.3,155.77    ,195.89,154.27 ,197.6,154.27 ,198.42,152.22 ,196.83,152.22 ,197.47,150.63"/>
	<polygon fill="#F08300" points="191.54,150.63 ,190.9,152.22 ,188.61,154.33 ,190.87,154.33 ,190.29,155.77 ,184.8,155.77 ,188.47,152.22    ,185.89,152.22 ,186.53,150.63"/>
	<path fill="#F08300" d="M196.82,146.49c-3.376,0.752-6.464,2.192-9.424,3.952h1.888C191.71,148.87,194.05,147.44,196.82,146.49z    M186.02,151.31C185.39,151.69,185.33,151.74,184.72,152.15c0.064,0.256,0.112,0.544,0.112,0.816c0,0.496-0.112,0.976-0.32,1.392   c0.176-0.16,0.32-0.304,0.432-0.4c0.272-0.24,0.768-0.64,1.6-1.296l0.32-0.256H185.54l0,0L186.02,151.31L186.02,151.31L186.02,151.31z"/>
</g>
</svg>