<?xml version="1.0" encoding="utf-8"?>
<!-- Generator: Adobe Illustrator 22.0.0, SVG Export Plug-In . SVG Version: 6.00 Build 0)  -->
<svg xmlns="http://www.w3.org/2000/svg" xmlns:xlink="http://www.w3.org/1999/xlink" version="1.1" id="图层_1" x="0px" y="0px" width="378px" height="498px" viewBox="0 0 378 498" enable-background="new 0 0 378 498" xml:space="preserve">
<g>
	<path fill="#DCDDDD" d="M201.38,178.73L201.38,178.73l-0.45,0.06L201.38,178.73L201.38,178.73z M195.48,179.38   c-2.09,0.18-4.2,0.32-6.34,0.41c-1.09-0.07-2.14-0.15-3.19-0.24c-2.27-4.19-5.74-9.7-10.8-15.81   c-11.12-13.42-27.68-28.01-27.68-44.92c0-14.42,0.19-70.13,26.88-86.22c4.61-2.78,10-4.38,16.32-4.38s11.71,1.61,16.32,4.38   c26.69,16.09,26.88,71.8,26.88,86.22c0,16.91-16.56,31.49-27.68,44.92C201.18,169.77,197.76,175.21,195.48,179.38L195.48,179.38z    M185.93,179.55c-0.35-0.03-0.69-0.06-1.03-0.1C185.24,179.48,185.59,179.52,185.93,179.55L185.93,179.55z M184.32,179.39   c-1.48-0.16-2.91-0.35-4.31-0.56v0.01C181.41,179.05,182.85,179.23,184.32,179.39z"/>
	<path fill="#0039A7" stroke="#DCDDDD" stroke-width="0.4" stroke-miterlimit="22.9256" d="M373.89,369.73   c-5.74,27.97-12.99,63.76-11.04,71.03c0.42,1.57,1.63,16.45-1.05,19.35s-1.51,4.93-1.49,7.71s-2.99,3.83-3.8,5.85   c-0.81,2.03-0.99,7.64-4.63,7.19c-9.56-1.19-20.19-3.13-31.96-4.6c-4.28-0.53-3.51-4.91-3.14-7.87s1.86-7.65-0.49-9.98   c-2.34-2.33-1.74-13.49,0.79-15.78c2.53-2.29,2.29-46.06,1.64-57.61c-0.64-11.55,4.61-35.93,4.65-42.86   c0.04-6.93-7.6-19.55-11.19-28.48c-3.59-8.93-5.63-15.75-9.35-19.31v-0.58c-7.24-40.06,0.02-76.54,10.45-116.03   c0,0,31.11,15.23,41.47,59.29c5.38,22.9,19.91,64.29,22.19,93.02C377.55,337.77,379.63,341.77,373.89,369.73z"/>
	<path fill="#0039A7" stroke="#DCDDDD" stroke-width="0.4" stroke-miterlimit="22.9256" d="M348.15,497.19l-28.49-3.99l1.08-16.84   c11.44,1.46,21.8,3.33,31.14,4.5c0.05,0.01,0.09,0.01,0.14,0.01l0,0l0,0L348.15,497.19z"/>
	<path fill="#0039A7" stroke="#DCDDDD" stroke-width="0.4" stroke-miterlimit="22.9256" d="M4.11,369.73   c5.74,27.97,12.99,63.76,11.04,71.03c-0.42,1.57-1.63,16.45,1.05,19.35s1.51,4.93,1.49,7.71s2.99,3.83,3.8,5.85   c0.81,2.03,0.99,7.64,4.63,7.19c9.56-1.19,20.19-3.13,31.96-4.6c4.28-0.53,3.51-4.91,3.14-7.87s-1.86-7.65,0.49-9.98   c2.34-2.33,1.74-13.49-0.79-15.78c-2.53-2.29-2.29-46.06-1.64-57.61c0.64-11.55-4.61-35.93-4.65-42.86s7.6-19.55,11.19-28.48   c3.59-8.93,5.63-15.76,9.35-19.31c8.36-40.32-0.7-78.63-10.45-116.62c0,0-31.11,15.23-41.47,59.29   c-5.38,22.9-19.91,64.29-22.19,93.02C0.44,337.77-1.63,341.77,4.11,369.73z"/>
	<path fill="#0039A7" stroke="#DCDDDD" stroke-width="0.4" stroke-miterlimit="22.9256" d="M29.85,497.19l28.49-3.99l-1.09-16.84   c-11.44,1.46-21.79,3.33-31.13,4.5c-0.05,0.01-0.09,0.01-0.14,0.01l0,0l0,0L29.85,497.19z"/>
	<path fill="#0039A6" stroke="#DCDDDD" stroke-width="0.3345" stroke-miterlimit="22.9256" d="M206.99,2.28   c8.74,2.05,18.61,6,23.91,13.51c17.44,24.69,25.55,69.83,25.55,86.99c0,21.55-11.38,33.43-11.38,43.24c0,3.85,1.55,5.36,1.62,5.42   c-11.26,19.49-29.87,26.1-51.2,27.95c2.27-4.17,5.71-9.61,10.7-15.64c11.12-13.42,27.68-28.01,27.68-44.92   c0-14.42-0.19-70.13-26.88-86.22L206.99,2.28L206.99,2.28z M174.35,32.61c-26.69,16.09-26.88,71.8-26.88,86.22   c0,16.91,16.56,31.49,27.68,44.92c5.06,6.1,8.52,11.61,10.8,15.81c-37.92-3.45-47.59-25.56-51.3-28.11c0,0,1.62-1.49,1.62-5.42   c0-9.81-11.38-21.68-11.38-43.24c0-17.17,8.11-62.31,25.55-86.99c5.3-7.51,15.18-11.46,23.91-13.51L174.35,32.61L174.35,32.61z"/>
	<path fill="#0039A6" stroke="#DCDDDD" stroke-width="0.3345" stroke-miterlimit="22.9256" d="M206.99,2.28v30.33   c-4.61-2.78-10-4.38-16.32-4.38s-11.71,1.61-16.32,4.38V2.28c7.44-1.74,14.06-2.11,16.32-2.11C192.93,0.17,199.54,0.53,206.99,2.28   z"/>
	<path fill="#0039A8" stroke="#DCDDDD" stroke-width="0.4" stroke-miterlimit="22.9256" d="M64.71,177.76l69.95-26.33   c3.81,2.62,13.91,25.89,54.49,28.36c23.96-1.09,45.19-6.96,57.55-28.36l66.61,26.33c-10.43,39.49-17.68,75.97-10.45,116.03   l-0.74,158.97c-0.3,8.19-1.4,14.86-3.89,18.85H78.18c-3.13-6.33-3.78-12.82-3.76-19.22c0.01-4.09,0.03-8.21,0.05-12.31l0.68-145.7   C83.51,254.06,74.46,215.76,64.71,177.76z"/>
	<g>
		<path fill="#FFFFFF" d="M74.86,358.9c79-33.25,182.13-104.57,204.44-194.58l33.99,13.44c-4.57,17.32-8.54,34.07-10.94,50.79    c-14.61,36.43-37.19,87.07-65.76,133.37c-27.08,43.9-52.88,82.59-71.46,109.69H78.18c-2.95-5.98-3.7-12.11-3.76-18.17    c80.54-38.75,145.48-127.51,186.14-200.56C211.9,322.06,154.49,372.01,74.65,401.61L74.86,358.9z"/>
		<path fill="#FFFFFF" d="M219.16,433.27c35.91-48.14,60.95-96.78,82.43-147.39c0.36,2.62,0.77,5.26,1.25,7.91l-0.19,40.75    C282.03,365.24,253.1,403.14,219.16,433.27z"/>
		<path fill="#FFFFFF" d="M232.1,471.61c26.96-34.06,48.85-67.87,70.4-103.75l-0.39,84.9c-0.3,8.19-1.4,14.86-3.89,18.85H232.1z"/>
	</g>
	<path fill="#DCDDDD" stroke="#DCDDDD" stroke-width="0.3345" stroke-miterlimit="22.9256" d="M203.01,175.11l-1.55,19.66l2.71,3.48   l-5.8,1.16l1.38-3.26l1.33-20.66C201.07,175.5,202.29,171.67,203.01,175.11z"/>
	<path fill="#DCDDDD" stroke="#DCDDDD" stroke-width="0.3345" stroke-miterlimit="22.9256" d="M178.43,176.43l1.55,19.66l-2.71,3.48   l5.8,1.16l-1.38-3.26l-1.33-20.66C180.38,176.82,179.15,172.99,178.43,176.43z"/>
	<polygon fill="#0039A8" stroke="#DCDDDD" stroke-width="0.4" stroke-miterlimit="22.9256" points="78.18,471.61 298.21,471.61    296.8,497.19 81.58,497.19  "/>
	<path fill="none" stroke="#DCDDDD" stroke-width="0.3345" stroke-miterlimit="22.9256" d="M173.02,177.44   c-1.76-2.75-3.61-5.32-5.4-7.48c-12.34-14.9-29.93-30.19-29.93-51.13c0-16.8,1.04-33.88,4.86-50.29   c5.77-24.74,19.2-50.07,48.11-50.07 M208.23,177.58c1.79-2.8,3.67-5.42,5.49-7.62c12.34-14.89,29.92-30.19,29.92-51.13   c0-16.8-1.04-33.88-4.86-50.29c-5.77-24.74-19.2-50.07-48.11-50.07"/>
	<polyline fill="none" stroke="#DCDDDD" stroke-width="0.3345" stroke-miterlimit="22.9256" points="112.03,471.61 108.51,441.1    145.74,377.2 232.85,377.2 269.47,441.1 265.97,471.61  "/>
	
</g>
<g id="图层_x0020_1">
	<path fill="#F08300" d="M178.54,153.99c0.416,1.136,1.472,1.984,2.752,2.032c0.144,0,0.304,0,0.448-0.016h0.016   c0.016,0,0.064,0,0.128-0.016c0.032,0,0.048-0.016,0.08-0.016c0.064-0.016,0.144-0.032,0.224-0.048c0.016,0,0.016,0,0.032,0   c0.192-0.048,0.4-0.112,0.576-0.208c0.192-0.096,0.4-0.224,0.608-0.384c0.672-0.56,1.104-1.408,1.104-2.352   c0-0.224-0.032-0.448-0.08-0.672l0,0C184.38,152.11,184.33,151.94,184.25,151.76C183.78,150.67,182.7,149.91,181.43,149.91C179.74,149.91,178.36,151.28,178.36,152.98C178.36,153.33,178.42,153.67,178.54,153.99L178.54,153.99L178.54,153.99z M182.84,153.01L182.84,153.01C182.81,153.79,182.15,154.39,181.37,154.35C180.58,154.32,179.99,153.67,180.02,152.88c0.032-0.784,0.688-1.376,1.472-1.344   C182.26,151.57,182.87,152.24,182.84,153.01L182.84,153.01z"/>
	<polygon fill="#F08300" points="196.87,150.59 ,196.23,152.18 ,194.79,152.18 ,193.37,155.73 ,191.42,155.73 ,192.82,152.18 ,191.24,152.18    ,191.88,150.59"/>
	<path fill="#F08300" d="M198.84,145.86c-1.008-0.096-3.024-0.144-5.056,0.112c-2.416,0.304-5.152,0.912-7.616,1.664   C184.12,148.24,182.25,148.96,180.9,149.73C181.1,149.7,181.29,149.68,181.48,149.68c0.48,0,0.944,0.112,1.36,0.288   C186.94,147.65,194.14,145.6,198.84,145.86L198.84,145.86L198.84,145.86z"/>
	<path fill="#F08300" d="M184.31,151.33c4-2.368,8.88-4.672,13.488-5.248c-4.608,0.288-10.224,2-14.288,4.304   C183.83,150.64,184.1,150.96,184.31,151.33C184.31,151.33,184.31,151.33,184.31,151.33z"/>
	<polygon fill="#F08300" points="202.36,150.59 ,201.74,152.18 ,200.28,152.18 ,198.87,155.73 ,198.41,155.73 ,196.9,155.73 ,195.21,155.73    ,195.8,154.23 ,197.51,154.23 ,198.33,152.18 ,196.74,152.18 ,197.38,150.59"/>
	<polygon fill="#F08300" points="191.45,150.59 ,190.81,152.18 ,188.52,154.29 ,190.78,154.29 ,190.2,155.73 ,184.71,155.73 ,188.38,152.18    ,185.8,152.18 ,186.44,150.59"/>
	<path fill="#F08300" d="M196.73,146.45c-3.376,0.752-6.464,2.192-9.424,3.952h1.888C191.62,148.83,193.96,147.4,196.73,146.45z    M185.93,151.27C185.3,151.65,185.24,151.7,184.63,152.11c0.064,0.256,0.112,0.544,0.112,0.816c0,0.496-0.112,0.976-0.32,1.392   c0.176-0.16,0.32-0.304,0.432-0.4c0.272-0.24,0.768-0.64,1.6-1.296l0.32-0.256H185.45l0,0L185.93,151.27L185.93,151.27L185.93,151.27z"/>
</g>
</svg>