<?xml version="1.0" encoding="utf-8"?>
<!-- Generator: Adobe Illustrator 22.0.0, SVG Export Plug-In . SVG Version: 6.00 Build 0)  -->
<svg xmlns="http://www.w3.org/2000/svg" xmlns:xlink="http://www.w3.org/1999/xlink" version="1.1" id="图层_1" x="0px" y="0px" width="378px" height="498px" viewBox="0 0 378 498" enable-background="new 0 0 378 498" xml:space="preserve">
<g>
	<path fill="#000002" stroke="#DCDDDD" stroke-width="0.4" stroke-miterlimit="22.9256" d="M4.11,369.95   c5.74,27.98,13,63.79,11.05,71.06c-0.42,1.57-1.63,16.46,1.05,19.36s1.52,4.93,1.49,7.71c-0.02,2.78,2.99,3.83,3.8,5.86   s0.99,7.65,4.63,7.19c9.57-1.19,20.2-3.14,31.97-4.61c4.28-0.53,3.52-4.91,3.15-7.87s-1.86-7.65,0.49-9.98   c2.35-2.33,1.74-13.49-0.79-15.79c-2.53-2.29-2.29-46.08-1.64-57.64c0.64-11.56-4.61-35.95-4.65-42.88s7.6-19.56,11.19-28.49   c3.59-8.93,5.63-15.76,9.36-19.32v-0.58c7.24-40.08-0.02-76.58-10.45-116.09c0,0-31.13,15.24-41.49,59.32   c-5.38,22.91-19.92,64.32-22.2,93.07C0.44,337.98-1.63,341.97,4.11,369.95z"/>
	<path fill="#74BD2B" d="M24.72,443.18c1.5-6.25-0.23-16.89-1.2-23.32c-1.69-11.19-3.85-22.29-6.06-33.39   c-1.23-6.17-2.49-12.33-3.75-18.49c-1.59-7.77-3.18-15.79-3.63-23.71c-0.19-3.39,0.02-6.55,0.41-9.92   c0.13-1.09,0.25-2.19,0.33-3.29c0.74-9.32,2.56-18.62,4.69-27.71c0.97-4.14,2.02-8.26,3.1-12.38c0.84-3.21,1.71-6.41,2.59-9.6   c1.68-6.06,3.42-12.1,5.15-18.15c2.26-7.89,4.56-15.77,6.44-23.76c3.65-15.54,10.83-30.05,22.02-41.55c0.9-0.92,2-1.83,2.98-2.67   c1.63-1.39,3.29-2.75,4.95-4.1c1.49-1.2,2.98-2.39,4.5-3.56c-0.81-3.21-1.64-6.44-2.5-9.68c0,0-31.13,15.24-41.49,59.32   c-5.38,22.91-19.92,64.32-22.2,93.07c-0.61,7.7-2.68,11.69,3.06,39.67c5.74,27.98,13,63.79,11.05,71.06   c-0.42,1.57-1.63,16.46,1.05,19.36s1.52,4.93,1.49,7.71c-0.02,2.78,2.99,3.83,3.8,5.86s0.99,7.65,4.63,7.19   c2.53-0.32,5.13-0.68,7.8-1.08l-0.33-0.81c-0.82-2.01-1.61-4.08-2.22-6.16c-0.25-0.87-0.45-1.95-0.78-2.78   c-0.45-1.13-1.01-2.22-1.79-3.16c-0.32-0.39-0.64-0.67-0.97-1c-0.08-0.46-0.07-1.22-0.07-1.58c0.01-2.72-0.56-4.72-1.79-7.1   c-1.06-2.06-1.58-3.06-1.64-5.47c-0.02-0.79-0.02-1.58-0.01-2.36C24.36,447.66,24.4,445.14,24.72,443.18z"/>
	<path fill="#000002" d="M52.32,195.48c-11.63,11.96-19.11,27.01-22.91,43.18c-1.86,7.91-4.15,15.78-6.39,23.59   c-1.74,6.06-3.48,12.11-5.16,18.18c-0.89,3.21-1.76,6.43-2.6,9.65c-1.06,4.07-2.13,8.24-3.12,12.47   c-2.19,9.35-4.04,18.96-4.77,28.23c-0.08,1.06-0.2,2.11-0.32,3.16c-0.43,3.69-0.64,6.78-0.43,10.52c0.46,7.97,2.1,16.41,3.7,24.22   c1.26,6.15,2.52,12.31,3.75,18.47c2.19,11.02,4.35,22.12,6.03,33.23c0.83,5.52,2.6,16.63,1.23,22.1c-0.29,1.65-0.53,6.01-0.45,9.6   c0.15,6.43,3.44,6.77,3.43,12.48c-0.01,5.18,1.35,2.72,3.08,7.04c0.29,0.72,0.5,2.85,3.01,8.97c-1.44,0.2-2.86,0.39-4.25,0.57   c-3.64,0.46-3.82-5.16-4.63-7.19s-3.82-3.08-3.8-5.86s1.18-4.81-1.49-7.71c-2.68-2.9-1.46-17.8-1.05-19.36   c1.95-7.27-5.31-43.08-11.05-71.06c-5.74-27.98-3.67-31.97-3.06-39.67c0.04-0.47,0.08-0.95,0.12-1.42   c0.88-9.56,3.03-20.42,5.71-31.49c1.46-6.04,3.08-12.14,4.74-18.13c4.41-15.96,9.06-31.1,11.63-42.03   c2.48-10.55,6.15-19.44,10.29-26.88c13.18-23.63,31.2-32.45,31.2-32.45c0.53,2.01,1.06,4.02,1.57,6.02   C61.74,187.35,54.15,193.59,52.32,195.48z"/>
	<path fill="#000002" stroke="#DCDDDD" stroke-width="0.4" stroke-miterlimit="22.9256" d="M373.89,369.95   c-5.74,27.98-13,63.79-11.05,71.06c0.42,1.57,1.63,16.46-1.05,19.36s-1.52,4.93-1.49,7.71c0.02,2.78-2.99,3.83-3.8,5.86   s-0.99,7.65-4.63,7.19c-9.56-1.19-20.2-3.14-31.97-4.61c-4.28-0.53-3.52-4.91-3.15-7.87s1.86-7.65-0.49-9.98   c-2.35-2.33-1.74-13.49,0.79-15.79c2.53-2.29,2.29-46.08,1.64-57.64c-0.64-11.56,4.61-35.95,4.65-42.88   c0.04-6.93-7.6-19.56-11.19-28.49c-3.59-8.93-5.63-15.76-9.36-19.32v-0.58c-7.24-40.08,0.02-76.58,10.45-116.09   c0,0,31.13,15.24,41.49,59.32c5.38,22.91,19.92,64.32,22.2,93.07C377.55,337.98,379.63,341.97,373.89,369.95z"/>
	<path fill="#74BD2B" d="M353.28,443.18c-1.5-6.25,0.23-16.89,1.2-23.32c1.69-11.19,3.85-22.29,6.06-33.39   c1.23-6.17,2.49-12.33,3.75-18.49c1.59-7.77,3.18-15.79,3.63-23.71c0.19-3.39-0.02-6.55-0.41-9.92c-0.13-1.09-0.25-2.19-0.33-3.29   c-0.74-9.32-2.56-18.62-4.69-27.71c-0.97-4.14-2.02-8.26-3.1-12.38c-0.84-3.21-1.71-6.41-2.59-9.6c-1.68-6.06-3.42-12.1-5.15-18.15   c-2.26-7.89-4.56-15.77-6.44-23.76c-3.65-15.54-10.83-30.05-22.02-41.55c-0.9-0.92-2-1.83-2.98-2.67c-1.63-1.39-3.29-2.75-4.95-4.1   c-1.49-1.2-2.98-2.39-4.5-3.56c0.81-3.21,1.64-6.44,2.5-9.68c0,0,31.13,15.24,41.49,59.32c5.38,22.91,19.92,64.32,22.2,93.07   c0.61,7.7,2.68,11.69-3.06,39.67c-5.74,27.98-13,63.79-11.05,71.06c0.42,1.57,1.63,16.46-1.05,19.36s-1.52,4.93-1.49,7.71   c0.02,2.78-2.99,3.83-3.8,5.86s-0.99,7.65-4.63,7.19c-2.53-0.32-5.13-0.68-7.8-1.08l0.33-0.81c0.82-2.01,1.61-4.08,2.22-6.16   c0.25-0.87,0.45-1.95,0.78-2.78c0.45-1.13,1.01-2.22,1.79-3.16c0.32-0.39,0.64-0.67,0.97-1c0.08-0.46,0.07-1.22,0.07-1.58   c-0.01-2.72,0.56-4.72,1.79-7.1c1.06-2.06,1.58-3.06,1.64-5.47c0.02-0.79,0.02-1.58,0.01-2.36   C353.64,447.66,353.59,445.14,353.28,443.18z"/>
	<path fill="#000002" d="M325.67,195.48c11.63,11.96,19.11,27.01,22.91,43.18c1.86,7.91,4.15,15.78,6.39,23.59   c1.74,6.06,3.48,12.11,5.16,18.18c0.89,3.21,1.76,6.43,2.6,9.65c1.06,4.07,2.13,8.24,3.12,12.47c2.19,9.35,4.04,18.96,4.77,28.23   c0.08,1.06,0.2,2.11,0.32,3.16c0.43,3.69,0.64,6.78,0.43,10.52c-0.46,7.97-2.1,16.41-3.7,24.22c-1.26,6.15-2.52,12.31-3.75,18.47   c-2.19,11.02-4.35,22.12-6.03,33.23c-0.83,5.52-2.6,16.63-1.24,22.1c0.29,1.65,0.53,6.01,0.45,9.6c-0.15,6.43-3.44,6.77-3.43,12.48   c0.01,5.18-1.35,2.72-3.08,7.04c-0.29,0.72-0.5,2.85-3.01,8.97c1.44,0.2,2.86,0.39,4.25,0.57c3.64,0.46,3.82-5.16,4.63-7.19   s3.82-3.08,3.8-5.86c-0.02-2.78-1.18-4.81,1.49-7.71c2.68-2.9,1.46-17.8,1.05-19.36c-1.95-7.27,5.31-43.08,11.05-71.06   c5.74-27.98,3.67-31.97,3.06-39.67c-0.04-0.47-0.08-0.95-0.12-1.42c-0.88-9.56-3.03-20.42-5.71-31.49   c-1.46-6.04-3.08-12.14-4.74-18.13c-4.41-15.96-9.06-31.1-11.63-42.03c-2.48-10.55-6.15-19.44-10.29-26.88   c-13.18-23.63-31.2-32.45-31.2-32.45c-0.53,2.01-1.06,4.02-1.57,6.02C316.24,187.35,323.84,193.59,325.67,195.48z"/>
	<path fill="#DCDDDD" d="M201.29,178.86L201.29,178.86l-0.46,0.06L201.29,178.86L201.29,178.86z M195.38,179.51   c-2.09,0.18-4.21,0.32-6.34,0.41c-1.09-0.07-2.14-0.15-3.19-0.24c-2.27-4.2-5.74-9.71-10.8-15.81   c-11.13-13.43-27.7-28.02-27.7-44.94c0-14.43,0.19-70.17,26.89-86.26c4.61-2.78,10-4.39,16.32-4.39s11.72,1.61,16.32,4.39   c26.7,16.1,26.89,71.84,26.89,86.26c0,16.92-16.57,31.51-27.7,44.94C201.1,169.89,197.65,175.33,195.38,179.51L195.38,179.51z    M185.84,179.67c-0.35-0.03-0.69-0.06-1.03-0.1C185.15,179.61,185.49,179.64,185.84,179.67L185.84,179.67z M184.23,179.51   c-1.48-0.16-2.91-0.35-4.31-0.56v0.01C181.32,179.17,182.76,179.36,184.23,179.51z"/>
	<path fill="#000002" stroke="#DCDDDD" stroke-width="0.4" stroke-miterlimit="22.9256" d="M348.13,497.48l-28.5-3.99l1.08-16.85   c11.45,1.46,21.81,3.34,31.15,4.5c0.05,0.01,0.09,0.01,0.14,0.01l0,0l0,0L348.13,497.48z"/>
	<path fill="#000002" stroke="#DCDDDD" stroke-width="0.4" stroke-miterlimit="22.9256" d="M29.68,497.48l28.5-3.99l-1.09-16.85   c-11.44,1.46-21.81,3.34-31.15,4.5c-0.04,0.01-0.09,0.01-0.14,0.01l0,0l0,0L29.68,497.48z"/>
	<path fill="#990000" stroke="#DCDDDD" stroke-width="0.4" stroke-miterlimit="22.9256" d="M206.9,2.31   c8.74,2.05,18.62,6,23.93,13.52c17.45,24.7,25.56,69.86,25.56,87.04c0,21.57-11.39,33.44-11.39,43.26c0,3.85,1.55,5.36,1.62,5.42   c-11.27,19.5-29.89,26.11-51.23,27.96c2.28-4.17,5.71-9.62,10.71-15.65c11.13-13.43,27.7-28.02,27.7-44.94   c0-14.43-0.19-70.17-26.89-86.26L206.9,2.31L206.9,2.31z M174.24,32.66c-26.7,16.1-26.89,71.84-26.89,86.26   c0,16.92,16.57,31.51,27.7,44.94c5.06,6.11,8.53,11.62,10.8,15.81c-37.94-3.45-47.62-25.57-51.32-28.13c0,0,1.62-1.49,1.62-5.43   c0-9.81-11.39-21.69-11.39-43.26c0-17.17,8.11-62.34,25.56-87.04c5.31-7.51,15.19-11.47,23.93-13.52L174.24,32.66L174.24,32.66   L174.24,32.66z"/>
	<path fill="#990000" stroke="#DCDDDD" stroke-width="0.4" stroke-miterlimit="22.9256" d="M206.9,2.31v30.35   c-4.61-2.78-10-4.39-16.32-4.39s-11.72,1.61-16.32,4.39V2.31c7.44-1.75,14.06-2.11,16.32-2.11C192.84,0.2,199.46,0.57,206.9,2.31z"/>
	<path fill="#990001" stroke="#DCDDDD" stroke-width="0.4" stroke-miterlimit="22.9256" d="M64.54,177.89l69.98-26.34   c3.81,2.62,13.92,25.91,54.51,28.37c23.97-1.09,45.21-6.97,57.58-28.38l66.64,26.35c-10.43,39.51-17.69,76.01-10.45,116.09   l-0.74,159.05c-0.3,8.2-1.4,14.86-3.9,18.86H78.04c-3.13-6.33-3.78-12.82-3.76-19.23c0.01-4.1,0.03-8.21,0.05-12.32l0.68-145.77   C83.38,254.23,74.31,215.9,64.54,177.89z"/>
	<g>
		<path fill="#74BD2A" d="M307.66,200.4c-18.3,1.49-35.47,3.63-51.66,6.49c-28.73,5.08-54.38,12.43-77.94,22.42    c-9.91,4.2-17.61,7.89-22.97,11.54c-5.06,3.45-7.95,6.8-8.54,10.47c-0.34,2.08,0.22,4.67,1.77,8.6c1.65,4.18,4.39,9.78,8.3,17.68    l96.24,194.29h-3.92l-95.46-192.71c-3.95-7.98-6.73-13.64-8.43-17.95c-1.8-4.56-2.43-7.71-1.98-10.47    c0.76-4.74,4.16-8.83,10.04-12.84c5.58-3.81,13.48-7.59,23.58-11.87c23.8-10.09,49.7-17.51,78.69-22.64    c16.61-2.94,34.25-5.12,53.1-6.62C308.22,197.99,307.95,199.19,307.66,200.4L307.66,200.4z M83.11,170.9l18.22,31.58l4.15,7.19    l0,0c12.37,23.86,21.01,23.69,33.81,17.06c2.31-1.2,4.57-2.5,7-3.91c3.93-2.27,8.3-4.79,13.17-7.1    c26.11-12.37,54.59-21.45,86.63-27.7c20.67-4.03,42.82-6.88,66.77-8.67l0.39-1.47l-4.48-1.77c-22.63,1.81-43.65,4.58-63.34,8.42    c-32.32,6.3-61.06,15.47-87.46,27.97c-5.12,2.43-9.5,4.95-13.44,7.23c-2.51,1.45-4.84,2.79-6.85,3.84    c-10.81,5.6-18.17,5.59-29.15-15.61l-0.03-0.07l-4.15-7.19l-17.9-31.05L83.11,170.9z"/>
		<path fill="#FF4F98" d="M76.83,283.83c19.38-18.63,39.42-34.22,60.99-47.08c47.32-28.23,101.91-43.34,172.86-48.9    c-0.3,1.21-0.6,2.42-0.9,3.62c-69.82,5.59-123.6,20.55-170.18,48.33c-22.56,13.46-43.44,29.93-63.67,49.81    C76.28,287.68,76.57,285.75,76.83,283.83L76.83,283.83z M238.93,471.89l-93.22-188.15c-3.91-7.9-7.18-13.56-10.14-17.43    c-3.14-4.12-6.01-6.32-8.96-7.09c-7.94-2.07-22.89,11.2-30.35,17.83l0,0c-0.57,0.51-1.1,0.98-1.68,1.48    c-6.62,5.81-13.13,11.97-19.59,18.49l-0.02,5.05c7.21-7.41,14.5-14.36,21.91-20.86c0.43-0.37,1.03-0.91,1.7-1.5h0.01    c7-6.22,21.02-18.66,27.17-17.06c2.16,0.56,4.42,2.37,7.05,5.83c2.82,3.7,5.98,9.17,9.78,16.85l92.44,186.57h3.9L238.93,471.89    L238.93,471.89z"/>
	</g>
	<path fill="#DCDDDD" stroke="#DCDDDD" stroke-width="0.3346" stroke-miterlimit="22.9256" d="M202.91,175.24l-1.55,19.67l2.71,3.48   l-5.8,1.16l1.38-3.26l1.33-20.67C200.99,175.62,202.21,171.79,202.91,175.24z"/>
	<path fill="#DCDDDD" stroke="#DCDDDD" stroke-width="0.3346" stroke-miterlimit="22.9256" d="M178.34,176.55l1.55,19.67l-2.71,3.48   l5.8,1.16l-1.38-3.26l-1.33-20.67C180.27,176.94,179.06,173.11,178.34,176.55z"/>
	<polygon fill="#990001" stroke="#DCDDDD" stroke-width="0.4" stroke-miterlimit="22.9256" points="78.04,471.88 298.16,471.88    296.77,497.48 81.44,497.48  "/>
	<path fill="none" stroke="#DCDDDD" stroke-width="0.3346" stroke-miterlimit="22.9256" d="M172.91,177.56   c-1.77-2.75-3.62-5.32-5.41-7.48c-12.35-14.9-29.94-30.2-29.94-51.16c0-16.81,1.04-33.9,4.86-50.31   c5.77-24.75,19.21-50.1,48.13-50.1 M208.13,177.7c1.79-2.8,3.67-5.43,5.49-7.62c12.35-14.9,29.94-30.2,29.94-51.16   c0-16.81-1.04-33.9-4.86-50.31c-5.77-24.75-19.21-50.1-48.13-50.1"/>
	<polyline fill="none" stroke="#DCDDDD" stroke-width="0.3346" stroke-miterlimit="22.9256" points="111.9,471.88 108.38,441.36    145.63,377.43 232.79,377.43 269.42,441.36 265.91,471.88  "/>
	
</g>
<g id="图层_x0020_1">
	<path fill="#F08300" d="M178.54,154.15c0.416,1.136,1.472,1.984,2.752,2.032c0.144,0,0.304,0,0.448-0.016h0.016   c0.016,0,0.064,0,0.128-0.016c0.032,0,0.048-0.016,0.08-0.016c0.064-0.016,0.144-0.032,0.224-0.048c0.016,0,0.016,0,0.032,0   c0.192-0.048,0.4-0.112,0.576-0.208c0.192-0.096,0.4-0.224,0.608-0.384c0.672-0.56,1.104-1.408,1.104-2.352   c0-0.224-0.032-0.448-0.08-0.672l0,0C184.38,152.27,184.33,152.1,184.25,151.92C183.78,150.83,182.7,150.07,181.43,150.07C179.74,150.07,178.36,151.44,178.36,153.14C178.36,153.49,178.42,153.83,178.54,154.15L178.54,154.15L178.54,154.15z M182.84,153.17L182.84,153.17C182.81,153.95,182.15,154.55,181.37,154.51C180.58,154.48,179.99,153.83,180.02,153.04c0.032-0.784,0.688-1.376,1.472-1.344   C182.26,151.73,182.87,152.4,182.84,153.17L182.84,153.17z"/>
	<polygon fill="#F08300" points="196.87,150.75 ,196.23,152.34 ,194.79,152.34 ,193.37,155.89 ,191.42,155.89 ,192.82,152.34 ,191.24,152.34    ,191.88,150.75"/>
	<path fill="#F08300" d="M198.84,146.02c-1.008-0.096-3.024-0.144-5.056,0.112c-2.416,0.304-5.152,0.912-7.616,1.664   C184.12,148.4,182.25,149.12,180.9,149.89C181.1,149.86,181.29,149.84,181.48,149.84c0.48,0,0.944,0.112,1.36,0.288   C186.94,147.81,194.14,145.76,198.84,146.02L198.84,146.02L198.84,146.02z"/>
	<path fill="#F08300" d="M184.31,151.49c4-2.368,8.88-4.672,13.488-5.248c-4.608,0.288-10.224,2-14.288,4.304   C183.83,150.8,184.1,151.12,184.31,151.49C184.31,151.49,184.31,151.49,184.31,151.49z"/>
	<polygon fill="#F08300" points="202.36,150.75 ,201.74,152.34 ,200.28,152.34 ,198.87,155.89 ,198.41,155.89 ,196.9,155.89 ,195.21,155.89    ,195.8,154.39 ,197.51,154.39 ,198.33,152.34 ,196.74,152.34 ,197.38,150.75"/>
	<polygon fill="#F08300" points="191.45,150.75 ,190.81,152.34 ,188.52,154.45 ,190.78,154.45 ,190.2,155.89 ,184.71,155.89 ,188.38,152.34    ,185.8,152.34 ,186.44,150.75"/>
	<path fill="#F08300" d="M196.73,146.61c-3.376,0.752-6.464,2.192-9.424,3.952h1.888C191.62,148.99,193.96,147.56,196.73,146.61z    M185.93,151.43C185.3,151.81,185.24,151.86,184.63,152.27c0.064,0.256,0.112,0.544,0.112,0.816c0,0.496-0.112,0.976-0.32,1.392   c0.176-0.16,0.32-0.304,0.432-0.4c0.272-0.24,0.768-0.64,1.6-1.296l0.32-0.256H185.45l0,0L185.93,151.43L185.93,151.43L185.93,151.43z"/>
</g>
</svg>