<?xml version="1.0" encoding="utf-8"?>
<!-- Generator: Adobe Illustrator 23.0.0, SVG Export Plug-In . SVG Version: 6.00 Build 0)  -->
<svg xmlns="http://www.w3.org/2000/svg" xmlns:xlink="http://www.w3.org/1999/xlink" version="1.1" id="图层_1" x="0px" y="0px" width="337.5px" height="480px" viewBox="0 0 337.5 480" enable-background="new 0 0 337.5 480" xml:space="preserve">
<g>
	<path fill-rule="evenodd" clip-rule="evenodd" fill="#DCDDDD" d="M168.76,120.48c30.03-20.2,47.25-75.27,53.02-111.32   c-4.94,2.09-11.05,3-14.98,3.59c-12.43,1.87-25.56,2.43-38.12,2.43s-25.69-0.56-38.12-2.43c-3.89-0.58-9.9-1.48-14.82-3.52   C121.53,45.28,138.75,100.29,168.76,120.48z"/>
	
		<path fill-rule="evenodd" clip-rule="evenodd" fill="#162E53" stroke="#DCDDDD" stroke-width="0.2999" stroke-miterlimit="22.9256" d="   M293.28,171.3c11.01,6.57,25.3,9.7,43.74,7.76c0,0,0.51,13.04-0.1,32.99c-1.68,54.76-18.49,117.64-1.58,238.8   c1.46,10.44,0.94,7.14,1.66,13.12c-3.35,1.76-18.03,7.82-45.74,11.32C282.1,374.98,277.73,273.96,293.28,171.3z"/>
	
		<path fill-rule="evenodd" clip-rule="evenodd" fill="#ED3999" stroke="#DCDDDD" stroke-width="0.2999" stroke-miterlimit="22.9256" d="   M229.32,2.7l-0.14,0.31c-3.1,6.88-15.8,8.75-22.38,9.74c-12.43,1.87-25.56,2.43-38.12,2.43s-25.69-0.56-38.12-2.43   c-6.58-0.99-19.28-2.86-22.38-9.74l-0.12-0.26c1.26-0.51,1.83-0.74,6.41-2.58c4.3,3.62,25.53,8.1,54.21,8.1s50.49-3.51,54.21-8.1   l0.16,0.01C227.68,2.04,225.98,1.35,229.32,2.7z"/>
	
		<path fill-rule="evenodd" clip-rule="evenodd" fill="#162E53" stroke="#DCDDDD" stroke-width="0.2999" stroke-miterlimit="22.9256" d="   M168.76,126.08c-0.68,0.84-1.08,1.32-1.09,1.32c1.48-1.08-22.18-12.45-40.22-65.77c-2.58-7.62-5.6-16.09-7.86-25.51   c-2.53-10.53-4.24-22.23-6.13-35.26L72.17,16.17c0,0,28.37,122.19-27.94,155.09c15.52,102.57,11.16,203.49,2.02,303.7   c26.07,3.33,74.3,5.05,122.51,4.86c48.21,0.19,96.44-1.53,122.51-4.86c-9.15-100.2-13.51-201.13,2.01-303.7   c-56.31-32.91-27.94-155.09-27.94-155.09L224.06,0.85c-1.89,13.03-3.6,24.73-6.13,35.26c-2.26,9.42-5.28,17.89-7.86,25.51   c-18.04,53.32-41.71,64.7-40.22,65.77C169.84,127.4,169.44,126.92,168.76,126.08z"/>
	<g>
		
			<linearGradient id="SVGID_1_" gradientUnits="userSpaceOnUse" x1="156.409" y1="787.7975" x2="269.3023" y2="735.1544" gradientTransform="matrix(1 0 0 1 0 -362)">
			<stop offset="0" style="stop-color:#ED399B"/>
			<stop offset="1" style="stop-color:#162E50"/>
		</linearGradient>
		<path fill-rule="evenodd" clip-rule="evenodd" fill="url(#SVGID_1_)" d="M52.69,386.51c15.89-6.81,32.72-13.64,41.15-15.87    c27.9-7.35,112.15-39.73,131.52-54.31c-28.23,15.36-98.55,43.28-132.26,51.2c-4.15,0.98-17.68,4.58-40.2,14.49    C52.83,383.52,52.76,385.02,52.69,386.51L52.69,386.51z M51.08,414.26c18.29-7.71,38.5-15.23,46.71-17.42    c20.99-5.61,149.98-55.13,166.17-67.81c-26.18,25.01-159.39,70.59-213.25,90.67C50.83,417.89,50.96,416.07,51.08,414.26    L51.08,414.26z M50.66,420.47c91.68-26.73,159.99-48.35,225.18-93.36c-41.32,41.05-152.62,80.5-226.04,105.36    C50.09,428.47,50.38,424.47,50.66,420.47L50.66,420.47z M46.63,470.79h0.72v-2.53c67.96-19.33,194.4-68.66,236.02-100.72    c-16.26,25.1-137.68,71.88-137.68,71.88c37.33-8.05,106.04-40.25,106.04-40.25c-28.86,21.11-141.48,58.69-180.97,73.31    c46.41-8.47,182.71-60.72,213.89-89.77l0.01,0.12c-23.59,25.01-54.23,39.16-54.23,39.16c26.36-8.99,44.33-19.45,54.87-26.75    c0.06,1.08,0.12,2.16,0.18,3.25c-36.18,28.41-139.66,62.67-205.43,79.34c-13.28-0.75-24.84-1.7-33.79-2.85L46.63,470.79    L46.63,470.79z M148.75,479.79c3.78,0.03,7.57,0.04,11.37,0.04c15.58-4.76,45.89-15.14,82.46-33.32    c-22.44,9.1-64.24,24.65-90.77,32.44C151.58,479.02,150.49,479.32,148.75,479.79L148.75,479.79z M166.46,479.83l2.3-0.01    c1.38,0.01,2.77,0.01,4.15,0.01c5.45-1.84,10.06-3.4,10.81-3.65c14.05-4.64,71.2-24.32,81.26-40.41c0,0-20.53,19.4-83.37,38.87    C181.11,474.8,173.93,477.26,166.46,479.83L166.46,479.83z M201.67,479.65c2.26-0.03,4.5-0.07,6.73-0.11    c25.59-10.14,51.87-21.82,59.31-33.08C255.91,459.32,228.32,470.09,201.67,479.65L201.67,479.65z M216.74,479.37    c2.02-0.05,4.03-0.1,6.02-0.15c15.2-5.98,26.65-13.07,47.71-30.05C248.19,464.76,231.2,473.55,216.74,479.37L216.74,479.37z     M232.26,478.93c2.8-0.1,5.56-0.2,8.27-0.31c20.61-9.83,37.63-22.29,46.5-39.8C270.66,456.27,253.38,469.28,232.26,478.93z"/>
		<path fill-rule="evenodd" clip-rule="evenodd" fill="#ED399A" d="M267.82,477.15c1.52-1.15,3.14-2.37,4.87-3.69    c-2.04,1.27-4.12,2.54-6.23,3.79L267.82,477.15L267.82,477.15z M52.41,391.75c-0.18,3.46-0.38,6.93-0.58,10.39    c14.57-4,98.16-27.43,124.06-45.87c0,0-43.97,17.57-82.2,26.92c0,0,117.01-41.37,147.58-67.18c0,0-53.16,30.61-158.1,64.84    C74.81,383.57,63.77,387.43,52.41,391.75L52.41,391.75z M51.82,402.32c52.84-10.49,146.33-42.89,190.78-70.25    c-32.16,27.5-122.02,58.46-191.12,75.92C51.59,406.09,51.71,404.2,51.82,402.32L51.82,402.32z M49.4,437.7    c32.54-11.35,72-25.06,72-25.06c109.11-36.01,154.3-82.26,154.3-82.26c-23.16,29.74-76.04,56.25-112.2,69.3    c-38.64,13.94-75.78,27.7-114.34,40.96L49.4,437.7L49.4,437.7z M48.66,447.05c80.92-28.63,191.96-69.15,231.65-108.28    c-36.2,34.01-102.51,69.62-135.04,84.01c34.78-9.57,84.9-35.58,84.9-35.58c-42.19,27.11-95.84,42.84-95.84,42.84    c88.93-25.04,135.41-62.01,135.41-62.01c-35.58,35.66-174.73,84.25-222.9,100.33C47.48,461.27,48.08,454.16,48.66,447.05    L48.66,447.05z M106.43,478.96c106.19-31.55,144.89-50.21,170.64-71.26c-29.66,35.31-97.24,55.05-154.45,71.71    C117.1,479.29,111.69,479.14,106.43,478.96L106.43,478.96z M178.69,479.83c36.1-10.91,82.91-29.52,108.05-49.73    c-7.5,13.57-55.04,33.67-94.08,49.66C188.04,479.8,183.37,479.82,178.69,479.83L178.69,479.83z M248.28,478.28    c14.91-6.69,28.69-14.48,41.24-23.14l0.26,3.06c-8.54,7.3-19.67,13.77-31.86,19.58C254.8,477.96,251.58,478.13,248.28,478.28z"/>
	</g>
	<g>
		
			<linearGradient id="SVGID_2_" gradientUnits="userSpaceOnUse" x1="267.9005" y1="431.6954" x2="184.7898" y2="496.6286" gradientTransform="matrix(1 0 0 1 0 -362)">
			<stop offset="0" style="stop-color:#ED399B"/>
			<stop offset="1" style="stop-color:#162E50"/>
		</linearGradient>
		<path fill-rule="evenodd" clip-rule="evenodd" fill="url(#SVGID_2_)" d="M260.92,115.87c-10.79,7.91-19.89,15.26-23.65,19.73    c5.52-4.88,14.14-11.53,23.87-18.52C261.06,116.67,260.99,116.27,260.92,115.87L260.92,115.87z M258.71,97.34    c-21.71,14.98-43.35,30.74-47.64,36.04c5.87-8.9,25.21-23.8,47.44-39.3C258.57,95.17,258.64,96.25,258.71,97.34L258.71,97.34z     M258.32,89.42c-20.03,13.91-37.87,28.78-54.46,46.91c9.92-15.71,30.72-33.71,54.36-51.08C258.24,86.64,258.28,88.02,258.32,89.42    L258.32,89.42z M259.25,57.61c0.11-1.26,0.22-2.52,0.33-3.74c-19.49,13.76-61.36,44.54-66.39,58.34    C204.79,98.13,231.14,77.3,259.25,57.61L259.25,57.61z M259.75,52.17c0.12-1.15,0.24-2.29,0.36-3.41    c-22.09,14.65-43.7,29.92-51.58,39.03C208.52,87.79,237.47,65.1,259.75,52.17L259.75,52.17z M260.49,45.42    c0.31-2.6,0.64-5.08,0.97-7.41c-19.67,12.13-41.57,26.61-57.45,39.58c-0.65,1.54-1.31,3.04-1.97,4.49    c4.6-3.7,10.09-7.67,16.57-11.69c0,0-11.86,9.19-22.3,23.21c-1.01,1.84-2.01,3.6-3,5.25C205.2,84.93,233.47,63.45,260.49,45.42z"/>
		<path fill-rule="evenodd" clip-rule="evenodd" fill="#ED399A" d="M207.25,69.52c11.53-10.07,28.31-21.83,55.19-37.9    c0.26-1.63,0.52-3.15,0.77-4.56c-19.41,11.11-39.25,23.33-53.89,36.78C208.63,65.79,207.94,67.68,207.25,69.52L207.25,69.52z     M260.29,112c-0.13-0.9-0.26-1.8-0.38-2.7c-13.98,10.48-26.89,21.21-32.63,28.85C227.28,138.16,238.05,128.15,260.29,112    L260.29,112z M258.94,100.41c-13.87,9.72-26.28,19.48-34.85,27.92c6.63-8.95,19.24-19.68,34.64-30.68    C258.79,98.57,258.87,99.49,258.94,100.41L258.94,100.41z M258.2,80.59c-40.16,29.84-54.74,53.68-54.74,53.68    c9.33-20,34.55-41.97,54.76-55.94C258.21,79.08,258.21,79.84,258.2,80.59L258.2,80.59z M258.27,75.57    c-26.05,18.94-48.75,38.14-58.94,54.14c14.1-21.01,39.92-45.41,59.21-61.54C258.42,70.6,258.33,73.07,258.27,75.57L258.27,75.57z     M258.68,65.59c-17.43,11.69-34.82,26.48-34.82,26.48c11.1-11.36,24.35-21.42,34.96-28.72C258.77,64.09,258.72,64.83,258.68,65.59    L258.68,65.59z M258.88,62.46c-39.12,24.81-57.17,47.42-57.17,47.42c8.44-13.5,32.14-32.62,57.4-50.62    C259.03,60.32,258.95,61.38,258.88,62.46z"/>
	</g>
	
		<path fill-rule="evenodd" clip-rule="evenodd" fill="#162E53" stroke="#DCDDDD" stroke-width="0.2999" stroke-miterlimit="22.9256" d="   M44.22,171.14c-11.01,6.57-25.3,9.7-43.74,7.76c0,0-0.51,13.04,0.1,32.99c1.68,54.76,18.49,117.64,1.58,238.8   c-1.46,10.44-0.94,7.14-1.66,13.12c3.35,1.76,18.03,7.82,45.74,11.32C55.4,374.82,59.77,273.8,44.22,171.14z"/>
	
		<path fill-rule="evenodd" clip-rule="evenodd" fill="#ED3999" stroke="#DCDDDD" stroke-width="0.2999" stroke-miterlimit="22.9256" d="   M107.85,2.84l6.62-2.67l0.23,1.8c4.49,35.46,21.95,96.91,54.06,118.51c32.1-21.6,49.57-83.05,54.06-118.51l0.23-1.8l6.62,2.67   c-5.05,39.9-24.6,105.21-60.9,125.76C132.46,108.05,112.91,42.74,107.85,2.84z"/>
	<path fill="none" stroke="#DCDDDD" stroke-width="0.2999" stroke-miterlimit="22.9256" d="M204.57,176.96   c-4.82,0-7.16,2.35-7.16,7.2c0,4.84,2.34,7.2,7.16,7.2h18.77c4.82,0,7.17-2.35,7.17-7.2c0-4.84-2.34-7.2-7.17-7.2H204.57   L204.57,176.96z M228.7,237.73c0-4.82-2.35-7.16-7.2-7.16c-4.84,0-7.2,2.34-7.2,7.16v18.77c0,4.82,2.35,7.16,7.2,7.16   c4.84,0,7.2-2.34,7.2-7.16V237.73L228.7,237.73z M107.1,256.49c0,4.82,2.35,7.16,7.2,7.16c4.84,0,7.2-2.34,7.2-7.16v-18.77   c0-4.82-2.35-7.16-7.2-7.16c-4.84,0-7.2,2.34-7.2,7.16V256.49L107.1,256.49z M112.46,302.87c-4.82,0-7.16,2.35-7.16,7.2   c0,4.84,2.34,7.2,7.16,7.2h18.77c4.82,0,7.17-2.35,7.17-7.2c0-4.84-2.34-7.2-7.17-7.2H112.46L112.46,302.87z M204.57,302.87   c-4.82,0-7.16,2.35-7.16,7.2c0,4.84,2.34,7.2,7.16,7.2h18.77c4.82,0,7.17-2.35,7.17-7.2c0-4.84-2.34-7.2-7.17-7.2H204.57   L204.57,302.87z M112.46,176.96c-4.82,0-7.16,2.35-7.16,7.2c0,4.84,2.34,7.2,7.16,7.2h18.77c4.82,0,7.17-2.35,7.17-7.2   c0-4.84-2.34-7.2-7.17-7.2H112.46z"/>
	
		<path fill-rule="evenodd" clip-rule="evenodd" fill="#ED3999" stroke="#DCDDDD" stroke-width="0.2999" stroke-miterlimit="22.9256" d="   M69.93,44.06c2.37,18.55,3.39,37.91,1.76,56.55c-1.7,19.33-6.73,41.91-20.53,56.41c-2.23,2.35-4.69,4.47-7.35,6.32   c-2.76,1.92-6.04,3.59-9.14,4.88c-10.51,4.39-22.26,4.97-33.47,3.79l-0.72,6.86c14.81,1.56,26.94-0.15,36.85-4.29   c3.44-1.44,7.35-3.45,10.42-5.59C99.33,133.16,72.17,16.17,72.17,16.17l-6.72,2.71C67.43,27.41,68.82,35.4,69.93,44.06z"/>
	
		<path fill-rule="evenodd" clip-rule="evenodd" fill="#ED3997" stroke="#DCDDDD" stroke-width="0.2999" stroke-miterlimit="22.9256" d="   M267.58,44.06c-2.37,18.55-3.39,37.91-1.76,56.55c1.7,19.33,6.73,41.91,20.53,56.41c2.23,2.35,4.69,4.47,7.35,6.32   c2.76,1.92,6.04,3.59,9.14,4.88c10.51,4.39,22.26,4.97,33.47,3.79l0.72,6.86c-14.81,1.56-26.94-0.15-36.85-4.29   c-3.44-1.44-7.35-3.45-10.42-5.59c-51.59-35.86-24.42-152.85-24.42-152.85l6.72,2.71C270.09,27.41,268.69,35.4,267.58,44.06z"/>
	<path fill="none" stroke="#DCDDDD" stroke-width="0.2577" stroke-dasharray="1.2883,1.2883" d="M2.69,453.45   c0.44,0.15,11.18,3.39,11.63,3.53c7.29,2.27,15.72,3.74,22.09,4.74c15.33,2.41,31.02,3.71,46.51,4.64   c28.65,1.72,57.17,1.94,85.84,1.94c28.41,0.01,56.59,0.02,84.99-1.57c16.54-0.93,47.59-2.97,67.53-8.93   c1.12-0.33,12.55-3.79,13.6-4.15"/>
	
</g>
<g id="图层_x0020_1">
	<path fill="#F08300" d="M156.94,43.5c0.416,1.136,1.472,1.984,2.752,2.032c0.144,0,0.304,0,0.448-0.016h0.016   c0.016,0,0.064,0,0.128-0.016c0.032,0,0.048-0.016,0.08-0.016c0.064-0.016,0.144-0.032,0.224-0.048c0.016,0,0.016,0,0.032,0   c0.192-0.048,0.4-0.112,0.576-0.208c0.192-0.096,0.4-0.224,0.608-0.384c0.672-0.56,1.104-1.408,1.104-2.352   c0-0.224-0.032-0.448-0.08-0.672l0,0C162.78,41.62,162.73,41.45,162.65,41.27C162.18,40.18,161.1,39.42,159.83,39.42C158.14,39.42,156.76,40.79,156.76,42.49C156.76,42.84,156.82,43.18,156.94,43.5L156.94,43.5L156.94,43.5z M161.24,42.52L161.24,42.52C161.21,43.3,160.55,43.9,159.77,43.86C158.98,43.83,158.39,43.18,158.42,42.39c0.032-0.784,0.688-1.376,1.472-1.344   C160.66,41.08,161.27,41.75,161.24,42.52L161.24,42.52z"/>
	<polygon fill="#F08300" points="175.27,40.1 ,174.63,41.69 ,173.19,41.69 ,171.77,45.24 ,169.82,45.24 ,171.22,41.69 ,169.64,41.69    ,170.28,40.1"/>
	<path fill="#F08300" d="M177.24,35.37c-1.008-0.096-3.024-0.144-5.056,0.112c-2.416,0.304-5.152,0.912-7.616,1.664   C162.52,37.75,160.65,38.47,159.3,39.24C159.5,39.21,159.69,39.19,159.88,39.19c0.48,0,0.944,0.112,1.36,0.288   C165.34,37.16,172.54,35.11,177.24,35.37L177.24,35.37L177.24,35.37z"/>
	<path fill="#F08300" d="M162.71,40.84c4-2.368,8.88-4.672,13.488-5.248c-4.608,0.288-10.224,2-14.288,4.304   C162.23,40.15,162.5,40.47,162.71,40.84C162.71,40.84,162.71,40.84,162.71,40.84z"/>
	<polygon fill="#F08300" points="180.76,40.1 ,180.14,41.69 ,178.68,41.69 ,177.27,45.24 ,176.81,45.24 ,175.3,45.24 ,173.61,45.24    ,174.2,43.74 ,175.91,43.74 ,176.73,41.69 ,175.14,41.69 ,175.78,40.1"/>
	<polygon fill="#F08300" points="169.85,40.1 ,169.21,41.69 ,166.92,43.8 ,169.18,43.8 ,168.6,45.24 ,163.11,45.24 ,166.78,41.69    ,164.2,41.69 ,164.84,40.1"/>
	<path fill="#F08300" d="M175.13,35.96c-3.376,0.752-6.464,2.192-9.424,3.952h1.888C170.02,38.34,172.36,36.91,175.13,35.96z    M164.33,40.78C163.7,41.16,163.64,41.21,163.03,41.62c0.064,0.256,0.112,0.544,0.112,0.816c0,0.496-0.112,0.976-0.32,1.392   c0.176-0.16,0.32-0.304,0.432-0.4c0.272-0.24,0.768-0.64,1.6-1.296l0.32-0.256H163.85l0,0L164.33,40.78L164.33,40.78L164.33,40.78z"/>
</g>
</svg>