<?xml version="1.0" encoding="utf-8"?>
<!-- Generator: Adobe Illustrator 23.0.0, SVG Export Plug-In . SVG Version: 6.00 Build 0)  -->
<svg xmlns="http://www.w3.org/2000/svg" xmlns:xlink="http://www.w3.org/1999/xlink" version="1.1" id="图层_1" x="0px" y="0px" width="337.5px" height="480px" viewBox="0 0 337.5 480" enable-background="new 0 0 337.5 480" xml:space="preserve">
<g>
	<path fill-rule="evenodd" clip-rule="evenodd" fill="#DCDDDD" d="M168.76,120.48c30.03-20.2,47.25-75.27,53.02-111.32   c-4.94,2.09-11.05,3-14.98,3.59c-12.43,1.87-25.56,2.43-38.12,2.43s-25.69-0.56-38.12-2.43c-3.89-0.58-9.9-1.48-14.82-3.52   C121.53,45.28,138.75,100.29,168.76,120.48z"/>
	
		<path fill-rule="evenodd" clip-rule="evenodd" fill="#000001" stroke="#DCDDDD" stroke-width="0.2999" stroke-miterlimit="22.9256" d="   M293.28,171.3c11.01,6.57,25.3,9.7,43.74,7.76c0,0,0.51,13.04-0.1,32.99c-1.68,54.76-18.49,117.64-1.58,238.8   c1.46,10.44,0.94,7.14,1.66,13.12c-3.35,1.76-18.03,7.82-45.74,11.32C282.1,374.98,277.73,273.96,293.28,171.3z"/>
	
		<path fill-rule="evenodd" clip-rule="evenodd" fill="#00778E" stroke="#DCDDDD" stroke-width="0.2999" stroke-miterlimit="22.9256" d="   M229.32,2.7l-0.14,0.31c-3.1,6.88-15.8,8.75-22.38,9.74c-12.43,1.87-25.56,2.43-38.12,2.43s-25.69-0.56-38.12-2.43   c-6.58-0.99-19.28-2.86-22.38-9.74l-0.12-0.26c1.26-0.51,1.83-0.74,6.41-2.58c4.3,3.62,25.53,8.1,54.21,8.1s50.49-3.51,54.21-8.1   l0.16,0.01C227.68,2.04,225.98,1.35,229.32,2.7z"/>
	
		<path fill-rule="evenodd" clip-rule="evenodd" fill="#FFFFFF" stroke="#DCDDDD" stroke-width="0.2999" stroke-miterlimit="22.9256" d="   M168.76,126.08c-0.68,0.84-1.08,1.32-1.09,1.32c1.48-1.08-22.18-12.45-40.22-65.77c-2.58-7.62-5.6-16.09-7.86-25.51   c-2.53-10.53-4.24-22.23-6.13-35.26L72.17,16.17c0,0,28.37,122.19-27.94,155.09c15.52,102.57,11.16,203.49,2.02,303.7   c26.07,3.33,74.3,5.05,122.51,4.86c48.21,0.19,96.44-1.53,122.51-4.86c-9.15-100.2-13.51-201.13,2.01-303.7   c-56.31-32.91-27.94-155.09-27.94-155.09L224.06,0.85c-1.89,13.02-3.6,24.73-6.13,35.26c-2.26,9.42-5.28,17.89-7.86,25.51   c-18.04,53.32-41.71,64.7-40.22,65.77C169.84,127.4,169.44,126.92,168.76,126.08z"/>
	<g>
		<path fill-rule="evenodd" clip-rule="evenodd" fill="#00778D" d="M77.05,45.66h45.13c1.72,5.7,3.58,11.01,5.26,15.96    c18.04,53.32,41.71,64.7,40.22,65.77c0.01,0,0.41-0.48,1.09-1.32c0.68,0.84,1.08,1.32,1.09,1.32    c-1.49-1.08,22.18-12.45,40.22-65.77c1.68-4.95,3.54-10.27,5.26-15.96h45.13c-3.01,25.17-4.59,61.72,5.64,90.24H71.41    C81.64,107.38,80.06,70.83,77.05,45.66z"/>
		<path fill-rule="evenodd" clip-rule="evenodd" d="M71.44,135.82h194.64c5.34,14.93,13.91,27.68,27.2,35.44    c-2.77,18.32-4.91,36.58-6.5,54.8H50.73c-1.59-18.22-3.73-36.48-6.5-54.8C57.52,163.5,66.09,150.75,71.44,135.82z"/>
		<path fill-rule="evenodd" clip-rule="evenodd" fill="#45286A" d="M50.73,226.06h236.05c-0.31,3.5-0.59,7-0.86,10.5H51.59    C51.32,233.06,51.04,229.56,50.73,226.06z"/>
		<path fill-rule="evenodd" clip-rule="evenodd" fill="#45286A" d="M54.28,293.5h228.95c-0.07,3.45-0.12,6.89-0.16,10.34H54.44    C54.4,300.39,54.35,296.95,54.28,293.5z"/>
		<path fill-rule="evenodd" clip-rule="evenodd" fill="#FFFFFF" d="M51.58,236.48h234.35c-1.45,19.05-2.32,38.06-2.7,57.02H54.28    C53.9,274.54,53.03,255.54,51.58,236.48z"/>
		<path fill-rule="evenodd" clip-rule="evenodd" fill="#00778D" d="M54.44,303.75h228.63c-0.25,22.46,0.16,44.85,1.05,67.19H53.39    C54.29,348.6,54.69,326.21,54.44,303.75z"/>
		<path fill-rule="evenodd" clip-rule="evenodd" d="M53.39,371.02h230.74c0.9,22.45,2.3,44.84,4.03,67.19H49.36    C51.09,415.86,52.48,393.47,53.39,371.02z"/>
	</g>
	
		<path fill-rule="evenodd" clip-rule="evenodd" fill="#000001" stroke="#DCDDDD" stroke-width="0.2999" stroke-miterlimit="22.9256" d="   M44.22,171.14c-11.01,6.57-25.3,9.7-43.74,7.76c0,0-0.51,13.04,0.1,32.99c1.68,54.76,18.49,117.64,1.58,238.8   c-1.46,10.44-0.94,7.14-1.66,13.12c3.35,1.76,18.03,7.82,45.74,11.32C55.4,374.82,59.77,273.8,44.22,171.14z"/>
	
		<path fill-rule="evenodd" clip-rule="evenodd" fill="#00778E" stroke="#DCDDDD" stroke-width="0.2999" stroke-miterlimit="22.9256" d="   M107.85,2.84l6.62-2.67l0.23,1.8c4.49,35.46,21.95,96.91,54.06,118.51c32.1-21.6,49.57-83.05,54.06-118.51l0.23-1.8l6.62,2.67   c-5.05,39.9-24.6,105.21-60.9,125.76C132.46,108.05,112.91,42.74,107.85,2.84z"/>
	<path fill="none" stroke="#DCDDDD" stroke-width="0.2999" stroke-miterlimit="22.9256" d="M204.57,176.96   c-4.82,0-7.16,2.35-7.16,7.2c0,4.84,2.34,7.2,7.16,7.2h18.77c4.82,0,7.17-2.35,7.17-7.2c0-4.84-2.34-7.2-7.17-7.2H204.57   L204.57,176.96z M228.7,237.73c0-4.82-2.35-7.16-7.2-7.16c-4.84,0-7.2,2.34-7.2,7.16v18.77c0,4.82,2.35,7.16,7.2,7.16   c4.84,0,7.2-2.34,7.2-7.16V237.73L228.7,237.73z M107.1,256.49c0,4.82,2.35,7.16,7.2,7.16c4.84,0,7.2-2.34,7.2-7.16v-18.77   c0-4.82-2.35-7.16-7.2-7.16c-4.84,0-7.2,2.34-7.2,7.16V256.49L107.1,256.49z M112.46,302.87c-4.82,0-7.16,2.35-7.16,7.2   c0,4.84,2.34,7.2,7.16,7.2h18.77c4.82,0,7.17-2.35,7.17-7.2c0-4.84-2.34-7.2-7.17-7.2H112.46L112.46,302.87z M204.57,302.87   c-4.82,0-7.16,2.35-7.16,7.2c0,4.84,2.34,7.2,7.16,7.2h18.77c4.82,0,7.17-2.35,7.17-7.2c0-4.84-2.34-7.2-7.17-7.2H204.57   L204.57,302.87z M112.46,176.96c-4.82,0-7.16,2.35-7.16,7.2c0,4.84,2.34,7.2,7.16,7.2h18.77c4.82,0,7.17-2.35,7.17-7.2   c0-4.84-2.34-7.2-7.17-7.2H112.46z"/>
	
		<path fill-rule="evenodd" clip-rule="evenodd" fill="#00778E" stroke="#DCDDDD" stroke-width="0.2999" stroke-miterlimit="22.9256" d="   M69.93,44.06c2.37,18.55,3.39,37.91,1.76,56.55c-1.7,19.33-6.73,41.91-20.53,56.41c-2.23,2.35-4.69,4.47-7.35,6.32   c-2.76,1.92-6.04,3.59-9.14,4.88c-10.51,4.39-22.26,4.97-33.47,3.79l-0.72,6.86c14.81,1.56,26.94-0.15,36.85-4.29   c3.44-1.44,7.35-3.45,10.42-5.59C99.33,133.16,72.17,16.17,72.17,16.17l-6.72,2.71C67.43,27.41,68.82,35.4,69.93,44.06z"/>
	
		<path fill-rule="evenodd" clip-rule="evenodd" fill="#00778E" stroke="#DCDDDD" stroke-width="0.2999" stroke-miterlimit="22.9256" d="   M267.58,44.06c-2.37,18.55-3.39,37.91-1.76,56.55c1.7,19.33,6.73,41.91,20.53,56.41c2.23,2.35,4.69,4.47,7.35,6.32   c2.76,1.92,6.04,3.59,9.14,4.88c10.51,4.39,22.26,4.97,33.47,3.79l0.72,6.86c-14.81,1.56-26.94-0.15-36.85-4.29   c-3.44-1.44-7.35-3.45-10.42-5.59c-51.59-35.86-24.42-152.85-24.42-152.85l6.72,2.71C270.09,27.41,268.69,35.4,267.58,44.06z"/>
	<path fill="none" stroke="#DCDDDD" stroke-width="0.2577" stroke-dasharray="1.2883,1.2883" d="M2.69,453.45   c0.44,0.15,11.18,3.39,11.63,3.53c7.29,2.27,15.72,3.74,22.09,4.74c15.33,2.41,31.02,3.71,46.51,4.64   c28.65,1.72,57.17,1.94,85.84,1.94c28.41,0.01,56.59,0.02,84.99-1.57c16.54-0.93,47.59-2.97,67.53-8.93   c1.12-0.33,12.55-3.79,13.6-4.15"/>
	
</g>
<g id="图层_x0020_1">
	<path fill="#F08300" d="M156.94,43.5c0.416,1.136,1.472,1.984,2.752,2.032c0.144,0,0.304,0,0.448-0.016h0.016   c0.016,0,0.064,0,0.128-0.016c0.032,0,0.048-0.016,0.08-0.016c0.064-0.016,0.144-0.032,0.224-0.048c0.016,0,0.016,0,0.032,0   c0.192-0.048,0.4-0.112,0.576-0.208c0.192-0.096,0.4-0.224,0.608-0.384c0.672-0.56,1.104-1.408,1.104-2.352   c0-0.224-0.032-0.448-0.08-0.672l0,0C162.78,41.62,162.73,41.45,162.65,41.27C162.18,40.18,161.1,39.42,159.83,39.42C158.14,39.42,156.76,40.79,156.76,42.49C156.76,42.84,156.82,43.18,156.94,43.5L156.94,43.5L156.94,43.5z M161.24,42.52L161.24,42.52C161.21,43.3,160.55,43.9,159.77,43.86C158.98,43.83,158.39,43.18,158.42,42.39c0.032-0.784,0.688-1.376,1.472-1.344   C160.66,41.08,161.27,41.75,161.24,42.52L161.24,42.52z"/>
	<polygon fill="#F08300" points="175.27,40.1 ,174.63,41.69 ,173.19,41.69 ,171.77,45.24 ,169.82,45.24 ,171.22,41.69 ,169.64,41.69    ,170.28,40.1"/>
	<path fill="#F08300" d="M177.24,35.37c-1.008-0.096-3.024-0.144-5.056,0.112c-2.416,0.304-5.152,0.912-7.616,1.664   C162.52,37.75,160.65,38.47,159.3,39.24C159.5,39.21,159.69,39.19,159.88,39.19c0.48,0,0.944,0.112,1.36,0.288   C165.34,37.16,172.54,35.11,177.24,35.37L177.24,35.37L177.24,35.37z"/>
	<path fill="#F08300" d="M162.71,40.84c4-2.368,8.88-4.672,13.488-5.248c-4.608,0.288-10.224,2-14.288,4.304   C162.23,40.15,162.5,40.47,162.71,40.84C162.71,40.84,162.71,40.84,162.71,40.84z"/>
	<polygon fill="#F08300" points="180.76,40.1 ,180.14,41.69 ,178.68,41.69 ,177.27,45.24 ,176.81,45.24 ,175.3,45.24 ,173.61,45.24    ,174.2,43.74 ,175.91,43.74 ,176.73,41.69 ,175.14,41.69 ,175.78,40.1"/>
	<polygon fill="#F08300" points="169.85,40.1 ,169.21,41.69 ,166.92,43.8 ,169.18,43.8 ,168.6,45.24 ,163.11,45.24 ,166.78,41.69    ,164.2,41.69 ,164.84,40.1"/>
	<path fill="#F08300" d="M175.13,35.96c-3.376,0.752-6.464,2.192-9.424,3.952h1.888C170.02,38.34,172.36,36.91,175.13,35.96z    M164.33,40.78C163.7,41.16,163.64,41.21,163.03,41.62c0.064,0.256,0.112,0.544,0.112,0.816c0,0.496-0.112,0.976-0.32,1.392   c0.176-0.16,0.32-0.304,0.432-0.4c0.272-0.24,0.768-0.64,1.6-1.296l0.32-0.256H163.85l0,0L164.33,40.78L164.33,40.78L164.33,40.78z"/>
</g>
</svg>