<?xml version="1.0" encoding="utf-8"?>
<!-- Generator: Adobe Illustrator 23.0.0, SVG Export Plug-In . SVG Version: 6.00 Build 0)  -->
<svg xmlns="http://www.w3.org/2000/svg" xmlns:xlink="http://www.w3.org/1999/xlink" version="1.1" id="图层_1" x="0px" y="0px" width="297.02px" height="537.6px" viewBox="0 0 297.02 537.6" enable-background="new 0 0 297.02 537.6" xml:space="preserve">
<g>
	
		<path fill-rule="evenodd" clip-rule="evenodd" fill="#FFFFFE" stroke="#DCDDDD" stroke-width="0.2248" stroke-miterlimit="22.9256" d="   M265.64,147.21c0,0-13.43,38.68-13.43,97.97s1.97,144.19,44.56,271.29c0,0-24.02,10.29-50.83,13.85   c-9.3-142.7-51.34-284.15-10.46-427.84C242.81,119.35,253.4,134.58,265.64,147.21z"/>
	
		<path fill-rule="evenodd" clip-rule="evenodd" fill="#372256" stroke="#DCDDDD" stroke-width="0.2248" stroke-miterlimit="22.9256" d="   M232.91,10.69c-20.31,52.13,0.51,103.25,32.71,136.52l3.12-8.7C214.23,76.97,241,17.53,242.25,15.02L232.91,10.69z"/>
	<path fill-rule="evenodd" clip-rule="evenodd" fill="#DCDDDD" d="M90.32,8.47c6.35,19.73,25.2,68.13,58.18,71.59   c32.98-3.46,51.83-51.87,58.18-71.59c-9.72,3.99-31.2,11.39-58.18,11.98C121.52,19.86,100.04,12.47,90.32,8.47z"/>
	
		<path fill-rule="evenodd" clip-rule="evenodd" fill="#372256" stroke="#DCDDDD" stroke-width="0.2248" stroke-miterlimit="22.9256" d="   M81.83,2.62c7.69,31.39,30.1,80.3,66.52,84.01c0.05,0,0.1-0.01,0.15-0.01c0.05,0,0.1,0.01,0.15,0.01   c36.42-3.71,58.83-52.62,66.52-84.01l-6.05-2.41c-17.68,9.28-39.1,13.6-60.62,13.6c-21.52-0.01-42.94-4.32-60.62-13.6L81.83,2.62   L81.83,2.62L81.83,2.62L81.83,2.62z M148.5,80.06C115.52,76.6,96.67,28.19,90.32,8.47c9.72,3.99,31.2,11.39,58.18,11.98   c26.98-0.59,48.46-7.98,58.18-11.98C200.33,28.2,181.48,76.6,148.5,80.06z"/>
	
		<path fill-rule="evenodd" clip-rule="evenodd" fill="#FFFFFE" stroke="#DCDDDD" stroke-width="0.2248" stroke-miterlimit="22.9256" d="   M31.38,147.2c0,0,13.43,38.68,13.43,97.97S42.84,389.36,0.25,516.46c0,0,24.02,10.29,50.83,13.85   c9.3-142.7,51.34-284.15,10.46-427.84C54.21,119.34,43.62,134.56,31.38,147.2z"/>
	
		<path fill-rule="evenodd" clip-rule="evenodd" fill="#372256" stroke="#DCDDDD" stroke-width="0.2248" stroke-miterlimit="22.9256" d="   M64.09,10.69c20.31,52.13-0.51,103.25-32.71,136.52l-3.12-8.7C82.76,76.97,55.99,17.53,54.74,15.02L64.09,10.69z"/>
	
	
		<path fill-rule="evenodd" clip-rule="evenodd" fill="#362255" stroke="#DCDDDD" stroke-width="0.2248" stroke-miterlimit="22.9256" d="   M148.5,537.39c0,0,10.9,0.27,34.98-3.45c0,0,12.74-2.03,19.79-2.38c7.05-0.34,26.09,1.74,42.67-1.25   c-9.3-142.69-51.34-284.15-10.46-427.84c-11.94-27.53-15.15-59.46-2.56-91.78l-17.74-8.08c-7.69,31.39-30.1,80.3-66.52,84.01   l-0.15-0.01l-0.15,0.01C111.94,82.91,89.52,34,81.84,2.61l-17.75,8.08c12.59,32.32,9.37,64.25-2.56,91.78   c40.88,143.69-1.16,285.15-10.46,427.84c16.57,3,35.62,0.91,42.67,1.25s19.79,2.38,19.79,2.38   C137.6,537.66,148.5,537.39,148.5,537.39z"/>
	<path fill-rule="evenodd" clip-rule="evenodd" fill="#FFFFFF" d="M97.41,133.87c0,0,36.14,2.16,70.43,93.6   C167.84,227.47,138.71,164.69,97.41,133.87L97.41,133.87z M174.13,535.28c2.86-0.38,5.98-0.82,9.35-1.34c0,0,12.74-2.03,19.79-2.38   c1.93-0.09,4.76,0,8.18,0.11c-40.32-48.21-60.35-117.68-60.35-117.68C151.25,476.48,164.23,514.98,174.13,535.28L174.13,535.28z    M229.93,531.86c1.38-0.04,2.78-0.11,4.18-0.19c-0.44-0.43-0.87-0.86-1.31-1.28c-33.04-32.2-54.96-73.07-68.4-116.72   c-16.5-53.6-7.62-75.71-8.25-124.79c-1.04-80.86-45.5-113.07-45.5-113.07c-0.09,0.12,21.09,17.17,33.82,58.97   c9.54,31.35,9.13,58.24,7.27,96.35c-1.11,22.75-2.77,57.59,22.36,116.87C185.78,475.51,203.44,504.65,229.93,531.86L229.93,531.86z    M245.47,523.46c-13.01-12.86-32.33-35.76-52.78-73.33c0,0,28.83,39.06,52.13,64.83C245.04,517.79,245.26,520.63,245.47,523.46   L245.47,523.46z M241.63,481.38c-25.38-35.32-46.11-74.4-58.83-115.95c-3.42-11.18-15.39-54.37-11.66-100.54   c0,0,10.43,67.98,57.78,114.47c1.6,12.65,3.26,25.29,4.91,37.94c-10.86-12.57-27.11-33.67-28.48-38.25c0,0,16.76,37.14,31.77,63.9   C238.73,455.75,240.26,468.56,241.63,481.38L241.63,481.38z M226.41,358.98c-13.19-13.19-32.23-37.89-38.1-71   c8.55,20.65,22.78,47.52,37.3,64.23C225.88,354.46,226.14,356.72,226.41,358.98L226.41,358.98z M224.49,342.24   c-0.72-6.53-1.4-13.06-2.04-19.6c-10.27-17.22-20.98-37.31-25.85-53.65c-11.83-47.68-27.45-77.32-40.84-95.06   c-12.99-17.2-23.04-23.11-23.04-23.11c26.07,26.24,41.2,77.34,44.09,87.81C189.33,283.93,197.68,308.94,224.49,342.24   L224.49,342.24z M154.84,165.98c21.52,22.97,40.85,83.6,40.85,83.6C184.36,184.69,154.84,165.98,154.84,165.98L154.84,165.98z    M170.27,351.68c0,0,29.14,96.38,65.45,135.15C235.72,486.84,177.67,437.75,170.27,351.68z"/>
	<path fill-rule="evenodd" clip-rule="evenodd" fill="#FFFFFF" d="M82.65,5.76c-0.28-1.07-0.55-2.12-0.81-3.16l-4.9,2.23   c0.35,2.08,0.67,3.97,0.91,5.41c2.25,13.43,4.58,30.98,12.45,42.47C86.59,46.63,83.69,17.61,82.65,5.76L82.65,5.76z M68.8,8.54   c1.53,6.71,3.12,13.59,3.67,15.73c4.87,18.91,19.31,69.68,38.95,90.88c0,0-23.69-17.33-40.76-43.72   c3.08-19.38,1.52-39.98-6.57-60.74L68.8,8.54L68.8,8.54z M69.36,78.33c-0.27,1.24-0.56,2.47-0.87,3.69   c5.83,5.37,11.95,10.2,11.95,10.2C76.31,88.18,72.51,83.13,69.36,78.33L69.36,78.33z M64.99,93.66c-0.54,1.54-1.12,3.08-1.72,4.6   c16.18,13.82,30.29,9.78,30.29,9.78C80.39,106.95,70.92,99.92,64.99,93.66L64.99,93.66z M99.46,55.94c8.72,63.25,28.47,68,28.47,68   C109.36,105.61,99.46,55.94,99.46,55.94z"/>
</g>
<g id="图层_x0020_1">
	<path fill="#F08300" d="M136.68,43.52c0.416,1.136,1.472,1.984,2.752,2.032c0.144,0,0.304,0,0.448-0.016h0.016   c0.016,0,0.064,0,0.128-0.016c0.032,0,0.048-0.016,0.08-0.016c0.064-0.016,0.144-0.032,0.224-0.048c0.016,0,0.016,0,0.032,0   c0.192-0.048,0.4-0.112,0.576-0.208c0.192-0.096,0.4-0.224,0.608-0.384c0.672-0.56,1.104-1.408,1.104-2.352   c0-0.224-0.032-0.448-0.08-0.672l0,0C142.52,41.64,142.47,41.47,142.39,41.29C141.92,40.2,140.84,39.44,139.57,39.44C137.88,39.44,136.5,40.81,136.5,42.51C136.5,42.86,136.56,43.2,136.68,43.52L136.68,43.52L136.68,43.52z M140.98,42.54L140.98,42.54C140.95,43.32,140.29,43.92,139.51,43.88C138.72,43.85,138.13,43.2,138.16,42.41c0.032-0.784,0.688-1.376,1.472-1.344   C140.4,41.1,141.01,41.77,140.98,42.54L140.98,42.54z"/>
	<polygon fill="#F08300" points="155.01,40.12 ,154.37,41.71 ,152.93,41.71 ,151.51,45.26 ,149.56,45.26 ,150.96,41.71 ,149.38,41.71    ,150.02,40.12"/>
	<path fill="#F08300" d="M156.98,35.39c-1.008-0.096-3.024-0.144-5.056,0.112c-2.416,0.304-5.152,0.912-7.616,1.664   C142.26,37.77,140.39,38.49,139.04,39.26C139.24,39.23,139.43,39.21,139.62,39.21c0.48,0,0.944,0.112,1.36,0.288   C145.08,37.18,152.28,35.13,156.98,35.39L156.98,35.39L156.98,35.39z"/>
	<path fill="#F08300" d="M142.45,40.86c4-2.368,8.88-4.672,13.488-5.248c-4.608,0.288-10.224,2-14.288,4.304   C141.97,40.17,142.24,40.49,142.45,40.86C142.45,40.86,142.45,40.86,142.45,40.86z"/>
	<polygon fill="#F08300" points="160.5,40.12 ,159.88,41.71 ,158.42,41.71 ,157.01,45.26 ,156.55,45.26 ,155.04,45.26 ,153.35,45.26    ,153.94,43.76 ,155.65,43.76 ,156.47,41.71 ,154.88,41.71 ,155.52,40.12"/>
	<polygon fill="#F08300" points="149.59,40.12 ,148.95,41.71 ,146.66,43.82 ,148.92,43.82 ,148.34,45.26 ,142.85,45.26 ,146.52,41.71    ,143.94,41.71 ,144.58,40.12"/>
	<path fill="#F08300" d="M154.87,35.98c-3.376,0.752-6.464,2.192-9.424,3.952h1.888C149.76,38.36,152.1,36.93,154.87,35.98z    M144.07,40.8C143.44,41.18,143.38,41.23,142.77,41.64c0.064,0.256,0.112,0.544,0.112,0.816c0,0.496-0.112,0.976-0.32,1.392   c0.176-0.16,0.32-0.304,0.432-0.4c0.272-0.24,0.768-0.64,1.6-1.296l0.32-0.256H143.59l0,0L144.07,40.8L144.07,40.8L144.07,40.8z"/>
</g>
</svg>