<?xml version="1.0" encoding="utf-8"?>
<!-- Generator: Adobe Illustrator 23.0.0, SVG Export Plug-In . SVG Version: 6.00 Build 0)  -->
<svg xmlns="http://www.w3.org/2000/svg" xmlns:xlink="http://www.w3.org/1999/xlink" version="1.1" id="图层_1" x="0px" y="0px" width="297.02px" height="537.6px" viewBox="0 0 297.02 537.6" enable-background="new 0 0 297.02 537.6" xml:space="preserve">
<g>
	
		<path fill-rule="evenodd" clip-rule="evenodd" fill="#000001" stroke="#DCDDDD" stroke-width="0.2248" stroke-miterlimit="22.9256" d="   M265.64,147.21c0,0-13.43,38.68-13.43,97.97s1.97,144.19,44.56,271.29c0,0-24.02,10.29-50.83,13.85   c-9.3-142.7-51.34-284.15-10.46-427.84C242.81,119.35,253.4,134.58,265.64,147.21z"/>
	
		<path fill-rule="evenodd" clip-rule="evenodd" fill="#000003" stroke="#DCDDDD" stroke-width="0.2248" stroke-miterlimit="22.9256" d="   M232.91,10.69c-20.31,52.13,0.51,103.25,32.71,136.52l3.12-8.7C214.23,76.97,241,17.53,242.25,15.02L232.91,10.69z"/>
	<path fill-rule="evenodd" clip-rule="evenodd" fill="#DCDDDD" d="M90.32,8.47c6.35,19.73,25.2,68.13,58.18,71.59   c32.98-3.46,51.83-51.87,58.18-71.59c-9.72,3.99-31.2,11.39-58.18,11.98C121.52,19.86,100.04,12.47,90.32,8.47z"/>
	
		<path fill-rule="evenodd" clip-rule="evenodd" fill="#000003" stroke="#DCDDDD" stroke-width="0.2248" stroke-miterlimit="22.9256" d="   M81.83,2.62c7.69,31.39,30.1,80.3,66.52,84.01c0.05,0,0.1-0.01,0.15-0.01s0.1,0.01,0.15,0.01c36.42-3.71,58.83-52.62,66.52-84.01   l-6.05-2.41c-17.68,9.28-39.1,13.6-60.62,13.6c-21.52-0.01-42.94-4.32-60.62-13.6L81.83,2.62L81.83,2.62L81.83,2.62L81.83,2.62z    M148.5,80.06C115.52,76.6,96.67,28.19,90.32,8.47c9.72,3.99,31.2,11.39,58.18,11.98c26.98-0.59,48.46-7.98,58.18-11.98   C200.33,28.2,181.48,76.6,148.5,80.06z"/>
	
		<path fill-rule="evenodd" clip-rule="evenodd" fill="#000001" stroke="#DCDDDD" stroke-width="0.2248" stroke-miterlimit="22.9256" d="   M31.38,147.2c0,0,13.43,38.68,13.43,97.97S42.84,389.36,0.25,516.46c0,0,24.02,10.29,50.83,13.85   c9.3-142.7,51.34-284.15,10.46-427.84C54.21,119.34,43.62,134.56,31.38,147.2z"/>
	
	
		<path fill-rule="evenodd" clip-rule="evenodd" fill="#000003" stroke="#DCDDDD" stroke-width="0.2248" stroke-miterlimit="22.9256" d="   M64.09,10.69c20.31,52.13-0.51,103.25-32.71,136.52l-3.12-8.7C82.76,76.97,55.99,17.53,54.74,15.02L64.09,10.69z"/>
	
		<path fill-rule="evenodd" clip-rule="evenodd" fill="#00653D" stroke="#DCDDDD" stroke-width="0.2248" stroke-miterlimit="22.9256" d="   M148.5,537.39c0,0,10.9,0.27,34.98-3.45c0,0,12.74-2.03,19.79-2.38c7.05-0.34,26.09,1.74,42.67-1.25   c-9.3-142.69-51.34-284.15-10.46-427.84c-11.94-27.53-15.15-59.46-2.56-91.78l-17.74-8.08c-7.69,31.39-30.1,80.3-66.52,84.01   l-0.15-0.01l-0.15,0.01C111.94,82.91,89.52,34,81.84,2.61l-17.75,8.08c12.59,32.32,9.37,64.25-2.56,91.78   c40.88,143.69-1.16,285.15-10.46,427.84c16.57,3,35.62,0.91,42.67,1.25s19.79,2.38,19.79,2.38   C137.6,537.66,148.5,537.39,148.5,537.39z"/>
	<path fill-rule="evenodd" clip-rule="evenodd" fill="#000002" d="M148.5,537.39c0,0,10.9,0.27,34.98-3.45   c0,0,12.74-2.03,19.79-2.38c7.05-0.34,26.09,1.74,42.67-1.25c-2.83-43.4-8.69-86.7-14.32-129.97c-2.59,2.87-5.86,6.5-5.92,6.57   c-0.89,1.17-2.01,2.67-2.2,2.96c-1.85,2.86-2.88,6.35-2.46,9.71l0.92,7.33c0.65,5.2-0.73,5.28-5.58,5.64   c-21.2,1.58-44.55-6.3-63.26-15.46c-7.56-3.35-16.88-2.76-24.13,0.82c-17.99,8.89-28.94,16.18-49.68,14.64   c-4.85-0.36-6.23-0.43-5.58-5.64l0.92-7.33c0.42-3.36-0.61-6.85-2.46-9.71c-0.19-0.3-1.31-1.79-2.2-2.96   c-0.08-0.1-2.34-3-4.67-5.99C59.71,444,53.89,487.1,51.08,530.31c16.57,3,35.62,0.91,42.67,1.25c7.05,0.34,19.79,2.38,19.79,2.38   C137.6,537.66,148.5,537.39,148.5,537.39z"/>
	<path fill-rule="evenodd" clip-rule="evenodd" fill="#FFF500" d="M148.5,537.39c0,0,10.9,0.27,34.98-3.45   c0,0,12.74-2.03,19.79-2.38c7.05-0.34,26.09,1.74,42.67-1.25c-1.89-29.04-5.14-58.03-8.77-86.99c-5.08-0.04-8.88-0.08-9.12-0.09   c-10.06-0.4-18.43-1.61-28.52-3.09c-10.4-1.52-20.89-3.26-30.83-6.67c-6.28-2.15-12.94-2.54-18.93,0.66c-6.94,3.7-5,2.45-10.51,7.7   c-7.56,7.22-16.35,13.23-25.72,17.82c-6.79,3.33-13.84,2.22-18.23-3.99c-3.25-4.59-5.6-7.47-10.48-10.07   c-5.99-3.19-12.66-2.81-18.93-0.66c-2.14,0.74-4.31,1.39-6.5,1.99c-3.45,27.76-6.51,55.55-8.32,83.38   c16.57,3,35.62,0.91,42.67,1.25s19.79,2.38,19.79,2.38C137.6,537.66,148.5,537.39,148.5,537.39z"/>
	<path fill-rule="evenodd" clip-rule="evenodd" fill="#FFFFFC" d="M106.45,58.06c-8.11-11.32-14.45-24.58-19-37.08   c-3.68-1.49-7.7-2.31-11.92-2.31c-2.88,0-5.66,0.38-8.31,1.1c6.41,21.32,6.19,42.3,1.39,61.79c2.23,0.5,4.55,0.76,6.92,0.76   C90.5,82.32,103.05,71.99,106.45,58.06z"/>
	<path fill-rule="evenodd" clip-rule="evenodd" fill="#000002" d="M103.97,54.45c-6.07-9.18-11.06-19.38-14.95-29.3   c-4.02-2.14-8.61-3.36-13.49-3.36c-2.58,0-5.08,0.34-7.45,0.98c5.22,19.19,5.13,38.06,1.24,55.76c2,0.44,4.08,0.68,6.22,0.68   C90.04,79.2,102.04,68.43,103.97,54.45z"/>
	<path fill-rule="evenodd" clip-rule="evenodd" fill="#FFFFFC" d="M70.38,33.04C72.5,45,72.62,56.78,71.13,68.16   c1.41,0.35,2.88,0.54,4.4,0.54c10.05,0,18.2-8.15,18.2-18.2s-8.15-18.2-18.2-18.2C73.74,32.3,72.02,32.55,70.38,33.04z"/>
	<path fill-rule="evenodd" clip-rule="evenodd" fill="#FFF500" d="M70.89,36.19c1.45,9.77,1.58,19.41,0.61,28.79   c1.28,0.36,2.63,0.55,4.03,0.55c8.3,0,15.03-6.73,15.03-15.03s-6.73-15.03-15.03-15.03C73.91,35.46,72.36,35.72,70.89,36.19z"/>
	<g>
		<path fill-rule="evenodd" clip-rule="evenodd" fill="#FFFFFF" d="M202.42,281.51c0.81,0.43,1.12,1.43,0.69,2.24    s-1.43,1.12-2.24,0.69c-0.81-0.43-1.12-1.43-0.69-2.24C200.61,281.38,201.61,281.08,202.42,281.51L202.42,281.51z M219.31,282.95    c-0.05-0.89-0.1-1.77-0.15-2.66c-0.23,0.14-0.42,0.33-0.56,0.59c-0.39,0.73-0.11,1.64,0.62,2.03L219.31,282.95L219.31,282.95z     M218.64,269.99c-0.04-0.84-0.07-1.68-0.1-2.52c-0.55-0.12-1.14,0.14-1.42,0.66c-0.34,0.63-0.1,1.42,0.54,1.76    C217.97,270.06,218.32,270.08,218.64,269.99L218.64,269.99z M211.49,271.13c-0.28,0.52-0.93,0.72-1.45,0.44s-0.72-0.93-0.44-1.45    c0.28-0.52,0.93-0.72,1.45-0.44C211.57,269.96,211.77,270.61,211.49,271.13L211.49,271.13z M209.41,268.58    c0.34-0.63,0.1-1.42-0.54-1.76s-1.42-0.1-1.76,0.54c-0.34,0.63-0.1,1.42,0.54,1.76C208.29,269.45,209.07,269.21,209.41,268.58    L209.41,268.58z M207.15,265.83c-0.39,0.73-1.3,1.01-2.03,0.62s-1.01-1.3-0.62-2.03s1.3-1.01,2.03-0.62    S207.54,265.1,207.15,265.83L207.15,265.83z M204.73,262.9c0.43-0.81,0.12-1.81-0.69-2.24s-1.81-0.12-2.24,0.69    c-0.43,0.81-0.12,1.81,0.69,2.24C203.3,264.01,204.3,263.71,204.73,262.9L204.73,262.9z M214.26,275.57    c0.28-0.52,0.93-0.72,1.45-0.44s0.72,0.93,0.44,1.45c-0.28,0.52-0.93,0.72-1.45,0.44C214.18,276.75,213.99,276.1,214.26,275.57    L214.26,275.57z M216.34,278.13c-0.34,0.63-0.1,1.42,0.54,1.76s1.42,0.1,1.76-0.54c0.34-0.63,0.1-1.42-0.54-1.76    C217.46,277.25,216.68,277.5,216.34,278.13L216.34,278.13z M215.1,271.97c-0.52-0.28-0.72-0.93-0.44-1.45    c0.28-0.52,0.93-0.72,1.45-0.44s0.72,0.93,0.44,1.45C216.27,272.05,215.62,272.25,215.1,271.97L215.1,271.97z M213.31,272.55    c0.45,0.24,0.62,0.79,0.38,1.24c-0.24,0.45-0.79,0.62-1.24,0.38c-0.45-0.24-0.62-0.79-0.38-1.24    C212.31,272.48,212.86,272.31,213.31,272.55L213.31,272.55z M210.66,274.75c0.52,0.28,0.72,0.93,0.44,1.45    c-0.28,0.52-0.93,0.72-1.45,0.44s-0.72-0.93-0.44-1.45C209.49,274.67,210.14,274.47,210.66,274.75L210.66,274.75z M208.1,276.82    c-0.63-0.34-1.42-0.1-1.76,0.54s-0.1,1.42,0.54,1.76c0.63,0.34,1.42,0.1,1.76-0.54C208.98,277.95,208.74,277.16,208.1,276.82    L208.1,276.82z M205.35,279.08c-0.73-0.39-1.64-0.11-2.03,0.62c-0.39,0.73-0.11,1.64,0.62,2.03c0.73,0.39,1.64,0.11,2.03-0.62    C206.36,280.38,206.09,279.47,205.35,279.08z"/>
		<path fill-rule="evenodd" clip-rule="evenodd" fill="#FFFFFF" d="M214.77,357.95c1.41-0.6,3.03,0.06,3.63,1.47    s-0.06,3.03-1.47,3.63s-3.03-0.06-3.63-1.47S213.36,358.55,214.77,357.95L214.77,357.95z M210.89,335.25    c0.39,0.91-0.04,1.96-0.95,2.35s-1.96-0.04-2.35-0.95c-0.38-0.91,0.04-1.96,0.95-2.35C209.46,333.91,210.51,334.34,210.89,335.25    L210.89,335.25z M205.38,335.24c0.47,1.11-0.05,2.38-1.16,2.85s-2.38-0.05-2.85-1.16c-0.47-1.11,0.05-2.38,1.16-2.85    C203.64,333.62,204.92,334.13,205.38,335.24L205.38,335.24z M199.44,335.27c0.54,1.28-0.06,2.75-1.33,3.28    c-1.28,0.54-2.75-0.06-3.28-1.33c-0.54-1.28,0.06-2.75,1.33-3.28C197.43,333.4,198.9,333.99,199.44,335.27L199.44,335.27z     M193.08,335.32c0.6,1.41-0.06,3.03-1.47,3.63s-3.03-0.06-3.63-1.47s0.06-3.04,1.47-3.63    C190.86,333.25,192.48,333.91,193.08,335.32L193.08,335.32z M219.58,336.34c-0.39-0.91,0.04-1.96,0.95-2.35s1.96,0.04,2.35,0.95    s-0.04,1.96-0.95,2.35C221.02,337.68,219.97,337.25,219.58,336.34L219.58,336.34z M215.79,331.45c-0.91,0.39-1.96-0.04-2.35-0.95    s0.04-1.96,0.95-2.35s1.96,0.04,2.35,0.95C217.13,330.01,216.7,331.06,215.79,331.45L215.79,331.45z M215.8,325.94    c-1.11,0.47-2.38-0.05-2.85-1.16c-0.47-1.11,0.05-2.38,1.16-2.85s2.38,0.05,2.85,1.16C217.42,324.2,216.91,325.47,215.8,325.94    L215.8,325.94z M215.77,319.99c-1.28,0.54-2.75-0.06-3.28-1.33c-0.54-1.28,0.06-2.75,1.33-3.28c1.28-0.54,2.75,0.06,3.28,1.33    C217.64,317.98,217.05,319.46,215.77,319.99L215.77,319.99z M215.72,313.63c-1.41,0.6-3.04-0.06-3.63-1.47    c-0.6-1.41,0.06-3.03,1.47-3.63s3.03,0.06,3.63,1.47C217.79,311.41,217.13,313.04,215.72,313.63L215.72,313.63z M214.65,334.38    c0.78-0.33,1.68,0.04,2.01,0.82s-0.04,1.68-0.82,2.01c-0.78,0.33-1.68-0.04-2.01-0.82C213.5,335.61,213.87,334.71,214.65,334.38    L214.65,334.38z M214.7,340.14c0.91-0.39,1.96,0.04,2.35,0.95s-0.04,1.96-0.95,2.35s-1.96-0.04-2.35-0.95    C213.36,341.57,213.79,340.52,214.7,340.14L214.7,340.14z M214.69,345.65c1.11-0.47,2.38,0.05,2.85,1.16    c0.47,1.11-0.05,2.38-1.16,2.85s-2.38-0.05-2.85-1.16C213.07,347.39,213.59,346.11,214.69,345.65L214.69,345.65z M214.72,351.59    c1.28-0.54,2.75,0.06,3.28,1.33c0.54,1.28-0.06,2.75-1.33,3.28c-1.28,0.54-2.75-0.06-3.28-1.33    C212.85,353.6,213.45,352.13,214.72,351.59z"/>
		<path fill-rule="evenodd" clip-rule="evenodd" fill="#FFFFFF" d="M93.45,306.83c1.74,0.04,3.11,1.49,3.07,3.23    c-0.04,1.74-1.49,3.11-3.23,3.07c-1.74-0.05-3.11-1.49-3.07-3.23C90.26,308.16,91.71,306.79,93.45,306.83L93.45,306.83z     M78.37,269.99c-0.09,2.09-0.19,4.18-0.3,6.27c0.1,0.01,0.2,0.02,0.3,0.02c1.74,0.05,3.18-1.33,3.23-3.07    c0.05-1.74-1.33-3.18-3.07-3.23C78.48,269.99,78.43,269.99,78.37,269.99L78.37,269.99z M100.08,281.5    c-0.03,1.13-0.96,2.01-2.09,1.98c-1.12-0.03-2.01-0.96-1.98-2.09c0.03-1.12,0.96-2.01,2.09-1.98    C99.22,279.44,100.11,280.38,100.08,281.5L100.08,281.5z M94.38,278.91c-0.04,1.37-1.17,2.44-2.54,2.41    c-1.37-0.04-2.44-1.17-2.41-2.54c0.04-1.37,1.17-2.44,2.54-2.41C93.34,276.41,94.42,277.55,94.38,278.91L94.38,278.91z     M88.21,276.15c-0.04,1.57-1.35,2.82-2.92,2.77c-1.57-0.04-2.82-1.35-2.77-2.92c0.04-1.57,1.35-2.82,2.92-2.77    C87.01,273.27,88.25,274.58,88.21,276.15L88.21,276.15z M108.57,286.71c0.03-1.13,0.96-2.01,2.09-1.98s2.01,0.96,1.98,2.09    s-0.96,2.01-2.09,1.98C109.42,288.77,108.54,287.84,108.57,286.71L108.57,286.71z M114.27,289.3c0.04-1.37,1.17-2.44,2.54-2.41    c1.37,0.04,2.44,1.17,2.41,2.54c-0.04,1.37-1.17,2.44-2.54,2.41C115.31,291.8,114.23,290.67,114.27,289.3L114.27,289.3z     M120.43,292.06c0.04-1.57,1.35-2.82,2.92-2.77c1.57,0.04,2.82,1.35,2.77,2.92c-0.04,1.57-1.35,2.82-2.92,2.77    C121.64,294.94,120.39,293.64,120.43,292.06L120.43,292.06z M127.04,295c0.05-1.74,1.49-3.11,3.23-3.07    c1.74,0.04,3.11,1.49,3.07,3.23c-0.04,1.74-1.49,3.11-3.23,3.07C128.37,298.18,127,296.73,127.04,295L127.04,295z M106.94,279.87    c-1.12-0.03-2.01-0.96-1.98-2.09s0.96-2.01,2.09-1.98s2.01,0.96,1.98,2.09C109,279.01,108.06,279.9,106.94,279.87L106.94,279.87z     M109.53,274.17c-1.37-0.03-2.44-1.17-2.41-2.54c0.04-1.37,1.17-2.44,2.54-2.41s2.44,1.17,2.41,2.54    C112.03,273.13,110.89,274.21,109.53,274.17L109.53,274.17z M112.29,268c-1.57-0.04-2.82-1.35-2.77-2.92    c0.04-1.57,1.35-2.82,2.92-2.77c1.57,0.04,2.82,1.35,2.77,2.92C115.17,266.8,113.86,268.04,112.29,268L112.29,268z M115.22,261.39    c-1.74-0.04-3.11-1.49-3.07-3.23c0.05-1.74,1.49-3.11,3.23-3.07c1.74,0.05,3.11,1.49,3.07,3.23    C118.41,260.07,116.96,261.44,115.22,261.39L115.22,261.39z M104.38,282.37c0.96,0.02,1.72,0.82,1.7,1.79    c-0.02,0.96-0.82,1.72-1.79,1.7c-0.96-0.02-1.72-0.82-1.7-1.79C102.62,283.11,103.42,282.35,104.38,282.37L104.38,282.37z     M101.73,288.35c1.13,0.03,2.01,0.96,1.98,2.09s-0.96,2.01-2.09,1.98s-2.01-0.96-1.98-2.09    C99.67,289.21,100.61,288.32,101.73,288.35L101.73,288.35z M99.14,294.05c1.37,0.04,2.44,1.17,2.41,2.54    c-0.04,1.37-1.17,2.44-2.54,2.41c-1.37-0.04-2.44-1.17-2.41-2.54C96.64,295.1,97.78,294.02,99.14,294.05L99.14,294.05z     M96.38,300.22c1.57,0.04,2.82,1.35,2.77,2.92c-0.04,1.57-1.35,2.82-2.92,2.77c-1.57-0.04-2.82-1.35-2.77-2.92    C93.5,301.42,94.81,300.18,96.38,300.22z"/>
		<path fill-rule="evenodd" clip-rule="evenodd" fill="#FFFFFF" d="M122.13,399.82c1.52-0.7,3.32-0.04,4.02,1.48    c0.7,1.52,0.04,3.32-1.48,4.02c-1.52,0.7-3.32,0.04-4.02-1.48C119.95,402.32,120.61,400.52,122.13,399.82L122.13,399.82z     M117.09,375.15c0.45,0.98,0.02,2.15-0.96,2.6c-0.98,0.45-2.15,0.02-2.6-0.96c-0.45-0.98-0.02-2.15,0.96-2.6    C115.47,373.74,116.64,374.17,117.09,375.15L117.09,375.15z M111.07,375.34c0.55,1.19,0.03,2.61-1.16,3.16    c-1.19,0.55-2.61,0.03-3.16-1.16s-0.03-2.61,1.16-3.16C109.11,373.63,110.52,374.15,111.07,375.34L111.07,375.34z M104.57,375.58    c0.63,1.37,0.03,3-1.34,3.64c-1.37,0.63-3,0.03-3.64-1.34c-0.63-1.37-0.03-3,1.34-3.64C102.31,373.61,103.94,374.21,104.57,375.58    L104.57,375.58z M97.63,375.86c0.7,1.52,0.04,3.32-1.48,4.02c-1.52,0.7-3.32,0.04-4.02-1.48c-0.7-1.52-0.04-3.32,1.48-4.02    C95.13,373.68,96.93,374.34,97.63,375.86L97.63,375.86z M126.62,376.04c-0.45-0.98-0.02-2.15,0.96-2.6s2.15-0.02,2.6,0.96    c0.45,0.98,0.02,2.15-0.96,2.6C128.23,377.45,127.07,377.02,126.62,376.04L126.62,376.04z M132.64,375.85    c-0.55-1.19-0.03-2.6,1.16-3.16c1.19-0.55,2.61-0.03,3.16,1.16s0.03,2.6-1.16,3.16C134.6,377.56,133.19,377.04,132.64,375.85    L132.64,375.85z M139.13,375.61c-0.63-1.37-0.03-3,1.34-3.64c1.37-0.63,3-0.03,3.64,1.34c0.63,1.37,0.03,3-1.34,3.64    C141.39,377.59,139.76,376.98,139.13,375.61L139.13,375.61z M146.08,375.33c-0.7-1.52-0.04-3.32,1.48-4.02    c1.52-0.7,3.32-0.04,4.02,1.48c0.7,1.52,0.04,3.32-1.48,4.02C148.58,377.51,146.78,376.85,146.08,375.33L146.08,375.33z     M122.31,370.83c-0.98,0.45-2.15,0.02-2.6-0.96c-0.45-0.98-0.02-2.15,0.96-2.6c0.98-0.45,2.15-0.02,2.6,0.96    C123.72,369.21,123.29,370.38,122.31,370.83L122.31,370.83z M122.12,364.81c-1.19,0.55-2.61,0.03-3.16-1.16s-0.03-2.61,1.16-3.16    c1.19-0.55,2.61-0.03,3.16,1.16C123.83,362.85,123.31,364.26,122.12,364.81L122.12,364.81z M121.88,358.32    c-1.37,0.63-3,0.03-3.64-1.34c-0.63-1.37-0.03-3,1.34-3.64c1.37-0.63,3-0.03,3.64,1.34C123.85,356.06,123.25,357.68,121.88,358.32    L121.88,358.32z M121.6,351.37c-1.52,0.7-3.32,0.04-4.02-1.48c-0.7-1.52-0.04-3.32,1.48-4.02c1.52-0.7,3.32-0.04,4.02,1.48    C123.78,348.87,123.12,350.67,121.6,351.37L121.6,351.37z M121.16,374.07c0.84-0.39,1.84-0.02,2.22,0.82    c0.39,0.84,0.02,1.83-0.82,2.22s-1.83,0.02-2.22-0.82C119.96,375.46,120.32,374.46,121.16,374.07L121.16,374.07z M121.42,380.36    c0.98-0.45,2.15-0.02,2.6,0.96c0.45,0.98,0.02,2.15-0.96,2.6c-0.98,0.45-2.15,0.02-2.6-0.96    C120.01,381.98,120.44,380.81,121.42,380.36L121.42,380.36z M121.61,386.38c1.19-0.55,2.6-0.03,3.16,1.16    c0.55,1.19,0.03,2.61-1.16,3.16c-1.19,0.55-2.6,0.03-3.16-1.16C119.9,388.34,120.42,386.93,121.61,386.38L121.61,386.38z     M121.85,392.87c1.37-0.63,3-0.03,3.64,1.34c0.63,1.37,0.03,3-1.34,3.64c-1.37,0.63-3,0.03-3.64-1.34    C119.87,395.13,120.47,393.51,121.85,392.87z"/>
		<path fill-rule="evenodd" clip-rule="evenodd" fill="#FFFFFF" d="M158.69,327.84c0.91-0.12,1.74,0.51,1.87,1.42    c0.12,0.91-0.51,1.74-1.42,1.87c-0.91,0.12-1.74-0.51-1.87-1.42C157.15,328.8,157.78,327.97,158.69,327.84L158.69,327.84z     M159.99,314.13c0.08,0.59-0.33,1.13-0.92,1.21s-1.13-0.33-1.21-0.92c-0.08-0.59,0.33-1.13,0.92-1.21    C159.37,313.13,159.91,313.54,159.99,314.13L159.99,314.13z M156.81,313.27c0.1,0.71-0.4,1.37-1.11,1.47s-1.37-0.4-1.47-1.11    s0.4-1.37,1.11-1.47C156.06,312.06,156.71,312.55,156.81,313.27L156.81,313.27z M153.37,312.35c0.11,0.82-0.46,1.58-1.28,1.69    c-0.82,0.11-1.58-0.46-1.69-1.28s0.46-1.58,1.28-1.69C152.51,310.96,153.26,311.53,153.37,312.35L153.37,312.35z M149.69,311.39    c0.12,0.91-0.51,1.74-1.42,1.87c-0.91,0.12-1.74-0.51-1.87-1.42c-0.12-0.91,0.51-1.74,1.42-1.87    C148.73,309.85,149.57,310.48,149.69,311.39L149.69,311.39z M164.84,316.12c-0.08-0.59,0.33-1.13,0.92-1.21s1.13,0.33,1.21,0.92    c0.08,0.59-0.33,1.13-0.92,1.21C165.46,317.11,164.92,316.7,164.84,316.12L164.84,316.12z M168.02,316.98    c-0.1-0.71,0.4-1.37,1.11-1.47s1.37,0.4,1.47,1.11s-0.4,1.37-1.11,1.47C168.77,318.19,168.11,317.69,168.02,316.98L168.02,316.98z     M171.45,317.89c-0.11-0.82,0.46-1.58,1.28-1.69c0.82-0.11,1.58,0.46,1.69,1.28s-0.46,1.58-1.28,1.69    C172.32,319.29,171.56,318.71,171.45,317.89L171.45,317.89z M175.13,318.86c-0.12-0.91,0.51-1.74,1.42-1.87    c0.91-0.12,1.74,0.51,1.87,1.42c0.12,0.91-0.51,1.74-1.42,1.87C176.09,320.4,175.26,319.76,175.13,318.86L175.13,318.86z     M163.41,312.7c-0.59,0.08-1.13-0.33-1.21-0.92c-0.08-0.59,0.33-1.13,0.92-1.21s1.13,0.33,1.21,0.92    C164.41,312.08,164,312.62,163.41,312.7L163.41,312.7z M164.28,309.52c-0.71,0.1-1.37-0.4-1.47-1.11s0.4-1.37,1.11-1.47    s1.37,0.4,1.46,1.11C165.49,308.77,164.99,309.42,164.28,309.52L164.28,309.52z M165.19,306.08c-0.82,0.11-1.58-0.46-1.69-1.28    s0.46-1.58,1.28-1.69c0.82-0.11,1.58,0.46,1.69,1.28C166.58,305.22,166.01,305.97,165.19,306.08L165.19,306.08z M166.15,302.4    c-0.91,0.12-1.74-0.51-1.87-1.42c-0.12-0.91,0.51-1.74,1.42-1.87c0.91-0.12,1.74,0.51,1.87,1.42    C167.69,301.45,167.06,302.28,166.15,302.4L166.15,302.4z M162.3,314.22c0.5-0.07,0.96,0.28,1.03,0.78    c0.07,0.5-0.28,0.96-0.78,1.03s-0.96-0.28-1.03-0.78C161.44,314.75,161.79,314.28,162.3,314.22L162.3,314.22z M161.43,317.55    c0.59-0.08,1.13,0.33,1.21,0.92c0.08,0.59-0.33,1.13-0.92,1.21s-1.13-0.33-1.21-0.92C160.43,318.17,160.84,317.63,161.43,317.55    L161.43,317.55z M160.56,320.73c0.71-0.1,1.37,0.4,1.46,1.11c0.1,0.71-0.4,1.37-1.11,1.47s-1.37-0.4-1.47-1.11    C159.35,321.48,159.85,320.82,160.56,320.73L160.56,320.73z M159.65,324.16c0.82-0.11,1.58,0.46,1.69,1.28s-0.46,1.58-1.28,1.69    c-0.82,0.11-1.58-0.46-1.69-1.28S158.83,324.28,159.65,324.16z"/>
		<path fill-rule="evenodd" clip-rule="evenodd" fill="#FFFFFF" d="M167.88,359.27c0.91-0.08,1.71,0.6,1.79,1.51    c0.08,0.91-0.6,1.71-1.51,1.79c-0.91,0.08-1.71-0.6-1.79-1.51C166.3,360.14,166.97,359.34,167.88,359.27L167.88,359.27z     M169.91,345.64c0.05,0.59-0.39,1.11-0.98,1.16c-0.59,0.05-1.11-0.39-1.16-0.98s0.39-1.11,0.98-1.16    C169.34,344.61,169.86,345.05,169.91,345.64L169.91,345.64z M166.78,344.61c0.06,0.72-0.47,1.35-1.19,1.4    c-0.72,0.06-1.35-0.47-1.4-1.19c-0.06-0.72,0.47-1.35,1.19-1.4C166.09,343.36,166.72,343.89,166.78,344.61L166.78,344.61z     M163.39,343.52c0.07,0.83-0.54,1.55-1.37,1.62s-1.55-0.54-1.62-1.37c-0.07-0.83,0.54-1.55,1.37-1.62    C162.6,342.08,163.32,342.69,163.39,343.52L163.39,343.52z M159.77,342.36c0.08,0.91-0.6,1.71-1.51,1.79    c-0.91,0.08-1.71-0.6-1.79-1.51c-0.08-0.91,0.6-1.71,1.51-1.79C158.89,340.77,159.69,341.45,159.77,342.36L159.77,342.36z     M174.64,347.88c-0.05-0.59,0.39-1.11,0.98-1.16c0.59-0.05,1.11,0.39,1.16,0.98s-0.39,1.11-0.98,1.16    C175.21,348.9,174.69,348.47,174.64,347.88L174.64,347.88z M177.77,348.91c-0.06-0.72,0.47-1.34,1.19-1.4s1.35,0.47,1.4,1.19    c0.06,0.72-0.47,1.35-1.19,1.4C178.46,350.15,177.83,349.62,177.77,348.91L177.77,348.91z M181.16,350    c-0.07-0.83,0.54-1.55,1.37-1.62s1.55,0.54,1.62,1.37s-0.54,1.55-1.37,1.62C181.95,351.43,181.22,350.82,181.16,350L181.16,350z     M184.78,351.15c-0.08-0.91,0.6-1.71,1.51-1.79c0.91-0.08,1.71,0.6,1.79,1.51c0.08,0.91-0.6,1.71-1.51,1.79    C185.66,352.74,184.86,352.06,184.78,351.15L184.78,351.15z M173.4,344.39c-0.59,0.05-1.11-0.39-1.16-0.98s0.39-1.11,0.98-1.16    c0.59-0.05,1.11,0.39,1.16,0.98S173.99,344.34,173.4,344.39L173.4,344.39z M174.43,341.26c-0.72,0.06-1.35-0.47-1.4-1.19    c-0.06-0.72,0.47-1.35,1.19-1.4c0.72-0.06,1.34,0.47,1.4,1.19C175.68,340.57,175.14,341.2,174.43,341.26L174.43,341.26z     M175.52,337.88c-0.83,0.07-1.55-0.54-1.62-1.37c-0.07-0.83,0.54-1.55,1.37-1.62s1.55,0.54,1.62,1.37    C176.96,337.08,176.34,337.81,175.52,337.88L175.52,337.88z M176.67,334.25c-0.91,0.08-1.71-0.6-1.79-1.51    c-0.08-0.91,0.6-1.71,1.51-1.79c0.91-0.08,1.71,0.6,1.79,1.51C178.26,333.38,177.59,334.18,176.67,334.25L176.67,334.25z     M172.2,345.85c0.5-0.04,0.95,0.33,0.99,0.84c0.04,0.5-0.33,0.95-0.84,0.99c-0.5,0.04-0.95-0.33-0.99-0.84    C171.32,346.33,171.7,345.89,172.2,345.85L172.2,345.85z M171.16,349.13c0.59-0.05,1.11,0.39,1.16,0.98s-0.39,1.11-0.98,1.16    c-0.59,0.05-1.11-0.39-1.16-0.98C170.13,349.69,170.57,349.18,171.16,349.13L171.16,349.13z M170.13,352.26    c0.72-0.06,1.35,0.47,1.4,1.19c0.06,0.72-0.47,1.35-1.19,1.4c-0.72,0.06-1.34-0.47-1.4-1.19    C168.88,352.95,169.42,352.32,170.13,352.26L170.13,352.26z M169.04,355.64c0.83-0.07,1.55,0.54,1.62,1.37    c0.07,0.83-0.54,1.55-1.37,1.62s-1.55-0.54-1.62-1.37S168.22,355.71,169.04,355.64z"/>
		<path fill-rule="evenodd" clip-rule="evenodd" fill="#FFFFFF" d="M182.93,419.84c0.89,0.19,1.46,1.08,1.27,1.97    s-1.08,1.46-1.97,1.27s-1.46-1.08-1.27-1.97C181.15,420.22,182.03,419.65,182.93,419.84L182.93,419.84z M188.86,407.41    c-0.13,0.58-0.7,0.95-1.28,0.82s-0.95-0.7-0.82-1.28c0.13-0.58,0.7-0.95,1.28-0.82C188.61,406.26,188.98,406.83,188.86,407.41    L188.86,407.41z M186.16,405.51c-0.15,0.7-0.85,1.15-1.55,0.99c-0.7-0.15-1.15-0.85-0.99-1.55c0.15-0.7,0.85-1.15,1.55-0.99    C185.87,404.11,186.32,404.81,186.16,405.51L186.16,405.51z M183.25,403.47c-0.18,0.81-0.97,1.32-1.78,1.15    c-0.81-0.18-1.32-0.97-1.15-1.78c0.18-0.81,0.97-1.32,1.78-1.15C182.91,401.86,183.42,402.66,183.25,403.47L183.25,403.47z     M180.12,401.3c0.2-0.89-0.37-1.78-1.27-1.97c-0.89-0.19-1.78,0.37-1.97,1.27c-0.19,0.89,0.37,1.78,1.27,1.97    C179.04,402.77,179.93,402.2,180.12,401.3L180.12,401.3z M192.73,410.94c0.13-0.58,0.7-0.95,1.28-0.82s0.95,0.7,0.82,1.28    c-0.13,0.58-0.7,0.95-1.28,0.82C192.97,412.08,192.6,411.51,192.73,410.94L192.73,410.94z M195.42,412.84    c0.15-0.7,0.85-1.15,1.55-0.99c0.7,0.15,1.15,0.85,0.99,1.55c-0.15,0.7-0.85,1.15-1.55,0.99    C195.71,414.23,195.26,413.54,195.42,412.84L195.42,412.84z M198.33,414.87c0.18-0.81,0.97-1.32,1.78-1.15    c0.81,0.18,1.32,0.97,1.15,1.78c-0.18,0.81-0.97,1.32-1.78,1.15S198.16,415.68,198.33,414.87L198.33,414.87z M201.46,417.04    c-0.19,0.89,0.37,1.78,1.27,1.97c0.89,0.19,1.78-0.37,1.97-1.27c0.19-0.89-0.37-1.78-1.27-1.97    C202.54,415.58,201.65,416.15,201.46,417.04L201.46,417.04z M192.56,407.24c-0.58-0.13-0.95-0.7-0.82-1.28    c0.13-0.58,0.7-0.95,1.28-0.82s0.95,0.7,0.82,1.28C193.71,407,193.14,407.37,192.56,407.24L192.56,407.24z M194.46,404.55    c-0.7-0.15-1.15-0.85-0.99-1.55c0.15-0.7,0.85-1.15,1.55-0.99c0.7,0.15,1.15,0.85,0.99,1.55    C195.86,404.26,195.16,404.7,194.46,404.55L194.46,404.55z M196.5,401.63c-0.81-0.18-1.32-0.97-1.15-1.78s0.97-1.32,1.78-1.15    c0.81,0.18,1.32,0.97,1.15,1.78S197.31,401.81,196.5,401.63L196.5,401.63z M198.66,398.51c0.89,0.19,1.78-0.37,1.97-1.27    c0.19-0.89-0.37-1.78-1.27-1.97c-0.89-0.19-1.78,0.37-1.97,1.27C197.2,397.43,197.77,398.31,198.66,398.51L198.66,398.51z     M190.99,408.28c0.49,0.11,0.81,0.6,0.7,1.09s-0.6,0.81-1.09,0.7c-0.49-0.11-0.81-0.6-0.7-1.09    C190.01,408.49,190.5,408.17,190.99,408.28L190.99,408.28z M189.03,411.11c0.58,0.13,0.95,0.7,0.82,1.28    c-0.13,0.58-0.7,0.95-1.28,0.82s-0.95-0.7-0.82-1.28C187.88,411.35,188.45,410.99,189.03,411.11L189.03,411.11z M187.13,413.8    c0.7,0.15,1.15,0.85,0.99,1.55c-0.15,0.7-0.85,1.15-1.55,0.99c-0.7-0.15-1.15-0.85-0.99-1.55S186.43,413.65,187.13,413.8    L187.13,413.8z M185.1,416.72c-0.81-0.18-1.61,0.34-1.78,1.15c-0.18,0.81,0.34,1.61,1.15,1.78c0.81,0.18,1.61-0.34,1.78-1.15    C186.42,417.69,185.91,416.89,185.1,416.72z"/>
		<path fill-rule="evenodd" clip-rule="evenodd" fill="#FFFFFF" d="M178.06,253.89c0.81,0.43,1.12,1.43,0.69,2.24    c-0.43,0.81-1.43,1.12-2.24,0.69c-0.81-0.43-1.12-1.43-0.69-2.24C176.25,253.77,177.26,253.46,178.06,253.89L178.06,253.89z     M187.13,243.52c-0.28,0.52-0.93,0.72-1.45,0.44s-0.72-0.93-0.44-1.45s0.93-0.72,1.45-0.44    C187.21,242.35,187.41,243,187.13,243.52L187.13,243.52z M185.05,240.96c0.34-0.63,0.1-1.42-0.54-1.76    c-0.63-0.34-1.42-0.1-1.76,0.54c-0.34,0.63-0.1,1.42,0.54,1.76C183.93,241.84,184.72,241.6,185.05,240.96L185.05,240.96z     M182.79,238.22c-0.39,0.73-1.3,1.01-2.03,0.62s-1.01-1.3-0.62-2.03s1.3-1.01,2.03-0.62S183.18,237.48,182.79,238.22    L182.79,238.22z M180.37,235.28c0.43-0.81,0.12-1.81-0.69-2.24c-0.81-0.43-1.81-0.12-2.24,0.69c-0.43,0.81-0.12,1.81,0.69,2.24    C178.94,236.4,179.94,236.09,180.37,235.28L180.37,235.28z M189.91,247.96c0.28-0.52,0.93-0.72,1.45-0.44s0.72,0.93,0.44,1.45    s-0.93,0.72-1.45,0.44S189.63,248.48,189.91,247.96L189.91,247.96z M191.98,250.52c-0.34,0.64-0.1,1.42,0.54,1.76    s1.42,0.1,1.76-0.54c0.34-0.63,0.1-1.42-0.54-1.76C193.11,249.64,192.32,249.88,191.98,250.52L191.98,250.52z M194.24,253.27    c0.39-0.73,1.3-1.01,2.03-0.62s1.01,1.3,0.62,2.03s-1.3,1.01-2.03,0.62C194.13,254.9,193.85,254,194.24,253.27L194.24,253.27z     M196.67,256.2c-0.43,0.81-0.12,1.81,0.69,2.24s1.81,0.12,2.24-0.69c0.43-0.81,0.12-1.81-0.69-2.24    C198.1,255.08,197.09,255.39,196.67,256.2L196.67,256.2z M190.74,244.36c-0.52-0.28-0.72-0.93-0.44-1.45s0.93-0.72,1.45-0.44    s0.72,0.93,0.44,1.45C191.91,244.44,191.26,244.64,190.74,244.36L190.74,244.36z M193.3,242.28c0.63,0.34,1.42,0.1,1.76-0.54    s0.09-1.42-0.54-1.76c-0.64-0.34-1.42-0.1-1.76,0.54C192.42,241.16,192.66,241.94,193.3,242.28L193.3,242.28z M196.05,240.02    c-0.73-0.39-1.01-1.3-0.62-2.03s1.3-1.01,2.03-0.62s1.01,1.3,0.62,2.03S196.78,240.41,196.05,240.02L196.05,240.02z M198.98,237.6    c0.81,0.43,1.81,0.12,2.24-0.69c0.43-0.81,0.12-1.81-0.69-2.24c-0.81-0.43-1.81-0.12-2.24,0.69    C197.86,236.17,198.17,237.17,198.98,237.6L198.98,237.6z M188.95,244.94c0.45,0.24,0.62,0.79,0.38,1.24    c-0.24,0.45-0.79,0.62-1.24,0.38c-0.45-0.24-0.62-0.79-0.38-1.24C187.95,244.87,188.5,244.7,188.95,244.94L188.95,244.94z     M186.3,247.13c0.52,0.28,0.72,0.93,0.44,1.45s-0.93,0.72-1.45,0.44s-0.72-0.93-0.44-1.45S185.78,246.86,186.3,247.13    L186.3,247.13z M183.74,249.21c-0.63-0.34-1.42-0.1-1.76,0.54c-0.34,0.63-0.1,1.42,0.54,1.76c0.63,0.34,1.42,0.1,1.76-0.54    C184.62,250.33,184.38,249.55,183.74,249.21L183.74,249.21z M181,251.47c-0.73-0.39-1.64-0.11-2.03,0.62s-0.11,1.64,0.62,2.03    s1.64,0.11,2.03-0.62C182.01,252.76,181.73,251.86,181,251.47z"/>
		<path fill-rule="evenodd" clip-rule="evenodd" fill="#FFFFFF" d="M180.87,297.35c0.67-0.24,1.41,0.1,1.65,0.77    c0.24,0.67-0.1,1.41-0.77,1.65s-1.41-0.1-1.65-0.77S180.2,297.59,180.87,297.35L180.87,297.35z M179.58,286.71    c0.16,0.43-0.06,0.91-0.5,1.07c-0.43,0.16-0.91-0.06-1.07-0.5c-0.16-0.43,0.06-0.91,0.5-1.07    C178.95,286.06,179.42,286.28,179.58,286.71L179.58,286.71z M177.02,286.58c0.19,0.52-0.08,1.11-0.6,1.3s-1.11-0.08-1.3-0.6    c-0.19-0.52,0.08-1.11,0.6-1.3C176.25,285.79,176.83,286.06,177.02,286.58L177.02,286.58z M174.26,286.46    c0.22,0.6-0.09,1.27-0.69,1.5c-0.6,0.22-1.27-0.09-1.5-0.69c-0.22-0.6,0.09-1.27,0.69-1.5    C173.37,285.54,174.04,285.86,174.26,286.46L174.26,286.46z M171.3,286.34c0.24,0.67-0.1,1.41-0.77,1.65s-1.41-0.1-1.65-0.77    c-0.24-0.67,0.1-1.41,0.77-1.65C170.32,285.33,171.06,285.67,171.3,286.34L171.3,286.34z M183.59,287.41    c-0.16-0.43,0.06-0.91,0.5-1.07c0.43-0.16,0.91,0.06,1.07,0.5c0.16,0.43-0.06,0.91-0.5,1.07    C184.23,288.07,183.75,287.85,183.59,287.41L183.59,287.41z M186.15,287.54c-0.19-0.52,0.08-1.11,0.6-1.3    c0.53-0.19,1.11,0.08,1.3,0.6c0.19,0.53-0.08,1.11-0.6,1.3C186.93,288.34,186.35,288.07,186.15,287.54L186.15,287.54z     M188.92,287.66c-0.22-0.61,0.09-1.27,0.69-1.5c0.6-0.22,1.27,0.09,1.5,0.69c0.22,0.61-0.09,1.27-0.69,1.5    C189.81,288.58,189.14,288.27,188.92,287.66L188.92,287.66z M191.87,287.78c-0.24-0.67,0.1-1.41,0.77-1.65s1.41,0.1,1.65,0.77    c0.24,0.67-0.1,1.41-0.77,1.65C192.86,288.8,192.12,288.45,191.87,287.78L191.87,287.78z M181.94,285.06    c-0.43,0.16-0.91-0.06-1.07-0.5c-0.16-0.43,0.06-0.91,0.5-1.07c0.43-0.16,0.91,0.06,1.07,0.5    C182.6,284.42,182.38,284.9,181.94,285.06L181.94,285.06z M182.07,282.5c-0.52,0.19-1.11-0.08-1.3-0.6    c-0.19-0.53,0.08-1.11,0.6-1.3s1.11,0.08,1.3,0.6C182.87,281.72,182.6,282.3,182.07,282.5L182.07,282.5z M182.2,279.73    c-0.6,0.22-1.27-0.09-1.5-0.69c-0.22-0.6,0.09-1.27,0.69-1.5c0.6-0.22,1.27,0.09,1.5,0.69    C183.11,278.84,182.8,279.51,182.2,279.73L182.2,279.73z M182.32,276.78c-0.67,0.24-1.41-0.1-1.65-0.77    c-0.24-0.67,0.1-1.41,0.77-1.65s1.41,0.1,1.65,0.77C183.33,275.79,182.98,276.53,182.32,276.78L182.32,276.78z M181.35,286.39    c0.37-0.14,0.78,0.05,0.91,0.42c0.14,0.37-0.05,0.78-0.42,0.91c-0.37,0.14-0.78-0.05-0.91-0.42    C180.79,286.94,180.98,286.53,181.35,286.39L181.35,286.39z M181.24,289.07c0.43-0.16,0.91,0.06,1.07,0.5    c0.16,0.43-0.06,0.91-0.5,1.07c-0.43,0.16-0.91-0.06-1.07-0.5C180.59,289.7,180.81,289.23,181.24,289.07L181.24,289.07z     M181.11,291.63c0.52-0.19,1.11,0.08,1.3,0.6c0.19,0.53-0.08,1.11-0.6,1.3s-1.11-0.08-1.3-0.6    C180.32,292.4,180.59,291.82,181.11,291.63L181.11,291.63z M180.99,294.39c0.61-0.22,1.27,0.09,1.5,0.69    c0.22,0.61-0.09,1.27-0.69,1.5c-0.6,0.22-1.27-0.09-1.5-0.69C180.08,295.28,180.39,294.61,180.99,294.39z"/>
		<path fill-rule="evenodd" clip-rule="evenodd" fill="#FFFFFF" d="M120.84,330.66c0.67-0.24,1.41,0.1,1.65,0.77    c0.24,0.67-0.1,1.41-0.77,1.65s-1.41-0.1-1.65-0.77C119.83,331.65,120.17,330.91,120.84,330.66L120.84,330.66z M119.55,320.03    c0.16,0.43-0.06,0.91-0.5,1.07c-0.43,0.16-0.91-0.06-1.07-0.5c-0.16-0.43,0.06-0.91,0.5-1.07S119.39,319.59,119.55,320.03    L119.55,320.03z M116.99,319.9c0.19,0.52-0.08,1.11-0.6,1.3s-1.11-0.08-1.3-0.6c-0.19-0.53,0.08-1.11,0.6-1.3    C116.22,319.1,116.8,319.37,116.99,319.9L116.99,319.9z M114.23,319.78c0.22,0.6-0.09,1.27-0.69,1.5c-0.6,0.22-1.27-0.09-1.5-0.69    c-0.22-0.6,0.09-1.27,0.69-1.5C113.34,318.86,114.01,319.17,114.23,319.78L114.23,319.78z M111.27,319.65    c0.24,0.67-0.1,1.41-0.77,1.65s-1.41-0.1-1.65-0.77c-0.24-0.67,0.1-1.41,0.77-1.65C110.29,318.64,111.03,318.99,111.27,319.65    L111.27,319.65z M123.56,320.73c-0.16-0.43,0.06-0.91,0.5-1.07c0.43-0.16,0.91,0.06,1.07,0.5c0.16,0.43-0.06,0.91-0.5,1.07    C124.2,321.38,123.72,321.16,123.56,320.73L123.56,320.73z M126.12,320.86c-0.19-0.52,0.08-1.11,0.6-1.3    c0.53-0.19,1.11,0.08,1.3,0.6c0.19,0.53-0.08,1.11-0.6,1.3C126.9,321.65,126.32,321.38,126.12,320.86L126.12,320.86z     M128.89,320.98c-0.22-0.61,0.09-1.27,0.69-1.5c0.6-0.22,1.27,0.09,1.5,0.69c0.22,0.6-0.09,1.27-0.69,1.5    C129.78,321.9,129.11,321.58,128.89,320.98L128.89,320.98z M131.84,321.1c-0.24-0.67,0.1-1.41,0.77-1.65s1.41,0.1,1.65,0.77    c0.24,0.67-0.1,1.41-0.77,1.65C132.83,322.11,132.09,321.77,131.84,321.1L131.84,321.1z M121.92,318.37    c-0.43,0.16-0.91-0.06-1.07-0.5c-0.16-0.43,0.06-0.91,0.5-1.07c0.43-0.16,0.91,0.06,1.07,0.5    C122.57,317.74,122.35,318.21,121.92,318.37L121.92,318.37z M122.04,315.81c-0.52,0.19-1.11-0.08-1.3-0.6    c-0.19-0.53,0.08-1.11,0.6-1.3s1.11,0.08,1.3,0.6C122.84,315.04,122.57,315.62,122.04,315.81L122.04,315.81z M122.17,313.05    c-0.6,0.22-1.27-0.09-1.5-0.69c-0.22-0.6,0.09-1.27,0.69-1.5c0.6-0.22,1.27,0.09,1.5,0.69    C123.08,312.16,122.77,312.83,122.17,313.05L122.17,313.05z M122.29,310.09c-0.67,0.24-1.41-0.1-1.65-0.77    c-0.24-0.67,0.1-1.41,0.77-1.65s1.41,0.1,1.65,0.77S122.95,309.85,122.29,310.09L122.29,310.09z M121.32,319.71    c0.37-0.14,0.78,0.05,0.91,0.42c0.14,0.37-0.05,0.78-0.42,0.91c-0.37,0.14-0.78-0.05-0.91-0.42    C120.76,320.25,120.95,319.84,121.32,319.71L121.32,319.71z M121.21,322.38c0.43-0.16,0.91,0.06,1.07,0.5    c0.16,0.43-0.06,0.91-0.5,1.07c-0.43,0.16-0.91-0.06-1.07-0.5C120.56,323.02,120.78,322.54,121.21,322.38L121.21,322.38z     M121.08,324.94c0.52-0.19,1.11,0.08,1.3,0.6c0.19,0.53-0.08,1.11-0.6,1.3c-0.53,0.19-1.11-0.08-1.3-0.6    C120.29,325.72,120.56,325.13,121.08,324.94L121.08,324.94z M120.96,327.71c0.6-0.22,1.27,0.09,1.5,0.69    c0.22,0.6-0.09,1.27-0.69,1.5c-0.61,0.22-1.27-0.09-1.5-0.69C120.05,328.6,120.36,327.93,120.96,327.71z"/>
		<path fill-rule="evenodd" clip-rule="evenodd" fill="#FFFFFF" d="M84.42,367.54c0.61,0.37,0.8,1.17,0.42,1.77    c-0.37,0.61-1.17,0.8-1.77,0.42c-0.61-0.37-0.8-1.17-0.42-1.77C83.03,367.36,83.82,367.17,84.42,367.54L84.42,367.54z     M91.97,359.93c-0.24,0.39-0.75,0.52-1.15,0.27c-0.39-0.24-0.52-0.75-0.27-1.15c0.24-0.39,0.75-0.51,1.15-0.27    C92.09,359.03,92.21,359.54,91.97,359.93L91.97,359.93z M90.48,357.84c-0.29,0.48-0.92,0.63-1.39,0.33    c-0.48-0.29-0.63-0.92-0.33-1.39c0.29-0.48,0.92-0.63,1.39-0.33S90.77,357.37,90.48,357.84L90.48,357.84z M88.86,355.6    c0.34-0.55,0.17-1.27-0.38-1.6c-0.55-0.34-1.27-0.17-1.6,0.38c-0.34,0.55-0.17,1.27,0.38,1.6    C87.81,356.32,88.53,356.15,88.86,355.6L88.86,355.6z M87.12,353.21c-0.37,0.61-1.17,0.8-1.77,0.42c-0.61-0.37-0.8-1.17-0.42-1.77    c0.37-0.61,1.17-0.8,1.77-0.42C87.31,351.81,87.5,352.6,87.12,353.21L87.12,353.21z M93.9,363.51c0.24-0.39,0.75-0.52,1.15-0.27    c0.39,0.24,0.52,0.75,0.27,1.15c-0.24,0.39-0.75,0.52-1.15,0.27C93.79,364.42,93.66,363.91,93.9,363.51L93.9,363.51z M95.39,365.6    c0.29-0.48,0.92-0.63,1.39-0.33c0.48,0.29,0.63,0.92,0.33,1.39c-0.29,0.48-0.92,0.63-1.39,0.33    C95.25,366.7,95.1,366.08,95.39,365.6L95.39,365.6z M97.01,367.84c-0.34,0.55-0.17,1.27,0.38,1.6c0.55,0.34,1.27,0.17,1.6-0.38    c0.34-0.55,0.17-1.27-0.38-1.6C98.06,367.12,97.35,367.29,97.01,367.84L97.01,367.84z M98.75,370.24c0.37-0.61,1.17-0.8,1.77-0.42    c0.61,0.37,0.8,1.17,0.42,1.77c-0.37,0.61-1.17,0.8-1.77,0.42C98.57,371.64,98.38,370.84,98.75,370.24L98.75,370.24z     M94.73,360.76c-0.39-0.24-0.52-0.75-0.27-1.15c0.24-0.39,0.75-0.52,1.15-0.27c0.39,0.24,0.52,0.75,0.27,1.15    C95.64,360.88,95.12,361,94.73,360.76L94.73,360.76z M96.82,359.27c-0.48-0.29-0.63-0.92-0.33-1.39c0.29-0.48,0.92-0.63,1.39-0.33    c0.48,0.29,0.63,0.92,0.33,1.39C97.92,359.41,97.29,359.56,96.82,359.27L96.82,359.27z M99.06,357.65    c0.55,0.34,1.27,0.17,1.6-0.38c0.34-0.55,0.17-1.27-0.38-1.6c-0.55-0.34-1.27-0.17-1.6,0.38    C98.34,356.6,98.51,357.32,99.06,357.65L99.06,357.65z M101.45,355.91c-0.61-0.37-0.8-1.17-0.42-1.77    c0.37-0.61,1.17-0.8,1.77-0.42c0.61,0.37,0.8,1.17,0.42,1.77C102.85,356.1,102.06,356.29,101.45,355.91L101.45,355.91z     M93.31,361.12c0.34,0.21,0.44,0.64,0.23,0.98s-0.64,0.44-0.98,0.23c-0.34-0.21-0.44-0.64-0.23-0.98    C92.54,361.02,92.98,360.91,93.31,361.12L93.31,361.12z M91.15,362.69c0.39,0.24,0.52,0.75,0.27,1.15    c-0.24,0.39-0.75,0.52-1.15,0.27c-0.39-0.24-0.52-0.75-0.27-1.15C90.24,362.58,90.76,362.45,91.15,362.69L91.15,362.69z     M89.06,364.18c0.48,0.29,0.63,0.92,0.33,1.39c-0.29,0.48-0.92,0.63-1.39,0.33c-0.48-0.29-0.63-0.92-0.33-1.39    C87.96,364.04,88.58,363.89,89.06,364.18L89.06,364.18z M86.82,365.8c-0.55-0.34-1.27-0.17-1.6,0.38    c-0.34,0.55-0.17,1.27,0.38,1.6c0.55,0.34,1.27,0.17,1.6-0.38C87.54,366.85,87.37,366.14,86.82,365.8z"/>
		<path fill-rule="evenodd" clip-rule="evenodd" fill="#FFFFFF" d="M158.56,384.08c0.61,0.37,0.8,1.17,0.42,1.77    c-0.37,0.61-1.17,0.8-1.77,0.42c-0.61-0.37-0.8-1.17-0.42-1.77C157.16,383.9,157.95,383.71,158.56,384.08L158.56,384.08z     M166.1,376.47c-0.24,0.39-0.75,0.52-1.15,0.27c-0.39-0.24-0.52-0.75-0.27-1.15c0.24-0.39,0.75-0.52,1.15-0.27    C166.22,375.57,166.34,376.08,166.1,376.47L166.1,376.47z M164.61,374.38c-0.29,0.48-0.92,0.63-1.39,0.33    c-0.48-0.29-0.63-0.92-0.33-1.39c0.29-0.48,0.92-0.63,1.39-0.33C164.76,373.29,164.91,373.91,164.61,374.38L164.61,374.38z     M163,372.14c0.34-0.55,0.17-1.27-0.38-1.6c-0.55-0.34-1.27-0.17-1.6,0.38c-0.34,0.55-0.17,1.27,0.38,1.6    C161.94,372.86,162.66,372.69,163,372.14L163,372.14z M161.26,369.75c-0.37,0.61-1.17,0.8-1.77,0.42    c-0.61-0.37-0.8-1.17-0.42-1.77c0.37-0.61,1.17-0.8,1.77-0.42C161.44,368.35,161.63,369.14,161.26,369.75L161.26,369.75z     M168.04,380.05c0.24-0.39,0.75-0.52,1.15-0.27c0.39,0.24,0.52,0.75,0.27,1.15c-0.24,0.39-0.75,0.52-1.15,0.27    C167.92,380.96,167.8,380.45,168.04,380.05L168.04,380.05z M169.52,382.14c0.29-0.48,0.91-0.63,1.39-0.33    c0.48,0.29,0.63,0.92,0.33,1.39c-0.29,0.48-0.91,0.63-1.39,0.33C169.38,383.24,169.23,382.62,169.52,382.14L169.52,382.14z     M171.14,384.38c-0.34,0.55-0.17,1.27,0.38,1.6c0.55,0.34,1.27,0.17,1.6-0.38c0.34-0.55,0.17-1.27-0.38-1.6    C172.2,383.66,171.48,383.83,171.14,384.38L171.14,384.38z M172.88,386.78c0.37-0.61,1.17-0.8,1.77-0.42    c0.61,0.37,0.8,1.17,0.42,1.77c-0.37,0.61-1.17,0.8-1.77,0.42C172.7,388.18,172.51,387.38,172.88,386.78L172.88,386.78z     M168.86,377.3c-0.39-0.24-0.52-0.75-0.27-1.15c0.24-0.39,0.75-0.52,1.15-0.27c0.39,0.24,0.52,0.75,0.27,1.15    C169.77,377.42,169.26,377.54,168.86,377.3L168.86,377.3z M170.95,375.81c-0.48-0.29-0.63-0.92-0.33-1.39    c0.29-0.48,0.92-0.63,1.39-0.33c0.48,0.29,0.63,0.92,0.33,1.39C172.05,375.95,171.43,376.1,170.95,375.81L170.95,375.81z     M173.19,374.19c0.55,0.34,1.27,0.17,1.6-0.38c0.34-0.55,0.17-1.27-0.38-1.6c-0.55-0.34-1.27-0.17-1.6,0.38    C172.47,373.14,172.64,373.86,173.19,374.19L173.19,374.19z M175.59,372.45c-0.61-0.37-0.8-1.17-0.42-1.77    c0.37-0.61,1.17-0.8,1.77-0.42c0.61,0.37,0.8,1.17,0.42,1.77C176.99,372.64,176.19,372.83,175.59,372.45L175.59,372.45z     M167.44,377.66c0.34,0.21,0.44,0.64,0.23,0.98s-0.64,0.44-0.98,0.23s-0.44-0.64-0.23-0.98    C166.67,377.56,167.11,377.45,167.44,377.66L167.44,377.66z M165.28,379.23c0.39,0.24,0.52,0.75,0.27,1.15    c-0.24,0.39-0.75,0.52-1.15,0.27c-0.39-0.24-0.52-0.75-0.27-1.15C164.38,379.12,164.89,378.99,165.28,379.23L165.28,379.23z     M163.19,380.72c0.48,0.29,0.63,0.92,0.33,1.39c-0.29,0.48-0.92,0.63-1.39,0.33c-0.48-0.29-0.63-0.92-0.33-1.39    C162.09,380.58,162.72,380.43,163.19,380.72L163.19,380.72z M160.95,382.34c-0.55-0.34-1.27-0.17-1.6,0.38    c-0.34,0.55-0.17,1.27,0.38,1.6c0.55,0.34,1.27,0.17,1.6-0.38C161.67,383.39,161.5,382.68,160.95,382.34z"/>
		<path fill-rule="evenodd" clip-rule="evenodd" fill="#FFFFFF" d="M198.33,308.66c0.44,0.27,0.58,0.85,0.31,1.29    s-0.85,0.58-1.29,0.31c-0.44-0.27-0.58-0.85-0.31-1.29C197.31,308.53,197.89,308.39,198.33,308.66L198.33,308.66z M203.8,303.14    c-0.18,0.28-0.55,0.37-0.83,0.2c-0.28-0.18-0.37-0.55-0.2-0.83s0.55-0.37,0.83-0.2C203.89,302.49,203.98,302.86,203.8,303.14    L203.8,303.14z M202.72,301.63c-0.21,0.35-0.66,0.45-1.01,0.24c-0.35-0.21-0.45-0.66-0.24-1.01s0.66-0.45,1.01-0.24    C202.83,300.83,202.93,301.28,202.72,301.63L202.72,301.63z M201.55,300c0.24-0.4,0.12-0.92-0.28-1.16s-0.92-0.12-1.16,0.28    s-0.12,0.92,0.28,1.16C200.78,300.52,201.3,300.4,201.55,300L201.55,300z M200.29,298.27c-0.27,0.44-0.85,0.58-1.29,0.31    c-0.44-0.27-0.58-0.85-0.31-1.29s0.85-0.58,1.29-0.31C200.42,297.25,200.56,297.83,200.29,298.27L200.29,298.27z M205.21,305.74    c0.18-0.28,0.55-0.37,0.83-0.2c0.29,0.17,0.37,0.55,0.2,0.83s-0.55,0.37-0.83,0.2C205.12,306.4,205.03,306.03,205.21,305.74    L205.21,305.74z M206.29,307.26c0.21-0.35,0.66-0.45,1.01-0.24c0.35,0.21,0.45,0.66,0.24,1.01c-0.21,0.35-0.66,0.45-1.01,0.24    C206.18,308.05,206.07,307.6,206.29,307.26L206.29,307.26z M207.46,308.88c-0.24,0.4-0.12,0.92,0.28,1.16s0.92,0.12,1.16-0.28    s0.12-0.92-0.28-1.16S207.7,308.48,207.46,308.88L207.46,308.88z M208.72,310.62c0.27-0.44,0.85-0.58,1.29-0.31    c0.44,0.27,0.58,0.85,0.31,1.29s-0.85,0.58-1.29,0.31C208.59,311.63,208.45,311.06,208.72,310.62L208.72,310.62z M205.81,303.74    c-0.28-0.17-0.37-0.55-0.2-0.83s0.55-0.37,0.83-0.2c0.28,0.18,0.37,0.55,0.2,0.83C206.46,303.83,206.09,303.92,205.81,303.74    L205.81,303.74z M207.32,302.66c-0.35-0.21-0.45-0.66-0.24-1.01c0.21-0.35,0.66-0.45,1.01-0.24c0.35,0.21,0.45,0.66,0.24,1.01    C208.12,302.77,207.66,302.88,207.32,302.66L207.32,302.66z M208.95,301.49c0.4,0.24,0.92,0.12,1.16-0.28s0.12-0.92-0.28-1.16    s-0.92-0.12-1.16,0.28C208.42,300.72,208.55,301.25,208.95,301.49L208.95,301.49z M210.68,300.23c-0.44-0.27-0.58-0.85-0.31-1.29    s0.85-0.58,1.29-0.31c0.44,0.27,0.58,0.85,0.31,1.29C211.7,300.36,211.12,300.5,210.68,300.23L210.68,300.23z M204.78,304    c0.24,0.15,0.32,0.47,0.17,0.71c-0.15,0.24-0.47,0.32-0.71,0.17s-0.32-0.47-0.17-0.71C204.21,303.93,204.53,303.85,204.78,304    L204.78,304z M203.21,305.15c0.28,0.17,0.37,0.55,0.2,0.83s-0.55,0.37-0.83,0.2c-0.28-0.18-0.37-0.55-0.2-0.83    C202.55,305.06,202.92,304.97,203.21,305.15L203.21,305.15z M201.69,306.23c0.35,0.21,0.45,0.66,0.24,1.01    c-0.21,0.35-0.66,0.45-1.01,0.24c-0.35-0.21-0.45-0.66-0.24-1.01S201.35,306.01,201.69,306.23L201.69,306.23z M200.07,307.4    c-0.4-0.24-0.92-0.12-1.16,0.28s-0.12,0.92,0.28,1.16s0.92,0.12,1.16-0.28S200.46,307.64,200.07,307.4z"/>
		<path fill-rule="evenodd" clip-rule="evenodd" fill="#FFFFFF" d="M195.84,367.86c0.44,0.27,0.58,0.85,0.31,1.29    s-0.85,0.58-1.29,0.31c-0.44-0.27-0.58-0.85-0.31-1.29C194.82,367.72,195.4,367.59,195.84,367.86L195.84,367.86z M201.31,362.34    c-0.17,0.28-0.55,0.37-0.83,0.2c-0.28-0.17-0.37-0.55-0.2-0.83s0.55-0.37,0.83-0.2C201.4,361.68,201.49,362.05,201.31,362.34    L201.31,362.34z M200.23,360.82c-0.21,0.35-0.66,0.45-1.01,0.24c-0.35-0.21-0.45-0.66-0.24-1.01c0.21-0.35,0.66-0.45,1.01-0.24    C200.34,360.03,200.44,360.48,200.23,360.82L200.23,360.82z M199.06,359.2c0.24-0.4,0.12-0.92-0.28-1.16s-0.92-0.12-1.16,0.28    s-0.12,0.92,0.28,1.16C198.29,359.72,198.81,359.59,199.06,359.2L199.06,359.2z M197.8,357.46c-0.27,0.44-0.85,0.58-1.29,0.31    c-0.44-0.27-0.58-0.85-0.31-1.29s0.85-0.58,1.29-0.31C197.93,356.44,198.07,357.02,197.8,357.46L197.8,357.46z M202.71,364.94    c0.17-0.28,0.55-0.37,0.83-0.2c0.28,0.18,0.37,0.55,0.2,0.83s-0.55,0.37-0.83,0.2C202.63,365.59,202.54,365.22,202.71,364.94    L202.71,364.94z M203.79,366.45c0.21-0.35,0.66-0.45,1.01-0.24c0.35,0.21,0.45,0.66,0.24,1.01c-0.21,0.35-0.66,0.45-1.01,0.24    C203.69,367.25,203.58,366.8,203.79,366.45L203.79,366.45z M204.97,368.08c-0.24,0.4-0.12,0.92,0.28,1.16s0.92,0.12,1.16-0.28    s0.12-0.92-0.28-1.16C205.73,367.55,205.21,367.68,204.97,368.08L204.97,368.08z M206.23,369.81c0.27-0.44,0.85-0.58,1.29-0.31    c0.44,0.27,0.58,0.85,0.31,1.29s-0.85,0.58-1.29,0.31C206.1,370.83,205.96,370.25,206.23,369.81L206.23,369.81z M203.31,362.94    c-0.28-0.18-0.37-0.55-0.2-0.83c0.17-0.29,0.55-0.37,0.83-0.2c0.28,0.17,0.37,0.55,0.2,0.83S203.6,363.11,203.31,362.94    L203.31,362.94z M204.83,361.86c-0.35-0.21-0.45-0.66-0.24-1.01c0.21-0.35,0.66-0.45,1.01-0.24c0.35,0.21,0.45,0.66,0.24,1.01    C205.63,361.96,205.17,362.07,204.83,361.86L204.83,361.86z M206.45,360.68c0.4,0.24,0.92,0.12,1.16-0.28s0.12-0.92-0.28-1.16    s-0.92-0.12-1.16,0.28S206.06,360.44,206.45,360.68L206.45,360.68z M208.19,359.42c-0.44-0.27-0.58-0.85-0.31-1.29    s0.85-0.58,1.29-0.31c0.44,0.27,0.58,0.85,0.31,1.29S208.63,359.69,208.19,359.42L208.19,359.42z M202.29,363.2    c0.24,0.15,0.32,0.47,0.17,0.71c-0.15,0.24-0.47,0.32-0.71,0.17s-0.32-0.47-0.17-0.71C201.72,363.12,202.04,363.05,202.29,363.2    L202.29,363.2z M200.72,364.34c0.28,0.17,0.37,0.55,0.2,0.83s-0.55,0.37-0.83,0.2c-0.28-0.17-0.37-0.55-0.2-0.83    C200.06,364.26,200.43,364.17,200.72,364.34L200.72,364.34z M199.2,365.42c0.35,0.21,0.45,0.66,0.24,1.01    c-0.21,0.35-0.66,0.45-1.01,0.24c-0.35-0.21-0.45-0.66-0.24-1.01C198.4,365.32,198.86,365.21,199.2,365.42L199.2,365.42z     M197.57,366.59c-0.4-0.24-0.92-0.12-1.16,0.28s-0.12,0.92,0.28,1.16s0.92,0.12,1.16-0.28    C198.1,367.36,197.97,366.84,197.57,366.59z"/>
		<path fill-rule="evenodd" clip-rule="evenodd" fill="#FFFFFF" d="M146.27,399.11c0.51,0.05,0.89,0.51,0.84,1.02    c-0.05,0.51-0.51,0.89-1.02,0.84c-0.51-0.05-0.89-0.51-0.84-1.02C145.3,399.43,145.76,399.06,146.27,399.11L146.27,399.11z     M148.77,391.75c-0.03,0.33-0.33,0.58-0.66,0.54c-0.33-0.03-0.58-0.33-0.54-0.66c0.03-0.33,0.33-0.58,0.66-0.54    C148.56,391.12,148.8,391.42,148.77,391.75L148.77,391.75z M147.14,390.86c-0.04,0.4-0.4,0.7-0.8,0.66c-0.4-0.04-0.7-0.4-0.66-0.8    s0.4-0.7,0.8-0.66C146.88,390.1,147.18,390.46,147.14,390.86L147.14,390.86z M145.37,389.91c-0.05,0.46-0.46,0.81-0.92,0.76    c-0.46-0.05-0.81-0.46-0.76-0.92c0.05-0.46,0.46-0.81,0.92-0.76C145.08,389.04,145.42,389.45,145.37,389.91L145.37,389.91z     M143.48,388.91c-0.05,0.51-0.51,0.89-1.02,0.84c-0.51-0.05-0.89-0.51-0.84-1.02c0.05-0.51,0.51-0.89,1.02-0.84    C143.15,387.93,143.53,388.39,143.48,388.91L143.48,388.91z M151.17,393.47c0.03-0.33,0.33-0.58,0.66-0.54    c0.33,0.03,0.58,0.33,0.54,0.66c-0.03,0.33-0.33,0.58-0.66,0.54C151.38,394.1,151.14,393.8,151.17,393.47L151.17,393.47z     M152.81,394.36c0.04-0.4,0.4-0.7,0.8-0.66c0.4,0.04,0.7,0.4,0.66,0.8s-0.4,0.7-0.8,0.66    C153.06,395.12,152.77,394.76,152.81,394.36L152.81,394.36z M154.57,395.31c0.05-0.47,0.46-0.81,0.92-0.76    c0.46,0.04,0.8,0.46,0.76,0.92c-0.05,0.47-0.46,0.81-0.92,0.76C154.87,396.19,154.53,395.77,154.57,395.31L154.57,395.31z     M156.47,396.32c0.05-0.51,0.51-0.89,1.02-0.84c0.51,0.05,0.89,0.51,0.84,1.02c-0.05,0.51-0.51,0.89-1.02,0.84    C156.79,397.29,156.42,396.83,156.47,396.32L156.47,396.32z M150.84,391.41c-0.33-0.03-0.58-0.33-0.54-0.66    c0.03-0.33,0.33-0.58,0.66-0.54c0.33,0.03,0.58,0.33,0.54,0.66C151.46,391.2,151.17,391.44,150.84,391.41L150.84,391.41z     M151.72,389.78c-0.4-0.04-0.7-0.4-0.66-0.8s0.4-0.7,0.8-0.66c0.4,0.04,0.7,0.4,0.66,0.8    C152.49,389.52,152.13,389.82,151.72,389.78L151.72,389.78z M152.67,388.01c-0.46-0.05-0.81-0.46-0.76-0.92    c0.05-0.46,0.46-0.81,0.92-0.76c0.47,0.05,0.81,0.46,0.76,0.92C153.55,387.72,153.14,388.06,152.67,388.01L152.67,388.01z     M153.68,386.12c-0.51-0.05-0.89-0.51-0.84-1.02c0.05-0.51,0.51-0.89,1.02-0.84c0.51,0.05,0.89,0.51,0.84,1.02    S154.19,386.17,153.68,386.12L153.68,386.12z M150.02,392.1c0.28,0.03,0.49,0.28,0.46,0.56s-0.28,0.49-0.56,0.46    s-0.49-0.28-0.46-0.56C149.49,392.28,149.74,392.07,150.02,392.1L150.02,392.1z M149.11,393.81c0.33,0.03,0.58,0.33,0.54,0.66    c-0.03,0.33-0.33,0.58-0.66,0.54c-0.33-0.03-0.58-0.33-0.54-0.66C148.49,394.02,148.78,393.78,149.11,393.81L149.11,393.81z     M148.23,395.45c0.4,0.04,0.7,0.4,0.66,0.8s-0.4,0.7-0.8,0.66c-0.4-0.04-0.7-0.4-0.66-0.8    C147.46,395.7,147.82,395.41,148.23,395.45L148.23,395.45z M147.28,397.21c0.47,0.05,0.81,0.46,0.76,0.92    c-0.05,0.47-0.46,0.81-0.92,0.76c-0.47-0.05-0.8-0.46-0.76-0.92C146.4,397.51,146.81,397.17,147.28,397.21z"/>
		<path fill-rule="evenodd" clip-rule="evenodd" fill="#FFFFFF" d="M87.49,341.74c0.45,0.26,0.61,0.83,0.35,1.27    c-0.26,0.45-0.83,0.61-1.27,0.35c-0.45-0.26-0.61-0.83-0.35-1.27C86.47,341.65,87.04,341.49,87.49,341.74L87.49,341.74z     M92.77,336.04c-0.17,0.29-0.53,0.39-0.82,0.23s-0.39-0.53-0.23-0.82c0.16-0.29,0.53-0.39,0.82-0.23S92.94,335.75,92.77,336.04    L92.77,336.04z M91.64,334.57c-0.2,0.35-0.65,0.48-1,0.28s-0.48-0.65-0.28-1c0.2-0.35,0.65-0.48,1-0.28    C91.72,333.76,91.84,334.21,91.64,334.57L91.64,334.57z M90.41,332.98c0.23-0.41,0.09-0.92-0.32-1.15    c-0.41-0.23-0.92-0.09-1.15,0.32s-0.09,0.92,0.32,1.15C89.66,333.53,90.18,333.39,90.41,332.98L90.41,332.98z M89.09,331.29    c-0.26,0.45-0.83,0.61-1.27,0.35c-0.45-0.25-0.61-0.83-0.35-1.27c0.25-0.45,0.83-0.61,1.27-0.35    C89.19,330.27,89.35,330.84,89.09,331.29L89.09,331.29z M94.26,338.59c0.16-0.29,0.53-0.39,0.82-0.23    c0.29,0.17,0.39,0.53,0.23,0.82c-0.17,0.29-0.53,0.39-0.82,0.23S94.1,338.88,94.26,338.59L94.26,338.59z M95.39,340.07    c0.2-0.35,0.65-0.48,1-0.28s0.48,0.65,0.28,1c-0.2,0.35-0.65,0.48-1,0.28C95.32,340.87,95.19,340.42,95.39,340.07L95.39,340.07z     M96.62,341.65c-0.23,0.41-0.09,0.92,0.32,1.15c0.41,0.23,0.92,0.09,1.15-0.32s0.09-0.92-0.32-1.15    C97.37,341.1,96.85,341.25,96.62,341.65L96.62,341.65z M97.94,343.35c0.26-0.45,0.83-0.61,1.27-0.35    c0.45,0.26,0.61,0.83,0.35,1.27c-0.26,0.45-0.83,0.61-1.27,0.35C97.84,344.36,97.69,343.79,97.94,343.35L97.94,343.35z     M94.79,336.57c-0.29-0.17-0.39-0.53-0.23-0.82c0.16-0.29,0.53-0.39,0.82-0.23s0.39,0.53,0.23,0.82    C95.45,336.64,95.08,336.74,94.79,336.57L94.79,336.57z M96.27,335.44c-0.35-0.2-0.48-0.65-0.28-1c0.2-0.35,0.65-0.48,1-0.28    s0.48,0.65,0.28,1C97.07,335.52,96.62,335.64,96.27,335.44L96.27,335.44z M97.86,334.21c0.41,0.23,0.92,0.09,1.15-0.32    s0.09-0.92-0.32-1.15c-0.41-0.23-0.92-0.09-1.15,0.32S97.45,333.98,97.86,334.21L97.86,334.21z M99.55,332.89    c-0.45-0.26-0.61-0.83-0.35-1.27c0.25-0.45,0.83-0.61,1.27-0.35c0.45,0.25,0.61,0.83,0.35,1.27    C100.57,332.99,100,333.15,99.55,332.89L99.55,332.89z M93.77,336.87c0.25,0.14,0.34,0.46,0.19,0.71    c-0.14,0.25-0.46,0.34-0.7,0.19c-0.25-0.14-0.34-0.46-0.19-0.71C93.21,336.81,93.53,336.73,93.77,336.87L93.77,336.87z     M92.24,338.07c0.29,0.17,0.39,0.53,0.23,0.82c-0.17,0.29-0.53,0.39-0.82,0.23c-0.29-0.17-0.39-0.53-0.23-0.82    C91.58,338,91.95,337.9,92.24,338.07L92.24,338.07z M90.77,339.2c0.35,0.2,0.48,0.65,0.28,1c-0.2,0.35-0.65,0.48-1,0.28    s-0.48-0.65-0.28-1C89.97,339.12,90.42,338.99,90.77,339.2L90.77,339.2z M89.18,340.42c-0.41-0.23-0.92-0.09-1.15,0.32    s-0.09,0.92,0.32,1.15c0.41,0.23,0.92,0.09,1.15-0.32C89.73,341.17,89.59,340.65,89.18,340.42z"/>
		<path fill-rule="evenodd" clip-rule="evenodd" fill="#FFFFFF" d="M188.23,391.1c0.38,0.15,0.56,0.58,0.41,0.95    c-0.15,0.38-0.58,0.56-0.95,0.41c-0.38-0.15-0.56-0.58-0.41-0.95C187.42,391.14,187.85,390.95,188.23,391.1L188.23,391.1z     M191.72,386.09c-0.1,0.24-0.37,0.36-0.62,0.27c-0.24-0.1-0.36-0.37-0.27-0.62c0.1-0.24,0.37-0.36,0.62-0.27    C191.69,385.57,191.81,385.84,191.72,386.09L191.72,386.09z M190.68,385.06c0.12-0.3-0.03-0.63-0.32-0.75    c-0.3-0.12-0.63,0.03-0.75,0.32c-0.12,0.3,0.03,0.63,0.32,0.75S190.56,385.36,190.68,385.06L190.68,385.06z M189.55,383.96    c-0.14,0.34-0.52,0.51-0.86,0.37s-0.51-0.52-0.37-0.86s0.52-0.51,0.86-0.37C189.52,383.23,189.68,383.62,189.55,383.96    L189.55,383.96z M188.34,382.79c0.15-0.38-0.03-0.8-0.41-0.95c-0.38-0.15-0.8,0.03-0.95,0.41s0.03,0.8,0.41,0.95    C187.76,383.35,188.19,383.16,188.34,382.79L188.34,382.79z M193.16,387.91c0.1-0.24,0.37-0.36,0.62-0.27    c0.24,0.1,0.36,0.37,0.27,0.62c-0.1,0.24-0.37,0.36-0.62,0.27C193.18,388.43,193.06,388.16,193.16,387.91L193.16,387.91z     M194.2,388.94c-0.12,0.3,0.03,0.63,0.32,0.75c0.3,0.12,0.63-0.03,0.75-0.32c0.12-0.3-0.03-0.63-0.32-0.75    C194.65,388.5,194.31,388.64,194.2,388.94L194.2,388.94z M195.32,390.04c0.14-0.34,0.52-0.51,0.86-0.37s0.51,0.52,0.37,0.86    s-0.52,0.51-0.86,0.37C195.36,390.77,195.19,390.38,195.32,390.04L195.32,390.04z M196.54,391.21c-0.15,0.38,0.03,0.8,0.41,0.95    c0.38,0.15,0.8-0.03,0.95-0.41s-0.03-0.8-0.41-0.95C197.11,390.65,196.69,390.84,196.54,391.21L196.54,391.21z M193.35,386.28    c-0.24-0.1-0.36-0.37-0.27-0.62c0.1-0.24,0.37-0.36,0.62-0.27c0.24,0.1,0.36,0.37,0.27,0.62    C193.87,386.26,193.59,386.38,193.35,386.28L193.35,386.28z M194.38,385.24c0.3,0.12,0.63-0.03,0.75-0.32    c0.12-0.3-0.03-0.63-0.32-0.75c-0.3-0.12-0.63,0.03-0.75,0.32C193.94,384.79,194.08,385.13,194.38,385.24L194.38,385.24z     M195.48,384.11c-0.34-0.14-0.51-0.52-0.37-0.86s0.52-0.51,0.86-0.37s0.51,0.52,0.37,0.86    C196.21,384.08,195.82,384.25,195.48,384.11L195.48,384.11z M196.65,382.9c0.38,0.15,0.8-0.03,0.95-0.41s-0.03-0.8-0.41-0.95    c-0.38-0.15-0.8,0.03-0.95,0.41S196.27,382.75,196.65,382.9L196.65,382.9z M192.59,386.62c0.21,0.08,0.31,0.32,0.23,0.53    s-0.32,0.31-0.53,0.23c-0.21-0.08-0.31-0.32-0.23-0.53C192.14,386.64,192.38,386.54,192.59,386.62L192.59,386.62z M191.53,387.72    c0.24,0.1,0.36,0.37,0.27,0.62c-0.1,0.24-0.37,0.36-0.62,0.27c-0.24-0.1-0.36-0.37-0.27-0.62    C191.01,387.74,191.28,387.62,191.53,387.72L191.53,387.72z M190.5,388.76c-0.3-0.12-0.63,0.03-0.75,0.32    c-0.12,0.3,0.03,0.63,0.32,0.75c0.3,0.12,0.63-0.03,0.75-0.32C190.94,389.21,190.8,388.88,190.5,388.76L190.5,388.76z     M189.4,389.89c-0.34-0.14-0.73,0.03-0.86,0.37c-0.14,0.34,0.03,0.73,0.37,0.86c0.34,0.14,0.73-0.03,0.86-0.37    C189.91,390.41,189.74,390.03,189.4,389.89z"/>
		<path fill-rule="evenodd" clip-rule="evenodd" fill="#FFFFFF" d="M78.03,409.37c0.61,0.08,1.03,0.64,0.95,1.25    s-0.64,1.03-1.25,0.95s-1.03-0.64-0.95-1.25C76.86,409.72,77.42,409.29,78.03,409.37L78.03,409.37z M81.35,400.74    c-0.05,0.39-0.42,0.67-0.81,0.62c-0.39-0.05-0.67-0.42-0.62-0.81c0.05-0.39,0.42-0.67,0.81-0.62    C81.13,399.98,81.4,400.35,81.35,400.74L81.35,400.74z M79.45,399.61c-0.07,0.48-0.51,0.81-0.98,0.75    c-0.48-0.07-0.81-0.51-0.75-0.98c0.07-0.48,0.51-0.81,0.98-0.75C79.18,398.69,79.51,399.13,79.45,399.61L79.45,399.61z     M77.39,398.4c-0.08,0.55-0.58,0.94-1.13,0.86s-0.94-0.58-0.86-1.13c0.08-0.55,0.58-0.94,1.13-0.86    C77.08,397.34,77.47,397.85,77.39,398.4L77.39,398.4z M75.18,397.11c-0.08,0.61-0.64,1.03-1.25,0.95s-1.03-0.64-0.95-1.25    s0.64-1.03,1.25-0.95C74.84,395.94,75.27,396.5,75.18,397.11L75.18,397.11z M84.13,402.9c0.05-0.39,0.42-0.67,0.81-0.62    c0.39,0.05,0.67,0.42,0.62,0.81c-0.05,0.39-0.42,0.67-0.81,0.62C84.35,403.65,84.07,403.29,84.13,402.9L84.13,402.9z     M86.03,404.03c0.07-0.48,0.51-0.81,0.98-0.75c0.48,0.07,0.81,0.51,0.75,0.98c-0.07,0.48-0.51,0.81-0.98,0.75    C86.3,404.95,85.96,404.51,86.03,404.03L86.03,404.03z M88.09,405.24c0.08-0.55,0.58-0.94,1.13-0.86    c0.55,0.08,0.94,0.58,0.86,1.13c-0.08,0.55-0.58,0.94-1.13,0.86C88.4,406.3,88.01,405.79,88.09,405.24L88.09,405.24z     M90.29,406.53c0.08-0.61,0.64-1.03,1.25-0.95s1.03,0.64,0.95,1.25s-0.64,1.03-1.25,0.95C90.63,407.7,90.21,407.14,90.29,406.53    L90.29,406.53z M83.82,400.43c-0.39-0.05-0.67-0.42-0.62-0.81c0.05-0.39,0.42-0.67,0.81-0.62c0.39,0.05,0.67,0.42,0.62,0.81    C84.58,400.21,84.21,400.49,83.82,400.43L83.82,400.43z M84.95,398.53c-0.48-0.07-0.81-0.51-0.75-0.98    c0.07-0.48,0.51-0.81,0.98-0.75c0.48,0.07,0.81,0.51,0.75,0.98C85.87,398.26,85.43,398.6,84.95,398.53L84.95,398.53z     M86.16,396.47c-0.55-0.08-0.94-0.58-0.86-1.13c0.08-0.55,0.58-0.94,1.13-0.86c0.55,0.08,0.94,0.58,0.86,1.13    C87.22,396.16,86.71,396.55,86.16,396.47L86.16,396.47z M87.45,394.27c-0.61-0.08-1.03-0.64-0.95-1.25s0.64-1.03,1.25-0.95    s1.03,0.64,0.95,1.25C88.62,393.92,88.06,394.35,87.45,394.27L87.45,394.27z M82.82,401.21c0.34,0.05,0.57,0.36,0.53,0.69    c-0.05,0.34-0.36,0.57-0.69,0.53c-0.34-0.05-0.57-0.36-0.53-0.69C82.18,401.4,82.49,401.16,82.82,401.21L82.82,401.21z     M81.66,403.21c0.39,0.05,0.67,0.42,0.62,0.81c-0.05,0.39-0.42,0.67-0.81,0.62c-0.39-0.05-0.67-0.42-0.62-0.81    C80.91,403.43,81.27,403.15,81.66,403.21L81.66,403.21z M80.53,405.11c0.48,0.07,0.81,0.51,0.75,0.98    c-0.07,0.48-0.51,0.81-0.98,0.75c-0.48-0.07-0.81-0.51-0.75-0.98C79.61,405.38,80.05,405.04,80.53,405.11L80.53,405.11z     M79.32,407.17c0.55,0.08,0.94,0.58,0.86,1.13c-0.08,0.55-0.58,0.94-1.13,0.86c-0.55-0.08-0.94-0.58-0.86-1.13    C78.26,407.48,78.77,407.09,79.32,407.17z"/>
		<path fill-rule="evenodd" clip-rule="evenodd" fill="#FFFFFF" d="M136.71,347.07c0.44-0.17,0.93,0.04,1.1,0.48    c0.17,0.44-0.04,0.93-0.48,1.1s-0.93-0.04-1.1-0.48C136.06,347.73,136.27,347.24,136.71,347.07L136.71,347.07z M135.71,340.08    c0.11,0.28-0.03,0.6-0.31,0.71s-0.6-0.03-0.71-0.31s0.03-0.6,0.31-0.71C135.28,339.65,135.6,339.79,135.71,340.08L135.71,340.08z     M134.02,340.03c0.13,0.34-0.04,0.73-0.38,0.86c-0.34,0.13-0.73-0.04-0.86-0.38s0.03-0.73,0.38-0.86    C133.5,339.52,133.88,339.69,134.02,340.03L134.02,340.03z M132.19,339.99c0.15,0.4-0.04,0.84-0.44,1c-0.4,0.15-0.84-0.04-1-0.44    c-0.15-0.4,0.04-0.84,0.44-1C131.59,339.4,132.04,339.59,132.19,339.99L132.19,339.99z M130.24,339.95    c0.17,0.44-0.04,0.93-0.48,1.1s-0.93-0.04-1.1-0.48c-0.17-0.44,0.04-0.93,0.48-1.1C129.58,339.3,130.07,339.52,130.24,339.95    L130.24,339.95z M138.36,340.48c-0.11-0.28,0.03-0.6,0.31-0.71s0.6,0.03,0.71,0.31s-0.03,0.6-0.31,0.71    C138.79,340.9,138.47,340.76,138.36,340.48L138.36,340.48z M140.05,340.53c-0.13-0.34,0.03-0.73,0.38-0.86    c0.34-0.13,0.73,0.03,0.86,0.38c0.13,0.34-0.03,0.73-0.38,0.86C140.57,341.04,140.18,340.87,140.05,340.53L140.05,340.53z     M141.87,340.57c-0.15-0.4,0.04-0.84,0.44-1c0.4-0.16,0.84,0.04,1,0.44c0.15,0.4-0.04,0.84-0.44,1    C142.47,341.16,142.03,340.96,141.87,340.57L141.87,340.57z M143.82,340.6c-0.17-0.44,0.04-0.93,0.48-1.1s0.93,0.04,1.1,0.48    c0.17,0.44-0.04,0.93-0.48,1.1C144.48,341.26,143.99,341.04,143.82,340.6L143.82,340.6z M137.24,338.95    c-0.28,0.11-0.6-0.03-0.71-0.31s0.03-0.6,0.31-0.71s0.6,0.03,0.71,0.31C137.66,338.52,137.52,338.84,137.24,338.95L137.24,338.95z     M137.29,337.26c-0.34,0.13-0.73-0.03-0.86-0.38c-0.13-0.34,0.04-0.73,0.38-0.86c0.34-0.13,0.73,0.03,0.86,0.38    C137.8,336.74,137.63,337.13,137.29,337.26L137.29,337.26z M137.33,335.44c-0.4,0.16-0.84-0.04-1-0.44c-0.15-0.4,0.04-0.84,0.44-1    c0.4-0.15,0.84,0.04,1,0.44C137.92,334.84,137.72,335.29,137.33,335.44L137.33,335.44z M137.36,333.49    c-0.44,0.17-0.93-0.04-1.1-0.48c-0.17-0.44,0.04-0.93,0.48-1.1s0.93,0.04,1.1,0.48C138.01,332.83,137.8,333.32,137.36,333.49    L137.36,333.49z M136.86,339.84c0.24-0.09,0.51,0.02,0.61,0.27c0.09,0.24-0.02,0.51-0.27,0.61c-0.24,0.09-0.51-0.02-0.61-0.27    C136.5,340.21,136.62,339.94,136.86,339.84L136.86,339.84z M136.83,341.61c0.28-0.11,0.6,0.03,0.71,0.31s-0.03,0.6-0.31,0.71    s-0.6-0.03-0.71-0.31C136.41,342.03,136.55,341.72,136.83,341.61L136.83,341.61z M136.79,343.29c0.34-0.13,0.73,0.03,0.86,0.38    c0.13,0.34-0.03,0.73-0.38,0.86c-0.34,0.13-0.73-0.03-0.86-0.38C136.27,343.81,136.44,343.43,136.79,343.29L136.79,343.29z     M136.75,345.12c0.4-0.15,0.84,0.04,1,0.44c0.15,0.4-0.04,0.84-0.44,1c-0.4,0.15-0.84-0.04-1-0.44    C136.16,345.72,136.35,345.27,136.75,345.12z"/>
		<path fill-rule="evenodd" clip-rule="evenodd" fill="#FFFFFF" d="M192.62,332.05c0.35-0.14,0.75,0.04,0.88,0.39    c0.14,0.35-0.04,0.75-0.39,0.88c-0.35,0.14-0.75-0.04-0.88-0.39S192.27,332.19,192.62,332.05L192.62,332.05z M191.82,326.44    c0.09,0.23-0.02,0.48-0.25,0.57s-0.48-0.02-0.57-0.25c-0.09-0.23,0.02-0.48,0.25-0.57C191.47,326.11,191.73,326.22,191.82,326.44    L191.82,326.44z M190.46,326.41c0.11,0.28-0.03,0.59-0.3,0.69c-0.28,0.11-0.59-0.03-0.69-0.3c-0.11-0.28,0.03-0.59,0.3-0.69    C190.05,326,190.36,326.13,190.46,326.41L190.46,326.41z M189,326.37c0.12,0.32-0.03,0.67-0.35,0.8c-0.32,0.12-0.67-0.03-0.8-0.35    c-0.12-0.32,0.03-0.67,0.35-0.8C188.52,325.9,188.88,326.06,189,326.37L189,326.37z M187.44,326.34c0.14,0.35-0.04,0.75-0.39,0.88    s-0.75-0.04-0.88-0.39c-0.14-0.35,0.04-0.75,0.39-0.88S187.3,325.99,187.44,326.34L187.44,326.34z M193.95,326.77    c-0.09-0.23,0.02-0.48,0.25-0.57s0.48,0.02,0.57,0.25c0.09,0.23-0.02,0.48-0.25,0.57C194.29,327.11,194.04,327,193.95,326.77    L193.95,326.77z M195.3,326.81c-0.11-0.28,0.03-0.59,0.3-0.69c0.28-0.11,0.59,0.03,0.69,0.3c0.11,0.28-0.03,0.59-0.3,0.69    C195.72,327.22,195.41,327.08,195.3,326.81L195.3,326.81z M196.76,326.84c-0.12-0.32,0.03-0.67,0.35-0.8    c0.32-0.12,0.67,0.03,0.8,0.35c0.12,0.32-0.03,0.67-0.35,0.8C197.24,327.31,196.89,327.16,196.76,326.84L196.76,326.84z     M198.33,326.87c-0.14-0.35,0.04-0.75,0.39-0.88c0.35-0.14,0.75,0.04,0.88,0.39c0.14,0.35-0.04,0.75-0.39,0.88    C198.86,327.39,198.46,327.22,198.33,326.87L198.33,326.87z M193.05,325.54c-0.23,0.09-0.48-0.02-0.57-0.25    c-0.09-0.23,0.02-0.48,0.25-0.57s0.48,0.02,0.57,0.25C193.39,325.2,193.27,325.45,193.05,325.54L193.05,325.54z M193.08,324.19    c-0.28,0.11-0.59-0.03-0.69-0.3c-0.11-0.28,0.03-0.59,0.3-0.69c0.28-0.11,0.59,0.03,0.69,0.3    C193.5,323.77,193.36,324.08,193.08,324.19L193.08,324.19z M193.12,322.73c-0.32,0.12-0.67-0.03-0.8-0.35    c-0.12-0.32,0.03-0.67,0.35-0.8c0.32-0.12,0.67,0.03,0.8,0.35C193.59,322.24,193.43,322.6,193.12,322.73L193.12,322.73z     M193.15,321.16c-0.35,0.14-0.75-0.04-0.88-0.39c-0.14-0.35,0.04-0.75,0.39-0.88c0.35-0.14,0.75,0.04,0.88,0.39    C193.67,320.63,193.5,321.02,193.15,321.16L193.15,321.16z M192.75,326.26c0.19-0.08,0.41,0.02,0.49,0.21s-0.02,0.41-0.21,0.49    s-0.41-0.02-0.49-0.21C192.46,326.55,192.55,326.33,192.75,326.26L192.75,326.26z M192.72,327.67c0.23-0.09,0.48,0.02,0.57,0.25    c0.09,0.23-0.02,0.48-0.25,0.57s-0.48-0.02-0.57-0.25C192.38,328.02,192.5,327.76,192.72,327.67L192.72,327.67z M192.68,329.03    c0.28-0.11,0.59,0.03,0.69,0.3c0.11,0.28-0.03,0.59-0.3,0.69c-0.28,0.11-0.59-0.03-0.69-0.3    C192.27,329.44,192.41,329.13,192.68,329.03L192.68,329.03z M192.65,330.49c0.32-0.12,0.67,0.03,0.8,0.35    c0.12,0.32-0.03,0.67-0.35,0.8c-0.32,0.12-0.68-0.03-0.8-0.35C192.18,330.97,192.34,330.61,192.65,330.49z"/>
		<path fill-rule="evenodd" clip-rule="evenodd" fill="#FFFFFF" d="M96.19,238.49c0.35,0.15,0.5,0.55,0.35,0.9    c-0.15,0.35-0.55,0.5-0.9,0.35c-0.34-0.15-0.5-0.55-0.35-0.9C95.45,238.5,95.85,238.34,96.19,238.49L96.19,238.49z M99.59,233.96    c-0.1,0.22-0.36,0.32-0.58,0.23c-0.22-0.1-0.32-0.36-0.23-0.58c0.1-0.22,0.36-0.32,0.58-0.23    C99.59,233.48,99.69,233.74,99.59,233.96L99.59,233.96z M98.66,232.98c0.12-0.27,0-0.59-0.28-0.7c-0.27-0.12-0.59,0-0.7,0.28    c-0.12,0.27,0,0.59,0.28,0.7C98.23,233.37,98.54,233.25,98.66,232.98L98.66,232.98z M97.65,231.92c-0.14,0.31-0.5,0.45-0.81,0.32    c-0.31-0.14-0.45-0.5-0.32-0.81c0.14-0.31,0.5-0.45,0.81-0.32C97.64,231.25,97.79,231.61,97.65,231.92L97.65,231.92z     M96.57,230.79c0.15-0.34-0.01-0.75-0.35-0.9s-0.75,0.01-0.9,0.35c-0.15,0.34,0.01,0.75,0.35,0.9S96.41,231.14,96.57,230.79    L96.57,230.79z M100.87,235.7c0.1-0.22,0.36-0.32,0.58-0.23c0.22,0.1,0.32,0.36,0.23,0.58c-0.1,0.22-0.36,0.32-0.58,0.23    C100.87,236.18,100.77,235.92,100.87,235.7L100.87,235.7z M101.8,236.68c-0.12,0.27,0,0.59,0.28,0.7c0.27,0.12,0.59,0,0.7-0.28    c0.12-0.27,0-0.59-0.28-0.7C102.23,236.29,101.92,236.41,101.8,236.68L101.8,236.68z M102.81,237.74c0.14-0.31,0.5-0.45,0.81-0.32    c0.31,0.14,0.45,0.5,0.32,0.81c-0.14,0.31-0.5,0.45-0.81,0.32C102.81,238.41,102.67,238.05,102.81,237.74L102.81,237.74z     M103.89,238.87c-0.15,0.35,0.01,0.75,0.35,0.9s0.75-0.01,0.9-0.35c0.15-0.34-0.01-0.75-0.35-0.9    C104.45,238.36,104.04,238.52,103.89,238.87L103.89,238.87z M101.1,234.19c-0.22-0.1-0.32-0.36-0.23-0.58    c0.1-0.22,0.36-0.32,0.58-0.23c0.22,0.1,0.32,0.36,0.23,0.58C101.58,234.19,101.32,234.29,101.1,234.19L101.1,234.19z     M102.08,233.26c0.27,0.12,0.59,0,0.7-0.28c0.12-0.27,0-0.59-0.28-0.7c-0.27-0.12-0.59,0-0.7,0.28    C101.69,232.83,101.81,233.14,102.08,233.26L102.08,233.26z M103.14,232.25c-0.31-0.14-0.45-0.5-0.32-0.81    c0.14-0.31,0.5-0.45,0.81-0.32c0.31,0.14,0.45,0.5,0.32,0.81C103.82,232.25,103.45,232.39,103.14,232.25L103.14,232.25z     M104.27,231.17c0.34,0.15,0.75-0.01,0.9-0.35c0.15-0.34-0.01-0.75-0.35-0.9s-0.75,0.01-0.9,0.35    C103.77,230.61,103.92,231.02,104.27,231.17L104.27,231.17z M100.38,234.49c0.19,0.08,0.28,0.31,0.19,0.5    c-0.08,0.19-0.31,0.28-0.5,0.19c-0.19-0.08-0.28-0.31-0.19-0.5C99.97,234.49,100.19,234.4,100.38,234.49L100.38,234.49z     M99.36,235.47c0.22,0.1,0.32,0.36,0.23,0.58c-0.1,0.22-0.36,0.32-0.58,0.23c-0.22-0.1-0.32-0.36-0.23-0.58    C98.88,235.47,99.14,235.37,99.36,235.47L99.36,235.47z M98.38,236.4c-0.27-0.12-0.59,0-0.7,0.28c-0.12,0.27,0,0.59,0.28,0.7    c0.27,0.12,0.59,0,0.7-0.28C98.77,236.83,98.65,236.52,98.38,236.4L98.38,236.4z M97.32,237.41c-0.31-0.14-0.68,0.01-0.81,0.32    c-0.14,0.31,0.01,0.68,0.32,0.81c0.31,0.14,0.68-0.01,0.81-0.32C97.78,237.91,97.63,237.55,97.32,237.41z"/>
	</g>
	<g>
		<path fill-rule="evenodd" clip-rule="evenodd" fill="#FFFFFF" d="M91.21,105.67c0.64-0.39,1.48-0.18,1.87,0.46    s0.18,1.48-0.46,1.87s-1.48,0.18-1.87-0.46C90.36,106.9,90.57,106.06,91.21,105.67L91.21,105.67z M87.74,94.92    c0.25,0.42,0.12,0.96-0.3,1.21c-0.42,0.25-0.96,0.12-1.21-0.3c-0.25-0.42-0.12-0.96,0.3-1.21C86.95,94.37,87.49,94.5,87.74,94.92    L87.74,94.92z M85.07,95.3c0.3,0.51,0.14,1.16-0.36,1.47c-0.5,0.3-1.16,0.14-1.47-0.36c-0.3-0.5-0.14-1.16,0.36-1.47    C84.11,94.63,84.76,94.79,85.07,95.3L85.07,95.3z M82.18,95.73c0.35,0.58,0.16,1.34-0.42,1.69c-0.58,0.35-1.34,0.16-1.69-0.42    c-0.35-0.58-0.16-1.34,0.42-1.69C81.07,94.96,81.83,95.14,82.18,95.73L82.18,95.73z M79.09,96.2c0.39,0.64,0.18,1.48-0.46,1.87    s-1.48,0.18-1.87-0.46s-0.18-1.48,0.46-1.87C77.87,95.35,78.71,95.55,79.09,96.2L79.09,96.2z M92.04,94.84    c-0.25-0.42-0.12-0.96,0.3-1.21c0.42-0.25,0.96-0.12,1.21,0.3c0.25,0.42,0.12,0.96-0.3,1.21S92.29,95.26,92.04,94.84L92.04,94.84z     M94.72,94.46c-0.3-0.51-0.14-1.16,0.36-1.47c0.51-0.3,1.16-0.14,1.47,0.36c0.3,0.51,0.14,1.16-0.36,1.47    C95.68,95.13,95.02,94.96,94.72,94.46L94.72,94.46z M97.6,94.03c-0.35-0.58-0.16-1.34,0.42-1.69c0.58-0.35,1.34-0.16,1.69,0.42    c0.35,0.58,0.16,1.34-0.42,1.69C98.71,94.8,97.95,94.61,97.6,94.03L97.6,94.03z M100.69,93.56c-0.39-0.64-0.18-1.48,0.46-1.87    s1.48-0.18,1.87,0.46s0.18,1.48-0.46,1.87C101.91,94.41,101.08,94.2,100.69,93.56L100.69,93.56z M89.86,92.73    c-0.42,0.25-0.96,0.12-1.21-0.3c-0.25-0.42-0.12-0.96,0.3-1.21c0.42-0.25,0.96-0.12,1.21,0.3C90.41,91.94,90.27,92.48,89.86,92.73    L89.86,92.73z M89.48,90.05c-0.5,0.3-1.16,0.14-1.47-0.36c-0.3-0.5-0.14-1.16,0.36-1.47c0.5-0.3,1.16-0.14,1.47,0.36    C90.14,89.09,89.98,89.75,89.48,90.05L89.48,90.05z M89.05,87.17c-0.58,0.35-1.34,0.16-1.69-0.42c-0.35-0.58-0.16-1.34,0.42-1.69    c0.58-0.35,1.34-0.16,1.69,0.42S89.63,86.82,89.05,87.17L89.05,87.17z M88.58,84.08c-0.64,0.39-1.48,0.18-1.87-0.46    s-0.18-1.48,0.46-1.87s1.48-0.18,1.87,0.46C89.43,82.86,89.22,83.69,88.58,84.08L88.58,84.08z M89.51,94.23    c0.36-0.21,0.82-0.1,1.03,0.26s0.1,0.82-0.26,1.03s-0.82,0.1-1.03-0.26C89.04,94.91,89.15,94.45,89.51,94.23L89.51,94.23z     M89.93,97.03c0.42-0.25,0.96-0.12,1.21,0.3c0.25,0.42,0.12,0.96-0.3,1.21c-0.42,0.25-0.96,0.12-1.21-0.3    C89.38,97.82,89.52,97.28,89.93,97.03L89.93,97.03z M90.32,99.7c0.51-0.3,1.16-0.14,1.47,0.36c0.3,0.51,0.14,1.16-0.36,1.47    c-0.51,0.3-1.16,0.14-1.47-0.36C89.65,100.66,89.81,100.01,90.32,99.7L90.32,99.7z M90.74,102.59c0.58-0.35,1.34-0.16,1.69,0.42    c0.35,0.58,0.16,1.34-0.42,1.69c-0.58,0.35-1.34,0.16-1.69-0.42C89.98,103.69,90.16,102.94,90.74,102.59z"/>
		<path fill-rule="evenodd" clip-rule="evenodd" fill="#FFFFFF" d="M109.88,136.64c0.68-0.33,1.49-0.04,1.82,0.63    c0.33,0.68,0.04,1.49-0.63,1.82c-0.68,0.33-1.49,0.04-1.82-0.63C108.92,137.78,109.21,136.97,109.88,136.64L109.88,136.64z     M107.42,125.61c0.21,0.44,0.03,0.96-0.41,1.18c-0.44,0.21-0.96,0.03-1.18-0.41c-0.21-0.44-0.03-0.96,0.41-1.17    C106.68,124.99,107.21,125.17,107.42,125.61L107.42,125.61z M104.72,125.74c0.26,0.53,0.03,1.17-0.5,1.43s-1.17,0.03-1.43-0.5    s-0.03-1.17,0.5-1.43C103.82,124.99,104.46,125.21,104.72,125.74L104.72,125.74z M101.8,125.91c0.3,0.61,0.04,1.35-0.57,1.64    c-0.61,0.3-1.35,0.04-1.64-0.57c-0.3-0.61-0.04-1.35,0.57-1.64C100.77,125.04,101.51,125.29,101.8,125.91L101.8,125.91z     M98.69,126.09c0.33,0.68,0.04,1.49-0.63,1.82c-0.68,0.33-1.49,0.04-1.82-0.63c-0.33-0.68-0.04-1.49,0.63-1.82    C97.55,125.13,98.36,125.41,98.69,126.09L98.69,126.09z M111.7,125.93c-0.21-0.44-0.03-0.96,0.41-1.17s0.96-0.03,1.17,0.41    s0.03,0.96-0.41,1.18C112.44,126.55,111.91,126.37,111.7,125.93L111.7,125.93z M114.4,125.8c-0.26-0.53-0.03-1.17,0.5-1.43    s1.17-0.03,1.43,0.5s0.03,1.17-0.5,1.43C115.3,126.55,114.66,126.33,114.4,125.8L114.4,125.8z M117.32,125.64    c-0.3-0.61-0.04-1.35,0.57-1.64c0.61-0.3,1.35-0.04,1.64,0.57c0.3,0.61,0.04,1.35-0.57,1.64S117.61,126.25,117.32,125.64    L117.32,125.64z M120.43,125.45c-0.33-0.68-0.04-1.49,0.63-1.82c0.68-0.33,1.49-0.04,1.82,0.63c0.33,0.68,0.04,1.49-0.63,1.82    C121.57,126.41,120.76,126.13,120.43,125.45L120.43,125.45z M109.72,123.63c-0.44,0.21-0.96,0.03-1.17-0.41s-0.03-0.96,0.41-1.18    c0.44-0.21,0.96-0.03,1.18,0.41C110.35,122.89,110.16,123.42,109.72,123.63L109.72,123.63z M109.59,120.93    c-0.53,0.26-1.17,0.03-1.43-0.5s-0.03-1.17,0.5-1.43s1.17-0.03,1.43,0.5C110.34,120.03,110.12,120.67,109.59,120.93L109.59,120.93    z M109.43,118.01c-0.61,0.3-1.35,0.04-1.64-0.57c-0.3-0.61-0.04-1.35,0.57-1.64c0.61-0.3,1.35-0.04,1.64,0.57    C110.3,116.98,110.04,117.72,109.43,118.01L109.43,118.01z M109.25,114.9c-0.68,0.33-1.49,0.04-1.82-0.63    c-0.33-0.68-0.04-1.49,0.63-1.82c0.68-0.33,1.49-0.04,1.82,0.63C110.21,113.76,109.92,114.57,109.25,114.9L109.25,114.9z     M109.24,125.09c0.37-0.18,0.82-0.02,1,0.35c0.18,0.37,0.02,0.82-0.35,1c-0.37,0.18-0.82,0.02-1-0.35    C108.71,125.72,108.86,125.27,109.24,125.09L109.24,125.09z M109.41,127.91c0.44-0.21,0.96-0.03,1.17,0.41    c0.21,0.44,0.03,0.96-0.41,1.17c-0.44,0.21-0.96,0.03-1.17-0.41C108.79,128.65,108.97,128.12,109.41,127.91L109.41,127.91z     M109.54,130.61c0.53-0.26,1.17-0.03,1.43,0.5s0.03,1.17-0.5,1.43s-1.17,0.03-1.43-0.5C108.79,131.51,109.01,130.87,109.54,130.61    L109.54,130.61z M109.7,133.53c0.61-0.3,1.35-0.04,1.64,0.57c0.3,0.61,0.04,1.35-0.57,1.64c-0.61,0.3-1.35,0.04-1.64-0.57    C108.83,134.56,109.09,133.82,109.7,133.53z"/>
		<path fill-rule="evenodd" clip-rule="evenodd" fill="#FFFFFF" d="M123.94,100.33c0.3-0.51,0.96-0.68,1.47-0.39    c0.51,0.3,0.68,0.96,0.39,1.47c-0.3,0.51-0.96,0.68-1.47,0.39C123.82,101.5,123.64,100.84,123.94,100.33L123.94,100.33z     M117.47,94.19c0.33,0.19,0.44,0.62,0.25,0.95c-0.19,0.33-0.62,0.44-0.95,0.25c-0.33-0.19-0.44-0.62-0.25-0.95    C116.71,94.11,117.14,94,117.47,94.19L117.47,94.19z M115.76,95.47c0.4,0.24,0.54,0.75,0.3,1.15c-0.23,0.4-0.75,0.54-1.15,0.3    c-0.4-0.23-0.54-0.75-0.3-1.15C114.84,95.37,115.35,95.23,115.76,95.47L115.76,95.47z M113.92,96.86    c-0.46-0.27-1.06-0.11-1.33,0.35c-0.27,0.46-0.11,1.06,0.35,1.33c0.46,0.27,1.06,0.11,1.33-0.35    C114.54,97.72,114.38,97.13,113.92,96.86L113.92,96.86z M111.96,98.35c0.51,0.3,0.68,0.96,0.39,1.47    c-0.3,0.51-0.96,0.68-1.47,0.39c-0.51-0.3-0.68-0.96-0.39-1.47C110.79,98.22,111.44,98.05,111.96,98.35L111.96,98.35z     M120.41,92.51c-0.33-0.19-0.44-0.62-0.25-0.95c0.19-0.33,0.62-0.44,0.95-0.25c0.33,0.19,0.44,0.62,0.25,0.95    C121.17,92.59,120.75,92.7,120.41,92.51L120.41,92.51z M122.13,91.23c-0.4-0.23-0.54-0.75-0.3-1.15c0.23-0.4,0.75-0.54,1.15-0.3    c0.4,0.23,0.54,0.75,0.3,1.15S122.53,91.47,122.13,91.23L122.13,91.23z M123.96,89.84c0.46,0.27,1.06,0.11,1.33-0.35    c0.27-0.46,0.11-1.06-0.35-1.33c-0.46-0.27-1.06-0.11-1.33,0.35C123.34,88.98,123.5,89.57,123.96,89.84L123.96,89.84z     M125.92,88.35c-0.51-0.3-0.68-0.96-0.39-1.47c0.3-0.51,0.96-0.68,1.47-0.39c0.51,0.3,0.68,0.96,0.39,1.47    C127.09,88.48,126.44,88.65,125.92,88.35L125.92,88.35z M118.1,91.87c-0.19,0.33-0.62,0.44-0.95,0.25    c-0.33-0.19-0.44-0.62-0.25-0.95s0.62-0.44,0.95-0.25C118.19,91.12,118.3,91.54,118.1,91.87L118.1,91.87z M116.83,90.16    c-0.23,0.4-0.75,0.54-1.15,0.3c-0.4-0.23-0.54-0.75-0.3-1.15c0.23-0.4,0.75-0.54,1.15-0.3C116.93,89.25,117.06,89.76,116.83,90.16    L116.83,90.16z M115.44,88.33c0.27-0.46,0.11-1.06-0.35-1.33c-0.46-0.27-1.06-0.11-1.33,0.35c-0.27,0.46-0.11,1.06,0.35,1.33    C114.57,88.95,115.17,88.79,115.44,88.33L115.44,88.33z M113.95,86.36c-0.3,0.51-0.96,0.68-1.47,0.39    c-0.51-0.3-0.68-0.96-0.39-1.47c0.3-0.51,0.96-0.68,1.47-0.39C114.07,85.19,114.24,85.85,113.95,86.36L113.95,86.36z     M118.43,93.05c0.17-0.28,0.53-0.38,0.81-0.21s0.38,0.53,0.21,0.81s-0.53,0.38-0.81,0.21C118.36,93.7,118.27,93.33,118.43,93.05    L118.43,93.05z M119.78,94.82c0.19-0.33,0.62-0.44,0.95-0.25c0.33,0.19,0.44,0.62,0.25,0.95s-0.62,0.44-0.95,0.25    C119.7,95.58,119.59,95.15,119.78,94.82L119.78,94.82z M121.06,96.53c0.23-0.4,0.75-0.54,1.15-0.3s0.54,0.75,0.3,1.15    s-0.75,0.54-1.15,0.3C120.96,97.45,120.83,96.93,121.06,96.53L121.06,96.53z M122.45,98.37c-0.27,0.46-0.11,1.06,0.35,1.33    c0.46,0.27,1.06,0.11,1.33-0.35c0.27-0.46,0.11-1.06-0.35-1.33C123.31,97.75,122.72,97.91,122.45,98.37z"/>
	</g>
	<path fill-rule="evenodd" clip-rule="evenodd" fill="#FFFFFD" d="M231.91,402.57l-0.65-5c-0.96,1.17-2,2.32-3.06,3.49   c-4.8,5.3-10.01,11.06-9.05,18.76l0.92,7.33c0.09,0.69,0.06,1.26-0.07,1.74c-0.52,1.86-2.92,2.73-6.48,2.93   c-4.2,0.23-9.78-0.54-15.86-1.87c-17.81-3.89-39.44-12.44-43.72-14.54l-0.07-0.04c-12.35-5.47-23.36-0.32-35.87,5.53   c-11.05,5.16-23.34,10.91-38.56,9.77l-0.09-0.01c-0.85-0.06-1.58-0.12-2.23-0.2c-1.46-0.18-1.85-0.7-1.53-3.32   c1.82-14.5,1.29-15.11-7.57-25.49l-1.52-1.78l0,0l-0.58-0.7l-0.34-0.41l-0.66,5.06l0.24,0.28c7.83,9.17,8.3,9.71,6.68,22.58   c-0.73,5.8,0.49,6.99,4.82,7.53c0.67,0.08,1.48,0.14,2.41,0.21l0.09,0.01c16.19,1.21,28.95-4.76,40.43-10.13   c11.68-5.46,21.96-10.26,32.75-5.48l0,0c4.54,2.2,26.51,10.88,44.51,14.81c6.36,1.39,12.28,2.2,16.86,1.94   c5.22-0.29,8.87-1.98,9.9-5.69c0.27-0.96,0.34-2.03,0.19-3.2l-0.92-7.33c-0.75-6.01,3.85-11.1,8.09-15.78   C231.3,403.24,231.61,402.9,231.91,402.57z"/>
	<path fill-rule="evenodd" clip-rule="evenodd" fill="#FFFFFD" d="M237.35,444.75l-0.37-2.98c-4.98-0.12-9.7-0.32-14.44-0.63   c-7.24-0.49-14.49-1.26-22.8-2.47c-5.21-0.76-10.42-1.57-15.5-2.61c-5.09-1.04-10.13-2.31-15.06-4   c-14.93-5.12-25.74,3.66-37.49,13.2c-5.84,4.75-11.93,9.69-18.8,13.05c-9.06,4.44-13.44-0.43-18.32-5.85   c-6.17-6.85-13.02-14.47-29.15-8.94c-1.92,0.66-3.87,1.26-5.82,1.8l-0.4,3.19c2.42-0.64,4.82-1.36,7.18-2.17   c14.27-4.89,20.44,1.96,25.98,8.11c5.66,6.29,10.76,11.95,21.83,6.52c7.19-3.52,13.4-8.57,19.37-13.41   c11.08-9,21.28-17.28,34.66-12.69c5.02,1.72,10.19,3.02,15.43,4.09c5.25,1.07,10.48,1.88,15.67,2.64c8.37,1.22,15.7,2,23.03,2.5   C227.22,444.43,232.12,444.63,237.35,444.75z"/>
</g>
<g id="图层_x0020_1">
	<path fill="#F08300" d="M136.68,43.52c0.416,1.136,1.472,1.984,2.752,2.032c0.144,0,0.304,0,0.448-0.016h0.016   c0.016,0,0.064,0,0.128-0.016c0.032,0,0.048-0.016,0.08-0.016c0.064-0.016,0.144-0.032,0.224-0.048c0.016,0,0.016,0,0.032,0   c0.192-0.048,0.4-0.112,0.576-0.208c0.192-0.096,0.4-0.224,0.608-0.384c0.672-0.56,1.104-1.408,1.104-2.352   c0-0.224-0.032-0.448-0.08-0.672l0,0C142.52,41.64,142.47,41.47,142.39,41.29C141.92,40.2,140.84,39.44,139.57,39.44C137.88,39.44,136.5,40.81,136.5,42.51C136.5,42.86,136.56,43.2,136.68,43.52L136.68,43.52L136.68,43.52z M140.98,42.54L140.98,42.54C140.95,43.32,140.29,43.92,139.51,43.88C138.72,43.85,138.13,43.2,138.16,42.41c0.032-0.784,0.688-1.376,1.472-1.344   C140.4,41.1,141.01,41.77,140.98,42.54L140.98,42.54z"/>
	<polygon fill="#F08300" points="155.01,40.12 ,154.37,41.71 ,152.93,41.71 ,151.51,45.26 ,149.56,45.26 ,150.96,41.71 ,149.38,41.71    ,150.02,40.12"/>
	<path fill="#F08300" d="M156.98,35.39c-1.008-0.096-3.024-0.144-5.056,0.112c-2.416,0.304-5.152,0.912-7.616,1.664   C142.26,37.77,140.39,38.49,139.04,39.26C139.24,39.23,139.43,39.21,139.62,39.21c0.48,0,0.944,0.112,1.36,0.288   C145.08,37.18,152.28,35.13,156.98,35.39L156.98,35.39L156.98,35.39z"/>
	<path fill="#F08300" d="M142.45,40.86c4-2.368,8.88-4.672,13.488-5.248c-4.608,0.288-10.224,2-14.288,4.304   C141.97,40.17,142.24,40.49,142.45,40.86C142.45,40.86,142.45,40.86,142.45,40.86z"/>
	<polygon fill="#F08300" points="160.5,40.12 ,159.88,41.71 ,158.42,41.71 ,157.01,45.26 ,156.55,45.26 ,155.04,45.26 ,153.35,45.26    ,153.94,43.76 ,155.65,43.76 ,156.47,41.71 ,154.88,41.71 ,155.52,40.12"/>
	<polygon fill="#F08300" points="149.59,40.12 ,148.95,41.71 ,146.66,43.82 ,148.92,43.82 ,148.34,45.26 ,142.85,45.26 ,146.52,41.71    ,143.94,41.71 ,144.58,40.12"/>
	<path fill="#F08300" d="M154.87,35.98c-3.376,0.752-6.464,2.192-9.424,3.952h1.888C149.76,38.36,152.1,36.93,154.87,35.98z    M144.07,40.8C143.44,41.18,143.38,41.23,142.77,41.64c0.064,0.256,0.112,0.544,0.112,0.816c0,0.496-0.112,0.976-0.32,1.392   c0.176-0.16,0.32-0.304,0.432-0.4c0.272-0.24,0.768-0.64,1.6-1.296l0.32-0.256H143.59l0,0L144.07,40.8L144.07,40.8L144.07,40.8z"/>
</g>
</svg>