<?xml version="1.0" encoding="utf-8"?>
<!-- Generator: Adobe Illustrator 23.0.0, SVG Export Plug-In . SVG Version: 6.00 Build 0)  -->
<svg xmlns="http://www.w3.org/2000/svg" xmlns:xlink="http://www.w3.org/1999/xlink" version="1.1" id="图层_1" x="0px" y="0px" width="297.02px" height="537.6px" viewBox="0 0 297.02 537.6" enable-background="new 0 0 297.02 537.6" xml:space="preserve">
<g>
	
		<path fill-rule="evenodd" clip-rule="evenodd" fill="#162E53" stroke="#DCDDDD" stroke-width="0.1621" stroke-miterlimit="22.9256" d="   M265.63,147.23c0,0-13.43,38.68-13.43,97.96s1.97,144.18,44.56,271.26c0,0-24.02,10.29-50.82,13.85   c-9.3-142.68-51.34-284.11-10.46-427.79C242.8,119.38,253.39,134.59,265.63,147.23z"/>
	<g>
		<path fill-rule="evenodd" clip-rule="evenodd" fill="#81D8D0" d="M256.66,186.83c-0.19,1.2-0.37,2.42-0.55,3.66    c-0.47-0.01-0.83-0.02-0.92-0.02c-4.37,0.02-8.83-0.29-13.46-1.15c-5.38-1-12.22-3.27-19.29-5.94c-0.29-0.11-1.08-0.39-1.91-0.7    c0.11-1.15,0.24-2.31,0.36-3.46c0.98,0.34,1.97,0.69,2.38,0.84c6.78,2.53,13.3,4.67,18.47,5.63c4.87,0.91,9.56,1.2,14.15,1.14    H256.66z"/>
		<path fill-rule="evenodd" clip-rule="evenodd" fill="#ED3995" d="M255.29,196.4c-0.15,1.19-0.3,2.4-0.45,3.63    c-4.26,0.01-8.61-0.31-13.13-1.15c-5.38-1-12.22-3.27-19.29-5.94c-0.38-0.14-1.64-0.6-2.73-1c0.09-1.16,0.19-2.32,0.29-3.47    c1.19,0.42,2.73,0.95,3.26,1.15c6.78,2.53,13.3,4.67,18.47,5.63C246.39,196.12,250.89,196.43,255.29,196.4z"/>
		<path fill-rule="evenodd" clip-rule="evenodd" fill="#81D8D0" d="M254.2,205.85c-0.12,1.19-0.24,2.4-0.36,3.62    c-3.94-0.04-7.97-0.37-12.13-1.14c-5.38-1-12.22-3.27-19.29-5.94c-0.46-0.17-2.21-0.81-3.38-1.23c0.07-1.16,0.15-2.33,0.23-3.49    c1.18,0.42,3.32,1.17,3.98,1.41c6.78,2.53,13.3,4.67,18.47,5.63C246,205.5,250.15,205.82,254.2,205.85z"/>
		<path fill-rule="evenodd" clip-rule="evenodd" fill="#ED3995" d="M253.35,215.39c-0.09,1.2-0.18,2.4-0.26,3.62    c-3.7-0.07-7.47-0.41-11.36-1.13c-5.38-1-12.22-3.27-19.29-5.94c-0.53-0.2-2.8-1.02-3.89-1.42c0.05-1.17,0.12-2.34,0.18-3.51    c0.84,0.32,3.76,1.32,4.54,1.61c6.78,2.53,13.3,4.67,18.47,5.63C245.7,214.99,249.56,215.32,253.35,215.39z"/>
	</g>
	<path fill-rule="evenodd" clip-rule="evenodd" fill="#81D8D0" d="M284.11,475.92c3.76,13.01,7.96,26.51,12.66,40.52   c0,0-24.02,10.29-50.82,13.85c-0.98-15.02-2.32-30.02-3.89-45.02c2.64-0.42,5.43-0.86,5.75-0.91   C265.73,481.28,277.2,478.18,284.11,475.92z"/>
	<path fill-rule="evenodd" clip-rule="evenodd" fill="#ED3995" d="M265.63,147.23c0,0-2.98,8.59-6.13,23.86   c-5.75,0.3-11.61,0.13-17.78-1.02c-5.32-0.99-12.06-3.22-19.05-5.85c2.79-20.53,6.94-41.1,12.81-61.72   C242.8,119.38,253.39,134.59,265.63,147.23z"/>
	
		<path fill-rule="evenodd" clip-rule="evenodd" fill="#162E53" stroke="#DCDDDD" stroke-width="0.1621" stroke-miterlimit="22.9256" d="   M31.38,147.24c0,0,13.43,38.68,13.43,97.96S42.84,389.38,0.25,516.46c0,0,24.02,10.29,50.82,13.85   c9.3-142.68,51.34-284.11,10.46-427.79C54.22,119.39,43.62,134.61,31.38,147.24z"/>
	<path fill-rule="evenodd" clip-rule="evenodd" fill="#81D8D0" d="M12.91,475.93c-3.76,13.01-7.96,26.51-12.66,40.52   c0,0,24.02,10.29,50.82,13.85c0.98-15.02,2.32-30.02,3.89-45.02c-2.64-0.42-5.43-0.86-5.75-0.91   C31.28,481.3,19.81,478.2,12.91,475.93z"/>
	<path fill-rule="evenodd" clip-rule="evenodd" fill="#81D8D0" d="M40.36,186.85c0.19,1.2,0.37,2.42,0.55,3.66   c0.47-0.01,0.83-0.02,0.92-0.02c4.37,0.02,8.83-0.29,13.46-1.15c5.38-1,12.22-3.27,19.29-5.94c0.29-0.11,1.08-0.39,1.91-0.7   c-0.11-1.15-0.24-2.31-0.36-3.46c-0.98,0.34-1.97,0.69-2.38,0.84c-6.78,2.53-13.3,4.67-18.47,5.63c-4.87,0.91-9.56,1.2-14.15,1.14   H40.36z"/>
	<path fill-rule="evenodd" clip-rule="evenodd" fill="#ED3995" d="M41.72,196.41c0.15,1.19,0.3,2.4,0.45,3.63   c4.26,0.01,8.61-0.31,13.13-1.15c5.38-1,12.22-3.27,19.29-5.94c0.38-0.14,1.64-0.6,2.73-1c-0.09-1.16-0.19-2.32-0.29-3.47   c-1.19,0.42-2.73,0.95-3.26,1.15c-6.78,2.53-13.3,4.67-18.47,5.63C50.62,196.13,46.13,196.44,41.72,196.41z"/>
	<path fill-rule="evenodd" clip-rule="evenodd" fill="#81D8D0" d="M42.81,205.86c0.12,1.19,0.24,2.4,0.36,3.62   c3.94-0.04,7.97-0.37,12.13-1.14c5.38-1,12.22-3.27,19.29-5.94c0.46-0.17,2.21-0.81,3.38-1.23c-0.07-1.16-0.15-2.33-0.23-3.49   c-1.18,0.42-3.32,1.17-3.98,1.41c-6.78,2.53-13.3,4.67-18.47,5.63C51.01,205.51,46.87,205.84,42.81,205.86z"/>
	<path fill-rule="evenodd" clip-rule="evenodd" fill="#ED3995" d="M43.67,215.4c0.09,1.2,0.18,2.4,0.26,3.62   c3.7-0.07,7.47-0.41,11.36-1.13c5.38-1,12.22-3.27,19.29-5.94c0.53-0.2,2.79-1.02,3.89-1.42c-0.05-1.17-0.12-2.34-0.18-3.51   c-0.84,0.32-3.76,1.32-4.54,1.61c-6.78,2.53-13.3,4.67-18.47,5.63C51.31,215.01,47.45,215.34,43.67,215.4z"/>
	<path fill-rule="evenodd" clip-rule="evenodd" fill="#ED3995" d="M31.38,147.24c0,0,2.98,8.59,6.13,23.86   c5.75,0.3,11.61,0.13,17.78-1.02c5.32-0.99,12.06-3.22,19.05-5.85c-2.79-20.53-6.94-41.1-12.81-61.72   C54.22,119.39,43.62,134.61,31.38,147.24z"/>
	<path fill-rule="evenodd" clip-rule="evenodd" fill="#DCDDDD" d="M90.32,8.47c6.35,19.73,25.2,68.13,58.18,71.59   c32.98-3.46,51.83-51.87,58.18-71.59c-9.72,3.99-31.2,11.39-58.18,11.98C121.52,19.86,100.04,12.47,90.32,8.47z"/>
	
	
		<path fill-rule="evenodd" clip-rule="evenodd" fill="#162E53" stroke="#DCDDDD" stroke-width="0.1621" stroke-miterlimit="22.9256" d="   M148.53,537.39c0,0,10.9,0.28,34.98-3.45c0,0,12.74-2.03,19.79-2.38c7.05-0.34,26.09,1.74,42.67-1.25   c-9.3-142.7-51.34-284.14-10.46-427.84c-11.93-27.52-15.15-59.45-2.56-91.77l-17.74-8.08c-7.69,31.39-30.1,80.3-66.52,84.01   l-0.15-0.01l-0.15,0.01c-36.43-3.7-58.84-52.61-66.53-84l-17.74,8.08c12.59,32.31,9.37,64.24-2.56,91.77   c40.88,143.69-1.16,285.14-10.46,427.83c16.57,3,35.62,0.91,42.67,1.25c7.05,0.34,19.79,2.38,19.79,2.38   C137.63,537.66,148.53,537.39,148.53,537.39z"/>
	<path fill-rule="evenodd" clip-rule="evenodd" fill="#ED3996" d="M168.69,535.96c4.23-0.49,9.17-1.14,14.83-2.02l0.88-0.14   c20.75-11.21,43.15-23.77,59-35.33c-0.09-0.94-0.18-1.89-0.27-2.83C221.36,511.56,193.17,525.94,168.69,535.96L168.69,535.96z    M235.03,531.62c3.59-2.28,7.11-4.64,10.54-7.1c0.11,1.6,0.22,3.21,0.33,4.81c-0.63,0.44-1.26,0.88-1.9,1.31   C241.05,531.1,238.03,531.42,235.03,531.62L235.03,531.62z M240.31,469.17c-29.73,30.02-77.92,49.22-120.86,65.64   c-1.87-0.26-3.84-0.55-5.9-0.87c0,0-2.51-0.4-5.91-0.87c72.8-28.74,109-48.42,132.23-67.73   C240.02,466.61,240.17,467.89,240.31,469.17L240.31,469.17z M234.03,418.56c-43.15,38.15-139.01,82.93-182.25,102.11   c0.65-8.64,1.41-17.28,2.25-25.91c58.76-27.34,132.27-62.97,176.98-99.4l0.21,1.64c-32.74,30.79-73.73,58.99-96.53,72.2   c31.72-11.44,77.42-42.52,77.42-42.52c-38.47,32.4-87.4,51.2-87.4,51.2c53.66-19.8,90.37-45.84,109.07-61.2L234.03,418.56   L234.03,418.56z M230.04,387.86l-0.5-3.89c-21.98,19.99-59.79,48.55-116.61,73.12c0,0-29.96,13.63-57.75,26.33   c-0.13,1.21-0.25,2.41-0.38,3.62c32.41-14.75,63.88-30,96.52-45.44C174.93,430.43,206.34,411.02,230.04,387.86L230.04,387.86z    M62.04,426.3c-0.62,4.76-1.22,9.52-1.83,14.29c25.59-9.63,82.56-32.36,102.41-50.87c0,0-40.1,20.99-74.96,32.17   c0,0,106.71-49.44,134.58-80.29c0,0-48.48,36.58-144.17,77.48C73.46,421.05,67.95,423.52,62.04,426.3L62.04,426.3z M60.06,441.75   c-0.27,2.11-0.53,4.22-0.79,6.33c61.39-21.32,136.4-56.16,164.17-87.3C185.74,391.21,109.33,426.84,60.06,441.75z"/>
	<path fill-rule="evenodd" clip-rule="evenodd" fill="#ED3996" d="M220.29,185.39c0.21-2.32,0.44-4.64,0.69-6.95   c-25.28,13.84-88.96,50.1-108.57,74.63C112.41,253.07,148.67,222.15,220.29,185.39L220.29,185.39z M221.15,176.8   c-27.91,11.54-55.99,28.15-55.99,28.15c11.01-11.61,34.95-24.88,56.85-35.54C221.71,171.88,221.42,174.34,221.15,176.8   L221.15,176.8z M222.42,166.31c-39.63,17.76-85.45,44.2-111.08,67.57c19.69-24.94,66.19-52.26,111.84-73.11   C222.92,162.62,222.67,164.46,222.42,166.31L222.42,166.31z M229.28,127.21c-11.74,6.05-20.15,10.37-20.15,10.37   c-88.04,43.03-124.5,98.31-124.5,98.31c18.68-35.54,61.35-67.22,90.53-82.82c18.57-9.93,36.72-19.78,54.93-29.47   C229.81,124.8,229.55,126.01,229.28,127.21L229.28,127.21z M232.04,115.48c-58.89,31.96-124.66,71.73-151.12,110.38   c29.2-40.64,82.71-83.2,108.96-100.4c-28.06,11.44-68.5,42.52-68.5,42.52c34.04-32.4,77.33-51.2,77.33-51.2   c-71.75,29.93-109.26,74.11-109.26,74.11c21.85-32.44,92.13-73.83,141.59-100.23c1.05,3.22,2.22,6.39,3.51,9.51l0.98,2.31   c-0.05,0.18-1.07,3.89-1.12,4.07C233.58,109.52,232.78,112.5,232.04,115.48L232.04,115.48z M224.97,56.67   c-0.07-2.05-0.08-4.11-0.03-6.18c-13.82,6.11-28.97,12.4-44.2,19.36c-9.07,9.13-19.76,15.53-32.05,16.78l-0.15-0.01l-0.15,0.01   c-0.33-0.03-0.66-0.08-0.99-0.12c-26.44,14.76-50.16,32.82-63.86,56.97C104.61,117.96,136.45,95.38,224.97,56.67L224.97,56.67z    M124.24,76.75c-0.58-0.43-1.16-0.87-1.73-1.33c-17.56,10.73-41.63,27.47-46.79,41.29C75.73,116.72,87.72,98.35,124.24,76.75   L124.24,76.75z M107.02,58.96c-0.76-1.04-1.51-2.1-2.24-3.18C88.1,66.74,73.15,79.65,65.32,95.6   C77.62,81.58,91.54,69.21,107.02,58.96L107.02,58.96z M102.28,51.81c-5.24,4.23-10.35,8.6-15.21,13.09   c5.88-6.64,10.11-11.31,13.94-15.16C101.43,50.43,101.85,51.12,102.28,51.81z"/>
	
		<linearGradient id="SVGID_1_" gradientUnits="userSpaceOnUse" x1="143.278" y1="62.6875" x2="252.0354" y2="130.6466" gradientTransform="matrix(1 0 0 -1 0 536.7897)">
		<stop offset="0" style="stop-color:#E6328C"/>
		<stop offset="1" style="stop-color:#0F233F"/>
	</linearGradient>
	<path fill-rule="evenodd" clip-rule="evenodd" fill="url(#SVGID_1_)" d="M62.95,418.86c10.16-5.47,19.36-10.08,24.84-11.97   c25.44-8.79,102.27-47.48,119.94-64.9c-25.74,18.35-89.87,51.72-120.61,61.19c-2.9,0.89-10.67,3.55-23.43,10.1L62.95,418.86   L62.95,418.86z M55.86,477.12l1.88-14.3c0.08-0.03,0.17-0.07,0.25-0.1c68.14-26.18,120.32-47.91,170.56-86.81l0.47,4.04   C184.23,418.17,111.1,452.45,55.86,477.12L55.86,477.12z M57.69,461.04l0.93-7.32c13.75-7.26,26.68-13.39,32.77-15.52   c16.06-5.62,100.38-47.52,136.17-70.03l0.29,2.53C190.02,399.5,103.76,438.89,57.69,461.04L57.69,461.04z M227.57,531.99   c6.62-4.53,12.03-8.83,17.51-14.61l-0.63-5.38c-0.07,0.07-0.14,0.15-0.21,0.22c-7.57,7.91-14.81,13.96-23.39,19.73h6.72   L227.57,531.99L227.57,531.99z M213.91,531.77l-4.89-0.15c10.14-6.19,21.15-14.17,35.05-26.56l0.06,0.53   c-12.18,12.61-20.19,19.62-28.95,25.35c-0.33,0.22-0.67,0.43-1,0.65L213.91,531.77L213.91,531.77z M202.59,531.57h-0.28l-5.75,0.62   c19.14-9.31,37.15-19.26,47.09-31.21l0.07,0.62C236.35,511.95,220.21,522.02,202.59,531.57L202.59,531.57z M161.3,536.76   l-6.96,0.47c6.7-3.01,13.04-5.86,13.49-6.05c48.65-19.76,69.2-39.14,74.38-44.64l0.09,0.75c-11.9,18.76-60.23,40.4-72.55,45.73   C169.11,533.3,165.84,534.75,161.3,536.76L161.3,536.76z M148.31,537.36l-9.39-0.36c24.07-9.06,63.56-28.29,84.51-39.43   C190.14,519.25,162.53,531.65,148.31,537.36L148.31,537.36z M51.69,521.15l-0.65,9.4l14.09,1.28c6.74,0.61,15.53,0.13,22.38-0.21   c33.16-12.31,106.97-43.05,151.51-73.12l-0.5-4.24c-7.49,4.75-16.04,9.45-26.19,13.98c0,0,11.36-6.84,25.41-19.89l-0.62-5.33   c-47.09,34.44-135.87,77.3-170.39,85.56c36-17.46,138.7-62.38,165.03-87.61c0,0-62.65,38.49-96.7,48.11   c0,0,62.96-31.7,100.23-60.28l-0.5-4.29C186.61,459.36,103.78,500.9,51.69,521.15z"/>
	
		<linearGradient id="SVGID_2_" gradientUnits="userSpaceOnUse" x1="205.0043" y1="436.1091" x2="105.1482" y2="366.1891" gradientTransform="matrix(1 0 0 -1 0 536.7897)">
		<stop offset="0" style="stop-color:#E6328C"/>
		<stop offset="1" style="stop-color:#0F233F"/>
	</linearGradient>
	<path fill-rule="evenodd" clip-rule="evenodd" fill="url(#SVGID_2_)" d="M219.64,193.02c-28.61,13.85-80.91,44.64-94.39,59.66   c19.7-15.87,64.74-42.94,94.16-56.11C219.49,195.43,219.55,194.25,219.64,193.02L219.64,193.02z M227.85,133.95l-2.36,12.28   c-54.43,24.94-98.46,50.1-140.96,93.57C111.13,200.65,173.56,162.78,227.85,133.95L227.85,133.95z M224.61,151.62   c-0.3,1.92-0.66,4.28-1.05,6.92c-25.9,12.37-117.26,64.82-129.46,78.96C110.04,214.96,174.95,178.51,224.61,151.62L224.61,151.62z    M110.22,63.01C91,73.21,73.49,85.54,61.69,103.48c0.39,1.28,0.88,2.93,1.14,4.08c14.28-18.8,29.89-32.19,49.74-41.74   C111.75,64.88,110.97,63.94,110.22,63.01L110.22,63.01z M115.49,68.75c0.46,0.48,0.94,0.95,1.42,1.42   C103.49,77,87.76,87.61,65.46,110.73C87.31,84.63,96.35,78.08,115.49,68.75L115.49,68.75z M119.01,72.4   c0.69,0.62,1.39,1.22,2.11,1.82c-21.6,11.47-43.87,24.3-53.44,39.73C74.04,99.72,97.27,84.99,119.01,72.4L119.01,72.4z    M130.51,80.91c0.83,0.45,1.68,0.89,2.55,1.3c-47.84,22.68-63.17,44.52-63.17,44.52C77.17,109.48,114.63,88.99,130.51,80.91   L130.51,80.91z M135.78,83.41c1.48,0.61,3.02,1.16,4.6,1.65c-18.77,9.47-39.41,21.04-52.42,28.85   C106.64,100.15,122.88,90.35,135.78,83.41L135.78,83.41z M230.53,89.2c-1.05-3.4-2.1-7.23-2.97-11.17   c-40.18,21.17-104.48,54.98-123.57,75.66c0,0,55.43-38.49,85.55-48.11c0,0-97.96,55.91-111.09,85.91   C105.24,160.93,175.34,117.36,230.53,89.2L230.53,89.2z M226.94,74.71c-0.58-3.08-1.02-6.17-1.34-9.07   c-40.69,17.69-126.81,59.88-152.1,93.19l0.4,2.76c7.87-8.65,23.25-23.03,47.27-35.16c0,0-25.44,17.41-44.58,48.1   C96.38,145.52,178.74,95.84,226.94,74.71z"/>
	
		<path fill-rule="evenodd" clip-rule="evenodd" fill="#ED3997" stroke="#DCDDDD" stroke-width="0.2248" stroke-miterlimit="22.9256" d="   M232.91,10.69c-20.31,52.13,0.51,103.25,32.71,136.52l3.12-8.7C214.23,76.97,241,17.53,242.25,15.02L232.91,10.69z"/>
	
		<path fill-rule="evenodd" clip-rule="evenodd" fill="#ED3997" stroke="#DCDDDD" stroke-width="0.2248" stroke-miterlimit="22.9256" d="   M81.83,2.62c7.69,31.39,30.1,80.3,66.52,84.01c0.05,0,0.1-0.01,0.15-0.01s0.1,0.01,0.15,0.01c36.42-3.71,58.83-52.62,66.52-84.01   l-6.05-2.41c-17.68,9.28-39.1,13.6-60.62,13.6c-21.52-0.01-42.94-4.32-60.62-13.6L81.83,2.62L81.83,2.62L81.83,2.62L81.83,2.62z    M148.5,80.06C115.52,76.6,96.67,28.19,90.32,8.47c9.72,3.99,31.2,11.39,58.18,11.98c26.98-0.59,48.46-7.98,58.18-11.98   C200.33,28.2,181.48,76.6,148.5,80.06z"/>
	
		<path fill-rule="evenodd" clip-rule="evenodd" fill="#ED3997" stroke="#DCDDDD" stroke-width="0.2248" stroke-miterlimit="22.9256" d="   M64.09,10.69c20.31,52.13-0.51,103.25-32.71,136.52l-3.12-8.7C82.76,76.97,55.99,17.53,54.74,15.02L64.09,10.69z"/>
</g>
<g id="图层_x0020_1">
	<path fill="#F08300" d="M136.68,43.52c0.416,1.136,1.472,1.984,2.752,2.032c0.144,0,0.304,0,0.448-0.016h0.016   c0.016,0,0.064,0,0.128-0.016c0.032,0,0.048-0.016,0.08-0.016c0.064-0.016,0.144-0.032,0.224-0.048c0.016,0,0.016,0,0.032,0   c0.192-0.048,0.4-0.112,0.576-0.208c0.192-0.096,0.4-0.224,0.608-0.384c0.672-0.56,1.104-1.408,1.104-2.352   c0-0.224-0.032-0.448-0.08-0.672l0,0C142.52,41.64,142.47,41.47,142.39,41.29C141.92,40.2,140.84,39.44,139.57,39.44C137.88,39.44,136.5,40.81,136.5,42.51C136.5,42.86,136.56,43.2,136.68,43.52L136.68,43.52L136.68,43.52z M140.98,42.54L140.98,42.54C140.95,43.32,140.29,43.92,139.51,43.88C138.72,43.85,138.13,43.2,138.16,42.41c0.032-0.784,0.688-1.376,1.472-1.344   C140.4,41.1,141.01,41.77,140.98,42.54L140.98,42.54z"/>
	<polygon fill="#F08300" points="155.01,40.12 ,154.37,41.71 ,152.93,41.71 ,151.51,45.26 ,149.56,45.26 ,150.96,41.71 ,149.38,41.71    ,150.02,40.12"/>
	<path fill="#F08300" d="M156.98,35.39c-1.008-0.096-3.024-0.144-5.056,0.112c-2.416,0.304-5.152,0.912-7.616,1.664   C142.26,37.77,140.39,38.49,139.04,39.26C139.24,39.23,139.43,39.21,139.62,39.21c0.48,0,0.944,0.112,1.36,0.288   C145.08,37.18,152.28,35.13,156.98,35.39L156.98,35.39L156.98,35.39z"/>
	<path fill="#F08300" d="M142.45,40.86c4-2.368,8.88-4.672,13.488-5.248c-4.608,0.288-10.224,2-14.288,4.304   C141.97,40.17,142.24,40.49,142.45,40.86C142.45,40.86,142.45,40.86,142.45,40.86z"/>
	<polygon fill="#F08300" points="160.5,40.12 ,159.88,41.71 ,158.42,41.71 ,157.01,45.26 ,156.55,45.26 ,155.04,45.26 ,153.35,45.26    ,153.94,43.76 ,155.65,43.76 ,156.47,41.71 ,154.88,41.71 ,155.52,40.12"/>
	<polygon fill="#F08300" points="149.59,40.12 ,148.95,41.71 ,146.66,43.82 ,148.92,43.82 ,148.34,45.26 ,142.85,45.26 ,146.52,41.71    ,143.94,41.71 ,144.58,40.12"/>
	<path fill="#F08300" d="M154.87,35.98c-3.376,0.752-6.464,2.192-9.424,3.952h1.888C149.76,38.36,152.1,36.93,154.87,35.98z    M144.07,40.8C143.44,41.18,143.38,41.23,142.77,41.64c0.064,0.256,0.112,0.544,0.112,0.816c0,0.496-0.112,0.976-0.32,1.392   c0.176-0.16,0.32-0.304,0.432-0.4c0.272-0.24,0.768-0.64,1.6-1.296l0.32-0.256H143.59l0,0L144.07,40.8L144.07,40.8L144.07,40.8z"/>
</g>
</svg>