<?xml version="1.0" encoding="utf-8"?>
<!-- Generator: Adobe Illustrator 23.0.0, SVG Export Plug-In . SVG Version: 6.00 Build 0)  -->
<svg xmlns="http://www.w3.org/2000/svg" xmlns:xlink="http://www.w3.org/1999/xlink" version="1.1" id="图层_1" x="0px" y="0px" width="337.5px" height="480px" viewBox="0 0 337.5 480" enable-background="new 0 0 337.5 480" xml:space="preserve">
<g>
	<path fill-rule="evenodd" clip-rule="evenodd" fill="#DCDDDD" d="M168.76,120.47c30.03-20.2,47.25-75.27,53.02-111.32   c-4.94,2.09-11.05,3-14.98,3.59c-12.43,1.87-25.56,2.43-38.12,2.43s-25.69-0.56-38.12-2.43c-3.89-0.58-9.9-1.48-14.82-3.52   C121.53,45.27,138.75,100.28,168.76,120.47z"/>
	
		<path fill-rule="evenodd" clip-rule="evenodd" fill="#000002" stroke="#DCDDDD" stroke-width="0.2999" stroke-miterlimit="22.9256" d="   M293.28,171.29c11.01,6.57,25.3,9.7,43.74,7.76c0,0,0.51,13.04-0.1,32.99c-1.68,54.76-18.49,117.64-1.58,238.8   c1.46,10.44,0.94,7.14,1.66,13.12c-3.35,1.76-18.03,7.82-45.74,11.32C282.1,374.97,277.73,273.95,293.28,171.29z"/>
	
		<path fill-rule="evenodd" clip-rule="evenodd" fill="#000001" stroke="#DCDDDD" stroke-width="0.2999" stroke-miterlimit="22.9256" d="   M229.32,2.69L229.18,3c-3.1,6.88-15.8,8.75-22.38,9.74c-12.43,1.87-25.56,2.43-38.12,2.43s-25.69-0.56-38.12-2.43   c-6.58-0.99-19.28-2.86-22.38-9.74l-0.12-0.26c1.26-0.51,1.83-0.74,6.41-2.58c4.3,3.62,25.53,8.1,54.21,8.1s50.49-3.51,54.21-8.1   l0.16,0.01C227.68,2.03,225.98,1.34,229.32,2.69z"/>
	
		<path fill-rule="evenodd" clip-rule="evenodd" fill="#00653D" stroke="#DCDDDD" stroke-width="0.2999" stroke-miterlimit="22.9256" d="   M168.76,126.07c-0.68,0.84-1.08,1.32-1.09,1.32c1.48-1.08-22.18-12.45-40.22-65.77c-2.58-7.62-5.6-16.09-7.86-25.51   c-2.53-10.53-4.24-22.23-6.13-35.26L72.17,16.16c0,0,28.37,122.19-27.94,155.09c15.52,102.57,11.16,203.49,2.02,303.7   c26.07,3.33,74.3,5.05,122.51,4.86c48.21,0.19,96.44-1.53,122.51-4.86c-9.15-100.2-13.51-201.13,2.01-303.7   c-56.31-32.91-27.94-155.09-27.94-155.09L224.06,0.84c-1.89,13.03-3.6,24.73-6.13,35.26c-2.26,9.42-5.28,17.89-7.86,25.51   c-18.04,53.32-41.71,64.69-40.22,65.77C169.84,127.39,169.44,126.91,168.76,126.07z"/>
	<g>
		<g>
			<path fill-rule="evenodd" clip-rule="evenodd" fill="#FFFFF4" d="M94.05,26.53c14.71,0,26.63,11.92,26.63,26.63     s-11.92,26.63-26.63,26.63c-5.48,0-10.58-1.66-14.82-4.5c-0.39-15.85-2.12-30.46-3.77-41.2C80.27,29.41,86.82,26.53,94.05,26.53z     "/>
			<path fill-rule="evenodd" clip-rule="evenodd" d="M94.05,29.14c13.27,0,24.02,10.75,24.02,24.02s-10.75,24.02-24.02,24.02     c-5.64,0-10.82-1.94-14.92-5.19c-0.47-13.03-1.8-25.08-3.18-34.62C80.36,32.32,86.83,29.14,94.05,29.14z"/>
			<ellipse fill-rule="evenodd" clip-rule="evenodd" fill="#FFFFF4" cx="94.05" cy="53.16" rx="15.23" ry="15.23"/>
			<ellipse fill-rule="evenodd" clip-rule="evenodd" fill="#FFF500" cx="94.05" cy="53.16" rx="12.58" ry="12.58"/>
		</g>
		<g>
			<path fill-rule="evenodd" clip-rule="evenodd" fill="#FFFFFF" d="M100.17,102.82c0.54-0.32,1.24-0.15,1.56,0.39     s0.15,1.24-0.39,1.56s-1.24,0.15-1.56-0.39S99.64,103.14,100.17,102.82L100.17,102.82z M97.27,93.82c0.21,0.35,0.1,0.8-0.25,1.01     s-0.8,0.1-1.01-0.25s-0.1-0.8,0.25-1.01C96.61,93.36,97.06,93.47,97.27,93.82L97.27,93.82z M95.03,94.13     c0.25,0.42,0.12,0.97-0.3,1.23c-0.42,0.25-0.97,0.12-1.23-0.3c-0.25-0.42-0.12-0.97,0.3-1.23     C94.23,93.58,94.78,93.71,95.03,94.13L95.03,94.13z M92.62,94.49c0.29,0.49,0.14,1.12-0.35,1.41s-1.12,0.14-1.41-0.35     s-0.14-1.12,0.35-1.41C91.69,93.85,92.32,94.01,92.62,94.49L92.62,94.49z M90.03,94.89c0.32,0.54,0.15,1.24-0.39,1.56     s-1.24,0.15-1.56-0.39s-0.15-1.24,0.39-1.56C89.01,94.17,89.71,94.35,90.03,94.89L90.03,94.89z M100.87,93.75     c-0.21-0.35-0.1-0.8,0.25-1.01s0.8-0.1,1.01,0.25s0.1,0.8-0.25,1.01S101.08,94.1,100.87,93.75L100.87,93.75z M103.11,93.43     c-0.25-0.42-0.12-0.97,0.3-1.23c0.42-0.25,0.97-0.12,1.23,0.3c0.25,0.42,0.12,0.97-0.3,1.23     C103.91,93.99,103.36,93.85,103.11,93.43L103.11,93.43z M105.52,93.07c-0.29-0.49-0.14-1.12,0.35-1.41s1.12-0.14,1.41,0.35     s0.14,1.12-0.35,1.41C106.45,93.72,105.81,93.56,105.52,93.07L105.52,93.07z M108.1,92.68c-0.32-0.54-0.15-1.24,0.39-1.56     s1.24-0.15,1.56,0.39s0.15,1.24-0.39,1.56C109.13,93.39,108.43,93.22,108.1,92.68L108.1,92.68z M99.04,91.99     c-0.35,0.21-0.8,0.1-1.01-0.25s-0.1-0.8,0.25-1.01s0.8-0.1,1.01,0.25C99.5,91.32,99.39,91.78,99.04,91.99L99.04,91.99z      M98.72,89.75c-0.42,0.25-0.97,0.12-1.23-0.3c-0.25-0.42-0.12-0.97,0.3-1.23c0.42-0.25,0.97-0.12,1.23,0.3     C99.28,88.94,99.14,89.49,98.72,89.75L98.72,89.75z M98.36,87.33c-0.49,0.29-1.12,0.14-1.41-0.35s-0.14-1.12,0.35-1.41     s1.12-0.14,1.41,0.35C99.01,86.4,98.85,87.04,98.36,87.33L98.36,87.33z M97.97,84.75c-0.54,0.32-1.24,0.15-1.56-0.39     s-0.15-1.24,0.39-1.56s1.24-0.15,1.56,0.39C98.68,83.72,98.51,84.42,97.97,84.75L97.97,84.75z M98.75,93.24     c0.3-0.18,0.68-0.08,0.86,0.21c0.18,0.3,0.08,0.68-0.21,0.86c-0.3,0.18-0.68,0.08-0.86-0.21C98.35,93.81,98.45,93.42,98.75,93.24     L98.75,93.24z M99.1,95.58c0.35-0.21,0.8-0.1,1.01,0.25s0.1,0.8-0.25,1.01s-0.8,0.1-1.01-0.25S98.76,95.79,99.1,95.58L99.1,95.58     z M99.42,97.82c0.42-0.25,0.97-0.12,1.23,0.3c0.25,0.42,0.12,0.97-0.3,1.23s-0.97,0.12-1.23-0.3     C98.87,98.62,99,98.07,99.42,97.82L99.42,97.82z M99.78,100.23c0.49-0.29,1.12-0.14,1.41,0.35s0.14,1.12-0.35,1.41     s-1.12,0.14-1.41-0.35C99.14,101.16,99.3,100.53,99.78,100.23z"/>
			<path fill-rule="evenodd" clip-rule="evenodd" fill="#FFFFFF" d="M115.8,128.73c0.57-0.27,1.25-0.04,1.52,0.53     s0.04,1.25-0.53,1.52s-1.25,0.04-1.52-0.53S115.23,129,115.8,128.73L115.8,128.73z M113.73,119.5c0.18,0.37,0.02,0.81-0.34,0.98     c-0.37,0.18-0.81,0.02-0.98-0.34c-0.18-0.37-0.02-0.81,0.34-0.98C113.12,118.98,113.56,119.13,113.73,119.5L113.73,119.5z      M111.47,119.61c0.22,0.44,0.03,0.98-0.42,1.19c-0.44,0.21-0.98,0.03-1.19-0.42c-0.21-0.44-0.03-0.98,0.42-1.19     C110.73,118.98,111.26,119.17,111.47,119.61L111.47,119.61z M109.04,119.75c0.25,0.51,0.03,1.13-0.48,1.37     c-0.51,0.25-1.13,0.03-1.37-0.48c-0.25-0.51-0.03-1.13,0.48-1.37C108.17,119.02,108.79,119.23,109.04,119.75L109.04,119.75z      M106.43,119.9c0.27,0.57,0.04,1.25-0.53,1.52s-1.25,0.04-1.52-0.53s-0.04-1.25,0.53-1.52     C105.48,119.1,106.16,119.33,106.43,119.9L106.43,119.9z M117.32,119.77c-0.18-0.37-0.02-0.81,0.34-0.98     c0.37-0.18,0.81-0.02,0.98,0.34c0.18,0.37,0.02,0.81-0.34,0.98C117.94,120.29,117.5,120.13,117.32,119.77L117.32,119.77z      M119.58,119.65c-0.22-0.44-0.03-0.98,0.42-1.19c0.44-0.21,0.98-0.03,1.19,0.42c0.21,0.44,0.03,0.98-0.42,1.19     C120.33,120.28,119.79,120.1,119.58,119.65L119.58,119.65z M122.02,119.52c-0.25-0.51-0.03-1.13,0.48-1.37     c0.51-0.25,1.13-0.03,1.37,0.48c0.25,0.51,0.03,1.13-0.48,1.37C122.88,120.25,122.26,120.03,122.02,119.52L122.02,119.52z      M124.62,119.37c-0.27-0.57-0.04-1.25,0.53-1.52s1.25-0.04,1.52,0.53s0.04,1.25-0.53,1.52     C125.58,120.17,124.9,119.93,124.62,119.37L124.62,119.37z M115.66,117.84c-0.37,0.18-0.81,0.02-0.98-0.34     c-0.18-0.37-0.02-0.81,0.34-0.98c0.37-0.18,0.81-0.02,0.98,0.34C116.18,117.22,116.03,117.66,115.66,117.84L115.66,117.84z      M115.55,115.58c-0.44,0.21-0.98,0.03-1.19-0.42c-0.21-0.44-0.03-0.98,0.42-1.19c0.44-0.21,0.98-0.03,1.19,0.42     C116.18,114.83,116,115.37,115.55,115.58L115.55,115.58z M115.42,113.14c-0.51,0.25-1.13,0.03-1.37-0.48     c-0.25-0.51-0.03-1.13,0.48-1.37c0.51-0.25,1.13-0.03,1.37,0.48C116.14,112.28,115.93,112.89,115.42,113.14L115.42,113.14z      M115.27,110.53c-0.57,0.27-1.25,0.04-1.52-0.53s-0.04-1.25,0.53-1.52s1.25-0.04,1.52,0.53     C116.07,109.58,115.83,110.26,115.27,110.53L115.27,110.53z M115.26,119.07c0.31-0.15,0.69-0.02,0.84,0.29     c0.15,0.31,0.02,0.69-0.29,0.84c-0.31,0.15-0.69,0.02-0.84-0.29C114.81,119.59,114.94,119.22,115.26,119.07L115.26,119.07z      M115.4,121.43c0.37-0.18,0.81-0.02,0.98,0.34c0.18,0.37,0.02,0.81-0.34,0.98c-0.37,0.18-0.81,0.02-0.98-0.34     C114.88,122.04,115.03,121.6,115.4,121.43L115.4,121.43z M115.51,123.68c0.44-0.21,0.98-0.03,1.19,0.42     c0.21,0.44,0.03,0.98-0.42,1.19c-0.44,0.22-0.98,0.03-1.19-0.42C114.88,124.43,115.06,123.9,115.51,123.68L115.51,123.68z      M115.64,126.12c0.51-0.25,1.13-0.03,1.37,0.48c0.25,0.51,0.03,1.13-0.48,1.37c-0.51,0.25-1.13,0.03-1.37-0.48     C114.92,126.98,115.13,126.37,115.64,126.12z"/>
			<path fill-rule="evenodd" clip-rule="evenodd" fill="#FFFFFF" d="M127.56,98.35c0.25-0.43,0.8-0.57,1.23-0.32s0.57,0.8,0.32,1.23     s-0.8,0.57-1.23,0.32C127.45,99.33,127.31,98.78,127.56,98.35L127.56,98.35z M122.14,93.21c0.28,0.16,0.37,0.52,0.21,0.8     c-0.16,0.28-0.52,0.37-0.79,0.21c-0.28-0.16-0.37-0.52-0.21-0.8C121.51,93.14,121.86,93.05,122.14,93.21L122.14,93.21z      M120.71,94.28c0.34,0.2,0.45,0.63,0.25,0.96c-0.2,0.34-0.63,0.45-0.96,0.25c-0.34-0.2-0.45-0.63-0.25-0.96     C119.94,94.19,120.37,94.08,120.71,94.28L120.71,94.28z M119.17,95.44c-0.39-0.23-0.89-0.1-1.11,0.29     c-0.23,0.39-0.1,0.89,0.29,1.11c0.39,0.23,0.89,0.1,1.11-0.29C119.69,96.16,119.56,95.67,119.17,95.44L119.17,95.44z      M117.53,96.69c0.43,0.25,0.57,0.8,0.32,1.23s-0.8,0.57-1.23,0.32s-0.57-0.8-0.32-1.23S117.1,96.44,117.53,96.69L117.53,96.69z      M124.61,91.8c-0.28-0.16-0.37-0.52-0.21-0.79c0.16-0.28,0.52-0.37,0.79-0.21c0.28,0.16,0.37,0.52,0.21,0.8     C125.24,91.87,124.89,91.96,124.61,91.8L124.61,91.8z M126.04,90.73c-0.34-0.2-0.45-0.63-0.25-0.96c0.2-0.34,0.63-0.45,0.96-0.25     c0.34,0.2,0.45,0.63,0.25,0.96C126.81,90.82,126.38,90.93,126.04,90.73L126.04,90.73z M127.58,89.57     c0.39,0.23,0.89,0.1,1.11-0.29c0.23-0.39,0.1-0.89-0.29-1.11c-0.39-0.23-0.89-0.1-1.11,0.29     C127.06,88.85,127.19,89.35,127.58,89.57L127.58,89.57z M129.22,88.32c-0.43-0.25-0.57-0.8-0.32-1.23s0.8-0.57,1.23-0.32     s0.57,0.8,0.32,1.23S129.65,88.57,129.22,88.32L129.22,88.32z M122.68,91.27c-0.16,0.28-0.52,0.37-0.8,0.21     c-0.28-0.16-0.37-0.52-0.21-0.8c0.16-0.28,0.52-0.37,0.79-0.21C122.74,90.64,122.84,90.99,122.68,91.27L122.68,91.27z      M121.61,89.84c-0.2,0.34-0.63,0.45-0.96,0.25c-0.34-0.2-0.45-0.63-0.25-0.96c0.2-0.34,0.63-0.45,0.96-0.25     C121.69,89.07,121.8,89.5,121.61,89.84L121.61,89.84z M120.44,88.3c0.23-0.39,0.1-0.89-0.29-1.11c-0.39-0.23-0.89-0.1-1.11,0.29     c-0.23,0.39-0.1,0.89,0.29,1.11C119.72,88.82,120.22,88.69,120.44,88.3L120.44,88.3z M119.2,86.66c-0.25,0.43-0.8,0.57-1.23,0.32     s-0.57-0.8-0.32-1.23s0.8-0.57,1.23-0.32C119.3,85.68,119.45,86.23,119.2,86.66L119.2,86.66z M122.95,92.25     c0.14-0.24,0.44-0.32,0.68-0.18s0.32,0.44,0.18,0.68s-0.44,0.32-0.68,0.18S122.81,92.49,122.95,92.25L122.95,92.25z      M124.08,93.74c0.16-0.28,0.52-0.37,0.8-0.21c0.28,0.16,0.37,0.52,0.21,0.8c-0.16,0.28-0.52,0.37-0.79,0.21     C124.01,94.37,123.92,94.01,124.08,93.74L124.08,93.74z M125.15,95.17c0.2-0.34,0.63-0.45,0.96-0.25     c0.34,0.2,0.45,0.63,0.25,0.96c-0.2,0.34-0.63,0.45-0.96,0.25C125.07,95.94,124.95,95.5,125.15,95.17L125.15,95.17z      M126.31,96.71c-0.23,0.39-0.1,0.89,0.29,1.11c0.39,0.23,0.89,0.1,1.11-0.29c0.23-0.39,0.1-0.89-0.29-1.11     C127.04,96.19,126.54,96.32,126.31,96.71z"/>
		</g>
		<path fill-rule="evenodd" clip-rule="evenodd" d="M144.41,381.21c-26.37,11.67-42.42,21.24-72.83,19.21    c-7.11-0.47-9.13-0.57-8.17-7.4l1.35-9.62c0.62-4.41-0.9-8.99-3.61-12.74c-0.28-0.39-1.92-2.35-3.23-3.89    c-0.08-0.1-1.89-2.17-4.19-4.82c-1.29,37.8-4.05,75.45-7.47,113c26.07,3.33,74.3,5.05,122.51,4.86    c48.21,0.19,96.44-1.53,122.51-4.86c-3.21-35.12-5.82-70.33-7.2-105.67c-0.55,0.67-0.98,1.19-1.11,1.37    c-2.71,3.75-4.23,8.34-3.61,12.74l1.35,9.62c0.96,6.83-1.07,6.93-8.17,7.4c-31.08,2.08-65.3-8.27-92.73-20.29    C168.7,375.74,155.04,376.51,144.41,381.21z"/>
		<path fill-rule="evenodd" clip-rule="evenodd" fill="#FFFFFE" d="M284.24,373.72c-1.69,2.94-2.62,6.05-2.16,9.38l1.35,9.62    c0.21,1.54,0.11,2.93-0.28,4.2c-1.51,4.87-6.86,7.09-14.52,7.47c-6.71,0.34-15.39-0.72-24.72-2.55    c-26.4-5.16-58.6-16.56-65.25-19.45l0,0c-15.82-6.27-30.89,0.03-48.01,7.2c-16.83,7.04-35.54,14.88-59.27,13.29l-0.13-0.01    c-1.36-0.09-2.54-0.17-3.53-0.28c-6.35-0.71-8.13-2.27-7.06-9.88c2.16-15.44,1.78-17.37-7.08-26.78c0.09-2.46,0.17-4.91,0.25-7.37    l1.23,1.29c12.99,13.61,13.76,14.42,11.1,33.45c-0.48,3.44,0.1,4.12,2.24,4.36c0.95,0.11,2.03,0.18,3.27,0.26l0.13,0.01    c22.32,1.49,40.32-6.05,56.52-12.83c18.34-7.68,34.48-14.43,52.58-7.26l0.1,0.05c6.27,2.75,37.99,13.98,64.09,19.08    c8.91,1.74,17.09,2.76,23.24,2.45c5.21-0.26,8.74-1.41,9.49-3.85c0.19-0.62,0.23-1.38,0.11-2.28l-1.35-9.62    c-1.01-7.23,2.61-13.15,7.32-18.48C284.01,368.05,284.12,370.89,284.24,373.72z"/>
		<path fill-rule="evenodd" clip-rule="evenodd" fill="#FFF502" d="M174.86,402.49c-10.18,4.86-7.33,3.21-15.4,10.11    c-11.08,9.48-23.97,17.37-37.71,23.4c-9.95,4.37-20.29,2.91-26.72-5.23c-4.76-6.03-8.21-9.8-15.36-13.22    c-8.78-4.19-18.55-3.69-27.75-0.86c-0.34,0.11-0.69,0.21-1.03,0.31c-1.3,19.35-2.88,38.67-4.64,57.96    c26.07,3.33,74.3,5.05,122.51,4.86c48.21,0.19,96.44-1.53,122.51-4.86c-1.84-20.18-3.49-40.4-4.82-60.65    c-13.37-0.63-24.92-2.13-38.64-3.92c-15.24-2-30.62-4.28-45.19-8.75C193.41,398.8,183.63,398.29,174.86,402.49z"/>
		<path fill-rule="evenodd" clip-rule="evenodd" fill="#FFFFFE" d="M51.03,414.89l0.18-0.06c23.64-7.26,33.7,2.74,42.73,11.74    c7.15,7.11,13.57,13.5,26.85,7.68c10.07-4.42,18.99-10.91,27.56-17.14c17.23-12.53,33.08-24.05,54.96-17.33    c7.22,2.22,14.61,3.89,22.07,5.25c7.45,1.36,15.1,2.43,22.73,3.43c12.17,1.59,22.81,2.61,33.42,3.25c1.58,0.1,3.17,0.18,4.75,0.26    c0.08,1.31,0.17,2.61,0.26,3.92c-1.77-0.09-3.54-0.18-5.3-0.29c-10.74-0.65-21.48-1.67-33.76-3.28c-7.61-1-15.28-2.07-22.97-3.47    c-7.68-1.4-15.27-3.11-22.62-5.37c-19.61-6.02-34.55,4.85-50.8,16.66c-8.75,6.36-17.86,12.99-28.39,17.61    c-16.23,7.12-23.7-0.3-32-8.56c-8.12-8.08-17.16-17.07-38.08-10.65c-0.62,0.19-1.25,0.38-1.88,0.56    C50.85,417.69,50.94,416.29,51.03,414.89z"/>
		<path fill-rule="evenodd" clip-rule="evenodd" fill="#FFFFFF" d="M73.19,347.45c1.46,0.04,2.6,1.25,2.57,2.7    c-0.04,1.46-1.25,2.6-2.7,2.57c-1.46-0.04-2.6-1.25-2.57-2.7C70.52,348.56,71.73,347.41,73.19,347.45L73.19,347.45z M78.74,326.26    c-0.02,0.94-0.81,1.68-1.75,1.66s-1.68-0.81-1.66-1.75s0.81-1.68,1.75-1.66C78.02,324.53,78.76,325.32,78.74,326.26L78.74,326.26z     M73.97,324.09c-0.03,1.14-0.98,2.04-2.12,2.02c-1.14-0.03-2.04-0.98-2.02-2.12c0.03-1.14,0.98-2.04,2.12-2.02    C73.1,322,74,322.95,73.97,324.09L73.97,324.09z M68.81,321.78c-0.03,1.32-1.13,2.36-2.44,2.32c-1.32-0.03-2.36-1.13-2.32-2.44    c0.03-1.32,1.13-2.36,2.44-2.32C67.8,319.37,68.84,320.46,68.81,321.78L68.81,321.78z M63.28,319.32c-0.04,1.45-1.25,2.6-2.7,2.57    c-1.45-0.04-2.6-1.25-2.57-2.7c0.04-1.45,1.25-2.6,2.7-2.57C62.17,316.66,63.32,317.87,63.28,319.32L63.28,319.32z M85.84,330.61    c0.02-0.94,0.81-1.68,1.75-1.66s1.68,0.81,1.66,1.75s-0.81,1.68-1.75,1.66C86.55,332.33,85.81,331.55,85.84,330.61L85.84,330.61z     M90.61,332.78c0.03-1.14,0.98-2.04,2.12-2.02c1.14,0.03,2.04,0.98,2.02,2.12c-0.03,1.14-0.98,2.04-2.12,2.02    C91.48,334.87,90.58,333.92,90.61,332.78L90.61,332.78z M95.77,335.09c0.03-1.32,1.13-2.36,2.44-2.32    c1.32,0.03,2.36,1.13,2.32,2.44c-0.03,1.32-1.13,2.36-2.44,2.32C96.77,337.5,95.73,336.41,95.77,335.09L95.77,335.09z     M101.3,337.54c0.04-1.46,1.25-2.6,2.7-2.57c1.46,0.04,2.6,1.25,2.57,2.7c-0.04,1.46-1.25,2.6-2.7,2.57    C102.41,340.21,101.26,339,101.3,337.54L101.3,337.54z M84.47,324.89c-0.94-0.02-1.68-0.81-1.66-1.75s0.81-1.68,1.75-1.66    s1.68,0.81,1.66,1.75C86.2,324.17,85.41,324.91,84.47,324.89L84.47,324.89z M86.64,320.12c-1.14-0.03-2.04-0.98-2.02-2.12    c0.03-1.14,0.98-2.04,2.12-2.02c1.14,0.03,2.04,0.98,2.02,2.12C88.73,319.25,87.78,320.15,86.64,320.12L86.64,320.12z     M88.95,314.96c-1.32-0.03-2.36-1.13-2.32-2.44c0.03-1.32,1.13-2.36,2.44-2.32c1.32,0.03,2.36,1.13,2.32,2.44    C91.36,313.95,90.27,314.99,88.95,314.96L88.95,314.96z M91.41,309.43c-1.46-0.04-2.6-1.25-2.57-2.7c0.04-1.45,1.25-2.6,2.7-2.57    c1.45,0.04,2.6,1.25,2.57,2.7C94.07,308.32,92.86,309.47,91.41,309.43L91.41,309.43z M82.33,326.98c0.81,0.02,1.44,0.69,1.42,1.49    c-0.02,0.8-0.69,1.44-1.49,1.42c-0.8-0.02-1.44-0.69-1.42-1.49C80.86,327.59,81.53,326.96,82.33,326.98L82.33,326.98z     M80.12,331.99c0.94,0.02,1.68,0.81,1.66,1.75s-0.81,1.68-1.75,1.66s-1.68-0.81-1.66-1.75C78.39,332.7,79.18,331.96,80.12,331.99    L80.12,331.99z M77.95,336.76c1.14,0.03,2.04,0.98,2.02,2.12c-0.03,1.14-0.98,2.04-2.12,2.02c-1.14-0.03-2.04-0.98-2.02-2.12    C75.86,337.63,76.81,336.73,77.95,336.76L77.95,336.76z M75.64,341.92c1.32,0.03,2.36,1.13,2.32,2.44    c-0.03,1.32-1.13,2.36-2.44,2.32c-1.32-0.03-2.36-1.13-2.32-2.44C73.23,342.92,74.32,341.88,75.64,341.92z"/>
		<path fill-rule="evenodd" clip-rule="evenodd" fill="#FFFFFF" d="M203.76,378.96c1.06-0.72,2.5-0.44,3.22,0.62s0.44,2.5-0.62,3.22    s-2.5,0.44-3.22-0.62S202.7,379.68,203.76,378.96L203.76,378.96z M196.9,360.95c0.46,0.69,0.28,1.62-0.4,2.08    c-0.69,0.46-1.62,0.28-2.08-0.4c-0.46-0.69-0.28-1.62,0.4-2.08C195.5,360.08,196.43,360.26,196.9,360.95L196.9,360.95z     M192.37,361.83c0.56,0.83,0.34,1.96-0.49,2.53c-0.83,0.56-1.96,0.34-2.53-0.49c-0.56-0.83-0.34-1.96,0.49-2.53    C190.68,360.78,191.81,361,192.37,361.83L192.37,361.83z M187.5,362.82c0.65,0.96,0.4,2.26-0.56,2.91    c-0.96,0.65-2.26,0.4-2.91-0.56c-0.65-0.96-0.4-2.26,0.56-2.91C185.55,361.61,186.85,361.86,187.5,362.82L187.5,362.82z     M182.28,363.89c0.72,1.06,0.44,2.5-0.62,3.22s-2.5,0.44-3.22-0.62s-0.44-2.5,0.62-3.22    C180.13,362.55,181.57,362.83,182.28,363.89L182.28,363.89z M204.21,360.44c-0.46-0.69-0.28-1.62,0.4-2.08    c0.69-0.46,1.62-0.28,2.08,0.4c0.46,0.69,0.28,1.62-0.4,2.08C205.6,361.3,204.67,361.12,204.21,360.44L204.21,360.44z     M208.73,359.55c-0.56-0.83-0.34-1.96,0.49-2.53c0.83-0.56,1.96-0.34,2.53,0.49c0.56,0.83,0.34,1.96-0.49,2.53    C210.43,360.6,209.29,360.38,208.73,359.55L208.73,359.55z M213.61,358.56c-0.65-0.96-0.4-2.26,0.56-2.91    c0.96-0.65,2.26-0.4,2.91,0.56c0.65,0.96,0.4,2.26-0.56,2.91C215.56,359.78,214.26,359.52,213.61,358.56L213.61,358.56z     M218.82,357.49c-0.72-1.06-0.44-2.5,0.62-3.22s2.5-0.44,3.22,0.62s0.44,2.5-0.62,3.22S219.54,358.55,218.82,357.49L218.82,357.49    z M200.31,357.03c-0.69,0.46-1.62,0.28-2.08-0.4c-0.46-0.69-0.28-1.62,0.4-2.08c0.69-0.46,1.62-0.28,2.08,0.4    C201.17,355.64,200.99,356.57,200.31,357.03L200.31,357.03z M199.42,352.51c-0.83,0.56-1.96,0.34-2.53-0.49    c-0.56-0.83-0.34-1.96,0.49-2.53c0.83-0.56,1.96-0.34,2.53,0.49C200.47,350.82,200.25,351.95,199.42,352.51L199.42,352.51z     M198.43,347.63c-0.96,0.65-2.26,0.4-2.91-0.56c-0.65-0.96-0.4-2.26,0.56-2.91c0.96-0.65,2.26-0.4,2.91,0.56    C199.65,345.68,199.39,346.99,198.43,347.63L198.43,347.63z M197.36,342.42c-1.06,0.72-2.5,0.44-3.22-0.62s-0.44-2.5,0.62-3.22    s2.5-0.44,3.22,0.62S198.42,341.7,197.36,342.42L197.36,342.42z M199.84,359.63c0.59-0.4,1.38-0.24,1.78,0.34    c0.4,0.59,0.24,1.38-0.34,1.78c-0.59,0.4-1.38,0.24-1.78-0.34C199.1,360.82,199.26,360.02,199.84,359.63L199.84,359.63z     M200.82,364.34c0.69-0.46,1.62-0.28,2.08,0.4c0.46,0.69,0.28,1.62-0.4,2.08c-0.69,0.46-1.62,0.28-2.08-0.4    C199.95,365.74,200.13,364.81,200.82,364.34L200.82,364.34z M201.7,368.87c0.83-0.56,1.96-0.34,2.53,0.49    c0.56,0.83,0.34,1.96-0.49,2.53c-0.83,0.56-1.96,0.35-2.53-0.49C200.65,370.56,200.87,369.43,201.7,368.87L201.7,368.87z     M202.69,373.74c0.96-0.65,2.26-0.4,2.91,0.56c0.65,0.96,0.4,2.26-0.56,2.91c-0.96,0.65-2.26,0.4-2.91-0.56    C201.48,375.7,201.73,374.39,202.69,373.74z"/>
		<path fill-rule="evenodd" clip-rule="evenodd" fill="#FFFFFF" d="M127.77,365.03c0.76-0.1,1.46,0.43,1.56,1.19    s-0.43,1.46-1.19,1.56c-0.76,0.1-1.46-0.43-1.56-1.19C126.49,365.83,127.02,365.13,127.77,365.03L127.77,365.03z M128.87,353.56    c0.07,0.49-0.28,0.94-0.77,1.01c-0.49,0.07-0.94-0.28-1.01-0.77s0.28-0.94,0.77-1.01C128.35,352.72,128.8,353.06,128.87,353.56    L128.87,353.56z M126.2,352.83c0.08,0.6-0.34,1.14-0.93,1.23c-0.6,0.08-1.14-0.34-1.23-0.93c-0.08-0.6,0.34-1.14,0.93-1.23    C125.57,351.82,126.12,352.24,126.2,352.83L126.2,352.83z M123.33,352.07c0.09,0.69-0.39,1.32-1.07,1.41    c-0.69,0.09-1.32-0.39-1.41-1.07c-0.09-0.69,0.39-1.32,1.07-1.41C122.6,350.9,123.24,351.38,123.33,352.07L123.33,352.07z     M120.25,351.26c0.1,0.76-0.43,1.46-1.19,1.56s-1.46-0.43-1.56-1.19s0.43-1.46,1.19-1.56    C119.45,349.97,120.15,350.5,120.25,351.26L120.25,351.26z M132.92,355.22c-0.07-0.49,0.28-0.94,0.77-1.01s0.94,0.28,1.01,0.77    c0.07,0.49-0.28,0.94-0.77,1.01C133.44,356.05,132.99,355.71,132.92,355.22L132.92,355.22z M135.58,355.94    c-0.08-0.6,0.34-1.14,0.93-1.23c0.6-0.08,1.14,0.34,1.23,0.93c0.08,0.6-0.34,1.14-0.93,1.23    C136.21,356.95,135.66,356.53,135.58,355.94L135.58,355.94z M138.46,356.7c-0.09-0.69,0.39-1.32,1.07-1.41    c0.69-0.09,1.32,0.39,1.41,1.07c0.09,0.69-0.39,1.32-1.07,1.41C139.18,357.87,138.55,357.39,138.46,356.7L138.46,356.7z     M141.54,357.51c-0.1-0.76,0.43-1.46,1.19-1.56c0.76-0.1,1.46,0.43,1.56,1.19c0.1,0.76-0.43,1.46-1.19,1.56    C142.34,358.8,141.64,358.27,141.54,357.51L141.54,357.51z M131.73,352.36c-0.49,0.07-0.94-0.28-1.01-0.77    c-0.07-0.49,0.28-0.94,0.77-1.01s0.94,0.28,1.01,0.77C132.56,351.84,132.22,352.29,131.73,352.36L131.73,352.36z M132.45,349.7    c-0.6,0.08-1.14-0.34-1.23-0.93c-0.08-0.6,0.34-1.14,0.93-1.23c0.6-0.08,1.14,0.34,1.23,0.93    C133.46,349.07,133.05,349.62,132.45,349.7L132.45,349.7z M133.21,346.82c-0.69,0.09-1.32-0.39-1.41-1.07    c-0.09-0.69,0.39-1.32,1.07-1.41c0.69-0.09,1.32,0.39,1.41,1.07C134.38,346.1,133.9,346.73,133.21,346.82L133.21,346.82z     M134.02,343.74c-0.76,0.1-1.46-0.43-1.56-1.19c-0.1-0.76,0.43-1.46,1.19-1.56c0.76-0.1,1.46,0.43,1.56,1.19    S134.78,343.64,134.02,343.74L134.02,343.74z M130.79,353.63c0.42-0.06,0.81,0.24,0.86,0.66c0.06,0.42-0.24,0.81-0.66,0.86    c-0.42,0.06-0.81-0.24-0.86-0.66C130.08,354.07,130.37,353.68,130.79,353.63L130.79,353.63z M130.07,356.41    c0.49-0.07,0.94,0.28,1.01,0.77s-0.28,0.94-0.77,1.01s-0.94-0.28-1.01-0.77C129.23,356.93,129.58,356.48,130.07,356.41    L130.07,356.41z M129.34,359.07c0.6-0.08,1.14,0.34,1.23,0.93c0.08,0.6-0.34,1.14-0.93,1.23c-0.6,0.08-1.14-0.34-1.23-0.93    C128.33,359.7,128.75,359.16,129.34,359.07L129.34,359.07z M128.58,361.95c0.69-0.09,1.32,0.39,1.41,1.07    c0.09,0.69-0.39,1.32-1.07,1.41c-0.69,0.09-1.32-0.39-1.41-1.07C127.41,362.68,127.89,362.04,128.58,361.95z"/>
		<path fill-rule="evenodd" clip-rule="evenodd" fill="#FFFFFF" d="M229.93,376.97c0.68,0.36,0.93,1.2,0.58,1.87    c-0.36,0.68-1.2,0.93-1.87,0.58c-0.68-0.36-0.93-1.2-0.58-1.87C228.42,376.87,229.26,376.61,229.93,376.97L229.93,376.97z     M237.52,368.29c-0.23,0.44-0.78,0.6-1.21,0.37c-0.44-0.23-0.6-0.78-0.37-1.21c0.23-0.44,0.78-0.6,1.21-0.37    C237.58,367.31,237.75,367.86,237.52,368.29L237.52,368.29z M235.78,366.15c0.28-0.53,0.08-1.19-0.45-1.47s-1.19-0.08-1.47,0.45    s-0.08,1.19,0.45,1.47C234.84,366.89,235.5,366.68,235.78,366.15L235.78,366.15z M233.89,363.85c-0.32,0.61-1.08,0.85-1.7,0.52    c-0.61-0.32-0.85-1.08-0.52-1.7c0.32-0.61,1.08-0.85,1.7-0.52C233.98,362.48,234.22,363.24,233.89,363.85L233.89,363.85z     M231.86,361.4c0.36-0.68,0.1-1.52-0.58-1.87c-0.68-0.36-1.52-0.1-1.87,0.58c-0.36,0.68-0.1,1.52,0.58,1.87    C230.66,362.34,231.5,362.08,231.86,361.4L231.86,361.4z M239.84,372.01c0.23-0.44,0.77-0.6,1.21-0.37s0.6,0.78,0.37,1.21    c-0.23,0.44-0.78,0.6-1.21,0.37C239.77,372.99,239.61,372.45,239.84,372.01L239.84,372.01z M241.58,374.15    c-0.28,0.53-0.08,1.19,0.45,1.47s1.19,0.08,1.47-0.45s0.08-1.19-0.45-1.47S241.86,373.62,241.58,374.15L241.58,374.15z     M243.47,376.45c0.32-0.61,1.08-0.85,1.7-0.52c0.61,0.32,0.85,1.08,0.52,1.7c-0.32,0.61-1.08,0.85-1.7,0.52    C243.38,377.82,243.14,377.06,243.47,376.45L243.47,376.45z M245.5,378.9c-0.36,0.68-0.1,1.52,0.58,1.87    c0.68,0.36,1.52,0.1,1.87-0.57c0.36-0.68,0.1-1.52-0.58-1.87C246.69,377.97,245.86,378.22,245.5,378.9L245.5,378.9z     M240.54,368.99c-0.44-0.23-0.6-0.78-0.37-1.21c0.23-0.44,0.78-0.6,1.21-0.37c0.44,0.23,0.6,0.78,0.37,1.21    C241.52,369.06,240.98,369.23,240.54,368.99L240.54,368.99z M242.68,367.26c0.53,0.28,1.19,0.08,1.47-0.45s0.08-1.19-0.45-1.47    s-1.19-0.08-1.47,0.45C241.95,366.31,242.15,366.97,242.68,367.26L242.68,367.26z M244.98,365.37c-0.61-0.32-0.85-1.08-0.52-1.7    c0.32-0.61,1.08-0.85,1.7-0.52c0.61,0.32,0.85,1.08,0.52,1.7C246.35,365.46,245.59,365.69,244.98,365.37L244.98,365.37z     M247.43,363.34c0.68,0.36,1.52,0.1,1.87-0.57c0.36-0.68,0.1-1.52-0.58-1.87c-0.68-0.36-1.52-0.1-1.87,0.57    C246.5,362.14,246.76,362.98,247.43,363.34L247.43,363.34z M239.04,369.48c0.37,0.2,0.52,0.66,0.32,1.04    c-0.2,0.37-0.66,0.52-1.04,0.32c-0.37-0.2-0.52-0.66-0.32-1.04S238.67,369.28,239.04,369.48L239.04,369.48z M236.82,371.32    c0.44,0.23,0.6,0.77,0.37,1.21c-0.23,0.44-0.77,0.6-1.21,0.37s-0.6-0.77-0.37-1.21C235.84,371.25,236.39,371.08,236.82,371.32    L236.82,371.32z M234.68,373.05c-0.53-0.28-1.19-0.08-1.47,0.45s-0.08,1.19,0.45,1.47s1.19,0.08,1.47-0.45    C235.42,373.99,235.22,373.34,234.68,373.05L234.68,373.05z M232.39,374.94c-0.61-0.32-1.37-0.09-1.7,0.52    c-0.32,0.61-0.09,1.37,0.52,1.7c0.61,0.32,1.37,0.09,1.7-0.52C233.23,376.03,233,375.27,232.39,374.94z"/>
		<path fill-rule="evenodd" clip-rule="evenodd" fill="#FFFFFF" d="M77.03,270.27c0.77-0.03,1.41,0.56,1.44,1.33    s-0.56,1.41-1.33,1.44c-0.77,0.03-1.41-0.56-1.44-1.33C75.68,270.95,76.27,270.3,77.03,270.27L77.03,270.27z M79.19,258.95    c0.02,0.5-0.36,0.91-0.86,0.93c-0.49,0.02-0.91-0.36-0.93-0.86s0.36-0.91,0.86-0.93C78.75,258.07,79.17,258.45,79.19,258.95    L79.19,258.95z M76.61,257.98c0.03,0.6-0.44,1.11-1.04,1.13c-0.6,0.03-1.11-0.44-1.13-1.04c-0.03-0.6,0.44-1.11,1.04-1.13    C76.08,256.91,76.58,257.38,76.61,257.98L76.61,257.98z M73.82,256.95c0.03,0.69-0.51,1.28-1.2,1.31    c-0.69,0.03-1.28-0.51-1.31-1.2s0.51-1.28,1.2-1.31C73.2,255.72,73.79,256.26,73.82,256.95L73.82,256.95z M70.83,255.86    c0.03,0.76-0.56,1.41-1.33,1.44c-0.77,0.03-1.41-0.56-1.44-1.33s0.56-1.41,1.33-1.44C70.15,254.5,70.79,255.1,70.83,255.86    L70.83,255.86z M83.07,260.98c-0.02-0.5,0.36-0.91,0.86-0.93s0.91,0.36,0.93,0.86s-0.36,0.91-0.86,0.93    C83.51,261.86,83.09,261.47,83.07,260.98L83.07,260.98z M85.65,261.95c-0.03-0.6,0.44-1.11,1.04-1.13    c0.6-0.03,1.11,0.44,1.13,1.04c0.03,0.6-0.44,1.11-1.04,1.13C86.19,263.01,85.68,262.55,85.65,261.95L85.65,261.95z M88.45,262.98    c-0.03-0.69,0.51-1.28,1.2-1.31c0.69-0.03,1.28,0.51,1.31,1.2s-0.51,1.28-1.2,1.31C89.06,264.2,88.48,263.67,88.45,262.98    L88.45,262.98z M91.44,264.07c-0.03-0.77,0.56-1.41,1.33-1.44c0.77-0.03,1.41,0.56,1.44,1.33s-0.56,1.41-1.33,1.44    C92.12,265.42,91.47,264.83,91.44,264.07L91.44,264.07z M82.15,258.02c-0.5,0.02-0.91-0.36-0.93-0.86    c-0.02-0.49,0.36-0.91,0.86-0.93s0.91,0.36,0.93,0.86S82.65,258,82.15,258.02L82.15,258.02z M83.12,255.44    c-0.6,0.03-1.11-0.44-1.13-1.04c-0.03-0.6,0.44-1.11,1.04-1.13c0.6-0.03,1.11,0.44,1.13,1.04    C84.19,254.91,83.72,255.42,83.12,255.44L83.12,255.44z M84.15,252.65c-0.69,0.03-1.28-0.51-1.31-1.2s0.51-1.28,1.2-1.31    c0.69-0.03,1.28,0.51,1.31,1.2C85.38,252.04,84.84,252.62,84.15,252.65L84.15,252.65z M85.24,249.66    c-0.77,0.03-1.41-0.56-1.44-1.33s0.56-1.41,1.33-1.44c0.77-0.03,1.41,0.56,1.44,1.33S86,249.63,85.24,249.66L85.24,249.66z     M81.1,259.2c0.42-0.02,0.78,0.31,0.8,0.73c0.02,0.42-0.31,0.78-0.73,0.8c-0.42,0.02-0.78-0.31-0.8-0.73    C80.35,259.57,80.68,259.22,81.1,259.2L81.1,259.2z M80.12,261.91c0.5-0.02,0.91,0.36,0.93,0.86s-0.36,0.91-0.86,0.93    s-0.91-0.36-0.93-0.86C79.24,262.35,79.63,261.93,80.12,261.91L80.12,261.91z M79.15,264.49c0.6-0.03,1.11,0.44,1.13,1.04    c0.03,0.6-0.44,1.11-1.04,1.13c-0.6,0.03-1.11-0.44-1.13-1.04C78.09,265.02,78.55,264.51,79.15,264.49L79.15,264.49z     M78.13,267.28c0.69-0.03,1.28,0.51,1.31,1.2s-0.51,1.28-1.2,1.31c-0.69,0.03-1.28-0.51-1.31-1.2    C76.9,267.89,77.43,267.31,78.13,267.28z"/>
		<path fill-rule="evenodd" clip-rule="evenodd" fill="#FFFFFF" d="M127.63,336.18c0.26-0.33,0.74-0.38,1.07-0.11    c0.33,0.26,0.38,0.74,0.11,1.07c-0.26,0.33-0.74,0.38-1.07,0.11C127.42,336.99,127.37,336.51,127.63,336.18L127.63,336.18z     M123.77,331.21c0.21,0.17,0.24,0.48,0.07,0.69s-0.48,0.24-0.69,0.07c-0.21-0.17-0.24-0.48-0.07-0.69    C123.25,331.07,123.55,331.04,123.77,331.21L123.77,331.21z M122.44,331.92c0.26,0.21,0.3,0.58,0.09,0.84    c-0.21,0.26-0.58,0.3-0.84,0.09c-0.26-0.21-0.3-0.58-0.09-0.84C121.81,331.76,122.18,331.72,122.44,331.92L122.44,331.92z     M121.01,332.7c0.29,0.24,0.34,0.67,0.1,0.96c-0.24,0.29-0.67,0.34-0.96,0.1s-0.34-0.67-0.1-0.96    C120.28,332.51,120.71,332.46,121.01,332.7L121.01,332.7z M119.48,333.53c-0.33-0.26-0.8-0.21-1.07,0.11    c-0.26,0.33-0.21,0.8,0.11,1.07c0.33,0.26,0.8,0.21,1.07-0.11C119.86,334.27,119.81,333.79,119.48,333.53L119.48,333.53z     M126,330.35c-0.21-0.17-0.24-0.48-0.07-0.69s0.48-0.24,0.69-0.07c0.21,0.17,0.24,0.48,0.07,0.69    C126.52,330.49,126.21,330.52,126,330.35L126,330.35z M127.33,329.64c-0.26-0.21-0.3-0.58-0.09-0.84c0.21-0.26,0.58-0.3,0.84-0.09    c0.26,0.21,0.3,0.58,0.09,0.84C127.96,329.81,127.58,329.85,127.33,329.64L127.33,329.64z M128.76,328.87    c-0.29-0.24-0.34-0.67-0.1-0.96s0.67-0.34,0.96-0.1c0.3,0.24,0.34,0.67,0.1,0.96S129.05,329.1,128.76,328.87L128.76,328.87z     M130.29,328.03c0.33,0.26,0.8,0.21,1.07-0.11c0.26-0.33,0.21-0.8-0.11-1.07c-0.33-0.26-0.8-0.21-1.07,0.11    C129.91,327.29,129.96,327.77,130.29,328.03L130.29,328.03z M124.46,329.66c-0.17,0.21-0.48,0.24-0.69,0.07    c-0.21-0.17-0.24-0.48-0.07-0.69s0.48-0.24,0.69-0.07C124.59,329.14,124.62,329.45,124.46,329.66L124.46,329.66z M123.74,328.33    c-0.21,0.26-0.58,0.3-0.84,0.09c-0.26-0.21-0.3-0.58-0.09-0.84c0.21-0.26,0.58-0.3,0.84-0.09S123.95,328.08,123.74,328.33    L123.74,328.33z M122.97,326.9c-0.24,0.29-0.67,0.34-0.96,0.1s-0.34-0.67-0.1-0.96c0.24-0.29,0.67-0.34,0.96-0.1    C123.16,326.18,123.21,326.61,122.97,326.9L122.97,326.9z M122.14,325.38c0.26-0.33,0.21-0.8-0.11-1.07    c-0.33-0.26-0.8-0.21-1.07,0.11c-0.26,0.33-0.21,0.8,0.11,1.07C121.4,325.75,121.87,325.7,122.14,325.38L122.14,325.38z     M124.56,330.52c0.15-0.18,0.41-0.21,0.59-0.06c0.18,0.15,0.21,0.41,0.06,0.59s-0.41,0.21-0.59,0.06S124.41,330.7,124.56,330.52    L124.56,330.52z M125.32,331.9c0.17-0.21,0.48-0.24,0.69-0.07c0.21,0.17,0.24,0.48,0.07,0.69s-0.48,0.24-0.69,0.07    C125.18,332.42,125.14,332.11,125.32,331.9L125.32,331.9z M126.03,333.23c0.21-0.26,0.58-0.3,0.84-0.09    c0.26,0.21,0.3,0.58,0.09,0.84c-0.21,0.26-0.58,0.3-0.84,0.09S125.82,333.48,126.03,333.23L126.03,333.23z M126.8,334.66    c-0.24,0.29-0.19,0.73,0.1,0.96c0.29,0.24,0.73,0.19,0.96-0.1c0.24-0.29,0.19-0.73-0.1-0.96    C127.47,334.32,127.04,334.36,126.8,334.66z"/>
		<path fill-rule="evenodd" clip-rule="evenodd" fill="#FFFFFF" d="M96.11,367.39c0.56-0.2,1.18,0.08,1.38,0.64    c0.2,0.56-0.08,1.18-0.64,1.38s-1.18-0.08-1.38-0.64C95.26,368.21,95.55,367.59,96.11,367.39L96.11,367.39z M95.03,358.49    c0.13,0.36-0.05,0.76-0.42,0.89c-0.36,0.13-0.76-0.05-0.89-0.42c-0.13-0.36,0.05-0.76,0.42-0.89    C94.5,357.94,94.9,358.13,95.03,358.49L95.03,358.49z M92.89,358.38c0.16,0.44-0.06,0.93-0.5,1.09s-0.93-0.06-1.09-0.5    c-0.16-0.44,0.07-0.93,0.5-1.09C92.24,357.72,92.73,357.94,92.89,358.38L92.89,358.38z M90.58,358.28    c0.19,0.51-0.07,1.07-0.58,1.25c-0.51,0.19-1.07-0.07-1.25-0.58c-0.19-0.51,0.07-1.07,0.58-1.25    C89.83,357.51,90.39,357.77,90.58,358.28L90.58,358.28z M88.1,358.18c0.2,0.56-0.08,1.18-0.64,1.38s-1.18-0.08-1.38-0.64    c-0.2-0.56,0.08-1.18,0.64-1.38C87.28,357.33,87.9,357.62,88.1,358.18L88.1,358.18z M98.39,359.08c-0.13-0.36,0.05-0.76,0.42-0.89    c0.36-0.13,0.76,0.05,0.9,0.42c0.13,0.36-0.05,0.76-0.42,0.89C98.92,359.63,98.52,359.44,98.39,359.08L98.39,359.08z     M100.53,359.18c-0.16-0.44,0.06-0.93,0.5-1.09s0.93,0.06,1.09,0.5c0.16,0.44-0.06,0.93-0.5,1.09    C101.17,359.85,100.69,359.62,100.53,359.18L100.53,359.18z M102.84,359.29c-0.19-0.51,0.07-1.07,0.58-1.25    c0.51-0.19,1.07,0.07,1.25,0.58c0.19,0.51-0.07,1.07-0.58,1.25C103.58,360.05,103.02,359.79,102.84,359.29L102.84,359.29z     M105.31,359.39c-0.2-0.56,0.08-1.18,0.64-1.38s1.18,0.08,1.38,0.64c0.2,0.56-0.08,1.18-0.64,1.38    C106.14,360.23,105.52,359.95,105.31,359.39L105.31,359.39z M97.01,357.1c-0.36,0.13-0.76-0.05-0.89-0.42    c-0.13-0.36,0.05-0.76,0.42-0.89c0.36-0.13,0.76,0.05,0.89,0.42C97.55,356.57,97.37,356.97,97.01,357.1L97.01,357.1z     M97.11,354.96c-0.44,0.16-0.93-0.06-1.09-0.5c-0.16-0.44,0.06-0.93,0.5-1.09s0.93,0.07,1.09,0.5    C97.78,354.32,97.55,354.8,97.11,354.96L97.11,354.96z M97.22,352.65c-0.51,0.19-1.07-0.07-1.25-0.58    c-0.19-0.51,0.07-1.07,0.58-1.25c0.51-0.19,1.07,0.07,1.25,0.58C97.98,351.91,97.72,352.47,97.22,352.65L97.22,352.65z     M97.32,350.18c-0.56,0.2-1.18-0.08-1.38-0.64c-0.2-0.56,0.08-1.18,0.64-1.38s1.18,0.08,1.38,0.64    C98.16,349.35,97.88,349.97,97.32,350.18L97.32,350.18z M96.51,358.22c0.31-0.11,0.65,0.05,0.77,0.36    c0.11,0.31-0.05,0.65-0.36,0.77c-0.31,0.11-0.65-0.05-0.77-0.36C96.04,358.68,96.2,358.34,96.51,358.22L96.51,358.22z     M96.42,360.46c0.36-0.13,0.76,0.05,0.89,0.42c0.13,0.36-0.05,0.76-0.42,0.89c-0.36,0.13-0.76-0.05-0.89-0.42    C95.87,360.99,96.06,360.59,96.42,360.46L96.42,360.46z M96.31,362.6c0.44-0.16,0.93,0.06,1.09,0.5c0.16,0.44-0.06,0.93-0.5,1.09    s-0.93-0.06-1.09-0.5C95.65,363.25,95.87,362.76,96.31,362.6L96.31,362.6z M96.21,364.91c0.51-0.19,1.07,0.07,1.25,0.58    c0.19,0.51-0.07,1.07-0.58,1.25c-0.51,0.19-1.07-0.07-1.25-0.58C95.44,365.66,95.7,365.1,96.21,364.91z"/>
		<path fill-rule="evenodd" clip-rule="evenodd" fill="#FFFFFF" d="M85.24,390.15c0.51,0.31,0.67,0.98,0.35,1.48    s-0.98,0.67-1.48,0.35c-0.51-0.31-0.67-0.98-0.35-1.48C84.07,390,84.74,389.84,85.24,390.15L85.24,390.15z M91.56,383.78    c-0.2,0.33-0.63,0.43-0.96,0.23c-0.33-0.2-0.43-0.63-0.23-0.96s0.63-0.43,0.96-0.23C91.65,383.02,91.76,383.45,91.56,383.78    L91.56,383.78z M90.31,382.04c-0.24,0.4-0.77,0.52-1.16,0.28c-0.4-0.24-0.52-0.77-0.28-1.16c0.24-0.4,0.77-0.52,1.16-0.28    C90.43,381.12,90.56,381.64,90.31,382.04L90.31,382.04z M88.96,380.16c0.28-0.46,0.14-1.06-0.32-1.34s-1.06-0.14-1.34,0.32    c-0.28,0.46-0.14,1.06,0.32,1.34C88.07,380.76,88.68,380.62,88.96,380.16L88.96,380.16z M87.5,378.16    c-0.31,0.51-0.98,0.67-1.48,0.35c-0.51-0.31-0.67-0.98-0.35-1.48c0.31-0.51,0.98-0.67,1.48-0.35    C87.66,376.99,87.81,377.65,87.5,378.16L87.5,378.16z M93.18,386.78c0.2-0.33,0.63-0.43,0.96-0.23c0.33,0.2,0.43,0.63,0.23,0.96    s-0.63,0.43-0.96,0.23C93.08,387.54,92.97,387.11,93.18,386.78L93.18,386.78z M94.42,388.53c0.24-0.4,0.77-0.52,1.16-0.28    c0.4,0.24,0.52,0.77,0.28,1.16c-0.24,0.4-0.77,0.52-1.16,0.28C94.3,389.45,94.18,388.92,94.42,388.53L94.42,388.53z M95.77,390.4    c-0.28,0.46-0.14,1.06,0.32,1.34s1.06,0.14,1.34-0.32c0.28-0.46,0.14-1.06-0.32-1.34C96.66,389.8,96.06,389.94,95.77,390.4    L95.77,390.4z M97.23,392.41c0.31-0.51,0.98-0.67,1.48-0.35c0.51,0.31,0.67,0.98,0.35,1.48c-0.31,0.51-0.98,0.67-1.48,0.35    C97.08,393.58,96.92,392.91,97.23,392.41L97.23,392.41z M93.87,384.47c-0.33-0.2-0.43-0.63-0.23-0.96s0.63-0.43,0.96-0.23    c0.33,0.2,0.43,0.63,0.23,0.96C94.62,384.57,94.2,384.68,93.87,384.47L93.87,384.47z M95.61,383.23c-0.4-0.24-0.52-0.77-0.28-1.16    c0.24-0.4,0.77-0.52,1.16-0.28c0.4,0.24,0.52,0.77,0.28,1.16C96.53,383.35,96.01,383.47,95.61,383.23L95.61,383.23z M97.49,381.88    c0.46,0.28,1.06,0.14,1.34-0.32c0.28-0.46,0.14-1.06-0.32-1.34s-1.06-0.14-1.34,0.32C96.89,380.99,97.03,381.59,97.49,381.88    L97.49,381.88z M99.49,380.42c-0.51-0.31-0.67-0.98-0.35-1.48c0.31-0.51,0.98-0.67,1.48-0.35c0.51,0.31,0.67,0.98,0.35,1.48    C100.66,380.57,100,380.73,99.49,380.42L99.49,380.42z M92.68,384.78c0.28,0.17,0.37,0.54,0.2,0.82c-0.17,0.28-0.54,0.37-0.82,0.2    c-0.28-0.17-0.37-0.54-0.2-0.82C92.03,384.69,92.4,384.6,92.68,384.78L92.68,384.78z M90.87,386.09c0.33,0.2,0.43,0.63,0.23,0.96    s-0.63,0.43-0.96,0.23c-0.33-0.2-0.43-0.63-0.23-0.96C90.11,386,90.54,385.89,90.87,386.09L90.87,386.09z M89.12,387.34    c0.4,0.24,0.52,0.77,0.28,1.16c-0.24,0.4-0.77,0.52-1.16,0.28c-0.4-0.24-0.52-0.77-0.28-1.16    C88.2,387.22,88.72,387.09,89.12,387.34L89.12,387.34z M87.25,388.69c-0.46-0.28-1.06-0.14-1.34,0.32    c-0.28,0.46-0.14,1.06,0.32,1.34s1.06,0.14,1.34-0.32C87.85,389.58,87.71,388.98,87.25,388.69z"/>
		<path fill-rule="evenodd" clip-rule="evenodd" fill="#FFFFFF" d="M160.95,348.98c0.37,0.23,0.48,0.71,0.26,1.08    c-0.23,0.37-0.71,0.48-1.08,0.26c-0.37-0.23-0.48-0.71-0.26-1.08C160.1,348.87,160.58,348.75,160.95,348.98L160.95,348.98z     M165.52,344.36c-0.15,0.24-0.46,0.31-0.7,0.17c-0.24-0.15-0.31-0.46-0.17-0.7c0.15-0.24,0.46-0.31,0.7-0.17    C165.6,343.81,165.67,344.12,165.52,344.36L165.52,344.36z M164.62,343.09c-0.18,0.29-0.56,0.38-0.84,0.2    c-0.29-0.18-0.38-0.56-0.2-0.84c0.18-0.29,0.56-0.38,0.85-0.2C164.71,342.43,164.8,342.81,164.62,343.09L164.62,343.09z     M163.64,341.73c0.2-0.33,0.1-0.77-0.23-0.97s-0.77-0.1-0.97,0.23c-0.2,0.33-0.1,0.77,0.23,0.97    C163,342.17,163.43,342.07,163.64,341.73L163.64,341.73z M162.58,340.28c-0.23,0.37-0.71,0.48-1.08,0.26    c-0.37-0.23-0.48-0.71-0.26-1.08c0.23-0.37,0.71-0.48,1.08-0.26C162.69,339.43,162.81,339.91,162.58,340.28L162.58,340.28z     M166.7,346.54c0.15-0.24,0.46-0.31,0.7-0.17c0.24,0.15,0.31,0.46,0.17,0.7c-0.15,0.24-0.46,0.31-0.7,0.17    C166.63,347.09,166.55,346.77,166.7,346.54L166.7,346.54z M167.6,347.8c0.18-0.29,0.56-0.38,0.84-0.2    c0.29,0.18,0.38,0.56,0.2,0.85c-0.18,0.29-0.56,0.38-0.85,0.2C167.52,348.47,167.42,348.09,167.6,347.8L167.6,347.8z     M168.58,349.16c-0.2,0.33-0.1,0.77,0.23,0.97s0.77,0.1,0.97-0.23c0.2-0.33,0.1-0.77-0.23-0.97S168.79,348.83,168.58,349.16    L168.58,349.16z M169.64,350.62c0.23-0.37,0.71-0.48,1.08-0.26c0.37,0.23,0.48,0.71,0.26,1.08c-0.23,0.37-0.71,0.48-1.08,0.26    C169.53,351.47,169.41,350.99,169.64,350.62L169.64,350.62z M167.2,344.86c-0.24-0.15-0.31-0.46-0.17-0.7    c0.15-0.24,0.46-0.31,0.7-0.17c0.24,0.15,0.31,0.46,0.17,0.7C167.75,344.93,167.44,345.01,167.2,344.86L167.2,344.86z     M168.47,343.96c-0.29-0.18-0.38-0.56-0.2-0.84c0.18-0.29,0.56-0.38,0.85-0.2c0.29,0.18,0.38,0.56,0.2,0.84    C169.13,344.05,168.76,344.14,168.47,343.96L168.47,343.96z M169.83,342.98c0.33,0.2,0.77,0.1,0.97-0.23    c0.2-0.33,0.1-0.77-0.23-0.97s-0.77-0.1-0.97,0.23C169.39,342.34,169.5,342.77,169.83,342.98L169.83,342.98z M171.28,341.92    c-0.37-0.23-0.48-0.71-0.26-1.08c0.23-0.37,0.71-0.48,1.08-0.26c0.37,0.23,0.48,0.71,0.26,1.08    C172.13,342.03,171.65,342.15,171.28,341.92L171.28,341.92z M166.34,345.08c0.2,0.13,0.27,0.39,0.14,0.6    c-0.13,0.2-0.39,0.27-0.6,0.14c-0.2-0.12-0.27-0.39-0.14-0.6C165.87,345.02,166.14,344.96,166.34,345.08L166.34,345.08z     M165.03,346.04c0.24,0.15,0.31,0.46,0.17,0.7c-0.15,0.24-0.46,0.31-0.7,0.17c-0.24-0.15-0.31-0.46-0.17-0.7    C164.48,345.97,164.79,345.89,165.03,346.04L165.03,346.04z M163.76,346.94c0.29,0.18,0.38,0.56,0.2,0.85    c-0.18,0.29-0.56,0.38-0.84,0.2c-0.29-0.18-0.38-0.56-0.2-0.84S163.47,346.76,163.76,346.94L163.76,346.94z M162.4,347.92    c-0.33-0.2-0.77-0.1-0.97,0.23c-0.2,0.33-0.1,0.77,0.23,0.97s0.77,0.1,0.97-0.23C162.84,348.56,162.73,348.13,162.4,347.92z"/>
		<path fill-rule="evenodd" clip-rule="evenodd" fill="#FFFFFF" d="M70.87,376.28c0.38,0.21,0.51,0.69,0.29,1.07    c-0.21,0.38-0.69,0.51-1.07,0.29c-0.38-0.21-0.51-0.69-0.29-1.07C70.02,376.2,70.49,376.07,70.87,376.28L70.87,376.28z     M75.29,371.51c-0.14,0.24-0.45,0.33-0.69,0.19c-0.24-0.14-0.33-0.45-0.19-0.69s0.45-0.33,0.69-0.19    C75.34,370.96,75.43,371.27,75.29,371.51L75.29,371.51z M74.34,370.28c-0.17,0.3-0.54,0.4-0.84,0.23c-0.3-0.17-0.4-0.54-0.23-0.84    s0.54-0.4,0.84-0.23C74.41,369.61,74.51,369.98,74.34,370.28L74.34,370.28z M73.31,368.95c0.19-0.34,0.07-0.77-0.27-0.96    s-0.77-0.07-0.96,0.27s-0.07,0.77,0.27,0.96C72.69,369.41,73.12,369.29,73.31,368.95L73.31,368.95z M72.21,367.53    c-0.21,0.38-0.69,0.51-1.07,0.29c-0.38-0.21-0.51-0.69-0.29-1.07c0.21-0.38,0.69-0.51,1.07-0.29    C72.29,366.68,72.42,367.16,72.21,367.53L72.21,367.53z M76.54,373.65c0.14-0.24,0.45-0.33,0.69-0.19    c0.24,0.14,0.33,0.45,0.19,0.69s-0.45,0.33-0.69,0.19C76.48,374.2,76.4,373.89,76.54,373.65L76.54,373.65z M77.48,374.88    c0.17-0.3,0.54-0.4,0.84-0.23c0.3,0.17,0.4,0.54,0.23,0.84s-0.54,0.4-0.84,0.23C77.42,375.55,77.32,375.18,77.48,374.88    L77.48,374.88z M78.51,376.21c-0.19,0.34-0.07,0.77,0.27,0.96s0.77,0.07,0.96-0.27s0.07-0.77-0.27-0.96    C79.14,375.75,78.7,375.87,78.51,376.21L78.51,376.21z M79.62,377.62c0.21-0.38,0.69-0.51,1.07-0.29    c0.38,0.21,0.51,0.69,0.29,1.07c-0.21,0.38-0.69,0.51-1.07,0.29C79.53,378.48,79.4,378,79.62,377.62L79.62,377.62z M76.98,371.96    c-0.24-0.14-0.33-0.45-0.19-0.69s0.45-0.33,0.69-0.19c0.24,0.14,0.33,0.45,0.19,0.69S77.22,372.09,76.98,371.96L76.98,371.96z     M78.22,371.01c-0.3-0.17-0.4-0.54-0.23-0.84c0.17-0.29,0.54-0.4,0.84-0.23c0.29,0.17,0.4,0.54,0.23,0.84    C78.89,371.08,78.51,371.18,78.22,371.01L78.22,371.01z M79.54,369.98c0.34,0.19,0.77,0.07,0.96-0.27s0.07-0.77-0.27-0.96    s-0.77-0.07-0.97,0.27C79.08,369.36,79.2,369.79,79.54,369.98L79.54,369.98z M80.96,368.88c-0.38-0.21-0.51-0.69-0.29-1.07    c0.21-0.38,0.69-0.51,1.07-0.29c0.38,0.21,0.51,0.69,0.29,1.07C81.81,368.96,81.34,369.09,80.96,368.88L80.96,368.88z     M76.13,372.2c0.21,0.12,0.28,0.38,0.16,0.59c-0.12,0.21-0.38,0.28-0.59,0.16s-0.28-0.38-0.16-0.59    C75.66,372.16,75.92,372.09,76.13,372.2L76.13,372.2z M74.85,373.21c0.24,0.14,0.33,0.45,0.19,0.69s-0.45,0.33-0.69,0.19    c-0.24-0.14-0.33-0.45-0.19-0.69C74.3,373.15,74.6,373.07,74.85,373.21L74.85,373.21z M73.61,374.15c0.3,0.17,0.4,0.54,0.23,0.84    c-0.17,0.29-0.54,0.4-0.84,0.23c-0.3-0.17-0.4-0.54-0.23-0.84C72.94,374.09,73.32,373.98,73.61,374.15L73.61,374.15z     M72.29,375.18c-0.34-0.19-0.77-0.07-0.96,0.27s-0.07,0.77,0.27,0.96s0.77,0.07,0.96-0.27S72.63,375.37,72.29,375.18z"/>
		<path fill-rule="evenodd" clip-rule="evenodd" fill="#FFFFFF" d="M109.39,381.11c0.37-0.14,0.78,0.04,0.92,0.4    c0.14,0.37-0.04,0.78-0.4,0.92c-0.37,0.14-0.78-0.04-0.92-0.4C108.84,381.67,109.02,381.26,109.39,381.11L109.39,381.11z     M108.55,375.26c0.09,0.24-0.02,0.5-0.26,0.6c-0.24,0.09-0.5-0.02-0.6-0.26c-0.09-0.24,0.02-0.5,0.26-0.6    C108.19,374.91,108.45,375.03,108.55,375.26L108.55,375.26z M107.13,375.23c0.11,0.29-0.03,0.61-0.32,0.72    c-0.29,0.11-0.61-0.03-0.72-0.32s0.03-0.61,0.32-0.72C106.7,374.8,107.02,374.94,107.13,375.23L107.13,375.23z M105.61,375.19    c0.13,0.33-0.03,0.7-0.36,0.83c-0.33,0.13-0.7-0.03-0.83-0.36c-0.13-0.33,0.03-0.7,0.36-0.83    C105.11,374.7,105.48,374.86,105.61,375.19L105.61,375.19z M103.98,375.16c0.14,0.37-0.04,0.78-0.4,0.92    c-0.37,0.14-0.78-0.04-0.92-0.4c-0.14-0.37,0.04-0.78,0.4-0.92S103.83,374.8,103.98,375.16L103.98,375.16z M110.77,375.6    c-0.09-0.24,0.02-0.5,0.26-0.6c0.24-0.09,0.5,0.02,0.6,0.26c0.09,0.24-0.02,0.5-0.26,0.6    C111.13,375.96,110.86,375.84,110.77,375.6L110.77,375.6z M112.18,375.64c-0.11-0.29,0.03-0.61,0.32-0.72    c0.29-0.11,0.61,0.03,0.72,0.32s-0.03,0.61-0.32,0.72C112.62,376.07,112.29,375.93,112.18,375.64L112.18,375.64z M113.7,375.68    c-0.13-0.33,0.03-0.7,0.36-0.83c0.33-0.13,0.7,0.03,0.83,0.36c0.13,0.33-0.03,0.7-0.36,0.83    C114.21,376.17,113.83,376.01,113.7,375.68L113.7,375.68z M115.34,375.71c-0.14-0.37,0.04-0.78,0.4-0.92    c0.37-0.14,0.78,0.04,0.92,0.4c0.14,0.37-0.04,0.78-0.4,0.92C115.89,376.25,115.48,376.07,115.34,375.71L115.34,375.71z     M109.83,374.32c-0.24,0.09-0.5-0.02-0.6-0.26c-0.09-0.24,0.02-0.5,0.26-0.6c0.24-0.09,0.5,0.02,0.6,0.26    C110.18,373.96,110.06,374.23,109.83,374.32L109.83,374.32z M109.87,372.91c-0.29,0.11-0.61-0.03-0.72-0.32s0.03-0.61,0.32-0.72    c0.29-0.11,0.61,0.03,0.72,0.32C110.3,372.47,110.15,372.8,109.87,372.91L109.87,372.91z M109.9,371.39    c-0.33,0.13-0.7-0.03-0.83-0.36c-0.13-0.33,0.03-0.7,0.36-0.83c0.33-0.13,0.7,0.03,0.83,0.36    C110.39,370.88,110.23,371.26,109.9,371.39L109.9,371.39z M109.93,369.75c-0.37,0.14-0.78-0.04-0.92-0.4    c-0.14-0.37,0.04-0.78,0.4-0.92c0.37-0.14,0.78,0.04,0.92,0.4C110.48,369.2,110.3,369.61,109.93,369.75L109.93,369.75z     M109.52,375.07c0.2-0.08,0.43,0.02,0.51,0.22s-0.02,0.43-0.22,0.51c-0.2,0.08-0.43-0.02-0.51-0.22    C109.21,375.38,109.31,375.15,109.52,375.07L109.52,375.07z M109.49,376.54c0.24-0.09,0.5,0.02,0.6,0.26    c0.09,0.24-0.02,0.5-0.26,0.6c-0.24,0.09-0.5-0.02-0.6-0.26C109.14,376.9,109.25,376.64,109.49,376.54L109.49,376.54z     M109.45,377.96c0.29-0.11,0.61,0.03,0.72,0.32s-0.03,0.61-0.32,0.72c-0.29,0.11-0.61-0.03-0.72-0.32S109.16,378.07,109.45,377.96    L109.45,377.96z M109.42,379.48c0.33-0.13,0.7,0.03,0.83,0.36c0.13,0.33-0.03,0.7-0.36,0.83c-0.33,0.13-0.7-0.03-0.83-0.36    C108.92,379.98,109.09,379.61,109.42,379.48z"/>
		<path fill-rule="evenodd" clip-rule="evenodd" fill="#FFFFFF" d="M156.17,368.55c0.29-0.11,0.62,0.03,0.74,0.32    c0.11,0.29-0.03,0.62-0.32,0.74c-0.29,0.11-0.62-0.03-0.74-0.32C155.73,369,155.88,368.67,156.17,368.55L156.17,368.55z     M155.5,363.86c0.07,0.19-0.02,0.4-0.21,0.48c-0.19,0.07-0.4-0.02-0.48-0.21c-0.07-0.19,0.02-0.4,0.21-0.48    C155.21,363.58,155.42,363.67,155.5,363.86L155.5,363.86z M154.36,363.83c0.09,0.23-0.02,0.49-0.25,0.58s-0.49-0.02-0.58-0.25    s0.02-0.49,0.25-0.58C154.01,363.48,154.27,363.6,154.36,363.83L154.36,363.83z M153.14,363.8c0.1,0.27-0.03,0.56-0.29,0.67    c-0.27,0.1-0.56-0.03-0.67-0.29c-0.1-0.27,0.03-0.56,0.29-0.67C152.74,363.4,153.04,363.53,153.14,363.8L153.14,363.8z     M151.83,363.78c0.11,0.29-0.03,0.62-0.32,0.74s-0.62-0.03-0.74-0.32c-0.11-0.29,0.03-0.62,0.32-0.74    C151.39,363.34,151.72,363.48,151.83,363.78L151.83,363.78z M157.28,364.13c-0.07-0.19,0.02-0.4,0.21-0.48s0.4,0.02,0.48,0.21    c0.07,0.19-0.02,0.4-0.21,0.48C157.57,364.41,157.35,364.32,157.28,364.13L157.28,364.13z M158.41,364.16    c-0.09-0.23,0.02-0.49,0.25-0.58s0.49,0.02,0.58,0.25s-0.02,0.49-0.25,0.58C158.76,364.51,158.5,364.39,158.41,364.16    L158.41,364.16z M159.63,364.19c-0.1-0.27,0.03-0.56,0.29-0.67c0.27-0.1,0.56,0.03,0.67,0.29c0.1,0.27-0.03,0.56-0.29,0.67    C160.04,364.59,159.74,364.45,159.63,364.19L159.63,364.19z M160.94,364.21c-0.11-0.29,0.03-0.62,0.32-0.74    c0.29-0.11,0.62,0.03,0.74,0.32c0.11,0.29-0.03,0.62-0.32,0.74S161.06,364.51,160.94,364.21L160.94,364.21z M156.53,363.1    c-0.19,0.07-0.4-0.02-0.48-0.21c-0.07-0.19,0.02-0.4,0.21-0.48c0.19-0.07,0.4,0.02,0.48,0.21    C156.81,362.82,156.72,363.03,156.53,363.1L156.53,363.1z M156.56,361.97c-0.23,0.09-0.49-0.02-0.58-0.25s0.02-0.49,0.25-0.58    s0.49,0.02,0.58,0.25C156.9,361.62,156.79,361.88,156.56,361.97L156.56,361.97z M156.58,360.75c-0.26,0.1-0.56-0.03-0.67-0.29    c-0.1-0.27,0.03-0.56,0.29-0.67c0.27-0.1,0.56,0.03,0.67,0.29S156.85,360.64,156.58,360.75L156.58,360.75z M156.61,359.44    c-0.29,0.11-0.62-0.03-0.74-0.32c-0.11-0.29,0.03-0.62,0.32-0.74c0.29-0.11,0.62,0.03,0.74,0.32    C157.05,358.99,156.9,359.32,156.61,359.44L156.61,359.44z M156.27,363.7c0.16-0.06,0.35,0.02,0.41,0.18s-0.02,0.35-0.18,0.41    c-0.16,0.06-0.35-0.02-0.41-0.18C156.03,363.95,156.11,363.76,156.27,363.7L156.27,363.7z M156.25,364.89    c0.19-0.07,0.4,0.02,0.48,0.21c0.07,0.19-0.02,0.4-0.21,0.48c-0.19,0.07-0.4-0.02-0.48-0.21    C155.97,365.17,156.06,364.96,156.25,364.89L156.25,364.89z M156.22,366.02c0.23-0.09,0.49,0.02,0.58,0.25s-0.02,0.49-0.25,0.58    s-0.49-0.02-0.58-0.25C155.88,366.37,155.99,366.11,156.22,366.02L156.22,366.02z M156.2,367.24c0.27-0.1,0.56,0.03,0.67,0.29    c0.1,0.27-0.03,0.56-0.29,0.67c-0.27,0.1-0.56-0.03-0.67-0.29C155.8,367.64,155.93,367.35,156.2,367.24z"/>
		<path fill-rule="evenodd" clip-rule="evenodd" fill="#FFFFFF" d="M75.48,290.27c0.29,0.13,0.42,0.46,0.29,0.75    s-0.46,0.42-0.75,0.29s-0.42-0.46-0.29-0.75C74.86,290.27,75.2,290.14,75.48,290.27L75.48,290.27z M78.33,286.47    c-0.08,0.19-0.3,0.27-0.49,0.19c-0.19-0.08-0.27-0.3-0.19-0.49c0.08-0.19,0.3-0.27,0.49-0.19    C78.32,286.07,78.41,286.29,78.33,286.47L78.33,286.47z M77.55,285.65c0.1-0.23,0-0.49-0.23-0.59s-0.49,0-0.59,0.23    s0,0.49,0.23,0.59C77.19,285.98,77.45,285.88,77.55,285.65L77.55,285.65z M76.7,284.77c-0.11,0.26-0.42,0.38-0.68,0.27    c-0.26-0.11-0.38-0.42-0.27-0.68c0.11-0.26,0.42-0.38,0.68-0.27C76.7,284.2,76.82,284.51,76.7,284.77L76.7,284.77z M75.8,283.82    c0.13-0.29-0.01-0.62-0.29-0.75c-0.29-0.13-0.62,0.01-0.75,0.29c-0.13,0.29,0.01,0.62,0.29,0.75    C75.33,284.24,75.67,284.11,75.8,283.82L75.8,283.82z M79.39,287.93c0.08-0.19,0.3-0.27,0.49-0.19c0.19,0.08,0.27,0.3,0.19,0.49    c-0.08,0.19-0.3,0.27-0.49,0.19C79.4,288.33,79.31,288.11,79.39,287.93L79.39,287.93z M80.17,288.75c-0.1,0.23,0,0.49,0.23,0.59    s0.49,0,0.59-0.23s0-0.49-0.23-0.59C80.54,288.42,80.27,288.52,80.17,288.75L80.17,288.75z M81.02,289.63    c0.11-0.26,0.42-0.38,0.68-0.27c0.26,0.11,0.38,0.42,0.27,0.68c-0.11,0.26-0.42,0.38-0.68,0.27    C81.02,290.2,80.9,289.9,81.02,289.63L81.02,289.63z M81.93,290.58c-0.13,0.29,0.01,0.62,0.29,0.75c0.29,0.13,0.62-0.01,0.75-0.29    c0.13-0.29-0.01-0.62-0.29-0.75C82.39,290.16,82.05,290.29,81.93,290.58L81.93,290.58z M79.59,286.67    c-0.19-0.08-0.27-0.3-0.19-0.49c0.08-0.19,0.3-0.27,0.49-0.19c0.19,0.08,0.27,0.3,0.19,0.49    C79.99,286.67,79.77,286.75,79.59,286.67L79.59,286.67z M80.41,285.89c0.23,0.1,0.49,0,0.59-0.23s0-0.49-0.23-0.59    s-0.49,0-0.59,0.23C80.08,285.53,80.19,285.79,80.41,285.89L80.41,285.89z M81.3,285.04c-0.26-0.11-0.38-0.42-0.27-0.68    c0.11-0.26,0.42-0.38,0.68-0.27c0.26,0.11,0.38,0.42,0.27,0.68C81.86,285.04,81.56,285.16,81.3,285.04L81.3,285.04z M82.24,284.14    c0.29,0.13,0.62-0.01,0.75-0.29c0.13-0.29-0.01-0.62-0.29-0.75c-0.29-0.13-0.62,0.01-0.75,0.29S81.95,284.01,82.24,284.14    L82.24,284.14z M78.99,286.91c0.16,0.07,0.23,0.26,0.16,0.42s-0.26,0.23-0.42,0.16c-0.16-0.07-0.23-0.26-0.16-0.42    C78.64,286.92,78.83,286.84,78.99,286.91L78.99,286.91z M78.14,287.74c0.19,0.08,0.27,0.3,0.19,0.49    c-0.08,0.19-0.3,0.27-0.49,0.19c-0.19-0.08-0.27-0.3-0.19-0.49S77.95,287.65,78.14,287.74L78.14,287.74z M77.31,288.51    c-0.23-0.1-0.49,0-0.59,0.23s0,0.49,0.23,0.59s0.49,0,0.59-0.23C77.64,288.88,77.54,288.61,77.31,288.51L77.31,288.51z     M76.43,289.36c-0.26-0.11-0.57,0-0.68,0.27c-0.11,0.26,0,0.57,0.27,0.68c0.26,0.11,0.57,0,0.68-0.27    C76.81,289.78,76.69,289.47,76.43,289.36z"/>
		<path fill-rule="evenodd" clip-rule="evenodd" fill="#FFFFFF" d="M252.47,349.19c0.37,0.23,0.48,0.71,0.26,1.08    c-0.23,0.37-0.71,0.48-1.08,0.26c-0.37-0.23-0.48-0.71-0.26-1.08C251.62,349.08,252.1,348.96,252.47,349.19L252.47,349.19z     M257.04,344.57c-0.15,0.24-0.46,0.31-0.7,0.17c-0.24-0.15-0.31-0.46-0.17-0.7c0.15-0.24,0.46-0.31,0.7-0.17    C257.12,344.02,257.19,344.33,257.04,344.57L257.04,344.57z M256.14,343.31c-0.18,0.29-0.56,0.38-0.84,0.2    c-0.29-0.18-0.38-0.56-0.2-0.84c0.18-0.29,0.56-0.38,0.85-0.2C256.23,342.64,256.32,343.02,256.14,343.31L256.14,343.31z     M255.16,341.94c0.2-0.33,0.1-0.77-0.23-0.97s-0.77-0.1-0.97,0.23c-0.2,0.33-0.1,0.77,0.23,0.97    C254.52,342.38,254.96,342.28,255.16,341.94L255.16,341.94z M254.1,340.49c-0.23,0.37-0.71,0.48-1.08,0.26    c-0.37-0.23-0.48-0.71-0.26-1.08c0.23-0.37,0.71-0.48,1.08-0.26C254.22,339.64,254.33,340.12,254.1,340.49L254.1,340.49z     M258.22,346.75c0.15-0.24,0.46-0.31,0.7-0.17c0.24,0.15,0.31,0.46,0.17,0.7c-0.15,0.24-0.46,0.31-0.7,0.17    C258.15,347.3,258.07,346.99,258.22,346.75L258.22,346.75z M259.12,348.01c0.18-0.29,0.56-0.38,0.84-0.2    c0.29,0.18,0.38,0.56,0.2,0.85s-0.56,0.38-0.85,0.2C259.04,348.68,258.95,348.3,259.12,348.01L259.12,348.01z M260.1,349.38    c-0.2,0.33-0.1,0.77,0.23,0.97c0.33,0.2,0.77,0.1,0.97-0.23c0.2-0.33,0.1-0.77-0.23-0.97    C260.75,348.94,260.31,349.04,260.1,349.38L260.1,349.38z M261.16,350.83c0.23-0.37,0.71-0.48,1.08-0.26    c0.37,0.23,0.48,0.71,0.26,1.08c-0.23,0.37-0.71,0.48-1.08,0.26C261.05,351.68,260.93,351.2,261.16,350.83L261.16,350.83z     M258.72,345.07c-0.24-0.15-0.31-0.46-0.17-0.7c0.15-0.24,0.46-0.31,0.7-0.17c0.24,0.15,0.31,0.46,0.17,0.7    C259.27,345.15,258.96,345.22,258.72,345.07L258.72,345.07z M259.99,344.17c-0.29-0.18-0.38-0.56-0.2-0.84    c0.18-0.29,0.56-0.38,0.85-0.2s0.38,0.56,0.2,0.84C260.66,344.26,260.28,344.35,259.99,344.17L259.99,344.17z M261.35,343.19    c0.33,0.2,0.77,0.1,0.97-0.23c0.2-0.33,0.1-0.77-0.23-0.97c-0.33-0.2-0.77-0.1-0.97,0.23    C260.91,342.55,261.02,342.99,261.35,343.19L261.35,343.19z M262.8,342.13c-0.37-0.23-0.48-0.71-0.26-1.08    c0.23-0.37,0.71-0.48,1.08-0.26c0.37,0.23,0.48,0.71,0.26,1.08C263.65,342.24,263.17,342.36,262.8,342.13L262.8,342.13z     M257.86,345.29c0.2,0.13,0.27,0.39,0.14,0.6c-0.13,0.2-0.39,0.27-0.6,0.14c-0.2-0.12-0.27-0.39-0.14-0.6    C257.39,345.23,257.66,345.17,257.86,345.29L257.86,345.29z M256.55,346.25c0.24,0.15,0.31,0.46,0.17,0.7    c-0.15,0.24-0.46,0.31-0.7,0.17c-0.24-0.15-0.31-0.46-0.17-0.7C256,346.18,256.31,346.1,256.55,346.25L256.55,346.25z     M255.28,347.15c0.29,0.18,0.38,0.56,0.2,0.85c-0.18,0.29-0.56,0.38-0.84,0.2c-0.29-0.18-0.38-0.56-0.2-0.84    C254.61,347.07,254.99,346.98,255.28,347.15L255.28,347.15z M253.92,348.13c-0.33-0.2-0.77-0.1-0.97,0.23    c-0.2,0.33-0.1,0.77,0.23,0.97s0.77,0.1,0.97-0.23C254.36,348.78,254.25,348.34,253.92,348.13z"/>
	</g>
	
		<path fill-rule="evenodd" clip-rule="evenodd" fill="#000002" stroke="#DCDDDD" stroke-width="0.2999" stroke-miterlimit="22.9256" d="   M44.22,171.13c-11.01,6.57-25.3,9.7-43.74,7.76c0,0-0.51,13.04,0.1,32.99c1.68,54.76,18.49,117.64,1.58,238.8   c-1.46,10.44-0.94,7.14-1.66,13.12c3.35,1.76,18.03,7.82,45.74,11.32C55.4,374.81,59.77,273.79,44.22,171.13z"/>
	
		<path fill-rule="evenodd" clip-rule="evenodd" fill="#000001" stroke="#DCDDDD" stroke-width="0.2999" stroke-miterlimit="22.9256" d="   M107.85,2.83l6.62-2.67l0.23,1.8c4.49,35.46,21.95,96.91,54.06,118.51c32.1-21.6,49.57-83.05,54.06-118.51l0.23-1.8l6.62,2.67   c-5.05,39.9-24.6,105.21-60.9,125.76C132.46,108.04,112.91,42.73,107.85,2.83z"/>
	<path fill="none" stroke="#DCDDDD" stroke-width="0.2999" stroke-miterlimit="22.9256" d="M204.57,176.95   c-4.82,0-7.16,2.35-7.16,7.2c0,4.84,2.34,7.2,7.16,7.2h18.77c4.82,0,7.17-2.35,7.17-7.2c0-4.84-2.34-7.2-7.17-7.2H204.57   L204.57,176.95z M228.7,237.72c0-4.82-2.35-7.16-7.2-7.16c-4.84,0-7.2,2.34-7.2,7.16v18.77c0,4.82,2.35,7.16,7.2,7.16   c4.84,0,7.2-2.34,7.2-7.16V237.72L228.7,237.72z M107.1,256.48c0,4.82,2.35,7.16,7.2,7.16c4.84,0,7.2-2.34,7.2-7.16v-18.77   c0-4.82-2.35-7.16-7.2-7.16c-4.84,0-7.2,2.34-7.2,7.16V256.48L107.1,256.48z M112.46,302.86c-4.82,0-7.16,2.35-7.16,7.2   c0,4.84,2.34,7.2,7.16,7.2h18.77c4.82,0,7.17-2.35,7.17-7.2c0-4.84-2.34-7.2-7.17-7.2H112.46L112.46,302.86z M204.57,302.86   c-4.82,0-7.16,2.35-7.16,7.2c0,4.84,2.34,7.2,7.16,7.2h18.77c4.82,0,7.17-2.35,7.17-7.2c0-4.84-2.34-7.2-7.17-7.2H204.57   L204.57,302.86z M112.46,176.95c-4.82,0-7.16,2.35-7.16,7.2c0,4.84,2.34,7.2,7.16,7.2h18.77c4.82,0,7.17-2.35,7.17-7.2   c0-4.84-2.34-7.2-7.17-7.2H112.46z"/>
	
		<path fill-rule="evenodd" clip-rule="evenodd" fill="#000001" stroke="#DCDDDD" stroke-width="0.2999" stroke-miterlimit="22.9256" d="   M69.93,44.05c2.37,18.55,3.39,37.91,1.76,56.55c-1.7,19.33-6.73,41.91-20.53,56.41c-2.23,2.35-4.69,4.47-7.35,6.32   c-2.76,1.92-6.04,3.59-9.14,4.88C24.16,172.6,12.41,173.18,1.2,172l-0.72,6.86c14.81,1.56,26.94-0.15,36.85-4.29   c3.44-1.44,7.35-3.45,10.42-5.59C99.33,133.15,72.17,16.16,72.17,16.16l-6.72,2.71C67.43,27.4,68.82,35.39,69.93,44.05z"/>
	
		<path fill-rule="evenodd" clip-rule="evenodd" fill="#000001" stroke="#DCDDDD" stroke-width="0.2999" stroke-miterlimit="22.9256" d="   M267.58,44.05c-2.37,18.55-3.39,37.91-1.76,56.55c1.7,19.33,6.73,41.91,20.53,56.41c2.23,2.35,4.69,4.47,7.35,6.32   c2.76,1.92,6.04,3.59,9.14,4.88c10.51,4.39,22.26,4.97,33.47,3.79l0.72,6.86c-14.81,1.56-26.94-0.15-36.85-4.29   c-3.44-1.44-7.35-3.45-10.42-5.59c-51.59-35.86-24.42-152.85-24.42-152.85l6.72,2.71C270.09,27.4,268.69,35.39,267.58,44.05z"/>
	<path fill="none" stroke="#DCDDDD" stroke-width="0.2577" stroke-dasharray="1.2883,1.2883" d="M2.69,453.44   c0.44,0.15,11.18,3.39,11.63,3.53c7.29,2.27,15.72,3.74,22.09,4.74c15.33,2.41,31.02,3.71,46.51,4.64   c28.65,1.72,57.17,1.94,85.84,1.94c28.41,0.01,56.59,0.02,84.99-1.57c16.54-0.93,47.59-2.97,67.53-8.93   c1.12-0.33,12.55-3.79,13.6-4.15"/>
	
</g>
<g id="图层_x0020_1">
	<path fill="#F08300" d="M156.94,43.49c0.416,1.136,1.472,1.984,2.752,2.032c0.144,0,0.304,0,0.448-0.016h0.016   c0.016,0,0.064,0,0.128-0.016c0.032,0,0.048-0.016,0.08-0.016c0.064-0.016,0.144-0.032,0.224-0.048c0.016,0,0.016,0,0.032,0   c0.192-0.048,0.4-0.112,0.576-0.208c0.192-0.096,0.4-0.224,0.608-0.384c0.672-0.56,1.104-1.408,1.104-2.352   c0-0.224-0.032-0.448-0.08-0.672l0,0C162.78,41.61,162.73,41.44,162.65,41.26C162.18,40.17,161.1,39.41,159.83,39.41C158.14,39.41,156.76,40.78,156.76,42.48C156.76,42.83,156.82,43.17,156.94,43.49L156.94,43.49L156.94,43.49z M161.24,42.51L161.24,42.51C161.21,43.29,160.55,43.89,159.77,43.85C158.98,43.82,158.39,43.17,158.42,42.38c0.032-0.784,0.688-1.376,1.472-1.344   C160.66,41.07,161.27,41.74,161.24,42.51L161.24,42.51z"/>
	<polygon fill="#F08300" points="175.27,40.09 ,174.63,41.68 ,173.19,41.68 ,171.77,45.23 ,169.82,45.23 ,171.22,41.68 ,169.64,41.68    ,170.28,40.09"/>
	<path fill="#F08300" d="M177.24,35.36c-1.008-0.096-3.024-0.144-5.056,0.112c-2.416,0.304-5.152,0.912-7.616,1.664   C162.52,37.74,160.65,38.46,159.3,39.23C159.5,39.2,159.69,39.18,159.88,39.18c0.48,0,0.944,0.112,1.36,0.288   C165.34,37.15,172.54,35.1,177.24,35.36L177.24,35.36L177.24,35.36z"/>
	<path fill="#F08300" d="M162.71,40.83c4-2.368,8.88-4.672,13.488-5.248c-4.608,0.288-10.224,2-14.288,4.304   C162.23,40.14,162.5,40.46,162.71,40.83C162.71,40.83,162.71,40.83,162.71,40.83z"/>
	<polygon fill="#F08300" points="180.76,40.09 ,180.14,41.68 ,178.68,41.68 ,177.27,45.23 ,176.81,45.23 ,175.3,45.23 ,173.61,45.23    ,174.2,43.73 ,175.91,43.73 ,176.73,41.68 ,175.14,41.68 ,175.78,40.09"/>
	<polygon fill="#F08300" points="169.85,40.09 ,169.21,41.68 ,166.92,43.79 ,169.18,43.79 ,168.6,45.23 ,163.11,45.23 ,166.78,41.68    ,164.2,41.68 ,164.84,40.09"/>
	<path fill="#F08300" d="M175.13,35.95c-3.376,0.752-6.464,2.192-9.424,3.952h1.888C170.02,38.33,172.36,36.9,175.13,35.95z    M164.33,40.77C163.7,41.15,163.64,41.2,163.03,41.61c0.064,0.256,0.112,0.544,0.112,0.816c0,0.496-0.112,0.976-0.32,1.392   c0.176-0.16,0.32-0.304,0.432-0.4c0.272-0.24,0.768-0.64,1.6-1.296l0.32-0.256H163.85l0,0L164.33,40.77L164.33,40.77L164.33,40.77z"/>
</g>
</svg>