<?xml version="1.0" encoding="utf-8"?>
<!-- Generator: Adobe Illustrator 23.0.0, SVG Export Plug-In . SVG Version: 6.00 Build 0)  -->
<svg xmlns="http://www.w3.org/2000/svg" xmlns:xlink="http://www.w3.org/1999/xlink" version="1.1" id="图层_1" x="0px" y="0px" width="380px" height="246px" viewBox="0 0 380 246" enable-background="new 0 0 380 246" xml:space="preserve">
<g>
	<path fill-rule="evenodd" clip-rule="evenodd" fill="#00653D" d="M189.99,245.7L189.99,245.7l-3.11-0.01l-3.1-0.02l-3.1-0.03   l-3.1-0.04l-3.1-0.05l-3.1-0.06l-3.1-0.07l-3.1-0.08l-3.1-0.09l-3.1-0.1l-3.1-0.11l-3.06-0.11l-3.06-0.12l-3.06-0.13l-3.06-0.14   l-3.06-0.15l-3.06-0.17l-3.06-0.18l-3.06-0.19l-3.06-0.21l-3.08-0.23l-3.07-0.24l-3.07-0.26l-3.07-0.28l-3.07-0.3l-3.07-0.32   l-3.06-0.35l-3.06-0.37l-3.06-0.39l-3.01-0.41l-3.01-0.44l-3-0.46l-3-0.48l-3-0.51l-2.99-0.53l-2.99-0.55l-2.98-0.57l-2.97-0.59   l-2.97-0.61l-2.97-0.63l-2.96-0.65l-2.96-0.67l-2.95-0.69l-2.98-0.73l-2.95-0.72l-2.96-0.74l-2.95-0.76l-2.95-0.77l-2.95-0.79   l-2.94-0.8l-2.94-0.81l-2.94-0.82l-2.93-0.83l-2.93-0.84l-2.93-0.85l-2.93-0.86l-2.93-0.87l-2.92-0.87l-2.92-0.88L9,219.29   l-2.92-0.88l-2.92-0.88l-2.92-0.89C16.48,143.51,37.36,73,59.21,0.46c104.81,28.96,156.76,28.96,261.57,0   c21.85,72.55,42.73,143.05,58.97,216.16l-2.92,0.89l-2.92,0.88l-2.92,0.88l-2.92,0.88l-2.92,0.88l-2.92,0.87l-2.93,0.87l-2.93,0.86   l-2.93,0.85l-2.93,0.84l-2.93,0.83l-2.94,0.82l-2.94,0.81l-2.94,0.8l-2.95,0.79l-2.95,0.77l-2.95,0.76l-2.96,0.74l-2.95,0.72   l-2.95,0.71l-2.95,0.69l-2.96,0.67l-2.96,0.65l-2.97,0.63l-2.97,0.61l-2.97,0.59l-2.98,0.57l-2.99,0.55l-2.99,0.53l-3,0.51l-3,0.48   l-3,0.46l-3.01,0.44l-3.01,0.41l-3.06,0.39l-3.06,0.37l-3.06,0.35l-3.07,0.32l-3.07,0.3l-3.07,0.28l-3.07,0.26l-3.07,0.24   l-3.08,0.23l-3.06,0.21l-3.06,0.19l-3.06,0.18l-3.06,0.17l-3.06,0.15l-3.06,0.14l-3.06,0.13l-3.06,0.12l-3.06,0.11l-3.1,0.11   l-3.1,0.1l-3.1,0.09l-3.1,0.08l-3.1,0.07l-3.1,0.06l-3.1,0.05l-3.1,0.04l-3.1,0.03l-3.1,0.02L189.99,245.7L189.99,245.7z"/>
	<g>
		<path fill-rule="evenodd" clip-rule="evenodd" fill="#FFFFFF" d="M166.28,201.28c1.68-0.52,3.45,0.42,3.97,2.1    c0.52,1.68-0.42,3.45-2.1,3.97c-1.68,0.52-3.45-0.42-3.97-2.1C163.66,203.57,164.6,201.8,166.28,201.28L166.28,201.28z     M164.49,174.94c0.33,1.08-0.27,2.23-1.36,2.57c-1.08,0.33-2.23-0.27-2.57-1.36c-0.33-1.08,0.27-2.23,1.36-2.57    C162.99,173.25,164.14,173.86,164.49,174.94L164.49,174.94z M158.19,174.3c0.41,1.32-0.33,2.71-1.65,3.12    c-1.32,0.41-2.71-0.33-3.12-1.65c-0.41-1.32,0.33-2.71,1.65-3.12C156.39,172.24,157.79,172.98,158.19,174.3L158.19,174.3z     M151.41,173.64c0.47,1.52-0.38,3.12-1.9,3.59c-1.52,0.47-3.12-0.38-3.59-1.9c-0.47-1.52,0.38-3.12,1.9-3.59    C149.35,171.27,150.94,172.12,151.41,173.64L151.41,173.64z M144.15,172.96c0.52,1.68-0.42,3.45-2.1,3.97    c-1.68,0.52-3.45-0.42-3.97-2.1c-0.52-1.68,0.42-3.45,2.1-3.97C141.86,170.35,143.64,171.29,144.15,172.96L144.15,172.96z     M174.26,177.19c-0.33-1.09,0.27-2.23,1.36-2.57c1.08-0.33,2.23,0.27,2.57,1.36c0.33,1.08-0.27,2.23-1.36,2.57    C175.74,178.88,174.6,178.27,174.26,177.19L174.26,177.19z M180.54,177.83c-0.41-1.32,0.33-2.71,1.65-3.12    c1.32-0.41,2.71,0.33,3.12,1.65c0.41,1.32-0.33,2.71-1.65,3.12C182.35,179.88,180.96,179.15,180.54,177.83L180.54,177.83z     M187.32,178.48c-0.47-1.52,0.38-3.12,1.9-3.59c1.52-0.47,3.12,0.38,3.59,1.9c0.47,1.52-0.38,3.12-1.9,3.59    C189.4,180.85,187.79,180,187.32,178.48L187.32,178.48z M194.58,179.16c-0.52-1.68,0.42-3.45,2.1-3.97    c1.68-0.52,3.45,0.42,3.97,2.1c0.52,1.68-0.42,3.45-2.1,3.97C196.88,181.78,195.1,180.84,194.58,179.16L194.58,179.16z     M170.5,171.17c-1.08,0.33-2.23-0.27-2.57-1.36c-0.33-1.08,0.27-2.23,1.36-2.57c1.08-0.33,2.23,0.27,2.57,1.36    C172.19,169.69,171.6,170.84,170.5,171.17L170.5,171.17z M171.14,164.89c-1.32,0.41-2.71-0.33-3.12-1.65    c-0.41-1.32,0.33-2.71,1.65-3.12c1.32-0.41,2.71,0.33,3.12,1.65C173.21,163.09,172.46,164.49,171.14,164.89L171.14,164.89z     M171.8,158.11c-1.52,0.47-3.12-0.38-3.59-1.9c-0.47-1.52,0.38-3.12,1.9-3.59c1.52-0.47,3.12,0.38,3.59,1.9    C174.17,156.03,173.32,157.64,171.8,158.11L171.8,158.11z M172.49,150.85c-1.68,0.52-3.45-0.42-3.97-2.1    c-0.52-1.68,0.42-3.45,2.1-3.97c1.68-0.52,3.45,0.42,3.97,2.1C175.1,148.55,174.15,150.33,172.49,150.85L172.49,150.85z     M168.86,174.38c0.93-0.29,1.91,0.23,2.2,1.16c0.29,0.93-0.23,1.91-1.16,2.2c-0.93,0.29-1.91-0.23-2.2-1.16    S167.93,174.67,168.86,174.38L168.86,174.38z M168.26,180.95c1.09-0.33,2.23,0.27,2.57,1.36c0.33,1.09-0.27,2.23-1.36,2.57    c-1.09,0.33-2.23-0.27-2.57-1.36C166.57,182.44,167.17,181.29,168.26,180.95L168.26,180.95z M167.61,187.24    c1.32-0.41,2.71,0.33,3.12,1.65c0.41,1.32-0.33,2.71-1.65,3.12c-1.32,0.41-2.71-0.33-3.12-1.65    C165.57,189.04,166.3,187.64,167.61,187.24L167.61,187.24z M166.96,194.02c1.52-0.47,3.12,0.38,3.59,1.9    c0.47,1.52-0.38,3.12-1.9,3.59c-1.52,0.47-3.12-0.38-3.59-1.9C164.6,196.09,165.44,194.49,166.96,194.02z"/>
		<path fill-rule="evenodd" clip-rule="evenodd" fill="#FFFFFF" d="M235.39,200.38c0.83-0.41,1.83-0.07,2.24,0.75    c0.41,0.83,0.07,1.83-0.75,2.24c-0.83,0.41-1.83,0.07-2.24-0.75C234.24,201.79,234.57,200.79,235.39,200.38L235.39,200.38z     M232.24,186.85c0.27,0.53,0.05,1.18-0.49,1.45c-0.54,0.27-1.18,0.05-1.45-0.49c-0.27-0.53-0.05-1.18,0.49-1.45    C231.32,186.1,231.96,186.32,232.24,186.85L232.24,186.85z M228.91,187.05c0.32,0.65,0.06,1.44-0.59,1.76    c-0.65,0.32-1.44,0.06-1.76-0.59c-0.32-0.65-0.06-1.44,0.59-1.76C227.8,186.13,228.6,186.4,228.91,187.05L228.91,187.05z     M225.33,187.28c0.37,0.75,0.07,1.66-0.68,2.03s-1.66,0.07-2.03-0.68s-0.07-1.66,0.68-2.03    C224.05,186.23,224.96,186.53,225.33,187.28L225.33,187.28z M221.51,187.55c0.41,0.83,0.07,1.83-0.75,2.24    c-0.83,0.41-1.83,0.07-2.24-0.75c-0.41-0.83-0.07-1.83,0.75-2.24C220.1,186.38,221.1,186.72,221.51,187.55L221.51,187.55z     M237.5,187.19c-0.27-0.54-0.05-1.18,0.49-1.45c0.54-0.27,1.18-0.05,1.45,0.49c0.27,0.54,0.05,1.18-0.49,1.45    C238.41,187.94,237.76,187.73,237.5,187.19L237.5,187.19z M240.82,186.99c-0.32-0.65-0.06-1.44,0.59-1.76    c0.65-0.32,1.44-0.06,1.76,0.59c0.32,0.65,0.06,1.44-0.59,1.76C241.92,187.91,241.14,187.64,240.82,186.99L240.82,186.99z     M244.39,186.76c-0.37-0.75-0.07-1.65,0.68-2.03c0.75-0.37,1.65-0.07,2.03,0.68c0.37,0.75,0.07,1.66-0.68,2.03    C245.67,187.81,244.76,187.51,244.39,186.76L244.39,186.76z M248.22,186.5c-0.41-0.83-0.07-1.83,0.75-2.24    c0.83-0.41,1.83-0.07,2.24,0.75c0.41,0.83,0.07,1.83-0.75,2.24C249.63,187.66,248.63,187.32,248.22,186.5L248.22,186.5z     M235.04,184.39c-0.53,0.27-1.18,0.05-1.45-0.49c-0.27-0.54-0.05-1.18,0.49-1.45c0.53-0.26,1.18-0.05,1.45,0.49    C235.79,183.47,235.57,184.12,235.04,184.39L235.04,184.39z M234.85,181.07c-0.65,0.32-1.44,0.06-1.76-0.59    c-0.32-0.65-0.06-1.44,0.59-1.76c0.65-0.32,1.44-0.06,1.76,0.59C235.76,179.96,235.49,180.75,234.85,181.07L234.85,181.07z     M234.61,177.49c-0.75,0.37-1.66,0.07-2.03-0.68s-0.07-1.66,0.68-2.03s1.66-0.07,2.03,0.68    C235.66,176.21,235.36,177.12,234.61,177.49L234.61,177.49z M234.35,173.66c-0.83,0.41-1.83,0.07-2.24-0.75    c-0.41-0.83-0.07-1.83,0.75-2.24c0.83-0.41,1.83-0.07,2.24,0.75C235.51,172.25,235.17,173.25,234.35,173.66L234.35,173.66z     M234.46,186.19c0.46-0.23,1.01-0.04,1.24,0.42c0.23,0.46,0.04,1.01-0.42,1.24c-0.46,0.23-1.01,0.04-1.24-0.42    C233.82,186.97,234,186.42,234.46,186.19L234.46,186.19z M234.71,189.66c0.54-0.27,1.18-0.05,1.45,0.49    c0.27,0.54,0.05,1.18-0.49,1.45c-0.54,0.27-1.18,0.05-1.45-0.49C233.96,190.57,234.16,189.92,234.71,189.66L234.71,189.66z     M234.9,192.97c0.65-0.32,1.44-0.06,1.76,0.59c0.32,0.65,0.06,1.44-0.59,1.76c-0.65,0.32-1.44,0.06-1.76-0.59    C233.99,194.08,234.25,193.29,234.9,192.97L234.9,192.97z M235.13,196.55c0.75-0.37,1.65-0.07,2.03,0.68    c0.37,0.75,0.07,1.65-0.68,2.03c-0.75,0.37-1.66,0.07-2.03-0.68C234.08,197.83,234.38,196.92,235.13,196.55z"/>
		<path fill-rule="evenodd" clip-rule="evenodd" fill="#FFFFFF" d="M224.14,167.48c0.18-0.47,0.7-0.71,1.17-0.54    c0.47,0.17,0.71,0.7,0.54,1.17c-0.17,0.47-0.7,0.71-1.17,0.54C224.21,168.48,223.97,167.96,224.14,167.48L224.14,167.48z     M217.82,163.29c0.31,0.11,0.46,0.45,0.35,0.76s-0.45,0.46-0.76,0.35s-0.46-0.45-0.35-0.76    C217.17,163.33,217.51,163.18,217.82,163.29L217.82,163.29z M216.57,164.61c-0.37-0.14-0.78,0.05-0.92,0.42s0.05,0.78,0.42,0.92    s0.78-0.05,0.92-0.42S216.94,164.75,216.57,164.61L216.57,164.61z M215.24,166.05c0.43,0.16,0.65,0.63,0.49,1.06    c-0.16,0.43-0.63,0.65-1.06,0.49c-0.43-0.16-0.65-0.63-0.49-1.06C214.33,166.11,214.8,165.89,215.24,166.05L215.24,166.05z     M213.82,167.59c-0.47-0.18-1,0.07-1.17,0.54c-0.17,0.47,0.07,1,0.54,1.17c0.47,0.18,1-0.07,1.17-0.54    C214.52,168.29,214.28,167.76,213.82,167.59L213.82,167.59z M220.04,161.45c-0.31-0.11-0.46-0.45-0.35-0.76s0.45-0.46,0.76-0.35    s0.46,0.45,0.35,0.76C220.68,161.41,220.35,161.56,220.04,161.45L220.04,161.45z M221.28,160.13c0.37,0.14,0.78-0.05,0.92-0.42    s-0.05-0.78-0.42-0.92s-0.78,0.05-0.92,0.42S220.91,159.99,221.28,160.13L221.28,160.13z M222.63,158.69    c-0.43-0.16-0.65-0.63-0.49-1.06c0.16-0.43,0.63-0.65,1.06-0.49c0.43,0.16,0.65,0.63,0.49,1.06    C223.52,158.63,223.04,158.85,222.63,158.69L222.63,158.69z M224.04,157.15c0.47,0.17,1-0.07,1.17-0.54    c0.17-0.47-0.07-1-0.54-1.17c-0.47-0.17-1,0.07-1.17,0.54C223.32,156.45,223.57,156.98,224.04,157.15L224.04,157.15z     M218.01,161.26c-0.11,0.31-0.45,0.46-0.76,0.35s-0.46-0.45-0.35-0.76s0.45-0.46,0.76-0.35    C217.96,160.61,218.13,160.95,218.01,161.26L218.01,161.26z M216.68,160.01c0.14-0.37-0.05-0.78-0.42-0.92s-0.78,0.05-0.92,0.42    s0.05,0.78,0.42,0.92C216.13,160.57,216.55,160.38,216.68,160.01L216.68,160.01z M215.25,158.68c-0.16,0.43-0.63,0.65-1.06,0.49    c-0.43-0.16-0.65-0.63-0.49-1.06c0.16-0.43,0.63-0.65,1.06-0.49C215.19,157.77,215.41,158.25,215.25,158.68L215.25,158.68z     M213.71,157.25c0.17-0.47-0.07-1-0.54-1.17c-0.47-0.17-1,0.07-1.17,0.54c-0.17,0.47,0.07,1,0.54,1.17    C213.01,157.97,213.53,157.73,213.71,157.25L213.71,157.25z M218.46,162.19c0.1-0.26,0.39-0.4,0.65-0.3    c0.26,0.1,0.4,0.39,0.3,0.65c-0.1,0.26-0.39,0.4-0.65,0.3C218.49,162.74,218.36,162.45,218.46,162.19L218.46,162.19z     M219.85,163.48c0.11-0.31,0.45-0.46,0.76-0.35s0.46,0.45,0.35,0.76s-0.45,0.46-0.76,0.35    C219.89,164.12,219.74,163.79,219.85,163.48L219.85,163.48z M221.17,164.72c-0.14,0.37,0.05,0.78,0.42,0.92s0.78-0.05,0.92-0.42    s-0.05-0.78-0.42-0.92S221.32,164.35,221.17,164.72L221.17,164.72z M222.6,166.06c-0.16,0.43,0.06,0.9,0.49,1.06    c0.43,0.16,0.9-0.06,1.06-0.49c0.16-0.43-0.06-0.9-0.49-1.06C223.24,165.41,222.76,165.63,222.6,166.06z"/>
		<path fill-rule="evenodd" clip-rule="evenodd" fill="#FFFFFF" d="M200.13,215.25c0.56-0.45,1.38-0.36,1.83,0.2s0.36,1.38-0.2,1.83    s-1.38,0.36-1.83-0.2C199.49,216.51,199.57,215.69,200.13,215.25L200.13,215.25z M195.49,205.49c0.29,0.36,0.23,0.89-0.13,1.18    s-0.89,0.23-1.18-0.13s-0.23-0.89,0.13-1.18C194.66,205.07,195.19,205.13,195.49,205.49L195.49,205.49z M192.99,206.19    c0.35,0.44,0.28,1.08-0.16,1.43c-0.44,0.35-1.08,0.28-1.43-0.16c-0.35-0.44-0.28-1.08,0.16-1.43    C191.99,205.68,192.64,205.76,192.99,206.19L192.99,206.19z M190.32,206.97c0.41,0.51,0.32,1.25-0.18,1.65    c-0.51,0.41-1.25,0.32-1.65-0.18c-0.41-0.51-0.32-1.25,0.18-1.65C189.16,206.38,189.9,206.46,190.32,206.97L190.32,206.97z     M187.44,207.8c0.45,0.56,0.36,1.38-0.2,1.83s-1.38,0.36-1.83-0.2s-0.36-1.38,0.2-1.83C186.18,207.15,187,207.24,187.44,207.8    L187.44,207.8z M199.54,204.88c-0.29-0.36-0.23-0.89,0.13-1.18s0.89-0.23,1.18,0.13s0.23,0.89-0.13,1.18    S199.83,205.24,199.54,204.88L199.54,204.88z M202.02,204.18c-0.35-0.44-0.28-1.08,0.16-1.43c0.44-0.35,1.08-0.28,1.43,0.16    c0.35,0.44,0.28,1.08-0.16,1.43C203.02,204.69,202.38,204.62,202.02,204.18L202.02,204.18z M204.71,203.4    c-0.41-0.51-0.32-1.25,0.18-1.65c0.51-0.41,1.25-0.32,1.65,0.18c0.41,0.51,0.32,1.25-0.18,1.65    C205.85,203.99,205.11,203.91,204.71,203.4L204.71,203.4z M207.57,202.57c-0.45-0.56-0.36-1.38,0.2-1.83s1.38-0.36,1.83,0.2    s0.36,1.38-0.2,1.83C208.83,203.22,208.02,203.13,207.57,202.57L207.57,202.57z M197.21,203.15c-0.36,0.29-0.89,0.23-1.18-0.13    s-0.23-0.89,0.13-1.18s0.89-0.23,1.18,0.13S197.57,202.86,197.21,203.15L197.21,203.15z M196.5,200.67    c-0.44,0.35-1.08,0.28-1.43-0.16c-0.35-0.44-0.28-1.08,0.16-1.43c0.44-0.35,1.08-0.28,1.43,0.16    C197.01,199.67,196.94,200.31,196.5,200.67L196.5,200.67z M195.74,197.99c-0.51,0.41-1.25,0.32-1.65-0.18    c-0.41-0.51-0.32-1.25,0.18-1.65c0.51-0.41,1.25-0.32,1.65,0.18C196.32,196.84,196.24,197.58,195.74,197.99L195.74,197.99z     M194.89,195.12c-0.56,0.45-1.38,0.36-1.83-0.2s-0.36-1.38,0.2-1.83s1.38-0.36,1.83,0.2    C195.54,193.86,195.46,194.67,194.89,195.12L194.89,195.12z M197.07,204.62c0.31-0.25,0.76-0.2,1.01,0.11s0.2,0.76-0.11,1.01    s-0.76,0.2-1.01-0.11C196.71,205.32,196.75,204.87,197.07,204.62L197.07,204.62z M197.82,207.21c0.36-0.29,0.89-0.23,1.18,0.13    s0.23,0.89-0.13,1.18s-0.89,0.23-1.18-0.13S197.46,207.5,197.82,207.21L197.82,207.21z M198.52,209.7    c0.44-0.35,1.08-0.28,1.43,0.16c0.35,0.44,0.28,1.08-0.16,1.43c-0.44,0.35-1.08,0.28-1.43-0.16    C198.01,210.7,198.08,210.05,198.52,209.7L198.52,209.7z M199.29,212.38c0.51-0.41,1.25-0.32,1.65,0.18    c0.41,0.51,0.32,1.25-0.18,1.65c-0.51,0.41-1.25,0.32-1.65-0.18C198.71,213.53,198.79,212.79,199.29,212.38z"/>
		<path fill-rule="evenodd" clip-rule="evenodd" fill="#FFFFFF" d="M252.63,222.85c0.7,0.16,1.14,0.86,0.97,1.56    c-0.16,0.7-0.86,1.14-1.56,0.98s-1.14-0.86-0.97-1.56C251.22,223.12,251.92,222.69,252.63,222.85L252.63,222.85z M257.39,213.15    c-0.1,0.45-0.56,0.74-1.01,0.63c-0.45-0.1-0.74-0.56-0.63-1.01c0.1-0.45,0.56-0.74,1.01-0.63    C257.2,212.25,257.48,212.7,257.39,213.15L257.39,213.15z M255.29,211.63c-0.13,0.55-0.67,0.89-1.22,0.77    c-0.55-0.13-0.89-0.67-0.77-1.22c0.13-0.55,0.67-0.89,1.22-0.77C255.07,210.54,255.41,211.09,255.29,211.63L255.29,211.63z     M253.02,210.01c-0.15,0.63-0.78,1.03-1.41,0.88s-1.03-0.78-0.88-1.41s0.78-1.03,1.41-0.88    C252.77,208.75,253.16,209.38,253.02,210.01L253.02,210.01z M250.6,208.28c0.16-0.7-0.28-1.4-0.98-1.56s-1.4,0.28-1.56,0.98    s0.28,1.4,0.98,1.56S250.43,208.98,250.6,208.28L250.6,208.28z M260.39,215.95c0.1-0.45,0.56-0.73,1.01-0.63    c0.45,0.1,0.73,0.56,0.63,1.01s-0.56,0.74-1.01,0.63C260.57,216.86,260.29,216.4,260.39,215.95L260.39,215.95z M262.48,217.47    c0.13-0.55,0.67-0.89,1.22-0.77c0.55,0.13,0.89,0.67,0.77,1.22c-0.13,0.55-0.67,0.89-1.22,0.77    C262.7,218.56,262.35,218.02,262.48,217.47L262.48,217.47z M264.74,219.09c0.15-0.63,0.78-1.03,1.41-0.88s1.03,0.78,0.88,1.41    s-0.78,1.03-1.41,0.88S264.6,219.72,264.74,219.09L264.74,219.09z M267.17,220.82c-0.16,0.7,0.28,1.4,0.97,1.56    c0.7,0.16,1.4-0.28,1.56-0.97c0.16-0.7-0.28-1.4-0.98-1.56C268.04,219.68,267.35,220.12,267.17,220.82L267.17,220.82z     M260.29,213.05c-0.45-0.1-0.74-0.56-0.63-1.01c0.1-0.45,0.56-0.73,1.01-0.63c0.45,0.1,0.73,0.56,0.63,1.01    S260.74,213.16,260.29,213.05L260.29,213.05z M261.8,210.96c-0.55-0.13-0.89-0.67-0.77-1.22c0.13-0.55,0.67-0.89,1.22-0.77    c0.55,0.13,0.89,0.67,0.77,1.22C262.9,210.74,262.35,211.09,261.8,210.96L261.8,210.96z M263.42,208.69    c-0.63-0.15-1.03-0.78-0.88-1.41s0.78-1.03,1.41-0.88s1.03,0.78,0.88,1.41C264.7,208.44,264.07,208.84,263.42,208.69    L263.42,208.69z M265.15,206.26c0.7,0.16,1.4-0.28,1.56-0.97c0.16-0.7-0.28-1.4-0.98-1.56s-1.4,0.28-1.56,0.97    C264.02,205.4,264.45,206.1,265.15,206.26L265.15,206.26z M259.05,213.85c0.39,0.09,0.63,0.47,0.54,0.86s-0.47,0.63-0.86,0.54    c-0.39-0.09-0.63-0.47-0.54-0.86C258.27,214.01,258.67,213.76,259.05,213.85L259.05,213.85z M257.48,216.06    c0.45,0.1,0.73,0.56,0.63,1.01s-0.56,0.74-1.01,0.63c-0.45-0.1-0.73-0.56-0.63-1.01C256.58,216.23,257.04,215.95,257.48,216.06    L257.48,216.06z M255.97,218.15c0.55,0.13,0.89,0.67,0.77,1.22c-0.13,0.55-0.67,0.89-1.22,0.77c-0.55-0.13-0.89-0.67-0.77-1.22    C254.88,218.36,255.42,218.02,255.97,218.15L255.97,218.15z M254.35,220.42c-0.63-0.15-1.26,0.25-1.41,0.88    c-0.15,0.63,0.25,1.26,0.88,1.41c0.63,0.15,1.26-0.25,1.41-0.88C255.38,221.19,254.99,220.56,254.35,220.42z"/>
		<path fill-rule="evenodd" clip-rule="evenodd" fill="#FFFFFF" d="M220.57,225.82c0.36-0.3,0.9-0.26,1.21,0.11    c0.3,0.36,0.26,0.9-0.11,1.21c-0.36,0.3-0.9,0.26-1.21-0.11C220.16,226.66,220.21,226.12,220.57,225.82L220.57,225.82z     M217.36,219.46c0.2,0.23,0.17,0.58-0.07,0.78c-0.23,0.2-0.58,0.17-0.78-0.07c-0.2-0.23-0.17-0.58,0.07-0.78    C216.82,219.2,217.17,219.23,217.36,219.46L217.36,219.46z M215.74,219.96c0.24,0.28,0.2,0.71-0.08,0.95    c-0.28,0.24-0.71,0.2-0.95-0.08c-0.24-0.28-0.2-0.71,0.08-0.95S215.5,219.67,215.74,219.96L215.74,219.96z M213.99,220.51    c0.28,0.33,0.23,0.82-0.1,1.09c-0.33,0.28-0.82,0.23-1.09-0.1c-0.28-0.33-0.23-0.82,0.1-1.09    C213.22,220.14,213.71,220.18,213.99,220.51L213.99,220.51z M212.1,221.1c0.3,0.36,0.26,0.9-0.11,1.21    c-0.36,0.3-0.9,0.26-1.21-0.11c-0.3-0.36-0.26-0.9,0.11-1.21C211.26,220.69,211.8,220.74,212.1,221.1L212.1,221.1z M220.03,218.99    c-0.2-0.23-0.17-0.58,0.07-0.78c0.23-0.2,0.58-0.17,0.78,0.07c0.2,0.23,0.17,0.58-0.07,0.78    C220.58,219.26,220.24,219.23,220.03,218.99L220.03,218.99z M221.66,218.5c-0.24-0.28-0.2-0.71,0.08-0.95    c0.28-0.24,0.71-0.2,0.95,0.08c0.24,0.28,0.2,0.71-0.08,0.95C222.32,218.82,221.9,218.78,221.66,218.5L221.66,218.5z     M223.41,217.95c-0.28-0.33-0.23-0.82,0.1-1.09c0.33-0.28,0.82-0.23,1.09,0.1c0.28,0.33,0.23,0.82-0.1,1.09    C224.18,218.32,223.69,218.28,223.41,217.95L223.41,217.95z M225.29,217.36c-0.3-0.36-0.26-0.9,0.11-1.21    c0.36-0.3,0.9-0.26,1.21,0.11c0.3,0.36,0.26,0.9-0.11,1.21C226.13,217.77,225.6,217.72,225.29,217.36L225.29,217.36z     M218.47,217.89c-0.23,0.2-0.58,0.17-0.78-0.07c-0.2-0.23-0.17-0.58,0.07-0.78c0.23-0.2,0.58-0.17,0.78,0.07    C218.74,217.35,218.71,217.7,218.47,217.89L218.47,217.89z M217.97,216.26c-0.28,0.24-0.71,0.2-0.95-0.08    c-0.24-0.28-0.2-0.71,0.08-0.95c0.28-0.24,0.71-0.2,0.95,0.08S218.25,216.03,217.97,216.26L217.97,216.26z M217.42,214.51    c-0.33,0.28-0.82,0.23-1.09-0.1c-0.28-0.33-0.23-0.82,0.1-1.09c0.33-0.27,0.82-0.23,1.09,0.1    C217.79,213.75,217.75,214.23,217.42,214.51L217.42,214.51z M216.83,212.63c-0.36,0.3-0.9,0.26-1.21-0.11    c-0.3-0.36-0.26-0.9,0.11-1.21c0.36-0.3,0.9-0.26,1.21,0.11C217.24,211.79,217.19,212.33,216.83,212.63L216.83,212.63z     M218.4,218.86c0.2-0.17,0.5-0.14,0.67,0.06s0.14,0.5-0.06,0.67s-0.5,0.14-0.67-0.06C218.17,219.33,218.21,219.03,218.4,218.86    L218.4,218.86z M218.93,220.56c0.23-0.2,0.58-0.17,0.78,0.07c0.2,0.23,0.17,0.58-0.07,0.78c-0.23,0.2-0.58,0.17-0.78-0.07    C218.67,221.11,218.71,220.76,218.93,220.56L218.93,220.56z M219.43,222.19c0.28-0.24,0.71-0.2,0.95,0.08    c0.24,0.28,0.2,0.71-0.08,0.95c-0.28,0.24-0.71,0.2-0.95-0.08S219.15,222.43,219.43,222.19L219.43,222.19z M219.99,223.94    c0.33-0.28,0.82-0.23,1.09,0.1c0.27,0.33,0.23,0.82-0.1,1.09c-0.33,0.28-0.82,0.23-1.09-0.1    C219.61,224.71,219.65,224.22,219.99,223.94z"/>
		<path fill-rule="evenodd" clip-rule="evenodd" fill="#FFFFFF" d="M79.73,194.24c0.59-0.97,1.86-1.27,2.83-0.68    c0.97,0.59,1.27,1.86,0.68,2.83s-1.86,1.27-2.83,0.68C79.44,196.47,79.14,195.21,79.73,194.24L79.73,194.24z M67.59,182.2    c0.63,0.38,0.82,1.2,0.44,1.83s-1.2,0.82-1.83,0.44c-0.63-0.38-0.82-1.2-0.44-1.83C66.15,182.02,66.97,181.82,67.59,182.2    L67.59,182.2z M64.27,184.58c0.76,0.47,1,1.46,0.53,2.22s-1.46,1-2.22,0.53c-0.76-0.47-1-1.46-0.53-2.22    C62.51,184.35,63.51,184.11,64.27,184.58L64.27,184.58z M60.69,187.16c-0.88-0.54-2.02-0.26-2.56,0.61    c-0.54,0.88-0.26,2.02,0.61,2.56c0.88,0.54,2.02,0.26,2.56-0.61C61.84,188.84,61.56,187.69,60.69,187.16L60.69,187.16z     M56.87,189.93c0.97,0.59,1.27,1.86,0.68,2.83s-1.86,1.27-2.83,0.68c-0.97-0.59-1.27-1.86-0.68-2.83S55.9,189.34,56.87,189.93    L56.87,189.93z M73.31,179.12c-0.63-0.38-0.82-1.2-0.44-1.83s1.2-0.82,1.83-0.44c0.63,0.38,0.82,1.2,0.44,1.83    C74.76,179.3,73.94,179.5,73.31,179.12L73.31,179.12z M76.64,176.74c-0.76-0.47-1-1.46-0.53-2.22s1.46-1,2.22-0.53    s1,1.46,0.53,2.22S77.4,177.21,76.64,176.74L76.64,176.74z M80.22,174.16c0.88,0.54,2.02,0.26,2.56-0.61    c0.54-0.88,0.26-2.02-0.61-2.56c-0.88-0.54-2.02-0.26-2.56,0.61C79.07,172.48,79.34,173.62,80.22,174.16L80.22,174.16z     M84.04,171.39c-0.97-0.59-1.27-1.86-0.68-2.83s1.86-1.27,2.83-0.68c0.97,0.59,1.27,1.86,0.68,2.83    C86.27,171.68,85.01,171.98,84.04,171.39L84.04,171.39z M68.91,177.8c-0.38,0.63-1.2,0.82-1.83,0.44    c-0.63-0.38-0.82-1.2-0.44-1.83s1.2-0.82,1.83-0.44S69.3,177.17,68.91,177.8L68.91,177.8z M66.54,174.47    c-0.47,0.76-1.46,1-2.22,0.53c-0.76-0.47-1-1.46-0.53-2.22s1.46-1,2.22-0.53C66.77,172.71,67.01,173.71,66.54,174.47L66.54,174.47    z M63.96,170.89c0.54-0.88,0.26-2.02-0.61-2.56c-0.88-0.54-2.02-0.26-2.56,0.61c-0.54,0.88-0.26,2.02,0.61,2.56    C62.28,172.04,63.42,171.77,63.96,170.89L63.96,170.89z M61.19,167.07c-0.59,0.97-1.86,1.27-2.83,0.68    c-0.97-0.59-1.27-1.86-0.68-2.83s1.86-1.27,2.83-0.68C61.48,164.84,61.78,166.1,61.19,167.07L61.19,167.07z M69.49,180.06    c0.33-0.54,1.03-0.7,1.56-0.37c0.54,0.33,0.7,1.03,0.37,1.56c-0.33,0.54-1.03,0.7-1.56,0.37C69.33,181.3,69.16,180.6,69.49,180.06    L69.49,180.06z M72,183.51c0.38-0.63,1.2-0.82,1.83-0.44c0.63,0.38,0.82,1.2,0.44,1.83s-1.2,0.82-1.83,0.44    C71.81,184.96,71.62,184.14,72,183.51L72,183.51z M74.38,186.84c0.47-0.76,1.46-1,2.22-0.53s1,1.46,0.53,2.22s-1.46,1-2.22,0.53    C74.15,188.6,73.91,187.6,74.38,186.84L74.38,186.84z M76.96,190.42c-0.54,0.88-0.26,2.02,0.61,2.56    c0.88,0.54,2.02,0.26,2.56-0.61c0.54-0.88,0.26-2.02-0.61-2.56C78.64,189.27,77.49,189.54,76.96,190.42z"/>
		<path fill-rule="evenodd" clip-rule="evenodd" fill="#FFFFFF" d="M126.32,222.86c0.68-0.91,1.97-1.09,2.88-0.41    s1.09,1.97,0.41,2.88s-1.97,1.09-2.88,0.41C125.82,225.05,125.64,223.77,126.32,222.86L126.32,222.86z M115.34,209.76    c0.59,0.44,0.71,1.27,0.27,1.86s-1.27,0.71-1.86,0.27c-0.59-0.44-0.71-1.27-0.27-1.86C113.92,209.43,114.76,209.31,115.34,209.76    L115.34,209.76z M111.81,211.81c0.71,0.53,0.86,1.55,0.32,2.26c-0.53,0.71-1.55,0.86-2.26,0.32c-0.71-0.53-0.86-1.55-0.32-2.26    C110.09,211.42,111.1,211.28,111.81,211.81L111.81,211.81z M108.01,214.05c0.82,0.62,0.99,1.78,0.37,2.6    c-0.62,0.82-1.78,0.99-2.6,0.37c-0.82-0.62-0.99-1.78-0.37-2.6C106.02,213.6,107.19,213.44,108.01,214.05L108.01,214.05z     M103.95,216.46c-0.91-0.68-2.2-0.5-2.88,0.41s-0.5,2.2,0.41,2.88c0.91,0.68,2.2,0.5,2.88-0.41S104.86,217.14,103.95,216.46    L103.95,216.46z M121.32,207.21c-0.59-0.44-0.71-1.27-0.27-1.86s1.27-0.71,1.86-0.27c0.59,0.44,0.71,1.27,0.27,1.86    S121.91,207.65,121.32,207.21L121.32,207.21z M124.85,205.15c-0.71-0.53-0.86-1.55-0.32-2.26c0.53-0.71,1.55-0.86,2.26-0.32    c0.71,0.53,0.86,1.55,0.32,2.26C126.58,205.54,125.57,205.69,124.85,205.15L124.85,205.15z M128.66,202.91    c-0.82-0.62-0.99-1.78-0.37-2.6c0.62-0.82,1.78-0.99,2.6-0.37c0.82,0.62,0.99,1.78,0.37,2.6    C130.64,203.36,129.49,203.53,128.66,202.91L128.66,202.91z M132.71,200.5c0.91,0.68,2.2,0.5,2.88-0.41    c0.68-0.91,0.5-2.2-0.41-2.88c-0.91-0.68-2.2-0.5-2.88,0.41C131.63,198.53,131.8,199.82,132.71,200.5L132.71,200.5z     M117.06,205.49c-0.44,0.59-1.27,0.71-1.86,0.27c-0.59-0.44-0.71-1.27-0.27-1.86s1.27-0.71,1.86-0.27    C117.39,204.07,117.51,204.9,117.06,205.49L117.06,205.49z M115.01,201.95c-0.53,0.71-1.55,0.86-2.26,0.32    c-0.71-0.53-0.86-1.55-0.32-2.26c0.53-0.71,1.55-0.86,2.26-0.32C115.4,200.23,115.54,201.24,115.01,201.95L115.01,201.95z     M112.77,198.15c-0.62,0.82-1.78,0.99-2.6,0.37c-0.82-0.62-0.99-1.78-0.37-2.6c0.62-0.82,1.78-0.99,2.6-0.37    C113.22,196.17,113.38,197.33,112.77,198.15L112.77,198.15z M110.36,194.1c0.68-0.91,0.5-2.2-0.41-2.88    c-0.91-0.68-2.2-0.5-2.88,0.41s-0.5,2.2,0.41,2.88C108.39,195.19,109.68,195,110.36,194.1L110.36,194.1z M117.43,207.79    c0.38-0.5,1.09-0.6,1.59-0.23c0.5,0.38,0.61,1.09,0.23,1.59s-1.09,0.6-1.59,0.23C117.15,209.01,117.05,208.3,117.43,207.79    L117.43,207.79z M119.61,211.46c0.44-0.59,1.27-0.71,1.86-0.27c0.59,0.44,0.71,1.27,0.27,1.86s-1.27,0.71-1.86,0.27    C119.29,212.89,119.17,212.05,119.61,211.46L119.61,211.46z M121.67,215c0.53-0.71,1.55-0.86,2.26-0.32    c0.71,0.53,0.86,1.55,0.32,2.26c-0.53,0.71-1.55,0.86-2.26,0.32S121.13,215.71,121.67,215L121.67,215z M123.91,218.8    c-0.62,0.82-0.45,1.99,0.37,2.6c0.82,0.62,1.99,0.45,2.6-0.37c0.62-0.82,0.45-1.99-0.37-2.6    C125.69,217.81,124.53,217.98,123.91,218.8z"/>
		<path fill-rule="evenodd" clip-rule="evenodd" fill="#FFFFFF" d="M117.99,137.91c0.06-1.1,0.99-1.94,2.08-1.88    c1.1,0.06,1.94,0.99,1.88,2.08c-0.06,1.1-0.99,1.94-2.09,1.88C118.77,139.94,117.93,139,117.99,137.91L117.99,137.91z     M102.13,133.32c0.71,0.04,1.25,0.64,1.22,1.35c-0.04,0.71-0.64,1.25-1.35,1.22c-0.71-0.04-1.25-0.64-1.22-1.35    S101.42,133.28,102.13,133.32L102.13,133.32z M100.4,136.87c0.86,0.04,1.52,0.78,1.48,1.64c-0.04,0.86-0.78,1.52-1.64,1.48    c-0.86-0.04-1.52-0.78-1.48-1.64C98.81,137.49,99.54,136.83,100.4,136.87L100.4,136.87z M98.56,140.72    c0.99,0.05,1.75,0.9,1.7,1.89s-0.89,1.75-1.89,1.7c-0.99-0.05-1.75-0.9-1.7-1.89C96.73,141.43,97.57,140.67,98.56,140.72    L98.56,140.72z M96.61,144.84c1.1,0.06,1.94,0.99,1.88,2.08c-0.06,1.1-0.99,1.94-2.08,1.88c-1.1-0.06-1.94-0.99-1.88-2.09    C94.58,145.63,95.51,144.78,96.61,144.84L96.61,144.84z M105.54,128.06c-0.71-0.04-1.25-0.64-1.22-1.35    c0.04-0.71,0.64-1.25,1.35-1.22c0.71,0.04,1.25,0.64,1.22,1.35C106.85,127.55,106.25,128.09,105.54,128.06L105.54,128.06z     M107.27,124.5c-0.86-0.04-1.52-0.78-1.48-1.64c0.04-0.86,0.78-1.52,1.64-1.48c0.86,0.04,1.52,0.78,1.48,1.64    C108.86,123.88,108.13,124.55,107.27,124.5L107.27,124.5z M109.11,120.66c-0.99-0.05-1.75-0.89-1.7-1.89    c0.05-0.99,0.89-1.75,1.89-1.7c0.99,0.05,1.75,0.89,1.7,1.89C110.94,119.95,110.1,120.71,109.11,120.66L109.11,120.66z     M111.06,116.54c-1.1-0.06-1.94-0.99-1.88-2.08c0.06-1.1,0.99-1.94,2.08-1.88c1.1,0.06,1.94,0.99,1.88,2.08    C113.09,115.75,112.16,116.59,111.06,116.54L111.06,116.54z M101.2,128.97c-0.04,0.71-0.64,1.25-1.35,1.22    c-0.71-0.04-1.25-0.64-1.22-1.35c0.04-0.71,0.64-1.25,1.35-1.22C100.69,127.66,101.24,128.26,101.2,128.97L101.2,128.97z     M97.65,127.25c-0.04,0.86-0.78,1.52-1.64,1.48c-0.86-0.04-1.52-0.78-1.48-1.64c0.04-0.86,0.78-1.52,1.64-1.48    C97.03,125.66,97.69,126.39,97.65,127.25L97.65,127.25z M93.81,125.41c-0.05,0.99-0.9,1.75-1.89,1.7s-1.75-0.9-1.7-1.89    s0.9-1.75,1.89-1.7C93.09,123.57,93.86,124.42,93.81,125.41L93.81,125.41z M89.68,123.45c-0.06,1.1-0.99,1.94-2.08,1.88    c-1.1-0.06-1.94-0.99-1.88-2.08c0.06-1.1,0.99-1.94,2.08-1.88S89.74,122.36,89.68,123.45L89.68,123.45z M102.74,130.63    c0.03-0.61,0.55-1.07,1.15-1.04c0.61,0.03,1.07,0.55,1.04,1.15s-0.55,1.07-1.15,1.04C103.17,131.75,102.71,131.23,102.74,130.63    L102.74,130.63z M106.47,132.39c0.04-0.71,0.64-1.25,1.35-1.22c0.71,0.04,1.25,0.64,1.22,1.35c-0.04,0.71-0.64,1.25-1.35,1.22    C106.98,133.7,106.43,133.1,106.47,132.39L106.47,132.39z M110.02,134.11c0.04-0.86,0.78-1.52,1.64-1.48    c0.86,0.04,1.52,0.78,1.48,1.64c-0.04,0.86-0.78,1.52-1.64,1.48C110.64,135.71,109.98,134.98,110.02,134.11L110.02,134.11z     M113.87,135.95c0.05-0.99,0.89-1.75,1.89-1.7c0.99,0.05,1.75,0.89,1.7,1.89c-0.05,0.99-0.89,1.75-1.89,1.7    C114.58,137.79,113.82,136.95,113.87,135.95z"/>
		<path fill-rule="evenodd" clip-rule="evenodd" fill="#FFFFFF" d="M123.54,174.17c0.31-0.42,0.91-0.5,1.33-0.19s0.5,0.91,0.19,1.33    s-0.91,0.5-1.33,0.19C123.31,175.18,123.23,174.59,123.54,174.17L123.54,174.17z M118.49,168.14c0.27,0.2,0.33,0.59,0.12,0.86    c-0.2,0.27-0.59,0.33-0.86,0.12c-0.27-0.2-0.33-0.59-0.12-0.86C117.83,167.99,118.22,167.93,118.49,168.14L118.49,168.14z     M116.86,169.08c0.33,0.25,0.4,0.71,0.15,1.04c-0.25,0.33-0.71,0.4-1.04,0.15s-0.4-0.71-0.15-1.04    C116.06,168.9,116.53,168.84,116.86,169.08L116.86,169.08z M115.11,170.11c0.38,0.28,0.46,0.82,0.17,1.2    c-0.28,0.38-0.82,0.46-1.2,0.17c-0.38-0.28-0.46-0.82-0.17-1.2C114.19,169.91,114.73,169.83,115.11,170.11L115.11,170.11z     M113.24,171.22c-0.42-0.31-1.01-0.23-1.33,0.19c-0.31,0.42-0.23,1.01,0.19,1.33c0.42,0.31,1.01,0.23,1.33-0.19    C113.74,172.13,113.66,171.54,113.24,171.22L113.24,171.22z M121.24,166.96c-0.27-0.2-0.33-0.59-0.12-0.86    c0.2-0.27,0.59-0.33,0.86-0.12c0.27,0.2,0.33,0.59,0.12,0.86C121.89,167.11,121.51,167.17,121.24,166.96L121.24,166.96z     M122.86,166.02c-0.33-0.25-0.4-0.71-0.15-1.04c0.25-0.33,0.71-0.4,1.04-0.15s0.4,0.71,0.15,1.04S123.19,166.26,122.86,166.02    L122.86,166.02z M124.62,164.98c-0.38-0.28-0.46-0.82-0.17-1.2c0.28-0.38,0.82-0.46,1.2-0.17c0.38,0.28,0.46,0.82,0.17,1.2    C125.53,165.19,124.99,165.27,124.62,164.98L124.62,164.98z M126.48,163.87c0.42,0.31,1.01,0.23,1.33-0.19    c0.31-0.42,0.23-1.01-0.19-1.33c-0.42-0.31-1.01-0.23-1.33,0.19C125.98,162.97,126.07,163.56,126.48,163.87L126.48,163.87z     M119.28,166.17c-0.2,0.27-0.59,0.33-0.86,0.12c-0.27-0.2-0.33-0.59-0.12-0.86c0.2-0.27,0.59-0.33,0.86-0.12    S119.48,165.9,119.28,166.17L119.28,166.17z M118.33,164.54c-0.25,0.33-0.71,0.4-1.04,0.15s-0.4-0.71-0.15-1.04    c0.25-0.33,0.71-0.4,1.04-0.15S118.58,164.22,118.33,164.54L118.33,164.54z M117.3,162.79c-0.28,0.38-0.82,0.46-1.2,0.17    c-0.38-0.28-0.46-0.82-0.17-1.2c0.28-0.38,0.82-0.46,1.2-0.17S117.58,162.42,117.3,162.79L117.3,162.79z M116.19,160.93    c0.31-0.42,0.23-1.01-0.19-1.33c-0.42-0.31-1.01-0.23-1.33,0.19c-0.31,0.42-0.23,1.01,0.19,1.33    C115.28,161.43,115.88,161.34,116.19,160.93L116.19,160.93z M119.45,167.23c0.17-0.23,0.5-0.28,0.73-0.11s0.28,0.5,0.1,0.73    c-0.17,0.23-0.5,0.28-0.73,0.11C119.32,167.79,119.27,167.47,119.45,167.23L119.45,167.23z M120.45,168.92    c0.2-0.27,0.59-0.33,0.86-0.12c0.27,0.2,0.33,0.59,0.12,0.86c-0.2,0.27-0.59,0.33-0.86,0.12    C120.3,169.58,120.25,169.19,120.45,168.92L120.45,168.92z M121.4,170.55c0.25-0.33,0.71-0.4,1.04-0.15s0.4,0.71,0.15,1.04    c-0.25,0.33-0.71,0.4-1.04,0.15S121.15,170.88,121.4,170.55L121.4,170.55z M122.43,172.3c-0.28,0.38-0.21,0.92,0.17,1.2    s0.92,0.21,1.2-0.17s0.21-0.92-0.17-1.2C123.25,171.84,122.71,171.92,122.43,172.3z"/>
		<path fill-rule="evenodd" clip-rule="evenodd" fill="#FFFFFF" d="M307.42,203.43c0.98-1.46,2.95-1.84,4.41-0.86    s1.84,2.95,0.86,4.41s-2.95,1.84-4.41,0.86S306.43,204.88,307.42,203.43L307.42,203.43z M289.46,184.07    c0.94,0.63,1.19,1.91,0.56,2.85s-1.91,1.19-2.85,0.56s-1.19-1.91-0.56-2.85C287.24,183.68,288.52,183.44,289.46,184.07    L289.46,184.07z M284.17,187.51c1.14,0.77,1.45,2.32,0.68,3.46c-0.77,1.14-2.32,1.45-3.46,0.68c-1.14-0.77-1.44-2.32-0.68-3.46    C281.48,187.05,283.02,186.75,284.17,187.51L284.17,187.51z M278.48,191.27c-1.32-0.89-3.1-0.54-3.99,0.78    c-0.89,1.32-0.54,3.1,0.78,3.99s3.1,0.54,3.99-0.78C280.14,193.94,279.79,192.15,278.48,191.27L278.48,191.27z M272.4,195.3    c1.46,0.98,1.84,2.95,0.86,4.41c-0.98,1.45-2.95,1.84-4.41,0.86c-1.45-0.98-1.84-2.95-0.86-4.41    C268.98,194.71,270.95,194.32,272.4,195.3L272.4,195.3z M298.48,179.67c-0.94-0.63-1.19-1.91-0.56-2.85s1.91-1.19,2.85-0.56    s1.19,1.91,0.56,2.85C300.7,180.06,299.42,180.31,298.48,179.67L298.48,179.67z M303.77,176.23c-1.14-0.77-1.45-2.32-0.68-3.46    c0.77-1.14,2.32-1.45,3.46-0.68c1.14,0.77,1.45,2.32,0.68,3.46C306.46,176.69,304.92,177,303.77,176.23L303.77,176.23z     M309.46,172.47c1.32,0.89,3.1,0.54,3.99-0.78c0.89-1.32,0.54-3.1-0.78-3.99s-3.1-0.54-3.99,0.78    C307.79,169.8,308.14,171.59,309.46,172.47L309.46,172.47z M315.54,168.44c-1.46-0.98-1.84-2.95-0.86-4.41s2.95-1.84,4.41-0.86    s1.84,2.95,0.86,4.41C318.96,169.03,316.99,169.42,315.54,168.44L315.54,168.44z M291.79,177.35c-0.63,0.94-1.91,1.19-2.85,0.56    s-1.19-1.91-0.56-2.85s1.91-1.19,2.85-0.56C292.17,175.14,292.42,176.41,291.79,177.35L291.79,177.35z M288.33,172.06    c-0.77,1.14-2.32,1.45-3.46,0.68c-1.14-0.77-1.44-2.32-0.68-3.46c0.77-1.14,2.32-1.45,3.46-0.68    C288.8,169.37,289.1,170.92,288.33,172.06L288.33,172.06z M284.58,166.37c0.89-1.32,0.54-3.1-0.78-3.99s-3.1-0.54-3.99,0.78    c-0.89,1.32-0.54,3.1,0.78,3.99S283.7,167.69,284.58,166.37L284.58,166.37z M280.55,160.3c-0.98,1.45-2.95,1.84-4.41,0.86    c-1.45-0.98-1.84-2.95-0.86-4.41c0.98-1.45,2.95-1.84,4.41-0.86C281.14,156.87,281.54,158.84,280.55,160.3L280.55,160.3z     M292.52,180.88c0.54-0.81,1.63-1.02,2.44-0.48c0.81,0.54,1.02,1.63,0.48,2.44c-0.54,0.8-1.63,1.02-2.44,0.48    S291.98,181.69,292.52,180.88L292.52,180.88z M296.18,186.37c0.63-0.94,1.91-1.19,2.85-0.56s1.19,1.91,0.56,2.85    s-1.91,1.19-2.85,0.56C295.79,188.59,295.54,187.32,296.18,186.37L296.18,186.37z M299.63,191.67c0.77-1.14,2.32-1.45,3.46-0.68    c1.14,0.77,1.45,2.32,0.68,3.46c-0.77,1.14-2.32,1.45-3.46,0.68C299.15,194.36,298.85,192.81,299.63,191.67L299.63,191.67z     M303.38,197.36c-0.89,1.32-0.54,3.1,0.78,3.99s3.1,0.54,3.99-0.78c0.89-1.32,0.54-3.1-0.78-3.99S304.26,196.04,303.38,197.36z"/>
		<path fill-rule="evenodd" clip-rule="evenodd" fill="#FFFFFF" d="M332.95,210.15c0.7,0.16,1.14,0.86,0.97,1.56    c-0.16,0.7-0.86,1.14-1.56,0.98s-1.14-0.86-0.98-1.56C331.55,210.43,332.24,209.99,332.95,210.15L332.95,210.15z M337.71,200.45    c-0.1,0.45-0.56,0.74-1.01,0.63c-0.45-0.1-0.73-0.56-0.63-1.01s0.56-0.73,1.01-0.63C337.54,199.55,337.82,200,337.71,200.45    L337.71,200.45z M335.61,198.94c-0.13,0.55-0.67,0.89-1.22,0.77c-0.55-0.13-0.89-0.67-0.77-1.22c0.13-0.55,0.67-0.89,1.22-0.77    C335.4,197.84,335.74,198.39,335.61,198.94L335.61,198.94z M333.35,197.32c-0.15,0.63-0.78,1.03-1.41,0.88s-1.03-0.78-0.88-1.41    s0.78-1.03,1.41-0.88C333.1,196.05,333.49,196.68,333.35,197.32L333.35,197.32z M330.92,195.59c0.16-0.7-0.28-1.4-0.98-1.56    s-1.4,0.28-1.56,0.98s0.28,1.4,0.98,1.56C330.07,196.72,330.76,196.29,330.92,195.59L330.92,195.59z M340.71,203.26    c0.1-0.45,0.56-0.74,1.01-0.63c0.45,0.1,0.73,0.55,0.63,1.01c-0.1,0.45-0.56,0.74-1.01,0.63    C340.89,204.16,340.6,203.71,340.71,203.26L340.71,203.26z M342.8,204.77c0.13-0.55,0.67-0.89,1.22-0.77    c0.55,0.13,0.89,0.67,0.77,1.22c-0.13,0.55-0.67,0.89-1.22,0.77C343.02,205.87,342.68,205.32,342.8,204.77L342.8,204.77z     M345.07,206.39c0.15-0.63,0.78-1.03,1.41-0.88s1.03,0.78,0.88,1.41s-0.78,1.03-1.41,0.88    C345.32,207.66,344.92,207.03,345.07,206.39L345.07,206.39z M347.51,208.12c-0.16,0.7,0.28,1.4,0.97,1.56    c0.7,0.16,1.4-0.28,1.56-0.97c0.16-0.7-0.28-1.4-0.97-1.56C348.36,206.99,347.67,207.42,347.51,208.12L347.51,208.12z     M340.61,200.36c-0.45-0.1-0.73-0.56-0.63-1.01s0.56-0.73,1.01-0.63c0.45,0.1,0.73,0.56,0.63,1.01S341.07,200.46,340.61,200.36    L340.61,200.36z M342.14,198.26c-0.55-0.13-0.89-0.67-0.77-1.22c0.13-0.55,0.67-0.89,1.22-0.77c0.55,0.13,0.89,0.67,0.77,1.22    C343.23,198.05,342.68,198.39,342.14,198.26L342.14,198.26z M343.76,196c-0.63-0.15-1.03-0.78-0.88-1.41s0.78-1.03,1.41-0.88    s1.03,0.78,0.88,1.41C345.01,195.75,344.39,196.14,343.76,196L343.76,196z M345.48,193.56c0.7,0.16,1.4-0.28,1.56-0.97    c0.16-0.7-0.28-1.4-0.98-1.56s-1.4,0.28-1.56,0.98C344.35,192.71,344.79,193.4,345.48,193.56L345.48,193.56z M339.38,201.16    c0.39,0.09,0.63,0.47,0.54,0.86s-0.47,0.63-0.86,0.54c-0.39-0.09-0.63-0.47-0.54-0.86C338.6,201.31,338.99,201.07,339.38,201.16    L339.38,201.16z M337.82,203.36c0.45,0.1,0.73,0.55,0.63,1.01c-0.1,0.45-0.56,0.74-1.01,0.63c-0.45-0.1-0.74-0.56-0.63-1.01    C336.92,203.54,337.36,203.26,337.82,203.36L337.82,203.36z M336.29,205.45c0.55,0.13,0.89,0.67,0.77,1.22    c-0.13,0.55-0.67,0.89-1.22,0.77c-0.55-0.13-0.89-0.67-0.77-1.22C335.2,205.67,335.76,205.33,336.29,205.45L336.29,205.45z     M334.67,207.72c-0.63-0.15-1.26,0.25-1.41,0.88s0.25,1.26,0.88,1.41c0.63,0.15,1.26-0.25,1.41-0.88S335.3,207.87,334.67,207.72z"/>
		<path fill-rule="evenodd" clip-rule="evenodd" fill="#FFFFFF" d="M339.61,188.58c0.36-0.3,0.9-0.26,1.21,0.11    c0.3,0.36,0.26,0.9-0.11,1.21c-0.36,0.3-0.9,0.26-1.21-0.11C339.2,189.43,339.24,188.89,339.61,188.58L339.61,188.58z     M336.4,182.22c0.2,0.23,0.17,0.58-0.07,0.78c-0.23,0.2-0.58,0.17-0.78-0.07c-0.2-0.23-0.17-0.58,0.07-0.78    C335.85,181.96,336.2,181.99,336.4,182.22L336.4,182.22z M334.77,182.72c0.24,0.28,0.2,0.71-0.08,0.95    c-0.28,0.24-0.71,0.2-0.95-0.08c-0.24-0.28-0.2-0.71,0.08-0.95C334.11,182.4,334.54,182.44,334.77,182.72L334.77,182.72z     M333.02,183.27c0.28,0.33,0.23,0.82-0.1,1.09c-0.33,0.27-0.82,0.23-1.09-0.1s-0.23-0.82,0.1-1.09    C332.26,182.9,332.74,182.94,333.02,183.27L333.02,183.27z M331.14,183.86c0.3,0.36,0.26,0.9-0.11,1.21    c-0.36,0.3-0.9,0.26-1.21-0.11c-0.3-0.36-0.26-0.9,0.11-1.21C330.3,183.45,330.85,183.5,331.14,183.86L331.14,183.86z     M339.07,181.76c-0.2-0.23-0.17-0.58,0.07-0.78c0.23-0.2,0.58-0.17,0.78,0.07c0.2,0.23,0.17,0.58-0.07,0.78    C339.61,182.02,339.26,181.99,339.07,181.76L339.07,181.76z M340.7,181.26c-0.24-0.28-0.2-0.71,0.08-0.95    c0.28-0.24,0.71-0.2,0.95,0.08c0.24,0.28,0.2,0.71-0.08,0.95C341.36,181.58,340.93,181.54,340.7,181.26L340.7,181.26z     M342.45,180.71c-0.28-0.33-0.23-0.82,0.1-1.09c0.33-0.28,0.82-0.23,1.09,0.1c0.28,0.33,0.23,0.82-0.1,1.09    C343.21,181.08,342.73,181.04,342.45,180.71L342.45,180.71z M344.33,180.12c-0.3-0.36-0.26-0.9,0.11-1.21    c0.36-0.3,0.9-0.26,1.21,0.11c0.3,0.36,0.26,0.9-0.11,1.21C345.17,180.53,344.64,180.48,344.33,180.12L344.33,180.12z     M337.51,180.66c-0.23,0.2-0.58,0.17-0.78-0.07c-0.2-0.23-0.17-0.58,0.07-0.78c0.23-0.2,0.58-0.17,0.78,0.07    C337.77,180.11,337.74,180.46,337.51,180.66L337.51,180.66z M337.01,179.03c-0.28,0.24-0.71,0.2-0.95-0.08    c-0.24-0.28-0.2-0.71,0.08-0.95c0.28-0.24,0.71-0.2,0.95,0.08C337.33,178.36,337.29,178.79,337.01,179.03L337.01,179.03z     M336.46,177.27c-0.33,0.28-0.82,0.23-1.09-0.1c-0.28-0.33-0.23-0.82,0.1-1.09c0.33-0.28,0.82-0.23,1.09,0.1    C336.83,176.51,336.79,177,336.46,177.27L336.46,177.27z M335.86,175.4c-0.36,0.3-0.9,0.26-1.21-0.11    c-0.3-0.36-0.26-0.9,0.11-1.21c0.36-0.3,0.9-0.26,1.21,0.11C336.27,174.55,336.23,175.09,335.86,175.4L335.86,175.4z     M337.43,181.63c0.2-0.17,0.5-0.14,0.67,0.06s0.14,0.5-0.06,0.67s-0.5,0.14-0.67-0.06C337.2,182.09,337.23,181.8,337.43,181.63    L337.43,181.63z M337.98,183.32c0.23-0.2,0.58-0.17,0.78,0.07c0.2,0.23,0.17,0.58-0.07,0.78c-0.23,0.2-0.58,0.17-0.78-0.07    C337.7,183.87,337.73,183.52,337.98,183.32L337.98,183.32z M338.48,184.95c0.28-0.24,0.71-0.2,0.95,0.08    c0.24,0.28,0.2,0.71-0.08,0.95c-0.28,0.24-0.71,0.2-0.95-0.08C338.14,185.62,338.18,185.19,338.48,184.95L338.48,184.95z     M339.01,186.71c0.33-0.28,0.82-0.23,1.09,0.1c0.28,0.33,0.23,0.82-0.1,1.09c-0.33,0.28-0.82,0.23-1.09-0.1    S338.7,186.98,339.01,186.71z"/>
		<path fill-rule="evenodd" clip-rule="evenodd" fill="#FFFFFF" d="M371.54,203.27c0.36-0.3,0.9-0.26,1.21,0.11    c0.3,0.36,0.26,0.9-0.11,1.21c-0.36,0.3-0.9,0.26-1.21-0.11C371.14,204.11,371.17,203.57,371.54,203.27L371.54,203.27z     M374.61,194.22l0.34,1.46c-0.21-0.01-0.42-0.1-0.57-0.28c-0.28-0.33-0.23-0.82,0.1-1.09    C374.52,194.27,374.57,194.24,374.61,194.22L374.61,194.22z M368.33,196.91c0.2,0.23,0.17,0.58-0.07,0.78    c-0.23,0.2-0.58,0.17-0.78-0.07c-0.2-0.23-0.17-0.58,0.07-0.78C367.79,196.65,368.14,196.68,368.33,196.91L368.33,196.91z     M366.7,197.41c0.24,0.28,0.2,0.71-0.08,0.95c-0.28,0.24-0.71,0.2-0.95-0.08c-0.24-0.28-0.2-0.71,0.08-0.95    C366.04,197.09,366.46,197.13,366.7,197.41L366.7,197.41z M364.95,197.96c0.28,0.33,0.23,0.82-0.1,1.09    c-0.33,0.28-0.82,0.23-1.09-0.1c-0.28-0.33-0.23-0.82,0.1-1.09C364.18,197.59,364.67,197.63,364.95,197.96L364.95,197.96z     M363.07,198.55c0.3,0.36,0.26,0.9-0.11,1.21c-0.36,0.3-0.9,0.26-1.21-0.11c-0.3-0.36-0.26-0.9,0.11-1.21    C362.23,198.14,362.76,198.19,363.07,198.55L363.07,198.55z M370.99,196.45c-0.2-0.23-0.17-0.58,0.07-0.78    c0.23-0.2,0.58-0.17,0.78,0.07c0.2,0.23,0.17,0.58-0.07,0.78C371.54,196.71,371.2,196.68,370.99,196.45L370.99,196.45z     M372.63,195.95c-0.24-0.28-0.2-0.71,0.08-0.95s0.71-0.2,0.95,0.08c0.24,0.28,0.2,0.71-0.08,0.95    C373.29,196.27,372.86,196.23,372.63,195.95L372.63,195.95z M369.43,195.34c-0.23,0.2-0.58,0.17-0.78-0.07    c-0.2-0.23-0.17-0.58,0.07-0.78c0.23-0.2,0.58-0.17,0.78,0.07C369.7,194.8,369.67,195.15,369.43,195.34L369.43,195.34z     M368.93,193.72c-0.28,0.24-0.71,0.2-0.95-0.08c-0.24-0.28-0.2-0.71,0.08-0.95c0.28-0.24,0.71-0.2,0.95,0.08    S369.23,193.48,368.93,193.72L368.93,193.72z M368.39,191.96c-0.33,0.27-0.82,0.23-1.09-0.1c-0.28-0.33-0.23-0.82,0.1-1.09    c0.33-0.27,0.82-0.23,1.09,0.1C368.76,191.2,368.71,191.69,368.39,191.96L368.39,191.96z M367.79,190.08    c-0.36,0.3-0.9,0.26-1.21-0.11c-0.3-0.36-0.26-0.9,0.11-1.21c0.36-0.3,0.9-0.26,1.21,0.11    C368.2,189.24,368.15,189.78,367.79,190.08L367.79,190.08z M369.36,196.31c0.2-0.17,0.5-0.14,0.67,0.06s0.14,0.5-0.06,0.67    s-0.5,0.14-0.67-0.06C369.14,196.78,369.17,196.48,369.36,196.31L369.36,196.31z M369.9,198.01c0.23-0.2,0.58-0.17,0.78,0.07    c0.2,0.23,0.17,0.58-0.07,0.78c-0.23,0.2-0.58,0.17-0.78-0.07C369.64,198.56,369.67,198.21,369.9,198.01L369.9,198.01z     M370.4,199.64c0.28-0.24,0.71-0.2,0.95,0.08c0.24,0.28,0.2,0.71-0.08,0.95c-0.28,0.24-0.71,0.2-0.95-0.08    C370.07,200.3,370.11,199.88,370.4,199.64L370.4,199.64z M370.95,201.39c0.33-0.28,0.82-0.23,1.09,0.1    c0.28,0.33,0.23,0.82-0.1,1.09c-0.33,0.28-0.82,0.23-1.09-0.1C370.57,202.16,370.63,201.67,370.95,201.39z"/>
		<g>
			<path fill-rule="evenodd" clip-rule="evenodd" fill="#FFFFFF" d="M37.85,72.39c13.93,2.72,26.53,11.54,33.56,25.12     c12.21,23.6,2.98,52.64-20.63,64.85c-12.32,6.38-26.13,6.9-38.24,2.59C20.37,133.94,28.91,103.21,37.85,72.39z"/>
			<path fill-rule="evenodd" clip-rule="evenodd" d="M36.53,76.93c12.73,2.35,24.28,10.35,30.69,22.74     c11.02,21.29,2.69,47.48-18.61,58.5c-11.26,5.82-23.88,6.24-34.91,2.19C20.83,132.43,28.51,104.71,36.53,76.93z"/>
			<path fill-rule="evenodd" clip-rule="evenodd" fill="#FFFFFF" d="M32.12,92.32c8.67,1.1,16.67,6.31,20.99,14.66     c6.98,13.5,1.7,30.1-11.8,37.09c-7.64,3.95-16.28,3.97-23.6,0.8C22.33,127.31,27.15,109.82,32.12,92.32z"/>
			<path fill-rule="evenodd" clip-rule="evenodd" fill="#FFF500" d="M30.8,96.99c7.44,0.71,14.37,5.06,18.06,12.19     c5.77,11.15,1.41,24.87-9.74,30.64c-6.55,3.39-13.97,3.28-20.16,0.36C22.78,125.75,26.74,111.37,30.8,96.99z"/>
		</g>
		<path fill-rule="evenodd" clip-rule="evenodd" fill="#FFFFFF" d="M34.81,206.53c0.36-0.3,0.9-0.26,1.21,0.11    c0.3,0.36,0.26,0.9-0.11,1.21c-0.36,0.3-0.9,0.26-1.21-0.11C34.4,207.38,34.45,206.84,34.81,206.53L34.81,206.53z M31.6,200.18    c0.2,0.23,0.17,0.58-0.07,0.78c-0.23,0.2-0.58,0.17-0.78-0.07c-0.2-0.23-0.17-0.58,0.07-0.78    C31.06,199.91,31.41,199.94,31.6,200.18L31.6,200.18z M29.97,200.67c0.24,0.28,0.2,0.71-0.08,0.95c-0.28,0.24-0.71,0.2-0.95-0.08    c-0.24-0.28-0.2-0.71,0.08-0.95C29.31,200.35,29.74,200.39,29.97,200.67L29.97,200.67z M28.22,201.22    c0.27,0.33,0.23,0.82-0.1,1.09c-0.33,0.28-0.82,0.23-1.09-0.1s-0.23-0.82,0.1-1.09S27.94,200.89,28.22,201.22L28.22,201.22z     M26.34,201.81c0.3,0.36,0.26,0.9-0.11,1.21c-0.36,0.3-0.9,0.26-1.21-0.11c-0.3-0.36-0.26-0.9,0.11-1.21    C25.5,201.4,26.04,201.45,26.34,201.81L26.34,201.81z M34.27,199.71c-0.2-0.23-0.17-0.58,0.07-0.78c0.23-0.2,0.58-0.17,0.78,0.07    c0.2,0.23,0.17,0.58-0.07,0.78C34.82,199.98,34.47,199.94,34.27,199.71L34.27,199.71z M35.9,199.21c-0.24-0.28-0.2-0.71,0.08-0.95    c0.28-0.24,0.71-0.2,0.95,0.08s0.2,0.71-0.08,0.95C36.56,199.53,36.14,199.5,35.9,199.21L35.9,199.21z M37.65,198.66    c-0.28-0.33-0.23-0.82,0.1-1.09c0.33-0.28,0.82-0.23,1.09,0.1c0.28,0.33,0.23,0.82-0.1,1.09    C38.42,199.03,37.93,198.99,37.65,198.66L37.65,198.66z M39.53,198.07c-0.3-0.36-0.26-0.9,0.11-1.21c0.36-0.3,0.9-0.26,1.21,0.11    c0.3,0.36,0.26,0.9-0.11,1.21S39.83,198.43,39.53,198.07L39.53,198.07z M32.71,198.61c-0.23,0.2-0.58,0.17-0.78-0.07    c-0.2-0.23-0.17-0.58,0.07-0.78c0.23-0.2,0.58-0.17,0.78,0.07C32.97,198.06,32.94,198.41,32.71,198.61L32.71,198.61z     M32.21,196.98c-0.28,0.24-0.71,0.2-0.95-0.08c-0.24-0.28-0.2-0.71,0.08-0.95c0.28-0.24,0.71-0.2,0.95,0.08    C32.53,196.32,32.49,196.74,32.21,196.98L32.21,196.98z M31.66,195.22c-0.33,0.28-0.82,0.23-1.09-0.1s-0.23-0.82,0.1-1.09    c0.33-0.27,0.82-0.23,1.09,0.1S31.99,194.95,31.66,195.22L31.66,195.22z M31.07,193.35c-0.36,0.3-0.9,0.26-1.21-0.11    c-0.3-0.36-0.26-0.9,0.11-1.21c0.36-0.3,0.9-0.26,1.21,0.11C31.48,192.5,31.43,193.05,31.07,193.35L31.07,193.35z M32.64,199.58    c0.2-0.17,0.5-0.14,0.67,0.06s0.14,0.5-0.06,0.67s-0.5,0.14-0.67-0.06C32.41,200.05,32.43,199.75,32.64,199.58L32.64,199.58z     M33.17,201.28c0.23-0.2,0.58-0.17,0.78,0.07c0.2,0.23,0.17,0.58-0.07,0.78c-0.23,0.2-0.58,0.17-0.78-0.07    C32.91,201.82,32.94,201.47,33.17,201.28L33.17,201.28z M33.67,202.9c0.28-0.24,0.71-0.2,0.95,0.08s0.2,0.71-0.08,0.95    c-0.28,0.24-0.71,0.2-0.95-0.08C33.35,203.57,33.39,203.14,33.67,202.9L33.67,202.9z M34.22,204.66c0.33-0.28,0.82-0.23,1.09,0.1    c0.28,0.33,0.23,0.82-0.1,1.09c-0.33,0.28-0.82,0.23-1.09-0.1S33.89,204.93,34.22,204.66z"/>
		<path fill-rule="evenodd" clip-rule="evenodd" fill="#FFFFFF" d="M170.5,237.85c0.36-0.3,0.9-0.26,1.21,0.11    c0.3,0.36,0.26,0.9-0.11,1.21c-0.36,0.3-0.9,0.26-1.21-0.11C170.1,238.69,170.13,238.15,170.5,237.85L170.5,237.85z     M167.29,231.49c0.2,0.23,0.17,0.58-0.07,0.78c-0.23,0.2-0.58,0.17-0.78-0.07c-0.2-0.23-0.17-0.58,0.07-0.78    C166.74,231.22,167.1,231.25,167.29,231.49L167.29,231.49z M165.66,231.99c0.24,0.28,0.2,0.71-0.08,0.95    c-0.28,0.24-0.71,0.2-0.95-0.08c-0.24-0.28-0.2-0.71,0.08-0.95C165,231.66,165.42,231.7,165.66,231.99L165.66,231.99z     M163.9,232.53c0.28,0.33,0.23,0.82-0.1,1.09c-0.33,0.27-0.82,0.23-1.09-0.1c-0.28-0.33-0.23-0.82,0.1-1.09    C163.14,232.16,163.63,232.21,163.9,232.53L163.9,232.53z M162.03,233.13c0.3,0.36,0.26,0.9-0.11,1.21    c-0.36,0.3-0.9,0.26-1.21-0.11c-0.3-0.36-0.26-0.9,0.11-1.21C161.18,232.72,161.72,232.76,162.03,233.13L162.03,233.13z     M169.96,231.02c-0.2-0.23-0.17-0.58,0.07-0.78c0.23-0.2,0.58-0.17,0.78,0.07s0.17,0.58-0.07,0.78    C170.5,231.29,170.15,231.26,169.96,231.02L169.96,231.02z M171.58,230.52c-0.24-0.28-0.2-0.71,0.08-0.95    c0.28-0.24,0.71-0.2,0.95,0.08c0.24,0.28,0.2,0.71-0.08,0.95S171.82,230.81,171.58,230.52L171.58,230.52z M173.35,229.97    c-0.28-0.33-0.23-0.82,0.1-1.09c0.33-0.28,0.82-0.23,1.09,0.1c0.28,0.33,0.23,0.82-0.1,1.09    C174.1,230.35,173.61,230.3,173.35,229.97L173.35,229.97z M175.21,229.38c-0.3-0.36-0.26-0.9,0.11-1.21    c0.36-0.3,0.9-0.26,1.21,0.11c0.3,0.36,0.26,0.9-0.11,1.21C176.07,229.79,175.52,229.74,175.21,229.38L175.21,229.38z     M168.39,229.92c-0.23,0.2-0.58,0.17-0.78-0.07c-0.2-0.23-0.17-0.58,0.07-0.78c0.23-0.2,0.58-0.17,0.78,0.07    C168.66,229.37,168.63,229.72,168.39,229.92L168.39,229.92z M167.89,228.29c-0.28,0.24-0.71,0.2-0.95-0.08    c-0.24-0.28-0.2-0.71,0.08-0.95c0.28-0.24,0.71-0.2,0.95,0.08C168.21,227.63,168.18,228.05,167.89,228.29L167.89,228.29z     M167.35,226.54c-0.33,0.28-0.82,0.23-1.09-0.1c-0.28-0.33-0.23-0.82,0.1-1.09c0.33-0.28,0.82-0.23,1.09,0.1    C167.72,225.77,167.67,226.26,167.35,226.54L167.35,226.54z M166.75,224.66c-0.36,0.3-0.9,0.26-1.21-0.11    c-0.3-0.36-0.26-0.9,0.11-1.21c0.36-0.3,0.9-0.26,1.21,0.11C167.16,223.82,167.13,224.36,166.75,224.66L166.75,224.66z     M168.32,230.89c0.2-0.17,0.5-0.14,0.67,0.06s0.14,0.5-0.06,0.67s-0.5,0.14-0.67-0.06S168.13,231.06,168.32,230.89L168.32,230.89z     M168.86,232.59c0.23-0.2,0.58-0.17,0.78,0.07c0.2,0.23,0.17,0.58-0.07,0.78c-0.23,0.2-0.58,0.17-0.78-0.07    C168.6,233.13,168.63,232.78,168.86,232.59L168.86,232.59z M169.36,234.22c0.28-0.24,0.71-0.2,0.95,0.08    c0.24,0.28,0.2,0.71-0.08,0.95c-0.28,0.24-0.71,0.2-0.95-0.08C169.03,234.88,169.07,234.45,169.36,234.22L169.36,234.22z     M169.9,235.97c0.33-0.28,0.82-0.23,1.09,0.1c0.28,0.33,0.23,0.82-0.1,1.09c-0.33,0.28-0.82,0.23-1.09-0.1    C169.53,236.73,169.58,236.25,169.9,235.97z"/>
		<path fill-rule="evenodd" clip-rule="evenodd" fill="#FFFFFF" d="M304.35,229.63c0.36-0.3,0.9-0.26,1.21,0.11    c0.3,0.36,0.26,0.9-0.11,1.21c-0.36,0.3-0.9,0.26-1.21-0.11C303.93,230.48,303.98,229.94,304.35,229.63L304.35,229.63z     M301.14,223.28c0.2,0.23,0.17,0.58-0.07,0.78c-0.23,0.2-0.58,0.17-0.78-0.07c-0.2-0.23-0.17-0.58,0.07-0.78    C300.58,223.01,300.93,223.04,301.14,223.28L301.14,223.28z M299.51,223.77c0.24,0.28,0.2,0.71-0.08,0.95    c-0.28,0.24-0.71,0.2-0.95-0.08c-0.24-0.28-0.2-0.71,0.08-0.95C298.85,223.45,299.26,223.49,299.51,223.77L299.51,223.77z     M297.76,224.32c0.28,0.33,0.23,0.82-0.1,1.09c-0.33,0.28-0.82,0.23-1.09-0.1c-0.28-0.33-0.23-0.82,0.1-1.09    C296.98,223.95,297.48,223.99,297.76,224.32L297.76,224.32z M295.88,224.91c0.3,0.36,0.26,0.9-0.11,1.21    c-0.36,0.3-0.9,0.26-1.21-0.11c-0.3-0.36-0.26-0.9,0.11-1.21C295.04,224.5,295.57,224.55,295.88,224.91L295.88,224.91z     M303.8,222.81c-0.2-0.23-0.17-0.58,0.07-0.78c0.23-0.2,0.58-0.17,0.78,0.07c0.2,0.23,0.17,0.58-0.07,0.78    C304.35,223.07,303.99,223.04,303.8,222.81L303.8,222.81z M305.43,222.31c-0.24-0.28-0.2-0.71,0.08-0.95    c0.28-0.24,0.71-0.2,0.95,0.08c0.24,0.28,0.2,0.71-0.08,0.95C306.1,222.63,305.67,222.59,305.43,222.31L305.43,222.31z     M307.18,221.76c-0.28-0.33-0.23-0.82,0.1-1.09c0.33-0.28,0.82-0.23,1.09,0.1c0.28,0.33,0.23,0.82-0.1,1.09    C307.95,222.13,307.46,222.09,307.18,221.76L307.18,221.76z M309.07,221.17c-0.3-0.36-0.26-0.9,0.11-1.21    c0.36-0.3,0.9-0.26,1.21,0.11c0.3,0.36,0.26,0.9-0.11,1.21C309.9,221.58,309.36,221.53,309.07,221.17L309.07,221.17z     M302.23,221.71c-0.23,0.2-0.58,0.17-0.78-0.07c-0.2-0.23-0.17-0.58,0.07-0.78c0.23-0.2,0.58-0.17,0.78,0.07    C302.51,221.16,302.48,221.51,302.23,221.71L302.23,221.71z M301.73,220.08c-0.28,0.24-0.71,0.2-0.95-0.08    c-0.24-0.28-0.2-0.71,0.08-0.95c0.28-0.24,0.71-0.2,0.95,0.08C302.07,219.42,302.02,219.84,301.73,220.08L301.73,220.08z     M301.2,218.32c-0.33,0.28-0.82,0.23-1.09-0.1s-0.23-0.82,0.1-1.09c0.33-0.28,0.82-0.23,1.09,0.1    C301.57,217.56,301.51,218.05,301.2,218.32L301.2,218.32z M300.6,216.45c-0.36,0.3-0.9,0.26-1.21-0.11    c-0.3-0.36-0.26-0.9,0.11-1.21c0.36-0.3,0.9-0.26,1.21,0.11C301.01,215.6,300.96,216.14,300.6,216.45L300.6,216.45z     M302.17,222.68c0.2-0.17,0.5-0.14,0.67,0.06s0.14,0.5-0.06,0.67s-0.5,0.14-0.67-0.06C301.93,223.14,301.96,222.85,302.17,222.68    L302.17,222.68z M302.7,224.37c0.23-0.2,0.58-0.17,0.78,0.07c0.2,0.23,0.17,0.58-0.07,0.78c-0.23,0.2-0.58,0.17-0.78-0.07    C302.43,224.92,302.46,224.57,302.7,224.37L302.7,224.37z M303.2,226c0.28-0.24,0.71-0.2,0.95,0.08c0.24,0.28,0.2,0.71-0.08,0.95    c-0.28,0.24-0.71,0.2-0.95-0.08C302.89,226.67,302.92,226.24,303.2,226L303.2,226z M303.76,227.76c0.33-0.28,0.82-0.23,1.09,0.1    c0.28,0.33,0.23,0.82-0.1,1.09c-0.33,0.28-0.82,0.23-1.09-0.1C303.38,228.52,303.42,228.03,303.76,227.76z"/>
	</g>
	<path fill="none" stroke="#DCDDDD" stroke-width="0.2999" stroke-miterlimit="22.9256" d="M329.98,31.12   c-76.76,33.5-203.28,33.47-279.93-0.11"/>
	<path fill="none" stroke="#DCDDDD" stroke-width="0.2835" stroke-dasharray="2.8346,1.4173" d="M323.57,9.74   c-71.5,32.48-195.74,32.44-267.12-0.11"/>
	<polyline fill="none" stroke="#DCDDDD" stroke-width="0.2835" stroke-dasharray="2.8346,1.4173" points="2.39,207.05 14.76,210.7    17.66,211.57 20.57,212.43 23.48,213.29 26.38,214.15 29.28,214.99 32.18,215.83 35.09,216.65 37.98,217.47 40.89,218.27    43.81,219.07 46.71,219.84 49.61,220.61 52.52,221.35 55.42,222.09 58.31,222.8 61.21,223.49 64.1,224.17 67,224.82 69.9,225.46    72.8,226.08 75.71,226.68 78.62,227.26 81.53,227.82 84.45,228.36 87.36,228.87 90.29,229.37 93.21,229.84 96.13,230.29    99.06,230.71 101.99,231.11 104.97,231.5 107.96,231.86 110.95,232.19 113.94,232.51 116.95,232.8 119.96,233.08 122.97,233.33    125.99,233.57 129.01,233.79 132.02,234 135.03,234.19 138.04,234.37 141.04,234.53 144.07,234.68 147.1,234.82 150.13,234.95    153.15,235.07 156.19,235.19 159.26,235.29 162.35,235.39 165.41,235.48 168.49,235.56 171.57,235.63 174.63,235.69 177.71,235.74    180.77,235.78 183.85,235.81 186.92,235.83 193.07,235.83 196.11,235.81 199.18,235.78 202.25,235.74 205.32,235.69 208.39,235.63    211.46,235.56 214.54,235.48 217.61,235.39 220.69,235.29 223.76,235.19 226.8,235.08 229.83,234.95 232.86,234.82 235.88,234.68    238.9,234.53 241.94,234.37 244.96,234.19 247.96,234 250.97,233.79 253.99,233.57 257.01,233.33 260.02,233.08 263.04,232.8    266.04,232.51 269.04,232.19 272.02,231.86 275.01,231.5 277.99,231.11 280.92,230.71 283.85,230.29 286.77,229.84 289.7,229.37    292.63,228.87 295.54,228.36 298.45,227.82 301.36,227.26 304.27,226.68 307.18,226.08 310.08,225.46 312.98,224.82 315.89,224.17    318.77,223.49 321.67,222.8 324.57,222.09 327.46,221.35 330.38,220.61 333.27,219.84 336.17,219.07 339.07,218.28 341.96,217.48    344.86,216.66 347.77,215.84 350.67,215 353.58,214.15 356.48,213.3 359.39,212.44 362.3,211.57 365.21,210.7 377.57,206.94  "/>
	
		<path fill-rule="evenodd" clip-rule="evenodd" fill="#DCDDDD" stroke="#DCDDDD" stroke-width="0.2999" stroke-miterlimit="22.9256" d="   M321.07,0.46c-69.09,32.16-192.76,32.16-261.85,0C146.5,0.43,233.76,0.13,321.07,0.46z"/>
	
</g>
<g id="图层_x0020_1">
	<path fill="#F08300" d="M178.31,21c0.416,1.136,1.472,1.984,2.752,2.032c0.144,0,0.304,0,0.448-0.016h0.016   c0.016,0,0.064,0,0.128-0.016c0.032,0,0.048-0.016,0.08-0.016c0.064-0.016,0.144-0.032,0.224-0.048c0.016,0,0.016,0,0.032,0   c0.192-0.048,0.4-0.112,0.576-0.208c0.192-0.096,0.4-0.224,0.608-0.384c0.672-0.56,1.104-1.408,1.104-2.352   c0-0.224-0.032-0.448-0.08-0.672l0,0C184.15,19.12,184.1,18.95,184.02,18.77C183.55,17.68,182.47,16.92,181.2,16.92C179.51,16.92,178.13,18.29,178.13,19.99C178.13,20.34,178.19,20.68,178.31,21L178.31,21L178.31,21z M182.61,20.02L182.61,20.02C182.58,20.8,181.92,21.4,181.14,21.36C180.35,21.33,179.76,20.68,179.79,19.89c0.032-0.784,0.688-1.376,1.472-1.344   C182.03,18.58,182.64,19.25,182.61,20.02L182.61,20.02z"/>
	<polygon fill="#F08300" points="196.64,17.6 ,196,19.19 ,194.56,19.19 ,193.14,22.74 ,191.19,22.74 ,192.59,19.19 ,191.01,19.19    ,191.65,17.6"/>
	<path fill="#F08300" d="M198.61,12.87c-1.008-0.096-3.024-0.144-5.056,0.112c-2.416,0.304-5.152,0.912-7.616,1.664   C183.89,15.25,182.02,15.97,180.67,16.74C180.87,16.71,181.06,16.69,181.25,16.69c0.48,0,0.944,0.112,1.36,0.288   C186.71,14.66,193.91,12.61,198.61,12.87L198.61,12.87L198.61,12.87z"/>
	<path fill="#F08300" d="M184.08,18.34c4-2.368,8.88-4.672,13.488-5.248c-4.608,0.288-10.224,2-14.288,4.304   C183.6,17.65,183.87,17.97,184.08,18.34C184.08,18.34,184.08,18.34,184.08,18.34z"/>
	<polygon fill="#F08300" points="202.13,17.6 ,201.51,19.19 ,200.05,19.19 ,198.64,22.74 ,198.18,22.74 ,196.67,22.74 ,194.98,22.74    ,195.57,21.24 ,197.28,21.24 ,198.1,19.19 ,196.51,19.19 ,197.15,17.6"/>
	<polygon fill="#F08300" points="191.22,17.6 ,190.58,19.19 ,188.29,21.3 ,190.55,21.3 ,189.97,22.74 ,184.48,22.74 ,188.15,19.19    ,185.57,19.19 ,186.21,17.6"/>
	<path fill="#F08300" d="M196.5,13.46c-3.376,0.752-6.464,2.192-9.424,3.952h1.888C191.39,15.84,193.73,14.41,196.5,13.46z    M185.7,18.28C185.07,18.66,185.01,18.71,184.4,19.12c0.064,0.256,0.112,0.544,0.112,0.816c0,0.496-0.112,0.976-0.32,1.392   c0.176-0.16,0.32-0.304,0.432-0.4c0.272-0.24,0.768-0.64,1.6-1.296l0.32-0.256H185.22l0,0L185.7,18.28L185.7,18.28L185.7,18.28z"/>
</g>
</svg>