<?xml version="1.0" encoding="utf-8"?>
<!-- Generator: Adobe Illustrator 23.0.0, SVG Export Plug-In . SVG Version: 6.00 Build 0)  -->
<svg xmlns="http://www.w3.org/2000/svg" xmlns:xlink="http://www.w3.org/1999/xlink" version="1.1" id="图层_1" x="0px" y="0px" width="337.5px" height="480px" viewBox="0 0 337.5 480" enable-background="new 0 0 337.5 480" xml:space="preserve">
<g>
	<path fill-rule="evenodd" clip-rule="evenodd" fill="#DCDDDD" d="M168.76,120.47c30.03-20.2,47.25-75.27,53.02-111.32   c-4.94,2.09-11.05,3-14.98,3.59c-12.43,1.87-25.56,2.43-38.12,2.43s-25.69-0.56-38.12-2.43c-3.89-0.58-9.9-1.48-14.82-3.52   C121.53,45.27,138.75,100.28,168.76,120.47z"/>
	
		<path fill-rule="evenodd" clip-rule="evenodd" fill="#162E50" stroke="#DCDDDD" stroke-width="0.2999" stroke-miterlimit="22.9256" d="   M293.28,171.29c11.01,6.57,25.3,9.7,43.74,7.76c0,0,0.51,13.04-0.1,32.99c-1.68,54.76-18.49,117.64-1.58,238.8   c1.46,10.44,0.94,7.14,1.66,13.12c-3.35,1.76-18.03,7.82-45.74,11.32C282.1,374.97,277.73,273.95,293.28,171.29z"/>
	
		<path fill-rule="evenodd" clip-rule="evenodd" fill="#162E52" stroke="#DCDDDD" stroke-width="0.2999" stroke-miterlimit="22.9256" d="   M229.32,2.69L229.18,3c-3.1,6.88-15.8,8.75-22.38,9.74c-12.43,1.87-25.56,2.43-38.12,2.43s-25.69-0.56-38.12-2.43   c-6.58-0.99-19.28-2.86-22.38-9.74l-0.12-0.26c1.26-0.51,1.83-0.74,6.41-2.58c4.3,3.62,25.53,8.1,54.21,8.1s50.49-3.51,54.21-8.1   l0.16,0.01C227.68,2.03,225.98,1.34,229.32,2.69z"/>
	
		<path fill-rule="evenodd" clip-rule="evenodd" fill="#162E51" stroke="#DCDDDD" stroke-width="0.2999" stroke-miterlimit="22.9256" d="   M168.76,126.07c0.68,0.84,1.08,1.32,1.09,1.32c-1.48-1.08,22.18-12.45,40.22-65.77c2.58-7.62,5.6-16.09,7.86-25.51   c2.53-10.53,4.24-22.23,6.13-35.26l41.28,15.32c0,0-28.37,122.19,27.94,155.09c-15.52,102.57-11.16,203.49-2.02,303.7   c-26.07,3.33-74.3,5.05-122.51,4.86c-48.21,0.19-96.44-1.53-122.51-4.86c9.15-100.2,13.51-201.13-2.01-303.7   c56.31-32.91,27.94-155.09,27.94-155.09l41.28-15.32c1.89,13.03,3.6,24.73,6.13,35.26c2.26,9.42,5.28,17.89,7.86,25.51   c18.04,53.32,41.71,64.69,40.22,65.77C167.68,127.39,168.07,126.91,168.76,126.07z"/>
	<g>
		<path fill-rule="evenodd" clip-rule="evenodd" fill="#00778D" d="M147.11,479.76c-5.05-7.48-10.05-13.7-14.62-18.12    c-10.71-10.36-33.74-28.67-82.53-31.38c0.28-3.78,0.55-7.56,0.81-11.35c54.33,4.74,96.95,28.21,134.44,60.88    c-4.12,0.02-8.25,0.03-12.39,0.02c-10.75-8.79-21.86-16.57-33.12-22.91c5.84,6.51,11.62,14.33,17.18,22.9    C153.61,479.81,150.35,479.79,147.11,479.76L147.11,479.76z M52.53,389.5c-0.44,8.49-0.94,16.97-1.5,25.44    c19.81-4.58,40.47-6.38,60.95-4.12c24.19,2.67,47.74,9.78,69.73,20.15c15.35,7.24,29.98,16.08,43.65,26.19    c-10.34-10.51-21.45-20.3-33.38-28.95c-18.73-13.58-39.63-24.41-62.11-30.2l-0.08-0.02c-2.48-0.69-5.02-1.28-7.53-1.84    c-6.47-1.46-13-2.68-19.55-3.69C86.36,389.92,69.21,388.57,52.53,389.5L52.53,389.5z M284.52,380.19    c0.19,4.22,0.41,8.44,0.63,12.66c-17.83-15.6-39.26-29.39-64.71-38.69c0,0-109.4-30.62-166.65,5.53l0.04-1.14    c18.88-14.72,79.51-50.39,184.58-7.33C238.42,351.21,259.07,359.38,284.52,380.19z"/>
		<path fill-rule="evenodd" clip-rule="evenodd" fill="#FFF500" d="M289.35,453.1c-0.21-0.26-0.42-0.52-0.63-0.78    c0,0-57.67-78.55-162.5-77.57c0,0,52.61-1.75,118.13,57.01c6.39,6.75,13.67,13.94,19.71,20.63c6.67,7.38,13.22,15.3,19.79,23.41    c-3.52,0.36-7.32,0.7-11.36,1.01c-42.54-50.02-91.12-101-167.35-97.38c47.9,7.03,84.69,26.21,118.18,58.62    c11.46,11.09,23.34,24.98,35.78,39.66c-2.86,0.17-5.81,0.33-8.83,0.47c-4.34-5.13-8.46-9.92-12.32-14.19    c-21.56-23.85-58.37-57.8-106.96-70.32c0,0-38.59-10.69-78.24-8.64c0.14-2.92,0.28-5.83,0.41-8.75c4.29-1.02,8.89-1.9,14.1-2.88    c16.07-3.01,51.46-8,89.66-2.7c0,0,56.4,6.97,96.47,36.44c12.99,9.56,24.44,21.14,34.96,33.61    C288.68,444.86,289.01,448.98,289.35,453.1L289.35,453.1z M284.28,374.64c-6.19-5.02-12.77-9.98-19.81-14.98    c-90.26-64.14-174.45-39.62-210.1-23.88c-0.02,1.27-0.04,2.53-0.06,3.8c129.53-56.12,227.31,38.27,227.31,38.27    c0.98,0.76,1.95,1.52,2.91,2.29C284.44,378.31,284.36,376.47,284.28,374.64L284.28,374.64z M285.98,407.05    c-71.8-73.53-180.66-74.41-231.7-66.28c-0.02,0.91-0.03,1.81-0.05,2.72c92.55-6.27,175.13,14.57,232.22,70.9    C286.29,411.94,286.13,409.49,285.98,407.05L285.98,407.05z M243.65,478.48c-4.4-4.32-8.99-8.45-13.87-12.31    c-50.64-40.05-116.86-61.93-178.98-47.78l-0.14,2.07c57.99-9.03,130.05,12.19,170.98,47.7c3.93,3.41,7.79,7,11.59,10.72    C236.77,478.76,240.25,478.63,243.65,478.48z"/>
	</g>
	
		<path fill-rule="evenodd" clip-rule="evenodd" fill="#162E50" stroke="#DCDDDD" stroke-width="0.2999" stroke-miterlimit="22.9256" d="   M44.22,171.13c-11.01,6.57-25.3,9.7-43.74,7.76c0,0-0.51,13.04,0.1,32.99c1.68,54.76,18.49,117.64,1.58,238.8   c-1.46,10.44-0.94,7.14-1.66,13.12c3.35,1.76,18.03,7.82,45.74,11.32C55.4,374.81,59.77,273.79,44.22,171.13z"/>
	
		<path fill-rule="evenodd" clip-rule="evenodd" fill="#162E52" stroke="#DCDDDD" stroke-width="0.2999" stroke-miterlimit="22.9256" d="   M107.85,2.83l6.62-2.67l0.23,1.8c4.49,35.46,21.95,96.91,54.06,118.51c32.1-21.6,49.57-83.05,54.06-118.51l0.23-1.8l6.62,2.67   c-5.05,39.9-24.6,105.21-60.9,125.76C132.46,108.04,112.91,42.73,107.85,2.83z"/>
	<path fill="none" stroke="#DCDDDD" stroke-width="0.2999" stroke-miterlimit="22.9256" d="M204.57,176.95   c-4.82,0-7.16,2.35-7.16,7.2c0,4.84,2.34,7.2,7.16,7.2h18.77c4.82,0,7.17-2.35,7.17-7.2c0-4.84-2.34-7.2-7.17-7.2H204.57   L204.57,176.95z M228.7,237.72c0-4.82-2.35-7.16-7.2-7.16c-4.84,0-7.2,2.34-7.2,7.16v18.77c0,4.82,2.35,7.16,7.2,7.16   c4.84,0,7.2-2.34,7.2-7.16V237.72L228.7,237.72z M107.1,256.48c0,4.82,2.35,7.16,7.2,7.16c4.84,0,7.2-2.34,7.2-7.16v-18.77   c0-4.82-2.35-7.16-7.2-7.16c-4.84,0-7.2,2.34-7.2,7.16V256.48L107.1,256.48z M112.46,302.86c-4.82,0-7.16,2.35-7.16,7.2   c0,4.84,2.34,7.2,7.16,7.2h18.77c4.82,0,7.17-2.35,7.17-7.2c0-4.84-2.34-7.2-7.17-7.2H112.46L112.46,302.86z M204.57,302.86   c-4.82,0-7.16,2.35-7.16,7.2c0,4.84,2.34,7.2,7.16,7.2h18.77c4.82,0,7.17-2.35,7.17-7.2c0-4.84-2.34-7.2-7.17-7.2H204.57   L204.57,302.86z M112.46,176.95c-4.82,0-7.16,2.35-7.16,7.2c0,4.84,2.34,7.2,7.16,7.2h18.77c4.82,0,7.17-2.35,7.17-7.2   c0-4.84-2.34-7.2-7.17-7.2H112.46z"/>
	
		<path fill-rule="evenodd" clip-rule="evenodd" fill="#162E52" stroke="#DCDDDD" stroke-width="0.2999" stroke-miterlimit="22.9256" d="   M69.93,44.05c2.37,18.55,3.39,37.91,1.76,56.55c-1.7,19.33-6.73,41.91-20.53,56.41c-2.23,2.35-4.69,4.47-7.35,6.32   c-2.76,1.92-6.04,3.59-9.14,4.88C24.16,172.6,12.41,173.18,1.2,172l-0.72,6.86c14.81,1.56,26.94-0.15,36.85-4.29   c3.44-1.44,7.35-3.45,10.42-5.59C99.33,133.15,72.17,16.16,72.17,16.16l-6.72,2.71C67.43,27.4,68.82,35.39,69.93,44.05z"/>
	
		<path fill-rule="evenodd" clip-rule="evenodd" fill="#162E52" stroke="#DCDDDD" stroke-width="0.2999" stroke-miterlimit="22.9256" d="   M267.58,44.05c-2.37,18.55-3.39,37.91-1.76,56.55c1.7,19.33,6.73,41.91,20.53,56.41c2.23,2.35,4.69,4.47,7.35,6.32   c2.76,1.92,6.04,3.59,9.14,4.88c10.51,4.39,22.26,4.97,33.47,3.79l0.72,6.86c-14.81,1.56-26.94-0.15-36.85-4.29   c-3.44-1.44-7.35-3.45-10.42-5.59c-51.59-35.86-24.42-152.85-24.42-152.85l6.72,2.71C270.09,27.4,268.69,35.39,267.58,44.05z"/>
	<path fill="none" stroke="#DCDDDD" stroke-width="0.2577" stroke-dasharray="1.2883,1.2883" d="M2.69,453.44   c0.44,0.15,11.18,3.39,11.63,3.53c7.29,2.27,15.72,3.74,22.09,4.74c15.33,2.41,31.02,3.71,46.51,4.64   c28.65,1.72,57.17,1.94,85.84,1.95c28.41,0.01,56.59,0.02,84.99-1.57c16.54-0.93,47.59-2.97,67.53-8.93   c1.12-0.33,12.55-3.79,13.6-4.15"/>
	
</g>
<g id="图层_x0020_1">
	<path fill="#F08300" d="M156.94,43.49c0.416,1.136,1.472,1.984,2.752,2.032c0.144,0,0.304,0,0.448-0.016h0.016   c0.016,0,0.064,0,0.128-0.016c0.032,0,0.048-0.016,0.08-0.016c0.064-0.016,0.144-0.032,0.224-0.048c0.016,0,0.016,0,0.032,0   c0.192-0.048,0.4-0.112,0.576-0.208c0.192-0.096,0.4-0.224,0.608-0.384c0.672-0.56,1.104-1.408,1.104-2.352   c0-0.224-0.032-0.448-0.08-0.672l0,0C162.78,41.61,162.73,41.44,162.65,41.26C162.18,40.17,161.1,39.41,159.83,39.41C158.14,39.41,156.76,40.78,156.76,42.48C156.76,42.83,156.82,43.17,156.94,43.49L156.94,43.49L156.94,43.49z M161.24,42.51L161.24,42.51C161.21,43.29,160.55,43.89,159.77,43.85C158.98,43.82,158.39,43.17,158.42,42.38c0.032-0.784,0.688-1.376,1.472-1.344   C160.66,41.07,161.27,41.74,161.24,42.51L161.24,42.51z"/>
	<polygon fill="#F08300" points="175.27,40.09 ,174.63,41.68 ,173.19,41.68 ,171.77,45.23 ,169.82,45.23 ,171.22,41.68 ,169.64,41.68    ,170.28,40.09"/>
	<path fill="#F08300" d="M177.24,35.36c-1.008-0.096-3.024-0.144-5.056,0.112c-2.416,0.304-5.152,0.912-7.616,1.664   C162.52,37.74,160.65,38.46,159.3,39.23C159.5,39.2,159.69,39.18,159.88,39.18c0.48,0,0.944,0.112,1.36,0.288   C165.34,37.15,172.54,35.1,177.24,35.36L177.24,35.36L177.24,35.36z"/>
	<path fill="#F08300" d="M162.71,40.83c4-2.368,8.88-4.672,13.488-5.248c-4.608,0.288-10.224,2-14.288,4.304   C162.23,40.14,162.5,40.46,162.71,40.83C162.71,40.83,162.71,40.83,162.71,40.83z"/>
	<polygon fill="#F08300" points="180.76,40.09 ,180.14,41.68 ,178.68,41.68 ,177.27,45.23 ,176.81,45.23 ,175.3,45.23 ,173.61,45.23    ,174.2,43.73 ,175.91,43.73 ,176.73,41.68 ,175.14,41.68 ,175.78,40.09"/>
	<polygon fill="#F08300" points="169.85,40.09 ,169.21,41.68 ,166.92,43.79 ,169.18,43.79 ,168.6,45.23 ,163.11,45.23 ,166.78,41.68    ,164.2,41.68 ,164.84,40.09"/>
	<path fill="#F08300" d="M175.13,35.95c-3.376,0.752-6.464,2.192-9.424,3.952h1.888C170.02,38.33,172.36,36.9,175.13,35.95z    M164.33,40.77C163.7,41.15,163.64,41.2,163.03,41.61c0.064,0.256,0.112,0.544,0.112,0.816c0,0.496-0.112,0.976-0.32,1.392   c0.176-0.16,0.32-0.304,0.432-0.4c0.272-0.24,0.768-0.64,1.6-1.296l0.32-0.256H163.85l0,0L164.33,40.77L164.33,40.77L164.33,40.77z"/>
</g>
</svg>