<?xml version="1.0" encoding="utf-8"?>
<!-- Generator: Adobe Illustrator 23.0.0, SVG Export Plug-In . SVG Version: 6.00 Build 0)  -->
<svg xmlns="http://www.w3.org/2000/svg" xmlns:xlink="http://www.w3.org/1999/xlink" version="1.1" id="图层_1" x="0px" y="0px" width="380px" height="246px" viewBox="0 0 380 246" enable-background="new 0 0 380 246" xml:space="preserve">
<g>
	
		<path fill-rule="evenodd" clip-rule="evenodd" fill="#162E53" stroke="#DCDDDD" stroke-width="0.2999" stroke-miterlimit="22.9256" d="   M189.99,245.7L189.99,245.7l-3.11-0.01l-3.1-0.02l-3.1-0.03l-3.1-0.04l-3.1-0.05l-3.1-0.06l-3.1-0.07l-3.1-0.08l-3.1-0.09l-3.1-0.1   l-3.1-0.11l-3.06-0.11l-3.06-0.12l-3.06-0.13l-3.06-0.14l-3.06-0.15l-3.06-0.17l-3.06-0.18l-3.06-0.19l-3.06-0.21l-3.08-0.23   l-3.07-0.24l-3.07-0.26l-3.07-0.28l-3.07-0.3l-3.07-0.32l-3.06-0.35l-3.06-0.37l-3.06-0.39l-3.01-0.41l-3.01-0.44l-3-0.46l-3-0.48   l-3-0.51l-2.99-0.53l-2.99-0.55l-2.98-0.57l-2.97-0.59l-2.97-0.61l-2.97-0.63l-2.96-0.65l-2.96-0.67l-2.95-0.69l-2.98-0.73   l-2.95-0.72l-2.96-0.74l-2.95-0.76l-2.95-0.77l-2.95-0.79l-2.94-0.8l-2.94-0.81l-2.94-0.82l-2.93-0.83l-2.93-0.84l-2.93-0.85   l-2.93-0.86l-2.93-0.87l-2.92-0.87l-2.92-0.88L9,219.29l-2.92-0.88l-2.92-0.88l-2.92-0.89C16.48,143.51,37.36,73,59.21,0.46   c104.81,28.96,156.76,28.96,261.57,0c21.85,72.55,42.73,143.05,58.97,216.16l-2.92,0.89l-2.92,0.88l-2.92,0.88l-2.92,0.88   l-2.92,0.88l-2.92,0.87l-2.93,0.87l-2.93,0.86l-2.93,0.85l-2.93,0.84l-2.93,0.83l-2.94,0.82l-2.94,0.81l-2.94,0.8l-2.95,0.79   l-2.95,0.77l-2.95,0.76l-2.96,0.74l-2.95,0.72l-2.95,0.71l-2.95,0.69l-2.96,0.67l-2.96,0.65l-2.97,0.63l-2.97,0.61l-2.97,0.59   l-2.98,0.57l-2.99,0.55l-2.99,0.53l-3,0.51l-3,0.48l-3,0.46l-3.01,0.44l-3.01,0.41l-3.06,0.39l-3.06,0.37l-3.06,0.35l-3.07,0.32   l-3.07,0.3l-3.07,0.28l-3.07,0.26l-3.07,0.24l-3.08,0.23l-3.06,0.21l-3.06,0.19l-3.06,0.18l-3.06,0.17l-3.06,0.15l-3.06,0.14   l-3.06,0.13l-3.06,0.12l-3.06,0.11l-3.1,0.11l-3.1,0.1l-3.1,0.09l-3.1,0.08l-3.1,0.07l-3.1,0.06l-3.1,0.05l-3.1,0.04l-3.1,0.03   l-3.1,0.02L189.99,245.7L189.99,245.7z"/>
	<g>
		
			<linearGradient id="SVGID_1_" gradientUnits="userSpaceOnUse" x1="282.9602" y1="43.7477" x2="353.2954" y2="144.1968" gradientTransform="matrix(1 0 0 -1 0 245.8898)">
			<stop offset="0" style="stop-color:#E6328C"/>
			<stop offset="1" style="stop-color:#0F233F"/>
		</linearGradient>
		<path fill-rule="evenodd" clip-rule="evenodd" fill="url(#SVGID_1_)" d="M151.07,244.86c12.34-16.42,27.42-35.84,35.25-43.49    c21.95-21.43,82.29-94.67,92.02-117.5c-17.6,28.32-67.45,90.21-94.51,115.29c-3.9,3.61-17.74,17.24-37.55,45.49l0.39,0.02    l3.06,0.13L151.07,244.86L151.07,244.86z M189.99,245.7L189.99,245.7l-3.11-0.01l-2.94-0.02c8.77-10.76,16.94-20.18,21.33-24.48    c16.47-16.18,108.89-128.28,116.73-147.78c-8.78,30.83-85.16,119.47-130.31,172.28L189.99,245.7L189.99,245.7L189.99,245.7z     M353.7,113.17c0.4,1.46,0.8,2.91,1.2,4.37c-21.39,42.08-79.86,113.18-79.86,113.18c30.4-27.17,76.24-91.77,76.24-91.77    c-9.2,20.75-44.93,64.39-77.59,102.64l-0.54,0.06l-3.06,0.35l-3.07,0.32l-3.07,0.3l-3.07,0.28l-2.41,0.21    C295.88,198.71,334.2,148.14,353.7,113.17L353.7,113.17z M359.48,134.39c-17.92,30.19-49.73,71.62-79.57,106.42l2.38-0.33    l3.01-0.44l3-0.46l3-0.48l2.98-0.5c26.63-29.17,52.5-60.18,69.98-86.09c-0.48-1.85-0.96-3.71-1.45-5.56    c-5.02,7.03-11.04,14.68-18.27,22.8c0,0,8.48-11.81,16.57-29.24C360.57,138.47,360.04,136.43,359.48,134.39L359.48,134.39z     M372.73,186.33c-6.69,10.57-16.82,24.55-31.93,41.71l0.9-0.24l2.51-0.7c9.08-10.64,20.65-24.97,29.17-38.08L372.73,186.33    L372.73,186.33z M376.54,202.47l0.44,1.92c-3.87,5.5-8.16,11.18-12.61,16.86l-2.16,0.64l-1.29,0.38    C366.48,215.61,371.82,208.94,376.54,202.47L376.54,202.47z M377.74,207.73c0.27,1.17,0.53,2.35,0.8,3.52    c-1.65,2.5-3.37,4.9-5.21,7.3l-2.35,0.71l-1.55,0.47C372.15,216.07,374.92,212.1,377.74,207.73L377.74,207.73z M379.65,216.19    l0.09,0.42l-0.52,0.16L379.65,216.19L379.65,216.19z M336.3,229.24c10.17-12.39,21.89-27.7,33.95-45.57    c-9.57,12.06-24.44,30-39.22,46.95l1.82-0.47l2.95-0.77L336.3,229.24L336.3,229.24z M209.05,245.48l-0.44,0.01l-3.1,0.06    l-3.1,0.05l-3.1,0.04l-3.1,0.03l-1.03,0.01c60.25-62.64,105.27-114.24,136.87-180.37C319.51,113.14,260.07,186.92,209.05,245.48z"/>
		<path fill-rule="evenodd" clip-rule="evenodd" fill="#ED3996" d="M178.78,245.62l-1.21-0.02l-3.1-0.05l-3.07-0.06    c43.65-39.38,107.62-112.75,132.29-157.85C290.38,125.72,231.24,194.03,178.78,245.62L178.78,245.62z M170.46,245.47    c19.26-19.46,72.45-74.53,84.63-101.04c0,0-31.11,38.79-61.59,67.54c0,0,85.91-98.7,99.62-137.08c0,0-32.16,54.76-110.87,140.86    c-6.98,7.64-16.26,18.27-25.32,29.32l2.04,0.07l3.1,0.1l3.1,0.09l3.1,0.08L170.46,245.47L170.46,245.47z M342.61,74.05l0.01,0.04    c-12.3,43.31-64.84,110.96-115.41,170.84l3.04-0.12l3.06-0.13l3.06-0.14l3.06-0.15l3.06-0.17l3.06-0.18l3.06-0.19l3.06-0.21    l3.08-0.23l1.24-0.1c40.81-49.1,85.99-108.63,94.14-140.33c0,0-22.18,56.44-91.19,126.09c0,0,41.27-42.54,65.15-88.36    c0,0-31.97,49.23-59.1,76.28C286.98,187.41,328.01,122.25,342.61,74.05L342.61,74.05z M366.29,160.42    c0.51,1.98,1.01,3.96,1.51,5.94c-11.77,22.22-30.25,45.25-50.39,67.57l-2.28,0.52l-2.96,0.65l-2.97,0.63l-2.06,0.42    C336.98,202.93,354.86,179.52,366.29,160.42L366.29,160.42z M374.39,193.31c0.24,1.02,0.48,2.03,0.72,3.05    c-6.58,9.12-13.8,18.62-21.01,27.91l-0.68,0.2l-2.93,0.84l-2.15,0.61C357.33,215.54,366.29,204.43,374.39,193.31L374.39,193.31z     M219.35,245.21c16.4-19.03,32.64-38.13,49.34-57.58c26.4-30.73,60.67-81.89,65.13-119.51c0,0-15.56,63.52-97.17,153.41    c0,0-8.91,10.12-20.92,23.78l2.19-0.06L219.35,245.21z"/>
	</g>
	<path fill="none" stroke="#DCDDDD" stroke-width="0.2999" stroke-miterlimit="22.9256" d="M329.98,31.12   c-76.76,33.5-203.28,33.47-279.93-0.11"/>
	<path fill="none" stroke="#DCDDDD" stroke-width="0.2835" stroke-dasharray="2.8346,1.4173" d="M323.57,9.74   c-71.5,32.48-195.74,32.44-267.12-0.11"/>
	<polyline fill="none" stroke="#DCDDDD" stroke-width="0.2835" stroke-dasharray="2.8346,1.4173" points="2.39,207.05 14.76,210.7    17.66,211.57 20.57,212.43 23.48,213.29 26.38,214.15 29.28,214.99 32.18,215.83 35.09,216.65 37.98,217.47 40.89,218.27    43.81,219.07 46.71,219.84 49.61,220.61 52.52,221.35 55.42,222.09 58.31,222.8 61.21,223.49 64.1,224.17 67,224.82 69.9,225.46    72.8,226.08 75.71,226.68 78.62,227.26 81.53,227.82 84.45,228.36 87.36,228.87 90.29,229.37 93.21,229.84 96.13,230.29    99.06,230.71 101.99,231.11 104.97,231.5 107.96,231.86 110.95,232.19 113.94,232.51 116.95,232.8 119.96,233.08 122.97,233.33    125.99,233.57 129.01,233.79 132.02,234 135.03,234.19 138.04,234.37 141.04,234.53 144.07,234.68 147.1,234.82 150.13,234.95    153.15,235.07 156.19,235.19 159.26,235.29 162.35,235.39 165.41,235.48 168.49,235.56 171.57,235.63 174.63,235.69 177.71,235.74    180.77,235.78 183.85,235.81 186.92,235.83 193.07,235.83 196.11,235.81 199.18,235.78 202.25,235.74 205.32,235.69 208.39,235.63    211.46,235.56 214.54,235.48 217.61,235.39 220.69,235.29 223.76,235.19 226.8,235.08 229.83,234.95 232.86,234.82 235.88,234.68    238.9,234.53 241.94,234.37 244.96,234.19 247.96,234 250.97,233.79 253.99,233.57 257.01,233.33 260.02,233.08 263.04,232.8    266.04,232.51 269.04,232.19 272.02,231.86 275.01,231.5 277.99,231.11 280.92,230.71 283.85,230.29 286.77,229.84 289.7,229.37    292.63,228.87 295.54,228.36 298.45,227.82 301.36,227.26 304.27,226.68 307.18,226.08 310.08,225.46 312.98,224.82 315.89,224.17    318.77,223.49 321.67,222.8 324.57,222.09 327.46,221.35 330.38,220.61 333.27,219.84 336.17,219.07 339.07,218.28 341.96,217.48    344.86,216.66 347.77,215.83 350.67,215 353.58,214.15 356.48,213.3 359.39,212.44 362.3,211.57 365.21,210.7 377.57,206.94  "/>
	
		<path fill-rule="evenodd" clip-rule="evenodd" fill="#DCDDDD" stroke="#DCDDDD" stroke-width="0.2999" stroke-miterlimit="22.9256" d="   M321.07,0.46c-69.09,32.16-192.76,32.16-261.85,0C146.5,0.43,233.76,0.13,321.07,0.46z"/>
	
</g>
<g id="图层_x0020_1">
	<path fill="#F08300" d="M178.31,21c0.416,1.136,1.472,1.984,2.752,2.032c0.144,0,0.304,0,0.448-0.016h0.016   c0.016,0,0.064,0,0.128-0.016c0.032,0,0.048-0.016,0.08-0.016c0.064-0.016,0.144-0.032,0.224-0.048c0.016,0,0.016,0,0.032,0   c0.192-0.048,0.4-0.112,0.576-0.208c0.192-0.096,0.4-0.224,0.608-0.384c0.672-0.56,1.104-1.408,1.104-2.352   c0-0.224-0.032-0.448-0.08-0.672l0,0C184.15,19.12,184.1,18.95,184.02,18.77C183.55,17.68,182.47,16.92,181.2,16.92C179.51,16.92,178.13,18.29,178.13,19.99C178.13,20.34,178.19,20.68,178.31,21L178.31,21L178.31,21z M182.61,20.02L182.61,20.02C182.58,20.8,181.92,21.4,181.14,21.36C180.35,21.33,179.76,20.68,179.79,19.89c0.032-0.784,0.688-1.376,1.472-1.344   C182.03,18.58,182.64,19.25,182.61,20.02L182.61,20.02z"/>
	<polygon fill="#F08300" points="196.64,17.6 ,196,19.19 ,194.56,19.19 ,193.14,22.74 ,191.19,22.74 ,192.59,19.19 ,191.01,19.19    ,191.65,17.6"/>
	<path fill="#F08300" d="M198.61,12.87c-1.008-0.096-3.024-0.144-5.056,0.112c-2.416,0.304-5.152,0.912-7.616,1.664   C183.89,15.25,182.02,15.97,180.67,16.74C180.87,16.71,181.06,16.69,181.25,16.69c0.48,0,0.944,0.112,1.36,0.288   C186.71,14.66,193.91,12.61,198.61,12.87L198.61,12.87L198.61,12.87z"/>
	<path fill="#F08300" d="M184.08,18.34c4-2.368,8.88-4.672,13.488-5.248c-4.608,0.288-10.224,2-14.288,4.304   C183.6,17.65,183.87,17.97,184.08,18.34C184.08,18.34,184.08,18.34,184.08,18.34z"/>
	<polygon fill="#F08300" points="202.13,17.6 ,201.51,19.19 ,200.05,19.19 ,198.64,22.74 ,198.18,22.74 ,196.67,22.74 ,194.98,22.74    ,195.57,21.24 ,197.28,21.24 ,198.1,19.19 ,196.51,19.19 ,197.15,17.6"/>
	<polygon fill="#F08300" points="191.22,17.6 ,190.58,19.19 ,188.29,21.3 ,190.55,21.3 ,189.97,22.74 ,184.48,22.74 ,188.15,19.19    ,185.57,19.19 ,186.21,17.6"/>
	<path fill="#F08300" d="M196.5,13.46c-3.376,0.752-6.464,2.192-9.424,3.952h1.888C191.39,15.84,193.73,14.41,196.5,13.46z    M185.7,18.28C185.07,18.66,185.01,18.71,184.4,19.12c0.064,0.256,0.112,0.544,0.112,0.816c0,0.496-0.112,0.976-0.32,1.392   c0.176-0.16,0.32-0.304,0.432-0.4c0.272-0.24,0.768-0.64,1.6-1.296l0.32-0.256H185.22l0,0L185.7,18.28L185.7,18.28L185.7,18.28z"/>
</g>
</svg>