<?xml version="1.0" encoding="utf-8"?>
<!-- Generator: Adobe Illustrator 23.0.0, SVG Export Plug-In . SVG Version: 6.00 Build 0)  -->
<svg xmlns="http://www.w3.org/2000/svg" xmlns:xlink="http://www.w3.org/1999/xlink" version="1.1" id="图层_1" x="0px" y="0px" width="380px" height="246px" viewBox="0 0 380 246" enable-background="new 0 0 380 246" xml:space="preserve">
<g>
	
		<path fill-rule="evenodd" clip-rule="evenodd" fill="#162E52" stroke="#DCDDDD" stroke-width="0.2999" stroke-miterlimit="22.9256" d="   M189.99,245.7L189.99,245.7l-3.11-0.01l-3.1-0.02l-3.1-0.03l-3.1-0.04l-3.1-0.05l-3.1-0.06l-3.1-0.07l-3.1-0.08l-3.1-0.09l-3.1-0.1   l-3.1-0.11l-3.06-0.11l-3.06-0.12l-3.06-0.13l-3.06-0.14l-3.06-0.15l-3.06-0.17l-3.06-0.18l-3.06-0.19l-3.06-0.21l-3.08-0.23   l-3.07-0.24l-3.07-0.26l-3.07-0.28l-3.07-0.3l-3.07-0.32l-3.06-0.35l-3.06-0.37l-3.06-0.39l-3.01-0.41l-3.01-0.44l-3-0.46l-3-0.48   l-3-0.51l-2.99-0.53l-2.99-0.55l-2.98-0.57l-2.97-0.59l-2.97-0.61l-2.97-0.63l-2.96-0.65l-2.96-0.67l-2.95-0.69l-2.98-0.73   l-2.95-0.72l-2.96-0.74l-2.95-0.76l-2.95-0.77l-2.95-0.79l-2.94-0.8l-2.94-0.81l-2.94-0.82l-2.93-0.83l-2.93-0.84l-2.93-0.85   l-2.93-0.86l-2.93-0.87l-2.92-0.87l-2.92-0.88L9,219.29l-2.92-0.88l-2.92-0.88l-2.92-0.89C16.48,143.51,37.36,73,59.21,0.46   c104.81,28.96,156.76,28.96,261.57,0c21.85,72.55,42.73,143.05,58.97,216.16l-2.92,0.89l-2.92,0.88l-2.92,0.88l-2.92,0.88   l-2.92,0.88l-2.92,0.87l-2.93,0.87l-2.93,0.86l-2.93,0.85l-2.93,0.84l-2.93,0.83l-2.94,0.82l-2.94,0.81l-2.94,0.8l-2.95,0.79   l-2.95,0.77l-2.95,0.76l-2.96,0.74l-2.95,0.72l-2.95,0.71l-2.95,0.69l-2.96,0.67l-2.96,0.65l-2.97,0.63l-2.97,0.61l-2.97,0.59   l-2.98,0.57l-2.99,0.55l-2.99,0.53l-3,0.51l-3,0.48l-3,0.46l-3.01,0.44l-3.01,0.41l-3.06,0.39l-3.06,0.37l-3.06,0.35l-3.07,0.32   l-3.07,0.3l-3.07,0.28l-3.07,0.26l-3.07,0.24l-3.08,0.23l-3.06,0.21l-3.06,0.19l-3.06,0.18l-3.06,0.17l-3.06,0.15l-3.06,0.14   l-3.06,0.13l-3.06,0.12l-3.06,0.11l-3.1,0.11l-3.1,0.1l-3.1,0.09l-3.1,0.08l-3.1,0.07l-3.1,0.06l-3.1,0.05l-3.1,0.04l-3.1,0.03   l-3.1,0.02L189.99,245.7L189.99,245.7z"/>
	<g>
		<path fill-rule="evenodd" clip-rule="evenodd" fill="#00778D" d="M376.04,200.29c-15.1,7.26-28.93,17.18-40.58,29.12l-0.08,0.08    l0.44-0.11l2.95-0.79l2.94-0.8l2.94-0.81l2.94-0.82l2.93-0.83l0.43-0.12c7.01-7.12,15.3-13.61,24.87-18.56    c0.51-0.26,1.01-0.52,1.52-0.77C376.89,204,376.46,202.15,376.04,200.29L376.04,200.29z M350.68,102.3    c0.59,2.1,1.18,4.19,1.76,6.29c-20.75,5.27-39.85,14.85-54.78,29.15C272.68,161.67,264.2,187,261.98,199    c-2.55,13.8-2.89,25.52-2.59,39.7c-1.25,1.09-2.5,2.2-3.67,3.28c-0.4-23.33-0.5-25.92,1.25-41.75c0.07-0.63,0.1-1.23,0.27-1.83    C270.32,153.12,304.79,116.38,350.68,102.3z"/>
		<path fill-rule="evenodd" clip-rule="evenodd" fill="#FFF500" d="M270.33,241.97c4.32-6.83,8.33-14.41,12.99-22.18    c20.41-34.07,42.44-59.7,80.36-69.55c-0.49-1.87-0.97-3.73-1.46-5.6c-28.35,7.23-50.54,27.18-65.79,47.33    c-14.05,18.55-21.22,37.67-30.15,50.42l0.76-0.07l3.07-0.32L270.33,241.97L270.33,241.97z M366.35,160.61    c0.47,1.85,0.94,3.7,1.41,5.55c-6.24,2.39-12.35,5.24-18.26,8.56c-32.39,18.21-49.15,46.87-64.52,65.37l-2.68,0.39l-3.01,0.41    l-1.56,0.2l0.1-0.14c18.72-20.41,38.55-51.32,68.23-71.78C351.77,165.23,359.42,163.03,366.35,160.61L366.35,160.61z     M369.73,174.1c0.33,1.33,0.66,2.66,0.99,3.99c-1.92,0.72-3.75,1.45-5.5,2.16c-20.57,10.96-45.89,31.86-63.59,52.49    c-1.55,1.81-3.05,3.6-4.52,5.35l-2.81,0.5l-3,0.51l-0.46,0.07c4.42-5.44,9.08-11.32,14.38-17.26    C322.51,202.53,346.35,184.95,369.73,174.1L369.73,174.1z M354.61,116.43c0.46,1.67,0.92,3.33,1.37,5    c-40.17,11.71-75.04,37.35-86.86,73.89c-5.35,16.55-13.49,34.28-22.6,46.29c-0.65,0.86-1.31,1.68-1.99,2.48l-1.68,0.1    c9.98-11.31,18.48-30.87,22.51-46.16c-8.89,25.91-22.07,39.53-33.34,46.7l-1.77,0.08l-1.8,0.07    c19.82-14.07,32.79-42.11,37.12-48.78c0.67-1.07,0.75-1.22,1.19-2.37C281.85,153.78,315.93,128.1,354.61,116.43L354.61,116.43z     M359.79,135.49l0.55,2.07c-29.36,9.31-54.92,27.59-72.56,52.17C305.85,162.91,331.73,145.03,359.79,135.49L359.79,135.49z     M371.9,182.93c0.38,1.55,0.75,3.09,1.12,4.64c-26,10.81-47.89,30.29-64.21,48.24l-2.58,0.53l-2.97,0.59l-0.88,0.17    c5.92-7.13,11.78-14.22,18.29-20.9c14.17-14.55,29.88-27.69,50.46-33.08C371.39,183.07,371.64,183,371.9,182.93L371.9,182.93z     M251.29,243.66c4.93-2.76,9.71-7.85,11.86-13.25c0.05-1.9,0.18-3.84,0.39-5.81c0,0-4.3,10.61-13.44,19.14L251.29,243.66    L251.29,243.66z M265.48,197.69c0.06-0.16,0.08-0.29,0.18-0.46c0.06-0.18,0.07-0.36,0.13-0.56    C265.67,197.04,265.6,197.37,265.48,197.69z"/>
	</g>
	<path fill="none" stroke="#DCDDDD" stroke-width="0.2999" stroke-miterlimit="22.9256" d="M329.98,31.12   c-76.76,33.5-203.28,33.47-279.93-0.11"/>
	<path fill="none" stroke="#DCDDDD" stroke-width="0.2835" stroke-dasharray="2.8346,1.4173" d="M323.57,9.74   c-71.5,32.48-195.74,32.44-267.12-0.11"/>
	<polyline fill="none" stroke="#DCDDDD" stroke-width="0.2835" stroke-dasharray="2.8346,1.4173" points="2.39,207.05 14.76,210.7    17.66,211.57 20.57,212.43 23.48,213.29 26.38,214.15 29.28,214.99 32.18,215.83 35.09,216.65 37.98,217.47 40.89,218.27    43.81,219.07 46.71,219.84 49.61,220.61 52.52,221.35 55.42,222.09 58.31,222.8 61.21,223.49 64.1,224.17 67,224.82 69.9,225.46    72.8,226.08 75.71,226.68 78.62,227.26 81.53,227.82 84.45,228.36 87.36,228.87 90.29,229.37 93.21,229.84 96.13,230.29    99.06,230.71 101.99,231.11 104.97,231.5 107.96,231.86 110.95,232.19 113.94,232.51 116.95,232.8 119.96,233.08 122.97,233.33    125.99,233.57 129.01,233.79 132.02,234 135.03,234.19 138.04,234.37 141.04,234.53 144.07,234.68 147.1,234.82 150.13,234.95    153.15,235.07 156.19,235.19 159.26,235.29 162.35,235.39 165.41,235.48 168.49,235.56 171.57,235.63 174.63,235.69 177.71,235.74    180.77,235.78 183.85,235.81 186.92,235.83 193.07,235.83 196.11,235.81 199.18,235.78 202.25,235.74 205.32,235.69 208.39,235.63    211.46,235.56 214.54,235.48 217.61,235.39 220.69,235.29 223.76,235.19 226.8,235.08 229.83,234.95 232.86,234.82 235.88,234.68    238.9,234.53 241.94,234.37 244.96,234.19 247.96,234 250.97,233.79 253.99,233.57 257.01,233.33 260.02,233.08 263.04,232.8    266.04,232.51 269.04,232.19 272.02,231.86 275.01,231.5 277.99,231.11 280.92,230.71 283.85,230.29 286.77,229.84 289.7,229.37    292.63,228.87 295.54,228.36 298.45,227.82 301.36,227.26 304.27,226.68 307.18,226.08 310.08,225.46 312.98,224.82 315.89,224.17    318.77,223.49 321.67,222.8 324.57,222.09 327.46,221.35 330.38,220.61 333.27,219.84 336.17,219.07 339.07,218.28 341.96,217.48    344.86,216.66 347.77,215.84 350.67,215 353.58,214.15 356.48,213.3 359.39,212.44 362.3,211.57 365.21,210.7 377.57,206.94  "/>
	
		<path fill-rule="evenodd" clip-rule="evenodd" fill="#DCDDDD" stroke="#DCDDDD" stroke-width="0.2999" stroke-miterlimit="22.9256" d="   M321.07,0.46c-69.09,32.16-192.76,32.16-261.85,0C146.5,0.43,233.76,0.13,321.07,0.46z"/>
	
</g>
<g id="图层_x0020_1">
	<path fill="#F08300" d="M178.31,21c0.416,1.136,1.472,1.984,2.752,2.032c0.144,0,0.304,0,0.448-0.016h0.016   c0.016,0,0.064,0,0.128-0.016c0.032,0,0.048-0.016,0.08-0.016c0.064-0.016,0.144-0.032,0.224-0.048c0.016,0,0.016,0,0.032,0   c0.192-0.048,0.4-0.112,0.576-0.208c0.192-0.096,0.4-0.224,0.608-0.384c0.672-0.56,1.104-1.408,1.104-2.352   c0-0.224-0.032-0.448-0.08-0.672l0,0C184.15,19.12,184.1,18.95,184.02,18.77C183.55,17.68,182.47,16.92,181.2,16.92C179.51,16.92,178.13,18.29,178.13,19.99C178.13,20.34,178.19,20.68,178.31,21L178.31,21L178.31,21z M182.61,20.02L182.61,20.02C182.58,20.8,181.92,21.4,181.14,21.36C180.35,21.33,179.76,20.68,179.79,19.89c0.032-0.784,0.688-1.376,1.472-1.344   C182.03,18.58,182.64,19.25,182.61,20.02L182.61,20.02z"/>
	<polygon fill="#F08300" points="196.64,17.6 ,196,19.19 ,194.56,19.19 ,193.14,22.74 ,191.19,22.74 ,192.59,19.19 ,191.01,19.19    ,191.65,17.6"/>
	<path fill="#F08300" d="M198.61,12.87c-1.008-0.096-3.024-0.144-5.056,0.112c-2.416,0.304-5.152,0.912-7.616,1.664   C183.89,15.25,182.02,15.97,180.67,16.74C180.87,16.71,181.06,16.69,181.25,16.69c0.48,0,0.944,0.112,1.36,0.288   C186.71,14.66,193.91,12.61,198.61,12.87L198.61,12.87L198.61,12.87z"/>
	<path fill="#F08300" d="M184.08,18.34c4-2.368,8.88-4.672,13.488-5.248c-4.608,0.288-10.224,2-14.288,4.304   C183.6,17.65,183.87,17.97,184.08,18.34C184.08,18.34,184.08,18.34,184.08,18.34z"/>
	<polygon fill="#F08300" points="202.13,17.6 ,201.51,19.19 ,200.05,19.19 ,198.64,22.74 ,198.18,22.74 ,196.67,22.74 ,194.98,22.74    ,195.57,21.24 ,197.28,21.24 ,198.1,19.19 ,196.51,19.19 ,197.15,17.6"/>
	<polygon fill="#F08300" points="191.22,17.6 ,190.58,19.19 ,188.29,21.3 ,190.55,21.3 ,189.97,22.74 ,184.48,22.74 ,188.15,19.19    ,185.57,19.19 ,186.21,17.6"/>
	<path fill="#F08300" d="M196.5,13.46c-3.376,0.752-6.464,2.192-9.424,3.952h1.888C191.39,15.84,193.73,14.41,196.5,13.46z    M185.7,18.28C185.07,18.66,185.01,18.71,184.4,19.12c0.064,0.256,0.112,0.544,0.112,0.816c0,0.496-0.112,0.976-0.32,1.392   c0.176-0.16,0.32-0.304,0.432-0.4c0.272-0.24,0.768-0.64,1.6-1.296l0.32-0.256H185.22l0,0L185.7,18.28L185.7,18.28L185.7,18.28z"/>
</g>
</svg>