<?xml version="1.0" encoding="utf-8"?>
<!-- Generator: Adobe Illustrator 23.0.0, SVG Export Plug-In . SVG Version: 6.00 Build 0)  -->
<svg xmlns="http://www.w3.org/2000/svg" xmlns:xlink="http://www.w3.org/1999/xlink" version="1.1" id="图层_1" x="0px" y="0px" width="297.02px" height="537.6px" viewBox="0 0 297.02 537.6" enable-background="new 0 0 297.02 537.6" xml:space="preserve">
<g>
	<path fill-rule="evenodd" clip-rule="evenodd" stroke="#DCDDDD" stroke-width="0.2248" stroke-miterlimit="22.9256" d="   M265.64,147.21c0,0-13.43,38.68-13.43,97.97s1.97,144.19,44.56,271.29c0,0-24.02,10.29-50.83,13.85   c-9.3-142.7-51.34-284.15-10.46-427.84C242.81,119.35,253.4,134.58,265.64,147.21z"/>
	
		<path fill-rule="evenodd" clip-rule="evenodd" fill="#00778E" stroke="#DCDDDD" stroke-width="0.2248" stroke-miterlimit="22.9256" d="   M232.91,10.69c-20.31,52.13,0.51,103.25,32.71,136.52l3.12-8.7C214.23,76.97,241,17.53,242.25,15.02L232.91,10.69z"/>
	<path fill-rule="evenodd" clip-rule="evenodd" fill="#DCDDDD" d="M90.32,8.47c6.35,19.73,25.2,68.13,58.18,71.59   c32.98-3.46,51.83-51.87,58.18-71.59c-9.72,3.99-31.2,11.39-58.18,11.98C121.52,19.86,100.04,12.47,90.32,8.47z"/>
	
		<path fill-rule="evenodd" clip-rule="evenodd" fill="#00778E" stroke="#DCDDDD" stroke-width="0.2248" stroke-miterlimit="22.9256" d="   M81.83,2.62c7.69,31.39,30.1,80.3,66.52,84.01c0.05,0,0.1-0.01,0.15-0.01c0.05,0,0.1,0.01,0.15,0.01   c36.42-3.71,58.83-52.62,66.52-84.01l-6.05-2.41c-17.68,9.28-39.1,13.6-60.62,13.6c-21.52-0.01-42.94-4.32-60.62-13.6L81.83,2.62   L81.83,2.62L81.83,2.62L81.83,2.62z M148.5,80.06C115.52,76.6,96.67,28.19,90.32,8.47c9.72,3.99,31.2,11.39,58.18,11.98   c26.98-0.59,48.46-7.98,58.18-11.98C200.33,28.2,181.48,76.6,148.5,80.06z"/>
	<path fill-rule="evenodd" clip-rule="evenodd" stroke="#DCDDDD" stroke-width="0.2248" stroke-miterlimit="22.9256" d="   M31.38,147.2c0,0,13.43,38.68,13.43,97.97S42.84,389.36,0.25,516.46c0,0,24.02,10.29,50.83,13.85   c9.3-142.7,51.34-284.15,10.46-427.84C54.21,119.34,43.62,134.56,31.38,147.2z"/>
	
		<path fill-rule="evenodd" clip-rule="evenodd" fill="#00778E" stroke="#DCDDDD" stroke-width="0.2248" stroke-miterlimit="22.9256" d="   M64.09,10.69c20.31,52.13-0.51,103.25-32.71,136.52l-3.12-8.7C82.76,76.97,55.99,17.53,54.74,15.02L64.09,10.69z"/>
	
	
		<path fill-rule="evenodd" clip-rule="evenodd" fill="#FFFFFF" stroke="#DCDDDD" stroke-width="0.1621" stroke-miterlimit="22.9256" d="   M148.51,537.38c0,0,10.9,0.28,34.98-3.45c0,0,12.74-2.03,19.79-2.38c7.05-0.34,26.09,1.74,42.67-1.25   c-9.3-142.7-51.34-284.14-10.46-427.84c-11.94-27.53-15.15-59.46-2.56-91.78l-17.75-8.06c-7.69,31.39-30.1,80.3-66.52,84.01   l-0.15-0.01l-0.15,0.01c-36.42-3.71-58.84-52.62-66.53-84.01L64.09,10.7c12.59,32.32,9.37,64.25-2.56,91.78   c40.88,143.68-1.16,285.13-10.47,427.83c16.57,3,35.62,0.91,42.67,1.25s19.79,2.38,19.79,2.38   C137.6,537.65,148.51,537.38,148.51,537.38z"/>
	<g>
		<path fill-rule="evenodd" clip-rule="evenodd" fill="#45286A" d="M87.92,22.28c-0.82-2.19-1.58-4.36-2.28-6.49l-16.79,9.96    c0.57,2.33,1.06,4.65,1.48,6.97L87.92,22.28z"/>
		<path fill-rule="evenodd" clip-rule="evenodd" fill="#45286A" d="M227.28,29.67c0.48-2.29,1.02-4.58,1.65-6.87l-16.63-9.87    c-0.67,2.15-1.4,4.34-2.19,6.55L227.28,29.67z"/>
	</g>
	<path fill-rule="evenodd" clip-rule="evenodd" fill="#00778D" d="M70.63,71.62h47.49c8.67,8.18,18.76,13.84,30.23,15.01l0.15-0.01   l0.15,0.01c11.47-1.17,21.56-6.83,30.23-15.01h47.49c1.72,10.72,4.86,21.07,9.1,30.85c-6.56,23.06-10.98,46.06-13.74,69.02H75.27   c-2.77-22.96-7.18-45.96-13.74-69.02C65.77,92.68,68.91,82.34,70.63,71.62z"/>
	<path fill-rule="evenodd" clip-rule="evenodd" fill="#000001" d="M75.26,171.4h146.49c-4.03,33.37-4.56,66.65-3.05,99.87H78.31   C79.82,238.05,79.29,204.77,75.26,171.4z"/>
	<path fill-rule="evenodd" clip-rule="evenodd" fill="#452869" d="M78.31,271.27H218.7c0.18,3.87,0.38,7.75,0.61,11.62H77.7   C77.93,279.02,78.13,275.15,78.31,271.27z"/>
	<path fill-rule="evenodd" clip-rule="evenodd" fill="#452869" d="M72.11,345.91H224.9c0.43,3.81,0.87,7.63,1.32,11.44H70.79   C71.24,353.54,71.68,349.72,72.11,345.91z"/>
	<path fill-rule="evenodd" clip-rule="evenodd" fill="#00778D" d="M70.8,357.26h155.41c2.94,24.79,6.3,49.57,9.48,74.36H61.32   C64.5,406.83,67.86,382.04,70.8,357.26z"/>
	<path fill-rule="evenodd" clip-rule="evenodd" fill="#000001" d="M61.31,431.71H235.7c3.18,24.77,6.17,49.55,8.37,74.36H52.94   C55.14,481.26,58.13,456.48,61.31,431.71z"/>
</g>
<g id="图层_x0020_1">
	<path fill="#F08300" d="M136.68,43.52c0.416,1.136,1.472,1.984,2.752,2.032c0.144,0,0.304,0,0.448-0.016h0.016   c0.016,0,0.064,0,0.128-0.016c0.032,0,0.048-0.016,0.08-0.016c0.064-0.016,0.144-0.032,0.224-0.048c0.016,0,0.016,0,0.032,0   c0.192-0.048,0.4-0.112,0.576-0.208c0.192-0.096,0.4-0.224,0.608-0.384c0.672-0.56,1.104-1.408,1.104-2.352   c0-0.224-0.032-0.448-0.08-0.672l0,0C142.52,41.64,142.47,41.47,142.39,41.29C141.92,40.2,140.84,39.44,139.57,39.44C137.88,39.44,136.5,40.81,136.5,42.51C136.5,42.86,136.56,43.2,136.68,43.52L136.68,43.52L136.68,43.52z M140.98,42.54L140.98,42.54C140.95,43.32,140.29,43.92,139.51,43.88C138.72,43.85,138.13,43.2,138.16,42.41c0.032-0.784,0.688-1.376,1.472-1.344   C140.4,41.1,141.01,41.77,140.98,42.54L140.98,42.54z"/>
	<polygon fill="#F08300" points="155.01,40.12 ,154.37,41.71 ,152.93,41.71 ,151.51,45.26 ,149.56,45.26 ,150.96,41.71 ,149.38,41.71    ,150.02,40.12"/>
	<path fill="#F08300" d="M156.98,35.39c-1.008-0.096-3.024-0.144-5.056,0.112c-2.416,0.304-5.152,0.912-7.616,1.664   C142.26,37.77,140.39,38.49,139.04,39.26C139.24,39.23,139.43,39.21,139.62,39.21c0.48,0,0.944,0.112,1.36,0.288   C145.08,37.18,152.28,35.13,156.98,35.39L156.98,35.39L156.98,35.39z"/>
	<path fill="#F08300" d="M142.45,40.86c4-2.368,8.88-4.672,13.488-5.248c-4.608,0.288-10.224,2-14.288,4.304   C141.97,40.17,142.24,40.49,142.45,40.86C142.45,40.86,142.45,40.86,142.45,40.86z"/>
	<polygon fill="#F08300" points="160.5,40.12 ,159.88,41.71 ,158.42,41.71 ,157.01,45.26 ,156.55,45.26 ,155.04,45.26 ,153.35,45.26    ,153.94,43.76 ,155.65,43.76 ,156.47,41.71 ,154.88,41.71 ,155.52,40.12"/>
	<polygon fill="#F08300" points="149.59,40.12 ,148.95,41.71 ,146.66,43.82 ,148.92,43.82 ,148.34,45.26 ,142.85,45.26 ,146.52,41.71    ,143.94,41.71 ,144.58,40.12"/>
	<path fill="#F08300" d="M154.87,35.98c-3.376,0.752-6.464,2.192-9.424,3.952h1.888C149.76,38.36,152.1,36.93,154.87,35.98z    M144.07,40.8C143.44,41.18,143.38,41.23,142.77,41.64c0.064,0.256,0.112,0.544,0.112,0.816c0,0.496-0.112,0.976-0.32,1.392   c0.176-0.16,0.32-0.304,0.432-0.4c0.272-0.24,0.768-0.64,1.6-1.296l0.32-0.256H143.59l0,0L144.07,40.8L144.07,40.8L144.07,40.8z"/>
</g>
</svg>