<?xml version="1.0" encoding="utf-8"?>
<!-- Generator: Adobe Illustrator 23.0.0, SVG Export Plug-In . SVG Version: 6.00 Build 0)  -->
<svg xmlns="http://www.w3.org/2000/svg" xmlns:xlink="http://www.w3.org/1999/xlink" version="1.1" id="图层_1" x="0px" y="0px" width="380px" height="342.5px" viewBox="0 0 380 342.5" enable-background="new 0 0 380 342.5" xml:space="preserve">
<g>
	
		<path fill-rule="evenodd" clip-rule="evenodd" fill="#FFFFFF" stroke="#DCDDDD" stroke-width="0.3057" stroke-miterlimit="22.9256" d="   M71.07,141.06L71.07,141.06L71.07,141.06l-50.85,0.78L0.28,71.73l81.77-27.89l0.34-0.11l0.34-0.11l-0.34,0.11   C91.68,71.17,79.92,132.55,71.07,141.06L71.07,141.06z"/>
	
		<path fill-rule="evenodd" clip-rule="evenodd" fill="#FFFFFF" stroke="#DCDDDD" stroke-width="0.3057" stroke-miterlimit="22.9256" d="   M308.88,141.06L308.88,141.06L308.88,141.06l50.74,0.78l20.05-70.12L297.9,43.83l-0.34-0.11l-0.11,0h0.11   C288.83,68.48,298.46,129.75,308.88,141.06L308.88,141.06z"/>
	
		<path fill-rule="evenodd" clip-rule="evenodd" fill="#FFFFFF" stroke="#DCDDDD" stroke-width="0.3057" stroke-miterlimit="22.9256" d="   M142.31,31.96c-7.62,0.11-53.88,10.53-59.93,11.76c9.3,27.44-2.35,88.83-11.31,97.34l1.57,201.18h117.39h117.39l0.11-10.75   l1.46-190.54c-10.42-11.31-20.05-72.59-11.31-97.34c-21.06-4.59-57.13-12.55-59.93-11.76C224.08,30.95,178.83,29.83,142.31,31.96z"/>
	<path fill-rule="evenodd" clip-rule="evenodd" fill="#DCDDDD" d="M189.92,27.59c-10.42-0.11-21.84,0.22-32.6,1.23l-6.38,1.01   c2.46,8.4,5.26,16.35,7.39,19.04c5.26,7.06,9.3,10.42,9.63,10.75c1.57-0.56,2.91-1.12,7.17-1.9l15.91,21.96   c2.02-6.05,4.48-8.51,6.61-12.55l0.11,0l0.11-0.11c8.63-7.28,22.18-12.77,22.18-12.77s0.56-6.61,0.9-12.55   c0.34-5.82,2.02-12.43,2.02-12.43l0.11-0.34l-0.22,0C211.76,27.82,200.22,27.48,189.92,27.59z"/>
	
		<path fill-rule="evenodd" clip-rule="evenodd" fill="#FFFFFF" stroke="#DCDDDD" stroke-width="0.3057" stroke-miterlimit="22.9256" d="   M167.85,59.74c-0.34-0.22-4.37-3.7-9.63-10.75c-2.35-3.02-5.6-12.66-8.29-22.18c-2.35-8.51-4.26-17.03-4.59-20.72l0,0   c0,0-2.24,8.63-7.62,14c-5.38,5.38-13.89,9.63-16.13,21.51c-1.12,11.76-4.26,22.51-4.26,22.51s13.11,7.06,47.27-3.25   c0.11,0,0.34-0.11,0.45-0.11c0.11,0,0.34-0.11,0.45-0.11c0.56-0.22,1.23-0.34,1.79-0.56C167.52,59.85,167.74,59.74,167.85,59.74   L167.85,59.74z"/>
	
		<path fill-rule="evenodd" clip-rule="evenodd" fill="#FFFFFF" stroke="#DCDDDD" stroke-width="0.3057" stroke-miterlimit="22.9256" d="   M197.53,67.02c-2.46,4.7-5.15,7.17-7.39,15.35c-0.45,1.46-0.78,3.14-1.12,5.04l0,0.11l0,0c-1.34,7.28-2.35,17.92-2.8,34.5   l13.11-0.22c-0.22-1.57,4.26-52.31,7.17-52.65l0,0l-0.11,0c-0.67-0.22-1.23-0.56-1.9-0.9c-0.45-0.22-0.9-0.45-1.23-0.56   c-1.01-0.45-2.02-0.78-3.25-0.78c-0.56,0-1.12,0-1.79,0C197.98,67.02,197.76,67.02,197.53,67.02   C197.65,67.02,197.53,67.02,197.53,67.02z"/>
	
		<path fill-rule="evenodd" clip-rule="evenodd" fill="#FFFFFF" stroke="#999991" stroke-width="0.3057" stroke-miterlimit="22.9256" d="   M199.89,66.91c1.23,0.11,2.35,0.45,3.25,0.78c0.45,0.22,0.9,0.34,1.23,0.56c0.9,0.45,1.68,0.78,1.9,0.9h0.11l0,0l6.38,3.25   l1.57-6.61c0.9,0,3.02-1.46,4.26-5.15c0.22-0.67,0.34-1.34,0.45-2.02c0.11-0.34,0.11-0.67,0.22-1.01l0.45-3.58   c0,0-13.55,5.49-22.18,12.77l-0.11,0.11c0.22,0,0.34,0,0.56-0.11C198.65,66.91,199.33,66.91,199.89,66.91z"/>
	
		<path fill-rule="evenodd" clip-rule="evenodd" fill="#FFFFFF" stroke="#DCDDDD" stroke-width="0.3057" stroke-miterlimit="22.9256" d="   M214.45,65.79c0,0,16.13,6.5,47.83,1.34c0,0-13.44-28.23-16.8-40.1c-3.36-11.87-14-19.49-17.25-23.19l-5.49,25.43   c0,0-1.57,6.61-2.02,12.43c-0.45,5.83-0.9,12.55-0.9,12.55l-0.45,3.58l-0.11,0.9c-0.11,0.78-0.34,1.46-0.56,2.13   C217.47,64.44,215.46,65.79,214.45,65.79z"/>
	
		<path fill-rule="evenodd" clip-rule="evenodd" fill="#FFFFFF" stroke="#DCDDDD" stroke-width="0.3057" stroke-miterlimit="22.9256" d="   M174.91,57.84c-4.26,0.67-5.49,1.23-7.17,1.9l0,0l-0.45,0.11c-0.45,0.22-1.01,0.34-1.79,0.56c-0.11,0-0.34,0.11-0.45,0.11   l-0.45,0.11c9.18,13.44,16.58,28.9,22.29,44.13c0.45-5.6,0.9-10.19,1.46-13.89c-0.45,0.11-1.12,0.22-1.79,0.22   c-2.13,0-3.25-1.12-3.25-3.25c0-2.13,1.12-3.25,3.25-3.25c1.46,0,2.24,0.9,2.46,1.9c0.34-1.57,0.67-2.91,1.01-4.26   c0.34-1.01,0.56-1.9,0.9-2.8L174.91,57.84z"/>
	
		<path fill-rule="evenodd" clip-rule="evenodd" fill="#FFFFFF" stroke="#DCDDDD" stroke-width="0.3057" stroke-miterlimit="22.9256" d="   M188.13,0.26c-21.28,0-42.68,5.71-42.68,5.71l0,0c0.22,3.7,2.13,12.21,4.59,20.72c0.34,1.01,0.56,2.13,0.9,3.14l6.38-1.01   c10.75-1.01,22.29-1.34,32.6-1.23c10.42-0.11,21.84,0.22,32.6,1.23h0.22l5.38-25.09C225.87,3.17,209.41,0.26,188.13,0.26z"/>
	
		<path fill-rule="evenodd" clip-rule="evenodd" fill="none" stroke="#DCDDDD" stroke-width="0.3057" stroke-miterlimit="22.9256" d="   M195.97,85.95c0,0,0.22,1.46-0.22,3.81c0.22,1.46-1.12,3.25-1.12,3.25s-0.22-1.46,0.22-3.81   C194.73,87.63,195.97,85.95,195.97,85.95z"/>
	
		<path fill-rule="evenodd" clip-rule="evenodd" fill="none" stroke="#DCDDDD" stroke-width="0.3057" stroke-miterlimit="22.9256" d="   M199.44,74.41c0.11,1.46-1.34,3.14-1.34,3.14s-0.11-1.46,0.56-3.81c-0.11-1.46,1.34-3.14,1.34-3.14S200.11,72.06,199.44,74.41z"/>
	
		<path fill-rule="evenodd" clip-rule="evenodd" fill="none" stroke="#DCDDDD" stroke-width="0.3057" stroke-miterlimit="22.9256" d="   M177.04,72.51c0.45-1.01,1.46-1.46,2.91-1.46c2.13,0,3.25,1.12,3.25,3.25c0,1.46-0.45,2.46-1.46,2.91   c-0.45,0.22-1.01,0.34-1.79,0.34c-2.13,0-3.25-1.12-3.25-3.25C176.7,73.52,176.81,72.96,177.04,72.51z"/>
	
		<path fill-rule="evenodd" clip-rule="evenodd" fill="#FFFFFF" stroke="#DCDDDD" stroke-width="0.3057" stroke-miterlimit="22.9256" d="   M188.35,90.88c-0.45,0.11-1.12,0.22-1.79,0.22c-2.13,0-3.25-1.12-3.25-3.25c0-2.13,1.12-3.25,3.25-3.25c1.46,0,2.24,0.9,2.46,1.9   C188.8,88.3,188.57,89.76,188.35,90.88z"/>
	
	<polygon fill-rule="evenodd" clip-rule="evenodd" points="31.05,141.68 28.29,141.72 7.51,69.26 10.04,68.39  "/>
	<polygon fill-rule="evenodd" clip-rule="evenodd" points="23.14,141.8 20.38,141.84 0.28,71.73 2.81,70.86  "/>
	<polygon fill-rule="evenodd" clip-rule="evenodd" fill="#C49835" points="2.81,70.86 23.14,141.8 28.29,141.72 7.51,69.26    3.26,70.71  "/>
	<polygon fill-rule="evenodd" clip-rule="evenodd" points="348.95,141.68 351.71,141.72 372.49,69.26 369.96,68.4  "/>
	<polygon fill-rule="evenodd" clip-rule="evenodd" points="356.86,141.8 359.62,141.85 379.72,71.73 377.19,70.86  "/>
	<polygon fill-rule="evenodd" clip-rule="evenodd" fill="#C49835" points="377.19,70.86 356.86,141.8 351.71,141.72 372.49,69.26    376.74,70.71  "/>
</g>
<g id="图层_x0020_1">
	<path fill="#F08300" d="M178.15,47.51c0.416,1.136,1.472,1.984,2.752,2.032c0.144,0,0.304,0,0.448-0.016h0.016   c0.016,0,0.064,0,0.128-0.016c0.032,0,0.048-0.016,0.08-0.016c0.064-0.016,0.144-0.032,0.224-0.048c0.016,0,0.016,0,0.032,0   c0.192-0.048,0.4-0.112,0.576-0.208c0.192-0.096,0.4-0.224,0.608-0.384c0.672-0.56,1.104-1.408,1.104-2.352   c0-0.224-0.032-0.448-0.08-0.672l0,0C183.99,45.63,183.94,45.46,183.86,45.28C183.39,44.19,182.31,43.43,181.04,43.43C179.35,43.43,177.97,44.8,177.97,46.5C177.97,46.85,178.03,47.19,178.15,47.51L178.15,47.51L178.15,47.51z M182.45,46.53L182.45,46.53C182.42,47.31,181.76,47.91,180.98,47.87C180.19,47.84,179.6,47.19,179.63,46.4c0.032-0.784,0.688-1.376,1.472-1.344   C181.87,45.09,182.48,45.76,182.45,46.53L182.45,46.53z"/>
	<polygon fill="#F08300" points="196.48,44.11 ,195.84,45.7 ,194.4,45.7 ,192.98,49.25 ,191.03,49.25 ,192.43,45.7 ,190.85,45.7    ,191.49,44.11"/>
	<path fill="#F08300" d="M198.45,39.38c-1.008-0.096-3.024-0.144-5.056,0.112c-2.416,0.304-5.152,0.912-7.616,1.664   C183.73,41.76,181.86,42.48,180.51,43.25C180.71,43.22,180.9,43.2,181.09,43.2c0.48,0,0.944,0.112,1.36,0.288   C186.55,41.17,193.75,39.12,198.45,39.38L198.45,39.38L198.45,39.38z"/>
	<path fill="#F08300" d="M183.92,44.85c4-2.368,8.88-4.672,13.488-5.248c-4.608,0.288-10.224,2-14.288,4.304   C183.44,44.16,183.71,44.48,183.92,44.85C183.92,44.85,183.92,44.85,183.92,44.85z"/>
	<polygon fill="#F08300" points="201.97,44.11 ,201.35,45.7 ,199.89,45.7 ,198.48,49.25 ,198.02,49.25 ,196.51,49.25 ,194.82,49.25    ,195.41,47.75 ,197.12,47.75 ,197.94,45.7 ,196.35,45.7 ,196.99,44.11"/>
	<polygon fill="#F08300" points="191.06,44.11 ,190.42,45.7 ,188.13,47.81 ,190.39,47.81 ,189.81,49.25 ,184.32,49.25 ,187.99,45.7    ,185.41,45.7 ,186.05,44.11"/>
	<path fill="#F08300" d="M196.34,39.97c-3.376,0.752-6.464,2.192-9.424,3.952h1.888C191.23,42.35,193.57,40.92,196.34,39.97z    M185.54,44.79C184.91,45.17,184.85,45.22,184.24,45.63c0.064,0.256,0.112,0.544,0.112,0.816c0,0.496-0.112,0.976-0.32,1.392   c0.176-0.16,0.32-0.304,0.432-0.4c0.272-0.24,0.768-0.64,1.6-1.296l0.32-0.256H185.06l0,0L185.54,44.79L185.54,44.79L185.54,44.79z"/>
</g>
</svg>