<?xml version="1.0" encoding="utf-8"?>
<!-- Generator: Adobe Illustrator 23.0.0, SVG Export Plug-In . SVG Version: 6.00 Build 0)  -->
<svg xmlns="http://www.w3.org/2000/svg" xmlns:xlink="http://www.w3.org/1999/xlink" version="1.1" id="图层_1" x="0px" y="0px" width="380px" height="342.5px" viewBox="0 0 380 342.5" enable-background="new 0 0 380 342.5" xml:space="preserve">
<g>
	
		<path fill-rule="evenodd" clip-rule="evenodd" fill="#FFFFFE" stroke="#DCDDDD" stroke-width="0.3058" stroke-miterlimit="22.9256" d="   M71.08,141.06L71.08,141.06L71.08,141.06l-50.86,0.78L0.28,71.71l81.78-27.9l0.34-0.11l0.34-0.11L82.4,43.7   C91.69,71.15,79.93,132.54,71.08,141.06L71.08,141.06z"/>
	
		<path fill-rule="evenodd" clip-rule="evenodd" fill="#FFFFFE" stroke="#DCDDDD" stroke-width="0.3058" stroke-miterlimit="22.9256" d="   M308.92,141.06L308.92,141.06L308.92,141.06l50.75,0.78l20.05-70.13l-81.78-27.9l-0.34-0.11l-0.11,0h0.11   C288.87,68.46,298.5,129.74,308.92,141.06L308.92,141.06z"/>
	
		<path fill-rule="evenodd" clip-rule="evenodd" fill="#FFFFFF" stroke="#DCDDDD" stroke-width="0.3058" stroke-miterlimit="22.9256" d="   M142.33,31.94c-7.62,0.11-53.89,10.53-59.94,11.76c9.3,27.45-2.35,88.84-11.32,97.35l1.57,201.21h117.41h117.41l0.11-10.75   l1.46-190.56c-10.42-11.32-20.05-72.6-11.32-97.35c-21.06-4.59-57.14-12.55-59.94-11.76C224.11,30.93,178.85,29.81,142.33,31.94z"/>
	<path fill-rule="evenodd" clip-rule="evenodd" fill="#131D34" d="M133.48,33.14l-1.11,0.2v308.93h1.11V33.14L133.48,33.14z    M123.1,35.09l-1.11,0.22v306.95h1.11V35.09L123.1,35.09z M112.71,37.21l-1.11,0.23v304.82h1.11V37.21L112.71,37.21z M102.33,39.4   l-1.11,0.24v302.62h1.11V39.4L102.33,39.4z M91.94,41.64l-1.11,0.24v300.38h1.11V41.64L91.94,41.64z M81.55,111.3   c-0.36,1.78-0.73,3.52-1.11,5.21v225.75h1.11V111.3L81.55,111.3z M142.76,342.26h1.11V31.85l-1.11,0.06V342.26L142.76,342.26z    M153.14,342.26h1.11V31.37l-1.11,0.04V342.26L153.14,342.26z M163.54,342.26h1.11V31.03l-1.11,0.03V342.26L163.54,342.26z    M173.93,342.26h1.11V30.83l-1.11,0.02V342.26L173.93,342.26z M184.31,342.26h1.11V30.73l-1.11,0.01V342.26L184.31,342.26z    M194.7,342.26h1.11V30.73l-1.11,0V342.26L194.7,342.26z M205.08,342.26h1.11V30.83l-1.11-0.01V342.26L205.08,342.26z    M215.47,342.26h1.11V31.02L215.47,31V342.26L215.47,342.26z M225.86,342.26h1.11V31.32l-1.11-0.04V342.26L225.86,342.26z    M236.24,342.26h1.11V31.8l-1.11-0.07V342.26L236.24,342.26z M246.63,342.26h1.11V33.11l-1.11-0.2V342.26L246.63,342.26z    M257.02,342.26h1.11V35.13l-1.11-0.22V342.26L257.02,342.26z M267.4,342.26h1.11V37.28l-1.11-0.23V342.26L267.4,342.26z    M277.79,342.26h1.11l0-302.76l-1.11-0.24L277.79,342.26L277.79,342.26z M288.17,342.26h1.11l0-300.51l-1.11-0.24L288.17,342.26   L288.17,342.26z M298.56,342.26h1.11V116.81c-0.39-1.68-0.76-3.4-1.11-5.17V342.26z"/>
	<path fill-rule="evenodd" clip-rule="evenodd" fill="#DCDDDD" d="M189.94,27.57c-10.42-0.11-21.85,0.22-32.6,1.23l-6.39,1.01   c2.46,8.4,5.27,16.36,7.39,19.05c5.27,7.06,9.3,10.42,9.63,10.75c1.57-0.56,2.91-1.12,7.17-1.9l15.91,21.96   c2.02-6.05,4.48-8.51,6.61-12.55l0.11,0l0.11-0.11c8.63-7.28,22.18-12.77,22.18-12.77s0.56-6.61,0.9-12.55   c0.34-5.83,2.02-12.44,2.02-12.44l0.11-0.34l-0.22,0C211.79,27.8,200.25,27.46,189.94,27.57z"/>
	
		<path fill-rule="evenodd" clip-rule="evenodd" fill="#131D32" stroke="#DCDDDD" stroke-width="0.3058" stroke-miterlimit="22.9256" d="   M167.87,59.72c-0.34-0.22-4.37-3.7-9.63-10.75c-2.35-3.02-5.6-12.66-8.29-22.18c-2.35-8.51-4.26-17.03-4.59-20.73l0,0   c0,0-2.24,8.63-7.62,14c-5.38,5.38-13.89,9.63-16.13,21.51c-1.12,11.76-4.26,22.52-4.26,22.52s13.11,7.06,47.28-3.25   c0.11,0,0.34-0.11,0.45-0.11c0.11,0,0.34-0.11,0.45-0.11c0.56-0.22,1.23-0.34,1.79-0.56C167.54,59.84,167.76,59.72,167.87,59.72   L167.87,59.72z"/>
	
		<path fill-rule="evenodd" clip-rule="evenodd" fill="#131D32" stroke="#DCDDDD" stroke-width="0.3058" stroke-miterlimit="22.9256" d="   M197.56,67.01c-2.46,4.71-5.15,7.17-7.39,15.35c-0.45,1.46-0.78,3.14-1.12,5.04l0,0.11l0,0c-1.34,7.28-2.35,17.92-2.8,34.51   l13.11-0.22c-0.22-1.57,4.26-52.32,7.17-52.65l0,0l-0.11,0c-0.67-0.22-1.23-0.56-1.9-0.9c-0.45-0.22-0.9-0.45-1.23-0.56   c-1.01-0.45-2.02-0.78-3.25-0.78c-0.56,0-1.12,0-1.79,0C198.01,67.01,197.79,67.01,197.56,67.01   C197.67,67.01,197.56,67.01,197.56,67.01z"/>
	
		<path fill-rule="evenodd" clip-rule="evenodd" fill="#131D32" stroke="#999991" stroke-width="0.3058" stroke-miterlimit="22.9256" d="   M199.91,66.89c1.23,0.11,2.35,0.45,3.25,0.78c0.45,0.22,0.9,0.34,1.23,0.56c0.9,0.45,1.68,0.78,1.9,0.9h0.11l0,0l6.39,3.25   l1.57-6.61c0.9,0,3.02-1.46,4.26-5.15c0.22-0.67,0.34-1.34,0.45-2.02c0.11-0.34,0.11-0.67,0.22-1.01l0.45-3.59   c0,0-13.56,5.49-22.18,12.77l-0.11,0.11c0.22,0,0.34,0,0.56-0.11C198.68,66.89,199.35,66.89,199.91,66.89z"/>
	
		<path fill-rule="evenodd" clip-rule="evenodd" fill="#131D32" stroke="#DCDDDD" stroke-width="0.3058" stroke-miterlimit="22.9256" d="   M214.48,65.77c0,0,16.13,6.5,47.84,1.34c0,0-13.44-28.23-16.8-40.11c-3.36-11.88-14-19.49-17.25-23.19l-5.49,25.43   c0,0-1.57,6.61-2.02,12.44s-0.9,12.55-0.9,12.55l-0.45,3.59l-0.11,0.9c-0.11,0.78-0.34,1.46-0.56,2.13   C217.5,64.43,215.49,65.77,214.48,65.77z"/>
	
		<path fill-rule="evenodd" clip-rule="evenodd" fill="#131D32" stroke="#DCDDDD" stroke-width="0.3058" stroke-miterlimit="22.9256" d="   M174.93,57.82c-4.26,0.67-5.49,1.23-7.17,1.9l0,0l-0.45,0.11c-0.45,0.22-1.01,0.34-1.79,0.56c-0.11,0-0.34,0.11-0.45,0.11   l-0.45,0.11c9.19,13.44,16.58,28.9,22.29,44.14c0.45-5.6,0.9-10.19,1.46-13.89c-0.45,0.11-1.12,0.22-1.79,0.22   c-2.13,0-3.25-1.12-3.25-3.25c0-2.13,1.12-3.25,3.25-3.25c1.46,0,2.24,0.9,2.46,1.9c0.34-1.57,0.67-2.91,1.01-4.26   c0.34-1.01,0.56-1.9,0.9-2.8L174.93,57.82z"/>
	
		<path fill-rule="evenodd" clip-rule="evenodd" fill="#131D32" stroke="#DCDDDD" stroke-width="0.3058" stroke-miterlimit="22.9256" d="   M188.15,0.24c-21.29,0-42.68,5.71-42.68,5.71l0,0c0.22,3.7,2.13,12.21,4.59,20.73c0.34,1.01,0.56,2.13,0.9,3.14l6.39-1.01   c10.75-1.01,22.29-1.34,32.6-1.23c10.42-0.11,21.85,0.22,32.6,1.23h0.22l5.38-25.09C225.91,3.15,209.44,0.24,188.15,0.24z"/>
	
		<path fill-rule="evenodd" clip-rule="evenodd" fill="none" stroke="#DCDDDD" stroke-width="0.3058" stroke-miterlimit="22.9256" d="   M195.99,85.94c0,0,0.22,1.46-0.22,3.81c0.22,1.46-1.12,3.25-1.12,3.25s-0.22-1.46,0.22-3.81   C194.76,87.62,195.99,85.94,195.99,85.94z"/>
	
		<path fill-rule="evenodd" clip-rule="evenodd" fill="none" stroke="#DCDDDD" stroke-width="0.3058" stroke-miterlimit="22.9256" d="   M199.47,74.4c0.11,1.46-1.34,3.14-1.34,3.14s-0.11-1.46,0.56-3.81c-0.11-1.46,1.34-3.14,1.34-3.14S200.14,72.05,199.47,74.4z"/>
	
		<path fill-rule="evenodd" clip-rule="evenodd" fill="none" stroke="#DCDDDD" stroke-width="0.3058" stroke-miterlimit="22.9256" d="   M177.06,72.5c0.45-1.01,1.46-1.46,2.91-1.46c2.13,0,3.25,1.12,3.25,3.25c0,1.46-0.45,2.46-1.46,2.91   c-0.45,0.22-1.01,0.34-1.79,0.34c-2.13,0-3.25-1.12-3.25-3.25C176.72,73.5,176.84,72.94,177.06,72.5z"/>
	
		<path fill-rule="evenodd" clip-rule="evenodd" fill="#131D32" stroke="#DCDDDD" stroke-width="0.3058" stroke-miterlimit="22.9256" d="   M188.38,90.87c-0.45,0.11-1.12,0.22-1.79,0.22c-2.13,0-3.25-1.12-3.25-3.25s1.12-3.25,3.25-3.25c1.46,0,2.24,0.9,2.46,1.9   C188.82,88.29,188.6,89.75,188.38,90.87z"/>
	
	<path fill-rule="evenodd" clip-rule="evenodd" fill="#131D34" d="M333.52,141.49l3.62,0.06l-33.78-11.46   c0.16,0.46,0.31,0.9,0.47,1.33L333.52,141.49L333.52,141.49z M360.42,139.65l-60.18-20.42c-0.1-0.42-0.21-0.85-0.31-1.28   l60.79,20.62L360.42,139.65L360.42,139.65z M363.27,129.63l0.3-1.07l-66.06-22.41c0.07,0.42,0.15,0.84,0.22,1.25L363.27,129.63   L363.27,129.63z M366.11,119.63l0.3-1.07l-70.63-23.97c0.05,0.41,0.1,0.82,0.15,1.23L366.11,119.63L366.11,119.63z M368.96,109.61   l-74.19-25.18c-0.03-0.4-0.06-0.81-0.09-1.21l74.59,25.32L368.96,109.61L368.96,109.61z M371.81,99.6l-77.58-26.33   c-0.01-0.4-0.01-0.79-0.02-1.18l77.9,26.44L371.81,99.6L371.81,99.6z M374.65,89.59l0.3-1.07L294.5,61.21   c-0.03,0.38-0.05,0.76-0.08,1.15L374.65,89.59L374.65,89.59z M377.5,79.58l0.3-1.07l-81.99-27.83c-0.07,0.36-0.14,0.73-0.2,1.1   L377.5,79.58z"/>
	<path fill-rule="evenodd" clip-rule="evenodd" fill="#131D34" d="M46.47,141.44l-3.62,0.06l33.78-11.46   c-0.16,0.46-0.31,0.9-0.47,1.33L46.47,141.44L46.47,141.44z M19.58,139.6l60.18-20.42c0.1-0.42,0.21-0.85,0.31-1.28l-60.79,20.62   L19.58,139.6L19.58,139.6z M16.73,129.58l-0.3-1.07l66.06-22.41c-0.07,0.42-0.15,0.84-0.22,1.25L16.73,129.58L16.73,129.58z    M13.89,119.57l-0.3-1.07l70.63-23.97c-0.05,0.41-0.1,0.82-0.15,1.23L13.89,119.57L13.89,119.57z M11.04,109.56l74.19-25.18   c0.03-0.4,0.06-0.81,0.09-1.21l-74.59,25.31L11.04,109.56L11.04,109.56z M8.19,99.54l77.58-26.33c0.01-0.4,0.01-0.79,0.02-1.18   L7.89,98.47L8.19,99.54L8.19,99.54z M5.35,89.53l-0.3-1.07L85.5,61.15c0.03,0.38,0.05,0.76,0.08,1.15L5.35,89.53L5.35,89.53z    M2.5,79.52l-0.3-1.07l81.99-27.83c0.07,0.36,0.14,0.73,0.2,1.1L2.5,79.52z"/>
	<polygon fill-rule="evenodd" clip-rule="evenodd" fill="#131D31" points="40.85,141.52 20.39,141.84 20.33,141.62 6.76,94.51    0.28,71.71 18.93,65.35  "/>
	<polygon fill-rule="evenodd" clip-rule="evenodd" fill="#5E072A" points="35.05,141.61 32.29,141.66 11.17,68 13.7,67.13  "/>
	<polygon fill-rule="evenodd" clip-rule="evenodd" fill="#5E072A" points="28.95,141.71 26.19,141.75 5.59,69.9 8.12,69.04  "/>
	<polygon fill-rule="evenodd" clip-rule="evenodd" fill="#131D31" points="339.15,141.52 359.61,141.84 359.67,141.62 373.24,94.51    379.72,71.71 361.07,65.35  "/>
	<polygon fill-rule="evenodd" clip-rule="evenodd" fill="#5E072A" points="344.95,141.61 347.71,141.66 368.83,68 366.3,67.13  "/>
	<polygon fill-rule="evenodd" clip-rule="evenodd" fill="#5E072A" points="351.05,141.71 353.81,141.75 374.41,69.9 371.88,69.04     "/>
</g>
<g id="图层_x0020_1">
	<path fill="#F08300" d="M178.19,47.49c0.416,1.136,1.472,1.984,2.752,2.032c0.144,0,0.304,0,0.448-0.016h0.016   c0.016,0,0.064,0,0.128-0.016c0.032,0,0.048-0.016,0.08-0.016c0.064-0.016,0.144-0.032,0.224-0.048c0.016,0,0.016,0,0.032,0   c0.192-0.048,0.4-0.112,0.576-0.208c0.192-0.096,0.4-0.224,0.608-0.384c0.672-0.56,1.104-1.408,1.104-2.352   c0-0.224-0.032-0.448-0.08-0.672l0,0C184.03,45.61,183.98,45.44,183.9,45.26C183.43,44.17,182.35,43.41,181.08,43.41C179.39,43.41,178.01,44.78,178.01,46.48C178.01,46.83,178.07,47.17,178.19,47.49L178.19,47.49L178.19,47.49z M182.49,46.51L182.49,46.51C182.46,47.29,181.8,47.89,181.02,47.85C180.23,47.82,179.64,47.17,179.67,46.38c0.032-0.784,0.688-1.376,1.472-1.344   C181.91,45.07,182.52,45.74,182.49,46.51L182.49,46.51z"/>
	<polygon fill="#F08300" points="196.52,44.09 ,195.88,45.68 ,194.44,45.68 ,193.02,49.23 ,191.07,49.23 ,192.47,45.68 ,190.89,45.68    ,191.53,44.09"/>
	<path fill="#F08300" d="M198.49,39.36c-1.008-0.096-3.024-0.144-5.056,0.112c-2.416,0.304-5.152,0.912-7.616,1.664   C183.77,41.74,181.9,42.46,180.55,43.23C180.75,43.2,180.94,43.18,181.13,43.18c0.48,0,0.944,0.112,1.36,0.288   C186.59,41.15,193.79,39.1,198.49,39.36L198.49,39.36L198.49,39.36z"/>
	<path fill="#F08300" d="M183.96,44.83c4-2.368,8.88-4.672,13.488-5.248c-4.608,0.288-10.224,2-14.288,4.304   C183.48,44.14,183.75,44.46,183.96,44.83C183.96,44.83,183.96,44.83,183.96,44.83z"/>
	<polygon fill="#F08300" points="202.01,44.09 ,201.39,45.68 ,199.93,45.68 ,198.52,49.23 ,198.06,49.23 ,196.55,49.23 ,194.86,49.23    ,195.45,47.73 ,197.16,47.73 ,197.98,45.68 ,196.39,45.68 ,197.03,44.09"/>
	<polygon fill="#F08300" points="191.1,44.09 ,190.46,45.68 ,188.17,47.79 ,190.43,47.79 ,189.85,49.23 ,184.36,49.23 ,188.03,45.68    ,185.45,45.68 ,186.09,44.09"/>
	<path fill="#F08300" d="M196.38,39.95c-3.376,0.752-6.464,2.192-9.424,3.952h1.888C191.27,42.33,193.61,40.9,196.38,39.95z    M185.58,44.77C184.95,45.15,184.89,45.2,184.28,45.61c0.064,0.256,0.112,0.544,0.112,0.816c0,0.496-0.112,0.976-0.32,1.392   c0.176-0.16,0.32-0.304,0.432-0.4c0.272-0.24,0.768-0.64,1.6-1.296l0.32-0.256H185.1l0,0L185.58,44.77L185.58,44.77L185.58,44.77z"/>
</g>
</svg>