<?xml version="1.0" encoding="utf-8"?>
<!-- Generator: Adobe Illustrator 22.0.0, SVG Export Plug-In . SVG Version: 6.00 Build 0)  -->
<svg xmlns="http://www.w3.org/2000/svg" xmlns:xlink="http://www.w3.org/1999/xlink" version="1.1" id="图层_1" x="0px" y="0px" width="375.2px" height="412px" viewBox="0 0 375.2 412" enable-background="new 0 0 375.2 412" xml:space="preserve">
<g>
	
		<path fill-rule="evenodd" clip-rule="evenodd" fill="#666667" stroke="#DCDDDD" stroke-width="0.118" stroke-miterlimit="22.9256" d="   M222.76,39.5c7.1-5.98,12.51-12.6,17.06-19.62c0,0,30.75,11.04,51.98,20.69c21.23,9.65,39.7,20.96,48.81,38   c9.12,17.04,34.25,77.54,34.25,77.54c-11.61,16.54-45.44,29.85-68.2,28.01l-8.95-21.48c0,0-3.82-29.36-5.14-39.97   c-0.85-6.8-2.32-14.11-4.86-19.76c-1.01-2.26-2.16-4.5-3.41-6.73c-3.28-6.54-8.81-13.72-13.75-19.1   C258.62,62.77,239.19,48.28,222.76,39.5z"/>
	<path fill-rule="evenodd" clip-rule="evenodd" fill="#000001" d="M301.22,171.05c22.76,1.85,56.58-11.42,68.18-27.96   c3.29,7.8,5.46,13.01,5.46,13.01c-11.61,16.54-45.44,29.85-68.2,28.01L301.22,171.05z"/>
	
		<path fill-rule="evenodd" clip-rule="evenodd" fill="#666667" stroke="#DCDDDD" stroke-width="0.118" stroke-miterlimit="22.9256" d="   M152.44,39.5c-7.1-5.98-12.51-12.6-17.06-19.62c0,0-30.75,11.04-51.98,20.69c-21.23,9.65-39.7,20.96-48.81,38   c-9.12,17.04-34.25,77.54-34.25,77.54c11.61,16.54,45.44,29.85,68.2,28.01l8.95-21.48c0,0,3.82-29.36,5.14-39.97   c0.85-6.8,2.32-14.11,4.86-19.76c1.01-2.26,2.16-4.5,3.41-6.73c3.28-6.54,8.81-13.72,13.75-19.1   C116.58,62.77,136.01,48.28,152.44,39.5z"/>
	<path fill-rule="evenodd" clip-rule="evenodd" fill="#000001" d="M73.98,171.05C51.22,172.9,17.4,159.64,5.8,143.1   c-3.29,7.8-5.46,13.01-5.46,13.01c11.61,16.54,45.44,29.85,68.2,28.01L73.98,171.05z"/>
	
		<path fill-rule="evenodd" clip-rule="evenodd" fill="none" stroke="#DCDDDD" stroke-width="0.118" stroke-miterlimit="22.9256" stroke-dasharray="1309.5331,654.7087" d="   M3.74,147.98c1.02,1.06,9.02,8.69,10.23,9.69c11,9.08,29.17,15.65,43.73,17.3c4.83,0.54,9.88,0.72,14.51,0.35"/>
	
		<path fill-rule="evenodd" clip-rule="evenodd" fill="#FFFFFF" stroke="#DCDDDD" stroke-width="0.118" stroke-miterlimit="22.9256" d="   M292.76,122.67c1.28,10.22,4.87,37.86,5.13,39.85c-10.9,52.76-6,185.61-3.31,239.33c-36.96,6.55-71.92,9.87-106.89,9.9   c-34.96-0.04-69.93-3.35-106.88-9.9c2.69-53.72,7.59-186.57-3.31-239.33c0.26-1.99,3.85-29.63,5.13-39.85   c0.85-6.81,2.32-14.11,4.86-19.76c1.01-2.26,2.15-4.5,3.41-6.73c3.27-6.54,8.81-13.72,13.75-19.1   c11.93-14.32,31.36-28.81,47.79-37.59c3.96,3.33,8.45,6.45,13.61,9.33l1.87,1.01c6.12,2.84,13.02,4.26,19.79,4.27   c6.76-0.02,13.67-1.44,19.79-4.27l1.87-1.01c5.16-2.88,9.64-6.01,13.6-9.33c16.43,8.78,35.86,23.26,47.79,37.59   c4.94,5.38,10.48,12.56,13.75,19.1c1.25,2.23,2.4,4.47,3.41,6.73C290.44,108.56,291.91,115.87,292.76,122.67z"/>
	
		<path fill-rule="evenodd" clip-rule="evenodd" fill="none" stroke="#DCDDDD" stroke-width="0.118" stroke-miterlimit="22.9256" stroke-dasharray="1309.5331,654.7087" d="   M371.46,147.98c-1.02,1.06-9.02,8.69-10.23,9.69c-11,9.08-29.17,15.65-43.73,17.3c-4.83,0.54-9.88,0.72-14.51,0.35"/>
	<path fill-rule="evenodd" clip-rule="evenodd" fill="#DCDDDD" d="M168.13,42.84c12.06,2.36,26.97,2.36,39.04,0   c0.41-6.85,2.86-11.77,7.01-15.92c1.98-1.98,5.18-4.55,7.35-6.31c0.67-0.53,1.33-1.08,1.98-1.63c-0.29-0.07-2.98-0.9-3.28-0.97   c-1.95-0.46-3.94-0.81-5.93-0.92c-6.35-0.34-12.71-0.6-19.07-0.77c-2.52-0.07-5.07-0.15-7.59-0.15c-2.52,0-5.07,0.08-7.59,0.15   c-6.35,0.17-12.71,0.42-19.06,0.77c-1.82,0.1-3.63,0.4-5.42,0.81c-0.46,0.1-3.23,1.05-3.68,1.17c0.62,0.52,1.24,1.03,1.85,1.53   c2.45,1.94,5.16,4.11,7.38,6.33C165.27,31.07,167.72,36,168.13,42.84z"/>
	
		<path fill-rule="evenodd" clip-rule="evenodd" fill="#000002" stroke="#DCDDDD" stroke-width="0.118" stroke-miterlimit="22.9256" d="   M140.93,5.82c3.26-6.62,44.71-5.49,46.72-5.5c2.01,0,43.46-1.13,46.72,5.5c-3.37,6.86-8.16,11.02-12.81,14.78   c-2.01-0.53-4.73-1.17-7.36-1.31c-15.4-0.82-26.56-0.91-26.56-0.91s-11.15,0.08-26.56,0.91c-2.63,0.14-5.35,0.78-7.35,1.31   C149.09,16.83,144.3,12.68,140.93,5.82z"/>
	
		<path fill-rule="evenodd" clip-rule="evenodd" fill="none" stroke="#DCDDDD" stroke-width="0.118" stroke-miterlimit="22.9256" stroke-dasharray="1309.5331,654.7087" d="   M233.52,7.43c-0.36-0.32-1.95-1.41-2.72-1.71c-1.56-0.65-3.35-1.06-4.99-1.37c-4.78-0.92-9.85-1.3-14.71-1.55   c-5.16-0.27-10.34-0.37-15.51-0.37c-2.65,0-5.3,0.07-7.94,0.07c-2.64,0-5.29-0.07-7.94-0.07c-5.17,0-10.35,0.1-15.51,0.37   c-4.85,0.25-9.92,0.63-14.7,1.55c-1.65,0.31-3.43,0.72-4.99,1.37c-0.21,0.09-2.46,1.23-2.86,1.46"/>
	<path fill-rule="evenodd" clip-rule="evenodd" fill="none" stroke="#DCDDDD" stroke-width="0.118" stroke-miterlimit="22.9256" d="   M151.88,19.07c0.46-0.12,3.22-1.06,3.68-1.16c1.79-0.4,3.61-0.71,5.42-0.8c6.35-0.35,12.71-0.6,19.06-0.77   c2.52-0.07,5.07-0.15,7.59-0.15c2.52,0,5.07,0.08,7.59,0.15c6.36,0.17,12.71,0.42,19.06,0.77c1.99,0.11,3.98,0.46,5.94,0.92   c0.29,0.07,2.98,0.89,3.27,0.97"/>
	
		<path fill-rule="evenodd" clip-rule="evenodd" fill="#000002" stroke="#DCDDDD" stroke-width="0.118" stroke-miterlimit="22.9256" d="   M140.93,5.82l-5.55,14.07c7.38,11.39,17.04,21.76,32.53,29.97c1.17-10.71-1.35-17.49-6.8-22.93c-1.98-1.98-5.18-4.55-7.35-6.31   C149.11,16.85,144.31,12.69,140.93,5.82z"/>
	
		<path fill-rule="evenodd" clip-rule="evenodd" fill="none" stroke="#DCDDDD" stroke-width="0.118" stroke-miterlimit="22.9256" stroke-dasharray="1309.5331,654.7087" d="   M166.04,48.84c0.02-0.51,0.14-3.11,0.15-3.61c0.05-6.43-1.63-11.9-6.43-16.69c-2.2-2.2-4.79-4.22-7.19-6.16   c-4.03-3.26-7.54-6.42-10.43-10.51c-0.54-0.72-1.84-2.95-2.1-3.79"/>
	
		<path fill-rule="evenodd" clip-rule="evenodd" fill="#000002" stroke="#DCDDDD" stroke-width="0.118" stroke-miterlimit="22.9256" d="   M234.37,5.82l5.55,14.07c-7.39,11.39-17.04,21.76-32.53,29.97c-1.17-10.71,1.35-17.49,6.79-22.93c1.98-1.98,5.18-4.55,7.35-6.31   C226.18,16.85,230.99,12.69,234.37,5.82z"/>
	
		<path fill-rule="evenodd" clip-rule="evenodd" fill="none" stroke="#DCDDDD" stroke-width="0.118" stroke-miterlimit="22.9256" stroke-dasharray="1309.5331,654.7087" d="   M209.25,48.84c-0.02-0.51-0.14-3.11-0.15-3.61c-0.05-6.43,1.63-11.9,6.43-16.69c2.2-2.2,4.79-4.22,7.19-6.16   c4.03-3.26,7.54-6.42,10.43-10.51c0.53-0.72,1.84-2.95,2.1-3.79"/>
	
		<path fill-rule="evenodd" clip-rule="evenodd" fill="#000002" stroke="#DCDDDD" stroke-width="0.118" stroke-miterlimit="22.9256" d="   M167.91,49.85c0.28-2.55,0.35-4.87,0.22-7.01c12.06,2.36,26.98,2.36,39.04,0c-0.13,2.14-0.06,4.46,0.22,7.01   C195.08,55.55,180.21,55.55,167.91,49.85z"/>
	
	<g>
		<path fill-rule="evenodd" clip-rule="evenodd" fill="#FFFFFF" d="M83.79,235.72c3.91-8.15,7.76-15.17,8.22-15.72l9.85,0.19    c3.45-0.01,0.21-1.28,3.23,0.57c-2.83-14.64,11.52-26.1,9.76-36.47c-3.22-0.17-3.75-0.06-5.51-2.5l-3.51-6.83    c-7.4,4.06-0.77,5.73-7.55,9.15c-4.72-3.33-0.75-1.3-4.31-5.3l0.18,4.7c-7.88-0.51-8.7-8.22-14.42-7.53    c0.31,2.33,0.6,4.74,0.88,7.24c2.34,2.02,5.37,3.26,5.31,7.35c-1.74,0.28-3.27,0-4.63-0.68C82.55,203.5,83.34,219.13,83.79,235.72    z"/>
		<path fill-rule="evenodd" clip-rule="evenodd" fill="#FFFFFF" d="M292.7,357.29c-2.63,2.11-6.02,3.56-8.8,5.18    c-12.17-9.1,3.87-19.73-4.56-31.32c-4.31-5.93-5.27-4.75-6.93-14.14c-1.27-7.22-2.72-11.42-10.1-11.09    c0.15,9.79,13.98,33.96-2.35,33.8l-17.23-40.54c-2.24-2.52-4.06-1.84-5.36-4.94c-1.34-3.21-0.48-6.47,1.43-9.01l-0.76,6.59    c15.95-0.45,22.85,15.7,31.56-0.85c3.07-5.83,5.13-9.63,11.29-12.99c3.78-2.07,7.6-2.83,10.21-4.82    C291.11,302.31,291.82,331.99,292.7,357.29L292.7,357.29z M291.15,264.66l-2.38-1.89c0.13-6.92,1.05-11.52,2.58-15.54    C291.24,252.98,291.18,258.8,291.15,264.66L291.15,264.66z M292.73,208.45c1.06-18.15,2.71-34.07,5.16-45.93l-0.01-0.11    l-0.02-0.15l-0.02-0.18l-0.03-0.22l-0.03-0.25l-0.93-7.15l-0.09-0.66l-0.09-0.67l-0.04-0.34c-1.05,7.74,1.83,8.08-2.04,13.09    c-8.01-1.91-4.94-23.13-2.61-28.6c0.69-1.63,1.39-3.05,2.08-4.37l-0.02-0.19l-0.02-0.19l-0.02-0.19l-0.02-0.16l0-0.03l-0.02-0.19    l-0.02-0.19l-0.02-0.19l-0.02-0.16l0-0.02l-0.02-0.18l-0.02-0.18l-0.02-0.18l-0.02-0.16l0-0.02l-0.02-0.18l-0.02-0.18l-0.02-0.18    l-0.02-0.16l0-0.02l-0.02-0.18l-0.02-0.18l-0.02-0.18l-0.02-0.16l0-0.02l-0.02-0.17l-0.02-0.17l-0.02-0.17l-0.02-0.15l0-0.02    l-0.02-0.17l-0.02-0.17l-0.02-0.17l-0.02-0.15l0-0.01l-0.02-0.17l-0.02-0.17l-0.02-0.16l-0.02-0.15l0-0.01l-0.02-0.16l-0.02-0.16    l-0.02-0.16l-0.02-0.15l0-0.01l-0.02-0.16l-0.02-0.16l-0.02-0.15l-0.02-0.15l0-0.01l-0.02-0.15l-0.02-0.15l-0.02-0.15l-0.02-0.14    l0-0.01l-0.02-0.15l-0.02-0.15l-0.02-0.15l-0.02-0.14l0-0.01l-0.02-0.14l-0.02-0.14l-0.02-0.14l-0.02-0.13l0,0l-0.02-0.14    l-0.02-0.14l-0.02-0.13l-0.02-0.13v0l-0.02-0.13l-0.02-0.13l-0.02-0.13l-0.02-0.12v0l-0.02-0.12l-0.02-0.12l-0.02-0.12l-0.01-0.12    c-0.85-6.81-2.32-14.11-4.86-19.76c-1.01-2.25-2.16-4.5-3.41-6.73c-3.27-6.54-8.81-13.72-13.75-19.1    c-2.83-3.4-6.08-6.81-9.62-10.15c-1.57-0.05-3.43-0.49-5.65-1.44c-2.23-1.82-3.3-4.36-4.18-7.12c-4.45-3.58-9.1-6.98-13.75-10.09    c-0.33,1.42-0.41,3.27-0.12,5.61l9.55,7.67c2.24,11.17-9.39,17.13-5.93,32.38c2.17,9.56,12.95,10.92,15.07,25.07    c-4.05-2.65-5.8-5.35-8.91-8.62l-2.49-2.37c0.19-0.1-0.46-0.4-0.7-0.58c2.85,10.72,0.56,13.85-0.79,24.99    c-1.04,8.63,2.17,17.41-5.79,20.51c-16.85-4.8,11.24-24.34-2.87-42.41c-0.89,3.73-2.94,4.27-5.76,5.96    c-2.45-1.29-2.41-3.59-3.95-5.19c-1.77,2-1.68,2.31-5.45,2.06c-0.82-6.27,0.51-6.41,3.44-9.19c3.68-3.48,1.92-2.7,4.68-7.94    c-3.23,0-6.46-2.46-8.63-4.89c-3.62-4.03-1.46-6.74-1.48-12.94l-9.5-0.15c-12.32,19.39-3.16,23.38-11.46,31.81    c2.61-1.22,3.72-2.09,7.35,0.56c1.63,1.2,2.65,2.5,2.26,5.23c-0.64,4.45-5.46,6.03-9.58,5.54c2.94,11.01-8.89,16.84-14.79,24.28    c0.27,3.18,8.57,23.38-3.58,26.39c-3.53-6.41,0.29-7.8-3.14-15.05c-5.88-12.41-0.28-7.98-4.51-13.76    c-1.11,6.22-3.39,12.04-4.08,18.49c-1.36,12.72,2.72,8.51,6.62,15.75c0.85,7.77-2.46,7.94-2.75,14.78    c-0.13,3.03,0.03,4.4,1.25,7.07l3.57,4.19c13.68-7.48,13.35-8.51,15.72-27.91c-8.46-0.51-3.03-17.92,6.02-14.38    c5.54,2.16-3.75-2.21,1.45,0.88l1.33,1.18c0.26-4.2-0.48-1.54,0.75-4.48l3.6-1.37l-2.66-4.46c-1.78-5.05-1.43-2.09-0.08-5.71    c6.26-0.65,6.8,5.19,7.31,6.88l0.63,1.94c0.09,0.27,0.01,0.82,0.43,1.03c0.44,0.21,0.27,0.73,0.48,1.05l-0.65-5.56    c1.5,0,4.02-0.24,5.48,0.27c4.56,1.59,0.29-0.52,2.07,2.36c-1.32,2.19-1.86,1.79,0.53,1.79c2.19-2.96-3.57-3.8,2.73-2.24    c3.75,6.35,3.78,6.52,3.72,16.57c5.58-3.43,5.27-7.04,10.77-10.45c5.56-3.44,13.69-0.88,9.22,7.47    c11.55-4.21,14.11,1.3,14.62,19.3c0.32,11.25,2.63,21.54,3.26,32.94c0.83,15.12,0.68,34.93-6.24,47.55    c-3.72,6.79-4.82,8.57-8.7,9.19c0.74,1.96,1.43,3.52,2.45,5.3c5.5,0.43,10.29-0.77,13.62-3.16c1.95-2.97-2.47-39.71,2.36-47.74    c5.7-0.9,8.18,9.72,8.83,15.5c1.23,11.09-9.98,10.33-4.31,18.88c5.64-2.63,1.77-3.87,7.11-8.36c3.75-3.15,5.44-3.91,5.17-10.89    c-0.45-11.41-2.44-18.11,3.9-27.29c-3.69-1.01-1.28,1.64-5.2-6c-3.47-6.77-8.86-9.15-11.76-14.86c-4.11-8.09-1.54-23.8-3.5-34.45    l-6.13,1.17c1.86-7.12,8.52-15.81,16.38-13.48c5.83,1.73,7.99,13.35,8.11,20.34c6.99,11.09,3.71,29.87,3.84,31.34    c0.53,6.05,1.93,3.44,0.82,9.98C290.74,211.25,291.29,209.67,292.73,208.45z"/>
		<path fill-rule="evenodd" clip-rule="evenodd" fill="#666666" d="M286.13,403.3c-1.21-1.9-3.12-3.01-6.34-2.68    c-0.61,1.1-1.09,2.44-1.47,3.93c-19.44,2.99-38.39,5.05-57.17,6.18c-0.73-1.6-2.02-2.87-4.21-3.72c-1.52,1.28-2.24,2.35-2.81,4.1    c-5.81,0.28-11.61,0.47-17.41,0.57c2.95-3.09,7.14-4.25,10.1-7.27c4.68-4.76,8.66-19.32,13.16-27.69l1.03-1.59    c0.82-1.32,0.67-1.14,1.34-2.21c1.1-1.77,0.82-1.39,2.19-3.22c5.5-7.36,5.51-3.64,5.88-3.48c2.19,9.36-4.31,14.52,0.7,18.67    c3.47-0.52,2.27-12.46,3.64-17.97c1.97-7.91,5.52-10.55,2.61-19.43c-0.35-10.9-1.58-19.95-5.93-28.35    c-2.96-5.71-9.76-19.7-9.78-26.21c0.3-5.02-0.74-7.96-0.07-13.56c1.26-10.5,3.88-31.22-4.63-37.87c-8.7,1.61-3.63,8.14-9.71,14.49    c-13.49-0.05-0.59-13.93-10.79-18.6c-15.93,8.53,13.87,56.81-4.9,50.86c-0.95-5.51-9.58-20.91-12.83-27.3    c-3.69-7.28-8.9-23.42-11.71-27.73c-0.83-7.63,5.61-23.47,8.06-29.66c13.68-7.48,13.35-8.51,15.72-27.91l5.71-0.61    c3.37,18.85,6.17,11.35,2.64,24.8c-1.29,4.89-5.7,20.54-5.44,23.9c4.07,0.64,11.78-4.41,15.43-6.78    c2.02-14.63-4.49-32.27-4.85-41.71c-0.28-7.33-0.52-8.97-4.68-11.93c0.26-4.2-0.48-1.54,0.75-4.48l3.6-1.37    c1.46,2.27,1.53,3.37,2.81,5.88c3.72,7.3,7.01,2.08,6.24,24.42c-0.74,21.69,6.98,18.11,9.83,29.34    c2.67,10.54,8.84,21.61,9.17,24.88l0.03,2.4c0.29,11.86-6.52,25.72,4.01,31.59l2.83,9.25c-1.91,2.54-2.78,5.8-1.43,9.01    c1.3,3.11,3.11,2.42,5.36,4.94l17.23,40.54c16.32,0.16,2.5-24.02,2.35-33.8c7.37-0.33,8.82,3.87,10.09,11.09    c1.66,9.39,2.61,8.21,6.93,14.14c8.43,11.59-7.62,22.22,4.56,31.32c2.78-1.62,6.16-3.06,8.8-5.18c0.61,17.5,1.3,32.9,1.88,44.56    C291.75,402.35,288.93,402.83,286.13,403.3z"/>
		<path fill-rule="evenodd" clip-rule="evenodd" fill="#666666" d="M116.2,407.2c-0.43-6.4-1.95-12.19-6.05-15    c-7.42,1.93-5.12,7.89-7.97,13.1c-2.46-0.36-4.93-0.73-7.4-1.12c-1.61-3.24-0.37-9-1.52-14.47l-3.6-1.59    c-3.24,2.55-4.32,7.97-5.69,14.28c-1.05-0.18-2.1-0.36-3.15-0.55c0.85-17.02,1.93-42,2.65-69.85c0.52-2.17,1.15-4.21,2.04-5.86    l4.81,0.69c1.35,15.42,6.22,8.43,1.97,25.15c-1.34,5.28-5.53,18.55-5.2,22.69c3.4,0.62,12.92-5.04,15.61-7.33    c0.39-6.48-1.07-23.14-2.83-29.09c-3.09-10.43-0.32-18.73-6.53-24.41c-0.33-4.09-0.64-0.94,0.23-3.83l4.22-1.86    c6.12,17.08,9.54,4.56,8.52,31.93c-0.37,9.96,1.66,15.59,7.21,22.53c2.24,2.8,1.83,2.42,2.7,6.07c2.51,10.57,6.4,15.78,8.7,21.77    c1.6,4.15-0.15,12.25-1.2,17.62C121.21,407.81,118.71,407.51,116.2,407.2z"/>
		<path fill-rule="evenodd" clip-rule="evenodd" d="M196.47,121.41c-1.27-2.17,2.01-1.34-3.27-1.51c-4.21,5.79,0.54,3.71-5.35,7.62    c-4,2.65-3.48,3.48-6.51,5.49c-3.65-1.83-4.36-2.35-6.53-5.79c-0.42-5.02-0.99-9.49-0.42-14.55c0.51-4.56,1.78-6.73,2.03-11.64    l-6.95-6.67l-1.97,2.96c-0.33,0.56-0.84,1.79-1.27,2.57c-3.76-1.03-7.56-5.11-8.24-8.95c5.25-7.86,0.01-15.87-4.98-20.42    c-0.31-5.51,2.76-16.76,4.38-27.17c2.66,1.91,5.53,3.74,8.64,5.48l1.87,1.01c1.65,0.77,3.36,1.43,5.11,1.99    c0.26,4.54,0.55,8.63,0.61,11.23c-3.1,7.26-1.1,4.2,1.62,9.66c1.41,2.83,2.11,8.13,2.72,10.95c1.54,10.37,6.37,19.41,14.9,21.51    l1.21,4.69l2.36,0.21c2.61-1.22,3.72-2.09,7.35,0.56c1.63,1.2,2.65,2.5,2.26,5.23C205.41,120.33,200.59,121.91,196.47,121.41    L196.47,121.41z M133.89,51.02c-0.37,2.23-0.65,4.98-0.94,8.78c-9.27,0.58-8.83,3.48-14.21,7.05c-1.95-2.03-0.86-0.1-1.39-2.74    C122.52,59.5,128.16,55.06,133.89,51.02z"/>
		<path fill-rule="evenodd" clip-rule="evenodd" fill="#FFFFFF" d="M174.81,127.22c-0.86-1.4-0.34-0.39-1.31-2.9    c-2.15-5.57-1.4-8.64-8.14-9.18c-0.88,5.47,0.12,4.23,1.51,8.76c-0.97-0.62-13.04-12.95-17.61,6.09    c-1.31,5.46,0.43,10.92-2.43,15.18c-4.66-2.14-0.42-4.75-5.39-8.72c-14.13,0.73,2.57,31.66-13.99,28.27    c-1.31-2.94-2.43-4.24-2.62-7.33c-0.14-10.79,0.28-18.58-4.83-26.57c-10.02,0.28-9.16,6.42-10.22,16.42l-3.94-8.04    c-5.54,2.93-3.13,4.9-8.16,4.84c-2.87-10.9,10.36-11.77,2-42.11c-1.43-5.21-1.58-8.57-7.31-8.45l0.05-0.08l0.11-0.19l0.15-0.25    l0.01-0.02l0.1-0.17l0.06-0.1l0.13-0.21L93,92.4l0.15-0.25l0.01-0.02l0.17-0.27l0.02-0.03l0.15-0.25l0.04-0.07l0.13-0.2l0.07-0.11    l0.1-0.16l0.1-0.15l0.07-0.12l0.13-0.2l0.05-0.07l0.16-0.24l0.02-0.03l0.18-0.27l0.01-0.01l0.17-0.26l0.04-0.05l0.14-0.22    l0.07-0.1l0.12-0.17L95.17,89l0.09-0.13l0.12-0.18l0.06-0.09l0.16-0.23l0.03-0.04l0.19-0.27l0,0l0.19-0.27l0.03-0.04l0.16-0.23    l0.06-0.08l0.13-0.19l0.09-0.12l0.1-0.14l0.12-0.17l0.07-0.1l0.15-0.21l0.04-0.06l0.18-0.25l0.01-0.02l0.2-0.27l0.02-0.03    l0.18-0.24l0.05-0.07l0.15-0.2l0.08-0.11l0.12-0.15l0.11-0.15l0.09-0.11l0.15-0.19l0.05-0.07l0.18-0.23l0.02-0.03l0.2-0.26    l0.01-0.01l0.19-0.25l0.04-0.05l0.16-0.2l0.07-0.09l0.13-0.16l0.11-0.13l0.1-0.12l0.14-0.17l0.07-0.08l0.17-0.21l0.03-0.04    l0.2-0.25l0,0l0.2-0.25L100.4,82l0.17-0.21l0.06-0.08l0.14-0.17l0.1-0.12l0.11-0.13l0.13-0.15l0.08-0.09l0.16-0.19l0.04-0.05    l0.19-0.23l0.01-0.01l0.21-0.24l0.02-0.02l0.18-0.22l0.05-0.06l0.15-0.18l0.09-0.1l0.12-0.14l0.12-0.14l0.09-0.1l0.15-0.17    l0.05-0.06l0.18-0.21l0.02-0.02l0.2-0.23l0.01-0.01l0.19-0.22l0.04-0.05l0.16-0.18l0.07-0.08l0.13-0.14l0.11-0.12l0.1-0.11    l0.14-0.15l0.06-0.07l0.17-0.19l0.03-0.03l0.2-0.22c3.64-4.36,7.97-8.74,12.7-12.97c0.53,2.63-0.56,0.7,1.39,2.74    c-3.78,5.52-9.09,10.64-10.76,17.34c-1.88,7.55-1.07,17.32,3.12,21.65c6.96-5.42,0.03-8.95,3.39-18.16    c1.02-2.78,0.62-1.44,1.26-2.44c-0.03,5.01,0.91,9.14,6.75,6.6c3.13-1.36,4.91-6.15,5.35-10.57c2.07,3.27,1.95,5.12,1.1,8.15    c-0.42,1.49-2.22,4.74-2.21,6.5c0.06,9.53,19.73,3.07,6.29-14.09c-5.98-7.64-7.66-6.28-4.54-11.74c5.13,3.11,0.51-0.2,3.15,4.2    c3.69,6.14,7.89,5.12,9.32,7.27c1.55,5.08,0.18,10.86,3.31,14.49c4.29,1.73,11.04-2.56,13.74-5.09c0.68,3.84,4.48,7.91,8.24,8.95    c0.43-0.77,0.94-2.01,1.27-2.57l1.97-2.96l6.95,6.67c-0.25,4.91-1.52,7.08-2.03,11.64C173.82,117.73,174.39,122.2,174.81,127.22    L174.81,127.22z M90,97.82c-3.23,12.39-0.83,36.82-8.41,39.45l-0.31-3.97l0.03-0.2l0.02-0.18l0-0.02l0.03-0.2l0.02-0.2l0.02-0.19    l0.02-0.15l0.01-0.04l0.02-0.19l0.02-0.19l0.02-0.19l0.02-0.13l0.01-0.06l0.02-0.19l0.02-0.19l0.02-0.19l0.01-0.1l0.01-0.08    l0.02-0.19l0.02-0.19l0.02-0.18l0.01-0.08l0.01-0.1l0.02-0.18l0.02-0.18l0.02-0.18l0.01-0.06l0.02-0.12l0.02-0.18l0.02-0.18    l0.02-0.18l0-0.03l0.02-0.14l0.02-0.18l0.02-0.17l0.02-0.17l0-0.01l0.02-0.16l0.02-0.17l0.02-0.17l0.02-0.16l0-0.01l0.02-0.17    l0.02-0.17l0.02-0.16l0.02-0.14l0-0.03l0.02-0.16l0.02-0.16l0.02-0.16l0.01-0.11l0.01-0.04l0.02-0.16l0.02-0.16l0.02-0.15    l0.01-0.09l0.01-0.06l0.02-0.15l0.02-0.15l0.02-0.15l0.01-0.07l0.01-0.08l0.02-0.15l0.02-0.14l0.02-0.14l0.01-0.05l0.01-0.09    l0.02-0.14l0.02-0.14l0.02-0.14l0-0.03l0.01-0.1l0.02-0.13l0.02-0.13l0.02-0.13l0-0.02l0.01-0.11l0.02-0.13l0.02-0.13l0.02-0.12    l0.01-0.12l0.01-0.12l0.01-0.09l0-0.03l0.01-0.12l0.01-0.12l0.01-0.06l0.01-0.06l0.02-0.12l0.02-0.12l0-0.03l0.01-0.08l0.02-0.12    l0.02-0.12l0,0l0.02-0.11l0.02-0.12l0.01-0.09l0-0.02l0.02-0.12l0.02-0.12l0.01-0.06l0.01-0.05l0.02-0.12l0.02-0.12l0.01-0.04    l0.01-0.08l0.02-0.12l0.02-0.12l0-0.01l0.02-0.11l0.02-0.12l0.01-0.1l0-0.02l0.02-0.12l0.02-0.12l0.01-0.07l0.01-0.05l0.02-0.12    l0.02-0.12l0.01-0.04l0.01-0.08l0.02-0.12l0.02-0.12l0-0.01l0.02-0.11l0.02-0.12l0.02-0.1l0-0.02l0.02-0.12l0.02-0.12l0.01-0.07    l0.01-0.04l0.02-0.12l0.02-0.12l0.01-0.04l0.01-0.07l0.02-0.12l0.02-0.12l0-0.02l0.02-0.1l0.02-0.12l0.02-0.11l0-0.01l0.02-0.12    l0.02-0.12l0.01-0.08l0.01-0.04l0.02-0.12l0.02-0.12l0.02-0.12l0.02-0.12l0.02-0.12l0-0.02l0.02-0.1l0.02-0.12l0.02-0.11l0-0.01    l0.02-0.12l0.02-0.12l0.02-0.08l0.01-0.04l0.02-0.12l0.02-0.12l0.01-0.05l0.01-0.06c0.29-0.62,0.44-1.22,0.37-1.8l0.01-0.07    l0.02-0.11l0.04-0.18l0.01-0.04l0.03-0.14l0.04-0.17l0,0l0.04-0.17l0.03-0.15l0.01-0.03l0.04-0.17l0.03-0.11l0.01-0.06l0.04-0.17    l0.02-0.08l0.02-0.09l0.04-0.17l0.01-0.05l0.03-0.12l0.04-0.17l0-0.02l0.04-0.15l0.04-0.16l0-0.01l0.04-0.17l0.03-0.13l0.01-0.04    l0.05-0.17l0.03-0.1l0.02-0.08l0.05-0.17l0.02-0.06l0.03-0.11l0.05-0.17l0.01-0.03l0.04-0.14l0.05-0.17l0,0l0.05-0.17l0.04-0.14    l0.01-0.03l0.05-0.17l0.03-0.11l0.02-0.06l0.05-0.17l0.02-0.08l0.08-0.25l0.01-0.05l0.04-0.12l0.05-0.16l0.01-0.02l0.05-0.15    l0.05-0.15l0-0.01l0.05-0.16l0.04-0.12l0.01-0.04l0.05-0.16l0.03-0.09l0.02-0.07l0.05-0.16l0.02-0.06l0.03-0.1l0.06-0.16    l0.01-0.03l0.04-0.13l0.06-0.16l0,0l0.1-0.29l0.01-0.03l0.06-0.16l0.04-0.1l0.11-0.28l0.03-0.08l0.06-0.15l0.02-0.04l0.04-0.11    l0.06-0.15l0.01-0.01l0.05-0.14l0.06-0.14l0.01-0.01l0.06-0.15l0.05-0.11l0.02-0.04l0.06-0.15l0.03-0.08l0.03-0.07l0.06-0.15    l0.02-0.05l0.04-0.09l0.06-0.15l0.01-0.03l0.05-0.12l0.07-0.15l0.04-0.08l0.01-0.03l0.02-0.05l0.02-0.05l0.01-0.03l0.03-0.08l0,0    l0.04-0.08l0.01-0.02l0.03-0.06l0.02-0.05l0.01-0.03l0.03-0.07l0-0.01l0.04-0.08l0.01-0.02l0.03-0.06l0.02-0.05l0.02-0.03    l0.03-0.07l0-0.01l0.04-0.08l0.01-0.02L88,101.8l0.02-0.04l0.02-0.04l0.03-0.07l0-0.01l0.04-0.08l0.01-0.01l0.03-0.07l0.02-0.04    l0.02-0.04l0.03-0.07l0.01-0.01l0.04-0.08l0.01-0.01l0.03-0.07l0.02-0.04l0.02-0.04l0.03-0.06l0.01-0.02l0.04-0.08l0-0.01    l0.03-0.07l0.02-0.03l0.02-0.04l0.03-0.06l0.01-0.02l0.04-0.08l0-0.01l0.04-0.07l0.02-0.03l0.02-0.05l0.03-0.06l0.01-0.02    l0.04-0.08l0,0l0.04-0.08l0.01-0.03l0.02-0.05l0.03-0.05l0.01-0.02l0.04-0.08v0l0.04-0.08l0.01-0.03l0.03-0.05L89,99.75l0.01-0.03    l0.04-0.08l0,0l0.04-0.08l0.01-0.02l0.03-0.06l0.02-0.05l0.02-0.03l0.04-0.07l0-0.01l0.04-0.08l0.01-0.02l0.03-0.06l0.02-0.05    l0.02-0.03l0.04-0.07l0-0.01l0.04-0.08l0.01-0.02l0.03-0.06l0.02-0.04l0.02-0.04l0.04-0.07l0.01-0.01l0.04-0.08l0.01-0.02    l0.03-0.06l0.02-0.04l0.02-0.04l0.03-0.07l0.01-0.01l0.04-0.08l0.01-0.01l0.04-0.07l0.02-0.04l0.02-0.04l0.03-0.06l0.01-0.02    l0.04-0.08l0-0.01l0.04-0.07l0.02-0.04L90,97.82z"/>
		<path fill-rule="evenodd" clip-rule="evenodd" fill="#FFFFFF" d="M133.5,303.37c-0.21-4.74-2.94-6.12-6.09-7.19    c-0.57,1.85-0.74,1.99-1.58,2.97l2.36,5.52C131.12,304.66,131.77,304.45,133.5,303.37L133.5,303.37z M152.1,410.59    c4.2-11.93,4.32-23.93,2.93-42.14c-0.84-11-2.6-19.93-3.12-31.84c-0.5-11.32-1.43-21.87-13.46-17.35c0.6-5.17,0.04-4.87-2.42-8.82    c-5.47-0.24-8.43,1.55-11.17,4.2l-7.62,8.38c0.53-13.68,0.08-19.46-13.47-18.76l-0.01,4.73c-0.24-0.3-0.12-0.79-0.59-0.99    c-1.65-0.71-0.26-7.23-8.2-10.9c-1.48,2.94-2.48,3.84,0.48,8.12l2.33,2.95l-4.22,1.86c-0.86,2.88-0.55-0.26-0.23,3.83    c-3.96-2.27-5.38-2.01-9.29-0.19l-0.17,0.08c0.23-12.34,0.38-25.01,0.4-37.62c2.48-1.18,4.13-1.84,4.5-6.52    c-1.33-2.81-2.33-4.02-4.53-4.59c-0.01-2.71-0.04-5.4-0.06-8.09c2.92-7.51,6.01-15.57,9.52-21.49l6.49,0.4    c-0.05,4.43-1.78,6.22,0.39,9.77c1.73,2.84,5.02,4.52,8.32,3.76c-1.64,3.23-2.82,6.06-4.74,8.21c-3.23,3.62-4.52,2.72-3.7,9.5    c8.2-2.35,5.53-2.11,6.76-0.38c2.71,3.8-0.32,2.04,3.73,3.58c2.93-3.66,3.21-1.05,4.73-7.06c2.01,3.38,4.1,9.37,3.98,14.33    c-0.17,6.79-4.14,9.24,1.3,12.91c5.66-4.89,6.55-22.22,3.78-29.08c6.18,3.2,6.37,7.23,11.32,10.96c0.07-0.26,0.38-0.69,0.12-0.81    l0.03-2.4c-0.11-0.67-0.67-2.28-1.05-3.06c-3.11-6.41-8.67-8.58-11.8-14.95c-2.73-5.57-4.84-24.12-1.35-29.46    c3.85,4.99,3.4,15.31,10.04,17.1c7.59,2.05,13.64-7.45,13.83-13.41c3.13-1.05,1.19-0.59,4.22-0.82c2.94,2.73,3.54,1.78,4.43,6.43    l-2.33,1.2c-4.88,2.46-6.39,3.54-5.2,13.29c0.64,5.23,2.97,12.84,4.84,16.59c14.5,29.05,4.33,21.14,18.38,23.91l3.14,8.56    c-6.03,10.27-15.5,7.26-20.38,20.56l1.68,0.45c6.42,1.23,3.43-1.22,4.93,1.73c-0.33,8.77,0.17,26.94,3.38,33.13    c3.07,5.92,4.26,5.19,8.3,9.47c5.01,5.29,2.73,8.12,7.95,10.9c-7.05,10.04-3.27,17.44-3.68,28.54c-0.26,7.27-2.68,6.95-6.01,10.16    c-0.74,0.72-1.27,1.36-1.66,1.95c-1.99-0.07-3.99-0.16-5.98-0.25c1.38-3.23,6.34-5.06,5.64-12.68c-0.65-7-2.49-14.78-8.8-16.12    c-1.42,2.88-2.56,19.74-2.6,28.5C154.76,410.75,153.43,410.67,152.1,410.59L152.1,410.59z M83.6,326.28    c-0.05,1.92-0.09,3.83-0.14,5.72c0.52-2.17,1.15-4.21,2.04-5.86C84.75,326.23,84.13,326.27,83.6,326.28z"/>
		<path fill-rule="evenodd" clip-rule="evenodd" d="M221.64,292.92l-2.55-9.37c-2.13,3.75-1.26,11.8-1.33,16.76    c-0.29,21.11-7.44,11.31-17.34,11.33c-1.5,3.5-4.54,9.19-5.79,12.84c-2.01,5.87-0.88,8.69-5.04,12.96    c-3.36,3.44-7.27,4.68-8.39,10.64c-1.36,7.22,2.18,10.2,0.6,16.74l-2.63,5.9c-5.22-2.78-2.94-5.61-7.95-10.9    c-4.05-4.28-5.24-3.55-8.3-9.47c-3.21-6.19-3.71-24.36-3.38-33.13c7.32,3.58,5.8,5.06,9.93,11.19c7.7-4.51,5.73-8.02,7.39-16.89    c1.46-7.77,6.29-15.9-3.55-17.04l-3.14-8.56c-14.05-2.76-3.88,5.14-18.38-23.91c-1.87-3.75-4.2-11.36-4.84-16.59    c-1.19-9.75,0.32-10.83,5.2-13.29l2.33-1.2c-0.89-4.64-1.49-3.7-4.43-6.43c-3.02,0.23-1.08-0.23-4.22,0.82    c2.78-11.61-1.4-24.23-4.56-34.02c-2.21-6.85-3.51-8.87-6.9-13.19c-3.77-4.8-4.57-8.3-6.95-13.4    c16.56,3.39-0.14-27.54,13.99-28.27c4.97,3.98,0.73,6.58,5.39,8.72c2.86-4.27,1.12-9.72,2.43-15.18    c4.58-19.04,16.64-6.71,17.61-6.09c1.12,4.02,3.52,14.62,3.58,19.38c-1.11,6.22-3.39,12.04-4.08,18.49    c-1.36,12.72,2.72,8.51,6.62,15.75c0.85,7.77-2.46,7.94-2.75,14.78c-0.13,3.03,0.03,4.4,1.25,7.07l3.57,4.19    c-2.45,6.19-8.89,22.03-8.06,29.66c-2.16-2.37-1.23,3.17-1.84-2.4c-1.2,11.03-2.7,27.73,2.29,37.45c3.08,6,5.07,7.89,10.83,10.02    c9.4,3.47,4.76,5.74,8.31,14.15c3.72-0.65,3.85,0.05,4.95-4.19c18.77,5.95-11.03-42.33,4.9-50.86c10.19,4.66-2.7,18.55,10.79,18.6    c6.08-6.35,1.01-12.89,9.71-14.49c8.52,6.66,5.89,27.38,4.63,37.87C220.89,284.96,221.94,287.9,221.64,292.92z"/>
		<path fill-rule="evenodd" clip-rule="evenodd" fill="#FFFFFF" d="M219.97,376.71c-4.51,8.38-8.48,22.93-13.16,27.69    c-2.96,3.01-7.15,4.18-10.1,7.27c-3.01,0.05-6.01,0.08-9.01,0.08c-1.8,0-3.6-0.01-5.4-0.03c0.32-0.97,0.61-1.94,0.83-2.9    c0.71-3.09,0.7-6.27,1.64-9.61c3.3-11.7,8.37-21.08,8.76-23.97c2.86-21.07-3.54-20.08-7.95-14.91l-3.78,4.49    c1.58-6.54-1.96-9.52-0.6-16.74c1.12-5.96,5.03-7.2,8.39-10.64c4.16-4.27,3.03-7.08,5.04-12.96c1.25-3.65,4.29-9.34,5.79-12.84    c9.9-0.02,17.05,9.77,17.34-11.33c0.07-4.96-0.8-13.01,1.33-16.76l2.55,9.37c0.01,6.51,6.82,20.5,9.78,26.21    c4.36,8.4,5.58,17.45,5.93,28.35l-0.42,8.68c-4.4-1.23-1.59-5.59-6.78-4.55C224.67,352.72,220.9,371.57,219.97,376.71z"/>
		<path fill-rule="evenodd" clip-rule="evenodd" d="M227.18,41.85c-1.68,0-3.47-0.04-5.35,0.16l-5.19,13.38    c-5.23,0.21-6.94-2.41-9.52-5.37c-2.97,1.34-6.13,2.36-9.35,3.04c0.43,0.39,0.86,0.79,1.31,1.22c6.79,6.67,7.53,5.93,11.05,9.08    c6.17-0.07,8.69,2.67,13.73,5.7c9.56,5.74,5.19,2.97,8.05,12.03c1.26,4.01,1.61,1.75,2.62,7.64c1.28,7.45,1.93,13.09,9.49,18.74    c0.25,0.18,0.89,0.48,0.7,0.58l2.49,2.37c3.1,3.27,4.86,5.97,8.91,8.62c-2.12-14.14-12.9-15.51-15.07-25.07    c-3.46-15.25,8.17-21.22,5.93-32.38l-9.55-7.67c-0.28-2.34-0.21-4.19,0.12-5.61C234.06,45.97,230.57,43.8,227.18,41.85    L227.18,41.85z M251.29,58.39c3.43,2.76,6.74,5.63,9.84,8.55c-1.57-0.05-3.43-0.49-5.65-1.44    C253.24,63.69,252.17,61.15,251.29,58.39z"/>
		<path fill-rule="evenodd" clip-rule="evenodd" fill="#666666" d="M114.86,184.28c-3.22-0.17-3.75-0.06-5.51-2.5l-3.51-6.83    c-7.4,4.06-0.77,5.73-7.55,9.15c-4.72-3.33-0.75-1.3-4.31-5.3l-0.08-1.5l-7.54-7.59c-2.64-1.75-5.76-2.36-8.18-3.69    c-0.09-0.51-0.19-1.01-0.28-1.51l6.71-1.5c3.97-1.46,3.81-2.4,3.4-5.93c-0.29-2.01,0.58-1.02-1.28-2.15    c-1-1.78-4.14-4.46-7.35-6.86l0.01-0.06l0.02-0.17l0.03-0.22l0.03-0.23l0.02-0.16l0.01-0.07l0.03-0.23l0.03-0.23l0.03-0.23l0-0.03    l0.03-0.2l0.03-0.23l0.03-0.23l0.02-0.13l0.01-0.1l0.03-0.23l0.03-0.23l0.03-0.23l0-0.01l0.03-0.23l0.03-0.23l0.03-0.23l0.01-0.11    l0.02-0.12l0.03-0.23l0.03-0.23l0.03-0.21l0-0.02l0.03-0.23l0.03-0.23l0.03-0.23l0.01-0.08l0.02-0.15l0.03-0.23l0.03-0.23    l0.02-0.19l0.01-0.05l0.03-0.23l0.03-0.23l0.03-0.23l0.01-0.06l0.02-0.18l0.03-0.23l0.03-0.24l0.02-0.16l0.01-0.07l0.03-0.23    l0.03-0.23l0.03-0.23l0-0.03l0.03-0.2l0.03-0.23l0.03-0.23l0.02-0.14l0.01-0.1l0.03-0.23l0.03-0.23l0.03-0.23l0-0.01l0.03-0.23    l0.03-0.23l0.03-0.23l0.01-0.11l0.02-0.12l0.03-0.23l0.03-0.23l0.03-0.21l0-0.02l0.03-0.23l0.03-0.23l0.03-0.23l0.01-0.08    l0.02-0.15l0.03-0.23l0.03-0.23l0.02-0.18l0.01-0.04l0.03-0.23l0.03-0.23l0.03-0.22l0.01-0.05l0.02-0.17l0.03-0.22l0.31,3.97    c7.59-2.64,5.18-27.06,8.41-39.45l0.01-0.03l0.01-0.03l0-0.01l0.01-0.02l0.01-0.03l0.05-0.1l0.01-0.03l0.01-0.03l0.01-0.02    l0.01-0.01l0.01-0.03l0.01-0.03l0.01-0.03l0.01-0.02l0-0.01l0.01-0.03l0.01-0.03l0.03-0.05l0.01-0.03l0.01-0.03l0.01-0.03    l0.01-0.02l0,0l0.01-0.03l0.01-0.03l0.01-0.03l0.01-0.03l0,0l0.01-0.02l0.01-0.03l0.01-0.03l0.01-0.03l0,0L90.44,97l0.01-0.03    l0.01-0.03l0.01-0.03l0-0.01l0.01-0.02l0.01-0.03l0.01-0.03l0.01-0.03l0-0.01l0.01-0.02l0.01-0.03l0.01-0.03l0.01-0.03l0.01-0.01    l0.01-0.01l0.01-0.03l0.01-0.03l0.01-0.03l0.01-0.01l0.01-0.01l0.01-0.03l0.01-0.03l0.01-0.03l0.01-0.02l0-0.01l0.01-0.03    l0.01-0.03l0.01-0.03l0.01-0.02l0-0.01l0.01-0.03l0.01-0.03l0.01-0.03l0.01-0.02l0,0l0.01-0.03l0.01-0.03l0.01-0.03l0.01-0.03    l0.02-0.04l0.02-0.04l0.02-0.04l0.02-0.04L91,95.98l0.02-0.04l0.02-0.04l0.01-0.01l0.01-0.03l0.02-0.04l0.02-0.04l0.04-0.08    l0.02-0.04l0.02-0.04l0.01-0.03l0.01-0.01l0.02-0.04l0.02-0.04l0.02-0.04l0.02-0.04l0.02-0.04l0.02-0.04l0.02-0.04l0,0l0.02-0.04    l0.02-0.04l0.02-0.04l0.02-0.04l0.02-0.04l0.02-0.04l0.02-0.04l0.01-0.01l0.02-0.03l0.02-0.04l0.02-0.04l0.02-0.04l0.02-0.04    l0.02-0.04l0.02-0.04l0.01-0.03l0.01-0.02l0.02-0.04l0.02-0.04l0.02-0.04l0.02-0.04l0.02-0.04l0.02-0.04l0.02-0.04l0,0l0.02-0.04    l0.02-0.04l0.02-0.04l0.02-0.04L92,94.12l0.02-0.04l0.05-0.09l0.02-0.04l0.02-0.04l0.02-0.04l0.02-0.04l0.02-0.04l0.02-0.04    l0.01-0.03l0.01-0.02l0.02-0.04l0.02-0.04l0.02-0.04l0.02-0.04l0.02-0.04c5.74-0.11,5.88,3.25,7.31,8.45    c8.36,30.34-4.86,31.21-2,42.11c5.04,0.06,2.62-1.91,8.16-4.84l3.94,8.04l15.05,10.16c0.19,3.08,1.3,4.39,2.62,7.33    c2.38,5.1,3.18,8.6,6.95,13.4c3.39,4.32,4.69,6.34,6.9,13.19c3.16,9.79,7.34,22.41,4.56,34.02c-0.19,5.96-6.24,15.46-13.83,13.41    c-6.63-1.79-6.19-12.11-10.04-17.1c-3.49,5.34-1.38,23.9,1.35,29.46c3.13,6.37,8.68,8.54,11.8,14.95    c0.38,0.78,0.95,2.39,1.05,3.06l-0.03,2.4c0.26,0.12-0.05,0.55-0.12,0.81c-4.95-3.73-5.15-7.76-11.32-10.96    c-8.22-9.06-6.49-7.85-9.53-19.97c-1.85-7.37-3.66-2.39-5.28-10.42c-1.42-7.02-0.37-5.19-4.8-10.22    C102.27,206.12,116.62,194.66,114.86,184.28z"/>
		<path fill-rule="evenodd" clip-rule="evenodd" fill="#FFFFFF" d="M210.12,63.36c-10.7,0.66-7.7,8.64-11.86,15.04    c-1.55,2.39,0.52,0.09-1.82,1.9c-7.46-3-6.55-26.09-22.8-17.23c-0.06-2.6-0.35-6.69-0.61-11.23c4.73,1.51,9.74,2.27,14.67,2.28    c3.36-0.01,6.75-0.36,10.07-1.07c0.43,0.39,0.86,0.79,1.31,1.22C205.86,60.96,206.6,60.21,210.12,63.36L210.12,63.36z     M227.18,41.85c-1.43-0.82-2.84-1.6-4.23-2.35c-3.96,3.33-8.45,6.45-13.6,9.33l-1.87,1.01l-0.37,0.17    c2.58,2.95,4.29,5.58,9.52,5.37l5.19-13.38C223.7,41.81,225.5,41.85,227.18,41.85z"/>
		<path fill-rule="evenodd" clip-rule="evenodd" d="M123.71,408.09c1.05-5.37,2.8-13.47,1.2-17.62c-2.3-6-6.19-11.2-8.7-21.77    c-0.87-3.65-0.46-3.27-2.7-6.07c-5.54-6.94-7.58-12.57-7.21-22.53c1.03-27.36-2.39-14.85-8.52-31.93l-2.33-2.95    c-2.96-4.28-1.96-5.17-0.48-8.12c7.94,3.67,6.55,10.19,8.2,10.9c0.47,0.2,0.35,0.7,0.59,0.99c0.96,4.57,0.04,3.36,3.07,5.61    c-0.33-6.36-1.71-7.12,3.48-8.54c3.54,5.7,0.04,7.84-0.31,13.71c-0.46,7.71,3.56,7.67,7.24,3.24l7.62-8.38    c2.74-2.65,5.69-4.44,11.17-4.2c2.46,3.95,3.02,3.64,2.42,8.82l-1.34,0.36c-3.31,3.03-8.18,5.43-9.17,8.41    c-0.78,2.34-2.13,10.42-0.85,14.31c1.78,11.83-1.91,10.35-3.49,18.66c-1.43,7.54,2.73,12.03,9.3,11.85    c1.94-4.62,1.56-12,8.43-8.91c2.73,6.42-0.28,8.74-0.61,14.55c3.51,2.7,11.57,4.48,8.03,10.01c-3.44,4.51-5.99,0.34-13.21,1.09    c-2.52,6.47,0.39,13.22,1.59,18.67c-0.45,0.39-0.9,0.74-1.33,1.05C131.79,408.95,127.75,408.54,123.71,408.09z"/>
		<path fill-rule="evenodd" clip-rule="evenodd" d="M238.83,285.23l-2.83-9.25c-10.53-5.88-3.71-19.73-4.01-31.59l-0.03-2.4    c-0.33-3.28-6.49-14.34-9.17-24.88c-2.85-11.23-10.57-7.65-9.83-29.34c0.76-22.33-2.52-17.11-6.24-24.42    c-1.28-2.51-1.35-3.61-2.81-5.88l-2.66-4.46c-1.78-5.05-1.43-2.09-0.08-5.71c6.26-0.65,6.8,5.19,7.31,6.88l0.63,1.94    c0.09,0.27,0.01,0.82,0.43,1.03c0.44,0.21,0.27,0.73,0.48,1.05c1.93,4.65-0.13,3.45,3.62,5.52l-0.15-7.63l3.42-0.82    c-1.32,2.19-1.86,1.79,0.53,1.79c2.49,5.84-2.24,9.23-0.08,17.6c5.65,0.18,4.75,1.61,6.53-3.27c5.58-3.43,5.27-7.04,10.77-10.45    c5.56-3.44,13.69-0.88,9.22,7.47c-0.33,1.66-0.05,1.18-1.46,2.29c-9.36,5.67-8.31,5.96-9.74,19.45    c4.09,8.68-0.46,11.71-2.28,18.73c-1.9,7.36,2.22,12.51,8.08,13.24l2.28-3.82c0.51-1.27,0.3-1.77,1.11-3.33    c1.95-3.75,6-4.19,7,1.44c0.95,5.33-3.1,7.53-0.96,11.5c3.8,4.69,8.63,1.22,7.89,9.85c-5.63,3.84-6.84,0.22-14.34,0.84    c-1.22,9.69,1.17,11.64,2.21,19.36c-2.97,1.72-4.67,2.71-7.4,4.82l0.72,4.12c6.54,0.88,10.87,1.6,9.82,10.5    c0.74,1.96,1.43,3.52,2.45,5.3c5.5,0.43,10.29-0.77,13.62-3.16c1.95-2.97-2.47-39.71,2.36-47.74c5.7-0.9,8.18,9.72,8.83,15.5    c1.23,11.09-9.98,10.33-4.31,18.88c5.64-2.63,1.77-3.87,7.11-8.36c3.75-3.15,5.44-3.91,5.17-10.89    c-0.45-11.41-2.44-18.11,3.9-27.29l2.56-5.97c2.23-2.42,2.77-4,4.22-5.22c-0.71,12.11-1.15,25.22-1.39,38.79    c-1.53,4.01-2.45,8.62-2.58,15.54l2.38,1.89c-0.02,2.83-0.02,5.66-0.03,8.5c-2.61,1.98-6.43,2.75-10.21,4.82    c-6.16,3.37-8.22,7.16-11.29,12.99c-8.7,16.55-15.61,0.4-31.56,0.85L238.83,285.23z"/>
		<path fill-rule="evenodd" clip-rule="evenodd" fill="#666666" d="M246.84,277.4c1.04-8.9-3.28-9.63-9.82-10.5l-0.72-4.12    c2.74-2.11,4.44-3.1,7.4-4.82c-1.04-7.72-3.44-9.67-2.21-19.36c7.5-0.62,8.72,3.01,14.34-0.84c0.74-8.63-4.08-5.16-7.89-9.85    c-2.14-3.97,1.91-6.16,0.96-11.5c-1-5.63-5.06-5.18-7-1.44c-0.81,1.56-0.6,2.06-1.11,3.33l-2.28,3.82    c-5.86-0.73-9.98-5.88-8.08-13.24c1.82-7.02,6.36-10.05,2.28-18.73c3.39-1.73,4.4-2.93,6.29-7.66c1.56-3.89,2.43-8.46,3.45-11.79    c1.4-1.12,1.13-0.63,1.46-2.29c11.55-4.21,14.11,1.3,14.62,19.3c0.32,11.25,2.63,21.54,3.26,32.94    c0.83,15.12,0.68,34.93-6.24,47.55C251.82,274.99,250.72,276.77,246.84,277.4z"/>
		<path fill-rule="evenodd" clip-rule="evenodd" fill="#666666" d="M135.81,409.32c0.43-0.31,0.88-0.66,1.33-1.05    c-1.2-5.45-4.11-12.21-1.59-18.67c7.22-0.75,9.77,3.41,13.21-1.09c3.54-5.52-4.52-7.3-8.03-10.01c0.33-5.81,3.34-8.13,0.61-14.55    c-6.86-3.09-6.49,4.29-8.43,8.91c-6.57,0.18-10.73-4.31-9.3-11.85c1.58-8.31,5.27-6.83,3.49-18.66c2.09-3.58,1.48-1.98,3.37-4.85    c1.24-1.89,1.7-2.96,2.48-5.43c1.63-5.21,2.48-7.8,4.17-12.44l1.34-0.36c12.02-4.52,12.96,6.03,13.46,17.35    c0.53,11.91,2.28,20.84,3.12,31.84c1.39,18.21,1.27,30.21-2.93,42.14C146.69,410.24,141.26,409.82,135.81,409.32z"/>
		<path fill-rule="evenodd" clip-rule="evenodd" d="M84.2,113.38c0.07,0.57-0.08,1.18-0.37,1.8l0.01-0.03l0.01-0.03l0.01-0.03    l0.01-0.03l0.01-0.03l0.01-0.03l0.01-0.03l0.01-0.03l0.01-0.03l0,0l0.01-0.02l0.01-0.03l0.01-0.03l0.01-0.03l0.01-0.03l0.01-0.03    l0.01-0.03l0.01-0.03l0.01-0.03l0.01-0.03l0.01-0.03l0-0.02l0-0.01l0.01-0.03l0.01-0.03l0.01-0.03l0.01-0.03l0.01-0.03l0.01-0.03    l0.01-0.03l0.01-0.03l0.01-0.03L84,114.3l0.01-0.03v0l0.01-0.03l0.01-0.03l0.01-0.03l0.01-0.03l0.01-0.03l0.01-0.03l0.01-0.03    l0.01-0.03l0.01-0.03l0.01-0.03l0.01-0.03l0-0.01l0-0.01l0.01-0.03l0.01-0.03l0.01-0.03l0.01-0.03l0.01-0.03l0.01-0.03l0.01-0.03    l0.01-0.03l0.01-0.03l0.01-0.03l0.01-0.03l0,0l0.01-0.03l0.01-0.03l0.01-0.03l0.01-0.03l0.01-0.03l0.01-0.03l0.01-0.03l0.01-0.03    L84.2,113.38L84.2,113.38z M78.27,156.61c2.29-0.94,4.72-1.74,8.45-1.67c1.86,1.13,0.99,0.14,1.28,2.15    c0.41,3.53,0.57,4.46-3.4,5.93l-6.71,1.5c-0.13-0.67-0.26-1.34-0.39-1.99l0.01-0.11l0.02-0.15l0.02-0.18l0.03-0.22l0.03-0.25    l0.04-0.28L77.7,161l0.05-0.35l0.05-0.38l0.05-0.41l0.06-0.43l0.06-0.46l0.06-0.49l0.07-0.51l0.07-0.53l0.07-0.56L78.27,156.61    L78.27,156.61z M78.18,166.03c2.43,1.33,5.54,1.94,8.18,3.69l7.54,7.59l0.08,1.5l0.18,4.7c-7.88-0.51-8.7-8.22-14.42-7.53    C79.26,172.44,78.74,169.12,78.18,166.03L78.18,166.03z M80.61,183.21c0.24,2.17,0.46,4.39,0.67,6.68    c1.36,0.68,2.89,0.96,4.63,0.68C85.98,186.47,82.96,185.23,80.61,183.21z"/>
		<path fill-rule="evenodd" clip-rule="evenodd" fill="#666666" d="M234.55,110.56l-3.6-15.1c-2.83,0.05-1.79-0.77-3.44,0.79    c-3.23,0-6.46-2.46-8.63-4.89c-3.62-4.03-1.46-6.74-1.48-12.94l-9.5-0.15c-12.32,19.39-3.16,23.38-11.46,31.81l-2.36-0.21    l-1.21-4.69c-2.31-4.49-4.21-17.04-5.4-22.8c-5.55-1.31-3.44,1.26-9.5,1.28c-0.61-2.82-1.31-8.12-2.72-10.95    c-2.72-5.46-4.72-2.39-1.62-9.66c16.25-8.86,15.34,14.23,22.8,17.23c2.34-1.81,0.26,0.49,1.82-1.9    c4.16-6.4,1.16-14.38,11.86-15.04c6.17-0.07,8.69,2.67,13.73,5.7c9.56,5.74,5.19,2.97,8.05,12.03c1.26,4.01,1.61,1.75,2.62,7.64    c1.28,7.45,1.93,13.09,9.49,18.74c2.85,10.72,0.56,13.85-0.79,24.99c-1.04,8.63,2.17,17.41-5.79,20.51    C220.57,148.17,248.66,128.63,234.55,110.56z"/>
		<path fill-rule="evenodd" clip-rule="evenodd" d="M83.96,402.4c1.37-6.3,2.45-11.73,5.69-14.28l3.6,1.59    c1.15,5.47-0.09,11.23,1.52,14.47C91.19,403.62,87.59,403.03,83.96,402.4L83.96,402.4z M102.18,405.31    c2.85-5.21,0.55-11.17,7.97-13.1c4.1,2.81,5.62,8.6,6.05,15C111.55,406.63,106.88,405.99,102.18,405.31z"/>
		<path fill-rule="evenodd" clip-rule="evenodd" d="M158,90.95c-2.7,2.52-9.44,6.82-13.74,5.09c-3.13-3.62-1.76-9.41-3.31-14.49    c-1.43-2.15-5.62-1.13-9.32-7.27c-2.65-4.4,1.97-1.09-3.15-4.2c-3.12,5.47-1.44,4.11,4.54,11.74    c13.44,17.17-6.23,23.63-6.29,14.09c-0.01-1.75,1.79-5,2.21-6.5c0.85-3.03,0.97-4.88-1.1-8.15c-7.59-5.43-0.65,7.31-9.56,8.97    l-0.39-8.54l-2.16,3.55c-0.64,1-0.24-0.35-1.26,2.44c-3.36,9.21,3.57,12.75-3.39,18.16c-4.19-4.33-5-14.09-3.12-21.65    c1.67-6.7,6.98-11.82,10.76-17.34c5.38-3.57,4.94-6.48,14.21-7.05c2.98-0.54,2.37-0.7,5.94,0.76c7.42,3.03,9.64,4.58,14.13,9.97    C158.01,75.08,163.25,83.09,158,90.95z"/>
		<path fill-rule="evenodd" clip-rule="evenodd" d="M156.09,410.83c0.04-8.76,1.18-25.62,2.6-28.5c6.31,1.34,8.15,9.11,8.8,16.12    c0.7,7.61-4.26,9.45-5.64,12.68C159.93,411.04,158.01,410.94,156.09,410.83L156.09,410.83z M167.83,411.38    c4.83,0.18,9.65,0.29,14.47,0.34c0.32-0.97,0.61-1.94,0.83-2.9c0.71-3.09,0.7-6.27,1.64-9.61c3.3-11.7,8.37-21.08,8.76-23.97    c2.86-21.07-3.54-20.08-7.95-14.91l-3.78,4.49l-2.63,5.9c-7.05,10.04-3.27,17.44-3.68,28.54c-0.26,7.27-2.68,6.95-6.01,10.16    C168.75,410.14,168.22,410.79,167.83,411.38z"/>
		<path fill-rule="evenodd" clip-rule="evenodd" fill="#666666" d="M296.63,152.78L296.63,152.78c-1.05,7.75,1.83,8.08-2.04,13.09    c-8.01-1.91-4.94-23.13-2.61-28.6c0.69-1.63,1.39-3.05,2.08-4.37l0,0.03l0.03,0.27l0.04,0.31l0.02,0.19l0.02,0.12l0.04,0.31    l0.04,0.31l0,0.03l0.04,0.28l0.04,0.31l0.02,0.19l0.02,0.12l0.04,0.31l0.04,0.32l0.01,0.04l0.04,0.28l0.04,0.32l0.03,0.2    l0.01,0.12l0.04,0.32l0.04,0.32l0.01,0.04l0.04,0.28l0.04,0.32l0.03,0.21l0.01,0.12l0.04,0.32l0.04,0.32l0.01,0.05l0.04,0.27    l0.04,0.32l0.03,0.21l0.01,0.11l0.04,0.32l0.04,0.32l0.01,0.05l0.03,0.27l0.04,0.32l0.03,0.22l0.01,0.11l0.04,0.32l0.04,0.32    l0.01,0.06l0.03,0.27l0.04,0.32l0.03,0.22l0.01,0.1l0.04,0.32l0.04,0.32l0.01,0.06l0.03,0.26l0.04,0.32l0.03,0.22l0.01,0.1    l0.04,0.32l0.04,0.32l0.01,0.06l0.03,0.25l0.04,0.31l0.03,0.22l0.01,0.09l0.04,0.31l0.04,0.31l0.01,0.07l0.03,0.24l0.04,0.31    l0.03,0.22l0.01,0.09l0.04,0.31l0.04,0.3l0.01,0.07l0.03,0.23l0.04,0.3l0.03,0.22l0.01,0.08l0.04,0.3l0.04,0.3l0.01,0.07    l0.03,0.22l0.04,0.29l0.03,0.22l0.01,0.07l0.04,0.29l0.04,0.29l0.01,0.07l0.03,0.21l0.04,0.28l0.03,0.21l0.01,0.07L296.63,152.78z    "/>
		<path fill-rule="evenodd" clip-rule="evenodd" d="M115.66,263.2l-3.28-14.68l-3.49,0.83c-3.29,0.76-6.58-0.91-8.32-3.76    c-2.17-3.56-0.44-5.35-0.39-9.77l-6.49-0.4c-3.51,5.92-6.6,13.98-9.52,21.49c-0.08-7.18-0.2-14.27-0.39-21.19    c3.91-8.15,7.76-15.17,8.22-15.72l9.85,0.19c3.45-0.01,0.21-1.28,3.23,0.57c4.43,5.03,3.38,3.2,4.8,10.22    c1.62,8.02,3.44,3.05,5.28,10.42c3.04,12.12,1.31,10.91,9.53,19.97c2.77,6.85,1.88,24.18-3.78,29.08    c-5.44-3.67-1.47-6.12-1.3-12.91C119.76,272.57,117.67,266.58,115.66,263.2z"/>
		<path fill-rule="evenodd" clip-rule="evenodd" d="M278.31,404.54c0.38-1.49,0.87-2.82,1.47-3.93c3.22-0.33,5.13,0.79,6.34,2.68    C283.51,403.73,280.91,404.15,278.31,404.54z"/>
		<path fill-rule="evenodd" clip-rule="evenodd" fill="#666666" d="M153.02,70.53c-4.49-5.39-6.71-6.93-14.13-9.97    c-3.57-1.46-2.96-1.3-5.94-0.76c0.29-3.8,0.57-6.55,0.94-8.78c6.24-4.4,12.59-8.34,18.55-11.52c1.57,1.32,3.22,2.61,4.96,3.86    C155.79,53.77,152.72,65.02,153.02,70.53z"/>
		<path fill-rule="evenodd" clip-rule="evenodd" d="M85.51,326.14c-0.75,0.09-1.38,0.13-1.9,0.14c0.1-4.13,0.19-8.32,0.27-12.54    l0.17-0.08c3.91-1.82,5.33-2.07,9.29,0.19c6.21,5.68,3.44,13.98,6.53,24.41c1.76,5.95,3.23,22.61,2.83,29.09    c-2.69,2.29-12.21,7.95-15.61,7.33c-0.33-4.14,3.85-17.4,5.2-22.69c4.25-16.72-0.62-9.73-1.97-25.15L85.51,326.14z"/>
		<path fill-rule="evenodd" clip-rule="evenodd" fill="#666666" d="M285.96,219.64c-3.69-1.01-1.28,1.64-5.2-6    c-3.47-6.77-8.86-9.15-11.76-14.86c-4.11-8.09-1.54-23.8-3.5-34.45l6.74,6.08c2.72,2.53,2.57,5.21,4.02,7.11    c0.96-0.48,3.77-1.59,4.53-2.05c2.94-1.77,1.6,0.58,3.07-3.12c6.99,11.09,3.71,29.87,3.84,31.34c0.53,6.05,1.93,3.44,0.82,9.98    L285.96,219.64z"/>
		<path fill-rule="evenodd" clip-rule="evenodd" fill="#666666" d="M170.45,143.28c-0.06-4.76-2.46-15.36-3.58-19.38    c-1.39-4.52-2.39-3.29-1.51-8.76c6.74,0.53,5.98,3.6,8.14,9.18c0.97,2.51,0.46,1.5,1.31,2.9c2.17,3.44,2.87,3.97,6.53,5.79    c3.03-2.01,2.51-2.83,6.51-5.49c5.89-3.91,1.15-1.83,5.35-7.62c5.27,0.16,1.99-0.66,3.27,1.51c2.94,11.01-8.89,16.84-14.79,24.28    c0.27,3.18,8.57,23.38-3.58,26.39c-3.53-6.41,0.29-7.8-3.14-15.05C169.08,144.63,174.67,149.05,170.45,143.28z"/>
		<path fill-rule="evenodd" clip-rule="evenodd" d="M190.78,175.64c-8.46-0.51-3.03-17.92,6.02-14.38c5.54,2.16-3.75-2.21,1.45,0.88    l1.33,1.18c4.16,2.96,4.4,4.6,4.68,11.93c0.36,9.43,6.87,27.07,4.85,41.71c-3.65,2.37-11.35,7.42-15.43,6.78    c-0.26-3.36,4.16-19.01,5.44-23.9c3.53-13.45,0.74-5.95-2.64-24.8L190.78,175.64z"/>
		<path fill-rule="evenodd" clip-rule="evenodd" fill="#666666" d="M84.25,265c2.2,0.57,3.2,1.79,4.53,4.59    c-0.37,4.69-2.02,5.34-4.5,6.52C84.27,272.4,84.27,268.69,84.25,265z"/>
		<path fill-rule="evenodd" clip-rule="evenodd" fill="#FFFFFF" d="M167,233.21c2.81,4.3,8.02,20.45,11.71,27.73    c3.24,6.39,11.88,21.8,12.83,27.3c-1.1,4.23-1.24,3.53-4.95,4.19c-3.55-8.41,1.09-10.68-8.31-14.15    c-5.76-2.12-7.75-4.02-10.83-10.02c-4.98-9.72-3.48-26.43-2.29-37.45C165.77,236.38,164.84,230.84,167,233.21z"/>
		<path fill-rule="evenodd" clip-rule="evenodd" fill="#666666" d="M159.54,317.23c-1.49-2.95,1.5-0.49-4.93-1.73l-1.68-0.45    c4.88-13.31,14.35-10.29,20.38-20.56c9.84,1.13,5.01,9.27,3.55,17.04c-1.66,8.86,0.3,12.38-7.39,16.89    C165.34,322.29,166.86,320.81,159.54,317.23z"/>
		<path fill-rule="evenodd" clip-rule="evenodd" d="M265.49,164.33l-6.13,1.17c1.86-7.12,8.52-15.81,16.38-13.48    c5.83,1.73,7.99,13.35,8.11,20.34c-1.47,3.69-0.13,1.35-3.07,3.12c-0.76,0.46-3.57,1.57-4.53,2.05c-1.44-1.9-1.3-4.58-4.02-7.11    L265.49,164.33z"/>
		<path fill-rule="evenodd" clip-rule="evenodd" d="M109.78,147.24c1.06-9.99,0.2-16.13,10.22-16.42    c5.11,7.99,4.69,15.78,4.83,26.57L109.78,147.24z"/>
		<path fill-rule="evenodd" clip-rule="evenodd" d="M219.97,376.71c0.93-5.14,4.7-23.99,10.18-25.09c5.19-1.04,2.38,3.32,6.78,4.55    l0.42-8.68c2.91,8.87-0.64,11.52-2.61,19.43c-1.37,5.51-0.17,17.45-3.64,17.97c-5-4.16,1.5-9.31-0.7-18.67    c-0.37-0.16-0.38-3.87-5.88,3.48c-1.37,1.83-1.08,1.45-2.19,3.22c-0.67,1.07-0.52,0.88-1.34,2.21L219.97,376.71z"/>
		<path fill-rule="evenodd" clip-rule="evenodd" fill="#666666" d="M108.89,249.35l3.49-0.83l3.28,14.68    c-1.52,6.01-1.8,3.4-4.73,7.06c-4.05-1.54-1.02,0.23-3.73-3.58c-1.23-1.73,1.44-1.97-6.76,0.38c-0.81-6.77,0.47-5.88,3.7-9.5    C106.07,255.41,107.25,252.58,108.89,249.35z"/>
		<path fill-rule="evenodd" clip-rule="evenodd" d="M227.51,96.26c1.65-1.56,0.61-0.74,3.44-0.79l3.6,15.1    c-0.89,3.73-2.94,4.27-5.76,5.96c-2.45-1.29-2.41-3.59-3.95-5.19c-1.77,2-1.68,2.31-5.45,2.06c-0.82-6.27,0.51-6.41,3.44-9.19    C226.52,100.72,224.76,101.5,227.51,96.26z"/>
		<path fill-rule="evenodd" clip-rule="evenodd" fill="#FFFFFF" d="M177.97,83.68c6.06-0.02,3.95-2.59,9.5-1.28    c1.19,5.75,3.09,18.3,5.4,22.8C184.35,103.09,179.51,94.05,177.97,83.68z"/>
		<path fill-rule="evenodd" clip-rule="evenodd" d="M214.12,411.1c0.57-1.75,1.3-2.82,2.81-4.1c2.19,0.85,3.48,2.12,4.21,3.72    C218.8,410.86,216.46,410.99,214.12,411.1z"/>
		<path fill-rule="evenodd" clip-rule="evenodd" fill="#666666" d="M103.77,308.99l0.01-4.73c13.55-0.7,14,5.08,13.47,18.76    c-3.68,4.43-7.7,4.47-7.24-3.24c0.35-5.87,3.85-8.01,0.31-13.71c-5.19,1.42-3.81,2.18-3.48,8.54    C103.81,312.35,104.73,313.56,103.77,308.99z"/>
		<path fill-rule="evenodd" clip-rule="evenodd" fill="#FFFFFF" d="M79.37,148.08c3.21,2.39,6.35,5.07,7.35,6.86    c-3.73-0.07-6.16,0.73-8.45,1.67l0.04-0.29l0.08-0.6l0.08-0.62l0.08-0.64l0.08-0.66l0.09-0.67l0.09-0.69l0.09-0.7l0.09-0.72    l0.09-0.73l0.1-0.74l0.1-0.75L79.37,148.08z"/>
		<path fill-rule="evenodd" clip-rule="evenodd" fill="#666666" d="M217.46,157.06c2.19-2.96-3.57-3.8,2.73-2.24    c3.75,6.35,3.78,6.52,3.72,16.57c-1.78,4.88-0.88,3.45-6.53,3.27C215.22,166.29,219.95,162.89,217.46,157.06z"/>
		<path fill-rule="evenodd" clip-rule="evenodd" fill="#FFFFFF" d="M127.1,342.33c-1.28-3.89,0.07-11.97,0.85-14.31    c0.99-2.98,5.86-5.38,9.17-8.41c-1.7,4.64-2.55,7.23-4.17,12.44c-0.77,2.47-1.24,3.54-2.48,5.43    C128.58,340.36,129.19,338.75,127.1,342.33z"/>
		<path fill-rule="evenodd" clip-rule="evenodd" fill="#FFFFFF" d="M232.7,190.15c1.43-13.49,0.38-13.77,9.74-19.45    c-1.02,3.33-1.89,7.9-3.45,11.79C237.1,187.23,236.09,188.43,232.7,190.15z"/>
		<path fill-rule="evenodd" clip-rule="evenodd" d="M115.74,85.24l2.16-3.55l0.39,8.54c8.91-1.65,1.97-14.4,9.56-8.97    c-0.44,4.42-2.22,9.21-5.35,10.57C116.66,94.38,115.72,90.25,115.74,85.24z"/>
		<path fill-rule="evenodd" clip-rule="evenodd" fill="#666666" d="M210.04,158.19l-0.65-5.56c1.5,0,4.02-0.24,5.48,0.27    c4.56,1.59,0.29-0.52,2.07,2.36l-3.42,0.82l0.15,7.63C209.91,161.64,211.97,162.84,210.04,158.19z"/>
		<path fill-rule="evenodd" clip-rule="evenodd" d="M125.83,299.15c0.84-0.98,1.01-1.12,1.58-2.97c3.15,1.07,5.88,2.45,6.09,7.19    c-1.72,1.09-2.38,1.29-5.31,1.29L125.83,299.15z"/>
	</g>
	
		<path fill-rule="evenodd" clip-rule="evenodd" fill="none" stroke="#DCDDDD" stroke-width="0.118" stroke-miterlimit="22.9256" stroke-dasharray="1309.5331,654.7087" d="   M81.24,393.04c1.31,0.21,11.47,1.81,12.78,2.02c31.02,4.97,62.2,7.8,93.68,7.8c30.97,0,61.65-2.74,92.18-7.56   c1.81-0.29,12.47-1.83,14.28-2.14"/>
</g>
<g id="图层_x0020_1">
	<path fill="#F08300" d="M175.88,34.74c0.416,1.136,1.472,1.984,2.752,2.032c0.144,0,0.304,0,0.448-0.016h0.016   c0.016,0,0.064,0,0.128-0.016c0.032,0,0.048-0.016,0.08-0.016c0.064-0.016,0.144-0.032,0.224-0.048c0.016,0,0.016,0,0.032,0   c0.192-0.048,0.4-0.112,0.576-0.208c0.192-0.096,0.4-0.224,0.608-0.384c0.672-0.56,1.104-1.408,1.104-2.352   c0-0.224-0.032-0.448-0.08-0.672l0,0C181.72,32.86,181.67,32.69,181.59,32.51C181.12,31.42,180.04,30.66,178.77,30.66C177.08,30.66,175.7,32.03,175.7,33.73C175.7,34.08,175.76,34.42,175.88,34.74L175.88,34.74L175.88,34.74z M180.18,33.76L180.18,33.76C180.15,34.54,179.49,35.14,178.71,35.1C177.92,35.07,177.33,34.42,177.36,33.63c0.032-0.784,0.688-1.376,1.472-1.344   C179.6,32.32,180.21,32.99,180.18,33.76L180.18,33.76z"/>
	<polygon fill="#F08300" points="194.21,31.34 ,193.57,32.93 ,192.13,32.93 ,190.71,36.48 ,188.76,36.48 ,190.16,32.93 ,188.58,32.93    ,189.22,31.34"/>
	<path fill="#F08300" d="M196.18,26.61c-1.008-0.096-3.024-0.144-5.056,0.112c-2.416,0.304-5.152,0.912-7.616,1.664   C181.46,28.99,179.59,29.71,178.24,30.48C178.44,30.45,178.63,30.43,178.82,30.43c0.48,0,0.944,0.112,1.36,0.288   C184.28,28.4,191.48,26.35,196.18,26.61L196.18,26.61L196.18,26.61z"/>
	<path fill="#F08300" d="M181.65,32.08c4-2.368,8.88-4.672,13.488-5.248c-4.608,0.288-10.224,2-14.288,4.304   C181.17,31.39,181.44,31.71,181.65,32.08C181.65,32.08,181.65,32.08,181.65,32.08z"/>
	<polygon fill="#F08300" points="199.7,31.34 ,199.08,32.93 ,197.62,32.93 ,196.21,36.48 ,195.75,36.48 ,194.24,36.48 ,192.55,36.48    ,193.14,34.98 ,194.85,34.98 ,195.67,32.93 ,194.08,32.93 ,194.72,31.34"/>
	<polygon fill="#F08300" points="188.79,31.34 ,188.15,32.93 ,185.86,35.04 ,188.12,35.04 ,187.54,36.48 ,182.05,36.48 ,185.72,32.93    ,183.14,32.93 ,183.78,31.34"/>
	<path fill="#F08300" d="M194.07,27.2c-3.376,0.752-6.464,2.192-9.424,3.952h1.888C188.96,29.58,191.3,28.15,194.07,27.2z    M183.27,32.02C182.64,32.4,182.58,32.45,181.97,32.86c0.064,0.256,0.112,0.544,0.112,0.816c0,0.496-0.112,0.976-0.32,1.392   c0.176-0.16,0.32-0.304,0.432-0.4c0.272-0.24,0.768-0.64,1.6-1.296l0.32-0.256H182.79l0,0L183.27,32.02L183.27,32.02L183.27,32.02z"/>
</g>
</svg>