<?xml version="1.0" encoding="utf-8"?>
<!-- Generator: Adobe Illustrator 22.0.0, SVG Export Plug-In . SVG Version: 6.00 Build 0)  -->
<svg xmlns="http://www.w3.org/2000/svg" xmlns:xlink="http://www.w3.org/1999/xlink" version="1.1" id="图层_1" x="0px" y="0px" width="375.2px" height="412px" viewBox="0 0 375.2 412" enable-background="new 0 0 375.2 412" xml:space="preserve">
<g>
	
		<path fill-rule="evenodd" clip-rule="evenodd" fill="#990000" stroke="#DCDDDD" stroke-width="0.118" stroke-miterlimit="22.9256" d="   M222.76,39.5c7.1-5.98,12.51-12.6,17.06-19.62c0,0,30.75,11.04,51.98,20.69c21.23,9.65,39.7,20.96,48.81,38   c9.12,17.04,34.25,77.54,34.25,77.54c-11.61,16.54-45.44,29.85-68.2,28.01l-8.95-21.48c0,0-3.82-29.36-5.14-39.97   c-0.85-6.8-2.32-14.11-4.86-19.76c-1.01-2.26-2.16-4.5-3.41-6.73c-3.28-6.54-8.81-13.72-13.75-19.1   C258.62,62.77,239.19,48.28,222.76,39.5z"/>
	
		<path fill-rule="evenodd" clip-rule="evenodd" fill="#990000" stroke="#DCDDDD" stroke-width="0.118" stroke-miterlimit="22.9256" d="   M152.44,39.5c-7.1-5.98-12.51-12.6-17.06-19.62c0,0-30.75,11.04-51.98,20.69c-21.23,9.65-39.7,20.96-48.81,38   c-9.12,17.04-34.25,77.54-34.25,77.54c11.61,16.54,45.44,29.85,68.2,28.01l8.95-21.48c0,0,3.82-29.36,5.14-39.97   c0.85-6.8,2.32-14.11,4.86-19.76c1.01-2.26,2.16-4.5,3.41-6.73c3.28-6.54,8.81-13.72,13.75-19.1   C116.58,62.77,136.01,48.28,152.44,39.5z"/>
	
		<path fill-rule="evenodd" clip-rule="evenodd" fill="#FFFFFF" stroke="#DCDDDD" stroke-width="0.118" stroke-miterlimit="22.9256" d="   M292.76,122.67c1.28,10.22,4.87,37.86,5.13,39.85c-10.9,52.76-6,185.61-3.31,239.33c-36.96,6.55-71.92,9.87-106.89,9.9   c-34.96-0.04-69.93-3.35-106.88-9.9c2.69-53.72,7.59-186.57-3.31-239.33c0.26-1.99,3.85-29.63,5.13-39.85   c0.85-6.81,2.32-14.11,4.86-19.76c1.01-2.26,2.15-4.5,3.41-6.73c3.27-6.54,8.81-13.72,13.75-19.1   c11.93-14.32,31.36-28.81,47.79-37.59c3.96,3.33,8.45,6.45,13.61,9.33l1.87,1.01c6.12,2.84,13.02,4.26,19.79,4.27   c6.76-0.02,13.67-1.44,19.79-4.27l1.87-1.01c5.16-2.88,9.64-6.01,13.6-9.33c16.43,8.78,35.86,23.26,47.79,37.59   c4.94,5.38,10.48,12.56,13.75,19.1c1.25,2.23,2.4,4.47,3.41,6.73C290.44,108.56,291.91,115.87,292.76,122.67z"/>
	<path fill-rule="evenodd" clip-rule="evenodd" fill="#990002" d="M93.32,91.87c11.35,0.08,21.32,0.2,27.26,0.31   c-4.57-0.42-9.65-0.91-15.46-1.39c-1.17,0.04-2.33,0.08-3.46,0.12c-1.75,0.19-4.5,0.33-8.02,0.44c1.72-2.75,3.71-5.51,5.77-8.11   c3.37-0.4,7.91-0.73,15.68-0.91c0.29-0.16,0.37-0.31,0.21-0.47c-5.13,0.01-10.12,0.08-14.93,0.19c0.26-0.32,0.52-0.64,0.79-0.96   c3.22-0.07,6.3-0.15,9.19-0.24c-1.1-0.11-2.38-0.22-3.86-0.32c-1.58,0.02-3.22,0.04-4.91,0.06c1.03-1.23,2.07-2.4,3.07-3.49   c0.21-0.25,0.42-0.51,0.64-0.76c4.99,0.36,10.02,0.66,15.13,0.77c-4.57-0.3-9.54-0.67-14.94-0.98c0.49-0.58,1-1.16,1.52-1.73   c12.96,0.7,25.89,2.27,39.38,2.2c-5.71,1.36-12.85,1.29-21.65,0.79c-0.73,0.07-2.1,0.13-3.94,0.18c-1.06,0.46-0.5,0.83,1.51,1.13   c6.39-0.19,13.19-0.24,20.43-0.18c7.63-0.11,17.47-0.18,30.9-0.16c7.22,0.34,11.57,0.69,13.81,1.04   c14.42,0.32,30.05,0.59,46.95,0.56c-18.26,1-25.56,2.56-24.28,4.51c13.11,2.22-4.34-0.56-32.7-2.94c-4.58,0.27-9.79,0.47-14.3,0.57   c2.63,0.14,5.24,0.29,7.82,0.44c-12.5,0.91-24.65,1.85-24.02,3.4c-2.89,0.08-5.6,0.14-8.15,0.2c3.63,0.51,6.82,1.1,7.32,1.84   c-6.77,0.16-13.38,0.26-19.79,0.3c3.05,0.21,6.23,0.42,10.04,0.6c16.7-0.4,28.97-1.11,27.58-2.37c33.61,0.51-2.59,1-0.54,2.27   c-1.24,0.26-1.12,0.46,0,0.62c5.36,0,11.5-0.03,18.63-0.11c0.91,0.23,0.46,0.43-1.02,0.6c1.74,0.01,3.53,0.02,5.33,0.03   c-3.18,0.87-12.72,0.85-18.54,0.55c-1.24,0.03-2.54,0.05-3.89,0.07c1.74,0.3,2.28,0.67,1.56,1.09c-5.2,0.01-11.16-0.09-17.51-0.25   c3.19,0.54,3.76,1.12,0.66,1.72c-5.7,0.54-11.25,0.42-17.68-0.03c-4.86,0.22-9.7,0.43-14.08,0.62c10.13,0.33,15.31,0.9,22.64,1.37   c4.86,0,10.23-0.01,16.16-0.01c-1.1-0.34-3.51-0.75-7.51-1.24c14.13,0.38,21.17,0.91,22.93,1.5c7.67,0.19,11.69,0.33,12.91,0.43   c1.68-0.02,3.42-0.04,5.23-0.06c-6.01,0.97-14.92,1.32-25.56,1.33c-2.93,0.27-6.59,0.54-10.82,0.79   c13.48,0.11,29.34,0.05,49.67-0.61c3.46,1.31-5.6,2.02-23.75,2.27c-4.49,0.96,8.8,1.07,22.94,1.13   c-22.1,2.28-36.87-0.59-69.12-1.87c-4.95,0.17-10.19,0.32-15.59,0.44c8.59,0.66,17.25,1.33,26.16,1.28   c-2.15,0.51-4.49,0.82-7.05,0.98c24.92-0.01,48.6,0.05,28.86,2.19c-3.78-0.16-11.98-0.4-22.24-0.66c0.74,0.15-1.4,0.32-4.27,0.52   l2.25,0.03c12.45,0.5,11.29,0.71,1.88,0.79c5.73,0.28,11.49,0.55,17.29,0.83c0.18,0.04,0.33,0.07,0.46,0.11l0.67,0.01   c0.55-0.19,0.73-0.39,0.48-0.61c15.06,0.23,16.1,0.45,12.85,0.75c5.74,0.01,12.42-0.02,20.3-0.11c3.38,0.86-12.03,1.3-29.9,1.35   c-1.29,0.1-2.57,0.19-3.82,0.29c-4.38,0.95,8.87,1.06,22.97,1.13c-0.7,0.19-1.7,0.34-2.91,0.45c3.87,0.32-4.06,0.4-18.45,0.41   c0.86,0.25,1.03,0.53,0.49,0.85c-5.67,0.01-12.25-0.11-19.24-0.3c-0.1,0.11-0.13,0.23-0.08,0.35c-10.21,0.27-18.11,0.43-24.68,0.53   c5.56,0.12,10.82,0.3,15.72,0.55c-4.3,0.22-8.73,0.42-12.99,0.6c9.3,0.6,19.41,1.21,30.44,1.46c23.66-0.26,42.76-0.75,22.98-3.16   c33.5,0.9,27.2,2.65,4.87,3.98c4.11,0.19,1.16,0.27-5.8,0.32c-8.65,0.43-19.02,0.8-30.09,1.05c3.71,0.57,4.54,1.18,1.25,1.81   c-3.16,0.3-6.27,0.39-9.51,0.35c-5.46,0.27-22.86,0.45-37.04,0.43c8.83,0.46,17.73,0.91,26.73,1.36   c26.88,0.23,19.91,0.06,3.59,0.18l7.53,0.37c0.49-0.21,0.13-0.36-1.3-0.4c7.82,0.23,12.9,0.45,15.8,0.66   c3.64-0.46,2.58-1.15-6.27-2.23c26.85,0.72,28.13,1.99,16.09,3.15l6.66,0.32c0.98,0.2,1.16,0.38,0.72,0.54   c9.09-0.07,19.26-0.25,30.89-0.62c3.46,1.31-5.6,2.02-23.75,2.27c-4.48,0.96,8.8,1.07,22.94,1.13   c-19.83,2.05-33.77-0.05-59.73-1.43c-13.15,0.17-23.62,0.05-13.85-0.29c-7,0.22-14.48,0.39-22.12,0.5   c14.37-0.01,24.85,0.68,23.61,1.35c0.98,0.11,1.74,0.22,2.3,0.32c4.99-0.06,6.13,0.02,1.06,0.29c0.07,0.03,0.12,0.07,0.16,0.1   c25.94-0.01,52.35-0.04,31.82,2.19c-5.5-0.24-20.36-0.64-37.31-1.02c-2.29,0.21-5.11,0.41-8.12,0.57l0.66,0.03   c3.58,0.12,6.6,0.27,9.35,0.44c4.2,0.08,8.52,0.16,12.96,0.24c-1.34,0.07-2.61,0.15-3.83,0.23c7.02,0.34,14.08,0.68,21.2,1.02   c0.18,0.04,0.33,0.07,0.46,0.11l0.67,0.01c0.55-0.19,0.73-0.39,0.48-0.62c15.06,0.23,16.1,0.45,12.85,0.75   c5.74,0.01,12.42-0.02,20.3-0.11c3.61,0.92-14.19,1.36-33.53,1.35c-0.25,0.09-0.32,0.18-0.16,0.28c-1.24,0.26-1.12,0.46,0,0.62   c5.36,0,11.5-0.03,18.63-0.11c0.91,0.23,0.46,0.43-1.02,0.6c1.74,0.01,3.53,0.02,5.33,0.03c-0.7,0.19-1.7,0.34-2.91,0.45   c3.87,0.32-4.06,0.4-18.45,0.41c0.86,0.25,1.03,0.53,0.49,0.85c-7.38,0.01-16.29-0.2-25.66-0.48c-10.34,0.15-26.66,0.35-36.98,0.26   c-1.49,0.15-3.06,0.31-4.68,0.46c1.39,0.05,2.81,0.1,4.26,0.17c10.38-0.01,20.1,0.12,28.86,0.46c3.86,0.01,7.89,0.04,12.07,0.07   c1.74,0.55-1.58,0.85-7.67,1.02c4.9,0,9.79,0.03,14.49,0.07c0.52-0.21,0.19-0.37-1.28-0.41c7.03,0.21,11.85,0.41,14.85,0.6   c5.93,0.11,11.04,0.27,14.73,0.47c8.86-0.43,11.09-1.18-0.85-2.63c33.39,0.89,27.24,2.64,5.09,3.97l-0.13,0.02   c3.26,0.15,1.86,0.24-2.55,0.29c-0.57,0.05-1.19,0.11-1.88,0.17l-2.34-0.1c-2.01,0.1-4.12,0.19-6.3,0.29   c-4.92,0.87-18.41,1.75-35.51,2.37c18.98,0.52-10.72,0.98-32.71,0.94c7.93,0.41,15.92,0.82,23.99,1.22   c2.22,0.07,3.55,0.14,4.15,0.21l9.71,0.48c0.49-0.21,0.13-0.36-1.3-0.4c15.34,0.45,20.16,0.86,18.56,1.24   c4.55,0.22,9.12,0.44,13.72,0.65c4.3,0.86-6.57,1.41-18.9,1.7l8.64,0.41c1.59,0.32,1.1,0.59-0.75,0.82   c1.3,0.06,2.34,0.13,3.16,0.19c8.67-0.02,17-0.03,24.26,0.02c-7.85,0.68-16.18,1.13-24.92,1.41c37.92,0.74,13.38,2.56-23.54,2.26   l-0.32,0.02c28.39,1.41,13.68,2.02-9.6,2.62c9.53,0.57,22.31,0.99,50.62,0.67c2.62,0.67-6.02,1.08-18.34,1.25   c0.34,0.16-3,0.28-10.73,0.4c-9.12,0.42-22.46,0.97-33.44,1.54c7.29,0,15.21,0.03,23.83,0.09c1.74,0.55-1.58,0.85-7.67,1.02   c4.9,0,9.79,0.03,14.49,0.07c0.52-0.21,0.18-0.37-1.28-0.41c7.03,0.21,11.85,0.41,14.85,0.6c18.21,0.35,28.61,1.09,14.41,2.27   c-2.41-0.1-4.69-0.19-6.86-0.27c-2.13,1.05-18.23,2.18-39.36,2.9c27.45,0.06,64.56-0.35,45.87,1.94c3.1,1.28-5.96,1.95-23.87,2.22   c-4.49,0.96,8.79,1.07,22.94,1.13c-12.91,1.33-23.33,0.91-36.18,0.07c-0.22,0.02-0.44,0.05-0.68,0.07   c6.58,0.32,13.2,0.64,19.87,0.95c1.58,0.32,1.1,0.59-0.75,0.82c1.3,0.06,2.34,0.13,3.16,0.19c8.67-0.02,17-0.03,24.26,0.02   c-7.85,0.68-16.18,1.13-24.92,1.41c38.22,0.74,12.98,2.59-24.43,2.25c28.93,1.42,14.65,2.03-8.45,2.63l-1.09,0.05   c-8.05,0.74-17.74,1.53-18.79,2.26c3.79,0.25,7.71,0.5,11.78,0.74c12.39-0.04,14.23-0.59,15.48-1.17   c46.05-0.74,17.23,0.24-9.56,1.49c8.95,0.44,18.58,0.74,28.93,0.66c-4.71,1.29-23.44,0.62-23.21,0   c-5.11-0.11-10.69-0.15-16.39-0.14c-17.4,0.9-28.63,1.83-7.08,2.28c8.71-0.48,20.26-0.81,41.88-0.64   c-3.53,0.62-11.16,1.02-19.34,1.41c-5.82,0.71-11.56,0.93-17.26,0.86c-2.13,0.13-4.08,0.27-5.74,0.43c0.5,0.17,0.92,0.32,1.33,0.45   l1.61,0.01c0.27,0.12,0.35,0.23,0.29,0.35l0.04,0c15.09,0.24,30.14-2.07,23.75-2.27c30.25,0.89,19.6,1.62-0.54,2.27   c-8.47,0.27-16.84,0.44-24.62,0.51c-0.53,0.11-1.19,0.22-1.93,0.32c1.34,0.05,2.89,0.1,4.61,0.13c13.05,0.04,26.16,0.09,36.95,0.02   c-0.14,0.04-0.31,0.09-0.52,0.13c21.46,0.01,39.39,0.2,25.22,1.93c3.1,1.28-5.96,1.95-23.87,2.22c-4.49,0.96,8.79,1.07,22.94,1.13   c-13.22,1.36-23.82,0.89-37.1,0.01c-2.73,1.11-0.17,1.87-35.23,3.64c-4.06-0.04-7.48-0.08-10.35-0.12l-0.09-1.13   c15.9-0.58,40.7-1.29,34.46-2.15c-12.82-0.04-24.41,0.07-34.62,0.27l-0.08-0.95l2.9-0.03c-2.35-0.21-0.82-0.69,8.04-1.52l-3.13-0.1   l-0.11,0l-0.11,0l-0.11,0c-1.18-0.04-2.38-0.07-3.6-0.1c-1.36,0.04-2.71,0.08-4.03,0.1c-0.2-2.3-0.42-4.55-0.65-6.74l2.64,0.04   l-2.66-0.2c-0.27-2.51-0.55-4.93-0.85-7.28c7.75,0.03,14.75,0.04,20.03,0.02c1-0.46,1-0.97,1.71-1.44   c-4.17-0.31-12.08-0.45-21.98-0.48c-0.64-4.71-1.36-9.05-2.16-12.94l0.8-6.18c2.81-0.02,5.59-0.04,8.27-0.06   c1.38-0.15,3.41-0.33,6.2-0.53c-0.04-0.01-0.09-0.03-0.15-0.04c-2.88-0.08-5.85-0.17-8.89-0.24c-1.85,0.07-3.64,0.14-5.34,0.21   c0.59-4.52,1.38-10.65,2.15-16.61c0.75,0.01,1.54,0.02,2.39,0.03c-0.66-0.12-0.73-0.23-0.28-0.33l-2.08,0.03   c0.81-6.3,1.59-12.38,2.06-16.12c0.22-1.74,0.47-3.51,0.78-5.27c17.09,0.05,32.17-0.15,38.86-0.84l1.37,0.02   c-3.78-0.32-7.9-0.71-12.53-1.14c-2.34-0.01-4.66-0.02-6.97-0.04c-1.55-0.3-2.3-0.55-2.35-0.77l-1.73-0.14   c-1.48,0.39-5.97,0.63-12.4,0.77c2.34,0.02,5.02,0.03,8.09,0.03c-0.25,0.3-4.97,0.46-12.05,0.54c0.88-4.62,2.1-9.14,3.79-12.91   c0.95-2.11,2-4.2,3.16-6.28c5.24,0.13,9.32,0.26,11.79,0.37c1.76,0.03,3.53,0.07,5.24,0.11l0.91-0.01   c7.01-0.25,16.07-0.41,29.28-0.35c1.05-0.02,2.07-0.04,3.06-0.07c-7.69-0.17-15.75-0.4-23.9-0.6c-11.83,0.08-21.81,0.22-26.35,0.49   l0.22-0.39C91.61,94.77,92.42,93.32,93.32,91.87L93.32,91.87z M132.28,52.17c12.23,0.77,18.26,1.83,50.08,1.65   c1.78,0.2,3.57,0.3,5.34,0.3c2.07-0.01,4.15-0.14,6.22-0.41l1-0.01c-3.34,0.54-7.58,0.89-12.51,1.09c4.03,0.25,6.7,0.5,8.3,0.75   c14.42,0.32,30.05,0.59,46.95,0.56c-18.26,1-25.56,2.56-24.28,4.51c13.11,2.22-4.34-0.56-32.7-2.94   c-5.18,0.31-11.15,0.53-16.02,0.6c-2.73,1.01-2.72,1.91,36.22,2.35c-13.96,1.13-28.15,1.19-40.17,0.66   c4.08,0.24,9.59,0.41,18.16,0.44c1.19,0.67-0.47,0.98-3.95,1.08c14.76,0.35,1.19,0.73-5.32,1.4l3.82,0.22   c-2.3,0.17-4.6,0.34-6.8,0.51c-4.38,0.95,8.87,1.06,22.97,1.13c-4.71,1.29-23.43,0.62-23.21,0c-2.84-0.07-5.65-0.12-8.43-0.15   c8.43,0.38,12.24,0.99,10.77,1.86c-5.67,0.01-12.25-0.11-19.24-0.3c-0.1,0.11-0.13,0.23-0.08,0.35   c-10.21,0.27-18.11,0.43-24.68,0.53c5.56,0.12,10.82,0.3,15.71,0.55l-3.12,0.15c5.19,0.27,10.34,0.54,16.58,0.76   c5.63,0,12.22-0.04,20.03-0.14c-1.21,0.2-2.55,0.37-3.99,0.51c1.55,0.02,3.16,0.04,4.85,0.05c-2.83,0.76-10.67,0.83-16.46,0.63   c-5.68,0.16-12.15,0.16-19.13,0.08c1.15,0.08,2.32,0.16,3.55,0.24c5.98,0,12.75-0.01,20.36-0.02c15.16,0.34,22.41,0.56,24.13,0.7   c1.68-0.02,3.42-0.04,5.23-0.06c-13.65,2.21-42.29,1.17-72.16,0.44c-3.65,0.02-7.12,0.05-10.31,0.09l-1.13,0.03   c1.44-1.53,2.96-3.06,4.54-4.58c4.12,0.13,8.74,0.16,12.79-0.03c4.11-0.2-1.32-0.83-8.94-1.12l-2.73,0.1   c3.03-2.85,6.27-5.65,9.62-8.35c2.74-0.03,5.8-0.04,9.22-0.04c-2.83-0.68-4.29-1.4-3.99-2.07l-2.65,0.07   c0.56-0.44,1.13-0.87,1.7-1.3l0.91-0.03L128.45,55l0.33-0.25c4.33-0.1,8.84-0.13,13.54-0.12c-4.24-0.1-8.57-0.22-12.95-0.33   C130.33,53.59,131.3,52.87,132.28,52.17L132.28,52.17z M82,198.44l0.13,1.73c5.36-0.02,10.7-0.07,15.98-0.15   c-0.44,0.41-0.57,0.83-1.42,1.21c-4.67,0.01-9.54,0.04-14.48,0.07c0.14,2.05,0.28,4.13,0.4,6.24c3.73-0.12,7.57-0.25,11.54-0.4   c2.89,0.52,2.46,1.19,6.01,1.67c-6.17-0.09-11.91-0.19-17.49-0.24l0.06,0.98c21.22,0.53,35.5,1.84,47.93,2.56   c-14.61,0.04-32.1-0.07-47.8-0.09l0.06,1.14l3.37-0.01c-0.91,0.15-2.03,0.28-3.35,0.41l0.12,2.44c6.31,0.13,12.23,0.08,17.18-0.08   c4.75,0.2,9.13,0.42,13.05,0.65l-0.02,0c-1.57-0.04-3.24-0.08-5-0.12c-1.42,0.1-3,0.2-4.72,0.29c-7.85,0.12-14.58,0.21-20.45,0.27   l0.09,1.93c5.59,0.09,11.08,0.15,16.47,0.17c-5.17,0.22-11.06,0.42-16.44,0.61l0.08,1.94c0.22,0.05,0.38,0.11,0.48,0.16l-0.47-0.03   c0.03,0.82,0.07,1.65,0.1,2.48c11.33-0.22,23.72-0.29,34.12-0.06c-0.1,0.27,3.44,0.55,7.85,0.68c-13.9,0.56-27.54,1.04-32.4,1.53   c-1.35,0.08-2.64,0.16-3.89,0.24l-1.64-0.01c-1.18-0.07-2.5-0.13-3.96-0.18c0.06,1.59,0.11,3.2,0.16,4.82   c2.98,0.11,5.96,0.17,8.96,0.14c1.21,0.42,1.67,0.88,4.28,1.23c-3.64-0.05-7.12-0.11-10.51-0.16c-0.04-0.06-0.13-0.12-0.28-0.19   l-2.42-0.01l0.04,1.22c36.51,1.13,51.7,4.5,75.13,2.08c-14.14-0.07-27.43-0.18-22.94-1.13c17.92-0.26,26.97-0.94,23.87-2.22   c15.69-1.92-8-1.94-32.26-1.93c-0.79-0.19-4.46-0.35-13.16-0.47c-0.99,0.19-2.02,0.34-3.1,0.46l-3.09-0.01   c0.56-0.08,1.12-0.16,1.68-0.25c-7.61-0.02-13.89-0.07-19-0.13c-2.51-0.18-3.45-0.43-2.13-0.8c0.42-0.12,0.99-0.23,1.67-0.33   c15.43-0.04,27.51-0.25,24.51-1.2l-0.93-0.01c22.7-2.14,68.05-3.16,67.86-6.44c-12-0.6-23.65-0.82-35.14-0.79   c7.58-0.52,5.06-1.22-15.1-1.61c8.75-0.28,17.09-0.74,24.95-1.41c-7.26-0.05-15.59-0.04-24.26-0.02c-1.41-0.1-3.49-0.21-6.34-0.33   c1.76-0.42,4.83-0.89,10.81-1.49c-8.23-0.17-16.26-0.34-23.91-0.54c3.32-0.63,1.12-1.38-10.12-1.83   c15.03-0.05,28.18-0.2,33.11-0.74c8.71,0.38,16.82,0.35,26.27-0.63c-14.15-0.07-27.43-0.18-22.94-1.13   c17.92-0.26,26.97-0.94,23.87-2.22c13.45-1.64-2.04-1.89-22.02-1.93c0.89-0.1,1.64-0.23,2.19-0.38   c-14.41,0.12-27.41-0.51-39.16-1.23c9.96-0.12,16.37-0.41,14.09-1.13l-0.93-0.01c22.7-2.14,68.05-3.16,67.86-6.44   C149.29,195.51,116.55,197.12,82,198.44L82,198.44z M83.79,235.7l1.51,0.02c-0.5,0.06-1,0.11-1.51,0.17L83.79,235.7L83.79,235.7z    M103.34,162.87c3.39-0.03,6.81-0.06,10.16-0.1c-0.51-0.19-0.91-0.39-1.46-0.59c-1.24,0.01-2.48,0.01-3.72,0   c-2.13,0.13-4.08,0.27-5.74,0.43C102.86,162.7,103.11,162.79,103.34,162.87L103.34,162.87z M83.45,150.28   c2.82,0.01,5.76,0.03,8.83,0.08c0.62-0.08,1.34-0.17,2.16-0.26c-4.4,0.08-8.16,0.11-10.81,0.1   C83.56,150.23,83.5,150.25,83.45,150.28L83.45,150.28z M85.29,149.7l0.74-0.03l-0.65,0L85.29,149.7L85.29,149.7z M84.57,147.28   c16.43-0.55,31.45-0.12,36.66,0.51c3.25-0.12,6.19-0.26,8.75-0.41c-1.17-0.2-3.13-0.35-5.66-0.48c-2.85,0-4.98-0.03-5.97-0.07   c-7.25,0.09-15.74-0.07-24.25-0.6l-0.45-0.01l-7.64-0.01c-1.78,0.33-2.42,0.61-2.12,0.84l0.59,0.01l-0.54,0.03   C84.06,147.16,84.27,147.22,84.57,147.28L84.57,147.28z M124.4,149.88c-2.6,0.39-7.16,0.73-12.15,0.99   c2.06,0.07,4.16,0.15,6.3,0.23l-0.03,0.12l7.07,0.13c15.37-0.13,27.06-0.65,29.51-1.82C145.33,149.83,135.07,149.93,124.4,149.88   L124.4,149.88z M127.53,156.98c-7.52,0.1-17.12,0.21-25.37,0.23c1.76,0.05,3.34,0.11,4.72,0.19   C119.28,157.53,124.79,157.32,127.53,156.98L127.53,156.98z M103.19,165.15c-3.81,0.1-7.85,0.19-11.98,0.25   c-1.09,0.11-1.96,0.21-2.45,0.31c5.59-0.04,12.09-0.06,19.76-0.05c9.56,0.45,14.09,0.93,15.32,1.38   c11.06,0.05,23.74-0.04,39.05-0.47C151.6,166.2,126.04,165.59,103.19,165.15L103.19,165.15z M85.73,167.69l7.52,0.38   c0.77-0.08,1.61-0.16,2.54-0.25c-2.27-0.08-4.62-0.15-7.06-0.21C87.72,167.64,86.72,167.67,85.73,167.69L85.73,167.69z    M123.36,167.72c6.98,0.27,10.57,0.65,11.58,1.06c3.33,0.06,6.83,0.05,9.97-0.1c6.13-0.29-8.91-1.56-20.83-1.21   C123.95,167.55,123.7,167.64,123.36,167.72L123.36,167.72z M92.42,139.19c2.47-0.04,5.05-0.07,7.69-0.1   c-1.16-0.26-1.65-0.48-1.57-0.68c-5.04,0.14-9.9,0.26-14.65,0.34c0.32,0.12,0.44,0.24,0.31,0.36c2.39,0.02,5.14,0.03,8.29,0.03   C92.47,139.15,92.45,139.17,92.42,139.19L92.42,139.19z M138.43,145.07c0.16,0.16-0.07,0.33-0.66,0.49   c1.5,0.07,2.71,0.13,3.66,0.18c0.06-0.27-0.99-0.49-2.86-0.67L138.43,145.07L138.43,145.07z M165.05,122.11   c-2.9,0.24-7.34,0.44-12.29,0.58c3.99,0.47,14.53,0.98,22.73,0.59C179.86,123.07,173.42,122.37,165.05,122.11L165.05,122.11z    M127.52,122.6l1.94-0.05l-0.17-0.01L127.52,122.6L127.52,122.6z M127.14,120.59c-3.68-0.08-7.71-0.15-11.84-0.21   c0.37,0.1,0.89,0.2,1.53,0.29C119.92,120.63,123.33,120.6,127.14,120.59L127.14,120.59z M141.66,113.02l0.61-0.01   c-0.83-0.02-1.68-0.03-2.54-0.05L141.66,113.02L141.66,113.02z M115.88,108.8c-3.42,0-6.88,0-10.38,0   c-2.82,0.1-5.54,0.19-8.15,0.27c3.67,0.48,14.63,1.04,23.09,0.64C123.71,109.55,120.96,109.12,115.88,108.8L115.88,108.8z    M98.54,99.76c-0.25,0.03-0.5,0.07-0.72,0.1c2.16,0.17,4.33,0.33,6.5,0.47c2.78,0.09,4.73,0.2,5.47,0.33   c0.79,0.04,1.57,0.08,2.36,0.11c0.39-0.03,0.77-0.06,1.14-0.1C108.76,100.37,103.85,100.03,98.54,99.76L98.54,99.76z    M124.95,101.39l-0.53,0.01l0.88,0L124.95,101.39L124.95,101.39z M128.56,102.59c-3.4-0.08-6.9-0.16-10.42-0.23   c1.6,0.35,4.88,0.62,9.66,0.81C128.39,102.99,128.67,102.8,128.56,102.59L128.56,102.59z M103.99,104.43   c-4.74,0.16-8.46,0.37-11.62,0.61c5.23-0.09,10.22-0.2,14.73-0.34C106.18,104.6,105.15,104.51,103.99,104.43L103.99,104.43z    M103.08,105.78l8.98-0.05l-0.02-0.03C109,105.71,106.02,105.73,103.08,105.78L103.08,105.78z M123.47,78.83   c0.24,0.03,0.5,0.05,0.77,0.08l1.81-0.05C125.19,78.85,124.33,78.84,123.47,78.83L123.47,78.83z M144.67,79.67   c16.1,0.66,7.48,0.8-12.62,0.8c-0.39,0.07-0.67,0.14-0.82,0.22c7.15,0.25,14.22,0.54,21.16,0.86c1.15-0.28,4.21-0.67,9.89-1.18   c-4.31-0.29-8.75-0.55-13.29-0.78C147.51,79.62,146.07,79.65,144.67,79.67L144.67,79.67z M165.41,56.54l0.13-0.01l-0.35-0.02   L165.41,56.54L165.41,56.54z M125.96,56.92c-0.38,0.3-0.76,0.6-1.14,0.9C127.79,57.49,130.76,57.15,125.96,56.92L125.96,56.92z    M156.26,42.52c-1.21,0.21-2.16,0.43-2.79,0.67c1.31,0.07,2.63,0.13,3.97,0.2c0.5,0.36,1.02,0.72,1.54,1.08   c-5.82,0.27-10.24,0.6-14.92,0.92c4.05,0.21,8.23,0.41,13.07,0.58c1.32,0,2.69,0,4.11-0.01c0.58,0.37,1.17,0.74,1.77,1.1   c-0.49-0.01-0.98-0.03-1.45-0.04c-6.25,0.18-13.43,0.16-21.22,0.05l-0.71,0.05c4.35-2.84,8.67-5.41,12.8-7.62   c0.41,0.34,0.82,0.68,1.23,1.02l-0.23-0.01c-0.35-0.02-0.77-0.03-1.24-0.04c-0.27,0.3-1.31,0.64-3.09,0.92   c2.14-0.09,4-0.18,5.29-0.29C155.01,41.58,155.63,42.05,156.26,42.52L156.26,42.52z M137.92,59.22l-0.29,0.02   c-0.33,0.09-0.74,0.18-1.23,0.26c1.7,0.04,3.21,0.1,4.58,0.16C139.9,59.53,138.87,59.38,137.92,59.22L137.92,59.22z M138.14,61.78   c3.03,0.38,6.29,0.8,8.52,1.3c5.65,0.24,11.22,0.5,16.7,0.79c2.66-0.31,4.09-0.67,3.89-1.09C159.25,62.6,148.36,62.1,138.14,61.78   L138.14,61.78z M147.97,64.78c1.72-0.06,3.36-0.12,4.9-0.19c-0.31-0.08-1.16-0.16-2.68-0.23c-0.35-0.02-0.77-0.03-1.24-0.04   C148.81,64.46,148.48,64.62,147.97,64.78L147.97,64.78z M149.71,82.59c-2.91,0.18-6.56,0.2-9.87,0.13   c-5.74,0.34-9.22,0.64-11.07,0.93C137.93,83.64,154.4,83.06,149.71,82.59L149.71,82.59z M155.8,98.3   c-6.5,0.31,10.8,1.71,22.94,1.13C185.23,99.13,167.93,97.72,155.8,98.3L155.8,98.3z M80.29,174.08l1.48,0.02   c-0.6,0.04-1.19,0.08-1.78,0.11c-0.45,0.24-0.32,0.46,1.14,0.63c31.85,0.66,66.3,0.64,70.71-1.47   c-16.41,0.51-34.23,0.43-53.01,0.09c-5.52,0.03-11.14,0.05-16.71,0.06C81.47,173.71,80.76,173.9,80.29,174.08L80.29,174.08z    M112.66,189.25c-7.95,0.05-16.77,0.05-25.39,0.07c-0.77,0.08-1.38,0.16-1.77,0.24c5.59-0.04,12.09-0.06,19.76-0.05   c9.56,0.45,14.09,0.93,15.32,1.38c11.06,0.05,23.74-0.04,39.05-0.46C150.41,190.11,131.67,189.65,112.66,189.25L112.66,189.25z    M99.39,190.64l0.96,0.03l3.64,0.05l1.01-0.08C103.05,190.64,101.19,190.64,99.39,190.64L99.39,190.64z M122.55,191.27   c4.53,0.11,9.16,0.21,13.87,0.31C132.49,191.35,127.36,191.19,122.55,191.27L122.55,191.27z M139.02,191.75   c-3.17,0.32-5.46,0.61-7.14,0.88c3.27,0.06,6.69,0.04,9.77-0.11C144.47,192.38,142.8,192.04,139.02,191.75L139.02,191.75z    M93.8,206.04c8.02-0.1,16.2-0.11,23.57,0.01c-0.91,0.16-1.86,0.3-2.84,0.41C105.35,206.43,97.56,206.34,93.8,206.04L93.8,206.04z    M123.87,201.23c23.96-0.94,51.71-2.1,38.02-3.94c-14.47,1.14-30.35,1.92-47,2.37C127.84,200.07,128.29,200.62,123.87,201.23   L123.87,201.23z M104.19,192.94c3.18-0.05,6.54-0.1,10.12-0.16c-1.1-0.07-2.21-0.14-3.35-0.21   C108.84,192.71,106.54,192.83,104.19,192.94L104.19,192.94z M143.67,161.7c0.65,0.04,1.23,0.08,1.74,0.11   c1.31-0.17,2.01-0.36,1.95-0.6l-0.27,0C146.87,161.36,145.5,161.52,143.67,161.7L143.67,161.7z M122.16,207.62   c14.56,0.33,27.74,0.67,35,0.92c-16.44,0.46-29.84,0.53-41.46,0.45C115.25,208.45,118.52,208,122.16,207.62L122.16,207.62z    M112.16,221.03l-2.6,0.09L107.2,221C108.88,221.01,110.53,221.02,112.16,221.03L112.16,221.03z M111.25,223.53   c16.79-0.46,32.81-1.24,47.38-2.38c9.84,1.32-1.73,2.29-17.92,3.08l0.03-0.01C130.18,224.3,120.36,223.99,111.25,223.53   L111.25,223.53z M130.86,218.76c-2.57,1.23-15.32,1.75-31.82,1.84c11.16-0.64,16.88-1.13,20.02-1.57   C123.07,218.97,127.01,218.89,130.86,218.76L130.86,218.76z M83.82,236.87c0.36-0.07,0.68-0.15,0.93-0.23   c43.03,0.47,26.18,3.54-0.86,3.29C83.87,238.9,83.85,237.88,83.82,236.87L83.82,236.87z M83.93,241.18   c8.61-0.22,15.88-0.5,21.09-0.87c12.96,0.31,20.56,0.59,24.02,0.85c8.66-0.02,17-0.03,24.25,0.02c-7.86,0.68-16.21,1.13-24.95,1.42   c38.26,0.74,13.02,2.59-24.4,2.25c24.74,1.21,17.89,1.83,0.95,2.37c9.98,0.55,20.82,0.95,32.6,0.85c-2.34,0.64-8.12,0.8-13.33,0.72   c-0.85,0.12-2.14,0.25-3.61,0.39c21.54-0.26,9.03,0.28-9.11,1.08c-1.66,0.33-2.21,0.7-0.35,1.12c-7.78-0.01-12.29-0.17-15.08-0.43   l-1.69,0.08c4.5,0.13,9.04,0.3,13.62,0.53c0.05,0.92-3.51,1.67-9.16,2.31c2.44,0.01,5.01,0.03,7.82,0.04   c-3.6,0.57-7.16,0.94-10.7,1.15c23.94,0.87,10.29,3.03-11.71,3.01c-0.02-1.53-0.03-3.06-0.05-4.59c4.91-0.55,6.08-1.18,0.59-1.91   l-0.62,0.05l-0.02-1.11l0.1,0.01c3.43,0.03,6.34,0.04,8.8,0.03c-2.06-0.45-2.15-0.99-4.58-1.42c-1.47,0.06-2.91,0.11-4.34,0.16   l-0.01-0.73c11.63,0.35,20.69,0.72,27.56-0.52c-8.6-0.14-18.31-0.1-27.57,0.04c-0.02-1.21-0.04-2.41-0.07-3.61   c21.94,0.11,40.46-0.33,43.61-1.84c-13.66,0.43-28.29,0.44-43.64,0.24L83.93,241.18L83.93,241.18z M84.21,259.21   c7.41-0.21,13.69-0.47,18.34-0.8c12.96,0.31,20.56,0.59,24.02,0.85c8.66-0.02,17-0.03,24.25,0.02c-7.86,0.68-16.21,1.13-24.95,1.42   c38.26,0.74,13.02,2.59-24.4,2.25c32.46,1.59,10.54,2.17-17.22,2.86l-0.02-3.24c20.74,0.06,37.88-0.4,40.9-1.85   c-12.85,0.4-26.56,0.44-40.91,0.27L84.21,259.21L84.21,259.21z M84.27,274.71c6.72,0.12,13.51,0.34,20.42,0.68   c0.08,1.43-8.5,2.43-20.08,3.28c32.94,0.61,21.68,3.01-0.36,3.21c0.01-1.7,0.01-3.4,0.01-5.1c1.08-0.28,1.17-0.57,0-0.89   L84.27,274.71L84.27,274.71z M84.25,282.96c5.98-0.19,11.1-0.42,15.05-0.7c12.96,0.31,20.56,0.59,24.02,0.85   c8.66-0.02,17-0.03,24.26,0.02c-7.86,0.68-16.21,1.13-24.95,1.41c38.26,0.74,13.02,2.59-24.4,2.26c31.2,1.53,12.16,2.12-14.01,2.78   l0.02-3.15c19.26,0,34.79-0.49,37.65-1.85c-11.87,0.37-24.47,0.43-37.64,0.3L84.25,282.96L84.25,282.96z M84.18,292.48   c14.47,0.03,16.45-0.55,17.77-1.17c-10.33-0.5-19.33,4.46-6.08,4.15c-0.87,0.12-1.81,0.24-2.82,0.35c2.44,0.01,5.04,0.03,7.82,0.04   c-5.65,0.9-11.22,1.29-16.75,1.37C84.15,295.64,84.16,294.06,84.18,292.48L84.18,292.48z M84.26,268.62   c17.36,0.12,19.53-0.5,20.94-1.16c33.09-0.53,27.5-0.17,11.8,0.53c3.14,0.43,3.93,1.52,2.63,3.61c-16.08,0.11-27.63,0-35.37-0.29   L84.26,268.62L84.26,268.62z M84.27,271.85l0,1.53c0.87,0,1.75,0,2.62-0.01c2.41,0.84,1.82,1.81,20.94,1.83   c-8.69-1.96,35.14-2.91,0.81-3.4c-2.81,0.53-6,0.78-9.58,0.87c1.68-0.18,3.37-0.41,5.07-0.68   C96.09,271.97,89.54,271.92,84.27,271.85L84.27,271.85z M86.66,269.45l2.4-0.19c-1.29,0.06-2.56,0.13-3.8,0.19L86.66,269.45   L86.66,269.45z M116.24,209.49c12.14-0.58,29.43,0.82,22.94,1.13C127.04,211.21,109.74,209.8,116.24,209.49L116.24,209.49z    M84.01,305.64c0.21,0.05,0.21,0.11,0,0.15L84.01,305.64L84.01,305.64z M83.81,316.78c23.7,0.63,13.94,2.24-0.07,3.45L83.81,316.78   L83.81,316.78z M83.92,311.36c50.85-2.84,28.37,4.17-0.05,2.81L83.92,311.36L83.92,311.36z M103.61,156.05l-0.63,0.09   c1.47,0.02,3.07,0.04,4.74,0.06L103.61,156.05L103.61,156.05z M114.55,156.24c1.51,0.01,3.05,0.01,4.58,0.02   c-2.45-0.04-4.8-0.09-7-0.15L114.55,156.24L114.55,156.24z M137.25,64.42c0.12,0.07,0.08,0.13-0.21,0.18   c0.45-0.07,0.89-0.14,1.31-0.21L137.25,64.42L137.25,64.42z M106.82,171.98c7.87-0.19,14.67-0.43,19.91-0.74   c-1.57-0.26-4.59-0.46-8.51-0.61c-7.86,0.18-17.61,0.07-27.37-0.55c-2.55-0.04-5.08-0.07-7.54-0.11c-2.19,0.37-3,0.68-2.67,0.93   l0.59,0.01l-0.54,0.03C81.93,171.64,92.45,171.9,106.82,171.98L106.82,171.98z M118.9,231.47c14.56,0.33,27.74,0.67,35,0.92   c-16.44,0.46-29.84,0.53-41.46,0.45C111.99,232.3,115.27,231.85,118.9,231.47L118.9,231.47z M112.99,233.34   c12.14-0.58,29.43,0.82,22.94,1.13C123.79,235.05,106.48,233.65,112.99,233.34z"/>
	<path fill-rule="evenodd" clip-rule="evenodd" fill="#131D33" d="M291.2,257.4l-28.31-20.65l-99.5,72.58l38.28-117.05l-99.77-72.2   l123.16,0.24l21.24-65.8c9.24,6.94,17.95,14.79,24.44,22.58c4.94,5.38,10.48,12.56,13.75,19.1c1.25,2.23,2.4,4.47,3.41,6.73   c2.54,5.64,4.01,12.95,4.86,19.76c1.28,10.22,4.87,37.86,5.13,39.85C293.4,184.26,291.59,219.6,291.2,257.4z"/>
	<path fill-rule="evenodd" clip-rule="evenodd" fill="#FFFFFF" d="M289.26,136.08l5.21-0.01c1.49,11.61,3.24,25.08,3.42,26.45   c-3.72,17.99-5.6,45.31-6.35,75.62l-28.65-20.9l-69.35,50.59l26.68-81.59l-69.54-50.32l85.84,0.16l22.85-70.77   c3.86,3.53,7.42,7.15,10.53,10.77L289.26,136.08z"/>
	<path fill-rule="evenodd" clip-rule="evenodd" fill="#990001" d="M262.89,80.04l20.64,63.94l11.96-0.02   c1.18,9.13,2.27,17.51,2.41,18.57c-3.32,16.08-5.18,39.62-6.07,66.07l-28.93-21.1l-54.28,39.6l20.88-63.86l-54.43-39.39l67.19,0.13   L262.89,80.04z"/>
	
		<path fill-rule="evenodd" clip-rule="evenodd" fill="none" stroke="#DCDDDD" stroke-width="0.118" stroke-miterlimit="22.9256" stroke-dasharray="1309.5332,654.7088" d="   M81.24,393.04c1.31,0.21,11.47,1.81,12.78,2.02c31.02,4.97,62.2,7.8,93.68,7.8c30.97,0,61.65-2.74,92.18-7.56   c1.81-0.29,12.47-1.83,14.28-2.14"/>
	<path fill-rule="evenodd" clip-rule="evenodd" fill="#DCDDDD" d="M168.13,42.84c12.06,2.36,26.97,2.36,39.04,0   c0.41-6.85,2.86-11.77,7.01-15.92c1.98-1.98,5.18-4.55,7.35-6.31c0.67-0.53,1.33-1.08,1.98-1.63c-0.29-0.07-2.98-0.9-3.28-0.97   c-1.95-0.46-3.94-0.82-5.93-0.92c-6.35-0.34-12.71-0.6-19.07-0.77c-2.52-0.07-5.07-0.15-7.59-0.15c-2.52,0-5.07,0.08-7.59,0.15   c-6.35,0.17-12.71,0.42-19.06,0.77c-1.82,0.1-3.63,0.4-5.42,0.81c-0.46,0.1-3.23,1.05-3.68,1.16c0.62,0.52,1.24,1.03,1.85,1.53   c2.45,1.94,5.16,4.11,7.38,6.33C165.27,31.07,167.72,36,168.13,42.84z"/>
	
		<path fill-rule="evenodd" clip-rule="evenodd" fill="#131D35" stroke="#DCDDDD" stroke-width="0.118" stroke-miterlimit="22.9256" d="   M140.93,5.82c3.26-6.62,44.71-5.49,46.72-5.5c2.01,0,43.46-1.13,46.72,5.5c-3.37,6.86-8.16,11.02-12.81,14.78   c-2.01-0.53-4.73-1.17-7.36-1.31c-15.4-0.82-26.56-0.91-26.56-0.91s-11.15,0.08-26.56,0.91c-2.63,0.14-5.35,0.78-7.35,1.31   C149.09,16.83,144.3,12.68,140.93,5.82z"/>
	
		<path fill-rule="evenodd" clip-rule="evenodd" fill="none" stroke="#DCDDDD" stroke-width="0.118" stroke-miterlimit="22.9256" stroke-dasharray="1309.5332,654.7088" d="   M233.52,7.43c-0.36-0.32-1.95-1.41-2.72-1.71c-1.56-0.65-3.35-1.06-4.99-1.37c-4.78-0.92-9.85-1.3-14.71-1.55   c-5.16-0.27-10.34-0.37-15.51-0.37c-2.65,0-5.3,0.07-7.94,0.07c-2.64,0-5.29-0.07-7.94-0.07c-5.17,0-10.35,0.1-15.51,0.37   c-4.85,0.25-9.92,0.63-14.7,1.55c-1.65,0.31-3.43,0.72-4.99,1.37c-0.21,0.09-2.46,1.23-2.86,1.46"/>
	<path fill-rule="evenodd" clip-rule="evenodd" fill="none" stroke="#DCDDDD" stroke-width="0.118" stroke-miterlimit="22.9256" d="   M151.88,19.07c0.46-0.12,3.22-1.06,3.68-1.16c1.79-0.4,3.61-0.71,5.42-0.8c6.35-0.35,12.71-0.6,19.06-0.77   c2.52-0.07,5.07-0.15,7.59-0.15c2.52,0,5.07,0.08,7.59,0.15c6.36,0.17,12.71,0.42,19.06,0.77c1.99,0.11,3.98,0.46,5.94,0.92   c0.29,0.07,2.98,0.89,3.27,0.97"/>
	
		<path fill-rule="evenodd" clip-rule="evenodd" fill="#131D35" stroke="#DCDDDD" stroke-width="0.118" stroke-miterlimit="22.9256" d="   M140.93,5.82l-5.55,14.07c7.38,11.39,17.04,21.76,32.53,29.97c1.17-10.71-1.35-17.49-6.8-22.93c-1.98-1.98-5.18-4.55-7.35-6.31   C149.11,16.85,144.31,12.69,140.93,5.82z"/>
	
		<path fill-rule="evenodd" clip-rule="evenodd" fill="none" stroke="#DCDDDD" stroke-width="0.118" stroke-miterlimit="22.9256" stroke-dasharray="1309.5332,654.7088" d="   M166.04,48.84c0.02-0.51,0.14-3.11,0.15-3.61c0.05-6.43-1.63-11.9-6.43-16.69c-2.2-2.2-4.79-4.22-7.19-6.16   c-4.03-3.26-7.54-6.42-10.43-10.51c-0.54-0.72-1.84-2.95-2.1-3.79"/>
	
		<path fill-rule="evenodd" clip-rule="evenodd" fill="#131D35" stroke="#DCDDDD" stroke-width="0.118" stroke-miterlimit="22.9256" d="   M234.37,5.82l5.55,14.07c-7.39,11.39-17.04,21.76-32.53,29.97c-1.17-10.71,1.35-17.49,6.79-22.93c1.98-1.98,5.18-4.55,7.35-6.31   C226.18,16.85,230.98,12.69,234.37,5.82z"/>
	
		<path fill-rule="evenodd" clip-rule="evenodd" fill="none" stroke="#DCDDDD" stroke-width="0.118" stroke-miterlimit="22.9256" stroke-dasharray="1309.5332,654.7088" d="   M209.25,48.84c-0.02-0.51-0.14-3.11-0.15-3.61c-0.05-6.43,1.63-11.9,6.43-16.69c2.2-2.2,4.79-4.22,7.19-6.16   c4.03-3.26,7.54-6.42,10.43-10.51c0.53-0.72,1.84-2.95,2.1-3.79"/>
	
		<path fill-rule="evenodd" clip-rule="evenodd" fill="#131D35" stroke="#DCDDDD" stroke-width="0.118" stroke-miterlimit="22.9256" d="   M167.91,49.85c0.28-2.55,0.35-4.87,0.22-7.01c12.06,2.36,26.98,2.36,39.04,0c-0.13,2.14-0.06,4.46,0.22,7.01   C195.08,55.55,180.21,55.55,167.91,49.85z"/>
	
	<path fill-rule="evenodd" clip-rule="evenodd" fill="#131D34" d="M235.97,25.42l1.73,0.62c12.3,4.41,24.62,9.15,36.7,14.13   c4.95,2.04,9.89,4.13,14.76,6.35c16.75,7.61,36.74,18.3,45.76,35.14c2.58,4.81,4.9,9.9,7.17,14.87c3.15,6.88,6.2,13.8,9.22,20.74   c5.97,13.72,11.84,27.5,17.57,41.32l1.24,2.98c1.83-1.77,3.43-3.6,4.74-5.47c0,0-25.13-60.5-34.25-77.54   c-9.12-17.04-27.58-28.35-48.81-38c-21.23-9.66-51.98-20.69-51.98-20.69C238.6,21.76,237.33,23.6,235.97,25.42z"/>
	<path fill-rule="evenodd" clip-rule="evenodd" fill="#131D34" d="M139.23,25.42l-1.73,0.62c-12.3,4.41-24.62,9.15-36.7,14.13   c-4.95,2.04-9.89,4.13-14.76,6.35c-16.75,7.61-36.74,18.3-45.76,35.14c-2.58,4.81-4.9,9.9-7.17,14.87   c-3.15,6.88-6.2,13.8-9.22,20.74c-5.97,13.72-11.84,27.5-17.57,41.32l-1.24,2.98c-1.83-1.77-3.43-3.6-4.74-5.47   c0,0,25.13-60.5,34.25-77.54c9.12-17.04,27.58-28.35,48.81-38c21.23-9.66,51.98-20.69,51.98-20.69   C136.6,21.76,137.87,23.6,139.23,25.42z"/>
	
		<path fill-rule="evenodd" clip-rule="evenodd" fill="none" stroke="#DCDDDD" stroke-width="0.118" stroke-miterlimit="22.9256" stroke-dasharray="1309.5332,654.7088" d="   M3.74,147.98c1.02,1.06,9.02,8.7,10.23,9.69c11,9.08,29.17,15.65,43.73,17.3c4.83,0.54,9.88,0.72,14.51,0.35"/>
	
		<path fill-rule="evenodd" clip-rule="evenodd" fill="none" stroke="#DCDDDD" stroke-width="0.118" stroke-miterlimit="22.9256" stroke-dasharray="1309.5332,654.7088" d="   M371.46,147.98c-1.02,1.06-9.02,8.7-10.23,9.69c-11,9.08-29.17,15.65-43.73,17.3c-4.83,0.54-9.88,0.72-14.51,0.35"/>
</g>
<g id="图层_x0020_1">
	<path fill="#F08300" d="M175.88,34.74c0.416,1.136,1.472,1.984,2.752,2.032c0.144,0,0.304,0,0.448-0.016h0.016   c0.016,0,0.064,0,0.128-0.016c0.032,0,0.048-0.016,0.08-0.016c0.064-0.016,0.144-0.032,0.224-0.048c0.016,0,0.016,0,0.032,0   c0.192-0.048,0.4-0.112,0.576-0.208c0.192-0.096,0.4-0.224,0.608-0.384c0.672-0.56,1.104-1.408,1.104-2.352   c0-0.224-0.032-0.448-0.08-0.672l0,0C181.72,32.86,181.67,32.69,181.59,32.51C181.12,31.42,180.04,30.66,178.77,30.66C177.08,30.66,175.7,32.03,175.7,33.73C175.7,34.08,175.76,34.42,175.88,34.74L175.88,34.74L175.88,34.74z M180.18,33.76L180.18,33.76C180.15,34.54,179.49,35.14,178.71,35.1C177.92,35.07,177.33,34.42,177.36,33.63c0.032-0.784,0.688-1.376,1.472-1.344   C179.6,32.32,180.21,32.99,180.18,33.76L180.18,33.76z"/>
	<polygon fill="#F08300" points="194.21,31.34 ,193.57,32.93 ,192.13,32.93 ,190.71,36.48 ,188.76,36.48 ,190.16,32.93 ,188.58,32.93    ,189.22,31.34"/>
	<path fill="#F08300" d="M196.18,26.61c-1.008-0.096-3.024-0.144-5.056,0.112c-2.416,0.304-5.152,0.912-7.616,1.664   C181.46,28.99,179.59,29.71,178.24,30.48C178.44,30.45,178.63,30.43,178.82,30.43c0.48,0,0.944,0.112,1.36,0.288   C184.28,28.4,191.48,26.35,196.18,26.61L196.18,26.61L196.18,26.61z"/>
	<path fill="#F08300" d="M181.65,32.08c4-2.368,8.88-4.672,13.488-5.248c-4.608,0.288-10.224,2-14.288,4.304   C181.17,31.39,181.44,31.71,181.65,32.08C181.65,32.08,181.65,32.08,181.65,32.08z"/>
	<polygon fill="#F08300" points="199.7,31.34 ,199.08,32.93 ,197.62,32.93 ,196.21,36.48 ,195.75,36.48 ,194.24,36.48 ,192.55,36.48    ,193.14,34.98 ,194.85,34.98 ,195.67,32.93 ,194.08,32.93 ,194.72,31.34"/>
	<polygon fill="#F08300" points="188.79,31.34 ,188.15,32.93 ,185.86,35.04 ,188.12,35.04 ,187.54,36.48 ,182.05,36.48 ,185.72,32.93    ,183.14,32.93 ,183.78,31.34"/>
	<path fill="#F08300" d="M194.07,27.2c-3.376,0.752-6.464,2.192-9.424,3.952h1.888C188.96,29.58,191.3,28.15,194.07,27.2z    M183.27,32.02C182.64,32.4,182.58,32.45,181.97,32.86c0.064,0.256,0.112,0.544,0.112,0.816c0,0.496-0.112,0.976-0.32,1.392   c0.176-0.16,0.32-0.304,0.432-0.4c0.272-0.24,0.768-0.64,1.6-1.296l0.32-0.256H182.79l0,0L183.27,32.02L183.27,32.02L183.27,32.02z"/>
</g>
</svg>