<?xml version="1.0" encoding="utf-8"?>
<!-- Generator: Adobe Illustrator 22.0.0, SVG Export Plug-In . SVG Version: 6.00 Build 0)  -->
<svg xmlns="http://www.w3.org/2000/svg" xmlns:xlink="http://www.w3.org/1999/xlink" version="1.1" id="图层_1" x="0px" y="0px" width="375.2px" height="412px" viewBox="0 0 375.2 412" enable-background="new 0 0 375.2 412" xml:space="preserve">
<g>
	
		<path fill-rule="evenodd" clip-rule="evenodd" fill="#E73500" stroke="#DCDDDD" stroke-width="0.118" stroke-miterlimit="22.9256" d="   M152.44,39.5c-7.1-5.98-12.51-12.6-17.06-19.62c0,0-30.75,11.04-51.98,20.69c-21.23,9.65-39.7,20.96-48.81,38   c-9.12,17.04-34.25,77.54-34.25,77.54c11.61,16.54,45.44,29.85,68.2,28.01l8.95-21.48c0,0,3.82-29.36,5.14-39.97   c0.85-6.8,2.32-14.11,4.86-19.76c1.01-2.26,2.16-4.5,3.41-6.73c3.28-6.54,8.81-13.72,13.75-19.1   C116.58,62.77,136.01,48.28,152.44,39.5z"/>
	
		<path fill-rule="evenodd" clip-rule="evenodd" fill="none" stroke="#DCDDDD" stroke-width="0.118" stroke-miterlimit="22.9256" stroke-dasharray="1309.533,654.7087" d="   M3.74,147.98c1.02,1.06,9.02,8.7,10.23,9.69c11,9.08,29.17,15.65,43.73,17.3c4.83,0.54,9.88,0.72,14.51,0.35"/>
	
		<path fill-rule="evenodd" clip-rule="evenodd" fill="#E73500" stroke="#DCDDDD" stroke-width="0.118" stroke-miterlimit="22.9256" d="   M222.76,39.5c7.1-5.98,12.51-12.6,17.06-19.62c0,0,30.75,11.04,51.98,20.69c21.23,9.65,39.7,20.96,48.81,38   c9.12,17.04,34.25,77.54,34.25,77.54c-11.61,16.54-45.44,29.85-68.2,28.01l-8.95-21.48c0,0-3.82-29.36-5.14-39.97   c-0.85-6.8-2.32-14.11-4.86-19.76c-1.01-2.26-2.16-4.5-3.41-6.73c-3.27-6.54-8.81-13.72-13.75-19.1   C258.62,62.77,239.19,48.28,222.76,39.5z"/>
	
		<path fill-rule="evenodd" clip-rule="evenodd" fill="#E73500" stroke="#DCDDDD" stroke-width="0.118" stroke-miterlimit="22.9256" d="   M292.76,122.67c1.28,10.22,4.87,37.86,5.13,39.85c-10.9,52.76-6,185.61-3.31,239.33c-36.96,6.55-71.92,9.87-106.89,9.9   c-34.96-0.04-69.93-3.35-106.88-9.9c2.69-53.72,7.59-186.57-3.31-239.33c0.26-1.99,3.85-29.63,5.13-39.85   c0.85-6.81,2.32-14.11,4.86-19.76c1.01-2.26,2.15-4.5,3.41-6.73c3.27-6.54,8.81-13.72,13.75-19.1   c11.93-14.32,31.36-28.81,47.79-37.59c3.96,3.33,8.45,6.45,13.61,9.33l1.87,1.01c6.12,2.84,13.02,4.26,19.79,4.27   c6.76-0.02,13.67-1.44,19.79-4.27l1.86-1.01c5.16-2.88,9.64-6.01,13.6-9.33c16.43,8.78,35.86,23.26,47.79,37.59   c4.94,5.38,10.48,12.56,13.75,19.1c1.25,2.23,2.4,4.47,3.41,6.73C290.44,108.56,291.91,115.87,292.76,122.67z"/>
	
		<path fill-rule="evenodd" clip-rule="evenodd" fill="none" stroke="#DCDDDD" stroke-width="0.118" stroke-miterlimit="22.9256" stroke-dasharray="1309.533,654.7087" d="   M371.46,147.98c-1.02,1.06-9.02,8.7-10.23,9.69c-11,9.08-29.17,15.65-43.73,17.3c-4.83,0.54-9.88,0.72-14.51,0.35"/>
	<path fill-rule="evenodd" clip-rule="evenodd" fill="#DCDDDD" d="M168.13,42.84c12.06,2.36,26.98,2.36,39.04,0   c0.41-6.85,2.86-11.77,7.01-15.92c1.98-1.98,5.18-4.55,7.35-6.31c0.67-0.53,1.33-1.08,1.98-1.63c-0.29-0.07-2.98-0.9-3.28-0.97   c-1.95-0.46-3.94-0.81-5.93-0.92c-6.35-0.34-12.71-0.6-19.07-0.77c-2.52-0.07-5.07-0.15-7.59-0.15c-2.52,0-5.07,0.08-7.59,0.15   c-6.35,0.17-12.71,0.42-19.06,0.77c-1.82,0.1-3.63,0.4-5.42,0.81c-0.46,0.1-3.23,1.05-3.68,1.17c0.62,0.52,1.24,1.03,1.85,1.53   c2.45,1.94,5.16,4.11,7.38,6.33C165.27,31.07,167.72,36,168.13,42.84z"/>
	
		<path fill-rule="evenodd" clip-rule="evenodd" fill="#333333" stroke="#DCDDDD" stroke-width="0.118" stroke-miterlimit="22.9256" d="   M140.93,5.82c3.26-6.62,44.71-5.49,46.72-5.5c2.01,0,43.46-1.13,46.72,5.5c-3.37,6.86-8.16,11.02-12.81,14.78   c-2.01-0.53-4.73-1.17-7.36-1.31c-15.4-0.82-26.56-0.91-26.56-0.91s-11.15,0.08-26.56,0.91c-2.63,0.14-5.35,0.78-7.35,1.31   C149.09,16.83,144.3,12.68,140.93,5.82z"/>
	
		<path fill-rule="evenodd" clip-rule="evenodd" fill="none" stroke="#DCDDDD" stroke-width="0.118" stroke-miterlimit="22.9256" stroke-dasharray="1309.533,654.7087" d="   M233.52,7.43c-0.36-0.32-1.95-1.41-2.72-1.71c-1.56-0.65-3.35-1.06-4.99-1.37c-4.78-0.92-9.85-1.29-14.71-1.55   c-5.16-0.27-10.34-0.37-15.51-0.37c-2.65,0-5.3,0.07-7.94,0.07c-2.64,0-5.29-0.07-7.94-0.07c-5.17,0-10.35,0.1-15.51,0.37   c-4.85,0.25-9.92,0.63-14.7,1.55c-1.65,0.31-3.43,0.72-4.99,1.37c-0.21,0.09-2.46,1.23-2.86,1.46"/>
	<path fill-rule="evenodd" clip-rule="evenodd" fill="none" stroke="#DCDDDD" stroke-width="0.118" stroke-miterlimit="22.9256" d="   M151.88,19.07c0.46-0.12,3.22-1.06,3.68-1.16c1.79-0.4,3.61-0.71,5.42-0.8c6.35-0.35,12.71-0.6,19.06-0.77   c2.52-0.07,5.07-0.15,7.59-0.15c2.52,0,5.07,0.08,7.59,0.15c6.36,0.17,12.71,0.42,19.06,0.77c1.99,0.11,3.98,0.46,5.94,0.92   c0.29,0.07,2.98,0.89,3.27,0.97"/>
	
		<path fill-rule="evenodd" clip-rule="evenodd" fill="#333333" stroke="#DCDDDD" stroke-width="0.118" stroke-miterlimit="22.9256" d="   M140.93,5.82l-5.55,14.07c7.38,11.39,17.04,21.76,32.53,29.97c1.17-10.71-1.35-17.49-6.8-22.93c-1.98-1.98-5.18-4.55-7.35-6.31   C149.11,16.85,144.31,12.69,140.93,5.82z"/>
	
		<path fill-rule="evenodd" clip-rule="evenodd" fill="none" stroke="#DCDDDD" stroke-width="0.118" stroke-miterlimit="22.9256" stroke-dasharray="1309.533,654.7087" d="   M166.04,48.84c0.02-0.51,0.14-3.11,0.15-3.61c0.05-6.43-1.63-11.9-6.43-16.69c-2.2-2.2-4.79-4.22-7.19-6.16   c-4.03-3.26-7.54-6.42-10.43-10.51c-0.54-0.72-1.84-2.95-2.1-3.79"/>
	
		<path fill-rule="evenodd" clip-rule="evenodd" fill="#333333" stroke="#DCDDDD" stroke-width="0.118" stroke-miterlimit="22.9256" d="   M234.37,5.82l5.55,14.07c-7.39,11.39-17.04,21.76-32.53,29.97c-1.17-10.71,1.35-17.49,6.79-22.93c1.98-1.98,5.18-4.55,7.35-6.31   C226.18,16.85,230.99,12.69,234.37,5.82z"/>
	
		<path fill-rule="evenodd" clip-rule="evenodd" fill="none" stroke="#DCDDDD" stroke-width="0.118" stroke-miterlimit="22.9256" stroke-dasharray="1309.533,654.7087" d="   M209.25,48.84c-0.02-0.51-0.14-3.11-0.15-3.61c-0.05-6.43,1.63-11.9,6.43-16.69c2.2-2.2,4.79-4.22,7.19-6.16   c4.03-3.26,7.54-6.42,10.43-10.51c0.53-0.72,1.84-2.95,2.1-3.79"/>
	
		<path fill-rule="evenodd" clip-rule="evenodd" fill="#152E51" stroke="#DCDDDD" stroke-width="0.118" stroke-miterlimit="22.9256" d="   M167.91,49.85c0.28-2.55,0.35-4.87,0.22-7.01c12.06,2.36,26.98,2.36,39.04,0c-0.13,2.14-0.06,4.46,0.22,7.01   C195.08,55.55,180.21,55.55,167.91,49.85z"/>
	
	<path fill-rule="evenodd" clip-rule="evenodd" fill="#FFFFFF" d="M139.23,25.42l-1.73,0.62c-12.3,4.41-24.62,9.15-36.7,14.13   c-4.95,2.04-9.89,4.13-14.76,6.35c-16.75,7.61-36.74,18.3-45.76,35.14c-2.58,4.81-4.9,9.9-7.17,14.87   c-3.15,6.88-6.2,13.8-9.22,20.74c-5.97,13.72-11.84,27.5-17.57,41.32l-1.24,2.98c-1.83-1.77-3.43-3.6-4.74-5.47   c0,0,25.13-60.5,34.25-77.54c9.12-17.04,27.58-28.35,48.81-38c21.23-9.66,51.98-20.69,51.98-20.69   C136.6,21.76,137.87,23.6,139.23,25.42z"/>
	<path fill-rule="evenodd" clip-rule="evenodd" fill="#FFFFFF" d="M235.97,25.42l1.73,0.62c12.3,4.41,24.62,9.15,36.7,14.13   c4.95,2.04,9.89,4.13,14.76,6.35c16.75,7.61,36.74,18.3,45.76,35.14c2.58,4.81,4.9,9.9,7.17,14.87c3.15,6.88,6.2,13.8,9.22,20.74   c5.97,13.72,11.84,27.5,17.57,41.32l1.24,2.98c1.83-1.77,3.43-3.6,4.74-5.47c0,0-25.13-60.5-34.25-77.54   c-9.12-17.04-27.58-28.35-48.81-38c-21.23-9.66-51.98-20.69-51.98-20.69C238.6,21.76,237.33,23.6,235.97,25.42z"/>
	<path fill-rule="evenodd" clip-rule="evenodd" fill="#FEFEFE" d="M253.3,60.03V407.9c-22.19,2.54-43.9,3.83-65.61,3.85   c-21.71-0.02-43.42-1.31-65.6-3.85V60.04c9.7-8.04,20.56-15.3,30.35-20.53c3.96,3.33,8.45,6.45,13.61,9.33l1.87,1.01   c6.12,2.84,13.02,4.26,19.79,4.27c6.76-0.02,13.67-1.44,19.79-4.27l1.86-1.01c5.16-2.88,9.64-6.01,13.6-9.33   C232.74,44.73,243.6,51.99,253.3,60.03z"/>
	<linearGradient id="SVGID_1_" gradientUnits="userSpaceOnUse" x1="187.6967" y1="39.5037" x2="187.6967" y2="182.8012">
		<stop offset="0" style="stop-color:#FFFFFF"/>
		<stop offset="1" style="stop-color:#152E52"/>
	</linearGradient>
	<path fill-rule="evenodd" clip-rule="evenodd" fill="url(#SVGID_1_)" d="M215.81,44.87v366.14c6.23-0.32,12.47-0.74,18.74-1.26   V46.34c-3.94-2.53-7.85-4.83-11.6-6.84C220.74,41.36,218.37,43.15,215.81,44.87L215.81,44.87z M140.84,46.34v363.42   c6.27,0.52,12.52,0.94,18.74,1.26V44.88c-2.56-1.72-4.93-3.52-7.14-5.37C148.69,41.51,144.78,43.81,140.84,46.34L140.84,46.34z    M178.32,53.2v358.46c3.12,0.06,6.25,0.09,9.37,0.09c3.12,0,6.25-0.03,9.37-0.09V53.2c-3.09,0.61-6.25,0.92-9.37,0.92   C184.57,54.12,181.42,53.81,178.32,53.2z"/>
	<g>
		<rect x="182.07" y="404.25" fill-rule="evenodd" clip-rule="evenodd" fill="#FFFFFF" width="3.75" height="3.75"/>
		<polygon fill-rule="evenodd" clip-rule="evenodd" fill="#FFFFFF" points="185.82,408 189.57,408 189.57,411.75 187.69,411.75     185.82,411.75   "/>
		<rect x="189.57" y="404.25" fill-rule="evenodd" clip-rule="evenodd" fill="#FFFFFF" width="3.75" height="3.75"/>
		<path fill-rule="evenodd" clip-rule="evenodd" fill="#FFFFFF" d="M193.32,408h3.75v3.66c-1.25,0.02-2.5,0.04-3.75,0.05V408z"/>
		<path fill-rule="evenodd" clip-rule="evenodd" fill="#FFFFFF" d="M178.32,408h3.75v3.71c-1.25-0.01-2.5-0.03-3.75-0.05V408z"/>
		<path fill-rule="evenodd" clip-rule="evenodd" fill="#FFFFFF" d="M178.4,400.58c1.2,0,2.39,0,3.59,0c0,1.2,0,2.39,0,3.59    c-1.2,0-2.39,0-3.59,0C178.4,402.98,178.4,401.78,178.4,400.58z"/>
		<path fill-rule="evenodd" clip-rule="evenodd" fill="#FFFFFF" d="M178.48,393.16c1.14,0,2.29,0,3.43,0c0,1.14,0,2.29,0,3.43    c-1.14,0-2.29,0-3.43,0C178.48,395.45,178.48,394.31,178.48,393.16z"/>
		<circle fill-rule="evenodd" clip-rule="evenodd" fill="#FFFFFF" cx="180.2" cy="387.38" r="2.32"/>
		<path fill-rule="evenodd" clip-rule="evenodd" fill="#FFFFFF" d="M178.64,378.33c1.04,0,2.08,0,3.12,0c0,1.04,0,2.08,0,3.12    c-1.04,0-2.08,0-3.12,0C178.64,380.4,178.64,379.36,178.64,378.33z"/>
		<path fill-rule="evenodd" clip-rule="evenodd" fill="#FFFFFF" d="M178.72,370.91c0.99,0,1.97,0,2.96,0c0,0.99,0,1.97,0,2.96    c-0.99,0-1.97,0-2.96,0C178.72,372.88,178.72,371.89,178.72,370.91z"/>
		<path fill-rule="evenodd" clip-rule="evenodd" fill="#FFFFFF" d="M178.8,363.49c0.93,0,1.87,0,2.8,0c0,0.93,0,1.87,0,2.8    c-0.93,0-1.87,0-2.8,0C178.8,365.35,178.8,364.42,178.8,363.49z"/>
		<path fill-rule="evenodd" clip-rule="evenodd" fill="#FFFFFF" d="M178.88,356.07c0.88,0,1.76,0,2.64,0c0,0.88,0,1.76,0,2.64    c-0.88,0-1.76,0-2.64,0C178.88,357.83,178.88,356.95,178.88,356.07z"/>
		<path fill-rule="evenodd" clip-rule="evenodd" fill="#FFFFFF" d="M178.96,348.65c0.83,0,1.66,0,2.48,0c0,0.83,0,1.66,0,2.48    c-0.83,0-1.66,0-2.48,0C178.96,350.31,178.96,349.48,178.96,348.65z"/>
		<path fill-rule="evenodd" clip-rule="evenodd" fill="#FFFFFF" d="M179.03,341.23c0.78,0,1.55,0,2.33,0c0,0.78,0,1.55,0,2.33    c-0.78,0-1.55,0-2.33,0C179.03,342.78,179.03,342.01,179.03,341.23z"/>
		<path fill-rule="evenodd" clip-rule="evenodd" fill="#FFFFFF" d="M179.11,333.81c0.72,0,1.45,0,2.17,0c0,0.72,0,1.45,0,2.17    c-0.72,0-1.45,0-2.17,0C179.11,335.26,179.11,334.53,179.11,333.81z"/>
		<path fill-rule="evenodd" clip-rule="evenodd" fill="#FFFFFF" d="M179.19,326.39c0.67,0,1.34,0,2.01,0c0,0.67,0,1.34,0,2.01    c-0.67,0-1.34,0-2.01,0C179.19,327.73,179.19,327.06,179.19,326.39z"/>
		<path fill-rule="evenodd" clip-rule="evenodd" fill="#FFFFFF" d="M179.27,318.97c0.62,0,1.24,0,1.85,0c0,0.62,0,1.23,0,1.85    c-0.62,0-1.24,0-1.85,0C179.27,320.21,179.27,319.59,179.27,318.97z"/>
		<path fill-rule="evenodd" clip-rule="evenodd" fill="#FFFFFF" d="M179.35,311.55c0.56,0,1.13,0,1.69,0c0,0.57,0,1.13,0,1.69    c-0.57,0-1.13,0-1.69,0C179.35,312.68,179.35,312.12,179.35,311.55z"/>
		<path fill-rule="evenodd" clip-rule="evenodd" fill="#FFFFFF" d="M179.43,304.13c0.51,0,1.02,0,1.54,0c0,0.51,0,1.02,0,1.54    c-0.51,0-1.02,0-1.54,0C179.43,305.16,179.43,304.65,179.43,304.13z"/>
		<path fill-rule="evenodd" clip-rule="evenodd" fill="#FFFFFF" d="M179.51,296.72c0.46,0,0.92,0,1.38,0c0,0.46,0,0.92,0,1.38    c-0.46,0-0.92,0-1.38,0C179.51,297.63,179.51,297.18,179.51,296.72z"/>
		<path fill-rule="evenodd" clip-rule="evenodd" fill="#FFFFFF" d="M179.59,289.3c0.41,0,0.81,0,1.22,0c0,0.41,0,0.81,0,1.22    c-0.41,0-0.81,0-1.22,0C179.59,290.11,179.59,289.7,179.59,289.3z"/>
		<rect x="179.67" y="281.88" fill-rule="evenodd" clip-rule="evenodd" fill="#FFFFFF" width="1.06" height="1.06"/>
		<path fill-rule="evenodd" clip-rule="evenodd" fill="#FFFFFF" d="M182.15,396.83c1.2,0,2.39,0,3.59,0c0,1.2,0,2.39,0,3.59    c-1.2,0-2.39,0-3.59,0C182.15,399.23,182.15,398.03,182.15,396.83z"/>
		<path fill-rule="evenodd" clip-rule="evenodd" fill="#FFFFFF" d="M182.23,389.41c1.14,0,2.29,0,3.43,0c0,1.14,0,2.29,0,3.43    c-1.14,0-2.29,0-3.43,0C182.23,391.7,182.23,390.56,182.23,389.41z"/>
		<path fill-rule="evenodd" clip-rule="evenodd" fill="#FFFFFF" d="M182.31,382c1.09,0,2.18,0,3.28,0c0,1.09,0,2.18,0,3.28    c-1.09,0-2.18,0-3.28,0C182.31,384.18,182.31,383.09,182.31,382z"/>
		<path fill-rule="evenodd" clip-rule="evenodd" fill="#FFFFFF" d="M182.39,374.58c1.04,0,2.08,0,3.12,0c0,1.04,0,2.08,0,3.12    c-1.04,0-2.08,0-3.12,0C182.39,376.65,182.39,375.62,182.39,374.58z"/>
		<path fill-rule="evenodd" clip-rule="evenodd" fill="#FFFFFF" d="M182.47,367.16c0.99,0,1.97,0,2.96,0c0,0.99,0,1.97,0,2.96    c-0.99,0-1.97,0-2.96,0C182.47,369.13,182.47,368.14,182.47,367.16z"/>
		<path fill-rule="evenodd" clip-rule="evenodd" fill="#FFFFFF" d="M182.55,359.74c0.93,0,1.87,0,2.8,0c0,0.93,0,1.87,0,2.8    c-0.93,0-1.87,0-2.8,0C182.55,361.61,182.55,360.67,182.55,359.74z"/>
		<path fill-rule="evenodd" clip-rule="evenodd" fill="#FFFFFF" d="M182.63,352.32c0.88,0,1.76,0,2.64,0c0,0.88,0,1.76,0,2.64    c-0.88,0-1.76,0-2.64,0C182.63,354.08,182.63,353.2,182.63,352.32z"/>
		<path fill-rule="evenodd" clip-rule="evenodd" fill="#FFFFFF" d="M182.71,344.9c0.83,0,1.66,0,2.48,0c0,0.83,0,1.66,0,2.48    c-0.83,0-1.66,0-2.48,0C182.71,346.56,182.71,345.73,182.71,344.9z"/>
		<path fill-rule="evenodd" clip-rule="evenodd" fill="#FFFFFF" d="M182.78,337.48c0.78,0,1.55,0,2.33,0c0,0.78,0,1.55,0,2.33    c-0.78,0-1.55,0-2.33,0C182.78,339.03,182.78,338.26,182.78,337.48z"/>
		<path fill-rule="evenodd" clip-rule="evenodd" fill="#FFFFFF" d="M182.86,330.06c0.72,0,1.45,0,2.17,0c0,0.72,0,1.45,0,2.17    c-0.72,0-1.45,0-2.17,0C182.86,331.51,182.86,330.78,182.86,330.06z"/>
		<path fill-rule="evenodd" clip-rule="evenodd" fill="#FFFFFF" d="M182.94,322.64c0.67,0,1.34,0,2.01,0c0,0.67,0,1.34,0,2.01    c-0.67,0-1.34,0-2.01,0C182.94,323.98,182.94,323.31,182.94,322.64z"/>
		<path fill-rule="evenodd" clip-rule="evenodd" fill="#FFFFFF" d="M183.02,315.22c0.62,0,1.24,0,1.85,0c0,0.62,0,1.23,0,1.85    c-0.62,0-1.23,0-1.85,0C183.02,316.46,183.02,315.84,183.02,315.22z"/>
		<path fill-rule="evenodd" clip-rule="evenodd" fill="#FFFFFF" d="M183.1,307.8c0.56,0,1.13,0,1.69,0c0,0.56,0,1.13,0,1.69    c-0.56,0-1.13,0-1.69,0C183.1,308.93,183.1,308.37,183.1,307.8z"/>
		<path fill-rule="evenodd" clip-rule="evenodd" fill="#FFFFFF" d="M183.18,300.39c0.51,0,1.02,0,1.54,0c0,0.51,0,1.02,0,1.54    c-0.51,0-1.02,0-1.54,0C183.18,301.41,183.18,300.9,183.18,300.39z"/>
		<path fill-rule="evenodd" clip-rule="evenodd" fill="#FFFFFF" d="M183.26,292.97c0.46,0,0.92,0,1.38,0c0,0.46,0,0.92,0,1.38    c-0.46,0-0.92,0-1.38,0C183.26,293.89,183.26,293.43,183.26,292.97z"/>
		<circle fill-rule="evenodd" clip-rule="evenodd" fill="#FFFFFF" cx="183.95" cy="286.16" r="0.86"/>
		<rect x="183.42" y="278.13" fill-rule="evenodd" clip-rule="evenodd" fill="#FFFFFF" width="1.06" height="1.06"/>
		<g>
			<path fill-rule="evenodd" clip-rule="evenodd" fill="#FFFFFF" d="M185.9,400.58c1.2,0,2.39,0,3.59,0c0,1.2,0,2.39,0,3.59     c-1.2,0-2.39,0-3.59,0C185.9,402.98,185.9,401.78,185.9,400.58z"/>
			<path fill-rule="evenodd" clip-rule="evenodd" fill="#FFFFFF" d="M185.98,393.16c1.14,0,2.29,0,3.43,0c0,1.14,0,2.29,0,3.43     c-1.14,0-2.29,0-3.43,0C185.98,395.45,185.98,394.31,185.98,393.16z"/>
			<circle fill-rule="evenodd" clip-rule="evenodd" fill="#FFFFFF" cx="187.7" cy="387.38" r="2.32"/>
			<path fill-rule="evenodd" clip-rule="evenodd" fill="#FFFFFF" d="M186.14,378.33c1.04,0,2.08,0,3.12,0c0,1.04,0,2.08,0,3.12     c-1.04,0-2.08,0-3.12,0C186.14,380.4,186.14,379.36,186.14,378.33z"/>
			<path fill-rule="evenodd" clip-rule="evenodd" fill="#FFFFFF" d="M186.22,370.91c0.99,0,1.97,0,2.96,0c0,0.99,0,1.97,0,2.96     c-0.99,0-1.97,0-2.96,0C186.22,372.88,186.22,371.89,186.22,370.91z"/>
			<path fill-rule="evenodd" clip-rule="evenodd" fill="#FFFFFF" d="M186.3,363.49c0.93,0,1.87,0,2.8,0c0,0.93,0,1.87,0,2.8     c-0.93,0-1.87,0-2.8,0C186.3,365.35,186.3,364.42,186.3,363.49z"/>
			<path fill-rule="evenodd" clip-rule="evenodd" fill="#FFFFFF" d="M186.37,356.07c0.88,0,1.76,0,2.64,0c0,0.88,0,1.76,0,2.64     c-0.88,0-1.76,0-2.64,0C186.37,357.83,186.37,356.95,186.37,356.07z"/>
			<path fill-rule="evenodd" clip-rule="evenodd" fill="#FFFFFF" d="M186.45,348.65c0.83,0,1.66,0,2.48,0c0,0.83,0,1.66,0,2.48     c-0.83,0-1.66,0-2.48,0C186.45,350.31,186.45,349.48,186.45,348.65z"/>
			<circle fill-rule="evenodd" clip-rule="evenodd" fill="#FFFFFF" cx="187.7" cy="342.39" r="1.65"/>
			<path fill-rule="evenodd" clip-rule="evenodd" fill="#FFFFFF" d="M186.61,333.81c0.72,0,1.45,0,2.17,0c0,0.72,0,1.45,0,2.17     c-0.72,0-1.45,0-2.17,0C186.61,335.26,186.61,334.53,186.61,333.81z"/>
			<path fill-rule="evenodd" clip-rule="evenodd" fill="#FFFFFF" d="M186.69,326.39c0.67,0,1.34,0,2.01,0c0,0.67,0,1.34,0,2.01     c-0.67,0-1.34,0-2.01,0C186.69,327.73,186.69,327.06,186.69,326.39z"/>
			<circle fill-rule="evenodd" clip-rule="evenodd" fill="#FFFFFF" cx="187.7" cy="319.9" r="1.31"/>
			<path fill-rule="evenodd" clip-rule="evenodd" fill="#FFFFFF" d="M186.85,311.55c0.56,0,1.13,0,1.69,0c0,0.57,0,1.13,0,1.69     c-0.57,0-1.13,0-1.69,0C186.85,312.68,186.85,312.12,186.85,311.55z"/>
			<path fill-rule="evenodd" clip-rule="evenodd" fill="#FFFFFF" d="M186.93,304.13c0.51,0,1.02,0,1.54,0c0,0.51,0,1.02,0,1.54     c-0.51,0-1.02,0-1.54,0C186.93,305.16,186.93,304.65,186.93,304.13z"/>
			<path fill-rule="evenodd" clip-rule="evenodd" fill="#FFFFFF" d="M187.01,296.72c0.46,0,0.92,0,1.38,0c0,0.46,0,0.92,0,1.38     c-0.46,0-0.92,0-1.38,0C187.01,297.63,187.01,297.18,187.01,296.72z"/>
			<path fill-rule="evenodd" clip-rule="evenodd" fill="#FFFFFF" d="M187.09,289.3c0.41,0,0.81,0,1.22,0c0,0.41,0,0.81,0,1.22     c-0.41,0-0.81,0-1.22,0C187.09,290.11,187.09,289.7,187.09,289.3z"/>
		</g>
		<rect x="187.17" y="281.88" fill-rule="evenodd" clip-rule="evenodd" fill="#FFFFFF" width="1.06" height="1.06"/>
		<g>
			<path fill-rule="evenodd" clip-rule="evenodd" fill="#FFFFFF" d="M189.65,396.83c1.2,0,2.39,0,3.59,0c0,1.2,0,2.39,0,3.59     c-1.2,0-2.39,0-3.59,0C189.65,399.23,189.65,398.03,189.65,396.83z"/>
			<path fill-rule="evenodd" clip-rule="evenodd" fill="#FFFFFF" d="M189.73,389.41c1.14,0,2.29,0,3.43,0c0,1.14,0,2.29,0,3.43     c-1.14,0-2.29,0-3.43,0C189.73,391.7,189.73,390.56,189.73,389.41z"/>
			<path fill-rule="evenodd" clip-rule="evenodd" fill="#FFFFFF" d="M189.81,382c1.09,0,2.18,0,3.28,0c0,1.09,0,2.18,0,3.28     c-1.09,0-2.18,0-3.28,0C189.81,384.18,189.81,383.09,189.81,382z"/>
			<path fill-rule="evenodd" clip-rule="evenodd" fill="#FFFFFF" d="M189.89,374.58c1.04,0,2.08,0,3.12,0c0,1.04,0,2.08,0,3.12     c-1.04,0-2.08,0-3.12,0C189.89,376.65,189.89,375.62,189.89,374.58z"/>
			<path fill-rule="evenodd" clip-rule="evenodd" fill="#FFFFFF" d="M189.97,367.16c0.99,0,1.97,0,2.96,0c0,0.99,0,1.97,0,2.96     c-0.99,0-1.97,0-2.96,0C189.97,369.13,189.97,368.14,189.97,367.16z"/>
			<path fill-rule="evenodd" clip-rule="evenodd" fill="#FFFFFF" d="M190.04,359.74c0.93,0,1.87,0,2.8,0c0,0.93,0,1.87,0,2.8     c-0.93,0-1.87,0-2.8,0C190.04,361.61,190.04,360.67,190.04,359.74z"/>
			<path fill-rule="evenodd" clip-rule="evenodd" fill="#FFFFFF" d="M190.12,352.32c0.88,0,1.76,0,2.64,0c0,0.88,0,1.76,0,2.64     c-0.88,0-1.76,0-2.64,0C190.12,354.08,190.12,353.2,190.12,352.32z"/>
			<path fill-rule="evenodd" clip-rule="evenodd" fill="#FFFFFF" d="M190.2,344.9c0.83,0,1.66,0,2.48,0c0,0.83,0,1.66,0,2.48     c-0.83,0-1.66,0-2.48,0C190.2,346.56,190.2,345.73,190.2,344.9z"/>
			<path fill-rule="evenodd" clip-rule="evenodd" fill="#FFFFFF" d="M190.28,337.48c0.78,0,1.55,0,2.33,0c0,0.78,0,1.55,0,2.33     c-0.78,0-1.55,0-2.33,0C190.28,339.03,190.28,338.26,190.28,337.48z"/>
			<circle fill-rule="evenodd" clip-rule="evenodd" fill="#FFFFFF" cx="191.45" cy="331.15" r="1.53"/>
			<path fill-rule="evenodd" clip-rule="evenodd" fill="#FFFFFF" d="M190.44,322.64c0.67,0,1.34,0,2.01,0c0,0.67,0,1.34,0,2.01     c-0.67,0-1.34,0-2.01,0C190.44,323.98,190.44,323.31,190.44,322.64z"/>
			<circle fill-rule="evenodd" clip-rule="evenodd" fill="#FFFFFF" cx="191.45" cy="316.15" r="1.31"/>
			<path fill-rule="evenodd" clip-rule="evenodd" fill="#FFFFFF" d="M190.6,307.8c0.56,0,1.13,0,1.69,0c0,0.56,0,1.13,0,1.69     c-0.57,0-1.13,0-1.69,0C190.6,308.93,190.6,308.37,190.6,307.8z"/>
			<path fill-rule="evenodd" clip-rule="evenodd" fill="#FFFFFF" d="M190.68,300.39c0.51,0,1.02,0,1.54,0c0,0.51,0,1.02,0,1.54     c-0.51,0-1.02,0-1.54,0C190.68,301.41,190.68,300.9,190.68,300.39z"/>
			<path fill-rule="evenodd" clip-rule="evenodd" fill="#FFFFFF" d="M190.76,292.97c0.46,0,0.92,0,1.38,0c0,0.46,0,0.92,0,1.38     c-0.46,0-0.92,0-1.38,0C190.76,293.89,190.76,293.43,190.76,292.97z"/>
			<path fill-rule="evenodd" clip-rule="evenodd" fill="#FFFFFF" d="M190.84,285.55c0.41,0,0.81,0,1.22,0c0,0.41,0,0.81,0,1.22     c-0.41,0-0.81,0-1.22,0C190.84,286.36,190.84,285.95,190.84,285.55z"/>
		</g>
		<rect x="190.91" y="278.13" fill-rule="evenodd" clip-rule="evenodd" fill="#FFFFFF" width="1.06" height="1.06"/>
		<g>
			<path fill-rule="evenodd" clip-rule="evenodd" fill="#FFFFFF" d="M193.4,400.58c1.2,0,2.39,0,3.59,0c0,1.2,0,2.39,0,3.59     c-1.2,0-2.39,0-3.59,0C193.4,402.98,193.4,401.78,193.4,400.58z"/>
			<path fill-rule="evenodd" clip-rule="evenodd" fill="#FFFFFF" d="M193.48,393.16c1.14,0,2.29,0,3.43,0c0,1.14,0,2.29,0,3.43     c-1.14,0-2.29,0-3.43,0C193.48,395.45,193.48,394.31,193.48,393.16z"/>
			<path fill-rule="evenodd" clip-rule="evenodd" fill="#FFFFFF" d="M193.56,385.75c1.09,0,2.18,0,3.28,0c0,1.09,0,2.18,0,3.27     c-1.09,0-2.18,0-3.28,0C193.56,387.93,193.56,386.84,193.56,385.75z"/>
			<path fill-rule="evenodd" clip-rule="evenodd" fill="#FFFFFF" d="M193.64,378.33c1.04,0,2.08,0,3.12,0c0,1.04,0,2.08,0,3.12     c-1.04,0-2.08,0-3.12,0C193.64,380.4,193.64,379.36,193.64,378.33z"/>
			<path fill-rule="evenodd" clip-rule="evenodd" fill="#FFFFFF" d="M193.72,370.91c0.99,0,1.97,0,2.96,0c0,0.99,0,1.97,0,2.96     c-0.99,0-1.97,0-2.96,0C193.72,372.88,193.72,371.89,193.72,370.91z"/>
			<path fill-rule="evenodd" clip-rule="evenodd" fill="#FFFFFF" d="M193.79,363.49c0.93,0,1.87,0,2.8,0c0,0.93,0,1.87,0,2.8     c-0.93,0-1.87,0-2.8,0C193.79,365.35,193.79,364.42,193.79,363.49z"/>
			<path fill-rule="evenodd" clip-rule="evenodd" fill="#FFFFFF" d="M193.87,356.07c0.88,0,1.76,0,2.64,0c0,0.88,0,1.76,0,2.64     c-0.88,0-1.76,0-2.64,0C193.87,357.83,193.87,356.95,193.87,356.07z"/>
			<path fill-rule="evenodd" clip-rule="evenodd" fill="#FFFFFF" d="M193.95,348.65c0.83,0,1.66,0,2.48,0c0,0.83,0,1.66,0,2.48     c-0.83,0-1.66,0-2.48,0C193.95,350.31,193.95,349.48,193.95,348.65z"/>
			<path fill-rule="evenodd" clip-rule="evenodd" fill="#FFFFFF" d="M194.03,341.23c0.78,0,1.55,0,2.33,0c0,0.78,0,1.55,0,2.33     c-0.78,0-1.55,0-2.33,0C194.03,342.78,194.03,342.01,194.03,341.23z"/>
			<path fill-rule="evenodd" clip-rule="evenodd" fill="#FFFFFF" d="M194.11,333.81c0.72,0,1.45,0,2.17,0c0,0.72,0,1.45,0,2.17     c-0.72,0-1.45,0-2.17,0C194.11,335.26,194.11,334.53,194.11,333.81z"/>
			<path fill-rule="evenodd" clip-rule="evenodd" fill="#FFFFFF" d="M194.19,326.39c0.67,0,1.34,0,2.01,0c0,0.67,0,1.34,0,2.01     c-0.67,0-1.34,0-2.01,0C194.19,327.73,194.19,327.06,194.19,326.39z"/>
			<circle fill-rule="evenodd" clip-rule="evenodd" fill="#FFFFFF" cx="195.19" cy="319.9" r="1.31"/>
			<path fill-rule="evenodd" clip-rule="evenodd" fill="#FFFFFF" d="M194.35,311.55c0.56,0,1.13,0,1.69,0c0,0.57,0,1.13,0,1.69     c-0.57,0-1.13,0-1.69,0C194.35,312.68,194.35,312.12,194.35,311.55z"/>
			<path fill-rule="evenodd" clip-rule="evenodd" fill="#FFFFFF" d="M194.43,304.13c0.51,0,1.02,0,1.54,0c0,0.51,0,1.02,0,1.54     c-0.51,0-1.02,0-1.54,0C194.43,305.16,194.43,304.65,194.43,304.13z"/>
			<path fill-rule="evenodd" clip-rule="evenodd" fill="#FFFFFF" d="M194.51,296.72c0.46,0,0.92,0,1.38,0c0,0.46,0,0.92,0,1.38     c-0.46,0-0.92,0-1.38,0C194.51,297.63,194.51,297.18,194.51,296.72z"/>
			<path fill-rule="evenodd" clip-rule="evenodd" fill="#FFFFFF" d="M194.58,289.3c0.41,0,0.81,0,1.22,0c0,0.41,0,0.81,0,1.22     c-0.41,0-0.81,0-1.22,0C194.58,290.11,194.58,289.7,194.58,289.3z"/>
		</g>
		<rect x="194.66" y="281.88" fill-rule="evenodd" clip-rule="evenodd" fill="#FFFFFF" width="1.06" height="1.06"/>
		<path fill-rule="evenodd" clip-rule="evenodd" fill="#FFFFFF" d="M215.81,408h3.75v2.81c-1.25,0.07-2.5,0.14-3.75,0.2V408z"/>
		<rect x="219.56" y="404.25" fill-rule="evenodd" clip-rule="evenodd" fill="#FFFFFF" width="3.75" height="3.75"/>
		<path fill-rule="evenodd" clip-rule="evenodd" fill="#FFFFFF" d="M223.31,408h3.75v2.33c-1.25,0.09-2.5,0.17-3.75,0.25V408z"/>
		<rect x="227.06" y="404.25" fill-rule="evenodd" clip-rule="evenodd" fill="#FFFFFF" width="3.75" height="3.75"/>
		<path fill-rule="evenodd" clip-rule="evenodd" fill="#FFFFFF" d="M230.81,408h3.75v1.76c-1.25,0.1-2.5,0.2-3.75,0.3V408z"/>
		<g>
			<circle fill-rule="evenodd" clip-rule="evenodd" fill="#FFFFFF" cx="217.69" cy="402.38" r="2.54"/>
			<path fill-rule="evenodd" clip-rule="evenodd" fill="#FFFFFF" d="M215.97,393.16c1.14,0,2.29,0,3.43,0c0,1.14,0,2.29,0,3.43     c-1.14,0-2.29,0-3.43,0C215.97,395.45,215.97,394.31,215.97,393.16z"/>
			<circle fill-rule="evenodd" clip-rule="evenodd" fill="#FFFFFF" cx="217.69" cy="387.38" r="2.32"/>
			<path fill-rule="evenodd" clip-rule="evenodd" fill="#FFFFFF" d="M216.13,378.33c1.04,0,2.08,0,3.12,0c0,1.04,0,2.08,0,3.12     c-1.04,0-2.08,0-3.12,0C216.13,380.4,216.13,379.36,216.13,378.33z"/>
			<path fill-rule="evenodd" clip-rule="evenodd" fill="#FFFFFF" d="M216.21,370.91c0.99,0,1.97,0,2.96,0c0,0.99,0,1.97,0,2.96     c-0.99,0-1.97,0-2.96,0C216.21,372.88,216.21,371.89,216.21,370.91z"/>
			<path fill-rule="evenodd" clip-rule="evenodd" fill="#FFFFFF" d="M216.29,363.49c0.93,0,1.87,0,2.8,0c0,0.93,0,1.87,0,2.8     c-0.93,0-1.87,0-2.8,0C216.29,365.35,216.29,364.42,216.29,363.49z"/>
			<path fill-rule="evenodd" clip-rule="evenodd" fill="#FFFFFF" d="M216.36,356.07c0.88,0,1.76,0,2.64,0c0,0.88,0,1.76,0,2.64     c-0.88,0-1.76,0-2.64,0C216.36,357.83,216.36,356.95,216.36,356.07z"/>
			<path fill-rule="evenodd" clip-rule="evenodd" fill="#FFFFFF" d="M216.44,348.65c0.83,0,1.66,0,2.48,0c0,0.83,0,1.66,0,2.48     c-0.83,0-1.66,0-2.48,0C216.44,350.31,216.44,349.48,216.44,348.65z"/>
			<path fill-rule="evenodd" clip-rule="evenodd" fill="#FFFFFF" d="M216.52,341.23c0.78,0,1.55,0,2.33,0c0,0.78,0,1.55,0,2.33     c-0.78,0-1.55,0-2.33,0C216.52,342.78,216.52,342.01,216.52,341.23z"/>
			<path fill-rule="evenodd" clip-rule="evenodd" fill="#FFFFFF" d="M216.6,333.81c0.72,0,1.45,0,2.17,0c0,0.72,0,1.45,0,2.17     c-0.72,0-1.45,0-2.17,0C216.6,335.26,216.6,334.53,216.6,333.81z"/>
			<path fill-rule="evenodd" clip-rule="evenodd" fill="#FFFFFF" d="M216.68,326.39c0.67,0,1.34,0,2.01,0c0,0.67,0,1.34,0,2.01     c-0.67,0-1.34,0-2.01,0C216.68,327.73,216.68,327.06,216.68,326.39z"/>
			<path fill-rule="evenodd" clip-rule="evenodd" fill="#FFFFFF" d="M216.76,318.97c0.62,0,1.24,0,1.85,0c0,0.62,0,1.23,0,1.85     c-0.62,0-1.24,0-1.85,0C216.76,320.21,216.76,319.59,216.76,318.97z"/>
			<path fill-rule="evenodd" clip-rule="evenodd" fill="#FFFFFF" d="M216.84,311.55c0.56,0,1.13,0,1.69,0c0,0.57,0,1.13,0,1.69     c-0.57,0-1.13,0-1.69,0C216.84,312.68,216.84,312.12,216.84,311.55z"/>
			<path fill-rule="evenodd" clip-rule="evenodd" fill="#FFFFFF" d="M216.92,304.13c0.51,0,1.02,0,1.54,0c0,0.51,0,1.02,0,1.54     c-0.51,0-1.02,0-1.54,0C216.92,305.16,216.92,304.65,216.92,304.13z"/>
			<path fill-rule="evenodd" clip-rule="evenodd" fill="#FFFFFF" d="M217,296.72c0.46,0,0.92,0,1.38,0c0,0.46,0,0.92,0,1.38     c-0.46,0-0.92,0-1.38,0C217,297.63,217,297.18,217,296.72z"/>
			<path fill-rule="evenodd" clip-rule="evenodd" fill="#FFFFFF" d="M217.08,289.3c0.41,0,0.81,0,1.22,0c0,0.41,0,0.81,0,1.22     c-0.41,0-0.81,0-1.22,0C217.08,290.11,217.08,289.7,217.08,289.3z"/>
		</g>
		<rect x="217.15" y="281.88" fill-rule="evenodd" clip-rule="evenodd" fill="#FFFFFF" width="1.06" height="1.06"/>
		<g>
			<path fill-rule="evenodd" clip-rule="evenodd" fill="#FFFFFF" d="M219.64,396.83c1.2,0,2.39,0,3.59,0c0,1.2,0,2.39,0,3.59     c-1.2,0-2.39,0-3.59,0C219.64,399.23,219.64,398.03,219.64,396.83z"/>
			<path fill-rule="evenodd" clip-rule="evenodd" fill="#FFFFFF" d="M219.72,389.41c1.14,0,2.29,0,3.43,0c0,1.14,0,2.29,0,3.43     c-1.14,0-2.29,0-3.43,0C219.72,391.7,219.72,390.56,219.72,389.41z"/>
			<path fill-rule="evenodd" clip-rule="evenodd" fill="#FFFFFF" d="M219.8,382c1.09,0,2.18,0,3.27,0c0,1.09,0,2.18,0,3.28     c-1.09,0-2.18,0-3.27,0C219.8,384.18,219.8,383.09,219.8,382z"/>
			<path fill-rule="evenodd" clip-rule="evenodd" fill="#FFFFFF" d="M219.88,374.58c1.04,0,2.08,0,3.12,0c0,1.04,0,2.08,0,3.12     c-1.04,0-2.08,0-3.12,0C219.88,376.65,219.88,375.62,219.88,374.58z"/>
			<path fill-rule="evenodd" clip-rule="evenodd" fill="#FFFFFF" d="M219.96,367.16c0.99,0,1.97,0,2.96,0c0,0.99,0,1.97,0,2.96     c-0.99,0-1.97,0-2.96,0C219.96,369.13,219.96,368.14,219.96,367.16z"/>
			<circle fill-rule="evenodd" clip-rule="evenodd" fill="#FFFFFF" cx="221.43" cy="361.14" r="1.98"/>
			<path fill-rule="evenodd" clip-rule="evenodd" fill="#FFFFFF" d="M220.11,352.32c0.88,0,1.76,0,2.64,0c0,0.88,0,1.76,0,2.64     c-0.88,0-1.76,0-2.64,0C220.11,354.08,220.11,353.2,220.11,352.32z"/>
			<path fill-rule="evenodd" clip-rule="evenodd" fill="#FFFFFF" d="M220.19,344.9c0.83,0,1.66,0,2.48,0c0,0.83,0,1.66,0,2.48     c-0.83,0-1.66,0-2.48,0C220.19,346.56,220.19,345.73,220.19,344.9z"/>
			<path fill-rule="evenodd" clip-rule="evenodd" fill="#FFFFFF" d="M220.27,337.48c0.78,0,1.55,0,2.33,0c0,0.78,0,1.55,0,2.33     c-0.78,0-1.55,0-2.33,0C220.27,339.03,220.27,338.26,220.27,337.48z"/>
			<path fill-rule="evenodd" clip-rule="evenodd" fill="#FFFFFF" d="M220.35,330.06c0.72,0,1.45,0,2.17,0c0,0.72,0,1.45,0,2.17     c-0.72,0-1.45,0-2.17,0C220.35,331.51,220.35,330.78,220.35,330.06z"/>
			<path fill-rule="evenodd" clip-rule="evenodd" fill="#FFFFFF" d="M220.43,322.64c0.67,0,1.34,0,2.01,0c0,0.67,0,1.34,0,2.01     c-0.67,0-1.34,0-2.01,0C220.43,323.98,220.43,323.31,220.43,322.64z"/>
			<path fill-rule="evenodd" clip-rule="evenodd" fill="#FFFFFF" d="M220.51,315.22c0.62,0,1.24,0,1.85,0c0,0.62,0,1.23,0,1.85     c-0.62,0-1.23,0-1.85,0C220.51,316.46,220.51,315.84,220.51,315.22z"/>
			<path fill-rule="evenodd" clip-rule="evenodd" fill="#FFFFFF" d="M220.59,307.8c0.56,0,1.13,0,1.69,0c0,0.56,0,1.13,0,1.69     c-0.56,0-1.13,0-1.69,0C220.59,308.93,220.59,308.37,220.59,307.8z"/>
			<path fill-rule="evenodd" clip-rule="evenodd" fill="#FFFFFF" d="M220.67,300.39c0.51,0,1.02,0,1.54,0c0,0.51,0,1.02,0,1.54     c-0.51,0-1.02,0-1.54,0C220.67,301.41,220.67,300.9,220.67,300.39z"/>
			<path fill-rule="evenodd" clip-rule="evenodd" fill="#FFFFFF" d="M220.75,292.97c0.46,0,0.92,0,1.38,0c0,0.46,0,0.92,0,1.38     c-0.46,0-0.92,0-1.38,0C220.75,293.89,220.75,293.43,220.75,292.97z"/>
			<path fill-rule="evenodd" clip-rule="evenodd" fill="#FFFFFF" d="M220.82,285.55c0.41,0,0.81,0,1.22,0c0,0.41,0,0.81,0,1.22     c-0.41,0-0.81,0-1.22,0C220.82,286.36,220.82,285.95,220.82,285.55z"/>
		</g>
		<rect x="220.9" y="278.13" fill-rule="evenodd" clip-rule="evenodd" fill="#FFFFFF" width="1.06" height="1.06"/>
		<g>
			<path fill-rule="evenodd" clip-rule="evenodd" fill="#FFFFFF" d="M223.39,400.58c1.2,0,2.39,0,3.59,0c0,1.2,0,2.39,0,3.59     c-1.2,0-2.39,0-3.59,0C223.39,402.98,223.39,401.78,223.39,400.58z"/>
			<path fill-rule="evenodd" clip-rule="evenodd" fill="#FFFFFF" d="M223.47,393.16c1.14,0,2.29,0,3.43,0c0,1.14,0,2.29,0,3.43     c-1.14,0-2.29,0-3.43,0C223.47,395.45,223.47,394.31,223.47,393.16z"/>
			<path fill-rule="evenodd" clip-rule="evenodd" fill="#FFFFFF" d="M223.55,385.75c1.09,0,2.18,0,3.28,0c0,1.09,0,2.18,0,3.27     c-1.09,0-2.18,0-3.28,0C223.55,387.93,223.55,386.84,223.55,385.75z"/>
			<path fill-rule="evenodd" clip-rule="evenodd" fill="#FFFFFF" d="M223.63,378.33c1.04,0,2.08,0,3.12,0c0,1.04,0,2.08,0,3.12     c-1.04,0-2.08,0-3.12,0C223.63,380.4,223.63,379.36,223.63,378.33z"/>
			<path fill-rule="evenodd" clip-rule="evenodd" fill="#FFFFFF" d="M223.7,370.91c0.99,0,1.97,0,2.96,0c0,0.99,0,1.97,0,2.96     c-0.99,0-1.97,0-2.96,0C223.7,372.88,223.7,371.89,223.7,370.91z"/>
			<path fill-rule="evenodd" clip-rule="evenodd" fill="#FFFFFF" d="M223.78,363.49c0.93,0,1.87,0,2.8,0c0,0.93,0,1.87,0,2.8     c-0.93,0-1.87,0-2.8,0C223.78,365.35,223.78,364.42,223.78,363.49z"/>
			<path fill-rule="evenodd" clip-rule="evenodd" fill="#FFFFFF" d="M223.86,356.07c0.88,0,1.76,0,2.64,0c0,0.88,0,1.76,0,2.64     c-0.88,0-1.76,0-2.64,0C223.86,357.83,223.86,356.95,223.86,356.07z"/>
			<path fill-rule="evenodd" clip-rule="evenodd" fill="#FFFFFF" d="M223.94,348.65c0.83,0,1.66,0,2.48,0c0,0.83,0,1.66,0,2.48     c-0.83,0-1.66,0-2.48,0C223.94,350.31,223.94,349.48,223.94,348.65z"/>
			<path fill-rule="evenodd" clip-rule="evenodd" fill="#FFFFFF" d="M224.02,341.23c0.78,0,1.55,0,2.33,0c0,0.78,0,1.55,0,2.33     c-0.78,0-1.55,0-2.33,0C224.02,342.78,224.02,342.01,224.02,341.23z"/>
			<path fill-rule="evenodd" clip-rule="evenodd" fill="#FFFFFF" d="M224.1,333.81c0.72,0,1.45,0,2.17,0c0,0.72,0,1.45,0,2.17     c-0.72,0-1.45,0-2.17,0C224.1,335.26,224.1,334.53,224.1,333.81z"/>
			<path fill-rule="evenodd" clip-rule="evenodd" fill="#FFFFFF" d="M224.18,326.39c0.67,0,1.34,0,2.01,0c0,0.67,0,1.34,0,2.01     c-0.67,0-1.34,0-2.01,0C224.18,327.73,224.18,327.06,224.18,326.39z"/>
			<circle fill-rule="evenodd" clip-rule="evenodd" fill="#FFFFFF" cx="225.18" cy="319.9" r="1.31"/>
			<path fill-rule="evenodd" clip-rule="evenodd" fill="#FFFFFF" d="M224.34,311.55c0.56,0,1.13,0,1.69,0c0,0.57,0,1.13,0,1.69     c-0.57,0-1.13,0-1.69,0C224.34,312.68,224.34,312.12,224.34,311.55z"/>
			<path fill-rule="evenodd" clip-rule="evenodd" fill="#FFFFFF" d="M224.42,304.13c0.51,0,1.02,0,1.54,0c0,0.51,0,1.02,0,1.54     c-0.51,0-1.02,0-1.54,0C224.42,305.16,224.42,304.65,224.42,304.13z"/>
			<path fill-rule="evenodd" clip-rule="evenodd" fill="#FFFFFF" d="M224.49,296.72c0.46,0,0.92,0,1.38,0c0,0.46,0,0.92,0,1.38     c-0.46,0-0.92,0-1.38,0C224.49,297.63,224.49,297.18,224.49,296.72z"/>
			<path fill-rule="evenodd" clip-rule="evenodd" fill="#FFFFFF" d="M224.57,289.3c0.41,0,0.81,0,1.22,0c0,0.41,0,0.81,0,1.22     c-0.41,0-0.81,0-1.22,0C224.57,290.11,224.57,289.7,224.57,289.3z"/>
		</g>
		<rect x="224.65" y="281.88" fill-rule="evenodd" clip-rule="evenodd" fill="#FFFFFF" width="1.06" height="1.06"/>
		<g>
			<path fill-rule="evenodd" clip-rule="evenodd" fill="#FFFFFF" d="M227.14,396.83c1.2,0,2.39,0,3.59,0c0,1.2,0,2.39,0,3.59     c-1.2,0-2.39,0-3.59,0C227.14,399.23,227.14,398.03,227.14,396.83z"/>
			<path fill-rule="evenodd" clip-rule="evenodd" fill="#FFFFFF" d="M227.22,389.41c1.14,0,2.29,0,3.43,0c0,1.14,0,2.29,0,3.43     c-1.14,0-2.29,0-3.43,0C227.22,391.7,227.22,390.56,227.22,389.41z"/>
			<path fill-rule="evenodd" clip-rule="evenodd" fill="#FFFFFF" d="M227.3,382c1.09,0,2.18,0,3.28,0c0,1.09,0,2.18,0,3.28     c-1.09,0-2.18,0-3.28,0C227.3,384.18,227.3,383.09,227.3,382z"/>
			<path fill-rule="evenodd" clip-rule="evenodd" fill="#FFFFFF" d="M227.37,374.58c1.04,0,2.08,0,3.12,0c0,1.04,0,2.08,0,3.12     c-1.04,0-2.08,0-3.12,0C227.37,376.65,227.37,375.62,227.37,374.58z"/>
			<path fill-rule="evenodd" clip-rule="evenodd" fill="#FFFFFF" d="M227.45,367.16c0.99,0,1.97,0,2.96,0c0,0.99,0,1.97,0,2.96     c-0.99,0-1.97,0-2.96,0C227.45,369.13,227.45,368.14,227.45,367.16z"/>
			<path fill-rule="evenodd" clip-rule="evenodd" fill="#FFFFFF" d="M227.53,359.74c0.93,0,1.87,0,2.8,0c0,0.93,0,1.87,0,2.8     c-0.93,0-1.87,0-2.8,0C227.53,361.61,227.53,360.67,227.53,359.74z"/>
			<path fill-rule="evenodd" clip-rule="evenodd" fill="#FFFFFF" d="M227.61,352.32c0.88,0,1.76,0,2.64,0c0,0.88,0,1.76,0,2.64     c-0.88,0-1.76,0-2.64,0C227.61,354.08,227.61,353.2,227.61,352.32z"/>
			<path fill-rule="evenodd" clip-rule="evenodd" fill="#FFFFFF" d="M227.69,344.9c0.83,0,1.66,0,2.48,0c0,0.83,0,1.66,0,2.48     c-0.83,0-1.66,0-2.48,0C227.69,346.56,227.69,345.73,227.69,344.9z"/>
			<path fill-rule="evenodd" clip-rule="evenodd" fill="#FFFFFF" d="M227.77,337.48c0.78,0,1.55,0,2.33,0c0,0.78,0,1.55,0,2.33     c-0.78,0-1.55,0-2.33,0C227.77,339.03,227.77,338.26,227.77,337.48z"/>
			<path fill-rule="evenodd" clip-rule="evenodd" fill="#FFFFFF" d="M227.85,330.06c0.72,0,1.45,0,2.17,0c0,0.72,0,1.45,0,2.17     c-0.72,0-1.45,0-2.17,0C227.85,331.51,227.85,330.78,227.85,330.06z"/>
			<path fill-rule="evenodd" clip-rule="evenodd" fill="#FFFFFF" d="M227.93,322.64c0.67,0,1.34,0,2.01,0c0,0.67,0,1.34,0,2.01     c-0.67,0-1.34,0-2.01,0C227.93,323.98,227.93,323.31,227.93,322.64z"/>
			<circle fill-rule="evenodd" clip-rule="evenodd" fill="#FFFFFF" cx="228.93" cy="316.15" r="1.31"/>
			<path fill-rule="evenodd" clip-rule="evenodd" fill="#FFFFFF" d="M228.09,307.8c0.56,0,1.13,0,1.69,0c0,0.56,0,1.13,0,1.69     c-0.57,0-1.13,0-1.69,0C228.09,308.93,228.09,308.37,228.09,307.8z"/>
			<path fill-rule="evenodd" clip-rule="evenodd" fill="#FFFFFF" d="M228.16,300.39c0.51,0,1.02,0,1.54,0c0,0.51,0,1.02,0,1.54     c-0.51,0-1.02,0-1.54,0C228.16,301.41,228.16,300.9,228.16,300.39z"/>
			<path fill-rule="evenodd" clip-rule="evenodd" fill="#FFFFFF" d="M228.24,292.97c0.46,0,0.92,0,1.38,0c0,0.46,0,0.92,0,1.38     c-0.46,0-0.92,0-1.38,0C228.24,293.89,228.24,293.43,228.24,292.97z"/>
			<path fill-rule="evenodd" clip-rule="evenodd" fill="#FFFFFF" d="M228.32,285.55c0.41,0,0.81,0,1.22,0c0,0.41,0,0.81,0,1.22     c-0.41,0-0.81,0-1.22,0C228.32,286.36,228.32,285.95,228.32,285.55z"/>
		</g>
		<rect x="228.4" y="278.13" fill-rule="evenodd" clip-rule="evenodd" fill="#FFFFFF" width="1.06" height="1.06"/>
		<g>
			<path fill-rule="evenodd" clip-rule="evenodd" fill="#FFFFFF" d="M230.89,400.58c1.2,0,2.39,0,3.59,0c0,1.2,0,2.39,0,3.59     c-1.2,0-2.39,0-3.59,0C230.89,402.98,230.89,401.78,230.89,400.58z"/>
			<path fill-rule="evenodd" clip-rule="evenodd" fill="#FFFFFF" d="M230.97,393.16c1.14,0,2.29,0,3.43,0c0,1.14,0,2.29,0,3.43     c-1.14,0-2.29,0-3.43,0C230.97,395.45,230.97,394.31,230.97,393.16z"/>
			<path fill-rule="evenodd" clip-rule="evenodd" fill="#FFFFFF" d="M231.04,385.75c1.09,0,2.18,0,3.28,0c0,1.09,0,2.18,0,3.27     c-1.09,0-2.18,0-3.28,0C231.04,387.93,231.04,386.84,231.04,385.75z"/>
			<path fill-rule="evenodd" clip-rule="evenodd" fill="#FFFFFF" d="M231.12,378.33c1.04,0,2.08,0,3.12,0c0,1.04,0,2.08,0,3.12     c-1.04,0-2.08,0-3.12,0C231.12,380.4,231.12,379.36,231.12,378.33z"/>
			<path fill-rule="evenodd" clip-rule="evenodd" fill="#FFFFFF" d="M231.2,370.91c0.99,0,1.97,0,2.96,0c0,0.99,0,1.97,0,2.96     c-0.99,0-1.97,0-2.96,0C231.2,372.88,231.2,371.89,231.2,370.91z"/>
			<path fill-rule="evenodd" clip-rule="evenodd" fill="#FFFFFF" d="M231.28,363.49c0.93,0,1.87,0,2.8,0c0,0.93,0,1.87,0,2.8     c-0.93,0-1.87,0-2.8,0C231.28,365.35,231.28,364.42,231.28,363.49z"/>
			<path fill-rule="evenodd" clip-rule="evenodd" fill="#FFFFFF" d="M231.36,356.07c0.88,0,1.76,0,2.64,0c0,0.88,0,1.76,0,2.64     c-0.88,0-1.76,0-2.64,0C231.36,357.83,231.36,356.95,231.36,356.07z"/>
			<path fill-rule="evenodd" clip-rule="evenodd" fill="#FFFFFF" d="M231.44,348.65c0.83,0,1.66,0,2.48,0c0,0.83,0,1.66,0,2.48     c-0.83,0-1.66,0-2.48,0C231.44,350.31,231.44,349.48,231.44,348.65z"/>
			<path fill-rule="evenodd" clip-rule="evenodd" fill="#FFFFFF" d="M231.52,341.23c0.78,0,1.55,0,2.33,0c0,0.78,0,1.55,0,2.33     c-0.78,0-1.55,0-2.33,0C231.52,342.78,231.52,342.01,231.52,341.23z"/>
			<path fill-rule="evenodd" clip-rule="evenodd" fill="#FFFFFF" d="M231.6,333.81c0.72,0,1.45,0,2.17,0c0,0.72,0,1.45,0,2.17     c-0.72,0-1.45,0-2.17,0C231.6,335.26,231.6,334.53,231.6,333.81z"/>
			<path fill-rule="evenodd" clip-rule="evenodd" fill="#FFFFFF" d="M231.68,326.39c0.67,0,1.34,0,2.01,0c0,0.67,0,1.34,0,2.01     c-0.67,0-1.34,0-2.01,0C231.68,327.73,231.68,327.06,231.68,326.39z"/>
			<circle fill-rule="evenodd" clip-rule="evenodd" fill="#FFFFFF" cx="232.68" cy="319.9" r="1.31"/>
			<path fill-rule="evenodd" clip-rule="evenodd" fill="#FFFFFF" d="M231.83,311.55c0.56,0,1.13,0,1.69,0c0,0.57,0,1.13,0,1.69     c-0.57,0-1.13,0-1.69,0C231.83,312.68,231.83,312.12,231.83,311.55z"/>
			<path fill-rule="evenodd" clip-rule="evenodd" fill="#FFFFFF" d="M231.91,304.13c0.51,0,1.02,0,1.54,0c0,0.51,0,1.02,0,1.54     c-0.51,0-1.02,0-1.54,0C231.91,305.16,231.91,304.65,231.91,304.13z"/>
			<path fill-rule="evenodd" clip-rule="evenodd" fill="#FFFFFF" d="M231.99,296.72c0.46,0,0.92,0,1.38,0c0,0.46,0,0.92,0,1.38     c-0.46,0-0.92,0-1.38,0C231.99,297.63,231.99,297.18,231.99,296.72z"/>
			<path fill-rule="evenodd" clip-rule="evenodd" fill="#FFFFFF" d="M232.07,289.3c0.41,0,0.81,0,1.22,0c0,0.41,0,0.81,0,1.22     c-0.41,0-0.81,0-1.22,0C232.07,290.11,232.07,289.7,232.07,289.3z"/>
		</g>
		<rect x="232.15" y="281.88" fill-rule="evenodd" clip-rule="evenodd" fill="#FFFFFF" width="1.06" height="1.06"/>
		<path fill-rule="evenodd" clip-rule="evenodd" fill="#FFFFFF" d="M140.84,408h3.75v2.06c-1.25-0.1-2.5-0.2-3.75-0.3V408z"/>
		<rect x="144.59" y="404.25" fill-rule="evenodd" clip-rule="evenodd" fill="#FFFFFF" width="3.75" height="3.75"/>
		<path fill-rule="evenodd" clip-rule="evenodd" fill="#FFFFFF" d="M148.33,408h3.75v2.59c-1.25-0.08-2.5-0.16-3.75-0.25V408z"/>
		<rect x="152.08" y="404.25" fill-rule="evenodd" clip-rule="evenodd" fill="#FFFFFF" width="3.75" height="3.75"/>
		<path fill-rule="evenodd" clip-rule="evenodd" fill="#FFFFFF" d="M155.83,408h3.75v3.02c-1.25-0.06-2.5-0.13-3.75-0.2V408z"/>
		<g>
			<circle fill-rule="evenodd" clip-rule="evenodd" fill="#FFFFFF" cx="142.71" cy="402.38" r="2.54"/>
			<path fill-rule="evenodd" clip-rule="evenodd" fill="#FFFFFF" d="M140.99,393.16c1.14,0,2.29,0,3.43,0c0,1.14,0,2.29,0,3.43     c-1.14,0-2.29,0-3.43,0C140.99,395.45,140.99,394.31,140.99,393.16z"/>
			<circle fill-rule="evenodd" clip-rule="evenodd" fill="#FFFFFF" cx="142.71" cy="387.38" r="2.32"/>
			<path fill-rule="evenodd" clip-rule="evenodd" fill="#FFFFFF" d="M141.15,378.33c1.04,0,2.08,0,3.12,0c0,1.04,0,2.08,0,3.12     c-1.04,0-2.08,0-3.12,0C141.15,380.4,141.15,379.36,141.15,378.33z"/>
			<path fill-rule="evenodd" clip-rule="evenodd" fill="#FFFFFF" d="M141.23,370.91c0.99,0,1.97,0,2.96,0c0,0.99,0,1.97,0,2.96     c-0.99,0-1.97,0-2.96,0C141.23,372.88,141.23,371.89,141.23,370.91z"/>
			<path fill-rule="evenodd" clip-rule="evenodd" fill="#FFFFFF" d="M141.31,363.49c0.93,0,1.87,0,2.8,0c0,0.93,0,1.87,0,2.8     c-0.93,0-1.87,0-2.8,0C141.31,365.35,141.31,364.42,141.31,363.49z"/>
			<path fill-rule="evenodd" clip-rule="evenodd" fill="#FFFFFF" d="M141.39,356.07c0.88,0,1.76,0,2.64,0c0,0.88,0,1.76,0,2.64     c-0.88,0-1.76,0-2.64,0C141.39,357.83,141.39,356.95,141.39,356.07z"/>
			<path fill-rule="evenodd" clip-rule="evenodd" fill="#FFFFFF" d="M141.47,348.65c0.83,0,1.66,0,2.48,0c0,0.83,0,1.66,0,2.48     c-0.83,0-1.66,0-2.48,0C141.47,350.31,141.47,349.48,141.47,348.65z"/>
			<path fill-rule="evenodd" clip-rule="evenodd" fill="#FFFFFF" d="M141.55,341.23c0.78,0,1.55,0,2.33,0c0,0.78,0,1.55,0,2.33     c-0.78,0-1.55,0-2.33,0C141.55,342.78,141.55,342.01,141.55,341.23z"/>
			<path fill-rule="evenodd" clip-rule="evenodd" fill="#FFFFFF" d="M141.63,333.81c0.72,0,1.45,0,2.17,0c0,0.72,0,1.45,0,2.17     c-0.72,0-1.45,0-2.17,0C141.63,335.26,141.63,334.53,141.63,333.81z"/>
			<path fill-rule="evenodd" clip-rule="evenodd" fill="#FFFFFF" d="M141.71,326.39c0.67,0,1.34,0,2.01,0c0,0.67,0,1.34,0,2.01     c-0.67,0-1.34,0-2.01,0C141.71,327.73,141.71,327.06,141.71,326.39z"/>
			<path fill-rule="evenodd" clip-rule="evenodd" fill="#FFFFFF" d="M141.78,318.97c0.62,0,1.24,0,1.85,0c0,0.62,0,1.23,0,1.85     c-0.62,0-1.24,0-1.85,0C141.78,320.21,141.78,319.59,141.78,318.97z"/>
			<path fill-rule="evenodd" clip-rule="evenodd" fill="#FFFFFF" d="M141.86,311.55c0.56,0,1.13,0,1.69,0c0,0.57,0,1.13,0,1.69     c-0.57,0-1.13,0-1.69,0C141.86,312.68,141.86,312.12,141.86,311.55z"/>
			<path fill-rule="evenodd" clip-rule="evenodd" fill="#FFFFFF" d="M141.94,304.13c0.51,0,1.02,0,1.54,0c0,0.51,0,1.02,0,1.54     c-0.51,0-1.02,0-1.54,0C141.94,305.16,141.94,304.65,141.94,304.13z"/>
			<path fill-rule="evenodd" clip-rule="evenodd" fill="#FFFFFF" d="M142.02,296.72c0.46,0,0.92,0,1.38,0c0,0.46,0,0.92,0,1.38     c-0.46,0-0.92,0-1.38,0C142.02,297.63,142.02,297.18,142.02,296.72z"/>
			<path fill-rule="evenodd" clip-rule="evenodd" fill="#FFFFFF" d="M142.1,289.3c0.41,0,0.81,0,1.22,0c0,0.41,0,0.81,0,1.22     c-0.41,0-0.81,0-1.22,0C142.1,290.11,142.1,289.7,142.1,289.3z"/>
		</g>
		<rect x="142.18" y="281.88" fill-rule="evenodd" clip-rule="evenodd" fill="#FFFFFF" width="1.06" height="1.06"/>
		<g>
			<path fill-rule="evenodd" clip-rule="evenodd" fill="#FFFFFF" d="M144.66,396.83c1.2,0,2.39,0,3.59,0c0,1.2,0,2.39,0,3.59     c-1.2,0-2.39,0-3.59,0C144.66,399.23,144.66,398.03,144.66,396.83z"/>
			<path fill-rule="evenodd" clip-rule="evenodd" fill="#FFFFFF" d="M144.74,389.41c1.14,0,2.29,0,3.43,0c0,1.14,0,2.29,0,3.43     c-1.14,0-2.29,0-3.43,0C144.74,391.7,144.74,390.56,144.74,389.41z"/>
			<path fill-rule="evenodd" clip-rule="evenodd" fill="#FFFFFF" d="M144.82,382c1.09,0,2.18,0,3.28,0c0,1.09,0,2.18,0,3.28     c-1.09,0-2.18,0-3.28,0C144.82,384.18,144.82,383.09,144.82,382z"/>
			<path fill-rule="evenodd" clip-rule="evenodd" fill="#FFFFFF" d="M144.9,374.58c1.04,0,2.08,0,3.12,0c0,1.04,0,2.08,0,3.12     c-1.04,0-2.08,0-3.12,0C144.9,376.65,144.9,375.62,144.9,374.58z"/>
			<path fill-rule="evenodd" clip-rule="evenodd" fill="#FFFFFF" d="M144.98,367.16c0.99,0,1.97,0,2.96,0c0,0.99,0,1.97,0,2.96     c-0.99,0-1.97,0-2.96,0C144.98,369.13,144.98,368.14,144.98,367.16z"/>
			<circle fill-rule="evenodd" clip-rule="evenodd" fill="#FFFFFF" cx="146.46" cy="361.14" r="1.98"/>
			<path fill-rule="evenodd" clip-rule="evenodd" fill="#FFFFFF" d="M145.14,352.32c0.88,0,1.76,0,2.64,0c0,0.88,0,1.76,0,2.64     c-0.88,0-1.76,0-2.64,0C145.14,354.08,145.14,353.2,145.14,352.32z"/>
			<path fill-rule="evenodd" clip-rule="evenodd" fill="#FFFFFF" d="M145.22,344.9c0.83,0,1.66,0,2.48,0c0,0.83,0,1.66,0,2.48     c-0.83,0-1.66,0-2.48,0C145.22,346.56,145.22,345.73,145.22,344.9z"/>
			<path fill-rule="evenodd" clip-rule="evenodd" fill="#FFFFFF" d="M145.3,337.48c0.78,0,1.55,0,2.33,0c0,0.78,0,1.55,0,2.33     c-0.78,0-1.55,0-2.33,0C145.3,339.03,145.3,338.26,145.3,337.48z"/>
			<path fill-rule="evenodd" clip-rule="evenodd" fill="#FFFFFF" d="M145.38,330.06c0.72,0,1.45,0,2.17,0c0,0.72,0,1.45,0,2.17     c-0.72,0-1.45,0-2.17,0C145.38,331.51,145.38,330.78,145.38,330.06z"/>
			<path fill-rule="evenodd" clip-rule="evenodd" fill="#FFFFFF" d="M145.45,322.64c0.67,0,1.34,0,2.01,0c0,0.67,0,1.34,0,2.01     c-0.67,0-1.34,0-2.01,0C145.45,323.98,145.45,323.31,145.45,322.64z"/>
			<path fill-rule="evenodd" clip-rule="evenodd" fill="#FFFFFF" d="M145.53,315.22c0.62,0,1.24,0,1.85,0c0,0.62,0,1.23,0,1.85     c-0.62,0-1.23,0-1.85,0C145.53,316.46,145.53,315.84,145.53,315.22z"/>
			<path fill-rule="evenodd" clip-rule="evenodd" fill="#FFFFFF" d="M145.61,307.8c0.56,0,1.13,0,1.69,0c0,0.56,0,1.13,0,1.69     c-0.56,0-1.13,0-1.69,0C145.61,308.93,145.61,308.37,145.61,307.8z"/>
			<path fill-rule="evenodd" clip-rule="evenodd" fill="#FFFFFF" d="M145.69,300.39c0.51,0,1.02,0,1.54,0c0,0.51,0,1.02,0,1.54     c-0.51,0-1.02,0-1.54,0C145.69,301.41,145.69,300.9,145.69,300.39z"/>
			<path fill-rule="evenodd" clip-rule="evenodd" fill="#FFFFFF" d="M145.77,292.97c0.46,0,0.92,0,1.38,0c0,0.46,0,0.92,0,1.38     c-0.46,0-0.92,0-1.38,0C145.77,293.89,145.77,293.43,145.77,292.97z"/>
			<path fill-rule="evenodd" clip-rule="evenodd" fill="#FFFFFF" d="M145.85,285.55c0.41,0,0.81,0,1.22,0c0,0.41,0,0.81,0,1.22     c-0.41,0-0.81,0-1.22,0C145.85,286.36,145.85,285.95,145.85,285.55z"/>
		</g>
		<rect x="145.93" y="278.13" fill-rule="evenodd" clip-rule="evenodd" fill="#FFFFFF" width="1.06" height="1.06"/>
		<g>
			<path fill-rule="evenodd" clip-rule="evenodd" fill="#FFFFFF" d="M148.41,400.58c1.2,0,2.39,0,3.59,0c0,1.2,0,2.39,0,3.59     c-1.2,0-2.39,0-3.59,0C148.41,402.98,148.41,401.78,148.41,400.58z"/>
			<path fill-rule="evenodd" clip-rule="evenodd" fill="#FFFFFF" d="M148.49,393.16c1.14,0,2.29,0,3.43,0c0,1.14,0,2.29,0,3.43     c-1.14,0-2.29,0-3.43,0C148.49,395.45,148.49,394.31,148.49,393.16z"/>
			<path fill-rule="evenodd" clip-rule="evenodd" fill="#FFFFFF" d="M148.57,385.75c1.09,0,2.18,0,3.28,0c0,1.09,0,2.18,0,3.27     c-1.09,0-2.18,0-3.28,0C148.57,387.93,148.57,386.84,148.57,385.75z"/>
			<path fill-rule="evenodd" clip-rule="evenodd" fill="#FFFFFF" d="M148.65,378.33c1.04,0,2.08,0,3.12,0c0,1.04,0,2.08,0,3.12     c-1.04,0-2.08,0-3.12,0C148.65,380.4,148.65,379.36,148.65,378.33z"/>
			<path fill-rule="evenodd" clip-rule="evenodd" fill="#FFFFFF" d="M148.73,370.91c0.99,0,1.97,0,2.96,0c0,0.99,0,1.97,0,2.96     c-0.99,0-1.97,0-2.96,0C148.73,372.88,148.73,371.89,148.73,370.91z"/>
			<path fill-rule="evenodd" clip-rule="evenodd" fill="#FFFFFF" d="M148.81,363.49c0.93,0,1.87,0,2.8,0c0,0.93,0,1.87,0,2.8     c-0.93,0-1.87,0-2.8,0C148.81,365.35,148.81,364.42,148.81,363.49z"/>
			<path fill-rule="evenodd" clip-rule="evenodd" fill="#FFFFFF" d="M148.89,356.07c0.88,0,1.76,0,2.64,0c0,0.88,0,1.76,0,2.64     c-0.88,0-1.76,0-2.64,0C148.89,357.83,148.89,356.95,148.89,356.07z"/>
			<path fill-rule="evenodd" clip-rule="evenodd" fill="#FFFFFF" d="M148.97,348.65c0.83,0,1.66,0,2.48,0c0,0.83,0,1.66,0,2.48     c-0.83,0-1.66,0-2.48,0C148.97,350.31,148.97,349.48,148.97,348.65z"/>
			<path fill-rule="evenodd" clip-rule="evenodd" fill="#FFFFFF" d="M149.05,341.23c0.78,0,1.55,0,2.33,0c0,0.78,0,1.55,0,2.33     c-0.78,0-1.55,0-2.33,0C149.05,342.78,149.05,342.01,149.05,341.23z"/>
			<path fill-rule="evenodd" clip-rule="evenodd" fill="#FFFFFF" d="M149.12,333.81c0.72,0,1.45,0,2.17,0c0,0.72,0,1.45,0,2.17     c-0.72,0-1.45,0-2.17,0C149.12,335.26,149.12,334.53,149.12,333.81z"/>
			<path fill-rule="evenodd" clip-rule="evenodd" fill="#FFFFFF" d="M149.2,326.39c0.67,0,1.34,0,2.01,0c0,0.67,0,1.34,0,2.01     c-0.67,0-1.34,0-2.01,0C149.2,327.73,149.2,327.06,149.2,326.39z"/>
			<circle fill-rule="evenodd" clip-rule="evenodd" fill="#FFFFFF" cx="150.21" cy="319.9" r="1.31"/>
			<path fill-rule="evenodd" clip-rule="evenodd" fill="#FFFFFF" d="M149.36,311.55c0.56,0,1.13,0,1.69,0c0,0.57,0,1.13,0,1.69     c-0.57,0-1.13,0-1.69,0C149.36,312.68,149.36,312.12,149.36,311.55z"/>
			<path fill-rule="evenodd" clip-rule="evenodd" fill="#FFFFFF" d="M149.44,304.13c0.51,0,1.02,0,1.54,0c0,0.51,0,1.02,0,1.54     c-0.51,0-1.02,0-1.54,0C149.44,305.16,149.44,304.65,149.44,304.13z"/>
			<path fill-rule="evenodd" clip-rule="evenodd" fill="#FFFFFF" d="M149.52,296.72c0.46,0,0.92,0,1.38,0c0,0.46,0,0.92,0,1.38     c-0.46,0-0.92,0-1.38,0C149.52,297.63,149.52,297.18,149.52,296.72z"/>
			<path fill-rule="evenodd" clip-rule="evenodd" fill="#FFFFFF" d="M149.6,289.3c0.41,0,0.81,0,1.22,0c0,0.41,0,0.81,0,1.22     c-0.41,0-0.81,0-1.22,0C149.6,290.11,149.6,289.7,149.6,289.3z"/>
		</g>
		<rect x="149.68" y="281.88" fill-rule="evenodd" clip-rule="evenodd" fill="#FFFFFF" width="1.06" height="1.06"/>
		<g>
			<circle fill-rule="evenodd" clip-rule="evenodd" fill="#FFFFFF" cx="153.96" cy="398.63" r="2.54"/>
			<path fill-rule="evenodd" clip-rule="evenodd" fill="#FFFFFF" d="M152.24,389.41c1.14,0,2.29,0,3.43,0c0,1.14,0,2.29,0,3.43     c-1.14,0-2.29,0-3.43,0C152.24,391.7,152.24,390.56,152.24,389.41z"/>
			<path fill-rule="evenodd" clip-rule="evenodd" fill="#FFFFFF" d="M152.32,382c1.09,0,2.18,0,3.28,0c0,1.09,0,2.18,0,3.28     c-1.09,0-2.18,0-3.28,0C152.32,384.18,152.32,383.09,152.32,382z"/>
			<path fill-rule="evenodd" clip-rule="evenodd" fill="#FFFFFF" d="M152.4,374.58c1.04,0,2.08,0,3.12,0c0,1.04,0,2.08,0,3.12     c-1.04,0-2.08,0-3.12,0C152.4,376.65,152.4,375.62,152.4,374.58z"/>
			<path fill-rule="evenodd" clip-rule="evenodd" fill="#FFFFFF" d="M152.48,367.16c0.99,0,1.97,0,2.96,0c0,0.99,0,1.97,0,2.96     c-0.99,0-1.97,0-2.96,0C152.48,369.13,152.48,368.14,152.48,367.16z"/>
			<path fill-rule="evenodd" clip-rule="evenodd" fill="#FFFFFF" d="M152.56,359.74c0.93,0,1.87,0,2.8,0c0,0.93,0,1.87,0,2.8     c-0.93,0-1.87,0-2.8,0C152.56,361.61,152.56,360.67,152.56,359.74z"/>
			<path fill-rule="evenodd" clip-rule="evenodd" fill="#FFFFFF" d="M152.64,352.32c0.88,0,1.76,0,2.64,0c0,0.88,0,1.76,0,2.64     c-0.88,0-1.76,0-2.64,0C152.64,354.08,152.64,353.2,152.64,352.32z"/>
			<path fill-rule="evenodd" clip-rule="evenodd" fill="#FFFFFF" d="M152.72,344.9c0.83,0,1.66,0,2.48,0c0,0.83,0,1.66,0,2.48     c-0.83,0-1.66,0-2.48,0C152.72,346.56,152.72,345.73,152.72,344.9z"/>
			<path fill-rule="evenodd" clip-rule="evenodd" fill="#FFFFFF" d="M152.79,337.48c0.78,0,1.55,0,2.33,0c0,0.78,0,1.55,0,2.33     c-0.78,0-1.55,0-2.33,0C152.79,339.03,152.79,338.26,152.79,337.48z"/>
			<path fill-rule="evenodd" clip-rule="evenodd" fill="#FFFFFF" d="M152.87,330.06c0.72,0,1.45,0,2.17,0c0,0.72,0,1.45,0,2.17     c-0.72,0-1.45,0-2.17,0C152.87,331.51,152.87,330.78,152.87,330.06z"/>
			<circle fill-rule="evenodd" clip-rule="evenodd" fill="#FFFFFF" cx="153.96" cy="323.65" r="1.42"/>
			<circle fill-rule="evenodd" clip-rule="evenodd" fill="#FFFFFF" cx="153.96" cy="316.15" r="1.31"/>
			<path fill-rule="evenodd" clip-rule="evenodd" fill="#FFFFFF" d="M153.11,307.8c0.56,0,1.13,0,1.69,0c0,0.56,0,1.13,0,1.69     c-0.57,0-1.13,0-1.69,0C153.11,308.93,153.11,308.37,153.11,307.8z"/>
			<path fill-rule="evenodd" clip-rule="evenodd" fill="#FFFFFF" d="M153.19,300.39c0.51,0,1.02,0,1.54,0c0,0.51,0,1.02,0,1.54     c-0.51,0-1.02,0-1.54,0C153.19,301.41,153.19,300.9,153.19,300.39z"/>
			<path fill-rule="evenodd" clip-rule="evenodd" fill="#FFFFFF" d="M153.27,292.97c0.46,0,0.92,0,1.38,0c0,0.46,0,0.92,0,1.38     c-0.46,0-0.92,0-1.38,0C153.27,293.89,153.27,293.43,153.27,292.97z"/>
			<path fill-rule="evenodd" clip-rule="evenodd" fill="#FFFFFF" d="M153.35,285.55c0.41,0,0.81,0,1.22,0c0,0.41,0,0.81,0,1.22     c-0.41,0-0.81,0-1.22,0C153.35,286.36,153.35,285.95,153.35,285.55z"/>
		</g>
		<rect x="153.43" y="278.13" fill-rule="evenodd" clip-rule="evenodd" fill="#FFFFFF" width="1.06" height="1.06"/>
		<circle fill-rule="evenodd" clip-rule="evenodd" fill="#FFFFFF" cx="157.71" cy="402.38" r="2.54"/>
		<path fill-rule="evenodd" clip-rule="evenodd" fill="#FFFFFF" d="M155.99,393.16c1.14,0,2.29,0,3.43,0c0,1.14,0,2.29,0,3.43    c-1.14,0-2.29,0-3.43,0C155.99,395.45,155.99,394.31,155.99,393.16z"/>
		<circle fill-rule="evenodd" clip-rule="evenodd" fill="#FFFFFF" cx="157.71" cy="387.38" r="2.32"/>
		<path fill-rule="evenodd" clip-rule="evenodd" fill="#FFFFFF" d="M156.15,378.33c1.04,0,2.08,0,3.12,0c0,1.04,0,2.08,0,3.12    c-1.04,0-2.08,0-3.12,0C156.15,380.4,156.15,379.36,156.15,378.33z"/>
		<path fill-rule="evenodd" clip-rule="evenodd" fill="#FFFFFF" d="M156.23,370.91c0.99,0,1.97,0,2.96,0c0,0.99,0,1.97,0,2.96    c-0.99,0-1.97,0-2.96,0C156.23,372.88,156.23,371.89,156.23,370.91z"/>
		<path fill-rule="evenodd" clip-rule="evenodd" fill="#FFFFFF" d="M156.31,363.49c0.93,0,1.87,0,2.8,0c0,0.93,0,1.87,0,2.8    c-0.93,0-1.87,0-2.8,0C156.31,365.35,156.31,364.42,156.31,363.49z"/>
		<path fill-rule="evenodd" clip-rule="evenodd" fill="#FFFFFF" d="M156.39,356.07c0.88,0,1.76,0,2.64,0c0,0.88,0,1.76,0,2.64    c-0.88,0-1.76,0-2.64,0C156.39,357.83,156.39,356.95,156.39,356.07z"/>
		<path fill-rule="evenodd" clip-rule="evenodd" fill="#FFFFFF" d="M156.46,348.65c0.83,0,1.66,0,2.48,0c0,0.83,0,1.66,0,2.48    c-0.83,0-1.66,0-2.48,0C156.46,350.31,156.46,349.48,156.46,348.65z"/>
		<path fill-rule="evenodd" clip-rule="evenodd" fill="#FFFFFF" d="M156.54,341.23c0.78,0,1.55,0,2.33,0c0,0.78,0,1.55,0,2.33    c-0.78,0-1.55,0-2.33,0C156.54,342.78,156.54,342.01,156.54,341.23z"/>
		<path fill-rule="evenodd" clip-rule="evenodd" fill="#FFFFFF" d="M156.62,333.81c0.72,0,1.45,0,2.17,0c0,0.72,0,1.45,0,2.17    c-0.72,0-1.45,0-2.17,0C156.62,335.26,156.62,334.53,156.62,333.81z"/>
		<path fill-rule="evenodd" clip-rule="evenodd" fill="#FFFFFF" d="M156.7,326.39c0.67,0,1.34,0,2.01,0c0,0.67,0,1.34,0,2.01    c-0.67,0-1.34,0-2.01,0C156.7,327.73,156.7,327.06,156.7,326.39z"/>
		<circle fill-rule="evenodd" clip-rule="evenodd" fill="#FFFFFF" cx="157.71" cy="319.9" r="1.31"/>
		<path fill-rule="evenodd" clip-rule="evenodd" fill="#FFFFFF" d="M156.86,311.55c0.56,0,1.13,0,1.69,0c0,0.57,0,1.13,0,1.69    c-0.57,0-1.13,0-1.69,0C156.86,312.68,156.86,312.12,156.86,311.55z"/>
		<path fill-rule="evenodd" clip-rule="evenodd" fill="#FFFFFF" d="M156.94,304.13c0.51,0,1.02,0,1.54,0c0,0.51,0,1.02,0,1.54    c-0.51,0-1.02,0-1.54,0C156.94,305.16,156.94,304.65,156.94,304.13z"/>
		<path fill-rule="evenodd" clip-rule="evenodd" fill="#FFFFFF" d="M157.02,296.72c0.46,0,0.92,0,1.38,0c0,0.46,0,0.92,0,1.38    c-0.46,0-0.92,0-1.38,0C157.02,297.63,157.02,297.18,157.02,296.72z"/>
		<path fill-rule="evenodd" clip-rule="evenodd" fill="#FFFFFF" d="M157.1,289.3c0.41,0,0.81,0,1.22,0c0,0.41,0,0.81,0,1.22    c-0.41,0-0.81,0-1.22,0C157.1,290.11,157.1,289.7,157.1,289.3z"/>
		<rect x="157.18" y="281.88" fill-rule="evenodd" clip-rule="evenodd" fill="#FFFFFF" width="1.06" height="1.06"/>
	</g>
	
		<path fill-rule="evenodd" clip-rule="evenodd" fill="none" stroke="#DCDDDD" stroke-width="0.118" stroke-miterlimit="22.9256" stroke-dasharray="1309.533,654.7087" d="   M81.24,393.04c1.31,0.21,11.47,1.81,12.78,2.02c31.02,4.97,62.2,7.8,93.68,7.8c30.97,0,61.65-2.74,92.18-7.56   c1.81-0.29,12.47-1.83,14.28-2.14"/>
</g>
<g id="图层_x0020_1">
	<path fill="#F08300" d="M175.88,34.74c0.416,1.136,1.472,1.984,2.752,2.032c0.144,0,0.304,0,0.448-0.016h0.016   c0.016,0,0.064,0,0.128-0.016c0.032,0,0.048-0.016,0.08-0.016c0.064-0.016,0.144-0.032,0.224-0.048c0.016,0,0.016,0,0.032,0   c0.192-0.048,0.4-0.112,0.576-0.208c0.192-0.096,0.4-0.224,0.608-0.384c0.672-0.56,1.104-1.408,1.104-2.352   c0-0.224-0.032-0.448-0.08-0.672l0,0C181.72,32.86,181.67,32.69,181.59,32.51C181.12,31.42,180.04,30.66,178.77,30.66C177.08,30.66,175.7,32.03,175.7,33.73C175.7,34.08,175.76,34.42,175.88,34.74L175.88,34.74L175.88,34.74z M180.18,33.76L180.18,33.76C180.15,34.54,179.49,35.14,178.71,35.1C177.92,35.07,177.33,34.42,177.36,33.63c0.032-0.784,0.688-1.376,1.472-1.344   C179.6,32.32,180.21,32.99,180.18,33.76L180.18,33.76z"/>
	<polygon fill="#F08300" points="194.21,31.34 ,193.57,32.93 ,192.13,32.93 ,190.71,36.48 ,188.76,36.48 ,190.16,32.93 ,188.58,32.93    ,189.22,31.34"/>
	<path fill="#F08300" d="M196.18,26.61c-1.008-0.096-3.024-0.144-5.056,0.112c-2.416,0.304-5.152,0.912-7.616,1.664   C181.46,28.99,179.59,29.71,178.24,30.48C178.44,30.45,178.63,30.43,178.82,30.43c0.48,0,0.944,0.112,1.36,0.288   C184.28,28.4,191.48,26.35,196.18,26.61L196.18,26.61L196.18,26.61z"/>
	<path fill="#F08300" d="M181.65,32.08c4-2.368,8.88-4.672,13.488-5.248c-4.608,0.288-10.224,2-14.288,4.304   C181.17,31.39,181.44,31.71,181.65,32.08C181.65,32.08,181.65,32.08,181.65,32.08z"/>
	<polygon fill="#F08300" points="199.7,31.34 ,199.08,32.93 ,197.62,32.93 ,196.21,36.48 ,195.75,36.48 ,194.24,36.48 ,192.55,36.48    ,193.14,34.98 ,194.85,34.98 ,195.67,32.93 ,194.08,32.93 ,194.72,31.34"/>
	<polygon fill="#F08300" points="188.79,31.34 ,188.15,32.93 ,185.86,35.04 ,188.12,35.04 ,187.54,36.48 ,182.05,36.48 ,185.72,32.93    ,183.14,32.93 ,183.78,31.34"/>
	<path fill="#F08300" d="M194.07,27.2c-3.376,0.752-6.464,2.192-9.424,3.952h1.888C188.96,29.58,191.3,28.15,194.07,27.2z    M183.27,32.02C182.64,32.4,182.58,32.45,181.97,32.86c0.064,0.256,0.112,0.544,0.112,0.816c0,0.496-0.112,0.976-0.32,1.392   c0.176-0.16,0.32-0.304,0.432-0.4c0.272-0.24,0.768-0.64,1.6-1.296l0.32-0.256H182.79l0,0L183.27,32.02L183.27,32.02L183.27,32.02z"/>
</g>
</svg>