<?xml version="1.0" encoding="utf-8"?>
<!-- Generator: Adobe Illustrator 23.0.0, SVG Export Plug-In . SVG Version: 6.00 Build 0)  -->
<svg version="1.1" id="图层_1" xmlns="http://www.w3.org/2000/svg" xmlns:xlink="http://www.w3.org/1999/xlink" x="0px" y="0px"
	 width="378px" height="412px" viewBox="0 0 378 412" enable-background="new 0 0 378 412" xml:space="preserve">
<g>
	
		<path fill-rule="evenodd" clip-rule="evenodd" fill="#030000" stroke="#DDDEDD" stroke-width="0.22" stroke-linecap="round" stroke-linejoin="round" stroke-miterlimit="22.9256" d="
		M75.3,397.02c5.36-101,0.7-237.68,0.7-237.68c0-47.62-21.24-89.93-25.5-114.6c13.63-8.23,45.28-21.25,67.14-31.23
		c5.55-2.52,11.68-5.18,15.66-6.93c17.52-0.32,25.34,1.25,55.54,1.25h0.31c30.2,0,38.53-1.57,56.04-1.25
		c3.98,1.76,9.6,4.41,15.15,6.93c21.87,9.98,53.51,23,67.14,31.23c-4.27,24.67-25.5,66.98-25.5,114.6c0,0-4.66,136.67,0.7,237.68
		C279.63,416.46,98.37,416.46,75.3,397.02z"/>
	<g>
		<path fill-rule="evenodd" clip-rule="evenodd" fill="#FFFFFF" d="M77.02,199.09c-0.07-3.25-0.13-6.33-0.2-9.25l112.45,55.81
			l111.87-55.24c-0.07,2.95-0.13,6.07-0.2,9.35l-111.67,55.9L77.02,199.09z"/>
		<path fill-rule="evenodd" clip-rule="evenodd" fill="#FFFFFF" d="M178.97,411.54c-7.03-0.09-14.01-0.27-20.83-0.54l-0.12-173.44
			l21.03,9.32L178.97,411.54z"/>
		<path fill-rule="evenodd" clip-rule="evenodd" fill="#FFFFFF" d="M136.53,409.78c-7.36-0.55-14.35-1.22-20.84-2.02L115.57,216
			l21.04,10.69L136.53,409.78z"/>
		<path fill-rule="evenodd" clip-rule="evenodd" fill="#FFFFFF" d="M75.3,397.02c3.62-68.25,2.67-152.79,1.67-200.44l17.41,8.25
			l-0.09,199.4C85.3,402.24,78.64,399.84,75.3,397.02z"/>
		<path fill-rule="evenodd" clip-rule="evenodd" fill="#FFFFFF" d="M301.01,196.99c-1,47.72-1.93,131.97,1.68,200.03
			c-3.22,2.72-9.54,5.05-18.07,7.01l-0.13-199.57L301.01,196.99z"/>
		<path fill-rule="evenodd" clip-rule="evenodd" fill="#FFFFFF" d="M263.02,407.67c-6.48,0.81-13.47,1.49-20.84,2.05l-0.12-182.95
			L263.1,216L263.02,407.67z"/>
		<path fill-rule="evenodd" clip-rule="evenodd" fill="#FFFFFF" d="M220.76,410.96c-6.82,0.28-13.8,0.47-20.83,0.57l-0.12-165.21
			l21.03-9.8L220.76,410.96z"/>
	</g>
	
		<path fill-rule="evenodd" clip-rule="evenodd" fill="#030000" stroke="#DDDEDD" stroke-width="0.22" stroke-linecap="round" stroke-linejoin="round" stroke-miterlimit="22.9256" d="
		M327.49,44.75c10.2,12.75,29.25,32.3,50.34,119.02c0,0-29.08,23.29-65.98,24.31c0,0-7.14-20.75-9.86-28.74
		C301.99,111.73,323.22,69.42,327.49,44.75z"/>
	<path fill-rule="evenodd" clip-rule="evenodd" fill="#FFFFFF" d="M375.86,155.83c0.66,2.58,1.31,5.23,1.97,7.94
		c0,0-29.08,23.29-65.98,24.31l-2.58-7.5h0.32c32.96-0.82,61.19-21.02,65.13-23.95C374.88,156.51,375.4,156.15,375.86,155.83z"/>
	<path fill-rule="evenodd" clip-rule="evenodd" fill="#DDDEDD" d="M149.33,11.67c8.45,14.62,23.39,22.27,39.92,28.55
		c16.55-6.29,31.48-13.92,39.92-28.56c-8.65,1.66-21.45,3.09-39.92,3.09C170.78,14.76,157.99,13.33,149.33,11.67z"/>
	
		<path fill-rule="evenodd" clip-rule="evenodd" fill="#FFFFFF" stroke="#DDDEDD" stroke-width="0.22" stroke-linecap="round" stroke-linejoin="round" stroke-miterlimit="22.9256" d="
		M189.25,3.33c-17.28,0-41.78-2.53-44.66-2.93c0,0-5.53,4.46-11.29,6.19c0,0,11.78,8.17,55.95,8.17s55.95-8.17,55.95-8.17
		c-5.76-1.72-11.29-6.19-11.29-6.19C231.02,0.8,206.53,3.33,189.25,3.33z"/>
	
		<path fill-rule="evenodd" clip-rule="evenodd" fill="#FFFFFF" stroke="#DDDEDD" stroke-width="0.22" stroke-linecap="round" stroke-linejoin="round" stroke-miterlimit="22.9256" d="
		M189.25,52.67c23.96-5.08,48.15-22.11,55.95-46.09c-4.43-2.12-11.29-6.18-11.29-6.18c-6.4,22.33-24.3,32.08-44.66,39.82
		c-20.33-7.73-38.27-17.52-44.66-39.82c0,0-6.86,4.05-11.29,6.19C141.21,30.94,164.9,47.52,189.25,52.67z"/>
	<rect x="177.38" y="19.09" fill-rule="evenodd" clip-rule="evenodd" fill="#091B34" width="23.73" height="10.05"/>
	
		<path fill-rule="evenodd" clip-rule="evenodd" fill="#030000" stroke="#DDDEDD" stroke-width="0.22" stroke-linecap="round" stroke-linejoin="round" stroke-miterlimit="22.9256" d="
		M50.5,44.75C40.3,57.51,21.25,77.06,0.16,163.77c0,0,29.08,23.29,65.98,24.31c0,0,7.14-20.75,9.86-28.74
		C76,111.73,54.77,69.42,50.5,44.75z"/>
	<path fill-rule="evenodd" clip-rule="evenodd" fill="#FFFFFF" d="M2.14,155.81c-0.66,2.59-1.32,5.24-1.98,7.96
		c0,0,29.08,23.29,65.98,24.31l2.58-7.5h-0.29c-32.96-0.82-61.19-21.02-65.12-23.95C3.14,156.51,2.62,156.14,2.14,155.81z"/>
</g>
</svg>
