<?xml version="1.0" encoding="utf-8"?>
<!-- Generator: Adobe Illustrator 23.0.0, SVG Export Plug-In . SVG Version: 6.00 Build 0)  -->
<svg xmlns="http://www.w3.org/2000/svg" xmlns:xlink="http://www.w3.org/1999/xlink" version="1.1" id="图层_1" x="0px" y="0px" width="378px" height="412px" viewBox="0 0 378 412" enable-background="new 0 0 378 412" xml:space="preserve">
<g>
	
		<path fill-rule="evenodd" clip-rule="evenodd" stroke="#DCDDDD" stroke-width="0.22" stroke-linecap="round" stroke-linejoin="round" stroke-miterlimit="22.9256" d="   M327.52,44.71c10.2,12.75,29.26,32.31,50.35,119.05c0,0-29.09,23.29-65.99,24.31c0,0-7.14-20.75-9.86-28.75   C302.02,111.72,323.25,69.39,327.52,44.71z"/>
	
		<path fill-rule="evenodd" clip-rule="evenodd" stroke="#DCDDDD" stroke-width="0.22" stroke-linecap="round" stroke-miterlimit="22.9256" d="   M75.28,397.07c5.36-101.02,0.7-237.73,0.7-237.73c0-47.63-21.24-89.95-25.51-114.62c13.63-8.23,45.29-21.25,67.15-31.24   c5.55-2.52,11.68-5.18,15.66-6.93c17.52-0.32,25.35,1.25,55.55,1.25h0.31c30.21,0,38.54-1.57,56.05-1.25   c3.98,1.76,9.6,4.41,15.15,6.93c21.87,9.98,53.52,23,67.15,31.24c-4.27,24.68-25.51,66.99-25.51,114.62c0,0-4.66,136.7,0.7,237.73   C279.64,416.51,98.36,416.51,75.28,397.07z"/>
	
		<path fill-rule="evenodd" clip-rule="evenodd" stroke="#DCDDDD" stroke-width="0.22" stroke-linecap="round" stroke-linejoin="round" stroke-miterlimit="22.9256" d="   M50.48,44.71C40.27,57.47,21.22,77.03,0.13,163.77c0,0,29.09,23.29,65.99,24.32c0,0,7.14-20.75,9.86-28.75   C75.98,111.72,54.75,69.39,50.48,44.71z"/>
	<path fill-rule="evenodd" clip-rule="evenodd" fill="#CC0001" d="M40.14,183.82c7.94,2.34,16.71,4,25.97,4.26   c0,0,7.14-20.75,9.86-28.75c0-13.3-1.66-26.19-4.14-38.4L40.14,183.82z"/>
	<path fill-rule="evenodd" clip-rule="evenodd" fill="#CC0001" d="M337.86,183.81c-7.94,2.34-16.71,4-25.97,4.26   c0,0-7.14-20.75-9.86-28.75c0-13.3,1.66-26.19,4.14-38.4L337.86,183.81z"/>
	<g>
		<linearGradient id="SVGID_1_" gradientUnits="userSpaceOnUse" x1="215.0384" y1="206.4393" x2="215.0384" y2="277.9209">
			<stop offset="0" style="stop-color:#CCCCCC"/>
			<stop offset="1" style="stop-color:#000001"/>
		</linearGradient>
		<polygon fill="url(#SVGID_1_)" points="209.4,253.96 209.11,254.24 209.11,254.65 209.11,308.59 211.06,308.59 211.06,255.06     219,247.12 219,308.59 220.96,308.59 220.96,244.76 220.96,242.39 219.29,244.06   "/>
		<linearGradient id="SVGID_2_" gradientUnits="userSpaceOnUse" x1="193.2394" y1="206.4393" x2="193.2394" y2="277.9209">
			<stop offset="0" style="stop-color:#CCCCCC"/>
			<stop offset="1" style="stop-color:#000001"/>
		</linearGradient>
		<polygon fill="url(#SVGID_2_)" points="193.3,106.22 193.3,308.59 195.26,308.59 195.26,105.81 195.26,105.41 194.97,105.12     193.18,103.34 193.18,23.46 191.22,23.46 191.22,103.74 191.22,104.15 191.51,104.43   "/>
		<linearGradient id="SVGID_3_" gradientUnits="userSpaceOnUse" x1="248.664" y1="206.4393" x2="248.664" y2="277.9209">
			<stop offset="0" style="stop-color:#CCCCCC"/>
			<stop offset="1" style="stop-color:#000001"/>
		</linearGradient>
		<polygon fill="url(#SVGID_3_)" points="288.22,25.84 286.3,24.99 211.07,100.22 211.07,75 268.8,17.27 266.88,16.42 209.4,73.9     209.11,74.19 209.11,74.59 209.11,102.58 209.11,104.94 210.78,103.27   "/>
		<linearGradient id="SVGID_4_" gradientUnits="userSpaceOnUse" x1="260.4284" y1="206.4393" x2="260.4284" y2="277.9209">
			<stop offset="0" style="stop-color:#CCCCCC"/>
			<stop offset="1" style="stop-color:#000001"/>
		</linearGradient>
		<path fill="url(#SVGID_4_)" d="M311.75,36.51c-0.62-0.29-1.25-0.59-1.88-0.89l-98.8,98.8V112l83.4-83.4l-1.92-0.85l-83.15,83.15    l-0.29,0.29v0.41v25.19v2.36l1.67-1.67L311.75,36.51z"/>
		<linearGradient id="SVGID_5_" gradientUnits="userSpaceOnUse" x1="201.4673" y1="206.4393" x2="201.4673" y2="277.9209">
			<stop offset="0" style="stop-color:#CCCCCC"/>
			<stop offset="1" style="stop-color:#000001"/>
		</linearGradient>
		<polygon fill="url(#SVGID_5_)" points="203.66,102.99 203.66,308.59 205.62,308.59 205.62,102.58 205.62,102.17 205.33,101.89     199.27,95.83 199.27,36.01 199.27,15.95 197.31,15.95 197.31,96.23 197.31,96.64 197.6,96.92   "/>
		<linearGradient id="SVGID_6_" gradientUnits="userSpaceOnUse" x1="267.6857" y1="206.4393" x2="267.6857" y2="277.9209">
			<stop offset="0" style="stop-color:#CCCCCC"/>
			<stop offset="1" style="stop-color:#000001"/>
		</linearGradient>
		<path fill="url(#SVGID_6_)" d="M211.07,165.83v-19.62L317.81,39.47c-0.61-0.3-1.22-0.61-1.85-0.92L209.4,145.11l-0.29,0.29v0.41    v22.39v2.36l1.67-1.67L325.3,54.37c0.35-1.28,0.67-2.52,0.96-3.73L211.07,165.83z"/>
		<linearGradient id="SVGID_7_" gradientUnits="userSpaceOnUse" x1="265.907" y1="206.4393" x2="265.907" y2="277.9209">
			<stop offset="0" style="stop-color:#CCCCCC"/>
			<stop offset="1" style="stop-color:#000001"/>
		</linearGradient>
		<path fill="url(#SVGID_7_)" d="M209.11,176.81v0.41v19.59l0,2.36l1.67-1.67L312.45,95.83c0.39-1.32,0.78-2.64,1.17-3.94    L211.07,194.44v-16.82L321.43,67.26c0.44-1.37,0.86-2.72,1.27-4.04L209.4,176.52L209.11,176.81z"/>
		<linearGradient id="SVGID_8_" gradientUnits="userSpaceOnUse" x1="259.567" y1="206.4393" x2="259.567" y2="277.9209">
			<stop offset="0" style="stop-color:#CCCCCC"/>
			<stop offset="1" style="stop-color:#000001"/>
		</linearGradient>
		<path fill="url(#SVGID_8_)" d="M209.11,205.42v0.41v16.79l0,2.36l1.67-1.67l93.79-93.79c0.18-1.12,0.38-2.24,0.58-3.35    l-94.07,94.08v-14.02l97.99-97.99c0.32-1.26,0.64-2.5,0.97-3.74L209.4,205.13L209.11,205.42z"/>
		<linearGradient id="SVGID_9_" gradientUnits="userSpaceOnUse" x1="256.3029" y1="206.4393" x2="256.3029" y2="277.9209">
			<stop offset="0" style="stop-color:#CCCCCC"/>
			<stop offset="1" style="stop-color:#000001"/>
		</linearGradient>
		<path fill="url(#SVGID_9_)" d="M209.11,231.23v0.41v13.99V248l66.83-66.83l26.13-26.13c0.03-0.96,0.06-1.92,0.1-2.87l-91.1,91.1    v-11.22l92.05-92.05c0.12-1.05,0.24-2.1,0.38-3.15l-94.1,94.1L209.11,231.23z"/>
	</g>
	<g>
		<linearGradient id="SVGID_10_" gradientUnits="userSpaceOnUse" x1="176.5226" y1="206.6672" x2="176.5226" y2="278.1717">
			<stop offset="0" style="stop-color:#CCCCCC"/>
			<stop offset="1" style="stop-color:#000001"/>
		</linearGradient>
		<polygon fill="url(#SVGID_10_)" points="174.33,308.59 174.33,102.99 180.39,96.92 180.68,96.64 180.68,96.23 180.68,15.95     178.72,15.95 178.72,36.01 178.72,95.83 172.66,101.89 172.37,102.17 172.37,102.58 172.37,308.59   "/>
		<linearGradient id="SVGID_11_" gradientUnits="userSpaceOnUse" x1="162.9513" y1="206.6672" x2="162.9513" y2="278.1717">
			<stop offset="0" style="stop-color:#CCCCCC"/>
			<stop offset="1" style="stop-color:#000001"/>
		</linearGradient>
		<polygon fill="url(#SVGID_11_)" points="168.59,253.96 158.7,244.06 157.03,242.39 157.03,244.76 157.03,308.59 158.98,308.59     158.98,247.12 166.93,255.06 166.93,308.59 168.88,308.59 168.88,254.65 168.88,254.24   "/>
		<linearGradient id="SVGID_12_" gradientUnits="userSpaceOnUse" x1="184.7503" y1="206.6672" x2="184.7503" y2="278.1717">
			<stop offset="0" style="stop-color:#CCCCCC"/>
			<stop offset="1" style="stop-color:#000001"/>
		</linearGradient>
		<polygon fill="url(#SVGID_12_)" points="184.69,308.59 184.69,106.22 186.48,104.43 186.77,104.15 186.77,103.74 186.77,23.46     184.81,23.46 184.81,103.34 183.02,105.12 182.73,105.41 182.73,105.81 182.73,308.59   "/>
		<linearGradient id="SVGID_13_" gradientUnits="userSpaceOnUse" x1="129.3264" y1="206.6672" x2="129.3264" y2="278.1717">
			<stop offset="0" style="stop-color:#CCCCCC"/>
			<stop offset="1" style="stop-color:#000001"/>
		</linearGradient>
		<polygon fill="url(#SVGID_13_)" points="168.88,104.94 168.88,102.58 168.88,74.59 168.88,74.19 168.59,73.9 111.11,16.42     109.19,17.27 166.92,75 166.92,100.22 91.69,24.99 89.77,25.84 167.21,103.27   "/>
		<linearGradient id="SVGID_14_" gradientUnits="userSpaceOnUse" x1="121.6864" y1="206.6672" x2="121.6864" y2="278.1717">
			<stop offset="0" style="stop-color:#CCCCCC"/>
			<stop offset="1" style="stop-color:#000001"/>
		</linearGradient>
		<path fill="url(#SVGID_14_)" d="M168.88,245.63v-13.99v-0.41l-0.29-0.29l-94.1-94.1c0.13,1.05,0.26,2.09,0.38,3.15l92.05,92.05    v11.22l-91.1-91.1c0.04,0.95,0.08,1.91,0.1,2.87l26.13,26.13L168.88,248V245.63z"/>
		<linearGradient id="SVGID_15_" gradientUnits="userSpaceOnUse" x1="117.5615" y1="206.6672" x2="117.5615" y2="278.1717">
			<stop offset="0" style="stop-color:#CCCCCC"/>
			<stop offset="1" style="stop-color:#000001"/>
		</linearGradient>
		<path fill="url(#SVGID_15_)" d="M168.88,139.15v-2.36V111.6v-0.41l-0.29-0.29L85.44,27.75l-1.92,0.85l83.4,83.4v22.42l-98.8-98.8    c-0.63,0.3-1.26,0.6-1.88,0.89l100.97,100.97L168.88,139.15z"/>
		<linearGradient id="SVGID_16_" gradientUnits="userSpaceOnUse" x1="118.421" y1="206.6672" x2="118.421" y2="278.1717">
			<stop offset="0" style="stop-color:#CCCCCC"/>
			<stop offset="1" style="stop-color:#000001"/>
		</linearGradient>
		<path fill="url(#SVGID_16_)" d="M168.88,224.98l0-2.36v-16.79v-0.41l-0.29-0.29L67.96,104.5c0.33,1.24,0.65,2.49,0.97,3.74    l97.99,97.99v14.02l-94.08-94.08c0.2,1.11,0.39,2.23,0.58,3.35l93.79,93.79L168.88,224.98z"/>
		<linearGradient id="SVGID_17_" gradientUnits="userSpaceOnUse" x1="112.0801" y1="206.6672" x2="112.0801" y2="278.1717">
			<stop offset="0" style="stop-color:#CCCCCC"/>
			<stop offset="1" style="stop-color:#000001"/>
		</linearGradient>
		<path fill="url(#SVGID_17_)" d="M168.88,199.17l0-2.36v-19.59v-0.41l-0.29-0.29L55.28,63.21c0.41,1.32,0.83,2.67,1.27,4.04    l110.37,110.37v16.82L64.37,91.89c0.39,1.3,0.78,2.61,1.17,3.94L167.21,197.5L168.88,199.17z"/>
		<linearGradient id="SVGID_18_" gradientUnits="userSpaceOnUse" x1="110.3029" y1="206.6672" x2="110.3029" y2="278.1717">
			<stop offset="0" style="stop-color:#CCCCCC"/>
			<stop offset="1" style="stop-color:#000001"/>
		</linearGradient>
		<path fill="url(#SVGID_18_)" d="M168.88,170.56v-2.36v-22.39v-0.41l-0.29-0.29L62.03,38.55c-0.63,0.31-1.25,0.61-1.85,0.92    l106.74,106.74v19.62L51.73,50.64c0.29,1.21,0.62,2.46,0.96,3.73l114.52,114.52L168.88,170.56z"/>
	</g>
	<g>
		<path fill-rule="evenodd" clip-rule="evenodd" fill="#CC0001" d="M77.13,205.59c-0.53-28.04-1.15-46.26-1.15-46.26    c0-12.34-2.09-27-4.27-38.42c9.24,7.32,27.03,27.92,30.29,61.96c1.76,18.37,2.87,36.78,3.54,55.2L77.13,205.59z"/>
		<path fill-rule="evenodd" clip-rule="evenodd" fill="#333333" d="M75.28,397.07c3.4-64.15,2.77-142.69,1.85-191.47l28.4,32.48    l-0.63,163.79l-0.08,4.41C90.47,403.95,79.81,400.89,75.28,397.07z"/>
		<g>
			<g>
				<polygon fill-rule="evenodd" clip-rule="evenodd" fill="#CC0000" points="77.86,282.73 77.86,280.54 101.96,308.05       105.25,311.79 105.24,314 101.93,310.19     "/>
				<polygon fill-rule="evenodd" clip-rule="evenodd" fill="#CC0000" points="77.86,277.1 77.85,274.87 84.15,282.06 105.27,306.17       105.26,308.32 83.1,283.03     "/>
				<polygon fill-rule="evenodd" clip-rule="evenodd" fill="#CC0000" points="77.85,271.51 77.84,269.27 86.6,279.21 105.29,300.52       105.28,302.69 86.48,281.26     "/>
				<polygon fill-rule="evenodd" clip-rule="evenodd" fill="#CC0000" points="77.83,265.73 77.82,263.5 84.19,270.8 103.02,292.29       105.31,294.95 105.31,297.1 102.22,293.55 82.63,271.21     "/>
				<polygon fill-rule="evenodd" clip-rule="evenodd" fill="#CC0000" points="77.8,260.16 77.79,257.78 84.94,266 86.22,267.47       105.34,289.31 105.33,291.52 85.41,268.73     "/>
				<polygon fill-rule="evenodd" clip-rule="evenodd" fill="#CC0000" points="77.77,254.49 77.75,252.08 84.06,259.34       101.86,279.67 105.36,283.63 105.35,285.85 101.59,281.53 83.7,261.12     "/>
				<polygon fill-rule="evenodd" clip-rule="evenodd" fill="#CC0000" points="77.72,248.74 77.7,246.43 84.86,254.6 105.38,278.09       105.37,280.17 85.01,256.96     "/>
				<polygon fill-rule="evenodd" clip-rule="evenodd" fill="#CC0000" points="77.67,242.89 77.65,240.71 86.39,250.69       104.64,271.53 105.4,272.4 105.39,274.51 86.14,252.6     "/>
				<polygon fill-rule="evenodd" clip-rule="evenodd" fill="#CC0000" points="77.61,237.42 77.58,235.04 85.04,243.5 105.42,266.77       105.41,268.94 104.15,267.48 84.02,244.52     "/>
				<polygon fill-rule="evenodd" clip-rule="evenodd" fill="#CC0000" points="77.55,232 77.52,229.77 84.09,237.33 103.69,259.71       104.68,260.85 105.44,261.72 105.43,263.96 103.05,261.14 83.64,239.01     "/>
				<polygon fill-rule="evenodd" clip-rule="evenodd" fill="#CC0000" points="77.48,226.97 77.45,224.68 85.16,233.47       104.25,255.27 105.46,256.66 105.45,258.84 103.45,256.53 84.74,235.19     "/>
				<polygon fill-rule="evenodd" clip-rule="evenodd" fill="#CC0000" points="77.4,221.87 77.37,219.5 83.61,226.63 105.48,251.59       105.47,253.71 102.49,250.35 82.48,227.53     "/>
				<polygon fill-rule="evenodd" clip-rule="evenodd" fill="#CC0000" points="77.33,217.11 77.29,214.88 83.61,222.1 101.32,242.3       105.5,247.08 105.49,249.24 100.05,243.02 82.39,222.9     "/>
				<polygon fill-rule="evenodd" clip-rule="evenodd" fill="#CC0000" points="77.26,212.57 77.22,210.33 84.1,218.12 105.52,242.58       105.51,244.73 82.99,219.04     "/>
			</g>
			<polygon fill-rule="evenodd" clip-rule="evenodd" fill="#CC0000" points="77.17,207.83 77.13,205.59 79.66,208.48 83.92,213.37      93.21,223.98 105.53,238.07 105.53,240.21 82.98,214.49    "/>
		</g>
	</g>
	<g>
		<path fill-rule="evenodd" clip-rule="evenodd" fill="#CC0001" d="M300.7,205.59c0.53-28.04,1.15-46.26,1.15-46.26    c0-12.34,2.09-27,4.27-38.42c-9.24,7.32-27.03,27.92-30.29,61.96c-1.76,18.37-2.87,36.78-3.54,55.2L300.7,205.59z"/>
		<path fill-rule="evenodd" clip-rule="evenodd" fill="#333333" d="M302.55,397.07c-3.4-64.15-2.77-142.69-1.85-191.47l-28.4,32.48    l0.63,163.79l0.08,4.41C287.36,403.95,298.01,400.89,302.55,397.07z"/>
		<g>
			<g>
				<polygon fill-rule="evenodd" clip-rule="evenodd" fill="#CC0000" points="299.97,282.73 299.97,280.54 275.87,308.05       272.58,311.79 272.59,314 275.9,310.19     "/>
				<polygon fill-rule="evenodd" clip-rule="evenodd" fill="#CC0000" points="299.97,277.1 299.97,274.87 293.68,282.06       272.56,306.17 272.57,308.32 294.73,283.03     "/>
				<polygon fill-rule="evenodd" clip-rule="evenodd" fill="#CC0000" points="299.98,271.51 299.99,269.27 291.23,279.21       272.54,300.52 272.54,302.69 291.35,281.26     "/>
				<polygon fill-rule="evenodd" clip-rule="evenodd" fill="#CC0000" points="300,265.73 300.01,263.5 293.64,270.8 274.81,292.29       272.51,294.95 272.52,297.1 275.61,293.55 295.2,271.21     "/>
				<polygon fill-rule="evenodd" clip-rule="evenodd" fill="#CC0000" points="300.03,260.16 300.04,257.78 292.89,266       291.61,267.47 272.49,289.31 272.5,291.52 292.42,268.73     "/>
				<polygon fill-rule="evenodd" clip-rule="evenodd" fill="#CC0000" points="300.06,254.49 300.08,252.08 293.77,259.34       275.97,279.67 272.47,283.63 272.48,285.85 276.24,281.53 294.13,261.12     "/>
				<polygon fill-rule="evenodd" clip-rule="evenodd" fill="#CC0000" points="300.11,248.74 300.13,246.43 292.97,254.6       272.45,278.09 272.46,280.17 292.82,256.96     "/>
				<polygon fill-rule="evenodd" clip-rule="evenodd" fill="#CC0000" points="300.16,242.89 300.18,240.71 291.44,250.69       273.19,271.53 272.43,272.4 272.44,274.51 291.69,252.6     "/>
				<polygon fill-rule="evenodd" clip-rule="evenodd" fill="#CC0000" points="300.22,237.42 300.25,235.04 292.78,243.5       272.41,266.77 272.41,268.94 273.68,267.48 293.81,244.52     "/>
				<polygon fill-rule="evenodd" clip-rule="evenodd" fill="#CC0000" points="300.28,232 300.31,229.77 293.74,237.33       274.13,259.71 273.14,260.85 272.39,261.72 272.39,263.96 274.78,261.14 294.19,239.01     "/>
				<polygon fill-rule="evenodd" clip-rule="evenodd" fill="#CC0000" points="300.35,226.97 300.38,224.68 292.67,233.47       273.58,255.27 272.37,256.66 272.37,258.84 274.37,256.53 293.09,235.19     "/>
				<polygon fill-rule="evenodd" clip-rule="evenodd" fill="#CC0000" points="300.42,221.87 300.46,219.5 294.22,226.63       272.35,251.59 272.35,253.71 275.34,250.35 295.35,227.53     "/>
				<polygon fill-rule="evenodd" clip-rule="evenodd" fill="#CC0000" points="300.5,217.11 300.53,214.88 294.22,222.1       276.51,242.3 272.33,247.08 272.34,249.24 277.78,243.02 295.43,222.9     "/>
				<polygon fill-rule="evenodd" clip-rule="evenodd" fill="#CC0000" points="300.57,212.57 300.61,210.33 293.72,218.12       272.31,242.58 272.32,244.73 294.84,219.04     "/>
			</g>
			<polygon fill-rule="evenodd" clip-rule="evenodd" fill="#CC0000" points="300.66,207.83 300.7,205.59 298.17,208.48      293.91,213.37 284.62,223.98 272.29,238.07 272.3,240.21 294.85,214.49    "/>
		</g>
	</g>
	<path fill-rule="evenodd" clip-rule="evenodd" fill="#DCDDDD" d="M149.33,11.62c8.45,14.62,23.39,22.27,39.93,28.56   c16.55-6.29,31.49-13.92,39.93-28.57c-8.65,1.66-21.45,3.09-39.93,3.09C170.78,14.71,157.98,13.28,149.33,11.62z"/>
	
		<path fill-rule="evenodd" clip-rule="evenodd" fill="#000001" stroke="#DCDDDD" stroke-width="0.22" stroke-linecap="round" stroke-linejoin="round" stroke-miterlimit="22.9256" d="   M189.26,3.28c-17.28,0-41.79-2.53-44.67-2.93c0,0-5.53,4.46-11.29,6.19c0,0,11.78,8.17,55.96,8.17c44.18,0,55.96-8.17,55.96-8.17   c-5.76-1.72-11.29-6.19-11.29-6.19C231.03,0.75,206.54,3.28,189.26,3.28z"/>
	
		<path fill-rule="evenodd" clip-rule="evenodd" fill="#000001" stroke="#DCDDDD" stroke-width="0.22" stroke-linecap="round" stroke-linejoin="round" stroke-miterlimit="22.9256" d="   M189.26,52.64c23.96-5.08,48.16-22.11,55.96-46.1c-4.43-2.13-11.29-6.19-11.29-6.19c-6.4,22.33-24.31,32.09-44.67,39.83   c-20.33-7.73-38.28-17.52-44.67-39.83c0,0-6.86,4.05-11.29,6.19C141.2,30.9,164.9,47.48,189.26,52.64z"/>
	
</g>
<g id="图层_x0020_1">
	<path fill="#F08300" d="M177.43,32.29c0.416,1.136,1.472,1.984,2.752,2.032c0.144,0,0.304,0,0.448-0.016h0.016   c0.016,0,0.064,0,0.128-0.016c0.032,0,0.048-0.016,0.08-0.016c0.064-0.016,0.144-0.032,0.224-0.048c0.016,0,0.016,0,0.032,0   c0.192-0.048,0.4-0.112,0.576-0.208c0.192-0.096,0.4-0.224,0.608-0.384c0.672-0.56,1.104-1.408,1.104-2.352   c0-0.224-0.032-0.448-0.08-0.672l0,0C183.27,30.41,183.22,30.24,183.14,30.06C182.67,28.97,181.59,28.21,180.32,28.21C178.63,28.21,177.25,29.58,177.25,31.28C177.25,31.63,177.31,31.97,177.43,32.29L177.43,32.29L177.43,32.29z M181.73,31.31L181.73,31.31C181.7,32.09,181.04,32.69,180.26,32.65C179.47,32.62,178.88,31.97,178.91,31.18c0.032-0.784,0.688-1.376,1.472-1.344   C181.15,29.87,181.76,30.54,181.73,31.31L181.73,31.31z"/>
	<polygon fill="#F08300" points="195.76,28.89 ,195.12,30.48 ,193.68,30.48 ,192.26,34.03 ,190.31,34.03 ,191.71,30.48 ,190.13,30.48    ,190.77,28.89"/>
	<path fill="#F08300" d="M197.73,24.16c-1.008-0.096-3.024-0.144-5.056,0.112c-2.416,0.304-5.152,0.912-7.616,1.664   C183.01,26.54,181.14,27.26,179.79,28.03C179.99,28,180.18,27.98,180.37,27.98c0.48,0,0.944,0.112,1.36,0.288   C185.83,25.95,193.03,23.9,197.73,24.16L197.73,24.16L197.73,24.16z"/>
	<path fill="#F08300" d="M183.2,29.63c4-2.368,8.88-4.672,13.488-5.248c-4.608,0.288-10.224,2-14.288,4.304   C182.72,28.94,182.99,29.26,183.2,29.63C183.2,29.63,183.2,29.63,183.2,29.63z"/>
	<polygon fill="#F08300" points="201.25,28.89 ,200.63,30.48 ,199.17,30.48 ,197.76,34.03 ,197.3,34.03 ,195.79,34.03 ,194.1,34.03    ,194.69,32.53 ,196.4,32.53 ,197.22,30.48 ,195.63,30.48 ,196.27,28.89"/>
	<polygon fill="#F08300" points="190.34,28.89 ,189.7,30.48 ,187.41,32.59 ,189.67,32.59 ,189.09,34.03 ,183.6,34.03 ,187.27,30.48    ,184.69,30.48 ,185.33,28.89"/>
	<path fill="#F08300" d="M195.62,24.75c-3.376,0.752-6.464,2.192-9.424,3.952h1.888C190.51,27.13,192.85,25.7,195.62,24.75z    M184.82,29.57C184.19,29.95,184.13,30,183.52,30.41c0.064,0.256,0.112,0.544,0.112,0.816c0,0.496-0.112,0.976-0.32,1.392   c0.176-0.16,0.32-0.304,0.432-0.4c0.272-0.24,0.768-0.64,1.6-1.296l0.32-0.256H184.34l0,0L184.82,29.57L184.82,29.57L184.82,29.57z"/>
</g>
</svg>