<?xml version="1.0" encoding="utf-8"?>
<!-- Generator: Adobe Illustrator 23.0.0, SVG Export Plug-In . SVG Version: 6.00 Build 0)  -->
<svg xmlns="http://www.w3.org/2000/svg" xmlns:xlink="http://www.w3.org/1999/xlink" version="1.1" id="图层_1" x="0px" y="0px" width="378px" height="412px" viewBox="0 0 378 412" enable-background="new 0 0 378 412" xml:space="preserve">
<g>
	
		<path fill-rule="evenodd" clip-rule="evenodd" fill="#333333" stroke="#DCDDDD" stroke-width="0.22" stroke-linecap="round" stroke-linejoin="round" stroke-miterlimit="22.9256" d="   M327.5,44.75c10.2,12.75,29.25,32.3,50.34,119.02c0,0-29.08,23.29-65.98,24.31c0,0-7.14-20.75-9.86-28.74   C302,111.74,323.22,69.42,327.5,44.75z"/>
	
		<path fill-rule="evenodd" clip-rule="evenodd" fill="#333333" stroke="#DCDDDD" stroke-width="0.22" stroke-linecap="round" stroke-linejoin="round" stroke-miterlimit="22.9256" d="   M75.3,397.02c5.36-101,0.7-237.68,0.7-237.68c0-47.62-21.24-89.93-25.5-114.6c13.63-8.23,45.28-21.25,67.14-31.23   c5.55-2.52,11.68-5.18,15.66-6.93c17.52-0.32,25.34,1.25,55.54,1.25h0.31c30.2,0,38.53-1.57,56.04-1.25   c3.98,1.76,9.6,4.41,15.15,6.93c21.87,9.98,53.51,23,67.14,31.23c-4.27,24.67-25.5,66.98-25.5,114.6c0,0-4.66,136.67,0.7,237.68   C279.63,416.46,98.38,416.46,75.3,397.02z"/>
	<g>
		<path fill-rule="evenodd" clip-rule="evenodd" d="M279.58,29.37h4.64h4.64v4.64h4.64v-4.64h2.57l2.07,0.93v8.36l9.29,0v-4.12    c8.12,3.77,15.21,7.29,20.04,10.21c-0.65,3.77-1.7,7.95-3.01,12.49h-3.1v4.64h-9.29v-4.64h-9.29v4.64h9.29v4.64l-4.64,0v4.64    h-4.64v4.64l-4.64,0v-4.64l-4.64,0v4.64l-27.86,0v-4.64l-9.29,0v-9.29h-4.64v4.64l-4.64,0v-4.64l-4.64,0v-4.64H261v4.64h4.64    v-9.29l-23.22,0v-9.29h9.29v-4.64l18.58,0h9.29V29.37L279.58,29.37L279.58,29.37L279.58,29.37z M53.51,57.24    c-0.46-1.59-0.88-3.14-1.27-4.64h5.14v4.64H53.51L53.51,57.24z M52.98,43.31h4.4v4.64l4.64,0v4.64h4.64v4.64h-4.64v9.29h4.64v4.64    h9.29v-4.64H89.9v4.64h13.93v-4.64l-9.29,0v-4.64l-13.93,0v-9.29l9.29,0v-4.64h13.93v9.29h9.29v4.64h9.29v-9.29v-4.64l4.64,0v4.64    v4.64h9.29v9.29h-23.22v4.64v4.64h18.58v4.64l9.29,0v4.64l9.29,0v-4.64h5.42l0,0l13.05,0v4.64h4.64v0.01l-4.64,0v0h-9.29v9.29    h4.64v4.64v0v4.64h-4.64l0,0l0,0l0,0v4.64h-3.67l0,0l-10.16,0v4.64l-9.29,0v-4.64l-4.64,0v4.64l-4.64,0v-4.64h-4.64v-4.64h-4.64    v4.64h-4.64v9.29v0v4.64v4.64h-4.64v4.64l-13.93,0v13.93h13.94v4.64h4.64v-4.64h18.58v4.64h-4.64v4.64h-4.64v-4.64h-4.64v4.64    l-9.29,0v4.64h4.64v4.64h9.29v-4.64h9.29l4.64,0v-4.64h13.93h4.63v0.01h0.79l0,0h17.68v4.63l13.31,0.01l0-4.64l0-0.01h4.64h4.64    v4.64l0,0l0,0l-4.64,0.01l-4.64,0l-13.31-0.01h-0.62h-8.66V178h4.64v4.63h-0.62v4.64h9.29h4.64v-4.64l4.64,0v0.29v4.35l-4.02,0    v4.64h-0.62v0.01h-4.02v4.64h-18.58v4.64h4.64v4.64h-4.64v9.29h-3.67h-0.08h-5.43v4.64h-27.86v3.22h-9.29v1.43v3.23h9.29v1.41    v3.22h9.29v8.82v0.08v8.82h-9.29v3.22v1.43h-9.29v3.22v1.43h9.29v3.22h27.86v4.64h5.43h0.08h3.67v9.29h4.64v4.64h-4.64v4.64h18.58    v4.64h4.02v0.01h0.62v4.64h4.02v4.36v0.28h-4.64v-4.64h-4.64h-9.29v4.64h0.62h8.66v4.64l13.93,0v4.64H177.4v4.64h9.29v4.64    l-13.93,0v4.64h0.62h13.31h0v4.64h-9.28v4.64h9.29v4.64h-4.64v4.64l-4.64,0v4.64h-4.02l0,0v-9.29h-17.68l0,0h-5.42v-4.64h4.64    v-4.64h-4.64h-13.93v-4.64h-4.64h-9.29v-4.64h-9.29v4.64h-4.64v4.64l9.29,0v4.64h4.64v-4.64h4.64v4.64h4.64v4.64h-18.58v-4.64    h-4.64v4.64H94.54v13.93l13.93,0v4.64h4.64v1.42h18.58v-1.43l-4.64,0v-9.29h4.64h23.22v4.64l0.87,0l0,0h3.04h4.64v4.64h9.29v-4.64    h18.58v4.64h13.93v1.42h-22.84v0.17l4.02,0v4.36v0.28h-4.64v-4.64h-4.64h-9.29v4.64h0.62h8.66v4.64l13.93,0v4.64h-13.93v4.64h9.29    v4.64l-13.93,0v4.64h0.62h13.31v4.64h-9.28v4.64h9.29v3.98l-0.01,0.17v4.36v0.28h-4.64v-4.64h-4.64h-9.29v4.64h0.62h8.66v4.64    l13.93,0v4c17.64-0.05,35.2-0.67,51.08-1.88v-2.12h4.64v1.75c1.57-0.13,3.12-0.27,4.64-0.42v-1.33h9.29v-4.64l-4.64,0v-4.64h4.64    v4.64h13.93v3.02c1.6-0.27,3.14-0.55,4.64-0.84v-2.19l4.64,0v-4.64h-4.64v-0.17h-41.78v-8.62l-9.29,0v4.64h-18.58h-13.93v-4.64    l9.28,0v-4.64l-4.64,0v-4.64h23.22v-9.29h18.58v-4.64h4.64v4.64h4.64v-4.64h9.29v-4.64l-4.64,0v-4.64h4.64v4.64h13.93v4.64l4.64,0    v-4.64l4.64,0v-4.8l-4.64-0.02h-55.47v-1.43l13.93,0v-4.64h-18.58v-4.64l18.58,0v-4.64h-23.22v-4.64l23.22,0v-9.29l-9.29,0v4.64    h-18.58h-13.93v-4.64l9.28,0v-4.64h-4.64v-4.64h23.22v-9.29h18.58v-4.64h4.64v4.64h4.64v-4.64h9.29v-4.64l-4.64,0v-4.64h4.64v4.64    h13.93v4.64l4.64,0v-4.64l4.64,0v-4.64h-4.64v-4.64l-9.29,0v-9.29h-18.58h-9.29v-4.64h-4.64H219.2v-4.64h18.58h4.64v-4.64l9.29,0    h9.29v-4.64l-37.14-0.01h9.29v-3.22h-4.64v-4.64h4.64v-4.64h4.64v-4.64h-27.86v4.64h-18.59v4.64h-9.29v-4.64h4.64v-8.43v-0.39    v-0.08v-4.17h4.64v-4.64h18.59v4.64h27.86v-4.64h-4.64v-4.63h-4.64v-4.66h4.64v-3.22l-0.01-0.01h23.22h4.64v-4.64h-9.29l-9.29,0    v-4.64v-4.64v-4.64h9.29h18.58v-9.29l9.29,0v-4.64h4.64v-4.64l-4.64,0v-4.64l-4.64,0v4.64h-13.93v4.64h-4.64v-4.64l4.64,0v-4.64    h-9.29v-4.64h-4.64v4.64h-4.64v-4.64h-18.58v-9.29h-23.22v-4.64l4.64,0v-4.64l-9.29,0v-4.64h13.93h18.58v4.64l9.29,0v-9.29    l-23.22,0v-4.64h23.22v-4.64l-18.58,0v-4.64h18.58v-4.64l-13.93,0v-4.64h18.58v-4.64h-4.64h-23.22v-4.64l9.29,0v-4.64h-4.64    h-18.58v-4.64h-9.29l0,0l0,0v-4.64h-9.29V94.4h13.93v-4.64h-4.64v-4.64h4.64v-4.64h-13.93v-9.29h4.64v4.64h4.64v-9.29h9.29v-4.64    h9.29v-4.64l4.64,0v-4.64h-4.64v-4.64h-4.64v4.64h-4.64v-4.64h-8.66v-0.01h-9.29v-4.64l4.64,0v-4.64h0h8.66h9.29v-4.63h4.66v-4.66    h-18.59v4.66h-23.22v-4.66h4.64v-4.64h13.93v-9.29h-4.64V10.8h-4.02v4.64H164.1v4.64h-8.31h-0.08h-5.43v4.64h4.64v4.64h0.79v4.64    h0.09l0,0h-0.01l-0.08,4.64v9.29h-0.8v-4.64l-23.22,0v-4.64h-4.64v-4.64h-4.64v4.64l-27.86,0v4.64l-9.29,0v-4.64H80.6l-4.64,0    v-6.61C66.96,36.14,58.82,40.03,52.98,43.31L52.98,43.31z M159.45,7.23c4.02,0.17,8.51,0.34,13.93,0.45v3.12h-13.93V7.23    L159.45,7.23z M311.5,99.04c-1.28,4.51-2.5,9.16-3.63,13.93h-0.42v-4.64l-4.64,0v-9.29H311.5L311.5,99.04z M304.22,131.55    c-0.47,3.06-0.88,6.16-1.22,9.29h-4.85v-4.64h-4.64v-4.64H304.22L304.22,131.55z M195.74,384.87v4.64h-4.63h-0.01v-4.64H195.74    L195.74,384.87L195.74,384.87L195.74,384.87z M191.34,327.55v-4.64h4.64l0,0l0,0v4.64h-4.63H191.34L191.34,327.55z M228.26,407.3    v0.28h-4.64v-4.64h4.64V407.3L228.26,407.3L228.26,407.3L228.26,407.3z M205.03,402.94h4.64v4.64h-4.36h-0.29L205.03,402.94    L205.03,402.94L205.03,402.94L205.03,402.94z M150.05,398.16l-18.6-0.02v-3.96h-4.64v-4.64l-4.64,0l0.02,4.63h-4.64v-4.64l-9.29,0    v-4.64h4.62v-4.63l9.31-0.01v4.64h9.29l4.64,0v4.64h13.93h4.64v4.64h-4.64V398.16L150.05,398.16z M112.9,398.16l-4.67-0.02v-3.96    l4.67-0.01V398.16L112.9,398.16z M228.26,366v0.28h-4.64v-4.64h4.64V366L228.26,366L228.26,366L228.26,366z M205.03,361.64h4.64    v4.64h-4.36h-0.29L205.03,361.64L205.03,361.64L205.03,361.64L205.03,361.64z M205.03,370.93h4.64v4.64h-4.36l-0.29,0    L205.03,370.93L205.03,370.93L205.03,370.93z M117.76,345.83v0.29l-4.64,0v-4.64h4.64V345.83L117.76,345.83L117.76,345.83    L117.76,345.83z M145.63,341.48h-8.99h-0.29v-4.64l9.29,0V341.48L145.63,341.48L145.63,341.48L145.63,341.48z M164.1,346.12v4.64    v0V346.12L164.1,346.12L164.1,346.12L164.1,346.12L164.1,346.12z M200.62,350.19v0.58h-4.64v-9.29h-4.64v-4.64l9.29,0V350.19    L200.62,350.19z M228.5,304.03v0.28h-4.64v-4.64h4.64V304.03L228.5,304.03L228.5,304.03L228.5,304.03z M214.57,285.74h37.15v4.64    l-36.87,0h-0.29L214.57,285.74L214.57,285.74L214.57,285.74L214.57,285.74z M205.27,299.67h4.64v4.64h-4.36h-0.29L205.27,299.67    L205.27,299.67L205.27,299.67L205.27,299.67z M205.27,308.96h4.64v4.64h-4.36l-0.29,0L205.27,308.96L205.27,308.96L205.27,308.96z     M168.74,99.04V94.4h0L168.74,99.04L168.74,99.04L168.74,99.04z M131.7,126.91h9.29v4.64l-9.29,0v4.64h-4.64v-9.29H131.7    L131.7,126.91z M191.33,126.91l-9.29,0v-4.64h13.93l9.29,0v4.64H191.33L191.33,126.91z M177.4,103.69v-4.64h4.64v4.64H177.4    L177.4,103.69z M191.33,61.88v-4.64h4.64v4.64H191.33L191.33,61.88z M117.76,136.49L117.76,136.49L117.76,136.49v4.35h-4.64v-4.64    l4.64,0V136.49L117.76,136.49z M145.63,140.84L145.63,140.84L145.63,140.84v4.64l-9.29,0v-4.64h0.29H145.63L145.63,140.84z     M200.62,132.14v13.35h-9.29v-4.64h4.64v-9.29l4.64,0V132.14L200.62,132.14z M228.5,178.28L228.5,178.28L228.5,178.28v4.36h-4.64    V178h4.64V178.28L228.5,178.28z M214.57,196.58L214.57,196.58L214.57,196.58l-0.01-4.64h0.29l36.87,0v4.64H214.57L214.57,196.58z     M205.27,182.65L205.27,182.65L205.27,182.65l-0.01-4.64h0.29h4.36v4.64H205.27L205.27,182.65z M205.27,173.36L205.27,173.36    l-0.01-4.64h0.29h4.36v4.64H205.27L205.27,173.36z M316.74,47.95h4.64v-4.64h-4.35h-0.28v4.64H316.74L316.74,47.95L316.74,47.95z     M288.87,66.54h4.64v-4.36v-0.29h-4.64V66.54L288.87,66.54L288.87,66.54L288.87,66.54z M270.29,43.32H261v4.64h9.29l4.64,0v4.64    h4.64h4.64v4.64l-4.35,0h-0.29v4.64h-9.29v4.64h9.29v-4.35v-0.29h4.64v-4.64h9.29v-4.64l-4.64,0v-4.64h-4.64v-4.64h4.64v-4.64    l-4.64,0v4.35v0.29L270.29,43.32z"/>
		<path fill-rule="evenodd" clip-rule="evenodd" fill="#CCCCCC" d="M81.91,29.37c12.09-5.4,25.08-10.99,35.74-15.86l0.11-0.05v1.98    h9.29V10.8h-3.33c3.6-1.59,7.04-3.09,9.59-4.21c9.88-0.18,16.68,0.24,26.15,0.64v3.57l13.93,0h4.02V7.75    c3.44,0.05,7.22,0.08,11.44,0.08h0.31c10.78,0,18.78-0.2,25.4-0.44v3.43h4.64v4.64h4.64v-4.64h-4.64V7.21    c9.38-0.4,16.27-0.8,26-0.62c3.98,1.76,9.6,4.41,15.15,6.93c7.23,3.3,15.52,6.93,23.88,10.61v5.25h-4.64v9.29h-9.29v-4.62h-0.01    v4.64h-18.58v4.64l-9.29,0v9.26h0.01v4.64h-4.64v-4.62h-0.01v4.64h4.64v4.64h4.64v4.64h4.64v-4.64h4.64v9.29l9.29,0v4.64l27.86,0    h4.64h4.64v4.64h9.29v-4.64h4.64v-9.29h4.64v-4.64v-4.64h3.11C321.1,68.99,316,83.17,311.5,99.04h-8.7v9.29h4.66v4.64h-4.66v4.64    h4.03c-0.99,4.55-1.87,9.2-2.6,13.93h-10.71v4.64l4.64,0v4.64H303c-0.65,6.06-1.02,12.24-1.02,18.51l0,0.07h-13.1v0.01v4.64    l-4.64,0v4.64h9.29v4.64h4.64l0-4.64h-4.64v-4.64h8.31c-0.14,4.69-0.37,12.71-0.61,23.22l-3.07,0v4.64h2.96    c-0.22,9.94-0.44,21.74-0.63,34.86h-2.33v0.87v4.64h-4.64v-4.64h0v3.77h-4.64v4.64l11.5,0c-0.04,3.04-0.07,6.14-0.1,9.29h-16.05    l0,0l0,0v-4.64h-9.29v-3.78H261v-4.64h-18.57v-4.63h-4.64v-3.23h18.58v-4.64H261v-4.64v-4.64h-9.29v4.64h-9.29v-4.64v-4.64v-4.64    h9.29h18.58h0.01v-9.29h9.29v-4.64h4.64v-4.64l-4.64,0V178h-4.64v4.64h-13.93V178v-4.64H261V178h-9.29v-4.64h-4.63V178h-4.64    v-4.64h-18.58v-9.29h-23.22v-4.64l4.64,0v-4.64h4.64v-4.64h18.57v4.64h9.29v-9.29h-23.22v-4.64h23.22v-4.64l-18.58,0v-4.64h18.58    v-4.64l-13.93,0v-4.64h18.56v-0.01h0.01v-4.63h13.92v-0.01h-13.93h-4.64v-4.64h-13.93v-4.64h-4.63h-0.01h-18.56v-4.64h9.29v-4.64    l-18.58,0h-9.29V94.4H196v-4.64c43.38,0,43.31,0-0.02,0h-4.64v-4.64h4.64v-4.64h-13.93v-9.29h4.64v4.64h4.64v-9.29h9.29v-4.64    l9.29-0.02c0,11.68,0-1.25,0-4.61l4.64,0v-4.64c19.19,0,0,0,0,0l-4.64,0v-4.64v-0.02h-4.64v4.64h-4.64v-4.64v-4.63h-4.64v-4.66    h9.29v-4.63h4.64V29.4v-0.02h-18.58v4.66h-23.22v-4.66h4.64v-4.64h13.93h9.29v-4.64h4.64v-9.26h-13.93v4.64l-4.64,0v-4.64h-4.02    v4.62H164.1v4.64l-8.39,0l0,0h-5.42H141v4.64h-13.93v4.64l13.93,0v-4.64l9.29,0h4.64v4.64l0.87,0v4.64h-0.87h-4.64v4.64h4.64h0.87    v9.29h-0.87v-4.64h-23.22v-4.64l-4.64,0v-4.64h-4.64v-4.64h-4.64v4.64h4.64v4.64H94.54v4.64l-9.29,0v-4.64l-4.64,0v-4.64h13.93    v-4.64H81.91L81.91,29.37z M307.88,112.98h-0.42v1.81C307.59,114.18,307.73,113.58,307.88,112.98L307.88,112.98z M300.17,259.31    h-2.01v-4.64v-4.64h-4.64v4.64h0h-13.93v-4.64h-4.64v-4.64H261v4.64h-18.57v4.64h-4.64v3.22h18.58v4.64H261h9.29v13.93h-18.58    v4.64h18.58h0.01v9.29h9.29v4.64h4.64v4.64l-4.64,0v4.64h-4.64v-4.64h-13.93v4.64v4.64h4.64v4.64l-9.29,0v-4.64h-4.64l-4.64,0    v-4.64h-4.64v4.64h-18.58v9.29h-23.22v4.64l4.64,0v4.64h4.64v4.64h18.57v-4.64h9.29v9.29h-23.22v4.64h23.22v4.64l-18.58,0v4.64    h18.58v4.64h-13.93v1.44h18.56h36.92V357H284v4.64l-4.64,0v4.64h-4.64v-4.64h-13.93v4.64v4.64h4.64v4.64l-9.29,0v-4.64h-4.64    h-4.64v-4.64h-4.64v4.64h-18.58v9.29h-23.22v4.64l4.64,0v4.64h4.64v4.64h18.58v-4.64h9.29v8.65h4.64h27.86h9.29v0.14H284v4.64    l-4.64,0v2.19c3.51-0.68,6.73-1.41,9.62-2.19h-0.34v-4.79h0.01l0,0l4.63-0.02h0h0v3.51c4.19-1.4,7.41-2.94,9.41-4.63    c-1.71-32.23-2.4-68.1-2.55-102h-1.98v-4.64h1.97C300.09,279.75,300.11,269.33,300.17,259.31L300.17,259.31z M274.71,405.98    c-4.32,0.73-8.99,1.39-13.95,1.97l0-0.36l0-4.64l13.95,0V405.98L274.71,405.98z M246.84,409.35c-1.53,0.13-3.08,0.25-4.64,0.37    v-2.13h4.64V409.35L246.84,409.35z M159.45,196.58v-4.64h-3.75v4.64h-10.08v9.29h4.64v4.64h-23.22v4.64h-9.29v4.64H99.19v-4.64    h1.16h8.13v-4.64h4.64v-4.64H99.19v4.64h-4.64v4.64H89.9v3.22h-4.66v4.64h4.66v6.07h9.29v4.64h23.22v-1.43v-3.22h-9.29v-1.41    v-3.23v-1.43h9.29v-3.22h27.86v-4.64h5.43l0,0h3.75v-9.29h4.64v-4.64h-4.64V196.58L159.45,196.58z M256.36,187.29H261v-4.64h-4.64    V187.29L256.36,187.29z M223.85,250.02h4.64v4.64h4.64v-4.64h4.64v-4.64h-4.64h-4.64v-8.43h-4.64v3.78h-4.64v4.64h4.64V250.02    L223.85,250.02z M274.94,164.07h4.64v-0.01h-4.64v4.66h0V164.07L274.94,164.07z M279.58,201.22v4.64h0.01v-4.64H279.58    L279.58,201.22z M274.95,205.87h-0.01v4.64h0.01V205.87L274.95,205.87z M288.87,208.22h4.64v-2.06v-0.28h-4.64V208.22    L288.87,208.22z M265.65,168.71v4.64h0.01l0-4.64H265.65L265.65,168.71z M242.44,126.91v0.01h4.63v-0.01H242.44L242.44,126.91z     M247.07,126.91h0.01v-4.63h-0.01V126.91L247.07,126.91z M247.07,140.84h-4.63v0.01h4.64L247.07,140.84L247.07,140.84z     M251.72,136.21v4.63l0.01,0.01v-4.64l4.64,0v-4.64h-0.01v4.63h-4.63v0.01H251.72L251.72,136.21z M274.94,131.56v4.63h0.01v-4.63    H274.94L274.94,131.56z M270.29,136.2h-9.28v0.01h9.28V136.2L270.29,136.2z M247.08,131.55v0.01l4.63,0v-0.01H247.08    L247.08,131.55z M251.72,131.55h0.01v-4.63h-0.01V131.55L251.72,131.55z M256.37,122.26v0.01h4.64v-4.64h18.56v-0.01h4.64v-9.29    h-4.64v9.29H261v4.64H256.37L256.37,122.26z M270.3,140.84v0.01l4.63,0v-0.01H270.3L270.3,140.84z M274.95,145.48v0.01h13.93v4.63    h4.63v-4.64h-4.64H274.95L274.95,145.48z M270.3,85.11L270.3,85.11l-4.64,0v4.64h4.64v-4.35V85.11    C283.8,85.11,282.29,85.11,270.3,85.11L270.3,85.11z M279.58,94.4v4.64h4.64h0.01V94.4h-4.64H279.58L279.58,94.4z M288.87,122.26    L288.87,122.26l0,4.64h0V122.26L288.87,122.26z M242.42,34.04v-0.01C235.44,34.03,236.69,34.04,242.42,34.04L242.42,34.04z     M274.92,34.03h0.01v-4.66h-9.29v-4.64H261v0.02l4.63,0v4.64l9.29,0V34.03L274.92,34.03z M260.99,29.37    c-13.45,0-11.88,0.02,0,0.02V29.37L260.99,29.37z M228.5,29.67v-0.28h-9.29v4.64l9.29,0V29.67L228.5,29.67L228.5,29.67    L228.5,29.67z M242.44,150.14h23.22h4.64v-4.64h-0.01v4.64h-4.64L242.44,150.14L242.44,150.14z M293.51,182.93v-0.29l-4.64,0v9.29    h4.64L293.51,182.93L293.51,182.93L293.51,182.93L293.51,182.93z M289.16,196.58h-0.29v4.64h9.29v-4.64H289.16L289.16,196.58    L289.16,196.58L289.16,196.58z M136.34,154.78v4.63h-4.64v4.66h13.93v-4.66h4.64v-4.63H136.34L136.34,154.78z M136.34,140.84v4.66    h9.29v-4.66h-8.99H136.34L136.34,140.84z M288.63,356.84h0.24h4.4v4.52l0,0l0,0v0.28h-4.64V356.84L288.63,356.84z M279.58,281.1    v-4.64h0.01v4.64L279.58,281.1L279.58,281.1z M274.95,276.45h-0.01v-4.64h0.01V276.45L274.95,276.45z M284.22,271.81v-4.64h0.01    v4.64H284.22L284.22,271.81z M288.87,271.81h4.64v4.35v0.29h-4.64V271.81L288.87,271.81L288.87,271.81L288.87,271.81z     M293.51,299.39v0.28h-4.64v-9.29h4.64V299.39L293.51,299.39L293.51,299.39L293.51,299.39z M289.16,285.74h-0.29v-4.64h9.29v4.64    H289.16L289.16,285.74L289.16,285.74z"/>
		<g>
			<polygon fill-rule="evenodd" clip-rule="evenodd" fill="#A4DB4C" points="72.11,73.97 72.11,80.23 73.19,80.23 73.19,84.88      68.54,84.88 68.54,80.25 67.47,80.25 67.47,75.6 62.83,75.6 62.83,70.96 71.4,70.96 71.4,73.97 71.52,73.97    "/>
			<path fill-rule="evenodd" clip-rule="evenodd" fill="#A4DB4C" d="M69.15,59.72h-0.01v0L69.15,59.72v1.71l-9.3-0.1v-1.62h-4.57     l-0.05-2.95v-2.13l0,0v-1.87H55.2h-2.92c-0.71-2.73-1.3-5.31-1.72-7.72v-0.33c2.77-1.67,6.27-3.53,10.28-5.53v3.67h3.84v4.64     v4.64h0.11h4.35v4.64V59.72z"/>
			<polygon fill-rule="evenodd" clip-rule="evenodd" fill="#A4DB4C" points="162,98.94 166.64,98.94 166.64,94.4 168.74,94.4      168.79,94.4 173.38,94.4 173.38,89.76 169.03,89.76 168.79,89.76 168.74,89.76 164.44,89.76 164.14,89.76 164.14,94.3 162,94.3         "/>
			<polygon fill-rule="evenodd" clip-rule="evenodd" fill="#A4DB4C" points="162.82,313.58 162.9,318.1 176.74,318.24 176.74,313.6      176.74,308.96 172.4,308.96 172.28,308.96 172.28,304.31 172.28,299.67 168.44,299.67 168.44,295.02 168.44,290.38      164.09,290.38 163.97,290.38 163.97,285.73 163.97,281.09 160.31,281.09 160.31,276.45 160.31,271.8 155.96,271.8 155.85,271.8      155.85,267.16 155.85,262.52 152.01,262.52 152.01,257.87 152.01,253.23 147.66,253.23 147.54,253.23 147.54,248.58      147.54,243.94 143.19,243.94 142.9,243.94 138.55,243.94 138.26,243.94 138.24,239.92 138.24,235.27 133.89,235.27 133.6,235.27      129.25,235.27 128.96,235.27 128.96,239.92 128.96,244.56 133.42,244.56 133.42,249.21 133.42,253.85 137.26,253.85      137.26,258.49 137.26,263.14 141.73,263.14 141.73,267.78 141.73,272.43 145.39,272.43 145.39,277.07 145.39,281.71      149.85,281.71 149.85,286.36 149.85,291 153.69,291 153.69,295.65 153.69,300.29 158.16,300.29 158.16,304.93 158.16,309.58      162.8,309.58 162.82,309.58    "/>
			<path fill-rule="evenodd" clip-rule="evenodd" fill="#A4DB4C" d="M284.3,24.16v0.91h-5.39v0.27v4.36h-4.64v-0.01h-1.84v4.59     h-3.69v4.18h-4.64v-0.01h-1.84v4.59h-5.39v0.27v4.36h-4.64v-0.01h-1.84v4.59h-6.87v0.23v4.36h-4.64v-0.01h-1.84v4.59h-5.39v0.27     v4.36H227v-0.01h-1.84v4.59h-9.29v-2.14h-2.34v-4.48h-1.77v-2.12l-2.33,0l-0.01-4.67h4.64h2.01v-4.59h0.29h4.92v-4.62h4.64h2.01     v-4.59h0.29h6.41v-4.58h4.64h2v-4.59h0.29h4.92v-4.62h4.64h2.01v-4.59h0.29h3.23v-4.17h4.64h2.01V16.3h0.29h2.88     C272.15,18.82,278.21,21.47,284.3,24.16z"/>
			<path fill-rule="evenodd" clip-rule="evenodd" fill="#A4DB4C" d="M103.96,136.56l-11.11,0l0,0.49l11.1-0.48v5.53v5.55h0.14h5.19     v5.55v5.55h4.59v5.55v5.55h0.14h5.19v5.55v5.54h1.39v5.56h2.99v5.53h0.14h5.19v5.55v0.01l-0.04,6.28h-12.24v0l-5.33,0v-5.55     v-5.55h-4.59v-5.55v-5.55h-5.33v-5.55v-5.54h-4.37v-5.55v-5.55h-5.33v-5.55v-5.55h-4.59v-0.73c0.04,0,0.03-2.82,0.02-5.56h-0.02     v-4.72v-0.09h-5.33v-0.74h0v-4.8v-0.72v-0.02v-4.8h0.35h5.19h0.35h5.19v4.8v0.01v0.73l0,0.24l0.01,4.56h0.35h5.19h0.35     L103.96,136.56L103.96,136.56z"/>
			<path fill-rule="evenodd" clip-rule="evenodd" fill="#A4DB4C" d="M213.96,411.21v-3.42v-4.64h-3.66v-4.64v-4.64h-4.35h-0.11     v-4.64v-4.64H202v-4.64v-4.64h-4.35h-0.11v-4.64v-3.94h-14.12v4.57v4.64h3.84v4.64v4.64h4.46v4.64v4.64h3.66v4.64v4.64h4.46v4.64     v3.11C204.58,411.47,209.3,411.36,213.96,411.21z"/>
		</g>
	</g>
	<path fill-rule="evenodd" clip-rule="evenodd" fill="#DCDDDD" d="M149.33,11.67c8.45,14.62,23.39,22.27,39.92,28.55   c16.55-6.29,31.48-13.92,39.92-28.56c-8.65,1.66-21.45,3.09-39.92,3.09C170.78,14.75,157.99,13.33,149.33,11.67z"/>
	
		<path fill-rule="evenodd" clip-rule="evenodd" fill="#333334" stroke="#DCDDDD" stroke-width="0.22" stroke-linecap="round" stroke-linejoin="round" stroke-miterlimit="22.9256" d="   M189.26,3.32c-17.28,0-41.78-2.53-44.66-2.93c0,0-5.53,4.46-11.29,6.19c0,0,11.78,8.17,55.95,8.17c44.17,0,55.95-8.17,55.95-8.17   c-5.76-1.72-11.29-6.19-11.29-6.19C231.02,0.79,206.54,3.32,189.26,3.32z"/>
	
		<path fill-rule="evenodd" clip-rule="evenodd" fill="#333334" stroke="#DCDDDD" stroke-width="0.22" stroke-linecap="round" stroke-linejoin="round" stroke-miterlimit="22.9256" d="   M189.26,52.67c23.96-5.08,48.15-22.11,55.95-46.09c-4.43-2.13-11.29-6.19-11.29-6.19c-6.4,22.33-24.3,32.08-44.66,39.82   C168.93,32.49,150.99,22.7,144.6,0.4c0,0-6.86,4.05-11.29,6.19C141.22,30.94,164.91,47.52,189.26,52.67z"/>
	
	
		<path fill-rule="evenodd" clip-rule="evenodd" fill="#333333" stroke="#DCDDDD" stroke-width="0.22" stroke-linecap="round" stroke-linejoin="round" stroke-miterlimit="22.9256" d="   M50.51,44.75C40.31,57.51,21.26,77.06,0.16,163.77c0,0,29.08,23.29,65.98,24.31c0,0,7.14-20.75,9.86-28.74   C76,111.74,54.77,69.42,50.51,44.75z"/>
	<path fill-rule="evenodd" clip-rule="evenodd" d="M370.15,134.67h-5.61l0-13.93h-4.64v-4.64h-4.64h-4.64h0h-9.29v-4.64h-4.64v-4.64   h4.64v-4.64h4.64l0-4.64h-4.64l0-4.64h4.64l0-9.29h-4.64l0-10.16l0,0v-3.67h-4.64l0,0l0,0l0,0v-4.64h-4.64h0h-4.64v4.64h-6.76   c2.99-9.3,5.51-17.52,6.76-24.41v1.82h2.08c0.81,1,1.67,2.05,2.57,3.18v1.47h1.15C342.39,63.65,355.54,83.96,370.15,134.67   L370.15,134.67z M317.66,78.95h0.42l0,9.29h-3.36C315.71,85.05,316.69,81.95,317.66,78.95L317.66,78.95z M313.44,92.45l0,5.07   h-1.49C312.44,95.81,312.94,94.12,313.44,92.45L313.44,92.45z M308.8,109.23v6.87h-1.63C307.69,113.78,308.23,111.49,308.8,109.23   L308.8,109.23z M304.15,132.07v7.25h-0.97C303.46,136.88,303.79,134.46,304.15,132.07L304.15,132.07z M302.11,153.26h2.04v9.29   h-1.06l-1.1-3.21C302,157.3,302.04,155.28,302.11,153.26L302.11,153.26z M330.25,185.77c-3.91,0.86-7.98,1.52-12.17,1.92v-1.92   h-4.64v2.25c-0.53,0.02-1.06,0.04-1.59,0.06l-3.06-8.89v-2.7h9.29h4.64v-4.64h4.64v13.93H330.25L330.25,185.77z M332.03,60.48   L332.03,60.48l-4.64,0v0H332.03z"/>
	<path fill-rule="evenodd" clip-rule="evenodd" fill="#CCCCCC" d="M327.5,44.75c0.62,0.77,1.27,1.57,1.95,2.4h-2.06v-1.79   C327.42,45.15,327.46,44.95,327.5,44.75L327.5,44.75z M369.18,131.34c0.78,2.66,1.57,5.42,2.37,8.26h-0.94v4.64h2.22   c-0.37-1.37-0.74-2.72-1.12-4.06h-7.17v-0.87h4.64V131.34L369.18,131.34z M309.34,107.08c0.53-2.06,1.08-4.1,1.64-6.12v6.12H309.34   L309.34,107.08z M370.6,147.09v-2.84h-4.64v-4.64l-4.64,0v-4.64H338.1v-4.64h-0.87v9.29h0.87h4.64v4.64h-4.64h-0.87v2.84H370.6   L370.6,147.09z M324.91,147.09h-18.25v-2.86h18.25V147.09L324.91,147.09z M341.32,92.87h-13.93v-4.63h4.64v-4.66h13.93v4.66h-4.64   V92.87L341.32,92.87z M341.32,106.81h-0.29h-8.99v-4.66h9.29V106.81z"/>
	<path fill-rule="evenodd" clip-rule="evenodd" d="M45.89,50.46h5.81c1.63,6.77,4.14,14.57,6.93,23.22h-4.6v-4.64h-9.29v-9.29h-5.66   C41.55,56.06,43.83,53.05,45.89,50.46L45.89,50.46z M71.94,171.21h-8.61v4.64h-9.29v-4.64H49.4v-4.64l9.29,0v-4.64h4.64v4.64h4.64   v-4.64h4.64v-4.64H54.05v4.64H49.4v-4.64H35.46v-13.93l13.93,0v-4.64h4.64v-4.64v-4.64v0v-9.29h4.64v-4.64h4.64v4.64h4.64v4.64   l4.64,0c0.85,4.56,1.57,9.21,2.13,13.93h-2.13h-4.64v9.29h4.64v-4.64h2.63c0.49,5.25,0.77,10.59,0.77,16   C75.04,162.19,73.51,166.65,71.94,171.21L71.94,171.21z M63.08,87.61h-9.04v-4.64v-4.64h6.1C61.1,81.33,62.09,84.42,63.08,87.61   L63.08,87.61z M30.88,73.68c-0.77,1.47-1.55,3.02-2.35,4.64h2.28v4.64h13.93v-4.64l-9.29,0v-4.64H30.88L30.88,73.68z M16.21,108.33   v7.77h-2.64C14.46,113.4,15.34,110.81,16.21,108.33L16.21,108.33z M58.68,148.28v-0.29l-4.64,0v4.64h4.64V148.28L58.68,148.28   L58.68,148.28z"/>
	<path fill-rule="evenodd" clip-rule="evenodd" fill="#CCCCCC" d="M50.5,44.75c-1.38,1.73-2.92,3.58-4.61,5.7h5.81   C51.22,48.47,50.82,46.56,50.5,44.75L50.5,44.75z M6.46,139.61c-0.68,2.43-1.36,4.92-2.04,7.49h13.24v-2.84h13.93v-4.64l-4.64,0   v-4.64l-9.29,0v4.64H6.46L6.46,139.61z M0.48,162.49l-0.32,1.28c0,0,0.11,0.09,0.32,0.25V162.49L0.48,162.49z M46.17,97.18v13.93   h-4.63v-4.64h-4.66V92.54h4.66v4.64H46.17L46.17,97.18z M60.12,97.18v0.29v8.99h-4.66v-9.29H60.12z"/>
</g>
<g id="图层_x0020_1">
	<path fill="#F08300" d="M177.44,32.33c0.416,1.136,1.472,1.984,2.752,2.032c0.144,0,0.304,0,0.448-0.016h0.016   c0.016,0,0.064,0,0.128-0.016c0.032,0,0.048-0.016,0.08-0.016c0.064-0.016,0.144-0.032,0.224-0.048c0.016,0,0.016,0,0.032,0   c0.192-0.048,0.4-0.112,0.576-0.208c0.192-0.096,0.4-0.224,0.608-0.384c0.672-0.56,1.104-1.408,1.104-2.352   c0-0.224-0.032-0.448-0.08-0.672l0,0C183.28,30.45,183.23,30.28,183.15,30.1C182.68,29.01,181.6,28.25,180.33,28.25C178.64,28.25,177.26,29.62,177.26,31.32C177.26,31.67,177.32,32.01,177.44,32.33L177.44,32.33L177.44,32.33z M181.74,31.35L181.74,31.35C181.71,32.13,181.05,32.73,180.27,32.69C179.48,32.66,178.89,32.01,178.92,31.22c0.032-0.784,0.688-1.376,1.472-1.344   C181.16,29.91,181.77,30.58,181.74,31.35L181.74,31.35z"/>
	<polygon fill="#F08300" points="195.77,28.93 ,195.13,30.52 ,193.69,30.52 ,192.27,34.07 ,190.32,34.07 ,191.72,30.52 ,190.14,30.52    ,190.78,28.93"/>
	<path fill="#F08300" d="M197.74,24.2c-1.008-0.096-3.024-0.144-5.056,0.112c-2.416,0.304-5.152,0.912-7.616,1.664   C183.02,26.58,181.15,27.3,179.8,28.07C180,28.04,180.19,28.02,180.38,28.02c0.48,0,0.944,0.112,1.36,0.288   C185.84,25.99,193.04,23.94,197.74,24.2L197.74,24.2L197.74,24.2z"/>
	<path fill="#F08300" d="M183.21,29.67c4-2.368,8.88-4.672,13.488-5.248c-4.608,0.288-10.224,2-14.288,4.304   C182.73,28.98,183,29.3,183.21,29.67C183.21,29.67,183.21,29.67,183.21,29.67z"/>
	<polygon fill="#F08300" points="201.26,28.93 ,200.64,30.52 ,199.18,30.52 ,197.77,34.07 ,197.31,34.07 ,195.8,34.07 ,194.11,34.07    ,194.7,32.57 ,196.41,32.57 ,197.23,30.52 ,195.64,30.52 ,196.28,28.93"/>
	<polygon fill="#F08300" points="190.35,28.93 ,189.71,30.52 ,187.42,32.63 ,189.68,32.63 ,189.1,34.07 ,183.61,34.07 ,187.28,30.52    ,184.7,30.52 ,185.34,28.93"/>
	<path fill="#F08300" d="M195.63,24.79c-3.376,0.752-6.464,2.192-9.424,3.952h1.888C190.52,27.17,192.86,25.74,195.63,24.79z    M184.83,29.61C184.2,29.99,184.14,30.04,183.53,30.45c0.064,0.256,0.112,0.544,0.112,0.816c0,0.496-0.112,0.976-0.32,1.392   c0.176-0.16,0.32-0.304,0.432-0.4c0.272-0.24,0.768-0.64,1.6-1.296l0.32-0.256H184.35l0,0L184.83,29.61L184.83,29.61L184.83,29.61z"/>
</g>
</svg>