<?xml version="1.0" encoding="utf-8"?>
<!-- Generator: Adobe Illustrator 23.0.0, SVG Export Plug-In . SVG Version: 6.00 Build 0)  -->
<svg version="1.1" id="图层_1" xmlns="http://www.w3.org/2000/svg" xmlns:xlink="http://www.w3.org/1999/xlink" x="0px" y="0px"
	 width="378px" height="412px" viewBox="0 0 378 412" enable-background="new 0 0 378 412" xml:space="preserve">
<g>
	
		<path fill-rule="evenodd" clip-rule="evenodd" fill="#0F233F" stroke="#DDDEDD" stroke-width="0.22" stroke-linecap="round" stroke-linejoin="round" stroke-miterlimit="22.9256" d="
		M75.38,396.89c5.36-100.93,0.7-237.52,0.7-237.52c0-0.25,0-0.49-0.01-0.73c20.15-59.4,9.25-109.77,81.34-145.57
		c2.59-1.28,7.26-1.87,6.23-3.45c-0.42-0.64-0.8-1.36-1.17-2.15c6.75,0.26,14.96,0.49,26.36,0.49h0.31c11.58,0,19.94-0.23,26.83-0.5
		c-0.57,0.64-1.11,1.36-1.64,2.16c-1.03,1.58,3.64,2.16,6.23,3.45c72.09,35.8,61.19,86.17,81.34,145.57c0,0.25-0.01,0.49-0.01,0.73
		c0,0-4.66,136.58,0.7,237.52C279.56,416.32,98.44,416.32,75.38,396.89z"/>
	<g>
		<path fill-rule="evenodd" clip-rule="evenodd" fill="#FFFFFF" d="M99.73,70.66c7.5-17.89,19.31-34.1,41.35-48.35h95.82
			c22.04,14.25,33.85,30.46,41.35,48.35H99.73z"/>
		<path fill-rule="evenodd" clip-rule="evenodd" fill="#FFFFFF" d="M76.38,169.14c-0.18-6.27-0.3-9.77-0.3-9.77
			c0-0.25,0-0.49-0.01-0.73c4.43-13.07,7.37-25.71,10.01-37.85h205.81c2.64,12.14,5.57,24.77,10.01,37.85
			c0,0.25-0.01,0.49-0.01,0.73c0,0-0.12,3.5-0.3,9.77H76.38z"/>
		<path fill-rule="evenodd" clip-rule="evenodd" fill="#FFFFFF" d="M300.25,319.87c0.21,16.18,0.56,32.48,1.1,48.35h-40.8
			c-12.55-19.03-26.44-34.24-39.47-48.35H300.25z"/>
		<path fill-rule="evenodd" clip-rule="evenodd" fill="#FFFFFF" d="M300.5,219.8c-0.23,14.54-0.4,30.95-0.46,48.37l-160.33,0.14
			c-25.65-19.79-33.09-31.09-44.17-48.61l12.17,0.08L300.5,219.8z"/>
	</g>
	<g>
		<path fill-rule="evenodd" clip-rule="evenodd" fill="#FDD100" d="M76.94,191.69c-0.44-19.98-0.86-32.32-0.86-32.32
			c0-0.25,0-0.49-0.01-0.73c18.8-55.41,10.58-102.97,67.92-138.16l0.12,0.11l3.18,2.91c-30.11,18.46-51.59,52.51-59.64,91.09
			c-4.05,19.43-8.45,43.14-5.07,63.46c5.95,35.81,23.51,63.77,57.8,90.26C140.39,268.31,97.14,239.17,76.94,191.69z"/>
		<path fill-rule="evenodd" clip-rule="evenodd" fill="#FDD100" d="M264.93,407.28c-1.96,0.26-3.99,0.5-6.05,0.74
			c-7.78-22.08-32.24-65.45-109.2-123.2C149.69,284.81,237.85,335.81,264.93,407.28z"/>
	</g>
	
		<path fill-rule="evenodd" clip-rule="evenodd" fill="#0F233F" stroke="#DDDEDD" stroke-width="0.22" stroke-linecap="round" stroke-linejoin="round" stroke-miterlimit="22.9256" d="
		M327.66,44.85c10.2,12.74,29.23,32.28,50.3,118.94c0,0-29.06,23.28-65.94,24.3c0,0-7.13-20.73-9.85-28.72
		c-20.49-59.72-9.19-110.36-81.59-146.3c-2.59-1.28-7.26-1.87-6.23-3.45c5.36-8.23,13.13-7.47,17.75-6.01
		c9.6,3.37,3.14-1.18,12.56,3.1C266.51,16.69,314.03,36.63,327.66,44.85z"/>
	<path fill-rule="evenodd" clip-rule="evenodd" fill="#FFFFFF" d="M376.68,158.6c0.43,1.71,0.85,3.43,1.28,5.19
		c0,0-29.06,23.28-65.94,24.3l-2.07-6.02c3.26-0.17,6.82-0.38,7.91-0.49c27.31-2.59,50.94-17.57,57.97-22.42
		C376.06,159,376.35,158.81,376.68,158.6z"/>
	
		<path fill-rule="evenodd" clip-rule="evenodd" fill="#0F233F" stroke="#DDDEDD" stroke-width="0.22" stroke-linecap="round" stroke-linejoin="round" stroke-miterlimit="22.9256" d="
		M50.35,44.85C40.15,57.59,21.11,77.13,0.04,163.79c0,0,29.06,23.28,65.94,24.3c0,0,7.13-20.73,9.85-28.72
		c20.49-59.72,9.2-110.36,81.59-146.3c2.59-1.28,7.26-1.87,6.23-3.45c-5.36-8.23-13.13-7.47-17.75-6.01
		c-9.6,3.37-3.14-1.18-12.56,3.1C111.49,16.69,63.97,36.63,50.35,44.85z"/>
	<path fill-rule="evenodd" clip-rule="evenodd" fill="#FFFFFF" d="M1.32,158.6c-0.43,1.71-0.85,3.43-1.28,5.19
		c0,0,29.06,23.28,65.94,24.3l2.07-6.02c-3.26-0.17-6.82-0.38-7.91-0.49c-27.31-2.59-50.94-17.57-57.97-22.42
		C1.94,159,1.65,158.81,1.32,158.6z"/>
	<path fill-rule="evenodd" clip-rule="evenodd" fill="#DDDEDD" d="M148.88,11.74l0.21,0.37c0.8,1.37,1.71,2.75,2.77,4.16
		c5.96,7.87,16.62,16.25,37.14,24.05c20.52-7.8,31.18-16.17,37.14-24.05c1.06-1.4,1.98-2.79,2.77-4.16l0.21-0.37
		c-8.65,1.68-21.51,3.13-40.13,3.13C170.38,14.87,157.52,13.42,148.88,11.74z"/>
	
		<path fill-rule="evenodd" clip-rule="evenodd" fill="#102440" stroke="#D3D4D5" stroke-width="0.1621" stroke-linecap="round" stroke-linejoin="round" stroke-miterlimit="22.9256" d="
		M189,3.45c-17.27,0-41.75-2.53-44.63-2.92c0,0-5.53,4.46-11.28,6.18c0,0,11.77,8.16,55.91,8.16s55.91-8.16,55.91-8.16
		c-5.75-1.72-11.28-6.18-11.28-6.18C230.75,0.92,206.27,3.45,189,3.45z"/>
	
		<path fill-rule="evenodd" clip-rule="evenodd" fill="#102440" stroke="#DDDEDD" stroke-width="0.22" stroke-linecap="round" stroke-linejoin="round" stroke-miterlimit="22.9256" d="
		M189,52.77c2.82-0.6,5.68-1.36,8.52-2.27c14.44-5.88,29.2-14.14,38.65-26.62c0.4-0.53,0.79-1.06,1.17-1.6
		c0.87-1.24,1.69-2.52,2.45-3.83c1.16-2,2.19-4.08,3.09-6.21c0.56-1.33,1.07-2.67,1.53-4.04c0.1-0.29,0.2-0.58,0.29-0.86
		c0.02-0.07,0.04-0.14,0.07-0.2c0.03-0.09,0.06-0.18,0.09-0.27c0-0.01,0.01-0.02,0.01-0.03c0.01-0.04,0.03-0.08,0.04-0.12
		c-4.43-2.13-11.28-6.18-11.28-6.18c-0.23,0.8-0.48,1.62-0.74,2.46c-0.45,1.41-0.97,2.86-1.6,4.35c-0.65,1.55-1.43,3.15-2.37,4.77
		c-0.79,1.37-1.71,2.75-2.77,4.16c-5.96,7.87-16.62,16.25-37.14,24.05c-20.52-7.8-31.18-16.17-37.14-24.05
		c-1.06-1.4-1.98-2.79-2.77-4.16c-0.94-1.63-1.72-3.22-2.37-4.77c-0.63-1.49-1.15-2.94-1.6-4.35c-0.27-0.84-0.51-1.66-0.74-2.46
		c0,0-6.86,4.05-11.28,6.18c0.01,0.04,0.03,0.08,0.04,0.12c0,0.01,0.01,0.02,0.01,0.03c0.03,0.09,0.06,0.18,0.09,0.27
		c0.02,0.07,0.04,0.14,0.07,0.2c0.1,0.29,0.19,0.58,0.29,0.86c0.47,1.36,0.97,2.71,1.53,4.04c0.9,2.13,1.93,4.21,3.09,6.21
		c0.76,1.31,1.58,2.59,2.45,3.83c0.38,0.54,0.77,1.08,1.17,1.6c9.46,12.48,24.21,20.75,38.65,26.62
		C183.33,51.41,186.18,52.17,189,52.77z"/>
	<rect x="177.14" y="19.2" fill-rule="evenodd" clip-rule="evenodd" fill="#091B34" width="23.71" height="10.05"/>
</g>
</svg>
