<?xml version="1.0" encoding="utf-8"?>
<!-- Generator: Adobe Illustrator 23.0.0, SVG Export Plug-In . SVG Version: 6.00 Build 0)  -->
<svg xmlns="http://www.w3.org/2000/svg" xmlns:xlink="http://www.w3.org/1999/xlink" version="1.1" id="图层_1" x="0px" y="0px" width="297.02px" height="537.6px" viewBox="0 0 297.02 537.6" enable-background="new 0 0 297.02 537.6" xml:space="preserve">
<g>
	
		<path fill-rule="evenodd" clip-rule="evenodd" fill="#162E51" stroke="#DCDDDD" stroke-width="0.2248" stroke-miterlimit="22.9256" d="   M265.64,147.21c0,0-13.43,38.68-13.43,97.97s1.97,144.19,44.56,271.29c0,0-24.02,10.29-50.83,13.85   c-9.3-142.7-51.34-284.15-10.46-427.84C242.81,119.35,253.4,134.58,265.64,147.21z"/>
	<path fill-rule="evenodd" clip-rule="evenodd" fill="#00778E" d="M235.48,102.48c-10.31,36.24-15.35,72.35-16.96,108.36   c-4.79,106.76,20.47,212.76,27.42,319.47v0.01c2.53-0.34,5.03-0.73,7.49-1.17c-9.23-138.97-49.22-276.77-13.11-416.61   C238.58,109.25,236.96,105.9,235.48,102.48z"/>
	
		<path fill-rule="evenodd" clip-rule="evenodd" fill="#162E53" stroke="#DCDDDD" stroke-width="0.2248" stroke-miterlimit="22.9256" d="   M232.91,10.69c-20.31,52.13,0.51,103.25,32.71,136.52l3.12-8.7C214.23,76.97,241,17.53,242.25,15.02L232.91,10.69z"/>
	<path fill-rule="evenodd" clip-rule="evenodd" fill="#DCDDDD" d="M90.32,8.47c6.35,19.73,25.2,68.13,58.18,71.59   c32.98-3.46,51.83-51.87,58.18-71.59c-9.72,3.99-31.2,11.39-58.18,11.98C121.52,19.86,100.04,12.47,90.32,8.47z"/>
	
		<path fill-rule="evenodd" clip-rule="evenodd" fill="#162E53" stroke="#DCDDDD" stroke-width="0.2248" stroke-miterlimit="22.9256" d="   M81.83,2.62c7.69,31.39,30.1,80.3,66.52,84.01c0.05,0,0.1-0.01,0.15-0.01s0.1,0.01,0.15,0.01c36.42-3.71,58.83-52.62,66.52-84.01   l-6.05-2.41c-17.68,9.28-39.1,13.6-60.62,13.6c-21.52-0.01-42.94-4.32-60.62-13.6L81.83,2.62L81.83,2.62L81.83,2.62L81.83,2.62z    M148.5,80.06C115.52,76.6,96.67,28.19,90.32,8.47c9.72,3.99,31.2,11.39,58.18,11.98c26.98-0.59,48.46-7.98,58.18-11.98   C200.33,28.2,181.48,76.6,148.5,80.06z"/>
	
		<path fill-rule="evenodd" clip-rule="evenodd" fill="#162E51" stroke="#DCDDDD" stroke-width="0.2248" stroke-miterlimit="22.9256" d="   M31.38,147.2c0,0,13.43,38.68,13.43,97.97S42.84,389.36,0.25,516.46c0,0,24.02,10.29,50.83,13.85   c9.3-142.7,51.34-284.15,10.46-427.84C54.21,119.34,43.62,134.56,31.38,147.2z"/>
	<path fill-rule="evenodd" clip-rule="evenodd" fill="#00778E" d="M51.07,530.31c9.3-142.68,51.34-284.14,10.46-427.82   c-1.51,3.47-3.16,6.87-4.93,10.2c36.03,139.78-3.92,277.52-13.15,416.43C45.96,529.56,48.5,529.96,51.07,530.31z"/>
	
		<path fill-rule="evenodd" clip-rule="evenodd" fill="#162E53" stroke="#DCDDDD" stroke-width="0.2248" stroke-miterlimit="22.9256" d="   M64.09,10.69c20.31,52.13-0.51,103.25-32.71,136.52l-3.12-8.7C82.76,76.97,55.99,17.53,54.74,15.02L64.09,10.69z"/>
	
	
		<path fill-rule="evenodd" clip-rule="evenodd" fill="#162E52" stroke="#DCDDDD" stroke-width="0.2248" stroke-miterlimit="22.9256" d="   M148.5,537.39c0,0,10.9,0.27,34.98-3.45c0,0,12.74-2.03,19.79-2.38c7.05-0.34,26.09,1.74,42.67-1.25   c-9.3-142.69-51.34-284.15-10.46-427.84c-11.94-27.53-15.15-59.46-2.56-91.78l-17.74-8.08c-7.69,31.39-30.1,80.3-66.52,84.01   l-0.15-0.01l-0.15,0.01C111.94,82.91,89.52,34,81.84,2.61l-17.75,8.08c12.59,32.32,9.37,64.25-2.56,91.78   c40.88,143.69-1.16,285.15-10.46,427.84c16.57,3,35.62,0.91,42.67,1.25s19.79,2.38,19.79,2.38   C137.6,537.66,148.5,537.39,148.5,537.39z"/>
	<path fill-rule="evenodd" clip-rule="evenodd" fill="#00778D" d="M158.11,536.97c5.73-0.43,14.11-1.3,25.37-3.04   c0,0,2.44-0.39,5.78-0.86l-5.61-8.57c-21.88-58.07-9.37-88.95-2.17-102.4c7.22-13.49,25.54-33.25,46.67-48.94   c-0.41-3.28-0.82-6.57-1.21-9.85c-19.45,16-39.63,36.07-50.96,54.04c0,0,11.72-48.83,46.65-92.92c-0.43-4.34-0.83-8.68-1.21-13.01   c-40.66,60.28-72.25,121.27-53.54,196.86c-11.01-17.47-19.39-37.04-22.9-57.78c-3.43-20.25-3.1-41.01,0.24-61.24   c2.33-14.13,6.12-28.05,11.16-41.48c-6.14,10.82-11.51,22.1-15.78,33.78c-6.7,18.34-10.65,37.8-10.16,57.38v0.07   c0.02,2.17,0.12,4.37,0.25,6.54c0.31,5.58,0.83,11.17,1.52,16.72c2,16.01,5.52,32.53,11.48,47.55c2.18,5.51,4.74,10.9,7.77,15.99   L158.11,536.97L158.11,536.97z M224.29,153.24c0.23-1.42,0.45-2.83,0.69-4.25c-6.17-7.28-13.03-12.3-20.61-14.25   C211.91,137.85,218.61,144.4,224.29,153.24L224.29,153.24z M79.06,232.53c0.03,3.25,0.04,6.51,0.02,9.76   c13.95-12.91,41.28-37.97,52.07-46.22c16.95-12.96,29.34-25.54,29.91-45.44c-3.19,15.08-15.92,30.04-27.73,38.31   C127.97,192.7,96.95,215.12,79.06,232.53L79.06,232.53z M73.13,336.61c8.79-27.96,30.43-73.94,82.45-109.47   c0.58-0.4,1.17-0.78,1.75-1.19c15.48-10.68,18.17-12.29,42.2-29.54l-0.56,7.1c-14.72,10.36-26.35,18.48-39.72,27.95   c-22.17,15.7-79.72,67.29-85.34,144.11c0,0,0.46,103.43,48.11,138.13c0,0-53.69-27.83-56.24-116.44   C68.41,377.05,70.97,356.83,73.13,336.61L73.13,336.61z M59.13,449.04c-0.31,2.52-0.62,5.05-0.92,7.57   c4.55,12.02,10.23,24.17,16.76,32.17c0,0-9.44-9.02-18.26-19.38c-0.25,2.15-0.49,4.31-0.73,6.46c6.72,7.15,14.95,14.35,23.22,17.69   C79.19,493.56,70.6,483.53,59.13,449.04z"/>
	<path fill-rule="evenodd" clip-rule="evenodd" fill="#FFF500" d="M218.27,259.98c-0.16-5.02-0.26-10.03-0.31-15.05   c-15.07,39.4-41.67,64.23-55.29,97.18c-24.84,60.13-23.53,132.32,20.91,182.31c-36.72-42.66-41-125.7-17.42-176.16   c13.61-29.12,36-57.59,51.04-86.18C217.56,261.4,217.91,260.69,218.27,259.98L218.27,259.98z M217.95,232.27   c-11.5,37.97-42.54,77.44-58.95,103.71c-14.37,23.01-33.42,60.73-32.35,103.06c0,0,0.38,53.18,21.55,88.7   c-12.18-10.49-16.46-18.62-23.28-32.29c-6.16-12.34-18.38-39.91-22.91-72.14c0,0-7.38-47.38,7.28-86.71   c19.57-52.49,72.97-91.69,86.24-134.29c11.71-37.64,2.2-69.5-35.41-84.87c0,0,43.88,7.92,43.88,57.24   c0.3,50.79-39.76,85.16-66.2,122.8c0,0-50.43,64.95-25.41,149.8c0,0-13.58-42.29,18.97-109.04c4-6.75,8.15-14.31,12.19-20.76   c19.17-30.66,46.93-61.87,58.34-95.92c0,0,13.08-47.26,0.77-67.39c0,0,13.28,17.86,8.08,50.54c-2.72,72.8-126.19,150.2-89.68,258.6   c-5.37-40.5,1.7-74.79,20.27-109.45c27.95-52.18,97.78-123.44,69.61-184.18c4.31,5.74,7.26,11.82,9.09,18.15   C218.74,202.66,218.09,217.47,217.95,232.27L217.95,232.27z M221.93,169.8c0.32-2.57,0.66-5.13,1.02-7.7   c-3.68-6.27-8.63-11.56-15.11-15.39C213.88,152.22,218.62,160.5,221.93,169.8L221.93,169.8z M74.64,321.77   c14.3-34.45,32.36-59.23,63.68-86.18c1.05-0.9,1.17-1.07,1.91-2.23c6.02-9.52,38.11-63.95,12.2-104.38   c0,0,35.52,44.97-10.06,103.38c17.56-14.16,35.44-44,34.3-67.71c-0.54-11.17-8.75-28.01-20.78-37.09   c42.22,28.9,18.03,83.8-13.99,109.7c-5.29,4.28-43.92,35.67-62.89,83.18c0,0-2.41,4.51-5.49,12.48   C73.91,329.21,74.28,325.49,74.64,321.77L74.64,321.77z M61.91,427.1c3.9,28.44,15.46,59.66,41.14,89.78   c-22.94-46.73-59.27-176.3,44.03-259.11c-74.63,69.41-78.44,168.27-38.06,269.25c0,0-36.59-32.14-48.61-88.16   C60.9,434.94,61.4,431.02,61.91,427.1L61.91,427.1z M182.28,183.45c-1.08,19.12-10.29,32.66-10.29,32.66l6.28-4.29   C183.29,204.29,184.69,192.28,182.28,183.45L182.28,183.45z M142.05,232.62l-0.97,0.76l0.54-0.43   C141.77,232.85,141.91,232.73,142.05,232.62z"/>
</g>
<g id="图层_x0020_1">
	<path fill="#F08300" d="M136.68,43.52c0.416,1.136,1.472,1.984,2.752,2.032c0.144,0,0.304,0,0.448-0.016h0.016   c0.016,0,0.064,0,0.128-0.016c0.032,0,0.048-0.016,0.08-0.016c0.064-0.016,0.144-0.032,0.224-0.048c0.016,0,0.016,0,0.032,0   c0.192-0.048,0.4-0.112,0.576-0.208c0.192-0.096,0.4-0.224,0.608-0.384c0.672-0.56,1.104-1.408,1.104-2.352   c0-0.224-0.032-0.448-0.08-0.672l0,0C142.52,41.64,142.47,41.47,142.39,41.29C141.92,40.2,140.84,39.44,139.57,39.44C137.88,39.44,136.5,40.81,136.5,42.51C136.5,42.86,136.56,43.2,136.68,43.52L136.68,43.52L136.68,43.52z M140.98,42.54L140.98,42.54C140.95,43.32,140.29,43.92,139.51,43.88C138.72,43.85,138.13,43.2,138.16,42.41c0.032-0.784,0.688-1.376,1.472-1.344   C140.4,41.1,141.01,41.77,140.98,42.54L140.98,42.54z"/>
	<polygon fill="#F08300" points="155.01,40.12 ,154.37,41.71 ,152.93,41.71 ,151.51,45.26 ,149.56,45.26 ,150.96,41.71 ,149.38,41.71    ,150.02,40.12"/>
	<path fill="#F08300" d="M156.98,35.39c-1.008-0.096-3.024-0.144-5.056,0.112c-2.416,0.304-5.152,0.912-7.616,1.664   C142.26,37.77,140.39,38.49,139.04,39.26C139.24,39.23,139.43,39.21,139.62,39.21c0.48,0,0.944,0.112,1.36,0.288   C145.08,37.18,152.28,35.13,156.98,35.39L156.98,35.39L156.98,35.39z"/>
	<path fill="#F08300" d="M142.45,40.86c4-2.368,8.88-4.672,13.488-5.248c-4.608,0.288-10.224,2-14.288,4.304   C141.97,40.17,142.24,40.49,142.45,40.86C142.45,40.86,142.45,40.86,142.45,40.86z"/>
	<polygon fill="#F08300" points="160.5,40.12 ,159.88,41.71 ,158.42,41.71 ,157.01,45.26 ,156.55,45.26 ,155.04,45.26 ,153.35,45.26    ,153.94,43.76 ,155.65,43.76 ,156.47,41.71 ,154.88,41.71 ,155.52,40.12"/>
	<polygon fill="#F08300" points="149.59,40.12 ,148.95,41.71 ,146.66,43.82 ,148.92,43.82 ,148.34,45.26 ,142.85,45.26 ,146.52,41.71    ,143.94,41.71 ,144.58,40.12"/>
	<path fill="#F08300" d="M154.87,35.98c-3.376,0.752-6.464,2.192-9.424,3.952h1.888C149.76,38.36,152.1,36.93,154.87,35.98z    M144.07,40.8C143.44,41.18,143.38,41.23,142.77,41.64c0.064,0.256,0.112,0.544,0.112,0.816c0,0.496-0.112,0.976-0.32,1.392   c0.176-0.16,0.32-0.304,0.432-0.4c0.272-0.24,0.768-0.64,1.6-1.296l0.32-0.256H143.59l0,0L144.07,40.8L144.07,40.8L144.07,40.8z"/>
</g>
</svg>